<svg height="600" viewBox="0 0 900 600" width="900" xmlns="http://www.w3.org/2000/svg"><g transform="matrix(1.049121 0 0 1 .00233 -144.0943)"><path d="m0 743.8v-599.7h857.9v600z" fill="#fff" transform="matrix(.99995455 0 0 1 -.002221 -.0057)"/><path d="m857.85879 744.0943v-600l-857.86101104 600z" fill="#087bce" stroke-width=".999977"/><path d="m857.85879 744.0943v-400l-571.90734 400z" fill="#38a100" stroke-width="1.000006"/></g><path d="m232.1 329.9c10 5.5 19.2 8.6 26 3.7 10-7.2-3.9-33.3-16.1-51s-28.3-57.1-12.8-68.2 36.8 6.6 43.3 34.9c2.8 12.2 10 28.3 24.4 25s13.4-25.1 5.5-48.3c-6.6-19.4-30-61.7-74.8-82.1l12-22.5c12.6 3.4 26.3-2.2 32.7-14.2 7.4-14 2.1-31.3-11.9-38.7s-31.3-2.1-38.7 11.9c-6.4 12-3.2 26.6 6.7 35.1l-12.6 23.7c-6.7-2.3-13.9-4-21.5-5.2.2-3.9.3-7.5-1.1-7.5-3.2 0 0-15-2.4-15s.8-15.3-2.2-15.3 1.4-15-1.5-15-.3-16.1-2.7-16.1-.8-14.4-3.7-14.4-.3-11.1-7.4-11.1c-7.2 0-4.5 11.1-7.4 11.1s-1.3 14.4-3.7 14.4.3 16.1-2.7 16.1c-2.9 0 1.5 15-1.5 15s.2 15.3-2.2 15.3.8 15-2.4 15c-1.4 0-1.4 3.2-1.2 6.9-8 .8-15.4 2.1-22.3 3.9l-19.2-36.1 32.2 2.6-66.2-53.1 6.9 84.5 15.9-28.1 18.1 34.1c-39.9 15.1-58.4 48.3-69.5 90.9-3 11.7-4.1 29.9 7.8 33.1 11 2.9 19.1-6.8 24.1-19.2 12-30 29.7-45.2 44.4-36.6 15.3 8.9 8.9 41.7-9.4 63.8-20.2 24.4-42.1 70 3.1 50.2l-36 67.7c-4 7.6 7.3 13.3 11.2 5.9l43.8-82.5c8.8-3.8 19-7.2 30.7-7.7v87.4c0 8.3 10.6 8.6 10.6 0v-87.1c9.9 1 20.8 4.1 32.8 10.6l42.3 79.7c3.9 7.3 15.2 1.7 11.2-5.9z" fill="#9c4a08"/></svg>