<?xml version="1.0" encoding="UTF-8"?>
<!DOCTYPE svg PUBLIC "-//W3C//DTD SVG 1.1//EN" "http://www.w3.org/Graphics/SVG/1.1/DTD/svg11.dtd">
<!-- Creator: CorelDRAW 2018 -->
<svg xmlns="http://www.w3.org/2000/svg" xml:space="preserve" width="300.4mm" height="200.4mm" version="1.1" style="shape-rendering:geometricPrecision; text-rendering:geometricPrecision; image-rendering:optimizeQuality; fill-rule:evenodd; clip-rule:evenodd"
viewBox="0 0 30040 20040"
 xmlns:xlink="http://www.w3.org/1999/xlink">
 <defs>
  <style type="text/css">
   <![CDATA[
    .fil0 {fill:black}
    .fil1 {fill:#0055A1}
    .fil2 {fill:#C52122}
    .fil4 {fill:#FFCC00}
    .fil3 {fill:white}
    .fil5 {fill:white;fill-rule:nonzero}
   ]]>
  </style>
 </defs>
 <g id="Layer_x0020_1">
  <metadata id="CorelCorpID_0Corel-Layer"/>
  <g id="_768446200">
   <rect class="fil0" y="-0.01" width="30040" height="20039.99"/>
   <rect class="fil1" x="20" y="20" width="30000" height="20000"/>
   <rect class="fil2" x="20" y="15020" width="30000" height="5000"/>
   <rect class="fil3" x="20" y="10020" width="30000" height="5000"/>
  </g>
  <g id="_768469000">
   <path class="fil2" d="M11039.12 5037.4l7961.76 0 0 8056.72c0,670.83 -548.46,1219.28 -1219.29,1219.28l-1644.74 0c-518.43,0 -772.31,198.98 -1015.7,639.99 -21.3,38.6 -71.33,84.01 -101.11,84.01 -29.78,0 -79.87,-45.39 -101.19,-84.01 -243.37,-441.01 -497.27,-639.99 -1015.69,-639.99l-1644.78 0c-670.81,0 -1219.26,-548.44 -1219.26,-1219.25l0 -8056.75z"/>
   <path class="fil3" d="M11148.07 5146.35l7743.86 0 0 7947.77c0,610.7 -499.65,1110.34 -1110.34,1110.34l-1576.47 0 -68.27 0c-575.97,0 -858.05,237.81 -1111.08,696.29l-5.77 4 -5.76 -4c-253.03,-458.48 -535.11,-696.29 -1111.08,-696.29l-68.27 0 -1576.51 0c-610.67,0 -1110.31,-499.64 -1110.31,-1110.31l0 -7947.8z"/>
   <path class="fil1" d="M11148.07 5146.35l3871.93 0 0 9758.4 -5.76 -4c-253.03,-458.48 -535.11,-696.29 -1111.08,-696.29l-68.27 0 -1576.51 0c-610.67,0 -1110.31,-499.64 -1110.31,-1110.31l0 -7947.8z"/>
   <path class="fil4" d="M11132.92 6438.66l3887.08 0 0 1292.31 -3887.08 0 0 -1292.31zm0 2584.61l3887.08 0 0 1292.31 -3887.08 0 0 -1292.31zm0 2584.62l3887.08 0 0 1292.3 -3887.08 0 0 -1292.3z"/>
   <g>
    <path class="fil2" d="M18267.74 11083.44c21.06,87.61 48.3,173.17 48.91,264.41 1.44,216.11 -8.08,444.79 0.79,658.13 9.13,219.4 41.85,407.46 81.83,620.76 30.47,162.77 59.39,311.4 5.51,475.29 -37.97,115.48 -169.74,174.9 -285.36,174.65 -111.06,-0.24 -189.83,-4.62 -300.88,-6.32 -52.12,-0.81 -106.83,76.29 -187.01,62.05 -41.1,-7.3 -49.92,-24.2 -71.16,-46.22 -11.13,-17.64 -152.8,-39.01 -179.44,-42.84 -70.28,-10.1 -140.37,62.98 -193.42,102.3 -14.48,10.73 -38.13,0.35 -38.51,-17.75 -2.32,-110.49 -13.63,-112.25 36.9,-206.05 -38.69,10.5 -65.45,22.52 -102.59,36.55 -25.9,9.79 -41.93,0.67 -45.12,-26.27 -5.92,-50.08 50.39,-173.46 67.68,-229.49 2.87,-9.31 2.69,-18.2 -5.67,-23.15 -7.76,-4.57 -39.57,-13.94 -60.19,-16.9 -26.29,-3.76 -63.94,14.27 -47.32,-35.18 22.26,-66.18 65.61,-118.29 105.87,-173 1.8,-2.45 1.78,-6.23 2.51,-9.06 -11.14,-6.89 -53.33,-19.41 -56.18,-28.13 18.36,-86.52 126.56,-191 207.39,-206.72 185.08,-35.98 294.02,56.09 402.09,183.5 19.25,22.66 21.73,8.3 17.7,-7.23 -4.51,-17.49 -51.2,-92.72 -86.47,-145.72 -65.5,-98.48 -149.93,-176.91 -210.76,-280.14 -36.77,-62.42 -62.93,-120.2 -94.36,-192.77 -5.67,-13.07 -18.69,-43.54 -37.88,-33.34 -233.49,124.46 -322.76,210.07 -378.24,475.15 -11.58,55.35 -25.28,110.28 -35.79,165.82 -10.02,52.99 5.09,103.92 17.98,154.68 23.09,90.99 31.04,183.01 17.61,276.19 -10.32,71.63 -37.44,203.51 -100.95,247.93 -69.19,48.39 -138.95,43.39 -248.36,27.79 -8.78,-1.25 -135.9,-27.46 -148.01,-23.5 -105.37,34.51 -210.86,47.91 -319.5,13.01 -67.8,-21.79 -166,-50.8 -210.17,-109.69 -20.01,13.41 -41.29,24.66 -58.94,40.07 -45.95,40.08 -97.98,57.01 -158.92,53.4 -47.92,-2.84 -96.17,-1.6 -144.2,0.06 -14.02,0.48 -27.75,8.64 -41.63,13.25 -13.43,4.46 -25.47,3.73 -25.2,-13.83 0.52,-32.4 25.8,-48.03 37.02,-113.18 6.39,-37.06 5.05,-75.38 8.74,-113 1.99,-20.28 -5.13,-27.21 -24.43,-23.62 -11.78,2.2 -23.97,3.08 -35.27,6.72 -15.42,4.96 -53.02,-1.19 -58.17,-11.1 -4.54,-8.75 -1.87,-28.86 4.25,-44.74 14.68,-38.15 42.05,-56.3 67.32,-136.38 11.39,-36.11 29.51,-69.52 52.27,-100.79 7.51,-10.3 11.44,-21.16 10.37,-33.3 -1.48,-16.78 -3.85,-21.5 -9.39,-20.14 -20.28,4.92 -62.52,13.83 -77.05,19.01 -8.84,3.15 -14.73,-0.04 -12.83,-20.34 9.58,-102.27 39.63,-138.89 121.06,-212.55 1.33,-2 -0.63,-6.92 -3.97,-7.15 -81.11,0 -54.28,0.35 -131.65,-20.75 -15.45,-4.22 -23.5,-15.3 -18.48,-25.87 10.76,-22.66 100.84,-71.22 126.28,-75.74 21.13,-3.77 22.56,3.98 45.75,-32.05 61.01,-94.83 191.08,-130.96 297.63,-111.21 65.29,12.11 129.44,27.66 178.36,73.7 45.41,42.76 87.48,132.86 117.87,192.44 9.58,18.86 19.65,-2.96 19.77,-14.02 0.24,-20.94 0.47,-41.89 0.67,-62.83 2.18,-235.7 26.76,-492 94.1,-729.54 69.99,-246.88 191.5,-495.93 407.83,-646.26 157.79,-109.62 327.28,-205.71 461.91,-344.64 29.26,-30.19 69.41,-90.63 88.64,-129.75 15.02,-30.53 -21.73,-23.25 -27.18,-16.79 -32.82,38.87 -61.12,81.83 -95.92,118.7 -45.12,47.79 -418.7,315.46 -457.13,329.02 -12.29,4.43 -26.66,5.26 -34.63,-14.96 -13.86,-35.17 -32.98,-68.24 -49.46,-102.41 -83.54,-173.3 -139.34,-408.81 -126.88,-614.79 5.08,-84.03 12.47,-285.17 42.42,-397.7 55.77,-209.56 74.63,-289.25 129.48,-525.85 53.35,3.79 158.24,-3.87 211.2,-10.12 174.63,-20.62 385.62,-85.97 571.33,-169 10.22,-4.57 14.51,-19.38 -6.74,-13.12 -195.98,66.32 -404.31,124.32 -608.24,148.65 -239.96,28.64 -447.2,-39.15 -676.34,-15.01 -58.18,6.14 -127.77,16.9 -179.25,20.81 -2.44,5.53 -5.88,10.79 -17.95,13.85 -30.17,7.64 -61.18,0.51 -90.39,-3.14 -80.48,-10.05 -155.71,70.33 -193.32,123.03 -49.75,-33.2 -51.2,-58.46 -51.2,-128.88 -61.76,17.16 -62.16,17.6 -105.05,61.09 -20.35,-39.6 -7.3,-71.66 -7.3,-131.91 -28.38,17.59 -46.69,28.79 -77.69,41.85 -3.24,-15.05 -4.19,-71.13 1.12,-84.03 20.82,-50.59 45.41,-51.4 48.44,-79.5 -23.54,0 -46.07,0 -69.62,0 0,-27.23 -1.55,-40.36 0.26,-50.3 5.64,-31.08 51.07,-49.41 48.01,-110.4 -1.02,-20.26 -6.14,-39.28 -0.77,-67.94 13.02,-69.46 55.54,-52.17 96.34,-91.55 77.63,-74.93 261.53,-126.01 378.8,-136.15 124.27,-10.75 254.54,-47.08 374.86,-87.1 270.37,-89.93 578.76,-364.54 727.13,-585.5 22.22,-33.1 43.13,-66.69 56.38,-104.03 7.32,-20.61 1.76,-24.26 -13.5,-8.24 -102.92,108.03 -170.98,223.37 -280.54,328.75 95.17,-154.73 144.19,-473.47 150.58,-618.15 3.96,-89.35 6.93,-147.94 -44.83,-224.78 -81.1,-120.43 -269.9,-238.79 -380.78,-311.72 -37.92,-24.95 -51.94,-120.34 0.28,-138.55 50.17,-17.5 68.18,-24.52 100.29,-27.05 117.96,-9.3 229.86,59.05 373.72,-9.86 0,-7.71 15.91,-9.59 0,-13.11 -119.74,-26.51 -331.7,8.64 -477.11,21.8 -95.66,8.65 -186.41,4.77 -270.86,-73.02 -48.67,-44.84 -110.83,-114.17 -122.28,-151.7 -20.36,-66.77 5.72,-127.99 72.38,-69.03 98.48,87.07 154.38,165.12 301.18,174.55 180.07,11.54 317.16,-74.62 512.47,17.52 5.83,2.75 5.34,-5.99 6.45,-17.04 -27.23,-37.72 -40.05,-50.12 -85.69,-68.34 -48.57,-19.4 -92.9,-25.8 -143.65,-30.1 -7.83,4.56 -13.6,10.24 -17.96,15.86 -31.61,40.82 -30.39,26.74 -71.7,-5.71 -13.11,-10.29 -26.24,-20.62 -39.36,-30.93 -11.89,9.69 -23.79,19.39 -35.68,29.08 -40.69,33.16 -31.89,39.63 -55.34,-3.67 -26.14,-48.28 -56.12,-80.5 -91.26,-112.24 -15.3,-13.82 -120.05,-328.14 -121.14,-353.68 -2.86,-65.89 45.68,-138 120.73,-126.92 85.16,12.56 180.15,30.06 263.17,43.38 42.02,6.75 96.96,13.5 138.85,-3.62 103.84,-42.44 232.27,-120.28 327.46,-147.94 145.75,-42.32 289.47,-7.55 427.76,43 19.98,7.31 40.61,12.85 56.54,17.82 78,-58.53 185.47,-95 232.92,-163.75 6.42,-9.31 43.67,-30.07 55.43,-31.63 9.83,-1.31 17.43,6.64 26.41,29.48 29.18,74.23 13.18,88.88 22.86,153.5 4.12,27.55 12.75,54.91 23.09,80.9 7.81,19.63 15.81,38.78 45.99,-8.47 33.75,-52.83 77.01,-95.9 119.26,-140.4 14.2,-14.95 53.86,-18.32 54.21,22.28 0.51,58.53 -3.71,117.28 -0.11,175.55 4.14,66.76 28.01,118.21 20.72,186.12 -13.45,125.54 -63.96,183.89 -102.55,294.05 -6.46,18.45 -8.66,40.43 -5.77,59.77 15.87,106.2 31.09,212.64 51.87,317.94 31.01,157.16 15.64,315.55 18.94,473.46 2.66,127.56 15.39,120.85 72.36,214.55 82.49,135.67 186.46,281.75 140.62,1157.04 -14.45,119.61 7.4,286.6 26.94,404.79 27.02,163.48 41.08,327.39 41.88,492.3 0.99,207.81 -12.23,401.79 -23.16,608.97 -4.9,92.89 -1.83,185.56 17.93,277.12 36.51,169.1 38.65,264.42 51.53,433.13 6.29,82.44 -49.5,260.54 -127.65,61.21 -42.26,-107.78 -108.88,-100.28 -83.75,4.3z"/>
    <path class="fil5" d="M17499.44 11740.47c41.82,-44.16 60.15,-96.51 78.1,-151.44 12.58,-38.49 31.11,-30.85 27.74,13.19 -3.95,51.71 -33.91,118.52 -83.73,158.47 -35.93,28.8 -62.08,21.99 -22.11,-20.22zm122.88 -40.87c46.43,-77.13 51.66,-109.42 61.15,-151.17 7.23,-27.92 34.62,-28.54 33.41,-3.78 -2.73,55.56 -30.09,144.4 -77.52,169.16 -20.37,10.63 -28.91,5.51 -17.04,-14.21zm-267.88 10.14c-18.03,68.77 -37.03,108.21 -92.53,139.22 -29.21,16.32 -19.78,-12.96 -12.55,-20.76 41.7,-44.97 56.51,-86.16 76.77,-138.9 18.07,-47.05 35.97,-8.77 28.31,20.44zm124.53 -59c-7.6,46.95 -42.71,108.74 -78.77,138.67 -18.28,15.17 -54.89,30.53 -27.21,-6.86 36.33,-49.07 69.27,-117.28 79.24,-149.03 9.71,-30.88 32.46,-18.18 26.74,17.22zm269.29 -38.9c14.41,-31.34 21.42,-58.88 26.32,-90.44 5.33,-34.39 31.92,-32.87 30.5,-0.44 -1.5,34.11 -13.27,67.92 -31.01,95.08 -7.54,11.55 -44.02,35.37 -25.81,-4.2zm135.56 -160.1c2.01,22.2 1.14,44.68 0,67.99 -2.7,54.82 -19.13,39.69 -17.81,-6.1 0.61,-21.4 1.59,-44.3 1.89,-62.35 0.6,-36.49 12.6,-36.06 15.92,0.46z"/>
    <g>
     <path class="fil5" d="M18058.49 6116.21c-18,96.85 -39.13,141.67 -42.56,238.93 -2.91,82.52 -75.97,93.51 -139.87,111.05 -23.91,6.57 -26.27,18.46 -17.01,40.89 15.71,38.05 45.9,99.03 62.13,141.72 40.35,106.18 52.5,189.79 -36.45,274.7 -61.91,59.12 -107.97,76.76 -163.13,119.23 -43.97,33.87 -86.17,70.03 -129.14,105.2 -14.94,12.21 -21.26,0.42 -12.27,-15.08 29.98,-51.59 52.58,-67.14 98.56,-104.08 110.76,-88.96 229.08,-180.76 188.2,-332.62 -20.24,-75.15 -54.55,-192.35 -57.7,-204.33 -4.77,-18.17 1.43,-32.99 17.63,-44.42 121.74,-85.84 143.16,-161.61 192.66,-292.28 14.52,-38.31 51.12,-104.35 38.95,-38.91z"/>
     <path class="fil5" d="M18226.68 9217.67c-31.57,-124.83 -47.94,-161.88 -28.53,-292.4 20.91,-140.56 61.84,-279.45 68.24,-420.02 2.3,-50.42 8.73,-100.72 15.29,-150.81 2.45,-18.72 34.48,-19.07 34.66,1.56 0.52,59.41 1.82,118.89 1.72,178.3 -0.19,115.5 -10.05,148.18 -33.9,258.36 -25.89,119.55 -36.94,184.74 -39.33,307.14 -0.64,32.56 -0.42,65.14 -0.28,100.86 0.07,16.35 -6.32,62.66 -17.87,17.01z"/>
     <path class="fil5" d="M18225.01 9476.85c-57.92,-73.14 -106.32,-142.02 -149.89,-219.6 -96.82,-172.43 -68.22,-276.05 -15.93,-450.54 31.86,-106.33 70.47,-108.11 41,21.74 -37.69,166.13 -70.42,236.19 14.8,400.74 42.68,82.4 104,180.92 144.63,237.44 37.61,52.33 -17.92,33.89 -34.61,10.22z"/>
     <path class="fil5" d="M17186.06 6153.88c9.66,0 84.7,1.48 88.29,-0.79 50.79,-32.07 81.29,13.08 118.89,30.92 11.72,5.56 24.23,10.19 34.61,17.7 21.6,15.63 27.68,50.99 15.95,82.42 -3.57,9.54 -5.5,20.07 -10.83,28.47 -11.13,17.54 -27.18,20.27 -37.24,-0.18 -3.44,-6.99 -2.54,-16.6 -2.04,-24.98 2.35,-38.96 -17.18,-53.57 -49.58,-73.22 -48.21,-29.25 -97.41,-14.5 -146.05,-18.19 -48.77,-3.69 -37.07,-42.15 -12,-42.15z"/>
     <path class="fil5" d="M16740.64 11020.92c94.2,-70.12 174.44,-139.21 275.95,-197.51 2.65,-1.52 28.72,-5.03 6.93,13.77 -81.4,70.32 -182.72,162.31 -266.97,221.51 -29.8,20.94 -63.13,36.89 -95.15,54.61 -18.98,10.51 -26.95,-11.59 -14.1,-23.82 19.66,-18.71 69.34,-50.69 93.34,-68.56z"/>
     <path class="fil5" d="M17168.58 11871.11l-125.74 82.06c-20.88,13.63 -45.36,13.09 -12.61,-9.96l119.28 -83.91c32.56,-22.91 37.02,0.09 19.07,11.81z"/>
     <path class="fil5" d="M17604.26 7346.5c59.98,-82.09 85.42,-116.78 101.43,-188.01 7.37,-32.78 32.21,-19.09 31.41,8 -1.81,61.06 -35.55,131.49 -99.8,188.09 -14.59,12.85 -50.58,15.93 -33.04,-8.08z"/>
     <path class="fil5" d="M16656.21 9077.19c-25.02,46.49 -93.41,99.62 -146.31,113.86 -18.94,5.09 -23.01,-16.38 -1.12,-30.42 47.41,-30.42 87.95,-65.21 133.28,-101.39 31.94,-25.48 23.66,0.27 14.15,17.95z"/>
     <path class="fil5" d="M17189.1 7786.18c8.16,28.95 -9.65,118.73 -16.14,149.72 -7.61,36.34 -23.02,65.9 -44.83,96.25 -17.58,24.45 -21.75,-6.35 -21.29,-20.15 2.98,-88.29 31.03,-145.14 60.66,-226.67 7.22,-19.86 15.41,-21.13 21.6,0.85z"/>
     <path class="fil5" d="M17521.27 7255.69c-81.68,15.88 -168.56,-17.9 -209.25,-76.63 -6.77,-9.75 6.08,-11.46 22.73,-3.18 63.85,31.73 109.97,58.85 190.7,59.25 40.36,0.2 18.53,16.16 -4.18,20.56z"/>
     <path class="fil5" d="M17431.42 8935.96c-32.18,52.09 -48.7,73.88 -104.38,118.01 -17.83,14.14 -15.71,-9.19 -2.29,-26.16 18.24,-16.43 67.55,-72.79 86.87,-90.9 11.63,-10.9 36.64,-28.22 19.8,-0.95z"/>
     <path class="fil5" d="M16781.1 9077.74c-24.42,40.05 -101.91,97.02 -147.47,105.01 -8.44,1.48 -6.53,-2.27 4.9,-10.06 66.32,-45.24 75.89,-48.27 134.16,-106.74 36.17,-36.31 16.4,-1.33 8.41,11.79z"/>
     <path class="fil5" d="M17955.6 7395.28c33.97,-19.65 67.08,-61.58 86.08,-84.2 14.96,-17.8 27.18,-10.93 17.36,12.85 -17.59,42.61 -47.5,71.42 -89.52,91.29 -32.53,15.38 -50.6,1.28 -13.92,-19.94z"/>
     <path class="fil5" d="M17288.52 8955.3c-39.83,60.17 -52.51,78.45 -121.54,129.27 -11.9,8.75 -12.8,-5.14 -3.37,-14.3 34.96,-33.98 79.55,-75.2 109.35,-120.81 8.11,-12.41 38.96,-29.5 15.56,5.84z"/>
     <path class="fil5" d="M17968.34 7253.98c34.35,-21.66 60.06,-63.86 75.92,-93.81 9.38,-17.71 32.82,-15.51 22.99,11.59 -16.34,45.02 -45.59,79.69 -84.12,109.02 -24.2,18.43 -65.44,5.12 -14.79,-26.8z"/>
     <path class="fil5" d="M17206.97 6289.41c10.24,-25.07 41.02,-29.6 69.54,-20.37 31.85,10.32 42.3,34.58 33.34,60.32 -9.23,26.55 -41.9,35.71 -73.71,24.43 -29.38,-10.41 -41.76,-33.51 -29.17,-64.38z"/>
     <path class="fil5" d="M15540.87 12327.76c34.62,-34.33 78.65,-33.97 121.69,-38.11 15.65,-1.5 20.23,16.08 0.81,25.97 -31.61,16.13 -63.21,32.27 -94.95,48.13 -14.64,7.31 -60.6,-3.21 -27.55,-35.99z"/>
     <path class="fil5" d="M16383.97 6168.68c-0.55,-22.73 12.12,-40.56 29.46,-41.48 21.9,-1.17 63.69,38.94 58.31,59.79 -4.04,15.7 -13,31.06 -36.8,29.89 -38.1,-1.88 -50.08,-11.15 -50.97,-48.2z"/>
     <path class="fil5" d="M17472.5 8992.49c23.7,-26.49 42.24,-42.95 66.09,-72.74 26.93,-33.64 27.41,-20.75 9.08,9.03 -15.91,25.84 -27.07,48.99 -54.06,72.79 -42.94,37.88 -37.18,8.88 -21.11,-9.08z"/>
     <path class="fil5" d="M17251.9 12769.06c-33.3,11.34 -69.86,21.15 -104.52,26.49 -39.36,6.06 -48.44,-8.57 -12.44,-25.58 39.12,-18.49 78.82,-30.58 122.22,-17.21 33.03,10.19 18.58,8.18 -5.26,16.3z"/>
     <path class="fil5" d="M18059.29 7464.83c-14.14,42.66 -61.46,85.05 -102.41,90.61 -15.67,2.13 -14.42,-9.15 -5.91,-16.79 24.79,-22.25 58.7,-47.92 75.56,-74.54 16.65,-26.27 43.01,-30.23 32.76,0.72z"/>
     <path class="fil5" d="M18037.49 7086.19c-20.51,26.65 -42.5,50.68 -67.58,69.88 -21.94,16.79 -81.63,33.17 -28.96,-11.73 28.55,-24.35 51.18,-45.96 74.5,-72.01 15.61,-17.42 52.69,-25.94 22.04,13.86z"/>
     <path class="fil5" d="M16537.44 11330.39c-14.82,21.23 -61.69,79.76 -69.28,98.02 -14.46,36.34 -48.49,13.28 -39.85,-11.57 15.4,-44.25 66.43,-74.82 101.55,-99.48 8.59,-6.03 16.62,0.09 7.58,13.03z"/>
     <path class="fil5" d="M16829.11 9123.04c29.11,-19.22 77.18,-69.44 105.41,-100.59 16.85,-18.6 14.19,-14.1 5.01,7.33 -11.86,27.63 -70.9,95.99 -98.83,109.89 -36.98,18.41 -32.46,-2.86 -11.59,-16.63z"/>
     <path class="fil5" d="M17268.36 13029.55c-22.35,7.96 -43.44,15.03 -65.7,17.27 -29.05,2.93 -38.83,-3.5 -10.45,-21.05 20.67,-12.77 47.73,-19.6 75.65,-15.63 25.04,3.54 29.28,9.17 0.5,19.41z"/>
     <path class="fil5" d="M15583.57 12553.68c-20.72,9.85 -58.8,31.41 -78.6,37.07 -21.87,6.25 -23.14,-26.83 -13.54,-32.41 27.25,-15.84 56.42,-24.59 87.4,-20.84 15.19,1.84 21.18,8.36 4.74,16.18z"/>
     <path class="fil5" d="M15658.12 13101.85c-12.93,12.95 -26.53,26.02 -42.13,35.15 -28.47,16.67 -39.33,-21.96 -28.8,-28.44 21.97,-13.54 45.34,-24.81 68.5,-36.4 31.59,-15.82 15.82,16.27 2.43,29.69z"/>
     <path class="fil5" d="M17094.89 9037.12c-29.67,33.64 -54.54,71.04 -100.4,83.26 -18.93,5.05 -19.41,-7.75 2.35,-16.73 19.31,-7.96 64.76,-49.38 92.79,-71.85 9.09,-7.27 14.26,-4.88 5.26,5.32z"/>
     <path class="fil5" d="M15584.42 12865.07c-17.75,11.47 -35.57,23 -54.27,32.75 -23.6,12.32 -35.93,-23.04 -12.33,-34.13 19.44,-9.15 38.07,-21.6 59.61,-23.77 29.76,-3 35.59,6.66 6.99,25.15z"/>
     <path class="fil5" d="M17269.36 12534.51c-18.65,6.87 -36.82,17.77 -56.93,20.57 -35.36,4.93 -42.27,-7.55 -9.53,-26.61 17.25,-10.05 39.07,-14.77 58.96,-12.98 46.16,4.16 35.78,8.61 7.5,19.02z"/>
     <path class="fil5" d="M16827.66 8211.25c15.71,-11.38 74.37,-73.41 89.36,-88.72 8.07,-8.24 29.31,-5.15 8.09,24.29 -10.23,14.19 -65.75,71.93 -77.06,80.72 -20.04,15.57 -45,1.53 -20.39,-16.29z"/>
     <path class="fil5" d="M18017.54 7616.7c4.76,-3.17 21.09,-11.11 28.06,-11.39 15.27,-0.6 20.34,5.78 10.26,18.3 -5.44,6.75 -20.73,20.04 -27.92,23.51 -23.59,11.38 -34.77,-14.22 -10.4,-30.42z"/>
     <path class="fil5" d="M17618.4 8894.97c-20.2,40.23 -23.27,11.77 -13.91,-4.58 9.76,-17.02 30.23,-27.94 13.91,4.58z"/>
     <path class="fil5" d="M17310.25 13156.11c2.43,-5.15 17.42,-12.21 22.33,-12.91 12.57,-1.8 14.11,4.97 3.62,16.63 -4.72,5.25 -17.54,11.57 -23.74,13.28 -20.18,5.56 -7.05,-6.77 -2.21,-17z"/>
    </g>
    <path class="fil3" d="M16676.38 10520.85c-2.63,44.99 -20,71.06 -35.97,106.3 -27.35,60.34 -48.71,182.95 -44.64,48.38 1.97,-65.42 23.35,-89.33 48.62,-134.42 31.25,-55.75 38.37,-129.17 31.99,-20.26zm-134.99 -29.33c12.04,-72.31 39.17,-123.21 54.1,-174.9 17.57,-60.84 4.39,-78.8 -31.64,-25.48 -29.78,44.06 -57.82,76.32 -42.8,198.15 10.1,81.88 6.2,87.24 20.34,2.23z"/>
    <path class="fil2" d="M16049.28 9304.07c-160.21,34.9 -245.17,143.7 -248.31,318.38 -11.02,20.2 -21.12,49.6 -21.12,83.58 22.05,0 38.58,-0.91 62.47,-6.42 -7.14,38.85 -7.56,88.2 -7.36,136.86 33.07,-29.12 67.61,-40.24 101.05,-44.09 -12.05,60.41 -29.32,124.7 18.36,183.71 49.09,-31.06 93.05,-84.51 154.33,-81.75 -11.22,46.98 -16.64,78.92 3.67,120.33 33.8,-31.3 60.18,-53.65 97.38,-80.83 45.89,-15.93 70.2,-25.1 87.97,-36.64 40.3,-26.17 105.29,-129.26 134.28,-173.74 10.15,-15.55 15.52,-56.59 22.99,-84.86 30.12,-113.94 61.45,-239.76 76.17,-346.87 -72.17,-1.79 -270.29,-29.2 -385.71,-29.2 -13.5,48.35 -41.27,29.58 -96.17,41.54z"/>
   </g>
  </g>
 </g>
</svg>
