<svg xmlns="http://www.w3.org/2000/svg" viewBox="0 0 3370 2160"><defs><style>.cls-1{fill:#f4b41a;}.cls-2{fill:#1f3300;}.cls-3{fill:#fff;}.cls-4{fill:#fbb03b;}.cls-5,.cls-7{fill:none;}.cls-5{stroke:#d8231e;stroke-miterlimit:10;stroke-width:33.83px;}.cls-6{fill:#750000;}</style></defs><title>Asafia flag of Hyderabad State</title><g id="Background"><rect class="cls-1" width="3370" height="2160"/></g><g id="Bars"><rect class="cls-2" y="290.5" width="3370" height="337"/><rect class="cls-2" y="1532.5" width="3370" height="337"/><rect class="cls-3" y="349.99" width="3370" height="60"/><rect class="cls-3" y="510" width="3370" height="60"/><rect class="cls-3" y="1591.99" width="3370" height="60"/><rect class="cls-3" y="1752" width="3370" height="60"/></g><g id="White_Disc" data-name="White Disc"><circle class="cls-3" cx="1685" cy="1077.86" r="355"/></g><g id="Dastar"><path class="cls-4" d="M1710,803.62l27-66.31H1633.1l27,66.31a127.15,127.15,0,0,0-102.16,124.66h254.22A127.15,127.15,0,0,0,1710,803.62Z"/></g><g id="Shield"><g id="layer1"><path id="rect1417" class="cls-5" d="M1533.28,913l-46.41,58.18s26.59,48.53,30.4,76.33,2.75,34.62-12.72,79.65-39.33,102.69-37.84,131.27c3,57.16,40.66,59.34,87.29,73.06,40.55,11.93,113.11,56,131.66,67.27a35.08,35.08,0,0,1,4.74,3.9,40.1,40.1,0,0,1,5.51-4.42c17.41-11.06,79.73-54.88,120.09-66.75,46.63-13.72,84.32-15.9,87.29-73.06,1.49-28.58-22.37-86.23-37.84-131.27s-16.53-51.84-12.72-79.65,30.4-76.33,30.4-76.33L1836.71,913c-46.87,19.48-88,34.69-143.06,31.53l-2.56.25-2.43-.06c-55.11,3.16-108.5-12.24-155.38-31.72Z"/></g></g><g id="Arabic_Writing" data-name="Arabic Writing"><path class="cls-6" d="M1285.83,251.85q5.34-5.74,10.59-11.07t10.32-10.72q5-5.4,9.76-11.06t9.09-12.09a67.26,67.26,0,0,0,4.37-7.24q1.9-3.69,3.69-7.52c1.45-3.09,2.64-4.64,3.55-4.64.63,0,1,.41,1,1.23a31.54,31.54,0,0,1-.69,4.23,44.83,44.83,0,0,1-1.36,4.44A20,20,0,0,0,1335,202a6.39,6.39,0,0,0-.13,1.64,7.49,7.49,0,0,0,1.16,4.23,9.23,9.23,0,0,0,2.93,2.87,12.82,12.82,0,0,0,3.9,1.57,17.7,17.7,0,0,0,3.89.48,23,23,0,0,0,8.47-1.5,24.39,24.39,0,0,0,6.83-4,28.2,28.2,0,0,0,5.26-5.88,39.29,39.29,0,0,0,3.76-7c.27-.73.57-1.66.89-2.8s.56-2.07.75-2.8c.72-2.1,1.5-3.14,2.32-3.14.27,0,.5.27.68.82a6.06,6.06,0,0,1,.28,1.91c0,.45,0,.95-.07,1.5s-.07,1.09-.07,1.64a13.55,13.55,0,0,0,3.48,9.7q3.48,3.69,10.86,3.69a31.83,31.83,0,0,0,3.69-.28,28.43,28.43,0,0,0,4.65-1,27.56,27.56,0,0,0,4.37-1.71,6.34,6.34,0,0,0,2.87-2.53v-3.14A91.8,91.8,0,0,0,1405,184q-.82-6-1.92-12.16a52.05,52.05,0,0,1,3.21-15.44q2.8-7.52,5.67-15c1.1-2.73,1.87-4.09,2.33-4.09.27,0,.43.43.47,1.29s.16,2.12.34,3.76q.42,4.78,1,8.74c.36,2.65.73,5.22,1.09,7.72s.66,5.13.89,7.86.34,5.78.34,9.15c0,1.73-.07,3.53-.2,5.4a25.78,25.78,0,0,1-1,5.53q-1.36,4.37-3,9.63c-1.09,3.51-2.37,7-3.83,10.59a104.92,104.92,0,0,1-5,10.45,46.7,46.7,0,0,1-6.42,9.08,31,31,0,0,1-8,6.35,20.13,20.13,0,0,1-9.84,2.39,15.43,15.43,0,0,1-6.15-1.29,14.12,14.12,0,0,1-5.33-4.17,18.44,18.44,0,0,1-4.09-8.61q-1.1,2.05-2.19,4c-.73,1.27-1.46,2.5-2.19,3.68a35.11,35.11,0,0,1-9,9,20.5,20.5,0,0,1-12,3.82,15.94,15.94,0,0,1-7.11-1.36,11.19,11.19,0,0,1-4.37-3.83,16.37,16.37,0,0,1-2.32-5.94,47.61,47.61,0,0,1-.82-7.72q-2.33,2.59-4.44,4.92c-1.41,1.55-2.85,3.05-4.3,4.51s-3,2.94-4.51,4.44-3.28,3.07-5.19,4.71q-4.38,3.82-9.36,7.51t-10.18,6.83q-2.73,1.92-4,1.92c-.54,0-.82-.23-.82-.69Q1282.69,255.27,1285.83,251.85Zm95.9-102.32q1-2.59,1.78-4.85c.55-1.5,1.09-3.07,1.64-4.71.36-.82.68-1.23.95-1.23s.64.64.82,1.91a24.81,24.81,0,0,1,.41,3.08c.09,1.14.14,2.25.14,3.34a39.45,39.45,0,0,1-1.09,9.22,19.87,19.87,0,0,1-3.55,7.72,16.41,16.41,0,0,1-3.56,3.35,7.11,7.11,0,0,1-4.09,1.3,5.55,5.55,0,0,1-4-1.51,8.82,8.82,0,0,1-2.26-3.41,16.5,16.5,0,0,1-3.55,5.19,7.47,7.47,0,0,1-5.46,2.32,5.42,5.42,0,0,1-4.1-1.91,7.12,7.12,0,0,1-1.78-5.06,38.32,38.32,0,0,1,.75-7.37c.5-2.55.94-4.69,1.3-6.42.36-1.28.75-2.55,1.16-3.83s.89-2.55,1.44-3.82c.09-.55.31-.82.68-.82s.55.41.55,1.23v.54c-.19,1.73-.48,3.69-.89,5.88a33.38,33.38,0,0,0-.62,6.15,5.34,5.34,0,0,0,1,3.55,3.11,3.11,0,0,0,2.46,1.09,5.58,5.58,0,0,0,4.92-2.73,7.35,7.35,0,0,0,1.64-3.83q.27-2.18.54-4.92l2.6-7.37c.27-.73.54-1.09.82-1.09.63,0,1,.41,1,1.22s0,2.1-.07,3.83-.06,3.19-.06,4.37a18.89,18.89,0,0,0,.75,5.74,3.26,3.26,0,0,0,3.48,2.32,8.69,8.69,0,0,0,4-1,22.57,22.57,0,0,0,.34-3.21C1381.71,152.7,1381.73,151.26,1381.73,149.53Zm-12-15.16a13.58,13.58,0,0,1,.41-2.87,14.84,14.84,0,0,0,.41-3.28q0-9,.62-15.85T1372,104a22.87,22.87,0,0,1,1.1-4.1c.54-1.54,1.13-3.07,1.77-4.57s1.3-3,2-4.37,1.25-2.62,1.71-3.62c.36-.82.87-1.23,1.5-1.23.46,0,.69.36.69,1.09a6.91,6.91,0,0,1-.07.75c0,.32-.12.71-.21,1.16s-.25,1.32-.47,2.32-.44,2-.62,3.15-.36,2.16-.55,3.21a15.6,15.6,0,0,0-.27,2.52v4c0,1.19,0,2.33-.14,3.42l-.27,3.28q-.14,1.63-.27,3.69c-.09.54-.23,1.2-.41,2a8.89,8.89,0,0,1-.55,1.7l-6.28,16.26a.82.82,0,0,1-.55.27C1369.85,134.91,1369.71,134.73,1369.71,134.37Z"/><path class="cls-6" d="M1556.73,112.24a17.37,17.37,0,0,1-5.19-3.21,6.76,6.76,0,0,1-2.19-5.26,14.28,14.28,0,0,1,1-4.31,29.75,29.75,0,0,1,2-4.16,44.52,44.52,0,0,1,2.46-3.9c.86-1.22,1.7-2.39,2.52-3.48s1.92-2.23,3-3.41a28.41,28.41,0,0,1,3.69-3.35,22.19,22.19,0,0,1,4.3-2.6,11.62,11.62,0,0,1,4.85-1,13.1,13.1,0,0,1,4.85.75,6.93,6.93,0,0,1,2.87,2,7.75,7.75,0,0,1,1.43,2.87,12.84,12.84,0,0,1,.41,3.21,24.76,24.76,0,0,1-2.12,8.33,54.61,54.61,0,0,1-3.75,6.83,61,61,0,0,1-15.58,16.4,138.31,138.31,0,0,1-19.39,11.61,25.25,25.25,0,0,1-5.06,1.91,19.06,19.06,0,0,1-4.78.82,7.38,7.38,0,0,1-.89-.07c-.32-.05-.48-.2-.48-.48a2.4,2.4,0,0,1,1-1.57,13.34,13.34,0,0,1,1.71-1.3,54.77,54.77,0,0,1,5.8-3.69c2.14-1.18,4.22-2.45,6.22-3.82s4.07-2.92,5.94-4.37A58.83,58.83,0,0,0,1556.73,112.24Zm1.36-19.13a6.07,6.07,0,0,0,.89,2.94A12.72,12.72,0,0,0,1561.3,99a15.23,15.23,0,0,0,3,2.25,6.22,6.22,0,0,0,3.07.89,6,6,0,0,0,4.65-1.78,5.87,5.87,0,0,0,1.64-4.1,5.67,5.67,0,0,0-2.33-4.3,10.38,10.38,0,0,0-5.6-2.39,14.25,14.25,0,0,0-2.25.21,11.93,11.93,0,0,0-2.39.61,7.6,7.6,0,0,0-2,1.09A2.52,2.52,0,0,0,1558.09,93.11Z"/><path class="cls-6" d="M1495.12,169.75c.54,0,.88.43,1,1.3a15,15,0,0,1,.21,2.39A55.21,55.21,0,0,1,1496,180a50.36,50.36,0,0,0-.34,5.74,26.83,26.83,0,0,0,1.16,8.4,15.84,15.84,0,0,0,3.49,6,18.82,18.82,0,0,0,5.8,4.09,47.57,47.57,0,0,0,8.13,2.87,144.46,144.46,0,0,0,19.33,3.76,163.61,163.61,0,0,0,20.83,1.3q9.7,0,19.68-.55t19.94-1.84q10-1.31,19.6-3.42a161.56,161.56,0,0,0,18.65-5.26q3.82-1.36,8.26-3.34a61.42,61.42,0,0,0,8.54-4.65,43.45,43.45,0,0,0,7.31-5.94,20.92,20.92,0,0,0,4.71-7.24c.19-.46.44-1.18.76-2.19s.68-2,1.09-3a20.8,20.8,0,0,1,1.3-2.67c.45-.77,1-1.16,1.5-1.16a1.93,1.93,0,0,1,1.71,1,3.72,3.72,0,0,1,.61,2,37.7,37.7,0,0,1-1.23,8.94,67.36,67.36,0,0,1-8.67,20,46.49,46.49,0,0,1-6.76,8.33,87.77,87.77,0,0,1-21.59,15.23,127.22,127.22,0,0,1-25.54,9.43,183.36,183.36,0,0,1-28.76,4.85q-15.09,1.36-31.08,1.36-5.6,0-12.16-.34a106.32,106.32,0,0,1-13.11-1.5,81.35,81.35,0,0,1-12.64-3.28,39.12,39.12,0,0,1-10.79-5.67,27.1,27.1,0,0,1-7.51-8.6,24.72,24.72,0,0,1-2.8-12.16,101.27,101.27,0,0,1,.89-12.57,131.3,131.3,0,0,1,2.32-13.32,73.32,73.32,0,0,1,3.14-10.52C1492.91,171.18,1494,169.75,1495.12,169.75Zm43.85,6.83q4.1-5.19,8.67-10.66l8.13-9.69a1.86,1.86,0,0,1,1.09-.69,4.43,4.43,0,0,1,1.92,1q3.54,2.46,8.12,5.94l8.54,6.49q4-4.78,8.06-9.84t7.51-9c.46-.46.82-.69,1.1-.69a4.41,4.41,0,0,1,1.91,1q3.56,2.46,8.13,5.81t8.54,6.35a10,10,0,0,0,1.23,1.09,1.21,1.21,0,0,1,.54,1,3.46,3.46,0,0,1-.82,1.5L1595.11,186a5.51,5.51,0,0,1-.75.88q-.48.48-.75.48a3.59,3.59,0,0,1-1.64-.68q-3.83-2.59-8.4-6.08t-8.54-7l-15.43,18.58a6.24,6.24,0,0,1-.76.89q-.48.48-.75.48a3.71,3.71,0,0,1-1.64-.68q-3.83-2.59-8.4-6.22t-8.54-7.17c-.91-.73-1.36-1.28-1.36-1.64a1.06,1.06,0,0,1,.27-.62A6.58,6.58,0,0,1,1539,176.58Z"/><path class="cls-6" d="M1663.69,164.69a5.91,5.91,0,0,1,1.64-3.82q1.37-2.06,3.35-4.71t3.75-4.72a12.19,12.19,0,0,1,2.26-1.09q1.71-.67,5.94-2.18t11.82-4.1l19.87-6.83a9,9,0,0,0,1.78-.62,6.66,6.66,0,0,1,2.32-.61.36.36,0,0,1,.41.41,3.24,3.24,0,0,1-.41,1.23c-.37.45-1,1.16-1.78,2.11s-1.7,2-2.66,3-1.89,2-2.8,3-1.55,1.62-1.91,2a15.2,15.2,0,0,1-5.33,3.68l-34.15,13.12a9,9,0,0,1-1.57.54,6.6,6.6,0,0,1-1.71.28C1664,165.38,1663.69,165.15,1663.69,164.69Z"/><path class="cls-6" d="M1676.94,194.07a50,50,0,0,0,2.8,7.71,18.21,18.21,0,0,0,4,5.6,15,15,0,0,0,5.74,3.35,26.35,26.35,0,0,0,8.13,1.09A34.19,34.19,0,0,0,1708.7,210a27.76,27.76,0,0,0,9.77-5.81c.82-.72,1.75-1.57,2.8-2.52l3.21-2.94c1.09-1,2.19-2,3.28-2.94s2-1.75,2.87-2.39a29.78,29.78,0,0,1,3.14-1.84c1.45-.77,2.64-1.34,3.55-1.71q2.87-5.06,4.64-8.2c1.19-2.09,2.12-3.73,2.81-4.91a12.31,12.31,0,0,1,1.64-2.39,1.7,1.7,0,0,1,1.16-.62,4.44,4.44,0,0,1,2.66,1c.86.64,1.62,1.23,2.25,1.77a56.7,56.7,0,0,1,4.38,4.65,55.45,55.45,0,0,1,4.3,5.8,36.86,36.86,0,0,1,3.28,6.36,17.42,17.42,0,0,1,1.29,6.42,5.33,5.33,0,0,1-.34,2.05,13.68,13.68,0,0,1-1,1.91l-15,24.72a1.77,1.77,0,0,1-1.64,1,5.63,5.63,0,0,1-1-.27l-8.06-5.19c-1.55-.91-3.33-1.92-5.33-3a12,12,0,0,0-5.74-1.64,4.8,4.8,0,0,0-4,1.91q-3.29,4.65-6.49,8.47a40.61,40.61,0,0,1-7,6.63,31.28,31.28,0,0,1-8.41,4.37,32.49,32.49,0,0,1-10.58,1.57,26,26,0,0,1-12.37-2.87,27.1,27.1,0,0,1-9-7.65,34.21,34.21,0,0,1-5.47-10.93,43.39,43.39,0,0,1-1.84-12.56Z"/><path class="cls-6" d="M1817.37,57.87a45.61,45.61,0,0,1,.55-6.22c.36-2.5.82-5.17,1.37-8s1.22-5.64,2-8.47,1.64-5.35,2.46-7.58a28,28,0,0,1,2.6-5.46c.91-1.42,1.77-2.12,2.59-2.12a20,20,0,0,1,6,.95,16,16,0,0,1,5.39,2.94,15,15,0,0,1,3.89,5.06,16,16,0,0,1,1.51,7.17,37.54,37.54,0,0,1-1.51,9.56,49,49,0,0,1-4.23,10.66,32.22,32.22,0,0,1-6.63,8.6,12.53,12.53,0,0,1-8.67,3.55,5.54,5.54,0,0,1-3.48-1.09,8,8,0,0,1-2.26-2.66,14,14,0,0,1-1.23-3.42A16.28,16.28,0,0,1,1817.37,57.87Zm9.29-21.45c-.63,0-1.23.71-1.77,2.12a34.47,34.47,0,0,0-1.44,4.78c-.41,1.78-.73,3.48-1,5.12a31.58,31.58,0,0,0-.35,3.14,5.56,5.56,0,0,0,1,3.42c.68.91,2.07,1.37,4.16,1.37a9.43,9.43,0,0,0,3.49-.82,18.32,18.32,0,0,0,3.75-2.12,14.26,14.26,0,0,0,3-2.94,5.29,5.29,0,0,0,1.23-3.14,8.16,8.16,0,0,0-1.16-4.17,14.18,14.18,0,0,0-2.87-3.48,13.68,13.68,0,0,0-3.89-2.39A11.28,11.28,0,0,0,1826.66,36.42Z"/><path class="cls-6" d="M1811,110.05q4.1-5.19,8.68-10.65l8.12-9.7c.46-.46.82-.69,1.1-.69a4.41,4.41,0,0,1,1.91,1q3.56,2.46,7.79,5.6t8.19,6.15a11.78,11.78,0,0,0,1.23,1.09,1.17,1.17,0,0,1,.55,1,3.46,3.46,0,0,1-.82,1.5l-16.53,19.94a5.54,5.54,0,0,1-.75.89q-.48.48-.75.48a3.67,3.67,0,0,1-1.64-.68q-3.83-2.59-8.2-6t-8.33-7c-.91-.73-1.37-1.28-1.37-1.64a1,1,0,0,1,.28-.61C1810.59,110.44,1810.77,110.24,1811,110.05Z"/><path class="cls-6" d="M1746.06,190.24a32.11,32.11,0,0,0,4,10.25,16,16,0,0,0,8.13,6.55,23.74,23.74,0,0,0,5.74,1.37,49.59,49.59,0,0,0,6.83.55c2.73,0,4.28-.41,4.64-1.23q2.73-5.74,5.47-12.09a67.62,67.62,0,0,0,4.1-12.91,39.5,39.5,0,0,0,.75-4.85c.22-2.14.48-5.33.75-9.57s.52-9.81.75-16.73.48-15.75.75-26.5c0-.09,0-.39.14-.89s.45-1.8,1.09-3.89,1.69-5.38,3.14-9.84,3.51-10.7,6.15-18.71c.09-.37.39-1.25.89-2.67s1.09-2.87,1.77-4.37a38.42,38.42,0,0,1,2.12-4c.73-1.18,1.41-1.77,2-1.77.46,0,.8.29,1,.88a17.16,17.16,0,0,1,.34,4.44q0,3.69-.41,11t-1.23,20.15q-.28,4.09-.82,10.38t-1.3,13.32q-.75,7-1.71,14.21t-1.91,13.18q2.87-3.56,6.22-7.51a56.81,56.81,0,0,1,7.31-7.24,40,40,0,0,1,8.6-5.47,23.57,23.57,0,0,1,10.11-2.18q8.61,0,12.7,5.19t4.1,13.39a41.88,41.88,0,0,1-2.87,15.5,149.6,149.6,0,0,1-6.55,14.41,103.57,103.57,0,0,1-5.6,9.16q-3,4.36-6.56,8.6c2.82.37,5.42.64,7.78.82s4.65.27,6.84.27a53.76,53.76,0,0,0,11-1.09,73.5,73.5,0,0,0,12.09-3.82v16.94a55.51,55.51,0,0,1-17.83,6.83,100,100,0,0,1-19.46,1.91,103.23,103.23,0,0,1-11.41-.62q-5.54-.62-11.68-1.57a100.85,100.85,0,0,1-18.51,8.95,57.61,57.61,0,0,1-19.87,3.62,40.33,40.33,0,0,1-13.53-2.18,24.74,24.74,0,0,1-11.2-7.25,35.6,35.6,0,0,1-6.56-11.47,31.43,31.43,0,0,1-1.84-7.24,58.12,58.12,0,0,1-.48-7.51V205Zm78-22.27a21.21,21.21,0,0,0-9.57,2.8,35.5,35.5,0,0,0-8,6.36,58.33,58.33,0,0,0-6.62,8.47q-3,4.64-5.4,9.08t-4.23,8.26a65,65,0,0,1-3.21,6,105.3,105.3,0,0,0,17.41-4.51,62.21,62.21,0,0,0,16-8.88q2.19-1.63,4.58-3.62a31.83,31.83,0,0,0,4.3-4.31,24.59,24.59,0,0,0,3.21-5,13,13,0,0,0,1.3-5.81,8.09,8.09,0,0,0-2.73-6.62A10.76,10.76,0,0,0,1824.07,168Z"/><path class="cls-6" d="M1879.26,148a5.91,5.91,0,0,1,1.63-3.83c.92-1.36,2-2.93,3.35-4.71s2.58-3.35,3.76-4.71a10.84,10.84,0,0,1,2.25-1.09q1.71-.69,6-2.19t11.81-4.1l19.88-6.83a8.44,8.44,0,0,0,1.77-.61,6.77,6.77,0,0,1,2.33-.62.37.37,0,0,1,.41.41A3.24,3.24,0,0,1,1932,121c-.37.46-1,1.16-1.78,2.12s-1.71,2-2.66,3-1.9,2.05-2.8,3-1.55,1.62-1.92,2a15.19,15.19,0,0,1-5.32,3.69l-34.16,13.11a9.09,9.09,0,0,1-1.57.55,6.91,6.91,0,0,1-1.7.27C1879.53,148.71,1879.26,148.48,1879.26,148Z"/><path class="cls-6" d="M1849.34,206.77l14.21-13.8q1.9,9.84,8.19,15.3t16.12,5.47a32.33,32.33,0,0,0,23.77-10.52q-1.23-3.42-3-7.31a34.74,34.74,0,0,0-4.38-7.17,23.68,23.68,0,0,0-5.94-5.4,13.89,13.89,0,0,0-7.58-2.12l-4.37.28c-1.28,0-1.91-.41-1.91-1.23A5.75,5.75,0,0,1,1886,177a33.72,33.72,0,0,1,2.59-3,63.82,63.82,0,0,1,16.94-12,53.86,53.86,0,0,1,9.77-3.62,39.45,39.45,0,0,1,9.91-1.3,44.74,44.74,0,0,1,7.65.69,24.31,24.31,0,0,1,7.23,2.39,15.94,15.94,0,0,1,5.47,4.64,12.13,12.13,0,0,1,2.19,7.45,24.07,24.07,0,0,1-1.37,7.72,64.85,64.85,0,0,1-3.21,7.78,67.33,67.33,0,0,1-3.83,6.83q-2,3.08-3.21,4.85c.55.09,1.1.16,1.64.21s1.14.07,1.78.07a41.53,41.53,0,0,0,11-1.44,72.76,72.76,0,0,0,10.45-3.75v17.07a52.88,52.88,0,0,1-11.89,5.26,44.44,44.44,0,0,1-12.84,1.84,32.12,32.12,0,0,1-6.49-.68,14,14,0,0,1-6.08-2.87,90.35,90.35,0,0,1-8.4,10.11,73,73,0,0,1-10.11,8.81,55,55,0,0,1-11.2,6.29,30.51,30.51,0,0,1-11.68,2.39,34.83,34.83,0,0,1-11.82-2,32.58,32.58,0,0,1-9.83-5.54,30.26,30.26,0,0,1-10.73-19.12,44,44,0,0,1-.41-4.58c-.08-1.95-.13-3.34-.13-4.16Z"/><path class="cls-6" d="M1960.4,194.61a25.91,25.91,0,0,0,2.12,5.6,27.58,27.58,0,0,0,2.8,4.37,22.12,22.12,0,0,0,7.24,6.15,17.16,17.16,0,0,0,7.79,1.91,14,14,0,0,0,7.17-2,22.63,22.63,0,0,0,6.14-5.32,26.94,26.94,0,0,0,4.24-7.38,22.68,22.68,0,0,0,1.57-8.2q0-4.37-.14-9.56t-.2-9.7q-.08-4.5-.21-7.58c-.09-2-.13-3.16-.13-3.35a109.69,109.69,0,0,1,.54-11.06,82.81,82.81,0,0,1,1.78-10.52c.18-.82.57-2.3,1.16-4.44s1.23-4.37,1.91-6.69,1.35-4.53,2-6.63,1.1-3.55,1.37-4.37.73-2.23,1.37-4.24,1.36-4.07,2.18-6.21a40.5,40.5,0,0,1,2.6-5.6c.91-1.59,1.77-2.39,2.59-2.39a1.29,1.29,0,0,1,1.37,1.09,7.77,7.77,0,0,1,.27,1.78,47.62,47.62,0,0,1-1,7.71,71.49,71.49,0,0,0-1,13.19q0,17.07-.27,28.21t-.75,18.64a127.71,127.71,0,0,1-1.37,12.78q-.88,5.25-2.11,10.58c-1,3.1-2,6.52-3.15,10.25s-2.34,7.49-3.75,11.27a93.62,93.62,0,0,1-4.92,10.93,45.56,45.56,0,0,1-6.56,9.35,30,30,0,0,1-8.6,6.56,24.32,24.32,0,0,1-11.14,2.46,23.18,23.18,0,0,1-11.88-2.94,27.78,27.78,0,0,1-8.54-7.65,33.36,33.36,0,0,1-5.19-10.58,42.36,42.36,0,0,1-1.71-11.89Z"/><path class="cls-6" d="M2034.17,85.74a5.88,5.88,0,0,1,1.64-3.83q1.37-2.05,3.34-4.71t3.76-4.72a12.19,12.19,0,0,1,2.26-1.09c1.13-.45,3.12-1.18,5.94-2.18s6.76-2.37,11.81-4.1l19.88-6.83a9,9,0,0,0,1.78-.62,6.66,6.66,0,0,1,2.32-.61.37.37,0,0,1,.41.41,3.24,3.24,0,0,1-.41,1.23c-.37.45-1,1.16-1.78,2.12s-1.7,1.95-2.66,3-1.89,2-2.8,3l-1.91,2a15.07,15.07,0,0,1-5.33,3.68L2038.27,85.6a9.75,9.75,0,0,1-1.57.55,7.05,7.05,0,0,1-1.71.27C2034.44,86.42,2034.17,86.19,2034.17,85.74Z"/><path class="cls-6" d="M2048,222.62q.28-6.15.48-13.73t.35-15.78q.14-8.21.2-16.67c.05-5.64.09-11.18.14-16.59s.07-10.59.07-15.51V131a33.75,33.75,0,0,1,1-6.69c.68-3,1.52-6.28,2.53-9.84s2.09-7.12,3.28-10.72,2.32-6.76,3.41-9.49a40.42,40.42,0,0,1,3.14-6.29c1.1-1.73,2.14-2.64,3.14-2.73s1.37.73,1.37,2.19a24.77,24.77,0,0,1-.48,4.37q-.48,2.59-.75,5.46-.83,9.57-1.16,19t-.34,18.85q0,7.38.27,14.82t.27,14.82a170.09,170.09,0,0,1-2.59,30.06,105.3,105.3,0,0,1-9.43,28.28c-.91,2-1.86,3-2.87,3S2048.24,224.89,2048,222.62Z"/><path class="cls-6" d="M1497.74,1991.77l.79.79q-3.3,12.12-8.57,36.9a95,95,0,0,0-1.71,17.26q0,27.81,18.32,37.82a52.08,52.08,0,0,0,25.17,6.2q21.08,0,40.72-12.65,20.82-13.18,27-32.69a110.75,110.75,0,0,0,1.06-16.47q0-3.17-.79-22.93a183.87,183.87,0,0,1,.26-22.67,208.71,208.71,0,0,1,10.28-29.65q1.85-2,3.56-.26.53,4.88-.66,26.09-.27,15.95-.53,31.89-.78,18.86-4.21,30.45-9.76,31.09-29.52,54a98,98,0,0,1-35.59,22.14,69.16,69.16,0,0,1-22.66,3.82q-12.92,0-22.41-4.88-21.08-13.83-21.08-50.21,0-20.55,6.72-45.59a13.43,13.43,0,0,1,1.25-5,12.72,12.72,0,0,0,1.25-4.28,171.64,171.64,0,0,1,8-19.37Q1496.42,1989.79,1497.74,1991.77Zm26.49,28.86,19.1-21.35,1.32.79a139.65,139.65,0,0,0,19.77,18.58q-5.93,6.86-19,19.51-4.74-.79-9.75-5.28t-9.36-8.83Z"/><path class="cls-6" d="M1774.61,1979l14.63-9.1c.7-.79,1.4-.7,2.11.27q.92,2.1-2.11,5.4-4.35,5.14-13.7,15-18.46,11.07-49.42,38.88-3.82,2.76-7.38,5.67a12.83,12.83,0,0,1-8.83,2.5q-14.64-8.18-20.3-8.17a13.78,13.78,0,0,0-8.56,3q-7.65,5.4-10.55,11.33,9.23,1.07,12.92,7.51a13.37,13.37,0,0,1,2,7q0,4.08-5.14,15.94-5.41,12.66-16.48,14.37-10.54,1.57-18.71-9-9.61-17.27-9.36-57.2,0-8.7.53-31.1.52-19.11.53-30.7,0-6.72,3.82-16.48a155.52,155.52,0,0,0,5.4-15.41,1.62,1.62,0,0,1,2.11-.53,1.79,1.79,0,0,1,1.06,1.71q-2.64,24.51-2.9,43.89-.66,43.74,2.63,62.33,1.84,9.75,6.46,15.15h.79q23.19-35.05,47.57-34,2.64-.25,7.12,3.23c3,2.33,5.36,3.49,7.12,3.49a7.82,7.82,0,0,0,3.69-1q2-1.05,12.51-12.12-9.35-5.4-12.38-8.17-6.72-5.67-6.46-12.39,2.89-6.72,13.44-19.37,11.87-14.64,17-19,11.34-9.36,22.93-8a9.42,9.42,0,0,1,6.86,7c.7,3.25.41,5.46-.86,6.65a5.43,5.43,0,0,1-3.49,1.78,11,11,0,0,1-5.08-1.78,16.85,16.85,0,0,0-4.54-2,15.17,15.17,0,0,0-2.77-.27q-7.38,0-17.66,12.66-1.85,2.24.66,7.64,9.89,10.55,22,9.09a11.38,11.38,0,0,0,5.4-2.37C1772.11,1980.43,1773.91,1979.34,1774.61,1979Zm-118.73-25v-.79q7.9-10.54,16.21-20.56l1.84.26q6.85,4.88,19.5,15.68,4.35-5.65,13.45-15.94l1.71.26q7.25,6.2,19.11,15.16l-.27,1.58q-4.87,5.93-14.36,18.05a5.07,5.07,0,0,1-2.64.79q-1.32,0-7.24-3.16a143.25,143.25,0,0,1-13-11.33q-3.69,4.6-12.12,13.7a5.07,5.07,0,0,1-2.64.79q-2.76,0-9-4.48Q1658.64,1958.31,1655.88,1954Zm18.45-38.62,15-18.31,1.71.52a148.15,148.15,0,0,0,17.53,13.18q1.32.79,0,3-4.08,7-15.16,17.53a17.39,17.39,0,0,1-8.76-4.09q-4.41-3.56-8.76-6.72a19.06,19.06,0,0,1-1.58-2.5A2.11,2.11,0,0,1,1674.33,1915.33Z"/><path class="cls-6" d="M1905.47,1966.2l-2.77,1.32q-2.62,7-19.1,15.29-8,3.82-24,11.59a54.35,54.35,0,0,0-10,6.59,6.06,6.06,0,0,1-1.19.14c-1.41,0-2.72-.93-4-2.77q5.93-13.18,22.66-20.69l24.78-11.2c2.46-1.14,4-2.16,4.74-3,1.67-1.22,3-1.84,4-1.84C1901.91,1961.59,1903.54,1963.13,1905.47,1966.2Z"/><path class="cls-6" d="M1821.53,2110.37c1.84-2.19,3-3.29,3.55-3.29s1.8.92,3.83,2.77q10.41,10.28,18.18,14.49.53,0,3.3-3.16,10.66-12.25,12.12-12.78c.35,0,1.36.74,3,2.24a192.08,192.08,0,0,0,17.53,14.1c.26.17.35.7.26,1.58s-1.71,3.2-4.61,6.72l-1.84,2.11q-8.84,10.67-10,11.46a4.55,4.55,0,0,1-2.24.4q-4.08,0-12.26-7.25-5.79-5.27-7.51-7.91c-.52-1-1-1.49-1.45-1.58s-2.68,2.51-7,7.51-6.68,7.51-7.12,7.78q-2.37.53-6.06-1.45a50.81,50.81,0,0,1-12-9.49q-4.62-4.87-4.62-6.06Q1806.63,2127.77,1821.53,2110.37Z"/><path class="cls-6" d="M1869.36,2036.84c1.59.53,2.2,2.33,1.85,5.4q-1.32,19.77-11.47,34.79a32.82,32.82,0,0,1-11.86,10.41q-14.89,5.54-22.27-10a61,61,0,0,1-4.87-17.53q-1.32-12.92-.79-38.61.12-26.49-.14-44.28l-.39-17.79,1.32-2.51a46.56,46.56,0,0,1,8.83-13.31,1.57,1.57,0,0,1,1.84.14,257.13,257.13,0,0,1-.66,31q-1.45,28.34-.13,47,1.58,15.29,4.09,21.61,3,7.38,8.3,10.68,7.9,4.35,14.62.13,3.69-2.1,6.46-7.64,2.64-5,2.64-7.38A3.06,3.06,0,0,1,1869.36,2036.84Z"/><path class="cls-6" d="M1672.91,1235.2q-1.29,3-3.29,9-2.37,7.65-5.54,21.32-3.43,15.75-5.14,21.94-3.6,13.23-13.38,26.35c-1.24,1.63-2.2,2.36-2.88,2.21a1.87,1.87,0,0,1-.94-.56c-.69-.62-.74-1.73-.16-3.31q2.37-4.36,7.3-22.89,2.1-15.33,6.53-34a153.6,153.6,0,0,1,14.81-21.16A1.93,1.93,0,0,1,1672.91,1235.2Z"/><path class="cls-6" d="M1815.46,1125.3h-.28a2.87,2.87,0,0,1,0,2.5,25.61,25.61,0,0,1-2.07,5,12.28,12.28,0,0,1-3.22,4.22c-.1.09-1.12.88-3.07,2.36q-3.36,1.42-12.15,3.07-8,1.42-12,3.64-10.94,4.58-12.58,11.44a59.13,59.13,0,0,0-1.14,11.58q-.15,6-.29,12,.15,4.94.43,14.87.29,5.14-1.64,34.16a22.68,22.68,0,0,1-1.72,6.29c-.38.19-.83,0-1.35-.43q0-26.09-1.43-52.46.57-13.86,1.93-20,2.14-11.43,8.14-18.29a43,43,0,0,1,19.94-15.37q3.51-6.72,8.15-14.08a110.51,110.51,0,0,1,12,6.29A21,21,0,0,1,1815.46,1125.3Z"/><path class="cls-6" d="M1836.78,1206.83a1.42,1.42,0,0,0-1.74.8l-.8,1.88q-.81,2.81-6.84,15.67-4.41,9.64-4.69,16.75,0,4.69.67,13.6t.67,13.33q0,11-3.75,18.09-8.83,12.85-25.85,18.35-10.18,3.35-31.49,5.49,16.08-14.46,31.22-37.51,8.83-13.53,8.84-20.63a18.49,18.49,0,0,0-1.21-6.57q-2.14-6.55-11.25-9.37a27.07,27.07,0,0,0-5.36-.54q-14.07,0-33.76,19.16c.71-3,1.25-5.31,1.61-6.83q2.67-11.26,3.21-28.54.4-14.48.4-29.07a104.62,104.62,0,0,1,.81-10.65,107.45,107.45,0,0,0,.8-10.79c-1.07-.71-1.83-1-2.28-.8a8.71,8.71,0,0,0-2.41,2.54q-1.07,3.49-6.29,17.82a118.5,118.5,0,0,0-5.23,17.82q.81,12.6.81,25.45,0,13-.81,24.79.27,9.24-5.49,19.16-1.6,3.07-11.52,16.21c-2.24.36-5-.36-8.44-2.14q-10.18-5.76-11.53-17-3.07-28.26-.93-76.63.52-19.15,1.47-28.81a2.28,2.28,0,0,0-2.28-.8,1.5,1.5,0,0,0-1.34,1.61q-4.95,15.13-7.63,22.5a38.36,38.36,0,0,0-2,11.26q-.27,4.42,0,12.06.26,9.1.26,12l-.53,51q1.07,12.06,2,24.25,2.42,13.93,11.52,20,7.37,5,18.09,5a49,49,0,0,0,24.65-6.57q22.5,0,25.32-.27,14.47-.53,23.58-4.42,15.81-6.56,26.93-21.5t11.65-31.68q.27-13.8.67-27.2a168.18,168.18,0,0,1,2.15-26.13C1838.66,1207.55,1838,1206.83,1836.78,1206.83Zm-101.55,85.61q8.7-11.79,17.28-23.31,11.52-12.87,23.85-15.14c3.84,0,6.38.76,7.64,2.28q4.14,3.21,1.74,11.52-6.3,13.39-28.81,20.23Q1742.59,1292.45,1735.23,1292.44Z"/><path class="cls-6" d="M1850.14,1186.64a130.57,130.57,0,0,1-10.16-10.32l-1-.17-11.82,11.15-.33.83a36.84,36.84,0,0,0,9.75,10.32,4.9,4.9,0,0,0,1.74.33,3.54,3.54,0,0,0,1.65-.33l10.16-9.83Q1850.8,1187.14,1850.14,1186.64Z"/><path class="cls-6" d="M1596.06,1280.59q-10.23,13-29.23,14.44-7.87.65-34.42-2.07a147.63,147.63,0,0,1-14.86-4.3,36.23,36.23,0,0,1-12.8-7.36q-4.73-5.68-2.52-15.82.19-.84,3.38-11.47c.21-.43,1-2.16,2.28-5.21a11.08,11.08,0,0,1,3-4.26c1.4.31,2.06.89,2,1.75l-1.83,8.38c-.63,3.44.12,6,2.27,7.7q12.67,8,31.7,12.1,7.2,1.58,15.56,2.69,23.13,3.12,34.52-4.84,2.79-2,5.53-10.48a88.27,88.27,0,0,0,2.68-9.86q.5-2.26,1.26-6.58l1.43-6.53q3.07-14.08,8.88-21.77,5.25-10,27.68-20.22l25.36-11.59a177.18,177.18,0,0,0,17.42-10.6,1.25,1.25,0,0,1,1.39-.75c1.29.28,1.63,1,1,2.07a68.71,68.71,0,0,1-6.4,8.44,47.24,47.24,0,0,1-13,10q-1,.48-14.94,6.92l-25,11.66c-2.11,1.36-4.21,2.68-6.31,4a10.85,10.85,0,0,0-4.24,5.75q-4.15,16.21-13.11,48.42-1.07,11.28,4.54,15.39a11.07,11.07,0,0,0,3.92,1.74q5.2,1.14,10.61-2.34,4.88-4.2,7.52-13.11l3.28-15q1.68-7.66,6.07-22.16a34.73,34.73,0,0,0,4.38-6.78,23.22,23.22,0,0,1,5.17-6.42c.89,0,1.36.36,1.41,1.19q-4.49,17.71-4.28,16-5.27,20.1-5.52,21.28a122.11,122.11,0,0,1-7.51,20.31q-8.55,17-17,24.14-6.48,4.38-12.86,3a11.14,11.14,0,0,1-3.16-1.22q-6.21-3.72-6.7-11.91Q1594.49,1292.64,1596.06,1280.59Z"/><path class="cls-6" d="M1565.44,1219.88q6.9-3.23,10.88-2.36,4.68,1,2.73,4.67-2.19,4.1-3,3.91c-.16,0-.45-.44-.88-1.21a3.11,3.11,0,0,0-2.2-1.51c-1.2-.26-3.87.41-8,2a40.89,40.89,0,0,0-10.34,5.49,2.37,2.37,0,0,0-.91,1.19c-.22,1,1.68,1.92,5.67,2.79a60.73,60.73,0,0,0,10.12,1.15,60.06,60.06,0,0,1,7.39.55q7.86,1.71,9,6.94a7.31,7.31,0,0,1-.09,3,13.92,13.92,0,0,1-2.55,5.36c-1.31,1.76-2.3,2.67-3,2.74q-20.33,1.53-30-.58a13.55,13.55,0,0,1-8.08-4.87,10.81,10.81,0,0,1-2.46-6.33q3.06,2.87,11.23,4.66,3.51.76,17,1.09,12,.33,14.67.1c-.15-2.59-3.25-4.55-9.33-5.87a60,60,0,0,0-8-.7,58.47,58.47,0,0,1-8.44-.78q-9-2-8.07-6a11.11,11.11,0,0,1,2.5-4.35,40.37,40.37,0,0,1,14.25-11.09Z"/><path class="cls-7" d="M1569.16,1133.16q-6,11.92-5,21.33c.75,2.44,2,4,3.85,4.6a9.16,9.16,0,0,0,1.88.19q3.85,0,10.81-7a12.73,12.73,0,0,0,1.31-5.73,16.18,16.18,0,0,0-2.07-8.09Q1576.3,1133.53,1569.16,1133.16Z"/><path class="cls-7" d="M1687.76,1083.06q2.54-7.23-1.22-10.62-2.91-2.43-8.37-1.41a14,14,0,0,0-6.29,4.14q-2.16,3.76-1.13,10a14.29,14.29,0,0,0,4.51,8,26.76,26.76,0,0,0,10.15-6.58A11,11,0,0,0,1687.76,1083.06Z"/><path class="cls-6" d="M1586.3,1001.1q-7.2-.75-8.71.19-1.8,7.76-2.36,12c-.76,2.91-1.58,6.34-2.46,10.32a9.94,9.94,0,0,0,3.21,1.51q-6.33,19.2-6.33,25.64a35.76,35.76,0,0,0,.37,5.2q2.57,6.63,8.52,7.57,13.14.38,21.47-21.29,4.35-11.07,4.36-19.39a27.92,27.92,0,0,0-1.8-10.12Q1597.55,1002.33,1586.3,1001.1Zm7.19,44q-7,7-10.88,7a9.42,9.42,0,0,1-1.9-.19q-2.74-.95-3.87-4.63-1-9.46,5-21.48,7.19.38,10.88,5.39a16.27,16.27,0,0,1,2.08,8.14A12.74,12.74,0,0,1,1593.49,1045.09Z"/><path class="cls-6" d="M1641.43,1154.36q-7.12-5.34-11.16-8.9a3.87,3.87,0,0,0-5.34.23q0,.24-6.41,7.12l-1.78,1.79c-3.09,3.32-4.68,5.3-4.75,5.93a46.35,46.35,0,0,0,9.85,10.33,11.55,11.55,0,0,0,8.55,3.2l2.73-3q6.17-6.3,10.09-10.81c1.1-1.26,1.62-2.13,1.54-2.61S1643.64,1156,1641.43,1154.36Z"/><path class="cls-6" d="M1622,1052.85a90.09,90.09,0,0,0-30.92,16.54q-11.88,9.4-15.26,22.81a10.27,10.27,0,0,0,6.78,4.17q23.13,1.7,45.48,3.24c.31,1.33-.21,3-1.54,5.08a69.17,69.17,0,0,1-16.81,14.65c-11.3,8.22-12.36,12.14-26.85,9.57-4.93.82-9.66-2.41-13-6.83q-4.64-6.16-6.94-17.11l-.62-3.24q-1.85-10.95-1.54-41.93.32-37.62,2.93-64l.62-5.86q-1.7-2.62-3.86-1.08a105.9,105.9,0,0,0-10.33,26.82q-3.08,44.1-1.84,100.06,1.68,28.52,11.56,39.93,8.07,8.22,20.66,8.86c.57.22,2.25.09.76.11v-.06c.16,0,.31,0,.47,0a7.29,7.29,0,0,0,1.87-1.25l-.17,0a2,2,0,0,1-.11-.36q12.32-4.63,23.26-16.41,20.8-25.91,39.31-52.42,3.39-5.55-.31-8.79l-9.86-.92q-28.21-2.93-38.55-3.09a9.57,9.57,0,0,1-5.08-1.08l6.32-3.23q13.26-7.1,25.74-7.71l.46-.44c-.2-.93-.56-2.93-1.07-6l-.93-6.63"/><path class="cls-6" d="M1658.42,993.33a14.82,14.82,0,0,0,6,3.75q.9,0,3.06-2.22a89.58,89.58,0,0,0,6.59-7.5,1.6,1.6,0,0,0,.21-2l-8.54-7.22a3.72,3.72,0,0,0-2.78-1.39l-8,9.17q-1.47,1.8-1.32,2.22A24.86,24.86,0,0,0,1658.42,993.33Z"/><path class="cls-6" d="M1624.25,1069.39c4.75-1.3,25.94-5.88,29.23-9q10.11,3.69,23.32-.46l5.28-1.49.35-.33v-6.22c0-2.95,0-4.81.12-5.62l-.47-.46a64,64,0,0,0-9.53,2.18q-4.48.69-6.78-.35l2.07-2.29q9-10.33,11.49-18.38a25.23,25.23,0,0,0,.92-12.87q-3.11-12.06-15.74-11.83-5.87.93-11.6,6.44a44.53,44.53,0,0,0-10.57,16.77,37,37,0,0,0-1.26,18,25.6,25.6,0,0,0,5.85,10.91l-2.69-4.15-22.21,2.6m33-8.44a17.42,17.42,0,0,1-5.52-9.76q-1.26-7.59,1.38-12.18a16.92,16.92,0,0,1,7.7-5.05q6.66-1.27,10.22,1.72,4.59,4.13,1.49,13a13.33,13.33,0,0,1-2.87,4.25A32.87,32.87,0,0,1,1655,1044.41Z"/><path class="cls-6" d="M1682.08,1058.42c2.09-.33,11.27-12.84,15-18.67q2.39-4.68,8-1.39a10.16,10.16,0,0,0,11.84-1.3q3.48-3.68,6.26-7,.1,0,2.49,1.2,6,3.48,11.53-1.1,9-7.35,11.84-20.38.69-2.79-.6-3.09a32.87,32.87,0,0,0-5.17,8.46,15,15,0,0,1-3,3.87,8,8,0,0,1-8.06,2.69q-3.18-.9-2.49-3.18c.6-1.92.27-2.89-1-2.89A58.52,58.52,0,0,0,1719,1027q-2.58,3.88-8.85.4-5.76-3.29-9.84.79a49,49,0,0,0-8.45,8.56,31.29,31.29,0,0,1-9.82,9"/><path class="cls-6" d="M1790.54,1010.45q-8.7,17.38-12.19,29.15a418.17,418.17,0,0,0,1.17,42.29q-1.17,23.41-2.86,29.25c-.29,2,.06,3.36,1,3.92a2.42,2.42,0,0,0,1.38.43q1.28,0,2.76-3.4,8.26-18.22,9.11-35,.42-7.84.43-27.56.21-17.16,1.16-26.92.85-7.64,1.49-11.55C1793.19,1009.82,1792,1009.6,1790.54,1010.45Z"/><path class="cls-6" d="M1829.73,969.45a124.4,124.4,0,0,0-10.39,11,21.89,21.89,0,0,1-14.83,5.3,23.4,23.4,0,0,1-8.48-1.59,15.75,15.75,0,0,1-3.87-1.85,9.71,9.71,0,0,0-4.51-1.64,4.74,4.74,0,0,0-3.28,1.37q-13.68,9.33-24.8,30.85c-.43,2.26-.43,3.64,0,4.13a4.8,4.8,0,0,0,3.07-.74q7-9.12,12.61-12.08a3.35,3.35,0,0,1,1.49-.43,5.64,5.64,0,0,1,2.91,1.38,12.44,12.44,0,0,0,2.49,1.59,21.82,21.82,0,0,0,8.27,1.59q8.91,0,17.38-5.94a63.28,63.28,0,0,0,23.85-31.69C1831.64,969.17,1831,968.75,1829.73,969.45Z"/><path class="cls-6" d="M1811.79,1199.82a202.1,202.1,0,0,1-15.71-16l-1.53-.26-18.27,17.25-.51,1.27a56.92,56.92,0,0,0,15.07,16,7.88,7.88,0,0,0,2.69.51,5.68,5.68,0,0,0,2.55-.51l15.71-15.2C1812.47,1201.36,1812.47,1200.34,1811.79,1199.82Z"/></g></svg>