<?xml version="1.0" encoding="UTF-8"?><svg xmlns="http://www.w3.org/2000/svg" width="500" height="319" viewBox="0 0 500 319">
    <rect fill="#F42A41" width="168" height="319" id="rect11" />
	<rect x="168" fill="#006A4E" width="332" height="319" id="rect13" />
	<polygon fill="#F42A41" points="281.254,84.57 275.079,103 256.153,103 269.743,116.494 264.53,133.324 281.036,123.992     297.232,133.195 292.764,116.888 306.409,103 287.428,103   " id="polygon15" />
	<polygon fill="#F42A41" points="384.013,84.57 377.838,103 358.912,103 372.502,116.494 367.29,133.324 383.796,123.992     399.991,133.195 395.523,116.888 409.168,103 390.187,103   " id="polygon17" />
	<polygon fill="#F42A41" points="384.013,183.57 377.838,202 358.912,202 372.502,215.14 367.29,231.793 383.796,222.372     399.991,231.531 395.523,215.555 409.168,202 390.187,202   " id="polygon19" />
	<polygon fill="#F42A41" points="281.254,183.57 275.079,202 256.153,202 269.743,215.14 264.53,231.793 281.036,222.372     297.232,231.531 292.764,215.555 306.409,202 287.428,202   " id="polygon21" /></svg>