<?xml version="1.0" encoding="UTF-8" standalone="no"?>
<svg xmlns:rdf="http://www.w3.org/1999/02/22-rdf-syntax-ns#" xmlns="http://www.w3.org/2000/svg"
 xmlns:cc="http://creativecommons.org/ns#" xmlns:dc="http://purl.org/dc/elements/1.1/" version="1.1"
 width="600" height="400">
<g transform="matrix(600 0 0 -400 0 400)">
<rect x="0" y="0" width="1" height="1" fill="#fff"/>
<path d="m0.72174 0.57139c0-0.18228-0.09828-0.33004-0.21953-0.33004s-0.21954 0.14776-0.21954 0.33004 0.09829 0.33004 0.21954 0.33004 0.21953-0.14776 0.21953-0.33004" fill="#fff"/>
<g fill="#014186">
<path d="m0.56938 0.8742-0.11913-0.44242s0.00904 0.00514 0.01321 0.0207l0.11257 0.4182c-0.00001 0.00001-0.00002 0.00002-0.00004 0.00003-0.00218 0.00121-0.00439 0.00236-0.00661 0.00349"/>
<path d="m0.62742 0.43867c-0.00332-0.01215-0.01435-0.02473-0.02363-0.02584h-0.28249c0.00038 0.00234 0.00207 0.00203 0.00297 0.00368 0.01446 0.00413 0.02537 0.02131 0.03985 0.02599 0.01655 0.00562 0.02788-0.01355 0.04395-0.01239 0.01386 0.00035 0.02822 0.01367 0.03413 0.03643l0.11162 0.41442c-0.01645 0.00615-0.0339 0.00957-0.05161 0.00957-0.11725 0-0.21229-0.14289-0.21229-0.31914s0.09504-0.31913 0.21229-0.31913c0.11724 0 0.21228 0.14288 0.21228 0.31913 0 0.04501-0.00621 0.08783-0.0174 0.12667l-0.06967-0.25939"/>
<path d="m0.48851 0.45248 0.1088 0.40428c-0.0021 0.00159-0.00422 0.00312-0.00635 0.00461l-0.11567-0.42959s0.00904 0.00514 0.01322 0.0207"/>
<path d="m0.51355 0.45248 0.10409 0.38676c-0.002 0.00196-0.00401 0.00386-0.00606 0.00572l-0.11124-0.41318s0.00904 0.00514 0.01321 0.0207"/>
<path d="m0.53859 0.45248 0.09838 0.3655c-0.00189 0.00234-0.00382 0.00462-0.00577 0.00686l-0.10581-0.39306s0.00903 0.00514 0.0132 0.0207"/>
<path d="m0.56364 0.45248 0.09155 0.34015c-0.00177 0.00277-0.00358 0.00549-0.00541 0.00816l-0.09935-0.36901s0.00903 0.00514 0.01321 0.0207"/>
<path d="m0.58868 0.45248 0.08348 0.31016c-0.00163 0.00327-0.00331 0.00648-0.00501 0.00964l-0.09167-0.3405s0.00903 0.00514 0.0132 0.0207"/>
<path d="m0.61373 0.45248 0.07387 0.27446c-0.00145 0.00389-0.00296 0.00775-0.00451 0.01154l-0.08258-0.3067s0.00905 0.00514 0.01322 0.0207"/>
<path d="m0.3493 0.14885c-0.00322 0.00907-0.01084 0.01334-0.02931 0.01334h-0.00004-0.00005c-0.01847 0-0.02609-0.00427-0.02931-0.01334-0.00083-0.00232-0.00067-0.00988-0.00067-0.00988v-0.03632h0.01273v0.03632c0 0.00567 0.00016 0.01252 0.0173 0.01252 0.01713 0 0.01729-0.00685 0.01729-0.01252v-0.03632h0.01273v0.03632s0.00016 0.00756-0.00067 0.00988"/>
<path d="m0.71382 0.14885c-0.00322 0.00907-0.01084 0.01334-0.02931 0.01334h-0.00005-0.00004c-0.01847 0-0.02609-0.00427-0.02931-0.01334-0.00083-0.00232-0.00067-0.00988-0.00067-0.00988v-0.03632h0.01272v0.03632c0 0.00567 0.00017 0.01252 0.0173 0.01252 0.01714 0 0.0173-0.00685 0.0173-0.01252v-0.03632h0.01273v0.03632s0.00016 0.00756-0.00067 0.00988"/>
<path d="m0.40041 0.11263c-0.01714 0-0.0173 0.00685-0.0173 0.01252v0.01382c0 0.00567 0.00016 0.01252 0.0173 0.01252 0.01713 0 0.01729-0.00685 0.01729-0.01252v-0.01382c0-0.00567-0.00016-0.01252-0.01729-0.01252zm0.03002 0.02634s0.00016 0.00756-0.00067 0.00988c-0.00322 0.00907-0.01084 0.01334-0.02931 0.01334h-0.00004-0.00005c-0.01847 0-0.02609-0.00427-0.02931-0.01334-0.00083-0.00232-0.00067-0.00988-0.00067-0.00988v-0.01382s-0.00016-0.00755 0.00067-0.00988c0.00322-0.00907 0.01084-0.01335 0.02931-0.01335h0.00005 0.00004c0.01847 0 0.02609 0.00428 0.02931 0.01335 0.00083 0.00233 0.00067 0.00988 0.00067 0.00988v0.01382"/>
<path d="m0.63471 0.13897s0.00016 0.00756-0.00067 0.00988c-0.00322 0.00907-0.01084 0.01334-0.02931 0.01334h-0.00005-0.00004c-0.01847 0-0.02609-0.00427-0.02931-0.01334-0.00083-0.00232-0.00067-0.00988-0.00067-0.00988v-0.01382s-0.00016-0.00755 0.00067-0.00988c0.00322-0.00907 0.01095-0.01335 0.02931-0.01335 0.02298 0 0.02922 0.01335 0.02922 0.01335s-0.01199-0.00264-0.02918-0.00264c-0.01718 0-0.01729 0.00685-0.01729 0.01252v0.01382c0 0.00567 0.00016 0.01252 0.01729 0.01252 0.01714 0 0.0173-0.00685 0.0173-0.01252 0 0 0.00079-0.00672-0.00339-0.00943h0.01268s0.00344 0.00154 0.00344 0.00943"/>
<path d="m0.54139 0.12515c0-0.00567-0.00017-0.01252-0.0173-0.01252s-0.01729 0.00685-0.01729 0.01252v0.01382c0 0.00567 0.00016 0.01252 0.01729 0.01252s0.0173-0.00685 0.0173-0.01252v-0.01382zm0.01273 0.05158h-0.01273v-0.01659c-0.00432 0.00137-0.00993 0.00205-0.01725 0.00205h-0.00005-0.00004c-0.01847 0-0.02609-0.00427-0.02931-0.01334-0.00083-0.00232-0.00067-0.00988-0.00067-0.00988v-0.01382s-0.00016-0.00755 0.00067-0.00988c0.00322-0.00907 0.01084-0.01335 0.02931-0.01335h0.00004 0.00005c0.01846 0 0.02608 0.00428 0.02931 0.01335 0.00083 0.00233 0.00067 0.00988 0.00067 0.00988v0.05158"/>
<path d="m0.48087 0.15149c-0.01714 0-0.0173-0.00685-0.0173-0.01252v-0.03632h-0.01273v0.03632s-0.00016 0.00756 0.00067 0.00988c0.00323 0.00907 0.01084 0.01334 0.02932 0.01334h0.00004 0.00005l-0.00005-0.0107"/>
</g>
</g>
</svg>
