<?xml version="1.0" encoding="utf-8"?>
<!-- Generator: Adobe Illustrator 22.1.0, SVG Export Plug-In . SVG Version: 6.00 Build 0)  -->
<svg version="1.1" id="svg1589" xmlns="http://www.w3.org/2000/svg" xmlns:xlink="http://www.w3.org/1999/xlink" x="0px" y="0px"
	 width="600px" height="400px" viewBox="0 0 600 400" style="enable-background:new 0 0 600 400;" xml:space="preserve">
<style type="text/css">
	.st0{fill:#FFFFFF;}
	.st1{fill:#006C35;}
</style>
<path id="path3342" class="st0" d="M600,400V0H0v400H600z"/>
<path id="_x32_1461584" class="st1" d="M472,400V0H0v400H472z"/>
<g>
	<g>
		<path class="st0" d="M188.7,302.9l-0.4-0.2c-1.2,1.5-1.9,2.4-2,2.6c0.6,0.5,1.5,1,2.4,1.4c1.5-1.3,2.1-2,2.1-2.3
			C190.7,304.3,190.1,303.8,188.7,302.9z"/>
		<path class="st0" d="M219.5,297.9v-0.4c0.3-0.2,0.9-0.5,1.3-0.9c1.2-1.1,2-2.5,2.7-4.2c0.9-2.8,1.5-4.4,1.5-4.6
			c0-0.2-0.1-0.3-0.2-0.5c-0.5,0.5-1.2,1.3-1.8,2.2c-0.7,1-1.2,1.8-1.3,2.4c-0.2,1.1-0.3,1.8-0.3,2c-0.4,0.5-1.3,0.8-2.4,0.8h-0.5
			h-0.2c-1.6,0-3.3-0.7-4.9-2.1c-3.7,3.5-12.1,5.3-25.2,5.3c-6,0-10.6-0.2-13.8-0.5c-5.6-0.5-9.8-1.6-12.7-3.2
			c0,1.3,0.3,2.4,0.7,3.3c0.9,1.7,3.7,2.9,8.3,3.5c2.4,0.3,5.6,0.5,10,0.5c5.9,0,11.3-0.3,16.1-0.9c7-0.9,11.6-2.2,14-4.1
			c0.5-0.4,1.1-0.9,1.8-1.6c1.3,1.2,2.1,1.9,2.4,2.1c0.9,0.6,2,0.9,3.1,0.9h1.3L219.5,297.9L219.5,297.9z"/>
		<path class="st0" d="M221,301.9c0.5-0.5,0.9-0.9,0.9-0.9c0.6,0.2,1.2,0.5,1.7,0.7c0.3,0,0.9-0.3,1.6-1c0.6-0.7,0.9-1.3,0.9-1.6
			c0-0.2-0.6-0.6-1.9-1.2c-0.2,0-0.5,0.3-1.3,1c-0.6,0.7-1.1,1-1.3,1c-0.2,0-0.9-0.3-2-0.9c-0.2,0-0.6,0.4-1.3,1.1
			c0,0.1-0.4,0.5-1.3,1.4c0,0.2,0.3,0.4,1.1,0.7c0.6,0.3,1.1,0.4,1.3,0.4C220.2,302.8,220.5,302.5,221,301.9z"/>
		<path class="st0" d="M246.6,285.4c-0.3,0-0.7,0.6-1.2,2c-0.4,1.2-0.6,2-0.6,2.5c0,1.3,0.7,1.9,2,1.9c0.2,0,0.3,0,0.6-0.1
			s0.4-0.1,0.6-0.1c0.7,0,1.1,0.2,1.1,0.6c0,0.9-0.6,1.6-1.9,2c-0.9,0.3-2,0.5-3.4,0.5h-0.4h-0.2c-1.5,0-2.7,0.3-4.2,0.9
			c-1.2,0.5-2.5,1.4-3.8,2.7l-3.3,3.3c-1.3,1.3-3.3,2.8-5.8,4.5c-2.4,1.3-4.2,2.3-5.3,2.9c-0.7,0.3-1.1,0.5-1.3,0.7
			c0.1,0.2,0.2,0.2,0.3,0.2c0.2,0,0.7-0.1,1.6-0.3c2.2-0.5,4-1.3,5.5-2.1c1.8-1.1,3.8-2.6,5.8-4.5c0.9-0.8,1.7-1.6,2.7-2.4
			c1.1-0.9,2-1.6,3.1-1.9c1.2-0.5,2.8-0.7,4.9-0.7h0.2h0.6h0.2l0,0c1.7-0.1,3.3-0.9,4.5-2.7c1.3-1.6,1.9-3.3,1.9-5
			c0-1.2-0.3-2.3-0.9-3.2C248.8,285.9,247.8,285.4,246.6,285.4z"/>
		<path class="st0" d="M250.3,280c-0.2,0-0.6,0.4-1.3,1.1c-0.7,0.7-1.2,1.1-1.3,1.1c-0.2,0-0.6-0.2-1.3-0.5
			c-0.6-0.3-0.9-0.5-1.1-0.5c-0.2,0-1.2,0.9-2.7,2.8c0,0.2,0.3,0.5,1.2,0.8c0.7,0.3,1.3,0.5,1.5,0.5c0.3,0,0.9-0.3,1.5-0.9
			c0.5-0.6,0.9-0.9,0.9-0.9c0.7,0.2,1.3,0.5,1.9,0.8c0.4,0,0.9-0.4,1.8-1.2c0.7-0.8,1.2-1.3,1.2-1.7
			C252.4,281,251.7,280.5,250.3,280z"/>
		<path class="st0" d="M280.9,289.1c0.7,0.3,1.3,0.5,1.5,0.5c0.4,0,0.9-0.3,1.5-0.9c0.5-0.6,0.9-0.9,0.9-1c0.7,0.2,1.3,0.5,1.9,0.8
			c0.4,0,0.9-0.4,1.8-1.2c0.7-0.8,1.2-1.3,1.2-1.7c0-0.3-0.7-0.7-2.1-1.3c-0.2,0-0.6,0.4-1.3,1.1c-0.7,0.8-1.2,1.1-1.3,1.1
			c-0.2,0-0.5-0.2-1.1-0.4c-0.7-0.3-1.1-0.5-1.2-0.5c-0.2,0-0.6,0.5-1.5,1.3c-0.3,0.3-0.9,0.9-1.3,1.5
			C279.7,288.6,280.1,288.8,280.9,289.1z"/>
		<path class="st0" d="M294.8,295.2c1.3-1.6,1.9-3.3,1.9-5c0-1.2-0.3-2.3-0.9-3.2c-0.9-1.1-1.9-1.6-3.1-1.6c-0.3,0-0.7,0.6-1.2,2
			c-0.4,1.2-0.6,2-0.6,2.5c0,1.3,0.7,1.9,2,1.9c0.2,0,0.3,0,0.6-0.1c0.3-0.1,0.4-0.1,0.6-0.1c0.7,0,1.1,0.2,1.1,0.6
			c0,0.9-0.6,1.6-1.9,2c-0.9,0.3-2,0.5-3.4,0.5h-0.4h-1.9c-0.9,0-1.5-0.2-1.5-0.5c0-0.6,0.1-1.2,0.3-1.7c0.3-0.8,0.6-1.4,0.9-1.7
			l-0.2-0.2c-0.5,0.4-1.1,1-1.7,2c-0.6,0.9-1.2,1.6-1.6,1.9c-0.3,0.2-1.1,0.4-2,0.4h-1.2H280h-0.3c-2.7,0-4.8,0.4-6.3,1.1
			c-1.7,0.8-3.3,2.1-5,4.1c-0.7,0.9-1.2,1.4-1.2,1.4c0,0.3,0.3,0.5,0.7,0.5c0.1,0,0.3-0.1,0.6-0.2c0.3-0.2,0.7-0.2,1.1-0.2
			c2.5,0,3.8,0.3,4.2,0.9c-2.5,1.5-4.4,2.7-5.6,3.6c-2.4,1.9-4.2,3.9-5.3,6.1c-1.1,2.1-1.6,4.5-1.6,7.4c0,2.3,0.9,4.1,3,5.5
			c1.9,1.3,4.2,2,6.7,2c3.1,0,6.1-1.2,9.2-3.6c2.7-2,5-4.6,7.4-7.8c0.4-0.7,0.7-1.2,0.7-1.4c0-0.2-0.1-0.4-0.3-0.4s-0.7,0.5-1.5,1.4
			c-4.2,4.9-8.5,7.2-12.9,7.2c-2.7,0-4.9-0.5-6.6-1.6c-1.9-1.2-2.8-2.8-2.8-4.9c0-1.8,0.4-3.4,1.5-4.9c0.9-1.3,2-2.5,3.8-3.8
			c1.3-1,2.7-2,4.2-2.7c1.3-0.8,2.7-1.5,4.2-2.3c0.9-0.4,1.2-0.8,1.2-1.1s-1.2-0.8-3.5-1.2c-1.5-0.2-3-0.5-4.4-0.7
			c0.7-0.7,2.5-1,5.4-1c0.3,0,0.9,0,1.6,0s1.3,0,1.6,0h0.3h0.4h0.2l0,0c1.7-0.1,3.1-0.5,4.4-1.6c0.3,0.5,0.9,0.9,2,1.2
			c0.9,0.2,1.7,0.4,2.5,0.4l0,0h0.1h0.5h0.4l0,0C292.1,297.8,293.5,296.9,294.8,295.2z"/>
		<path class="st0" d="M292.6,284.4c2-1.2,3.1-2,3.1-2.4c0-0.7-0.9-1.6-2.7-2.6l-3.1,2.6v0.2c0.3,0,0.9,0.3,1.5,0.9
			C291.5,283.3,292,283.7,292.6,284.4z"/>
		<path class="st0" d="M300.7,287.2c-0.3,0-0.9,0.7-1.8,2c-0.9,1.3-1.3,2.2-1.3,2.7c0,1.3,0.6,2,2,2c0.3,0,0.6-0.1,1.1-0.2
			c0.4-0.1,0.9-0.2,1.1-0.2s0.3,0.1,0.3,0.2c0,0.9-1.2,2.1-3.4,3.8c-0.9,0.5-2,1.3-3.4,2.3c-1.2,0.7-1.8,1.2-1.8,1.3
			c0.1,0.1,0.2,0.2,0.3,0.2c0.4,0,1.5-0.2,3.1-0.8c1.7-0.5,3-1.1,3.6-1.6c0.9-0.6,1.3-1.1,1.6-1.5c0.5-0.7,0.9-1.9,1.5-3.4
			c0.3-0.9,0.3-1.8,0.3-2.8c0-1.3-0.4-2.4-1.5-3.1C301.8,287.6,301.1,287.2,300.7,287.2z"/>
		<path class="st0" d="M329.9,287c0.1,0,0.3-0.1,0.4-0.2c0.3-0.2,0.4-0.2,0.5-0.2c0.5,0,0.9-0.1,1.1-0.2s0.3-0.5,0.3-1v-0.5
			c0-0.2-0.2-0.3-0.4-0.3c0,0.9-0.1,1.4-0.3,1.4c-0.1-0.1-0.2-0.1-0.3-0.2c-0.1-0.5-0.2-0.9-0.4-1.3c-0.1,0.1-0.1,0.3-0.3,0.9
			c-0.1,0.5-0.3,0.7-0.6,0.7s-0.4-0.4-0.7-1.3c-0.2,0.1-0.3,0.2-0.3,0.5C329,286.4,329.3,287,329.9,287z"/>
		<path class="st0" d="M330.5,283.6h0.2c0.3-0.3,0.4-1,0.4-2.2c0-2-0.3-3.1-0.9-3.3c-0.2,0.2-0.3,0.5-0.6,0.9
			c0.7,1.2,0.9,2.4,0.9,3.8C330.5,283.1,330.5,283.3,330.5,283.6z"/>
		<path class="st0" d="M337.4,289c0.1,0.8,0.2,1.4,0.2,1.8l0.1,0.4v0.1c0,0.5-0.1,0.9-0.2,1.1c-0.2,0.3-0.6,0.5-1.3,0.9
			c-0.7,0.3-1.3,0.5-1.7,0.5c-0.9,0-1.7-0.2-2.4-0.5c-0.7-0.4-1.1-1-1.1-1.7l0.1-0.5l-0.3-0.1c-0.7,1.3-1.5,2.1-2,2.6
			c-0.9,0.7-2,1-3.3,1c-1.1,0-2-0.2-2.7-0.5c-0.9-0.4-1.5-1-1.5-1.9l-0.3-0.2c-1.7,2.4-3.8,4.4-6.4,6.1c1.6-0.7,3.4-1.9,5.2-3.4
			c0.3,1.4,0.7,2.4,1.1,2.8c0.6,0.8,1.6,1.2,3,1.2c1.2,0,2.2-0.3,3.3-0.9c0.6-0.4,1.2-0.9,1.7-1.6c0.4-0.5,0.7-0.9,0.9-0.9
			c0.5,0.9,0.9,1.5,1.3,1.7c0.4,0.3,1.2,0.5,2.4,0.5c1.9,0,3.4-1.3,4.6-3.7c1.1-2,1.6-3.9,1.6-5.9l0.1-2.7c-1.3,1.8-2,3.1-2,3.7
			L337.4,289L337.4,289z"/>
		<path class="st0" d="M345.1,281.4c-0.6,2-0.9,3.3-0.9,3.7c-0.5,5.8-1.1,10.2-1.3,13.2h0.1c0.3-0.4,0.9-1.2,1.3-2.4
			c0.6-1.5,1.1-2.8,1.3-4.1l0.7-6.4c0.4-3.9,0.6-6.7,0.6-8.1l-0.2,0.1C346.1,278.3,345.7,279.6,345.1,281.4z"/>
		<path class="st0" d="M366.4,300.7c0.5,0.2,0.9,0.4,1.1,0.4c0.4,0,0.9-0.4,1.5-1.1c0.1-0.1,0.3-0.6,0.9-1.6c0-0.2-0.3-0.5-1.1-0.9
			c-0.7-0.4-1.2-0.5-1.5-0.5c-0.3,0-0.7,0.5-1.3,1.4c-0.6,0.9-0.9,1.5-0.9,1.8c0,0.1,0.1,0.2,0.1,0.2
			C365.4,300.3,365.8,300.4,366.4,300.7z"/>
		<path class="st0" d="M388.5,288.8c-0.5,0.4-0.9,0.8-1.2,1.1c-1.1,0.5-2,1.4-3.1,2.5c-0.9,1.1-1.6,1.7-2,2
			c-0.4,0.2-1.3,0.3-2.4,0.3h-0.5h-0.3c-0.3,0-0.7,0-1.3-0.1c-0.6-0.1-1.1-0.1-1.3-0.1c-0.3,0-0.5,0.4-0.6,1.3
			c-0.2,2-0.4,3.4-0.9,4.4c-0.7,2-1.7,3.5-3.1,4.9c-1.6,1.5-3.5,2.3-5.6,2.3c-1.7,0-3.1-0.3-4.2-1c-1.3-0.8-2-1.9-2-3.3
			c0-1.1,0.2-2,0.4-2.7l1.2-2.5c0.2-0.5,0.3-0.7,0.3-0.8c0-0.3-0.1-0.5-0.3-0.5s-0.7,0.4-1.2,1.1c-1.6,2.6-2.5,5.3-2.5,8
			c0,1.5,0.6,2.8,1.8,3.8c1.2,1,2.7,1.5,4.4,1.5c3.4,0,6.3-1.6,9.1-4.9c2.2-2.7,3.6-5.7,4-9c0.4,0.5,1.1,0.7,2,0.7h0.9v-0.1
			c0.6-0.1,1.2-0.3,1.5-0.7l1.5-2c0.9-1,1.6-1.6,2.4-1.6c0.3,0,0.9,0.2,2,0.6c0.3,0,0.9-0.3,1.5-1c0.6-0.7,0.9-1.2,0.9-1.5
			c0-0.2-0.2-0.6-0.6-1.4C389.1,289.5,388.8,289.1,388.5,288.8z"/>
		<path class="st0" d="M437.7,287.7c1.8-1.1,2.7-1.8,2.7-2.1c0-0.5-0.9-1.3-2.4-2.4l-2.7,2.4v0.2
			C435.7,285.8,436.5,286.4,437.7,287.7z"/>
		<path class="st0" d="M441.4,287.3c-0.5,0.5-1.2,1.3-1.8,2.2c-0.7,1-1.2,1.8-1.3,2.4c-0.2,1.1-0.3,1.8-0.3,2
			c-0.4,0.5-1.3,0.8-2.4,0.8h-0.6h-0.7h-4.4c1.3-0.3,2.4-1,3.3-1.9c0.9-0.9,1.5-2,1.5-3.1c0-0.4-0.2-0.7-0.5-0.9
			c-0.3-0.2-0.7-0.4-1.2-0.4c-1.5,0-3.6,0.8-6,2.4l-3.1,2c-0.9-0.3-1.3-0.5-1.6-0.5c-0.2,0-0.9,0.3-1.6,1c-0.7,0.6-1.5,1-2.1,1.2
			c-0.5,0.2-1.3,0.2-2.4,0.2h-0.6h-0.2c-1.5,0-2.7,0.3-4.2,0.9c-1.2,0.5-2.5,1.4-3.8,2.7l-3.3,3.3c-1.3,1.3-3.3,2.8-5.8,4.5
			c-2.4,1.3-4.2,2.3-5.3,2.9c-0.7,0.3-1.1,0.5-1.3,0.7c0.1,0.2,0.2,0.2,0.3,0.2c0.2,0,0.7-0.1,1.6-0.3c2.2-0.5,4-1.3,5.5-2.1
			c1.8-1.1,3.8-2.6,5.8-4.5c0.9-0.8,1.7-1.6,2.7-2.4c1.1-0.9,2-1.6,3.1-1.9c1.2-0.5,2.8-0.7,4.9-0.7h0.9l0,0c0.9-0.1,1.6-0.3,2-0.7
			l1.3-1.5c0.6-0.6,1.1-1.1,1.5-1.3c1.7,1.3,3.3,2,4.5,2.5c2,0.6,4.8,0.9,8.5,0.9h0.3h0.7h0.1c0.6,0,1.5-0.5,2.4-1.4
			c1.2-1.1,2-2.5,2.7-4.2c0.9-2.8,1.5-4.4,1.5-4.6C441.5,287.6,441.5,287.5,441.4,287.3z M425.1,293.1c0.4-0.5,1.2-1.2,2.4-1.8
			c0.9-0.5,1.9-0.9,2.7-0.9c0.3,0,0.9,0.2,1.3,0.5c0.4,0.4,0.7,0.7,0.7,0.9c0,0.4-0.7,0.8-2.1,1.2c-1.3,0.3-2.2,0.5-3.1,0.5
			C426.3,293.6,425.8,293.4,425.1,293.1z"/>
	</g>
	<path class="st0" d="M393.9,243.7c0,0-1.7-0.3-7.5-0.1c-3.4,0.2-8.2,0.7-10.3,1.3c-5.2,1.3-7.1,1.3-8.7,0.1
		c-1.5-1.1-0.3-6.1-3.1-8.2c-1.4-1-3.3-0.5-4.4,0.8c-1.9,2.2-3.1,6.1-2.2,6.7c0.4,0.2,1.4-0.1,2.3-0.7c1.8-1.3,3.2,0.4,1.8,2.4
		c-1.1,1.4-4.5,1.1-34.7,3.6c-15.4,1.3-65.8,3.8-84.1,1.4c-12.1-0.8-26.7-2.9-36-5.2l-6.7-1.6l4.9,2.7c2.7,1.5,9,4,14.3,5.6
		c18.3,5.6,29.9,6.5,79.5,5.6c28.4-0.5,40-1,50-2c13.4-1.5,17.5-1.4,17.6,0.6c0.1,1.4,0.5,5.3,2.2,6.7c3.5,4.2,7-4.1,6.9-5
		c-0.1-2.4-0.9-2.5-2.7-1.3c-1.5,0.8-1.3,0.7-1.6-0.2c-2-5.5,17.2-6,17.3-4.7c0,0.1,0.2,0.2,0.3,0.4c0.9,2.3,2.9,3.8,5.3,3.8
		c3.1,0,5.7-2.7,5.7-6.2C399.7,246.6,397.2,243.7,393.9,243.7z"/>
	<g>
		<g>
			<path class="st0" d="M213.6,73.9c1.3-0.5,2.8-0.7,4.3-0.8c-1.3,2.4-3.8,4.7-7.5,5.7c-10.1,3.1-20.1,6.3-30,9.7
				c-1.5,0.5-3.1,0.9-4.9,1.1c0.9-1.8,2.7-3.4,4.8-4.9C191.3,81.1,202.5,77.6,213.6,73.9z"/>
			<g>
				<path class="st0" d="M289.9,80.4c1.3,0.1,1.1,1.1,1.4,1.7c1.2,5.8,1.6,11.6,2.4,17.4c5.6-3.8,11.1-7.7,16.1-11.7
					c2-1.5,3.5-3.1,5.8-4.4c0.4,1.8,0.3,3.8-1.6,5.3c-6.1,5.1-13.1,9.8-19.8,14.6c0.9,9.5,2.3,19,2.4,28.5c0.2,2.2-1.4,4.4-4.1,6
					c-0.9-3.1-0.9-6.1-1.1-9.2c-0.4-7.2-1.4-14.3-2.4-21.6c-5.9,4.2-11.4,8.5-16.2,13.1c2.9,3,6.1,6,7.4,9.4c1,2.5-1.7,4.9-4.8,6.5
					c-3.5,1.8-8.4,3.1-13,2.2c-2.8-0.7-3.4-2.7-3.4-4.3c0.2-4.6,4.1-8.9,7.6-12.9c-5.3-4.7-10.8-9.3-16.4-14
					c-1.6,1.1-2.8,2.8-5.6,3.1c-0.9-0.9-1.1-1.9-1.4-2.9c-1.1-3.8-2.3-7.6-3.4-11.4c-0.8-1.8,1.4-3.4,3.1-4.8
					c9.1,8.8,18,17.6,27.1,26.4c5.4-5.1,11.9-9.6,18.2-14.3c-0.3-4.7-1.4-9.5-2-14.2c-0.2-1.5-1-3.1,0.2-4.6
					C287.7,83,288.7,81.6,289.9,80.4z M269.6,123.6c-1.6,2.1-3.6,4.2-4.1,6.5c-0.2,0.9-0.2,2.1,1,2.8c2.9,0.1,6-0.3,8.4-1.4
					c0.9-0.4,1.3-1.1,0.8-1.6C274.2,127.6,271.9,125.5,269.6,123.6z"/>
			</g>
			<path class="st0" d="M225.6,86.5c0.9-1.8,2.5-3.4,4.1-5.1c1,1.5,1.3,3.1,1.5,4.8c1.7,13.2,3.4,26.6,4.4,39.8
				c0.1,2.8,0.5,5.7,0.2,8.5c-0.5,1.6-1.8,3.2-3.8,4.4c-0.7-2.4-0.7-4.8-0.9-7.2c-0.7-13.6-2.9-27.1-4.9-40.7
				C226,89.5,225.4,88,225.6,86.5z"/>
			<g>
				<path class="st0" d="M439.4,84.8c0.5-0.2,0.7-0.9,1.5-0.7c0.5,2-0.2,4.1-2.1,5.6c-12.2,10.5-26.9,19.7-37.8,30.8
					c2.7,3.1,5.8,6,7,9.5c0.9,2.7-2,5.1-5,6.7c-3.1,1.6-7.3,2.7-11.3,2c-2.9-0.6-3.6-2.9-3.4-4.6c0.3-4.5,3.8-8.7,7.1-12.6
					c-4.9-4.7-10.1-9.3-15.2-14c-1.5,1.3-2.9,2.6-5.1,3.4c-0.7-1.1-1.2-2.2-1.4-3.4c-0.9-3.8-2.1-7.6-3.1-11.4
					c-0.5-1.7,1.5-3.2,2.9-4.5c8.5,8.8,16.8,17.6,25.2,26.4C410.5,106.2,426.8,96.4,439.4,84.8z M395.8,124.1c-1.8,2.5-4.5,5.1-4,8
					c0.2,0.6,0.5,1.5,1.8,1.3c3.1-0.1,6.7-0.5,8.5-2.2C401.2,128.6,398.1,126.4,395.8,124.1z"/>
			</g>
			<path class="st0" d="M198.2,87.7c0.1-1.1,2-1.3,3.4-1.7c0.7,1.8,0.2,3.9,2.1,5.5c0.5,0,1.7,0.1,2.3,0.2c0.4-1.6-0.9-3.1-1.5-4.7
				c0.6-0.7,2-0.8,3.1-1c1.2,2.4,2.7,5.1,0.5,7.4c-1.7,1.6-5.5,0.9-7.4-0.2c-1.3,0.9-2.7,2-4.9,2c-2.6,0.2-5.3-1-5.6-2.7
				c-0.2-1.6,0.2-3.3,1.4-4.7c0.7-0.7,2.3-0.7,3.4-0.9c-0.4,1.6-1.6,3.3-0.5,4.9c0.6,1,2.4,0.6,3.8,0.7
				C198.4,90.9,198,89.3,198.2,87.7z"/>
			<g>
				<path class="st0" d="M194.8,99.5c0.8-1.5,3-2.6,4.5-3.9c1.3,0.8,1.6,2,1.7,3.1c1.1,8.1,2.2,16.1,3.3,24.1c0.2,1.5,0.8,3.3,3,4
					c2.3,0.8,4.9,0.3,7.3-0.2c-0.1-3.4-0.6-6.7-1-10.1c-0.8-5.7-1.3-11.4-3-17c1.3-1.4,3-2.7,4.8-3.8c3.1,2.3,6.3,4.6,8.8,7.2
					c-0.1,0.2-0.2,0.5-0.3,0.6c-1.7,0.2-3.5-0.1-5.3-0.2c0,8.2,0.6,16.2,0.4,24.4c0.1,2-2.4,3.6-4.9,4.5c-3.6,1.1-8.4,1.4-11.6-0.4
					c-1.3,1.9-2.9,3.8-5.7,4.9c-4.2,1.7-10.1,1.2-13.4-1.3c-2.1-1.5-3.1-3.5-3.8-5.6c-5,2.9-12.1,4-18.7,3.5c-2.3-0.2-2.5-2-1.6-3.1
					c3.4-5.1,10.7-8.7,18.5-10.6c-0.1-1.8-0.5-3.6-0.7-5.5c-0.4-2,3.1-2.7,4.9-3.6c1,2.3,1,4.6,1.5,6.9c0.5,3.1,0.9,6.2,1.6,9.3
					c0.5,2,1.4,4.4,4.3,5.5c3,1,6.3,0,9-1C197.3,120.7,195.9,110.1,194.8,99.5z M168.7,128.2c3.5,0.4,7.4-0.2,10.1-1.7
					c0-1.2-0.2-2.4-0.5-3.5C174.6,124.1,169.9,125.3,168.7,128.2z"/>
			</g>
			<path class="st0" d="M342.8,105.9c-0.8-2.4,1.6-4.3,3.5-6c0.9,0.9,1.6,1.8,1.7,2.8c1.9,9.2,2.7,18.5,3.1,27.8
				c0.5,3.1-2.4,6.4-6.8,7.6c-5.4,0.5-11.3-0.2-15.7-2.4c-2-1-3.5-2.4-4.9-3.8c-5.9,4.8-11.8,6.9-18.2,10c-2.2,1.1-4.9,1.6-7.7,1.5
				c8.1-5.6,16.8-11,24.8-16.7c1.3-0.9,2.7-2,4.9-2.1c0.8,1.4,1.2,3,2.5,4.2c3.4,3.3,9.9,5.4,15.8,4.3c1.5-0.2,1-1.4,1-2.1
				C345.5,122.5,344.2,114.2,342.8,105.9z"/>
			<path class="st0" d="M358.4,102.2c0.6-0.6,0.9-1.4,2.3-1.6c0.5,0.9,0.7,1.7,0.8,2.6c0.9,10.3,1.7,20.6,2.4,30.9
				c0.2,2-1.7,3.9-3.9,5.4c-0.8-1.8-0.8-3.6-1-5.4c-1-9.1-2-18.2-3-27.3C355.5,105.1,357.2,103.7,358.4,102.2z"/>
		</g>
		<g>
			<path class="st0" d="M364.9,144.3c4.2-1.2,8.3-2.5,12.5-3.7c-0.2,1.5-0.9,3.2-3.2,3.9c-7,2.4-12.3,4-17.9,5.6
				c0.2-1.2,0.3-2.4,1.7-3.3C359.9,145.7,362.5,145.1,364.9,144.3z"/>
			<path class="st0" d="M203.6,153c2.4-0.8,4.7-1.8,7.4-2c-0.9,2-3,4-5.7,5.3c-9.6,3.2-19.4,6.3-28.8,9.8c-1.8,0.7-3.6,1.3-5.6,1.6
				c0.9-1.9,2.6-3.6,4.7-4.9C185,159.3,194.3,156.2,203.6,153z"/>
			<g>
				<path class="st0" d="M265.9,156.7c0.8-0.6,1.4-1.5,2.7-1.6c1.1,1.2,0.9,2.7,1.1,4c0.9,10,2,20.1,2.8,30.1c0.2,3.4-0.3,7-3,9.9
					c-3,3.4-8.4,5.5-14,6.2c0.7,2.8,3.5,5.7,7.9,6.3c5.5,0.5,11.1-0.8,15.8-2.6c4.7-1.9,9.2-4.2,12.8-7.1c1.2-0.9,1.6-2,2.2-3.1
					c-4.3-0.1-8.9,0.3-13-0.7c-1.7-0.5-3.4-1.5-3.4-2.8c0-3,1.7-5.7,3.8-8.3c1.6-1.8,4.1-3.6,7.4-3.6c2.1-0.2,3.9,0.9,5,2
					c2.3,2.2,3.3,4.8,4.2,7.3c8.5-0.2,16.9-0.5,25.2-1.6c1-1.3,2-2.5,3.7-3.4c0.1,1.1,0.1,2.2-0.1,3.2c1.4,0.4,3,0.9,4.5,0.5
					c2.8-0.8,3.4-3.1,5.8-4.3c0.2,0.9,0.3,1.8,0.6,2.7c1.3,0.5,2.9,0.8,4.5,1c-0.2-1.3-0.7-2.7-0.5-4.1c0.9-1.5,2.4-2.8,4.1-4
					c1.3,0.6,0.7,1.9,1,2.8c0.4,2.7-0.1,5.4-2.1,7.8c-1.3,1.7-3.7,3.2-6.6,3.4c-1.8,0.2-3.4-0.5-5-0.8c-2.3,0.5-4.4,1.5-6.8,1.5
					c-1.6,0.2-3-0.5-4.3-1.1c-7.7,1.6-15.6,2.6-23.6,2.5c-0.2,2.7-2.1,5.1-4.2,7.3c-4.8,4.8-11.8,8.7-20,10.4
					c-4.7,0.9-10.4,1.5-14.5-0.7c-4.5-2.5-6.5-6.4-7.1-10.2c-4.7,0.2-10.1,0.2-13.7-2.3c-3.8-2.4-4-6.3-3.3-9.6
					c0.7-2.4,1.6-4.8,3.7-6.8c0.3,2.3-0.7,4.5,0,6.7c0.5,2.6,3.4,4.9,7.1,5.7c4.1,0.9,8.5,0.3,12.6-0.3c3.4-0.5,6.6-1.7,9.2-3.4
					c-1-10.7-2.3-21.5-3.5-32.1c-1.9,0.6-3.7,1.6-5.8,1.7c-1.1,0-1.6-0.9-0.9-1.4C260.3,161.4,263.2,159.2,265.9,156.7z M283.4,192
					c2.5,1.3,5.9,1.2,8.9,1.2c-1.1-1.9-3.4-3.4-6.3-3.8C284,189.4,282.6,190.8,283.4,192z"/>
			</g>
			<path class="st0" d="M197.7,164.3c1-0.3,2.1-0.5,3.1-0.8c1.1,2.4,2.7,5.3,0.3,7.6c-1.8,1.3-4.9,0.6-6.7-0.4c-1.2,0.9-2.7,2-4.7,2
				c-2.4,0.2-4.7-0.9-5.2-2.4c-0.3-1.6,0.1-3.4,1.3-4.9c0.7-0.7,2.1-0.7,3.2-0.9c-0.4,1.5-1.4,3.1-0.7,4.6c0.5,1,2.4,1.1,3.6,0.6
				c0.5-1.6-0.4-3.1,0-4.7c0.3-1,2-1.3,3.2-1.6c0.4,1.8,0.3,3.8,1.6,5.3c0.8,0.1,1.6,0.1,2.4,0.2
				C199.6,167.5,198.5,165.9,197.7,164.3z"/>
			<g>
				<path class="st0" d="M197.3,173.1c1.8,0.7,1.7,2.2,1.9,3.4c1,7.8,2,15.8,3.1,23.6c0.2,1.4,0.7,3.1,2.7,3.9
					c2.2,0.9,4.9,0.3,7.1-0.2c-0.6-7.4-1.5-14.7-2.7-21.9c-0.2-1.7-1-3.4-0.9-5.3c1-1.5,2.8-2.6,4.5-3.7c2.8,2.4,6,4.6,8.3,7.3
					c-0.8,1.3-3.8,0.3-5.5,0.4c0,7.6,0.5,15.1,0.5,22.7c-0.1,1.5,0.2,3.2-1.6,4.3c-3.4,2.7-10.2,3.7-14.4,1.3c-1.3,2-3,4.2-6.1,5.2
					c-4.2,1.6-10,0.7-12.9-2c-1.6-1.5-2.4-3.3-3-5c-4.7,2.9-11.4,3.9-17.6,3.5c-2.3-0.1-2.8-1.9-2-3.1c3.2-5.2,10.3-8.8,18-10.7
					c-0.2-2.2-0.9-4.3-0.6-6.5c1.2-1.2,3.1-1.8,4.8-2.5c1.6,5.8,1.6,11.8,3.2,17.5c0.6,1.7,1.8,3.7,4.5,4.3s5.6-0.3,7.9-1.2
					c-1-10.7-2.4-21.3-3.5-32C194.6,175.5,195.9,174.3,197.3,173.1z M168.2,205.6c3.4,0.3,6.8-0.4,9.6-1.7c-0.2-1.2-0.3-2.4-0.5-3.6
					C173.8,201.6,169,202.7,168.2,205.6z"/>
			</g>
			<path class="st0" d="M376.9,186.9c-2-2.7,0.7-5.3,2.7-7.5c2.1,2.1,3.4,4.5,5.1,6.9c3.8,5.6,7.5,11.2,11.3,16.9
				c1.7,2.7,4.1,5.2,7,7.4c1.6-2.1,3.8-4.2,7.1-5.3c4.9-1.6,10.4-2.4,15.6-3.7c-7.1,0.2-14.3,0.4-21.4,0.7c-2,0.1-4,0-6-0.2
				c1.1-2.3,2.6-4.5,5-6.3c4.8-3.5,11.8-5.3,18.3-7c-1.6-1.3-4.4-2.1-5.2-3.8c1.1-1.5,2.7-2.9,4.7-4c2.1,0.1,4,0.8,6,1.3
				c3.6,1,7.4,2,10.2,3.9c2.7,1.9,0.1,5.3-3.6,5.4c-9.6,0.9-19.4,2.5-27.4,6.3c11.7-0.5,23.4-1.5,35.2-1.3v2.4
				c-1.6,1.8-4.5,3.1-7.3,4c-7.9,2.7-16.8,3.8-25,6c-1.1,0.2-3.3,1.2-1.4,1.8c4.9,2,10.9,2,16.1,3.3c0.2,2-2.1,3.8-4.1,5.1
				c-5.8,0.9-12.2-0.2-17.1-2.2c-6-2.5-9.7-6.7-11.9-11c-1.9,4.1-5.6,7.8-10,10.7c-2.8,1.8-6.3,3.4-10.3,3.9
				c-3.1,0.4-6.7,0.2-9.3-1.3c-3.2-1.9-3.8-4.9-3.9-7.5c0-2.8,0.2-6,3.1-8.3c-0.2,3.3-0.9,6.9,2,9.8c2.5,2.2,7.3,2.3,11,1.6
				c5.3-1,8.9-3.9,11.9-6.7C383.7,200.9,381.2,193.7,376.9,186.9z"/>
			<path class="st0" d="M220.9,188.6c0.9-1.5,2.2-2.9,3.4-4.2c1.2,2.2,1,4.5,1.2,6.7c0.7,8.9,1.3,17.9,1.9,26.8
				c0.2,1.8-1,3.4-2.5,4.9h-1.5c-0.9-9.6-2-19.3-2.9-28.9C220.5,192.2,219.8,190.4,220.9,188.6z"/>
			<path class="st0" d="M348.2,197.3c3.4-2,7-3.9,11.2-4.5c1.8-0.3,4.2-0.2,4.5,1.1c0.5,1.3,0.6,3.1-0.9,4.2
				c-1.7,0.2-3.4-0.1-5.1,0.5c-6.3,1.8-11.4,5.3-15.8,8.9c-3.2,2.9-6.1,5.9-9.5,8.7c-2.9,2.6-5.6,5.5-9.4,7.6
				c-3.1,1.8-8,1.8-10.2-0.1c-2.4-2-2.6-4.9-2.6-7.7c0.5-3.7,2-7.8,6-10.9c-0.1,2.3-2.1,4.5-2.4,6.7c-0.3,2.4-0.2,4.8,1.3,6.7
				c1,1.3,3.8,2,6,0.8c2.9-1.6,4.8-3.8,7-5.6C334.5,207.9,340.3,202,348.2,197.3z"/>
		</g>
	</g>
</g>
</svg>
