<?xml version="1.0" encoding="utf-8"?>
<!-- Generator: Adobe Illustrator 22.1.0, SVG Export Plug-In . SVG Version: 6.00 Build 0)  -->
<svg version="1.1" id="svg1589" xmlns="http://www.w3.org/2000/svg" xmlns:xlink="http://www.w3.org/1999/xlink" x="0px" y="0px"
	 width="600px" height="400px" viewBox="0 0 600 400" style="enable-background:new 0 0 600 400;" xml:space="preserve">
<style type="text/css">
	.st0{fill:#FFFFFF;}
	.st1{fill:#006C35;}
</style>
<path id="path3342" class="st0" d="M600,400V0H0v400H600z"/>
<path id="_x32_1461584" class="st1" d="M472,400V0H0v400H472z"/>
<g>
	<g>
		<g>
			<path class="st0" d="M213.4,153.6c1.3-0.5,2.8-0.7,4.3-0.8c-1.3,2.4-3.8,4.7-7.6,5.7c-10.1,3.1-20.2,6.3-30.1,9.8
				c-1.5,0.6-3.1,0.9-4.9,1.1c0.9-1.8,2.8-3.5,4.8-4.9C191,160.8,202.2,157.3,213.4,153.6z"/>
			<g>
				<path class="st0" d="M289.9,160.1c1.3,0.1,1.1,1.1,1.4,1.7c1.2,5.8,1.6,11.6,2.4,17.5c5.6-3.9,11.1-7.7,16.2-11.7
					c2-1.5,3.5-3.1,5.8-4.4c0.4,1.8,0.3,3.8-1.7,5.3c-6.1,5.1-13.1,9.8-19.9,14.6c0.9,9.5,2.3,19,2.4,28.6c0.2,2.2-1.4,4.4-4.1,6
					c-0.9-3.1-0.9-6.1-1.1-9.2c-0.4-7.2-1.4-14.4-2.4-21.6c-5.9,4.2-11.4,8.5-16.3,13.1c2.9,3,6.1,6,7.5,9.4c1,2.5-1.7,5-4.8,6.5
					c-3.5,1.8-8.4,3.1-13.1,2.2c-2.8-0.7-3.5-2.8-3.4-4.3c0.2-4.6,4.1-8.9,7.6-12.9c-5.3-4.7-10.9-9.4-16.4-14
					c-1.7,1.1-2.8,2.8-5.6,3.1c-0.9-0.9-1.1-1.9-1.4-2.9c-1.1-3.9-2.3-7.6-3.4-11.5c-0.8-1.8,1.4-3.4,3.1-4.8
					c9.1,8.8,18,17.7,27.2,26.5c5.4-5.1,12-9.7,18.2-14.4c-0.3-4.7-1.4-9.5-2-14.2c-0.2-1.5-1-3.1,0.2-4.6
					C287.6,162.7,288.7,161.4,289.9,160.1z M269.6,203.5c-1.6,2.1-3.6,4.2-4.1,6.5c-0.2,0.9-0.2,2.1,1,2.8c2.9,0.1,6.1-0.3,8.4-1.4
					c0.9-0.4,1.3-1.1,0.8-1.7C274.2,207.5,271.8,205.4,269.6,203.5z"/>
			</g>
			<path class="st0" d="M225.4,166.3c0.9-1.8,2.5-3.5,4.1-5.1c1,1.5,1.3,3.1,1.5,4.8c1.7,13.3,3.4,26.7,4.4,40
				c0.1,2.8,0.6,5.7,0.2,8.6c-0.5,1.7-1.8,3.2-3.8,4.4c-0.7-2.4-0.7-4.8-0.9-7.2c-0.7-13.6-2.9-27.2-5-40.8
				C225.7,169.2,225.2,167.7,225.4,166.3z"/>
			<g>
				<path class="st0" d="M439.9,164.6c0.5-0.2,0.7-0.9,1.5-0.7c0.6,2-0.2,4.1-2.1,5.7c-12.3,10.5-27,19.7-37.9,30.9
					c2.8,3.1,5.8,6.1,7,9.5c0.9,2.7-2,5.1-5,6.7c-3.1,1.6-7.3,2.7-11.3,2c-2.9-0.6-3.6-2.9-3.5-4.6c0.3-4.6,3.9-8.7,7.1-12.7
					c-4.9-4.7-10.1-9.4-15.3-14c-1.5,1.3-2.9,2.6-5.1,3.4c-0.7-1.1-1.2-2.2-1.4-3.4c-0.9-3.9-2.1-7.6-3.1-11.5
					c-0.6-1.7,1.5-3.2,2.9-4.6c8.5,8.8,16.8,17.7,25.3,26.5C410.9,186,427.3,176.2,439.9,164.6z M396.2,204c-1.8,2.5-4.5,5.1-4,8
					c0.2,0.6,0.5,1.5,1.8,1.3c3.1-0.1,6.8-0.5,8.5-2.2C401.5,208.5,398.5,206.3,396.2,204z"/>
			</g>
			<path class="st0" d="M197.9,167.4c0.1-1.1,2-1.3,3.4-1.7c0.7,1.8,0.2,3.9,2.1,5.5c0.6,0,1.7,0.1,2.3,0.2c0.4-1.7-0.9-3.1-1.5-4.7
				c0.6-0.7,2-0.8,3.1-1c1.2,2.4,2.8,5.1,0.6,7.5c-1.7,1.7-5.5,0.9-7.4-0.2c-1.3,0.9-2.7,2-4.9,2c-2.6,0.2-5.3-1-5.7-2.7
				c-0.2-1.6,0.2-3.3,1.4-4.7c0.7-0.7,2.3-0.7,3.5-0.9c-0.4,1.6-1.7,3.3-0.6,4.9c0.6,1,2.4,0.6,3.8,0.7
				C198.1,170.7,197.7,169.1,197.9,167.4z"/>
			<g>
				<path class="st0" d="M194.5,179.3c0.8-1.5,3-2.6,4.5-3.9c1.3,0.8,1.7,2,1.7,3.1c1.1,8.1,2.2,16.1,3.3,24.2c0.2,1.5,0.8,3.3,3,4
					c2.3,0.8,5,0.3,7.3-0.2c-0.1-3.4-0.6-6.8-1-10.1c-0.8-5.7-1.3-11.5-3-17.1c1.3-1.4,3-2.7,4.8-3.9c3.1,2.3,6.3,4.6,8.8,7.2
					c-0.1,0.2-0.2,0.5-0.3,0.6c-1.7,0.2-3.5-0.1-5.3-0.2c0,8.2,0.6,16.3,0.4,24.5c0.1,2-2.4,3.6-5,4.5c-3.6,1.1-8.4,1.4-11.6-0.4
					c-1.3,1.9-2.9,3.9-5.7,5c-4.2,1.7-10.1,1.2-13.5-1.3c-2.1-1.5-3.1-3.5-3.9-5.6c-5,2.9-12.1,4-18.7,3.5c-2.3-0.2-2.5-2-1.6-3.1
					c3.5-5.1,10.7-8.7,18.6-10.6c-0.1-1.8-0.6-3.6-0.7-5.5c-0.4-2,3.1-2.7,5-3.6c1,2.3,1,4.6,1.5,6.9c0.6,3.1,0.9,6.2,1.7,9.4
					c0.6,2,1.4,4.4,4.3,5.5c3,1,6.4,0,9-1C197,200.5,195.5,189.9,194.5,179.3z M168.2,208.1c3.5,0.4,7.4-0.2,10.1-1.7
					c0-1.2-0.2-2.4-0.5-3.5C174.2,204,169.5,205.2,168.2,208.1z"/>
			</g>
			<path class="st0" d="M343,185.8c-0.8-2.4,1.6-4.3,3.5-6.1c0.9,0.9,1.6,1.8,1.7,2.8c1.9,9.2,2.8,18.6,3.1,27.8
				c0.5,3.1-2.4,6.5-6.8,7.6c-5.4,0.6-11.3-0.2-15.7-2.4c-2-1-3.5-2.4-5-3.9c-5.9,4.8-11.8,6.9-18.2,10c-2.2,1.1-5,1.7-7.7,1.5
				c8.1-5.7,16.8-11,24.9-16.8c1.3-0.9,2.8-2,4.9-2.1c0.8,1.4,1.2,3,2.5,4.2c3.4,3.3,9.9,5.4,15.9,4.3c1.5-0.2,1-1.4,1-2.1
				C345.7,202.4,344.4,194.1,343,185.8z"/>
			<path class="st0" d="M358.6,182c0.6-0.6,0.9-1.4,2.3-1.7c0.5,0.9,0.7,1.7,0.8,2.6c0.9,10.3,1.7,20.7,2.4,31
				c0.2,2-1.7,3.9-3.9,5.4c-0.8-1.8-0.8-3.6-1-5.4c-1-9.1-2-18.2-3-27.4C355.7,185,357.4,183.5,358.6,182z"/>
		</g>
		<g>
			<path class="st0" d="M365.1,224.3c4.2-1.2,8.3-2.5,12.6-3.7c-0.2,1.5-0.9,3.2-3.2,3.9c-7,2.4-12.3,4-17.9,5.6
				c0.2-1.2,0.3-2.4,1.7-3.3C360.2,225.6,362.8,225.1,365.1,224.3z"/>
			<path class="st0" d="M203.3,233c2.4-0.8,4.7-1.8,7.5-2c-0.9,2-3,4-5.7,5.3c-9.7,3.2-19.4,6.4-28.9,9.8c-1.8,0.7-3.6,1.3-5.7,1.6
				c0.9-1.9,2.6-3.6,4.7-5C184.6,239.3,194,236.2,203.3,233z"/>
			<g>
				<path class="st0" d="M265.8,236.7c0.8-0.6,1.4-1.5,2.8-1.7c1.1,1.2,0.9,2.7,1.1,4c0.9,10.1,2,20.1,2.8,30.2c0.2,3.4-0.3,7-3,9.9
					c-3,3.4-8.4,5.5-14,6.2c0.7,2.8,3.5,5.7,7.9,6.3c5.5,0.6,11.1-0.8,15.9-2.6c4.7-1.9,9.2-4.2,12.8-7.1c1.2-0.9,1.7-2,2.2-3.1
					c-4.3-0.1-8.9,0.3-13.1-0.7c-1.7-0.5-3.5-1.5-3.5-2.8c0-3,1.7-5.7,3.8-8.3c1.6-1.8,4.1-3.6,7.4-3.6c2.1-0.2,3.9,0.9,5,2
					c2.3,2.2,3.3,4.8,4.2,7.3c8.5-0.2,17-0.6,25.3-1.7c1-1.3,2-2.5,3.7-3.4c0.1,1.1,0.1,2.2-0.1,3.2c1.4,0.4,3,0.9,4.6,0.5
					c2.8-0.8,3.5-3.1,5.8-4.3c0.2,0.9,0.3,1.8,0.6,2.8c1.3,0.6,2.9,0.8,4.5,1c-0.2-1.3-0.7-2.7-0.6-4.1c0.9-1.5,2.4-2.8,4.1-4
					c1.3,0.6,0.7,1.9,1,2.8c0.4,2.7-0.1,5.4-2.1,7.8c-1.3,1.7-3.7,3.2-6.6,3.4c-1.8,0.2-3.4-0.5-5-0.8c-2.3,0.6-4.4,1.5-6.8,1.5
					c-1.7,0.2-3-0.6-4.3-1.1c-7.7,1.6-15.7,2.6-23.7,2.5c-0.2,2.7-2.1,5.1-4.2,7.3c-4.8,4.8-11.9,8.7-20.1,10.5
					c-4.7,0.9-10.5,1.5-14.6-0.7c-4.5-2.5-6.5-6.5-7.2-10.2c-4.7,0.2-10.1,0.2-13.8-2.3c-3.8-2.4-4-6.4-3.3-9.7
					c0.7-2.4,1.7-4.8,3.7-6.8c0.3,2.3-0.7,4.5,0,6.8c0.6,2.6,3.5,5,7.2,5.7c4.1,0.9,8.5,0.3,12.7-0.3c3.5-0.6,6.6-1.7,9.2-3.4
					c-1-10.8-2.3-21.6-3.5-32.3c-1.9,0.6-3.7,1.6-5.8,1.7c-1.1,0-1.7-0.9-0.9-1.4C260.2,241.4,263.1,239.2,265.8,236.7z
					 M283.4,272.1c2.5,1.3,5.9,1.2,8.9,1.2c-1.1-1.9-3.4-3.5-6.4-3.8C284,269.5,282.6,270.9,283.4,272.1z"/>
			</g>
			<path class="st0" d="M197.4,244.4c1-0.3,2.1-0.6,3.1-0.8c1.1,2.4,2.8,5.3,0.3,7.6c-1.8,1.3-5,0.6-6.8-0.4c-1.2,0.9-2.7,2-4.7,2
				c-2.4,0.2-4.7-0.9-5.2-2.4c-0.3-1.7,0.1-3.5,1.3-4.9c0.7-0.7,2.1-0.7,3.2-0.9c-0.4,1.5-1.4,3.1-0.7,4.6c0.5,1,2.4,1.1,3.6,0.6
				c0.6-1.6-0.4-3.1,0-4.7c0.3-1,2-1.3,3.2-1.6c0.4,1.8,0.3,3.8,1.7,5.3c0.8,0.1,1.6,0.1,2.4,0.2
				C199.3,247.5,198.2,245.9,197.4,244.4z"/>
			<g>
				<path class="st0" d="M197,253.2c1.8,0.7,1.7,2.2,1.9,3.5c1,7.9,2,15.8,3.1,23.7c0.2,1.4,0.7,3.1,2.8,3.9
					c2.2,0.9,4.9,0.3,7.2-0.2c-0.6-7.4-1.5-14.7-2.7-22c-0.2-1.7-1-3.5-0.9-5.3c1-1.5,2.8-2.6,4.6-3.7c2.8,2.4,6.1,4.6,8.3,7.3
					c-0.8,1.3-3.8,0.3-5.5,0.4c0,7.6,0.6,15.2,0.5,22.8c-0.1,1.5,0.2,3.2-1.6,4.3c-3.5,2.7-10.2,3.7-14.5,1.3c-1.3,2-3,4.2-6.1,5.2
					c-4.2,1.6-10.1,0.7-13-2c-1.7-1.5-2.4-3.3-3-5c-4.7,2.9-11.4,3.9-17.7,3.5c-2.3-0.1-2.8-1.9-2-3.1c3.2-5.2,10.4-8.8,18-10.8
					c-0.2-2.2-0.9-4.3-0.6-6.5c1.2-1.2,3.1-1.8,4.8-2.5c1.6,5.8,1.6,11.8,3.2,17.5c0.6,1.7,1.8,3.7,4.6,4.3c2.8,0.6,5.6-0.3,7.9-1.2
					c-1-10.7-2.4-21.4-3.5-32.1C194.3,255.5,195.6,254.4,197,253.2z M167.8,285.8c3.5,0.3,6.8-0.4,9.7-1.7c-0.2-1.2-0.3-2.4-0.6-3.6
					C173.4,281.7,168.6,282.8,167.8,285.8z"/>
			</g>
			<path class="st0" d="M377.2,267c-2-2.7,0.7-5.3,2.8-7.6c2.1,2.1,3.5,4.6,5.1,6.9c3.9,5.6,7.6,11.2,11.3,16.9
				c1.7,2.7,4.1,5.2,7,7.4c1.7-2.1,3.9-4.2,7.2-5.3c5-1.7,10.5-2.4,15.7-3.7c-7.2,0.2-14.3,0.4-21.5,0.7c-2,0.1-4,0-6.1-0.2
				c1.1-2.3,2.6-4.5,5-6.3c4.8-3.5,11.9-5.3,18.4-7c-1.7-1.3-4.4-2.1-5.2-3.8c1.1-1.5,2.7-2.9,4.7-4c2.1,0.1,4,0.8,6,1.3
				c3.6,1,7.4,2,10.2,3.9c2.8,1.9,0.1,5.3-3.6,5.4c-9.7,0.9-19.5,2.5-27.5,6.4c11.7-0.5,23.5-1.5,35.3-1.3v2.4
				c-1.7,1.8-4.5,3.1-7.3,4c-7.9,2.8-16.8,3.8-25.1,6c-1.1,0.2-3.3,1.2-1.4,1.8c4.9,2,10.9,2,16.2,3.3c0.2,2-2.1,3.8-4.1,5.1
				c-5.8,0.9-12.2-0.2-17.1-2.2c-6.1-2.5-9.8-6.7-12-11c-1.9,4.1-5.6,7.8-10.1,10.8c-2.8,1.8-6.3,3.5-10.3,3.9
				c-3.1,0.4-6.8,0.2-9.3-1.3c-3.2-1.9-3.9-4.9-3.9-7.6c0-2.8,0.2-6.1,3.1-8.3c-0.2,3.3-0.9,6.9,2,9.8c2.5,2.2,7.3,2.3,11,1.6
				c5.3-1,9-3.9,12-6.8C384,281.1,381.6,273.9,377.2,267z"/>
			<path class="st0" d="M220.6,268.7c0.9-1.5,2.2-2.9,3.5-4.2c1.2,2.2,1,4.5,1.2,6.8c0.7,9,1.3,17.9,1.9,26.9c0.2,1.8-1,3.5-2.5,4.9
				h-1.5c-0.9-9.7-2-19.4-2.9-29C220.2,272.4,219.5,270.5,220.6,268.7z"/>
			<path class="st0" d="M348.5,277.4c3.4-2,7-3.9,11.2-4.5c1.8-0.3,4.2-0.2,4.6,1.1c0.5,1.3,0.6,3.1-0.9,4.2
				c-1.7,0.2-3.5-0.1-5.1,0.5c-6.4,1.8-11.4,5.3-15.8,8.9c-3.2,2.9-6.1,5.9-9.5,8.7c-2.9,2.6-5.6,5.5-9.4,7.6
				c-3.1,1.8-8,1.8-10.2-0.1c-2.4-2-2.6-5-2.6-7.7c0.5-3.7,2-7.8,6.1-10.9c-0.1,2.3-2.1,4.5-2.4,6.8c-0.3,2.4-0.2,4.8,1.3,6.8
				c1,1.3,3.9,2,6.1,0.8c2.9-1.6,4.8-3.8,7-5.7C334.7,288.1,340.5,282.1,348.5,277.4z"/>
		</g>
	</g>
	<path class="st0" d="M366.3,102.1c0,0-1.4-0.3-6.3-0.1c-2.9,0.2-6.8,0.7-8.7,1.3c-4.3,1.3-5.9,1.3-7.3,0.1
		c-1.3-1.1-0.2-6.1-2.6-8.2c-1.2-1-2.8-0.6-3.7,0.8c-1.6,2.2-2.6,6.1-1.8,6.7c0.3,0.2,1.2-0.1,1.9-0.7c1.5-1.3,2.7,0.4,1.5,2.4
		c-0.9,1.4-3.8,1.1-28.9,3.6c-12.8,1.3-54.9,3.9-70.2,1.4c-10.1-0.8-22.3-2.9-30-5.2l-5.6-1.6l4,2.7c2.2,1.5,7.5,4,11.9,5.6
		c15.3,5.7,24.9,6.5,66.3,5.6c23.7-0.6,33.4-1,41.8-2c11.2-1.5,14.6-1.4,14.6,0.6c0.1,1.4,0.5,5.3,1.8,6.7c3,4.2,5.8-4.1,5.7-5
		c-0.1-2.4-0.8-2.5-2.3-1.3c-1.3,0.8-1,0.7-1.3-0.2c-1.7-5.5,14.3-6,14.4-4.7c0,0.1,0.1,0.2,0.2,0.4c0.7,2.3,2.4,3.9,4.4,3.9
		c2.6,0,4.8-2.8,4.8-6.2C371,105,369,102.1,366.3,102.1z"/>
</g>
</svg>
