<?xml version="1.0" encoding="UTF-8" standalone="no"?>
<svg
   xmlns:dc="http://purl.org/dc/elements/1.1/"
   xmlns:cc="http://creativecommons.org/ns#"
   xmlns:rdf="http://www.w3.org/1999/02/22-rdf-syntax-ns#"
   xmlns:svg="http://www.w3.org/2000/svg"
   xmlns="http://www.w3.org/2000/svg"
   xmlns:sodipodi="http://sodipodi.sourceforge.net/DTD/sodipodi-0.dtd"
   xmlns:inkscape="http://www.inkscape.org/namespaces/inkscape"
   version="1.1"
   id="svg10"
   width="1200"
   height="597"
   viewBox="0 0 1200 597"
   sodipodi:docname="1200px-Flag_of_the_Somali_National_Movement.svg"
   inkscape:version="1.0.2 (e86c870879, 2021-01-15, custom)">
  <metadata
     id="metadata16">
    <rdf:RDF>
      <cc:Work
         rdf:about="">
        <dc:format>image/svg+xml</dc:format>
        <dc:type
           rdf:resource="http://purl.org/dc/dcmitype/StillImage" />
        <dc:title></dc:title>
      </cc:Work>
    </rdf:RDF>
  </metadata>
  <defs
     id="defs14" />
  <sodipodi:namedview
     pagecolor="#ffffff"
     bordercolor="#666666"
     borderopacity="1"
     objecttolerance="10"
     gridtolerance="10"
     guidetolerance="10"
     inkscape:pageopacity="0"
     inkscape:pageshadow="2"
     inkscape:window-width="1920"
     inkscape:window-height="1001"
     id="namedview12"
     showgrid="false"
     inkscape:pagecheckerboard="true"
     inkscape:zoom="0.51333333"
     inkscape:cx="1079.8064"
     inkscape:cy="398.96638"
     inkscape:window-x="-9"
     inkscape:window-y="-9"
     inkscape:window-maximized="1"
     inkscape:current-layer="g18" />
  <g
     inkscape:groupmode="layer"
     inkscape:label="Image"
     id="g18">
    <g
       id="g22"
       transform="matrix(1,0,0,1.0062244,1.0432502,-0.79383366)">
      <path
         id="path38"
         style="fill:#fdfdfd"
         d="m -2,199 c 0,67.33333 0,134.66667 0,202 401.33333,0 802.66667,0 1204,0 0,-68 0,-136 0,-204 -401.33333,0 -802.66667,0 -1204,0 0,0.66667 0,1.33333 0,2 z m 573.50977,7.30469 c 1.0409,2.30363 1.68641,4.82152 2.25664,7.18733 1.02083,4.44676 1.71808,8.96183 2.2414,13.49236 0.0609,0.63404 0.16409,1.59187 0.24121,2.35013 0.1802,1.85244 0.33456,3.98488 0.51564,5.95632 0.72273,6.95417 1.93862,14.00982 5.06385,20.33002 1.77163,3.45364 4.20755,6.85939 7.80641,8.56408 2.57856,1.27096 5.91636,1.08655 8.11313,-0.86462 2.42214,-2.00232 3.09312,-5.28041 3.28554,-8.26439 0.3354,-6.15648 -0.74197,-12.29272 -2.12195,-18.26933 -1.44886,-6.21964 -3.58006,-12.25324 -5.97899,-18.16388 -0.10804,-0.55968 -0.68759,-1.17339 -0.48742,-1.69775 1.96246,-2.8475 3.89814,-5.71366 5.91024,-8.52652 2.68532,2.14973 4.85858,4.88428 6.74675,7.74277 1.50537,2.49655 2.85632,5.13487 3.63929,7.95421 0.37805,0.85022 -0.26013,0.45423 -0.7278,0.13107 -1.44029,-0.90632 -2.96706,-2.26152 -4.79887,-1.87883 -1.49996,0.35484 -2.16676,2.05554 -1.88086,3.46289 0.46784,2.84186 1.80198,5.44516 2.48909,8.23299 2.18232,7.91669 2.88793,16.38842 1.07219,24.44986 -1.06482,4.40555 -2.98265,8.94036 -6.74292,11.70191 -2.04108,1.56891 -4.79613,2.18128 -7.27783,1.41502 -3.98929,-1.19056 -7.16078,-4.09218 -10.04007,-6.97529 -1.97731,-2.006 -3.95433,-4.01229 -5.9321,-6.01785 -1.56511,2.42487 -2.929,4.98731 -4.65755,7.30156 -3.31886,4.06275 -7.71535,7.1828 -12.47137,9.34864 -3.4957,1.57619 -7.7133,2.34405 -11.29867,0.60787 -3.77148,-1.79967 -6.05101,-5.58264 -7.62314,-9.29675 -1.45716,-3.52757 -1.28284,-7.42609 -1.40493,-11.16713 -0.0915,-4.72077 0.0189,-9.47478 -0.68654,-14.15601 -0.16657,-1.28504 -0.78139,-2.76834 -2.21131,-3.00732 -1.44977,-0.44098 -2.85234,0.60561 -3.40193,1.90312 -1.501,3.19818 -2.52285,6.59715 -3.73214,9.91101 -2.02529,5.67067 -3.83087,11.4337 -6.27505,16.94358 -0.85646,1.72247 -1.72398,3.81458 -3.6944,4.49033 -1.91472,0.41927 -3.67698,-0.86054 -5.08157,-2.00546 -3.77015,-3.34058 -6.31753,-7.80778 -8.4485,-12.31223 -1.38612,-3.118 -2.02323,-6.51225 -2.35665,-9.89129 -0.0263,-0.3768 -0.0967,-1.14737 -0.12277,-1.67514 -0.19433,-3.50666 -0.0278,-7.03193 0.48215,-10.5065 0.0544,-0.36051 0.16649,-1.08125 0.26172,-1.57617 -0.1446,5.74533 -0.29931,11.58318 0.99747,17.22143 0.84124,3.75371 2.77997,7.2373 5.5564,9.90358 1.37819,1.41797 3.05615,3.06967 5.20785,2.82616 1.92513,-0.22712 3.38529,-1.67657 4.3536,-3.25785 1.97463,-2.95163 2.80434,-6.45187 4.20992,-9.67524 3.53306,-8.63579 7.52792,-17.10759 12.3327,-25.11396 1.45673,-2.2734 2.84026,-4.67441 4.85819,-6.50334 0.37103,-0.45042 0.8305,-0.19801 1.10753,0.19587 1.33712,1.11057 1.3745,2.95732 1.29126,4.54987 -0.0543,1.13126 -0.15966,2.1824 -0.28263,3.23226 -0.57285,4.50927 -1.3295,9.00203 -1.52817,13.55074 -0.29748,5.65045 -0.40123,11.3495 0.35218,16.96983 0.51587,3.82665 2.36153,7.76711 5.87182,9.68268 3.52544,1.93692 7.82451,1.41772 11.43735,0.01 4.59893,-1.74465 8.86563,-4.79243 11.29117,-9.15407 2.88553,-5.10123 3.38556,-11.1427 3.19489,-16.89132 -0.34562,-9.54367 -2.61774,-18.86108 -4.51716,-28.179 1.12759,-2.32146 2.10539,-4.72237 3.41406,-6.95117 0.0606,0.11979 0.1211,0.23959 0.18165,0.35938 z m -227.67579,0.17578 c 1.16299,0.32445 1.56151,1.70101 1.82227,2.74805 0.11691,0.55988 0.16872,1.13166 0.17578,1.70312 -1.22752,-1.73517 -3.67828,-1.98573 -5.52438,-1.19696 -0.76108,0.38583 0.26754,-0.69462 0.45309,-0.98515 0.83036,-0.9136 1.72853,-1.99714 2.98535,-2.27101 z m 273.09766,0.93945 c 2.76175,1.56704 5.04549,3.82485 7.40392,5.92181 4.22719,3.96577 8.52536,7.87947 12.38325,12.2132 0.49611,0.58338 0.98417,1.17651 1.40424,1.81812 -2.60482,-0.0601 -5.20685,-0.2305 -7.81055,-0.33399 4.55593,7.02776 9.11578,14.06231 14.08594,20.80664 0.6624,0.94644 1.82327,1.91971 3.03515,1.44532 1.12549,-0.23728 1.62418,-1.57046 1.48044,-2.62509 -0.4376,-3.05012 -0.8246,-6.11019 -1.10261,-9.18092 -0.47365,-4.38726 -0.56721,-8.85972 -1.74697,-13.1354 -0.14801,-0.58217 -0.52948,-1.05405 -0.86718,-1.51172 -0.39169,-2.55275 0.10664,-5.17534 0.87304,-7.61523 0.52807,-1.38479 1.18482,-2.76643 2.17969,-3.87891 1.57483,1.65149 2.41782,3.83896 3.3943,5.8676 2.33815,5.39273 4.53078,10.86053 6.32031,16.462 0.585,2.04865 1.28078,4.14002 1.19359,6.2954 -1.08526,-0.85852 -2.85024,-0.64761 -3.54882,0.59766 -0.80046,1.55377 -0.52682,3.3813 -0.55115,5.06743 0.27431,7.02134 0.7565,14.0331 1.13122,21.04975 7.20401,11.64582 14.60981,23.12753 21.43164,35.00391 5.03366,8.79536 9.92983,17.84057 13.97008,27.19683 2.0281,4.81889 3.95038,9.73822 4.89321,14.90083 -4.61444,-9.58001 -9.42788,-19.07484 -14.77975,-28.26725 -5.85462,-9.85108 -11.86759,-19.61258 -18.14018,-29.20346 -0.92732,-1.26176 -1.65368,-2.72875 -2.8457,-3.76172 -0.44565,-0.4833 -1.03695,-0.40979 -1.6292,-0.33257 -0.55528,0.10779 -1.4641,-0.17827 -1.34201,0.68415 -0.48202,1.9612 -0.0628,3.98702 -0.01,5.97393 0.95736,13.18657 2.20658,26.34981 3.56501,39.50051 0.39734,4.52439 0.54162,9.07096 0.43149,13.61148 -0.0365,1.39777 -0.10676,3.03015 -0.20459,4.51665 -0.19055,2.89292 -0.51451,5.85501 -0.95219,8.63068 -0.60638,3.76719 -1.44883,7.50832 -2.7319,11.10658 0.41582,-5.99971 0.81924,-12.00764 0.85481,-18.02383 -0.10412,-11.59402 -1.19307,-23.15243 -2.43834,-34.67119 -1.21808,-11.18814 -2.83157,-22.3269 -4.48219,-33.45811 -0.56943,-3.76073 -0.97365,-7.54513 -1.5322,-11.30622 -0.83164,-4.68429 -3.73787,-8.59407 -6.31321,-12.46495 -5.90277,-8.4568 -11.8158,-16.91914 -18.23754,-24.99355 -2.21321,-2.68928 -4.40099,-5.4833 -7.2611,-7.52068 -1.22382,-1.06344 -1.1862,-2.83526 -1.42773,-4.31445 -0.21205,-1.94406 -0.35445,-3.88509 -0.49288,-5.89208 -0.11453,-1.73725 -0.21145,-3.38127 -0.0993,-5.15963 0.12907,-0.29474 -0.0811,-1.5347 0.51562,-1.01953 z m 240.30078,0.70508 c 3.02562,5.78634 5.56649,11.81409 8.01586,17.86216 0.63651,1.59341 1.24645,3.19807 1.8025,4.82143 -1.32037,-0.65914 -3.09769,-0.0382 -3.58008,1.39063 -0.63155,1.87637 -0.3881,3.90765 -0.46111,5.85742 0.0178,7.19047 0.77933,14.38143 1.64004,21.49199 1.86164,16.45004 3.43276,32.92857 4.26165,49.3964 0.39789,8.2022 0.62449,16.37618 0.36822,24.60639 -0.0637,1.82856 -0.14288,3.5419 -0.27498,5.39972 -0.30581,4.81567 -0.97483,9.62566 -2.38112,14.2524 -2.43982,8.50878 -6.57309,16.75803 -13.11735,22.85191 -5.50899,5.21279 -12.54479,8.58439 -19.85761,10.4133 -0.35995,0.089 -1.09916,0.27478 -1.61242,0.39073 -1.54015,0.35965 -3.09063,0.68217 -4.65711,0.90419 4.23247,-3.39643 8.78878,-6.36444 12.95607,-9.84535 4.85096,-3.98642 9.61779,-8.15453 13.48486,-13.13258 4.07243,-5.04599 7.03694,-11.00277 8.38067,-17.35888 1.77847,-8.17762 1.63335,-16.61545 1.27617,-24.93022 -0.41842,-7.81766 -0.99887,-15.62544 -1.6279,-23.42861 -1.03654,-11.69489 -2.51272,-23.344 -3.80385,-35.01229 -1.59298,-13.94468 -3.1729,-27.91824 -5.03516,-41.80965 -0.15769,-1.37682 -0.36808,-2.98156 -0.45899,-4.45703 -0.13618,-1.71005 -0.12357,-3.54857 0.88888,-5.01888 1.01941,-1.79118 2.08713,-3.59714 3.55643,-5.0612 0.0788,0.13868 0.15756,0.27735 0.23633,0.41602 z m -37.60156,0.10156 c 1.85943,3.84889 2.93263,8.01595 4.07221,12.11924 1.09513,4.32866 2.26066,8.65019 3.02645,13.05222 0.003,0.49643 0.29173,1.2671 0.0494,1.60915 -1.84007,-0.0265 -3.60149,1.40463 -3.74242,3.27957 -0.0663,2.33139 0.23539,4.66361 0.36207,6.99206 0.68646,9.39919 1.45653,18.79187 2.37568,28.17097 0.59479,7.02099 1.02029,14.02924 1.51477,21.05804 5.74457,8.41536 11.68268,16.7014 17.20618,25.26542 3.48212,5.52247 6.99739,11.14423 9.01057,17.39894 0.65682,2.08502 1.07433,4.24418 1.24614,6.42353 0.0275,0.4041 0.0934,1.17977 0.11328,1.72852 -3.5095,-6.06987 -7.5318,-11.82247 -11.46701,-17.61993 -2.98073,-4.2473 -5.85373,-8.58388 -9.12158,-12.61827 -0.7848,-1.11063 -2.5357,-1.4547 -3.51931,-0.42284 -1.14969,1.21 -1.02491,3.03395 -1.17802,4.58591 -0.30512,7.46656 0.12086,14.95707 -0.5715,22.40911 -0.48692,-8.78718 -0.37143,-17.6165 -1.38909,-26.36818 -0.55035,-4.83314 -1.87449,-9.61081 -4.27431,-13.86407 -2.82843,-5.0594 -6.33946,-9.69099 -9.68839,-14.40947 -2.21802,-2.98853 -4.33539,-6.0686 -6.79664,-8.86414 -0.47797,-0.49773 -1.11037,-0.85695 -1.81719,-0.72851 -0.5226,0.11675 -1.48947,-0.34429 -1.46555,0.48322 -0.61074,1.66819 -0.2947,3.45889 -0.29951,5.19202 0.51944,15.59293 1.60719,31.16026 2.18576,46.75054 0.15411,5.81129 0.36136,11.81768 -0.26878,17.67444 -0.39411,3.83277 -1.44806,7.74524 -3.97459,10.74825 -1.58075,1.89725 -3.33734,3.66791 -5.26758,5.20841 -1.68343,1.19323 -3.86632,0.91837 -5.81638,1.00593 -2.7441,-0.0555 -5.57396,0.20822 -8.23104,-0.61969 -2.48403,-1.00001 -4.62193,-2.69683 -6.62913,-4.43726 -1.70994,-1.51364 -3.23445,-3.22537 -4.52557,-5.10817 -1.07075,-1.28891 -2.20041,-2.76445 -3.87218,-3.25805 -1.9717,-0.345 -3.60308,1.20752 -4.79555,2.57386 -2.99273,3.5663 -5.13761,7.74461 -7.21537,11.88481 -2.60615,5.45856 -5.28079,10.76659 -8.45489,15.89885 -1.40281,2.20605 -2.80183,4.45718 -4.61737,6.35029 -0.88165,0.70929 -2.07596,1.5986 -3.24522,1.01107 -3.14353,-1.25722 -5.88322,-3.33654 -8.47078,-5.48363 -2.18618,-1.89242 -4.27497,-3.97964 -5.7601,-6.47841 -0.893,-2.08969 -0.67093,-4.43253 -0.75356,-6.65273 -0.0657,-6.00501 0.16845,-12.02691 1.10619,-17.96627 0.26785,-1.76072 0.58826,-3.51442 0.99698,-5.24819 0.20547,2.58295 0.19203,5.02537 0.28972,7.59589 0.37046,5.89918 1.44793,11.79091 3.50911,17.34161 1.00954,2.74583 2.68623,5.4173 5.33203,6.83008 1.92335,1.0273 4.33593,0.59272 5.99585,-0.74316 2.78764,-2.17556 4.58848,-5.31018 6.38097,-8.29603 3.23739,-5.67809 5.99796,-11.61373 9.26226,-17.27833 2.43306,-4.2257 4.85656,-8.50535 7.99124,-12.26053 0.77279,-0.91733 1.94621,-2.08722 3.24902,-1.50636 2.0197,1.06778 3.28948,3.08289 4.61408,4.87104 2.68372,3.76382 5.74234,7.41929 9.71361,9.87548 2.34396,1.49376 5.3622,1.76314 7.94388,0.74823 4.71054,-1.74498 7.82604,-6.46957 8.4806,-11.33493 0.641,-4.84099 0.48744,-9.7406 0.5487,-14.61212 0.0163,-10.32211 -0.21004,-20.64989 -0.87554,-30.95131 -0.82993,-10.43432 -1.57478,-20.80914 -2.17801,-31.2478 -0.0857,-1.40708 -0.17258,-2.81408 -0.25752,-4.22121 -7.84475,-10.13203 -15.60856,-20.33211 -23.80078,-30.1875 -1.96488,-2.46612 -3.88708,-5.22052 -4.14228,-8.46462 -0.20503,-1.95532 -0.11304,-4.01539 -0.0163,-5.8694 0.0631,-1.27536 0.15824,-2.61544 0.29891,-3.9717 0.0951,-0.69926 0.13736,-1.53359 0.31666,-2.13568 5.19502,4.45318 10.18392,9.1493 14.98238,14.02653 0.17281,0.32678 1.17268,0.83836 0.45382,0.98726 -1.38613,0.47827 -2.31496,2.02217 -1.87956,3.46082 0.63065,2.06208 2.0876,3.73843 3.22266,5.53906 2.31137,3.38139 4.62264,6.76285 6.93359,10.14453 0.25679,-3.58024 0.64832,-7.15373 0.82031,-10.73828 -0.0496,-4.09821 -0.88752,-8.12824 -1.79593,-12.10705 -0.63911,-3.07249 -0.74995,-6.43587 0.75574,-9.28655 0.71199,-1.46206 1.63912,-2.80842 2.62613,-4.09664 1.97411,4.11358 3.49557,8.42627 5.07226,12.70313 1.0193,2.88329 2.07885,5.92797 2.99091,8.91435 -0.0272,0.42071 0.70997,1.39375 0.19999,1.46326 -1.51676,-0.0575 -2.5768,1.40939 -2.63621,2.8177 -0.20124,3.15689 0.26088,6.31005 0.42701,9.45984 0.18753,2.52331 0.33594,5.19189 0.4558,7.62805 0.037,1.93899 0.0395,3.94056 0.88426,5.73511 1.63015,3.71264 4.12706,6.9515 6.4574,10.24176 2.42156,3.26266 4.71886,6.64017 7.46694,9.64227 0.92712,1.02565 2.42972,2.00038 3.8164,1.2832 1.47691,-0.70977 1.55642,-2.56991 1.4004,-3.99414 -0.47353,-4.14264 -1.49149,-8.20027 -2.03993,-12.33331 -1.48453,-10.09154 -2.61127,-20.17094 -3.50179,-30.30938 -0.35552,-4.54442 -0.76218,-9.15121 -0.83194,-13.75417 -0.0564,-2.074 0.28182,-4.18873 1.35382,-5.99481 0.93271,-1.73386 1.92429,-3.49826 3.38702,-4.84465 0.0951,0.16796 0.19011,0.33593 0.28516,0.5039 z m -93.37109,0.28125 c 0.58891,0.0872 0.73603,0.87478 1.03713,1.29878 1.87871,4.07175 3.11914,8.39961 4.82591,12.54263 1.80387,4.61824 3.78464,9.16885 6.04559,13.58242 0.38497,0.83173 0.81628,1.65954 1.01324,2.56055 -0.80999,0.52621 -1.80779,-0.068 -2.63934,-0.27122 -1.8544,-0.64712 -3.70897,-1.29378 -5.56378,-1.93972 0.0443,4.39208 -0.0444,8.79469 0.44191,13.16778 0.59251,6.16685 1.48613,12.30072 2.16212,18.45894 2.12665,17.93821 3.97894,35.91318 6.59348,53.78902 0.4655,3.42636 1.31733,6.79978 1.47055,10.26523 0.35331,5.13463 0.30119,10.44461 0.006,15.48309 -0.1537,3.25601 -0.6725,6.53515 -2.05115,9.51481 -0.77082,1.76273 -1.57959,3.51599 -2.56216,5.23934 -0.4719,0.80834 -0.9701,1.61071 -1.59372,2.31226 0.19386,-2.95119 1.13074,-5.79938 1.23936,-8.76238 0.42265,-6.93646 -0.28733,-13.87789 -0.95029,-20.77668 -1.54586,-14.43423 -3.67065,-28.79799 -5.53638,-43.19327 -1.43472,-10.84967 -2.80041,-21.72128 -4.25011,-32.58416 -1.05756,-8.69264 -2.05446,-17.41796 -4.06172,-25.95463 -0.86263,-4.42812 -1.63537,-8.75011 -1.72794,-13.29017 -0.0499,-3.15451 1.75705,-5.88181 3.16366,-8.57195 0.6525,-1.00144 1.17186,-2.25661 2.27967,-2.82575 0.21372,-0.0587 0.43873,-0.0561 0.65821,-0.0449 z m -237.83399,0.50586 c 1.78224,0.0474 3.05678,1.61725 3.44414,3.243 0.94518,3.62621 -0.0446,7.39415 -1.22148,10.84294 -0.70725,2.38882 -1.10002,4.86346 -1.18651,7.35057 0.0404,0.58405 -0.72129,0.33286 -1.056,0.58924 -2.53722,1.13299 -4.29053,3.42082 -5.91765,5.58558 -3.24299,3.78743 -7.25316,6.82701 -11.32363,9.66786 -3.40258,2.3384 -6.97304,4.4375 -10.70567,6.20519 4.85423,-3.56422 9.35619,-7.58961 13.70018,-11.75377 3.48811,-3.42275 6.93234,-6.89008 10.40334,-10.33022 -1.15479,-2.01024 -2.52713,-3.90424 -3.52087,-6.00131 -1.76319,-4.31507 -0.86861,-9.62678 2.23109,-13.11151 1.30192,-1.42979 3.17654,-2.44189 5.15306,-2.28757 z m -118.44726,0.36524 c 1.27813,0.96106 1.95224,2.49886 2.77615,3.8302 2.00839,3.70489 3.78335,7.57919 4.86056,11.66394 0.44762,1.35526 -0.75696,2.38813 -1.40445,3.42541 -1.7844,2.44373 -1.61874,5.60721 -1.4818,8.47463 0.56374,9.13952 1.51978,18.25781 2.86561,27.31578 0.3175,1.57262 0.40445,3.24994 1.13002,4.70019 0.67947,1.26093 2.50511,1.39159 3.53125,0.47852 1.74015,-1.57509 2.79169,-3.7402 3.90106,-5.77201 1.16728,-2.3864 2.39927,-4.83012 2.77472,-7.48776 0.007,-2.42105 -0.51505,-4.81075 -0.85505,-7.20057 -0.90019,-5.928 -2.39384,-11.76 -3.02444,-17.72881 -0.3444,-2.86412 -0.0185,-5.75461 0.65288,-8.54722 0.0625,-0.75729 0.28814,-1.10372 0.75463,-0.33062 2.21202,2.72272 3.99298,5.97601 4.29752,9.52651 0.4366,4.45857 0.0716,8.9543 0.52719,13.41361 0.51049,5.69143 1.4902,11.46327 4.00469,16.64445 1.27505,2.56656 3.17938,5.0175 5.95212,6.03988 3.15361,1.40341 7.08249,1.93025 10.15072,0.0332 2.52403,-1.50718 3.61322,-4.65312 3.19794,-7.47547 -1.30865,-7.69049 -3.35792,-15.25414 -5.98979,-22.59606 -1.21032,-3.3111 -2.67651,-6.5926 -3.14693,-10.11292 1.25758,-2.2668 2.97381,-4.24424 4.71485,-6.15039 3.06227,2.64251 5.84102,5.82127 7.27734,9.65234 0.21339,0.79728 0.5988,1.74627 0.21289,2.53125 -1.26829,0.31151 -2.6021,1.02275 -2.97851,2.37305 -0.54235,1.96317 0.24252,3.97241 0.70377,5.87449 0.83627,2.955 1.87424,5.86442 2.29609,8.92033 0.64379,3.74349 1.02404,7.52912 1.20522,11.32237 0.0278,0.73678 0.062,1.76835 0.0131,2.62161 -0.0826,2.85846 -1.37836,5.55393 -3.03462,7.82956 -3.00982,3.82231 -7.80544,6.38746 -12.72283,6.2396 -2.26254,-0.0691 -4.56795,-0.95148 -5.98629,-2.77801 -1.90023,-2.19394 -3.02988,-4.91639 -3.8983,-7.653 -0.48034,-1.46897 -1.99797,-2.69345 -3.59375,-2.26953 -2.01766,0.59128 -3.1036,2.58649 -4.19336,4.22461 -1.49949,2.54283 -3.11824,5.06228 -5.26953,7.10742 -1.68531,1.89849 -1.46572,4.60803 -1.30891,6.96113 0.64394,6.62306 1.00163,13.34106 1.34797,19.93926 0.24361,5.01852 0.46397,10.04525 0.59596,15.01634 0.06,2.18914 0.0916,4.38063 0.008,6.5696 -0.0152,0.36594 -0.0588,1.14232 -0.11179,1.66235 -0.10983,1.11686 -0.29824,2.2347 -0.68899,3.29077 -0.51547,-4.68026 -0.76047,-9.38677 -1.26015,-14.06922 -0.95352,-9.71551 -2.17063,-19.40359 -3.05848,-29.12614 -0.12512,-1.27991 -0.25039,-2.55981 -0.37473,-3.83979 -3.68389,-0.86982 -7.62008,-1.17165 -10.93946,-3.14453 -3.46314,-1.99311 -5.52438,-5.59433 -7.11092,-9.13159 -1.19304,-2.34805 -1.61201,-4.98932 -1.61071,-7.60137 -0.0584,-5.05135 0.1554,-10.19327 0.29195,-15.18306 0.0489,-2.33725 0.25977,-4.67001 0.28515,-7.00586 -0.0517,-1.53347 -0.43469,-3.44529 -2.06836,-4.02734 -1.37966,-0.39618 -2.70544,0.56125 -3.32287,1.75084 -1.5745,2.9431 -2.30057,6.24383 -3.10801,9.45811 -1.76526,7.57929 -2.73321,15.35814 -5.16231,22.77402 -0.85395,2.62835 -2.16694,5.153 -4.20564,7.06 -0.74894,0.68612 -1.44702,1.59204 -2.41992,1.92773 -1.40165,-0.85073 -2.46325,-2.19681 -3.3487,-3.56013 -1.0475,-1.69378 -1.83448,-3.53361 -2.52044,-5.39885 -0.18934,-0.51411 -0.47045,-1.3372 -0.66945,-1.98169 -2.58725,-8.37582 -3.47013,-17.20908 -3.22117,-25.94995 0.43421,6.57524 1.29651,13.21036 3.57551,19.42671 0.95137,2.63775 2.38015,5.1168 4.38558,7.09541 0.95245,1.11011 2.5507,1.87081 3.96921,1.19479 1.33921,-0.70477 2.49877,-1.79475 3.3438,-3.0468 1.42416,-2.45416 1.80573,-5.32881 2.43354,-8.05473 1.08679,-5.30305 1.90486,-10.65836 3.02087,-15.95523 1.40819,-5.90309 3.46109,-11.78412 7.02138,-16.75496 1.21911,-1.55681 2.58448,-3.26334 4.56065,-3.83683 1.01095,-0.2595 2.13094,0.50333 2.1803,1.56823 0.57425,3.39801 0.0537,6.90573 -0.9008,10.18822 -2.36172,6.54766 -2.46061,13.74617 -1.1173,20.52412 0.90156,4.20553 2.32624,8.50303 5.26749,11.74286 1.46513,1.63297 3.53435,2.65261 5.71853,2.83971 1.23507,0.16957 2.84449,0.17414 3.58355,-1.0005 0.6836,-1.27455 0.33443,-2.80155 0.37297,-4.18743 -0.42461,-9.02143 -1.25997,-18.01969 -2.15947,-27.00445 -0.4609,-4.0248 -0.78467,-8.0803 -1.61434,-12.05052 -0.76701,-3.48946 -1.71091,-6.94008 -2.43757,-10.43705 -0.3923,-1.66937 0.2823,-3.30998 1.11641,-4.72616 0.41555,-0.72306 0.82813,-1.4815 1.44141,-2.05664 z m 304.9746,1.19921 c 2.83982,3.3121 4.05757,7.70219 4.52029,11.96283 0.19432,1.97703 0.19277,3.97774 -0.0613,5.94928 -0.0787,-4.1132 -1.70538,-8.20568 -4.67958,-11.0822 -1.25232,-1.26681 -2.8749,-2.78546 -2.56971,-4.75244 0.23609,-1.22243 1.09174,-2.18441 1.87038,-3.10676 0.30664,0.3431 0.61328,0.6862 0.91992,1.02929 z m 27.91602,0.72266 c 1.97485,5.28108 3.40272,10.74572 4.97288,16.15576 0.6549,2.36109 1.36607,4.71197 1.84157,7.11768 -1.56125,-0.39299 -3.12244,-0.78628 -4.68359,-1.17969 0.0242,7.02709 -0.14489,14.06423 0.39827,21.07757 0.41941,6.37862 1.38076,12.74783 2.06016,19.06939 1.18019,10.36603 2.25965,20.63382 2.6436,31.06195 0.38735,10.31578 0.34946,20.79122 0.3352,31.17582 -0.0749,7.19802 -0.0198,14.43799 -1.09027,21.5741 -0.65151,4.38275 -2.17872,8.6534 -4.70172,12.31345 -0.75496,1.14767 -1.71539,2.40998 -2.48313,3.38202 -0.90886,1.13775 -1.77034,2.17481 -2.74911,3.31005 -3.6624,4.12597 -7.17999,8.5235 -11.79972,11.63331 -4.25793,2.86201 -9.46505,3.58008 -14.44586,4.15876 -2.84082,0.32481 -5.68179,0.72549 -8.54437,0.78069 2.7707,-1.07053 5.72168,-1.62023 8.43254,-2.86142 7.70223,-3.24291 13.99861,-8.93972 19.89022,-14.72427 4.43363,-4.41256 8.98577,-8.98844 11.57443,-14.77976 2.61423,-5.85797 2.68432,-12.40994 2.65165,-18.70951 -0.20333,-11.20601 -0.89643,-22.39635 -1.54674,-33.58319 -0.76265,-11.97419 -1.50192,-23.95449 -2.72606,-35.89174 -1.86946,-16.7089 -3.76075,-33.42711 -6.56669,-50.01 -0.19478,-1.19943 -0.38957,-2.39887 -0.58435,-3.59831 2.3405,-2.54831 4.6388,-5.137 7.06445,-7.60547 l 0.0392,0.092 z m -148.61523,0.0625 c 1.32189,1.95714 1.67368,4.37416 2.06557,6.6564 0.0761,0.50758 0.14755,1.07445 0.19471,1.51924 0.0869,0.67731 0.14901,1.20379 -0.15094,0.33167 -0.97656,-2.45092 -2.48989,-4.72613 -2.96777,-7.35106 -0.10638,-0.53696 0.44882,-0.9061 0.75686,-1.26562 l 0.068,0.0733 z m -123.73829,0.58203 c 2.71015,5.66761 4.91685,11.56197 7.04321,17.46882 0.89818,2.67853 1.93248,5.34035 2.43726,8.12689 -0.10306,0.96774 -0.42757,1.91689 -0.90429,2.76367 -0.97864,-0.55886 -2.04896,-1.32117 -3.23248,-0.9004 -1.28385,0.45586 -1.73107,1.92484 -1.71271,3.17837 -0.01,4.51156 0.49864,9.00501 0.77997,13.50428 0.78978,10.5059 1.56095,21.03919 2.16522,31.50681 0.18131,2.92886 0.15782,5.94975 1.13695,8.75016 0.40427,1.2469 1.85981,2.04591 3.09547,1.48812 1.77699,-0.76129 3.3106,-2.24775 4.64062,-3.4707 0.55947,-0.52576 1.14374,-1.02766 1.78125,-1.45703 0.4509,2.73085 0.0924,5.53164 0.64331,8.25521 0.47792,2.96462 1.82958,6.07438 4.59107,7.55924 2.48533,1.42643 5.59927,0.7192 7.88362,-0.77136 3.97187,-2.56294 6.73408,-6.61692 8.71411,-10.83484 0.21374,-0.25999 0.48501,-1.48061 0.62288,-1.14225 0.40224,2.40037 0.94363,4.82547 2.22313,6.93052 1.45235,2.49373 3.80341,4.89904 6.84563,5.08961 2.29422,0.17815 4.60718,-1.13336 5.54266,-3.2541 1.42441,-3.12596 1.0456,-6.67751 0.73094,-9.99527 -0.0607,-1.20785 -0.37271,-2.49176 0.021,-3.65903 0.41313,-0.46775 0.97661,-0.76548 1.48828,-1.11133 0.9161,2.30453 0.79571,4.85143 0.82701,7.28746 -0.12146,3.73508 -0.38298,7.52619 -1.49484,11.11413 -0.98926,2.75865 -4.01431,4.60123 -6.92569,4.22409 -3.10173,-0.29464 -5.67795,-2.26561 -7.87937,-4.32141 -1.15891,-1.01728 -2.31779,-2.0346 -3.47632,-3.05231 -1.40617,1.48558 -2.6259,3.16048 -4.17292,4.50446 -2.74807,2.09701 -6.02631,3.51547 -9.42474,4.13421 -2.77905,0.40794 -5.65786,-0.47188 -7.96807,-2.00806 -0.70124,-0.4077 -1.07518,-1.10574 -1.40086,-1.81084 -0.77178,-1.37816 -2.46146,-2.49444 -4.0549,-1.86274 -1.43722,0.86077 -1.46714,2.69546 -1.57191,4.17841 -0.33739,8.06218 0.57405,16.12007 0.22177,24.1838 -0.0177,0.83494 -0.0661,1.5285 -0.10944,2.41925 -0.31888,5.80991 -1.14788,11.79317 -2.93104,17.24197 -0.25586,0.77743 -0.47881,1.41111 -0.79442,2.22435 -2.29553,6.04855 -6.27292,11.4404 -11.41237,15.37655 -5.39966,4.21676 -11.79355,6.88634 -18.16283,9.26853 -7.91465,2.834 -16.13029,5.06769 -24.5452,5.65222 -5.67772,0.353 -11.59743,-0.31044 -16.69169,-2.98785 -3.948,-2.08187 -6.59088,-5.91414 -8.37201,-9.89843 -1.44327,-3.14182 -2.62075,-6.45959 -2.84053,-9.93705 -0.12849,-1.42391 -0.18577,-2.83017 -0.22783,-4.13777 -0.1153,-5.183 -0.13224,-10.36924 -0.0391,-15.55273 0.0165,-0.49918 0.0337,-1.27515 0.0617,-1.75862 0.11389,-3.23693 0.524,-6.48551 1.5692,-9.56365 -0.95044,8.59515 -0.89451,17.43131 1.33984,25.83399 1.41563,5.23172 4.0071,10.39131 8.40188,13.73106 3.9775,3.02947 9.11772,3.83181 13.99168,3.92661 11.58688,0.27448 23.1058,-3.07479 33.13838,-8.77889 6.38922,-3.64896 12.19616,-8.37942 16.86993,-14.07383 2.57646,-3.1236 4.03836,-7.02225 4.62432,-10.99954 0.90949,-6.05457 0.9231,-12.19569 1.11494,-18.30298 0.0236,-3.3267 0.24652,-6.68656 -0.26879,-9.98708 -0.2123,-1.54446 -1.24667,-3.23268 -2.95447,-3.3042 -1.78863,-0.0913 -3.25612,1.17298 -4.60927,2.17557 -1.84277,1.53088 -2.04508,4.09859 -2.04542,6.32845 0.0512,3.31822 0.26344,6.67783 -0.47256,9.94504 -0.81455,4.00717 -2.50314,7.82606 -4.97307,11.08865 -3.44033,4.64872 -7.81478,8.53952 -12.53434,11.85075 -0.93181,0.64881 -2.09076,1.4161 -3.14471,2.05836 -5.62614,3.40839 -11.78004,6.22298 -18.35334,7.09398 -3.28892,0.43419 -6.76945,0.0959 -9.68986,-1.57497 -4.44853,-2.41827 -8.08546,-6.37045 -10.0622,-11.03814 -1.15639,-3.07774 -0.97708,-6.43443 -1.06106,-9.66619 -0.0477,-3.9996 0.0868,-8.00581 0.57288,-11.97851 -0.0339,6.02091 1.15034,12.21956 4.47622,17.32886 1.84457,3.02911 4.5293,5.77613 8.04225,6.72975 4.25154,1.18444 8.84078,0.86841 13.00258,-0.53355 6.81688,-2.26959 12.85736,-6.37573 18.35044,-10.92762 3.53912,-3.05285 7.151,-6.16962 9.71085,-10.12657 1.67399,-2.54617 2.44125,-5.61568 2.29808,-8.65017 0.11502,-1.44764 -0.46141,-3.15963 -1.98263,-3.61345 -1.81445,-0.53023 -3.67988,0.22241 -5.44668,0.62542 -3.34437,0.86717 -6.61783,2.02442 -10.00722,2.70616 -1.92444,0.37771 -3.59169,-0.9159 -5.27025,-1.62887 -0.61192,-0.29876 -1.22383,-0.59753 -1.83575,-0.89629 -0.0947,-3.82554 -0.33025,-7.57536 -0.27933,-11.37482 0.0294,-3.55994 0.58738,-7.27621 2.67191,-10.25799 1.46903,-2.06761 3.11755,-4.06157 5.12503,-5.62882 1.18061,-0.96627 2.85443,-1.31191 4.26237,-0.64005 2.71999,1.20547 4.8853,3.33679 7.00887,5.36489 2.33507,2.33574 4.5838,4.80935 6.19772,7.712 0.65495,1.06004 1.30982,2.12012 1.96461,3.18026 2.72344,-1.44418 5.54516,-2.71335 8.19531,-4.28906 1.49421,-0.87489 2.41204,-2.56899 2.27344,-4.30274 -0.10265,-1.8988 -0.46189,-3.83014 -0.62312,-5.63903 -0.64627,-6.00583 -1.0737,-12.03269 -1.79148,-18.0312 -1.57186,-14.41408 -3.53452,-28.84448 -4.88867,-43.21332 -0.23662,-2.71461 -0.43334,-5.65925 -0.70119,-8.46221 -0.15906,-2.09909 -0.49705,-4.18129 -0.6539,-6.26204 0.009,-1.89975 1.57054,-3.25828 2.66198,-4.6418 0.73345,-0.81525 1.49007,-1.62757 2.39481,-2.25626 0.0794,0.15234 0.15886,0.30469 0.23828,0.45703 z m -31.15234,0.9668 c -0.0328,0.39935 0.70878,1.20191 -0.0145,1.13498 -0.4314,0.0463 -0.90412,0.27793 -1.25112,0.43338 0.45627,-0.51889 0.87353,-1.07229 1.24609,-1.6543 z m 87.62305,0.0937 c -2.10397,0.16195 -3.4231,2.17592 -4.12305,3.96875 -0.76124,1.90616 -0.91988,4.39737 0.65039,5.94922 1.11304,1.17363 3.13131,0.8856 4.06091,-0.37187 1.2997,-1.6271 1.84346,-3.73093 2.16565,-5.75313 0.21954,-1.42714 -0.2859,-3.21931 -1.8125,-3.67383 -0.29314,-0.11924 -0.62901,-0.13135 -0.9414,-0.11914 z m -81.55078,3.25391 c -0.44393,0.65712 -1.52695,0.90353 -2.21289,0.50195 -0.36775,-0.53416 0.64145,-0.13399 0.93705,-0.30529 0.47161,-0.064 0.9373,-0.20071 1.36177,-0.41737 -0.0286,0.0736 -0.0573,0.14714 -0.0859,0.22071 z m -10.11328,0.3164 c -0.21344,0.2856 -1.43958,0.31795 -1.08452,0.22282 0.24245,0.0597 1.39818,-0.4106 1.08452,-0.22282 z m 442.70507,3.1543 c 1.88304,3.60397 2.88669,7.59808 3.66421,11.5677 0.63063,3.56935 1.02389,7.20488 0.82993,10.83269 -0.90164,-5.6199 -2.64393,-11.11813 -5.30388,-16.15754 -0.50796,-1.10755 -1.25909,-2.39913 -0.56733,-3.60166 0.39692,-0.90301 0.81896,-1.85565 1.37707,-2.64119 z m -150.02929,32.8457 c 0.01,1.83171 -0.73874,3.70599 -2.25782,4.79688 -0.57742,-0.24108 -1.15955,-0.59167 -1.67382,-0.88867 2.121,-0.58057 3.24042,-2.7218 3.91601,-4.64844 0.005,0.24674 0.0104,0.49349 0.0156,0.74023 z m 84.51953,0.59961 c 1.09039,1.1206 1.65385,2.64776 2.25763,4.06567 0.40653,0.67427 -0.61257,0.20742 -0.9791,0.21544 -1.56848,-0.32176 -3.52524,-0.68334 -4.75705,0.62709 -0.2941,0.19006 -0.60741,0.9752 -0.68677,0.92757 -0.0443,-1.8767 1.41832,-3.23147 2.55961,-4.53232 0.47945,-0.48693 0.9697,-1.02448 1.60568,-1.30345 z m -92.0586,0.85156 c 0.0323,0.32358 0.70571,1.05488 0.4159,1.06694 -0.28035,-0.20204 -1.37203,0.27119 -0.96891,-0.26133 0.20279,-0.16181 0.41146,-1.41085 0.55301,-0.80561 z m -5.22656,2.33008 c 0.42314,0.31941 0.91318,0.58485 1.44922,0.62891 -0.34192,0.18373 -0.96509,1.12252 -1.12535,0.37783 -0.0941,-0.25217 -0.41298,-0.9651 -0.32387,-1.00674 z m 80.56055,3.4707 c 1.92392,2.071 3.11851,4.68544 4.45027,7.15027 -0.11124,-0.0615 -0.62908,-0.70474 -0.98597,-0.89613 -1.22302,-0.95286 -2.98434,-0.57449 -4.03989,0.45001 -0.42155,0.34665 -0.16831,-0.87612 -0.24968,-1.22834 0.0331,-1.86742 0.16872,-3.76385 0.73347,-5.55393 l 0.0762,0.0648 z m -281.70508,4.75977 c -0.20782,1.97701 0.65948,4.17944 2.55624,5.02553 2.24636,1.17785 4.96194,0.51126 7.02189,-0.75014 -1.68566,2.08064 -4.44903,3.47256 -7.15171,2.97379 -1.04468,-0.2174 -1.45369,-1.36309 -2.01822,-2.14176 -0.99516,-1.63278 -0.9857,-3.67032 -0.37695,-5.4375 -0.0104,0.11003 -0.0208,0.22005 -0.0312,0.33008 z m 291.70313,11.21484 c 0.51705,0.32303 1.03938,0.42127 1.57226,0.0703 0.67757,-0.42534 0.26118,0.72655 0.33614,1.12013 -0.0316,0.73585 -0.10033,1.47181 -0.2463,2.19432 -0.68038,-1.12398 -1.25566,-2.30686 -1.86328,-3.4707 0.0671,0.0286 0.13412,0.0573 0.20118,0.0859 z m -235.45704,5.8086 c 3.53053,7.51472 6.609,15.2381 9.42634,23.04612 1.77362,4.7807 3.00728,9.73451 4.0755,14.71382 1.6551,7.31284 2.84177,14.71753 4.20428,22.0872 1.20221,5.97481 2.30673,12.05505 4.80888,17.65211 1.85874,4.23799 5.1652,7.71866 9.06909,10.14889 3.15038,1.99046 6.57734,3.48645 10.08137,4.73221 1.69958,0.64554 3.39889,1.2918 5.09822,1.93801 -0.2976,-3.01383 -0.7655,-6.01458 -0.94666,-9.0375 -0.0978,-4.58597 2.36943,-8.83836 5.65468,-11.88213 3.11786,-3.00932 7.01984,-4.98312 10.86219,-6.89188 1.15231,-0.58769 2.30476,-1.17512 3.45713,-1.76271 -2.29424,-1.44114 -4.4816,-3.06171 -6.84967,-4.37968 -4.08188,-1.95499 -8.61274,-2.70218 -13.06335,-3.28702 -5.02921,-0.65286 -10.10581,-0.65877 -15.1675,-0.71491 -1.82698,-0.12104 -3.76594,-0.001 -5.47026,-0.76488 -0.51689,-0.48232 -0.18011,-1.34042 -0.15271,-1.95983 0.82599,-3.88824 1.91182,-7.99217 4.76726,-10.92281 1.49793,-1.52311 3.47095,-2.44108 5.32685,-3.44353 0.32374,-0.15072 1.04543,-0.51118 1.52149,-0.74219 8.46464,-3.97382 17.37595,-6.86707 26.26347,-9.72252 1.31242,-0.4882 2.74198,-0.80187 3.93631,-1.51575 0.67327,-0.70106 0.84285,-1.74411 0.45009,-2.63252 -0.63366,-1.77688 -2.19948,-3.1153 -2.4462,-5.04965 -0.64807,-3.79249 0.56643,-7.64308 2.24319,-11.01519 1.78381,-3.37272 4.26682,-6.63541 7.79728,-8.29288 1.96253,-0.91806 4.25655,-0.83401 6.23437,-0.008 3.55696,1.41754 7.00804,3.13407 10.24219,5.1875 2.84233,1.89823 5.77165,4.22012 6.85274,7.59829 0.98254,3.24845 -0.41682,6.62925 -2.13774,9.36093 -2.23555,3.11598 -5.36043,5.48668 -8.6097,7.46459 -1.75558,1.05192 -3.6489,1.85415 -5.62483,2.38087 -1.2615,0.49317 -2.4954,1.34814 -3.02344,2.64063 -1.82405,-0.27436 -3.61894,0.42861 -5.36643,0.86197 -7.13307,2.15412 -14.10143,4.8319 -20.95137,7.75707 -2.37656,1.11455 -4.89875,2.04596 -6.98494,3.67258 -0.86746,0.65472 -0.92991,1.78196 -1.1914,2.74939 0.82934,0.52663 1.61263,1.23635 2.6578,1.18615 5.72089,0.28104 11.45419,0.20161 17.18087,0.22428 13.4288,0.0183 26.85522,-0.30528 40.28358,-0.32713 3.00614,0.07 6.05823,-0.0421 9.01311,0.59601 0.68081,0.0497 -0.0289,0.79246 -0.0899,1.15583 -1.06612,2.03139 -2.00602,4.13176 -3.13917,6.1258 -1.0159,1.50337 -2.97481,1.77761 -4.58267,2.28106 -3.06322,0.7824 -6.03748,1.36729 -9.16006,2.04261 -9.69933,2.08746 -19.20745,4.99333 -28.56707,8.26729 -4.21854,1.55604 -8.50187,3.03424 -12.44778,5.21594 -2.30161,1.39661 -4.20386,3.67532 -4.78734,6.34154 -0.44973,2.92338 1.30446,5.62115 3.2283,7.65091 3.39938,3.54086 7.85823,5.853 12.44305,7.46995 1.39531,0.63062 3.01552,1.10913 3.97904,2.37328 0.53146,1.29479 -0.0921,2.70774 -0.41012,3.98351 -0.47753,1.46608 -0.94834,3.39026 -2.65341,3.84502 -2.42536,0.56967 -4.9355,0.0419 -7.36129,-0.27267 -9.79613,-1.56216 -19.61717,-4.48447 -27.79141,-10.27395 -6.1585,-4.30025 -11.04407,-10.26283 -14.45578,-16.92736 -1.43544,-2.68788 -2.87073,-5.37583 -4.3065,-8.06353 -3.46105,4.37223 -6.7561,8.87912 -10.37264,13.1259 -5.50536,6.28988 -11.4834,12.19112 -18.01682,17.41266 -2.76883,2.2188 -5.77525,4.23893 -9.20396,5.27276 -4.85959,1.53346 -10.13197,2.06807 -15.14487,0.99922 -3.80263,-0.7729 -7.0563,-3.43677 -8.81445,-6.86132 -1.2053,-2.18164 -1.66786,-4.64746 -2.10708,-7.07087 -0.3958,-1.50848 -0.71314,-3.38155 -2.21214,-4.18363 -1.18044,-0.49933 -2.37497,0.22852 -3.49332,0.59175 -3.55847,1.4218 -7.04015,3.03391 -10.65899,4.30463 -8.40513,3.07782 -16.87668,5.98225 -25.43862,8.59444 9.46158,-5.15426 18.84683,-10.45644 28.07328,-16.02025 3.79087,-2.36073 7.61173,-4.72285 11.03804,-7.60084 1.55204,-1.32781 2.97991,-2.99977 3.28118,-5.08893 1.40938,-5.03391 3.40872,-9.88272 5.51179,-14.66107 -0.0321,2.7145 -0.41768,5.46903 0.0937,8.1582 0.25172,1.49997 1.65735,2.7707 3.2206,2.53497 1.75034,-0.33356 3.12628,-1.60416 4.5446,-2.6006 5.33227,-4.18756 10.34455,-8.78206 15.06979,-13.6421 1.92375,-2.04542 3.99809,-4.13236 4.84275,-6.88797 1.268,-3.58553 0.80836,-7.55391 -0.52522,-11.05105 -2.07937,-5.65738 -4.7213,-11.11755 -7.89604,-16.2418 -1.04118,-1.60365 -2.14229,-3.25711 -3.78258,-4.30303 -0.45349,-0.41093 -0.98718,-1.00484 -0.62247,-1.65181 0.99033,-3.28814 2.47787,-6.42219 4.22132,-9.37507 0.22724,-0.77536 0.74416,-0.48669 1.19781,-0.0531 3.72784,2.9689 6.61574,6.85217 9.13408,10.86339 0.33529,0.55304 0.67523,1.10655 0.94497,1.69528 -1.51202,0.30259 -3.07996,1.33517 -3.24219,2.99219 -0.13956,1.61262 0.89166,2.99638 1.31146,4.49555 2.54256,7.17285 3.88378,14.88409 3.13594,22.49395 -0.36366,3.73505 -1.45083,7.45331 -3.61555,10.55529 -3.76898,5.60072 -8.48716,10.49941 -13.45162,15.04657 -3.23571,2.96482 -6.7487,5.61005 -10.43687,7.98481 -2.09188,1.51806 -4.46773,2.93806 -5.71066,5.29307 -1.31725,2.71546 -0.28864,5.94477 1.43137,8.23232 1.567,2.08769 3.87764,3.72766 6.5332,3.9668 4.24753,0.43473 8.57414,-0.0265 12.69009,-1.12977 5.19461,-1.71617 9.71724,-4.97405 13.85242,-8.48021 8.49244,-7.35699 15.45201,-16.3704 21.02436,-26.09869 0.59685,-1.00987 1.19381,-2.01968 1.79055,-3.02961 -1.81758,-6.63672 -3.61608,-13.2804 -5.72988,-19.83069 -2.83619,-9.26203 -6.16303,-18.36967 -8.81227,-27.6901 -0.50574,-1.96345 -1.17976,-3.91116 -1.39925,-5.93038 0.43476,-2.66358 1.58878,-5.15133 2.72532,-7.57922 0.29586,-0.58901 0.60432,-1.17162 0.93288,-1.74305 0.222,0.44336 0.44401,0.88672 0.66601,1.33008 z m 253.57813,8.9375 c 0.008,1.06743 0.40294,2.41528 -0.5957,3.17773 -2.43245,2.05532 -5.35204,3.41085 -8.03267,5.10144 -3.28656,1.98165 -6.53175,4.03343 -9.71733,6.17395 5.67718,-4.35836 11.27563,-8.82797 16.58969,-13.62559 0.54023,-0.45587 1.10012,-0.89112 1.69546,-1.27284 0.0202,0.14843 0.0404,0.29687 0.0606,0.44531 z m -202.08789,0.51953 c 0.3906,1.58754 0.14625,3.40383 -1.07002,4.58312 -1.00848,1.10321 -2.9694,1.88154 -4.20162,0.68536 -0.4101,-0.34028 0.68568,0.37279 0.98414,0.29964 1.64885,0.31728 3.03953,-1.09503 3.45386,-2.58478 0.41108,-1.19682 0.56552,-2.46217 0.69106,-3.71576 0.0475,0.24414 0.0951,0.48828 0.14258,0.73242 z m -8.75195,0.25 c 0.72263,1.55227 1.45403,3.16841 2.69531,4.38476 -1.33263,-0.95361 -3.19052,-0.43673 -4.20002,0.7469 -1.11342,1.05538 -1.74836,2.62383 -3.10467,3.40154 -1.14747,-0.67283 -1.98891,-1.82328 -2.60276,-2.98909 -0.41129,-0.78616 0.26638,0.20706 0.57366,0.3358 1.78846,1.37062 4.5918,0.43751 5.46819,-1.56849 0.7391,-1.46054 0.82349,-3.12824 0.97888,-4.72744 0.0638,0.13868 0.1276,0.27735 0.19141,0.41602 z m -4.60743,8.5332 -0.0176,-0.004 z m 37.2168,-7.31054 c -1.73385,0.0394 -3.12103,1.5462 -3.28516,3.22656 -0.31057,2.72563 0.47011,5.41796 0.81269,8.10476 0.13646,0.85378 0.27331,1.7075 0.40997,2.56125 4.36301,-0.81486 8.85927,-1.19222 13.03546,-2.7831 1.40665,-0.53526 3.07781,-1.56185 3.03485,-3.26377 0.007,-1.60117 -1.59934,-2.39805 -2.77076,-3.14454 -2.84581,-1.65362 -5.74304,-3.28721 -8.86596,-4.35937 -0.76583,-0.23165 -1.56751,-0.39742 -2.37109,-0.34179 z m -240.92969,5.12304 c 0.15034,0.87445 0.36222,1.85026 0.2793,2.68946 -5.39059,1.81899 -10.60931,4.10842 -15.81538,6.39296 -3.35673,1.48675 -6.64366,3.12659 -9.86626,4.88438 3.65083,-3.02435 7.34124,-6.08089 11.58814,-8.24367 4.26244,-2.23415 8.63714,-4.33352 13.25894,-5.71389 0.14439,0.0286 0.57795,-0.28426 0.55526,-0.009 z m 40.16993,3.04492 c -1.61467,-0.0363 -3.06378,1.17385 -3.38178,2.74541 -0.51544,2.36671 -0.60644,4.854 -0.1944,7.24483 0.34091,1.91203 2.28803,2.96585 4.07791,3.13214 3.06214,0.38258 6.14815,-0.57491 8.72983,-2.19581 1.08945,-0.60448 2.17895,-1.20886 3.26844,-1.81328 -1.91976,-2.0307 -3.68851,-4.21088 -5.7168,-6.13477 -1.89743,-1.59892 -4.18258,-3.14908 -6.7832,-2.97852 z m 374.38671,9.05079 c 2.63778,2.82219 4.65632,6.32478 5.26008,10.1749 0.31069,1.60624 0.0262,3.27759 -0.80305,4.68838 -0.008,-0.31274 0.0929,-0.97537 0.12305,-1.41016 0.22673,-1.99411 -0.15558,-4.13047 -1.52444,-5.66703 -1.57248,-1.99529 -3.84432,-3.40303 -5.10837,-5.64156 -0.34169,-0.74627 0.5585,-1.31795 0.97693,-1.81049 0.37554,-0.23737 0.73146,-1.05844 1.0758,-0.33404 z M 465.3457,328.02344 c 1.21398,0.20896 2.3171,1.06915 2.63667,2.29109 0.63984,1.81341 0.7602,3.76553 0.72466,5.67375 -0.49324,-1.4695 -2.14124,-2.0684 -3.57961,-1.98029 -0.87093,0.0236 -2.23268,-0.009 -2.31687,-1.15252 -0.0821,-1.55785 0.53533,-3.13797 1.48242,-4.35742 0.26617,-0.29568 0.63759,-0.53504 1.05273,-0.47461 z m -131.04297,24.03125 c -0.51906,3.03429 -1.50951,5.97329 -1.84434,9.04301 -0.50681,4.12378 -0.71676,8.39896 0.37347,12.44921 0.58519,2.01333 1.89856,3.90155 3.75603,4.91989 1.72987,0.91516 3.81972,0.12409 5.08226,-1.21493 0.79892,-0.74864 1.44769,-1.63501 2.11501,-2.49796 -0.32064,2.82006 -1.2406,5.65124 -2.95357,7.93897 -1.15378,1.44528 -3.04773,2.76966 -4.97026,2.10009 -2.03255,-0.77789 -3.66357,-2.67454 -3.95368,-4.8586 -0.41914,-2.39351 -0.47525,-4.82999 -0.61468,-7.25078 -0.0297,-0.87495 -0.0837,-2.03562 -0.0966,-3.02215 -0.0929,-4.10523 0.22123,-8.2619 1.51379,-12.18345 0.54738,-1.91596 1.10912,-3.82783 1.64331,-5.74752 -0.0169,0.10807 -0.0339,0.21614 -0.0508,0.32422 z m 290.91602,19.94726 c 0.15313,0.3552 -0.11628,1.02432 -0.17224,1.49213 -0.51487,2.61604 -1.60184,5.18079 -1.46057,7.88483 0.17885,2.3216 2.39937,4.37681 4.77344,4.02148 2.76228,-0.3833 5.27627,-1.70052 7.8314,-2.74337 0.2755,-0.0877 1.61228,-0.76781 1.06534,-0.38856 -3.0837,2.16481 -6.37414,4.12493 -9.96235,5.32075 -1.51305,0.49805 -3.2968,0.21877 -4.55127,-0.75819 -0.66951,-1.09562 -0.40257,-2.48304 -0.3784,-3.70799 0.13691,-2.34081 0.7746,-4.75959 0.0988,-7.06639 -0.2483,-0.81166 -0.93308,-1.50212 -1.64453,-1.83008 1.40555,-0.83936 2.81908,-1.75922 4.40039,-2.22461 z m 173.81445,1.0293 c 0.93048,0.057 1.90987,0.14195 2.75,0.55859 -0.84796,2.36945 -2.40596,4.53154 -2.65234,7.08594 -0.14846,1.57866 1.12066,3.0132 2.66797,3.19922 0.88404,0.19333 1.81179,0.041 2.6875,0.22656 -1.66462,2.12918 -4.32301,3.13907 -6.83399,3.89063 -1.4168,0.38197 -2.86835,0.8202 -4.35156,0.71875 1.14178,-2.31869 3.47387,-3.76249 4.7107,-6.02698 1.07766,-1.64124 1.10299,-3.91221 -0.1189,-5.48669 -0.90344,-1.32848 -2.34316,-2.22452 -3.44336,-3.30469 1.34126,-0.80576 3.0582,-0.86979 4.58398,-0.86133 z" />
      <path
         style="fill:#fc0000"
         d="M 0,99 V 0 h 600 600 v 99 99 H 600 0 Z"
         id="path30" />
      <path
         style="fill:#008300"
         d="m 0,499 v -98 h 600 600 v 98 98 H 600 0 Z"
         id="path28" />
      <path
         style="fill:#030303"
         d="m 489.65519,392.54135 c -2.11465,-0.75397 -4.90424,-2.36615 -6.1991,-3.5826 C 481.07458,386.72144 478,379.25833 478,375.71487 c 0,-1.16932 -0.49221,-1.71259 -1.25,-1.37964 -14.54764,6.39172 -44.45118,16.32867 -45.5562,15.13833 -0.38159,-0.41105 -0.2279,-0.91606 0.34152,-1.12224 3.09191,-1.11951 30.21123,-16.38871 37.68358,-21.21726 l 8.7189,-5.63406 2.47062,-7.5 c 1.35884,-4.125 3.51034,-9.75 4.7811,-12.5 l 2.31048,-5 0.29044,8.25 c 0.15975,4.5375 0.64494,8.25 1.07821,8.25 1.71366,0 19.95434,-15.97752 21.97702,-19.25029 3.47428,-5.62151 2.89233,-10.87857 -2.4103,-21.77341 -2.51055,-5.1582 -5.43555,-9.98855 -6.5,-10.73412 C 500.87092,300.49661 500,298.79915 500,297.47005 500,294.16803 504.08712,286 505.73939,286 c 1.70982,0 8.65682,7.47717 10.98255,11.8207 1.70779,3.18946 1.7066,3.37334 -0.0302,4.65286 -1.73488,1.27809 -1.71501,1.63043 0.48946,8.6793 3.21278,10.27298 3.15507,21.48447 -0.14592,28.34714 -2.94002,6.11223 -17.26867,20.78738 -25.28525,25.89672 -5.13115,3.27032 -5.75,4.0262 -5.75,7.02322 0,7.81772 8.29054,10.72514 19.04235,6.67798 9.9963,-3.76278 23.60525,-16.79624 31.82735,-30.48145 4.06714,-6.76952 4.32427,-5.18975 -6.01125,-36.93145 l -7.10325,-21.81498 2.76101,-6.49641 c 1.51855,-3.57303 3.10263,-6.13128 3.52017,-5.68502 1.40541,1.50209 9.71114,21.74017 12.23463,29.81139 2.76334,8.83839 4.89709,18.85976 7.23927,34 2.57753,16.66164 7.50504,24.42746 18.73337,29.52409 6.39734,2.9038 6.75635,2.7139 6.75635,-3.57375 0,-3.05231 0.65201,-6.81051 1.44892,-8.35156 1.85906,-3.59503 7.96393,-8.95551 12.22835,-10.7373 1.8275,-0.76357 3.32273,-1.79214 3.32273,-2.28569 0,-0.49356 -2.06524,-1.89714 -4.58942,-3.11908 -3.588,-1.73692 -7.57021,-2.43262 -18.25,-3.18833 -7.51332,-0.53165 -14.16783,-1.25952 -14.7878,-1.61751 -1.51143,-0.87272 0.92191,-10.35161 3.63577,-14.16288 2.17589,-3.05576 9.40385,-6.37761 27.29474,-12.54421 8.80135,-3.03364 10.6794,-4.02202 10.13475,-5.33372 -2.80656,-6.75909 -2.28861,-12.21832 1.76908,-18.6461 3.37328,-5.34364 4.99323,-6.54702 9.65507,-7.1723 7.49662,-1.00551 20.81809,7.17953 23.14116,14.2185 0.94122,2.8519 0.80974,4.1125 -0.80311,7.70002 -2.44318,5.4345 -5.13866,7.88007 -12.95024,11.74953 -3.4375,1.70277 -6.25,3.58852 -6.25,4.19056 0,0.77184 -0.40426,0.75912 -1.37093,-0.0431 -1.05927,-0.87912 -4.29877,0.0345 -14.25,4.01875 -7.08349,2.83608 -13.9657,5.86831 -15.29381,6.73827 l -2.41474,1.58177 3.91474,0.84009 c 2.17181,0.46607 17.47521,0.38506 34.37242,-0.18194 16.75172,-0.56212 30.6188,-0.86091 30.81572,-0.66399 0.19693,0.19693 -0.13694,2.19629 -0.74193,4.44304 -1.91484,7.11119 -4.22573,8.68659 -16.15658,11.01442 -11.78215,2.29882 -36.665,10.19317 -41.45318,13.15147 -4.45472,2.75228 -5.82463,6.27116 -3.89446,10.0037 1.82909,3.53707 7.38028,7.32451 13.23463,9.02966 5.69622,1.65911 6.40741,2.69861 5.12027,7.48406 -1.75457,6.52328 -2.59739,6.92684 -11.76024,5.63104 -11.0625,-1.56444 -19.43243,-4.59218 -27.48668,-9.94303 -7.1741,-4.76612 -14.4577,-13.35602 -16.78708,-19.79783 -0.68746,-1.90113 -1.58363,-3.4566 -1.99148,-3.4566 -0.40786,0 -4.17287,4.26618 -8.36669,9.48041 -10.88814,13.53734 -20.23806,21.16444 -30.10786,24.56015 -6.62926,2.2808 -10.39803,2.40081 -15.72693,0.50079 z M 611.5,303.45454 c 5.57292,-1.18969 6.50004,-1.58594 6.48559,-2.77193 C 617.96736,299.18589 608.6658,294 605.99948,294 c -1.59196,0 -1.9967,0.6624 -1.98583,3.25 0.0221,5.26691 1.03641,7.86456 2.86031,7.32553 0.89432,-0.2643 2.97604,-0.76875 4.62604,-1.12099 z m 50,89.78004 c 0.55,-0.54614 2.8,-1.55154 5,-2.23424 8.69636,-2.69862 16.0702,-7.54714 25.077,-16.48889 12.38123,-12.29182 13.87169,-15.56332 13.90069,-30.51145 0.0649,-33.43307 -5.34199,-93.40529 -11.04787,-122.5416 -0.51263,-2.61767 0.0442,-3.7327 3.99512,-8 5.51871,-5.96066 5.32753,-6.14167 9.52479,9.01767 3.65298,13.19354 3.8101,15.00094 1.18175,13.5943 -1.02768,-0.55 -2.07227,-0.79624 -2.32132,-0.5472 -0.82377,0.82377 0.18003,21.76858 1.65234,34.47683 2.92473,25.2449 3.8319,38.96706 3.93355,59.5 0.11184,22.59419 -0.7293,28.99317 -5.00952,38.10968 -3.30317,7.03546 -17.14599,21.66586 -22.61832,23.90516 -4.77894,1.95556 -25.01168,3.45095 -23.26821,1.71974 z m 69.44797,-7.35754 c -6.99845,-5.82417 -9.89306,-11.06974 -9.92601,-17.9878 -0.0241,-5.05817 3.7119,-24.90535 4.93131,-26.1972 0.41946,-0.44438 0.99955,4.28062 1.2891,10.5 0.72373,15.54527 4.79505,25.80796 10.2383,25.80796 3.06153,0 5.66969,-3.21905 10.53294,-13 9.49933,-19.10502 15.57238,-28 19.11702,-28 0.96604,0 3.24435,1.87801 5.06291,4.17335 7.5007,9.46723 10.35132,11.82665 14.28881,11.82665 2.87329,0 4.46795,-0.7503 7.02114,-3.30349 4.32623,-4.32623 5.00378,-9.70911 4.11552,-32.69651 -0.68813,-17.80813 -0.81625,-19.76444 -2.77318,-42.34292 l -1.11312,-12.84292 -10.61635,-13.51119 C 765.00002,225.24672 766,227.04923 766,217.44983 c 0,-4.69952 0.45425,-8.61254 1.04196,-8.97576 C 768.30959,207.69063 786,224.77996 786,226.78796 c 0,0.85673 -0.59882,1.19623 -1.5,0.85041 -0.825,-0.31658 -1.5,-0.0602 -1.5,0.56983 0,1.55373 7.11439,11.7918 8.19407,11.7918 1.08577,0 0.003,-12.56054 -1.40288,-16.26887 -1.43289,-3.78047 -0.44303,-10.00697 2.17547,-13.6843 2.47341,-3.47359 3.56764,-3.80058 4.33973,-1.29683 0.29681,0.9625 2.07828,5.8 3.95882,10.75 1.88053,4.95 3.73276,10.27341 4.11605,11.82979 0.62075,2.5206 0.47478,2.75929 -1.33592,2.1846 -1.96916,-0.62499 -2.0161,-0.3535 -1.49912,8.67021 0.88055,15.36962 0.8169,15.18211 8.93679,26.32415 9.17425,12.5888 10.07109,13.31764 9.09886,7.39439 -2.7628,-16.83226 -3.73254,-24.43164 -5.07325,-39.75636 -0.83499,-9.54426 -1.75715,-17.73989 -2.04924,-18.2125 -0.67405,-1.09064 3.86693,-10.13028 5.96251,-11.86946 1.36352,-1.13162 1.77372,-0.8409 3.01912,2.13975 2.28816,5.47634 7.61579,26.89451 6.95556,27.96279 -0.32938,0.53294 -1.22835,0.72743 -1.99772,0.4322 -1.73052,-0.66406 -1.86172,7.45415 -0.3903,24.15044 0.5453,6.1875 1.42587,16.22304 1.95683,22.3012 l 0.96539,11.05121 10.62315,15.54622 c 13.68711,20.0301 16.44425,25.78663 16.44529,34.3355 l 7.9e-4,6.48413 -4.07835,-6.98413 c -4.895,-8.38261 -19.11538,-28.45431 -20.17165,-28.47175 -0.4125,-0.007 -0.78458,6.40012 -0.82685,14.23762 -0.0445,8.24843 -0.59678,15.93465 -1.31136,18.25 -1.14635,3.71439 -1.28411,2.92895 -1.92926,-11 -0.38213,-8.25 -1.31525,-18.91798 -2.07361,-23.70662 -1.36925,-8.64603 -1.44328,-8.79567 -10.63584,-21.5 -5.09135,-7.03636 -9.41811,-12.98088 -9.61504,-13.21005 -1.27147,-1.47966 -1.24913,3.10535 0.10982,22.53155 2.18783,31.27525 2.17716,46.73604 -0.0361,52.38512 -2.57843,6.58103 -5.11304,9.79678 -9.4761,12.02264 -4.9018,2.50071 -7.52345,2.48513 -14.39418,-0.0855 -4.11206,-1.53852 -6.78752,-3.49221 -10.52524,-7.68584 l -5.01165,-5.62295 -2.49058,2.33978 c -1.36982,1.28688 -5.4153,8.25277 -8.98995,15.47976 C 747.72249,383.23917 742.11579,391 738.97399,391 c -1.02859,0 -4.64029,-2.30533 -8.02602,-5.12296 z M 368,388.52469 c -5.05336,-1.64386 -9.21799,-5.11176 -11.54668,-9.61497 C 353.92936,374.02894 351,361.14665 351,354.92801 c 0,-6.43963 2.11185,-18.35901 4.3281,-24.42801 1.38539,-3.79377 1.45325,-3.22662 1.3163,11 -0.16655,17.30128 0.91455,22.45646 5.94082,28.32853 4.75178,5.55138 9.24046,7.40358 17.80006,7.34499 12.30622,-0.0842 27.42061,-5.53458 38.93343,-14.03959 11.44119,-8.4521 12.89512,-12.00609 13.45278,-32.88393 0.23873,-8.9375 0.14046,-16.25 -0.21838,-16.25 -0.35884,0 -1.94342,0.6676 -3.5213,1.48355 -2.80005,1.44796 -2.8665,1.66984 -2.77041,9.25 0.19642,15.49589 -7.80621,26.07084 -27.03033,35.71875 -7.68645,3.85756 -14.6785,5.24915 -20.69924,4.11965 -4.09865,-0.76891 -10.83631,-6.32628 -13.19143,-10.88058 -3.36628,-6.50966 -3.48112,-20.00723 -0.27177,-31.94137 1.29974,-4.83314 2.98345,-4.91477 1.89571,-0.0919 -2.08681,9.25268 1.26391,22.31442 7.17625,27.97434 2.60177,2.4907 3.75358,2.86333 8.76403,2.83529 8.70243,-0.0487 17.50899,-4.76735 27.84538,-14.91987 8.02468,-7.88192 8.25,-8.2322 8.25,-12.82554 C 419,322.12504 418.84545,320 418.65655,320 c -0.1889,0 -2.95934,0.9 -6.15655,2 -6.55637,2.25572 -11.59614,2.54496 -14.81574,0.8503 -3.30591,-1.7401 -3.65236,-2.74419 -3.66895,-10.63354 -0.012,-5.73309 0.49572,-8.28716 2.3857,-12 6.53669,-12.84122 14.6981,-12.43096 24.0938,1.21117 l 3.66347,5.31921 3.91261,-2.12357 c 3.69334,-2.00456 3.91308,-2.38759 3.92086,-6.8346 0.008,-4.44735 -2.12049,-24.37136 -5.47868,-51.28897 -0.8234,-6.6 -1.50069,-14.33321 -1.50508,-17.1849 -0.004,-2.8517 -0.45647,-6.36449 -1.00461,-7.8062 -0.73114,-1.92305 -0.62326,-3.33887 0.40499,-5.3151 1.6455,-3.16255 6.34424,-7.77452 7.12517,-6.99359 0.29779,0.29778 2.78603,6.78706 5.52944,14.42061 3.9922,11.10835 4.78755,14.32837 3.98395,16.12918 -1.0689,2.39533 -2.52661,2.90091 -3.55701,1.23369 -1.23155,-1.99269 -2.65986,0.29924 -2.1069,3.38083 0.30944,1.72451 1.29027,14.16048 2.17961,27.63548 0.88934,13.475 1.80831,24.69424 2.04215,24.93165 0.23385,0.2374 1.90236,-1.0001 3.70781,-2.75 1.80544,-1.74991 3.7596,-3.18165 4.34256,-3.18165 0.58297,0 1.35066,2.78145 1.70598,6.181 0.80691,7.72006 2.69314,10.819 6.5852,10.819 5.22881,0 11.31378,-6.95661 13.55789,-15.5 0.74663,-2.84243 0.85126,-2.70078 1.99219,2.69704 1.39549,6.60219 3.57831,10.37451 6.54861,11.31725 4.5529,1.44503 8.54008,-6.73995 5.9995,-12.31592 -1.06498,-2.33738 -0.94296,-2.86219 1.03859,-4.46675 3.09289,-2.50448 3.88391,-0.92725 3.896,7.76838 0.0186,13.36605 -2.7182,17.33485 -11.1718,16.20098 -2.90108,-0.38912 -5.02252,-1.41243 -6.50778,-3.13915 -1.21198,-1.409 -2.50328,-2.56183 -2.86955,-2.56183 -0.36627,0 -2.18195,1.33106 -4.03484,2.95792 -6.72908,5.90822 -16.03193,6.05725 -20.20849,0.32375 -3.38337,-4.64462 -3.9541,-2.22399 -3.42026,14.50644 1.08203,33.91078 -5.34859,46.72563 -28.36204,56.51947 -6.8769,2.92661 -10.62791,4.12459 -19.90435,6.35699 -5.5152,1.32725 -20.24851,1.24312 -24.5,-0.13988 z m 47,-78.47232 c 0,-0.33588 -1.62632,-2.28506 -3.61405,-4.33153 -4.87271,-5.01671 -8.04913,-5.03319 -8.98461,-0.0466 -0.56799,3.02766 -0.32032,3.97298 1.40748,5.37207 1.76502,1.42922 2.81624,1.53322 6.64398,0.65731 2.50096,-0.5723 4.5472,-1.31535 4.5472,-1.65122 z m 376,79.10103 c 0,-0.46563 1.575,-2.46832 3.5,-4.45043 1.925,-1.98211 3.5,-4.04348 3.5,-4.58082 0,-0.53735 -1.17605,-1.90207 -2.61345,-3.03273 -1.44655,-1.13786 -2.37561,-2.67555 -2.08076,-3.4439 0.74603,-1.94414 5.06706,-2.83446 8.12111,-1.67331 2.54395,0.9672 2.55181,1.00458 0.92753,4.41074 -1.71319,3.59258 -1.2771,6.82816 0.88219,6.54548 5.10418,-0.6682 4.16198,2.21611 -1.6417,5.02562 C 797.34468,390.01155 791,390.72978 791,389.1534 Z m 33.27449,-0.47687 c 0.20336,-0.61009 4.53448,-4.10224 9.62469,-7.76032 15.91977,-11.44073 21.98573,-18.61485 26.1407,-30.91621 1.77959,-5.26875 2.19432,-8.77307 2.1894,-18.5 -0.007,-14.20123 -0.27461,-17.47427 -4.78007,-58.5 -4.69303,-42.73373 -6.09879,-54.23004 -6.85044,-56.02292 C 849.88352,215.27101 855.31931,206 857.03487,206 c 0.5934,0 2.66827,3.4875 4.61081,7.75 1.94254,4.2625 4.39194,9.63781 5.44311,11.94514 1.05116,2.30732 1.91121,4.89482 1.91121,5.75 0,1.74296 -1.55273,2.08758 -2.5,0.55486 -0.33992,-0.55 -1.04148,-1 -1.55902,-1 -1.45718,0 -1.10368,8.88256 1.11429,28 7.64841,65.92395 6.40325,93.14345 -5.07942,111.03764 -4.13939,6.45068 -9.00683,10.61398 -16.51908,14.12938 -6.90177,3.22974 -20.79009,6.33293 -20.18228,4.50951 z M 621.4991,387.35624 c -1.08405,-1.08405 -1.43242,-2.48579 -1.02309,-4.11666 2.20083,-8.76882 2.04037,-9.1468 -3.05979,-7.20773 -2.17661,0.82755 -2.50075,0.77805 -1.63705,-0.25 1.53429,-1.82624 10.03109,-6.30492 10.69739,-5.63862 0.30654,0.30653 0.0334,2.82729 -0.60704,5.60168 -2.09745,9.08665 -0.14327,10.06747 10.47021,5.25509 8.83944,-4.00799 9.90703,-3.78001 4.0409,0.86294 -9.00508,7.12738 -15.38989,8.98494 -18.88153,5.4933 z m -287.27014,-1.02553 c -2.90004,-1.16683 -4.44472,-6.59919 -4.47556,-15.73982 -0.0258,-7.65304 0.50529,-10.75162 3.35796,-19.59089 3.26765,-10.12512 3.39972,-10.34612 3.69907,-6.18998 0.17074,2.37051 -0.37531,6.42051 -1.21345,9 -3.50706,10.79356 -2.89216,20.89127 1.41246,23.19503 1.51505,0.81083 2.40424,0.31644 4.91992,-2.73552 L 345,370.54431 v 4.27751 c 0,8.08386 -5.27499,13.72021 -10.77104,11.50889 z M 655.06693,373 c 0.002,-0.825 0.64671,-4.425 1.43307,-8 0.78636,-3.575 1.44555,-9.36764 1.46487,-12.87254 0.048,-8.7044 -2.47108,-33.38176 -6.38592,-62.55807 l -3.26497,-24.33301 -6.84966,-9.86819 C 631.7163,241.32438 619.99049,226 618.99255,226 c -0.46733,0 -1.55684,-0.70714 -2.42112,-1.57143 C 615.3932,223.25034 615,220.76294 615,214.48759 c 0,-4.60326 0.42306,-8.63102 0.94013,-8.95059 1.12174,-0.69327 5.82226,3.16021 16.30987,13.37079 8.40902,8.1869 9.79767,11.24045 4.75,10.44493 -1.65,-0.26004 -3,-0.20352 -3,0.1256 0,0.32912 2.71161,4.63114 6.02579,9.56004 5.60875,8.34141 8.76528,11.3274 7.62351,7.21164 -0.26701,-0.9625 -0.77738,-4.45 -1.13415,-7.75 -0.93459,-8.64456 -1.46362,-11.61507 -2.67437,-15.01657 -1.92496,-5.40801 3.08272,-15.95993 6.12867,-12.91398 1.73453,1.73453 10.23165,23.51098 10.78568,27.64158 0.50927,3.79689 0.45501,3.87982 -2.11623,3.23448 -3.06099,-0.76826 -3.0053,-1.24297 -1.7662,15.05449 0.75644,9.94922 0.78838,10.04316 6.2902,18.5 13.46314,20.69418 24.95239,41.26929 30.15387,54 3.6809,9.00906 6.2391,18.83239 5.48977,21.08039 -0.24796,0.74388 -4.10146,-6.0574 -8.56332,-15.11395 -8.22871,-16.70234 -29.7585,-52.38405 -31.10544,-51.5516 -0.40452,0.25001 0.14519,8.69645 1.22158,18.76986 1.11731,10.45647 1.99645,26.03884 2.04885,36.3153 0.0812,15.93163 -0.16153,18.80437 -2.11276,25 -2.21687,7.03909 -5.23522,12.52331 -5.22852,9.5 z m 78.92646,-7.16667 c -0.004,-0.73333 0.49757,-4.70833 1.11378,-8.83333 1.17304,-7.85249 1.3741,-5.82276 -6.63679,-67 -0.75621,-5.775 -2.511,-19.275 -3.89954,-30 -1.38853,-10.725 -3.45478,-23.73529 -4.59165,-28.91176 -2.18327,-9.94097 -2.00842,-13.07186 1.06976,-19.15514 4.2915,-8.4811 6.59515,-7.51564 10.4281,4.37042 1.45374,4.50806 4.19111,11.23452 6.08305,14.94768 1.89195,3.71317 3.4399,7.26183 3.4399,7.88593 0,0.76956 -1.44811,0.93623 -4.5,0.51792 -2.475,-0.33923 -4.49898,-0.2879 -4.49774,0.11408 10e-4,0.40198 1.34693,12.65587 2.99043,27.23087 1.64349,14.575 3.46672,30.775 4.05162,36 0.5849,5.225 1.9392,14.62079 3.00957,20.87953 3.07013,17.95191 2.20046,28.5384 -3.13155,38.12044 -2.43765,4.38065 -4.91667,6.30865 -4.92894,3.83336 z M 466.75389,342.1957 467.26873,335 h -2.66575 c -3.19124,0 -4.2849,-2.20794 -2.75588,-5.56377 1.27843,-2.80584 5.18368,-3.309 7.16388,-0.923 1.65639,1.99583 0.82539,14.01241 -1.24188,17.95793 -1.47239,2.81017 -1.51066,2.64902 -1.01521,-4.27546 z m -88.07807,-9.0707 c -0.3717,-1.85625 -0.68473,-5.68125 -0.69563,-8.5 -0.0109,-2.81875 -0.43835,-8.05 -0.94991,-11.625 -0.51156,-3.575 -1.2237,-9.65 -1.58254,-13.5 -1.36418,-14.63658 -1.45453,-14.86045 -6.33378,-15.6934 -6.38424,-1.08987 -10.57692,-4.77166 -13.15399,-11.55113 -1.99873,-5.25806 -2.13637,-6.9438 -1.59259,-19.50547 0.49379,-11.40668 0.35648,-13.75 -0.80571,-13.75 -1.86727,0 -4.05468,6.99582 -6.51452,20.8349 -2.27056,12.77414 -5.86717,20.83084 -9.7322,21.8009 -4.56508,1.14576 -7.31467,-3.23843 -10.90329,-17.38519 -2.73913,-10.798 -3.09309,-21.16307 -0.98179,-28.75061 l 1.3913,-5 0.10735,5.5 c 0.3037,15.55948 4.85106,32.16049 9.18632,33.53645 4.0337,1.28024 5.94362,-3.02403 7.84378,-17.67703 1.15408,-8.89962 3.24022,-15.65309 6.67534,-21.61012 8.59466,-14.90447 15.77989,-8.16065 9.7238,9.12643 -3.13608,8.95192 -0.24325,23.0185 5.77529,28.08277 3.00473,2.52832 5.38692,3.22252 6.14757,1.7915 0.3662,-0.68894 0.0662,-5.44974 -1.74871,-27.75 -0.3581,-4.4 -1.1233,-9.50531 -1.70045,-11.34513 -0.57715,-1.83983 -1.20933,-4.98983 -1.40484,-7 -0.19552,-2.01018 -0.64012,-5.06662 -0.988,-6.79209 -0.67985,-3.37201 1.72941,-8.36278 4.03706,-8.36278 1.72381,0 7.30318,10.76485 8.0723,15.57471 0.50139,3.13551 0.24207,4.30532 -1.25468,5.65986 -1.84694,1.67145 -1.8476,2.09227 -0.0315,19.96156 1.02034,10.03977 2.0511,18.45006 2.29058,18.68953 0.91963,0.91963 4.82291,-3.57538 6.64913,-7.65711 l 1.91111,-4.27145 -2.64315,-13.10876 c -2.47661,-12.28284 -2.6183,-16.08804 -0.82554,-22.17137 0.51987,-1.76403 0.6035,-1.76403 2.5847,0 3.37209,3.00247 4.77142,7.76197 4.77142,16.22886 0,8.31115 2.09537,19.44414 4.55477,24.20009 2.14127,4.14076 5.30895,5.89408 10.64868,5.89408 4.24815,0 4.82608,-0.26947 5.38912,-2.51281 0.99355,-3.95862 -0.39962,-11.04374 -4.65503,-23.67368 C 405.77189,234.38593 404,228.57841 404,227.9079 404,226.08346 408.91078,220 410.38353,220 412.62964,220 420,230.41568 420,233.58985 c 0,0.25281 -1.11897,0.88508 -2.4866,1.40505 -2.23694,0.85049 -2.38,1.22451 -1.42494,3.72525 0.58391,1.52892 1.97027,7.22536 3.08081,12.65877 2.2903,11.20554 1.91722,16.72084 -1.46956,21.72432 -2.45552,3.62769 -9.8186,7.82547 -13.80183,7.86859 -4.20371,0.0455 -9.16448,-3.99416 -10.99706,-8.95515 -2.03117,-5.49862 -3.33657,-6.00851 -5.36086,-2.09396 -0.86755,1.67766 -2.92007,4.57955 -4.56116,6.44864 l -2.9838,3.39836 1.16621,15.36514 c 1.71513,22.59742 1.64623,33.68159 -0.23539,37.86514 l -1.57419,3.5 z m 403.83484,-7.33014 c 0.79864,-4.25712 -0.51749,-7.27695 -4.73873,-10.87292 -2.64072,-2.24956 -2.87823,-2.85481 -1.86395,-4.75 1.48498,-2.77472 3.21514,-2.75141 5.79453,0.0781 4.42962,4.85906 5.37005,14.78504 1.69015,17.83908 -1.37284,1.13936 -1.47587,0.87136 -0.882,-2.29422 z m -452.89457,-7.00675 c 0.32041,-0.70846 3.7136,-4.09157 7.54043,-7.51801 7.34509,-6.57661 21.09662,-14.17343 26.34348,-14.55305 2.55234,-0.18466 3,0.13743 3,2.15852 0,2.01685 -1.05701,2.78409 -7,5.081 -9.1385,3.53193 -23.14709,10.56062 -27.23324,13.66402 -1.77828,1.35059 -2.97108,1.87597 -2.65067,1.16752 z M 757.23639,310.75 c 0.22169,-0.6875 3.97169,-4.0768 8.33334,-7.53177 4.36165,-3.45497 10.26084,-8.29247 13.10932,-10.75 2.84847,-2.45753 5.46314,-4.46823 5.81036,-4.46823 0.34723,0 0.49166,1.66672 0.32096,3.70382 -0.29274,3.49343 -0.77805,3.97293 -8.54387,8.44159 -4.52842,2.60578 -10.33063,6.33906 -12.8938,8.29618 -4.84535,3.6997 -6.82507,4.44445 -6.13631,2.30841 z M 565.06703,299.12524 c -1.66035,-3.10238 -2.40531,-9.79814 -1.17475,-10.55866 0.68957,-0.42618 1.10772,0.19739 1.10772,1.6519 0,3.1274 2.69934,6.83413 4.47938,6.15106 0.78355,-0.30068 1.72848,-2.57283 2.09984,-5.04922 l 0.67519,-4.50253 2.14985,3.83262 c 3.73583,6.66001 6.44069,5.17575 6.65237,-3.65041 0.0689,-2.87151 0.23827,-3.14087 0.94337,-1.5 1.45828,3.3936 1.13097,10.22617 -0.57143,11.92857 -1.97313,1.97313 -2.89247,1.9688 -5.93991,-0.028 -2.34109,-1.53394 -2.48943,-1.49302 -3.62533,1 -1.41656,3.10901 -5.2987,3.52293 -6.7963,0.72463 z M 764.11455,276.2882 c -4.50909,-8.83889 -5.55636,-9.99634 -7.54872,-8.34283 -2.44399,2.02833 -3.74784,0.0766 -3.37997,-5.05951 0.25889,-3.61448 0.6659,-4.38586 2.31414,-4.38586 1.49175,0 2.94199,1.90227 5.70682,7.48561 3.58259,7.23473 5.6484,9.62137 5.92721,6.84772 0.0737,-0.73333 0.0287,-4.79631 -0.0999,-9.02884 -0.21517,-7.07685 -0.0286,-7.90087 2.32051,-10.25 3.33996,-3.33996 3.94975,-3.23649 5.97676,1.01419 1.96894,4.12891 1.41963,5.91727 -1.29652,4.22101 -1.45399,-0.90804 -2.2258,-0.8761 -3.45364,0.14292 -1.25466,1.04127 -1.5812,3.44322 -1.5812,11.63082 0,5.67519 -0.43484,10.58728 -0.96632,10.91575 -0.53148,0.32848 -2.29508,-2.00747 -3.91913,-5.19098 z M 542.61856,274.96995 C 537.60467,270.5677 536,264.84852 536,251.38088 c 0,-17.03341 -1.68448,-16.39188 -8.51841,3.24422 -2.46446,7.08119 -5.31365,13.9999 -6.33154,15.3749 -7.18135,9.70084 -21.45096,-8.39433 -21.29184,-27 0.0629,-7.34998 2.15014,-17.64981 4.23008,-20.87362 0.82988,-1.28626 0.91247,-1.10357 0.39495,0.87362 -1.33314,5.0932 -1.65843,18.68562 -0.58632,24.5 1.46303,7.93451 5.61463,14 9.5825,14 2.69561,0 3.1226,-0.5888 6.5268,-9 7.28247,-17.99379 14.21914,-30.95236 18.44684,-34.46104 1.42911,-1.18606 1.93575,-1.09459 3.69799,0.66764 1.90157,1.90158 1.96659,2.52798 0.94547,9.10925 -0.60309,3.88699 -1.09652,12.5159 -1.09652,19.17536 0,12.79799 1.07015,16.9056 4.94461,18.97915 6.00016,3.21118 17.61502,-2.09161 21.83837,-9.97036 2.26207,-4.21992 2.3791,-5.21576 1.88028,-16 -0.30774,-6.6533 -1.39342,-14.79818 -2.57605,-19.32575 l -2.04413,-7.82575 2.5962,-5.12335 c 2.59537,-5.12172 2.5966,-5.12256 3.89304,-2.64823 2.34319,4.47214 4.31826,14.22778 5.34947,26.42308 1.83655,21.71936 9.00273,34.7756 17.34619,31.60342 6.18587,-2.35186 5.86767,-15.98094 -0.84487,-36.18795 l -3.65362,-10.99862 2.01029,-2.20842 c 1.10566,-1.21464 2.53236,-3.22093 3.17044,-4.45843 0.63808,-1.2375 1.73104,-2.25 2.4288,-2.25 3.4211,0 11.66098,12.33769 11.66098,17.46016 0,3.05998 -0.43987,3.1256 -3.70981,0.55347 -3.44413,-2.70916 -4.51587,-1.66175 -2.84424,2.77967 5.49288,14.59422 5.39354,30.04312 -0.25211,39.2067 -5.30721,8.61425 -13.4761,8.58982 -22.45756,-0.0672 C 575.66461,262.0444 574,261.07184 574,262.99712 c 0,1.9666 -7.50159,9.24913 -12.45265,12.08901 -7.20017,4.12994 -14.14125,4.08734 -18.92879,-0.11618 z m -68.28294,-3.54342 c -2.13169,-2.13169 -2.47306,-3.19218 -1.98857,-6.17775 0.63634,-3.92125 5.41342,-12.34427 7.36737,-12.99024 0.66793,-0.22082 -0.18439,2.31074 -1.89404,5.62569 -2.98907,5.79568 -3.04442,6.12489 -1.44136,8.57147 2.20463,3.36469 5.10506,3.21406 8.77483,-0.4557 1.65,-1.65 3.19953,-3 3.4434,-3 1.54153,0 -4.15731,8.23826 -6.5574,9.47939 -3.95575,2.0456 -4.70866,1.94271 -7.70423,-1.05286 z m 199.71624,-13.32962 c -0.57852,-1.08099 -1.03425,-3.45751 -1.01272,-5.28117 l 0.0391,-3.31574 1.41259,3.25 c 1.83008,4.21056 2.88913,4.09969 4.77625,-0.5 1.1327,-2.76085 1.56415,-3.18881 1.6357,-1.62244 0.11956,2.61753 2.80251,5.06711 4.11372,3.7559 0.51248,-0.51248 1.5867,-2.72091 2.38716,-4.90762 l 1.45538,-3.97584 0.0705,6.28138 c 0.08,7.13446 -1.25488,8.54592 -5.4702,5.78393 -2.38657,-1.56374 -2.68529,-1.54061 -5.44042,0.42122 -2.8855,2.05465 -2.92591,2.05578 -3.96706,0.11038 z m -220.07485,-2.89936 c 7.7956,-5.34248 20.90356,-16.34477 24.33954,-20.42962 l 3.9804,-4.73207 -2.31931,-4.37194 c -2.14003,-4.03399 -2.22029,-4.7256 -1.03835,-8.94707 1.97886,-7.06782 6.37644,-10.17441 11.80839,-8.34184 3.26611,1.10188 3.83683,5.07556 1.84147,12.82136 -0.95661,3.71344 -1.44176,7.23309 -1.07813,7.82147 0.77415,1.2526 -1.36712,4.18913 -2.5304,3.47018 -0.43602,-0.26947 -2.69184,1.77828 -5.01293,4.55057 -4.82562,5.76367 -13.64577,12.31139 -22.68917,16.8435 -6.86522,3.44052 -11.66383,4.30504 -7.30151,1.31546 z m 33.85107,-36.13423 c 0.78238,-2.24434 0.70385,-3.2069 -0.33179,-4.0664 -1.0471,-0.86902 -1.60099,-0.6698 -2.42655,0.87277 -1.78029,3.32651 -1.10912,7.89071 0.97127,6.60496 0.41913,-0.25903 1.22331,-1.79413 1.78707,-3.41133 z m 353.29234,23.78321 c -0.66924,-4.1486 -2.48767,-10.23016 -4.04095,-13.51457 -2.60044,-5.49864 -2.71034,-6.18885 -1.38745,-8.71369 0.79019,-1.50811 1.97024,-2.57396 2.62234,-2.36853 2.35074,0.74052 5.61653,12.88506 5.57995,20.75026 -0.0522,11.22565 -1.30358,12.96091 -2.77389,3.84653 z M 556.86856,230.46169 c -0.40315,-6.31331 -1.12621,-9.16442 -3.36937,-13.28585 -2.66703,-4.9002 -2.74562,-5.35798 -1.18741,-6.91619 1.55821,-1.55821 1.76528,-1.53929 3.12837,0.28584 3.02878,4.05542 4.4162,17.20759 2.63247,24.95451 -0.5157,2.2397 -0.82085,0.96283 -1.20406,-5.03831 z m 120.7447,1.84154 c 0.83419,-6.87807 0.0379,-9.57668 -4.21463,-14.28375 -3.33625,-3.69283 -3.47009,-4.09808 -2.217,-6.71256 2.0934,-4.36773 4.28832,-4.0333 6.73778,1.02661 3.73589,7.71731 4.00294,18.81395 0.55936,23.24274 -1.36536,1.75598 -1.44083,1.47057 -0.86551,-3.27304 z M 344.37389,216.40432 c 0.13178,-6.16984 -0.33699,-6.66746 -4.62389,-4.90842 -2.58622,1.0612 -2.2255,-1.70056 0.56445,-4.32159 4.85805,-4.56389 7.53646,-1.39906 6.32097,7.46892 -1.00979,7.36727 -2.40448,8.45333 -2.26153,1.76109 z m 57.11878,0.58758 c -1.63016,-1.80131 -1.9889,-1.85279 -3.48372,-0.5 -2.39671,2.16899 -5.65116,1.857 -7.45225,-0.71441 -1.75126,-2.50028 -2.07663,-7.33812 -0.5567,-8.27749 0.56387,-0.34849 1,0.46235 1,1.8592 0,3.70911 1.01091,5.6408 2.952,5.6408 2.13978,0 5.048,-3.06996 5.048,-5.32874 0,-0.91919 0.43588,-1.67126 0.96862,-1.67126 0.53273,0 0.70826,0.67847 0.39004,1.50772 -0.62674,1.63326 2.0919,6.49228 3.63246,6.49228 0.51975,0 1.61636,-1.2375 2.43691,-2.75 1.27394,-2.34825 1.49774,-2.4538 1.53193,-0.72251 0.0425,2.15051 -2.53616,6.47251 -3.86168,6.47251 -0.43357,0 -1.60609,-0.90364 -2.60561,-2.0081 z"
         id="path24" />
    </g>
  </g>
</svg>
