<?xml version="1.0" encoding="UTF-8" standalone="no"?>
<!-- Created with Inkscape (http://www.inkscape.org/) -->

<svg
   xmlns:dc="http://purl.org/dc/elements/1.1/"
   xmlns:cc="http://creativecommons.org/ns#"
   xmlns:rdf="http://www.w3.org/1999/02/22-rdf-syntax-ns#"
   xmlns:svg="http://www.w3.org/2000/svg"
   xmlns="http://www.w3.org/2000/svg"
   xmlns:sodipodi="http://sodipodi.sourceforge.net/DTD/sodipodi-0.dtd"
   xmlns:inkscape="http://www.inkscape.org/namespaces/inkscape"
   width="900"
   height="600"
   id="svg2"
   sodipodi:version="0.32"
   inkscape:version="0.91 r13725"
   sodipodi:docname="Flag_of_Bougainville.svg"
   inkscape:output_extension="org.inkscape.output.svg.inkscape"
   version="1.0">
  <defs
     id="defs4" />
  <sodipodi:namedview
     id="base"
     pagecolor="#ffffff"
     bordercolor="#666666"
     borderopacity="1.0"
     gridtolerance="10000"
     guidetolerance="10"
     objecttolerance="10"
     inkscape:pageopacity="0.0"
     inkscape:pageshadow="2"
     inkscape:zoom="1.1133333"
     inkscape:cx="450.00001"
     inkscape:cy="300"
     inkscape:document-units="px"
     inkscape:current-layer="layer1"
     showgrid="false"
     inkscape:window-width="1600"
     inkscape:window-height="837"
     inkscape:window-x="-8"
     inkscape:window-y="-8"
     width="1049.36px"
     height="744.09448px"
     inkscape:object-bbox="false"
     fit-margin-top="0"
     fit-margin-left="0"
     fit-margin-right="0"
     fit-margin-bottom="0"
     inkscape:window-maximized="1" />
  <metadata
     id="metadata7">
    <rdf:RDF>
      <cc:Work
         rdf:about="">
        <dc:format>image/svg+xml</dc:format>
        <dc:type
           rdf:resource="http://purl.org/dc/dcmitype/StillImage" />
        <dc:title></dc:title>
      </cc:Work>
    </rdf:RDF>
  </metadata>
  <g
     inkscape:label="Layer 1"
     inkscape:groupmode="layer"
     id="layer1"
     transform="translate(-159.09187,-109.52031)">
    <rect
       style="fill:#000080;fill-rule:evenodd;stroke:none;stroke-width:1.39315665px;stroke-linecap:butt;stroke-linejoin:miter;stroke-opacity:1"
       id="rect2162"
       width="900"
       height="600"
       x="159.09187"
       y="109.52031" />
    <circle
       style="fill:#ffffff"
       id="path2237"
       cx="609.09192"
       cy="409.52032"
       r="240" />
    <circle
       style="fill:#18de9c;fill-opacity:1"
       id="path2241"
       cx="609.09192"
       cy="409.52032"
       r="225" />
    <path
       sodipodi:type="star"
       style="opacity:1;fill:#ffffff;fill-opacity:1;fill-rule:nonzero;stroke:none;stroke-width:0.5;stroke-linejoin:round;stroke-miterlimit:4;stroke-dasharray:none;stroke-opacity:1"
       id="path4195"
       sodipodi:sides="24"
       sodipodi:cx="609.09192"
       sodipodi:cy="409.52032"
       sodipodi:r1="225"
       sodipodi:r2="184.5"
       sodipodi:arg1="0"
       sodipodi:arg2="0.13089969"
       inkscape:flatsided="false"
       inkscape:rounded="0"
       inkscape:randomized="0"
       d="m 834.09192,409.52032 -42.07842,24.08209 34.41173,34.1522 -46.87754,12.37081 24.39994,41.8949 -48.48202,-0.18351 12.72533,46.78254 -46.78254,-12.72533 0.18352,48.48202 -41.89491,-24.39994 -12.37081,46.87754 -34.1522,-34.41174 -24.08208,42.07842 -24.08208,-42.07842 -34.15221,34.41174 -12.3708,-46.87754 -41.89491,24.39994 0.18352,-48.48202 -46.78255,12.72533 12.72534,-46.78254 -48.48203,0.18351 24.39995,-41.8949 -46.87754,-12.37081 34.41173,-34.1522 -42.07842,-24.08209 42.07842,-24.08208 -34.41173,-34.1522 46.87753,-12.37081 -24.39994,-41.89491 48.48203,0.18352 -12.72534,-46.78254 46.78254,12.72533 -0.18351,-48.48202 41.89491,24.39994 12.3708,-46.87754 34.15221,34.41174 24.08208,-42.07843 24.08208,42.07843 34.1522,-34.41174 12.37081,46.87754 41.89491,-24.39994 -0.18352,48.48202 46.78254,-12.72533 -12.72533,46.78254 48.48202,-0.18352 -24.39994,41.89491 46.87754,12.37081 -34.41173,34.1522 z" />
    <circle
       style="fill:#000000"
       id="path2164"
       cx="609.09192"
       cy="409.52371"
       r="184.5" />
    <g
       id="g11995"
       style="fill:#ffffff;fill-opacity:1"
       transform="matrix(1.3623157,0,0,1.4004446,281.51794,-1018.0173)">
      <path
         id="path9084"
         d="m 188.83491,942.28672 -25.4558,106.39518 c 0,0 35.3553,26.0381 43.84053,50.3625 4.24264,12.1623 18.12575,12.4152 33.23397,12.4152 14.96,0 30.40552,-7.0097 30.40552,-7.0097 l -22.62737,-172.97405 -7.77797,-4.24345 z"
         style="fill:#ffffff;fill-opacity:1;fill-rule:evenodd;stroke:none;stroke-width:1px;stroke-linecap:butt;stroke-linejoin:miter;stroke-opacity:1"
         inkscape:connector-curvature="0"
         sodipodi:nodetypes="ccsscccc" />
      <path
         sodipodi:nodetypes="ccsscccc"
         inkscape:connector-curvature="0"
         style="fill:#ffffff;fill-opacity:1;fill-rule:evenodd;stroke:none;stroke-width:1px;stroke-linecap:butt;stroke-linejoin:miter;stroke-opacity:1"
         d="m 292.0726,942.28672 25.4558,106.39518 c 0,0 -35.3553,26.0381 -43.84054,50.3625 -4.24263,12.1623 -18.12574,12.4152 -33.23396,12.4152 -14.96,0 -30.40552,-7.0097 -30.40552,-7.0097 l 22.62736,-172.97405 7.77798,-4.24345 z"
         id="path4212" />
    </g>
    <g
       id="g12968"
       style="fill:#ff0000;fill-opacity:1"
       transform="matrix(1.0540699,0,0,1.2765958,355.78557,-891.85688)">
      <path
         id="path12970"
         d="m 185.22767,934.80758 -27.16509,116.71712 c 0,0 37.7293,28.5641 46.7843,55.2485 4.52752,13.3421 19.33775,13.6889 35.46556,13.6889 16.0194,0 32.44715,-7.759 32.44715,-7.759 l -24.14673,-189.75522 -8.30018,-4.58576 z"
         style="fill:#ff0000;fill-opacity:1;fill-rule:evenodd;stroke:none;stroke-width:1px;stroke-linecap:butt;stroke-linejoin:miter;stroke-opacity:1"
         inkscape:connector-curvature="0"
         sodipodi:nodetypes="ccsscccc" />
      <path
         sodipodi:nodetypes="ccsscccc"
         inkscape:connector-curvature="0"
         style="fill:#ff0000;fill-opacity:1;fill-rule:evenodd;stroke:none;stroke-width:1px;stroke-linecap:butt;stroke-linejoin:miter;stroke-opacity:1"
         d="m 295.39761,934.80758 27.1651,116.71712 c 0,0 -37.72931,28.5641 -46.78431,55.2485 -4.52751,13.3421 -19.33775,13.6889 -35.46555,13.6889 -16.01941,0 -32.44716,-7.759 -32.44716,-7.759 l 24.14673,-189.75522 8.30019,-4.58576 z"
         id="path4210" />
    </g>
    <g
       id="g12974"
       style="fill:#ffffff;fill-opacity:1"
       transform="matrix(0.73784897,0,0,1.2765958,431.13116,-891.85688)">
      <path
         id="path12976"
         d="m 184.79795,934.80758 -27.16508,116.71712 c 0,0 37.72931,28.5641 46.7843,55.2485 4.52752,13.3421 20.83393,13.6889 36.77109,13.6889 16.19763,0 31.14162,-7.759 31.14162,-7.759 l -24.14673,-189.75522 -6.99454,-4.58576 z"
         style="fill:#ffffff;fill-opacity:1;fill-rule:evenodd;stroke:none;stroke-width:1px;stroke-linecap:butt;stroke-linejoin:miter;stroke-opacity:1"
         inkscape:connector-curvature="0"
         sodipodi:nodetypes="ccsscccc" />
      <path
         sodipodi:nodetypes="ccsscccc"
         inkscape:connector-curvature="0"
         style="fill:#ffffff;fill-opacity:1;fill-rule:evenodd;stroke:none;stroke-width:1px;stroke-linecap:butt;stroke-linejoin:miter;stroke-opacity:1"
         d="M 297.57892,934.80758 324.744,1051.5247 c 0,0 -37.72931,28.5641 -46.7843,55.2485 -4.52751,13.3421 -20.83393,13.6889 -36.77109,13.6889 -16.19763,0 -31.14162,-7.759 -31.14162,-7.759 l 24.14674,-189.75522 6.99453,-4.58576 z"
         id="path4208" />
    </g>
    <g
       id="g12980"
       style="fill:#ff0000;fill-opacity:1"
       transform="matrix(0.37478042,0,0,1.2765958,517.77279,-891.85688)">
      <path
         id="path12982"
         d="m 183.43428,934.80758 -20.76134,116.71712 c 0,0 31.32556,28.5641 40.38056,55.2485 4.52751,13.3421 23.36633,13.6889 40.60618,13.6889 17.16802,0 27.30653,-7.759 27.30653,-7.759 l -24.14673,-189.75522 -3.15912,-4.58576 z"
         style="fill:#ff0000;fill-opacity:1;fill-rule:evenodd;stroke:none;stroke-width:1px;stroke-linecap:butt;stroke-linejoin:miter;stroke-opacity:1"
         inkscape:connector-curvature="0"
         sodipodi:nodetypes="ccsscccc" />
      <path
         sodipodi:nodetypes="ccsscccc"
         inkscape:connector-curvature="0"
         style="fill:#ff0000;fill-opacity:1;fill-rule:evenodd;stroke:none;stroke-width:1px;stroke-linecap:butt;stroke-linejoin:miter;stroke-opacity:1"
         d="m 303.88608,934.8076 20.76133,116.7171 c 0,0 -31.32555,28.5641 -40.38056,55.2485 -4.52751,13.3421 -23.36632,13.6889 -40.60618,13.6889 -17.16801,0 -27.30652,-7.759 -27.30652,-7.759 l 24.14673,-189.7552 3.15911,-4.58576 z"
         id="path4206" />
    </g>
  </g>
</svg>
