<?xml version="1.0" encoding="UTF-8" standalone="no"?>
<!-- Created with Inkscape (http://www.inkscape.org/) -->

<svg
   xmlns:dc="http://purl.org/dc/elements/1.1/"
   xmlns:cc="http://creativecommons.org/ns#"
   xmlns:rdf="http://www.w3.org/1999/02/22-rdf-syntax-ns#"
   xmlns:svg="http://www.w3.org/2000/svg"
   xmlns="http://www.w3.org/2000/svg"
   xmlns:xlink="http://www.w3.org/1999/xlink"
   xmlns:sodipodi="http://sodipodi.sourceforge.net/DTD/sodipodi-0.dtd"
   xmlns:inkscape="http://www.inkscape.org/namespaces/inkscape"
   id="svg8910"
   xml:space="preserve"
   height="200"
   width="300"
   version="1.1"
   inkscape:version="0.48.4 r9939"
   sodipodi:docname="Flag of the Organization of African Unity (1970-2002).svg"><metadata
   id="metadata139"><rdf:RDF><cc:Work
       rdf:about=""><dc:format>image/svg+xml</dc:format><dc:type
         rdf:resource="http://purl.org/dc/dcmitype/StillImage" /></cc:Work></rdf:RDF></metadata><defs
   id="defs137" /><sodipodi:namedview
   pagecolor="#ffffff"
   bordercolor="#666666"
   borderopacity="1"
   objecttolerance="10"
   gridtolerance="10"
   guidetolerance="10"
   inkscape:pageopacity="0"
   inkscape:pageshadow="2"
   inkscape:window-width="1920"
   inkscape:window-height="1096"
   id="namedview135"
   showgrid="false"
   inkscape:zoom="8.1067187"
   inkscape:cx="169.93371"
   inkscape:cy="93.714001"
   inkscape:window-x="-8"
   inkscape:window-y="-8"
   inkscape:window-maximized="1"
   inkscape:current-layer="svg8910" />
<g
   transform="scale(0.4)"
   id="g3">
<rect
   id="rect12187"
   height="500"
   width="750"
   y=".0000029883"
   x="0"
   fill="#319400"
   style="fill:#009933;fill-opacity:1" /><rect
   id="rect12185"
   height="200"
   width="750"
   y="150"
   x="0"
   fill="#f7c608"
   style="fill:#cc9966;fill-opacity:1" /><rect
   id="rect11308"
   height="150"
   width="750"
   y="175"
   x="0"
   fill="#fff" /><path
   id="path3099"
   fill="#319400"
   d="m325.85 205.02c0.39 0 0.59-0.4 0.59-0.6 0-0.4-0.39-0.8-0.59-0.6-0.4 0-0.6 0.2-0.6 0.4h-2.79v0.6l2.79-0.2c0 0.2 0.4 0.4 0.6 0.4z" /><path
   id="path3101"
   fill="#319400"
   d="m324.45 207.01c0.4 0 0.6-0.4 0.6-0.6 0-0.4-0.2-0.6-0.6-0.6-0.39 0-0.59 0.2-0.59 0.4l-2.79 0.2v0.6l2.79-0.4c0.2 0.4 0.39 0.4 0.59 0.4z" /><path
   id="path3103"
   fill="#319400"
   d="m323.26 209c0.4 0 0.6-0.4 0.6-0.6 0-0.4-0.4-0.6-0.8-0.6-0.2 0-0.4 0.2-0.4 0.4l-2.98 0.4 0.2 0.4 2.78-0.4c0 0.4 0.4 0.4 0.6 0.4z" /><path
   id="path3105"
   fill="#319400"
   d="m321.87 211.19c0.39 0 0.59-0.2 0.59-0.6-0.2-0.4-0.39-0.6-0.79-0.6-0.2 0-0.4 0.2-0.6 0.6l-2.79 0.4 0.2 0.4 2.79-0.4c0 0.2 0.4 0.4 0.6 0.2z" /><path
   id="path3107"
   fill="#319400"
   d="m320.67 213.38c0.2 0 0.4-0.4 0.4-0.8 0-0.2-0.4-0.4-0.8-0.4-0.19 0-0.39 0.4-0.39 0.6l-2.79 0.79 0.2 0.4 2.59-0.79c0.2 0.2 0.39 0.39 0.79 0.2z" /><path
   id="path3109"
   fill="#319400"
   d="m319.08 215.96c0.2 0 0.4-0.39 0.4-0.59 0-0.4-0.4-0.6-0.8-0.6-0.2 0.2-0.4 0.4-0.4 0.6l-2.78 0.79 0.2 0.4 2.58-0.8c0.2 0.2 0.4 0.4 0.8 0.2z" /><path
   id="path3111"
   fill="#319400"
   d="m318.09 218.35c0.39 0 0.59-0.4 0.39-0.79 0-0.2-0.39-0.4-0.79-0.4-0.2 0-0.4 0.2-0.4 0.59l-2.79 0.6 0.2 0.6 2.59-0.8c0.2 0.2 0.6 0.4 0.8 0.2z" /><path
   id="path3113"
   fill="#319400"
   d="m317.29 220.74c0.4-0.2 0.6-0.4 0.4-0.8 0-0.39-0.4-0.59-0.8-0.39-0.2 0-0.4 0.2-0.4 0.39l-2.78 0.8 0.2 0.4 2.58-0.6c0.2 0.2 0.6 0.2 0.8 0.2z" /><path
   id="path3115"
   fill="#319400"
   d="m316.49 222.93c0.2-0.2 0.4-0.6 0.2-1 0-0.19-0.4-0.39-0.79-0.39-0.2 0.2-0.4 0.39-0.4 0.59l-2.59 1 0.2 0.4 2.59-0.8c0.2 0.2 0.4 0.2 0.79 0.2z" /><path
   id="path3117"
   fill="#319400"
   d="m315.5 225.52c0.4 0 0.6-0.4 0.4-0.8 0-0.2-0.4-0.4-0.8-0.2-0.2 0-0.4 0.2-0.4 0.6l-2.58 0.99 0.19 0.4 2.59-0.99c0.2 0.2 0.4 0.2 0.6 0z" /><path
   id="path3119"
   fill="#319400"
   d="m314.7 228.3c0.4 0 0.6-0.39 0.4-0.79-0.2-0.2-0.4-0.4-0.8-0.4-0.19 0.2-0.39 0.4-0.39 0.6l-2.59 1.19 0.2 0.4 2.59-1c0.19 0.2 0.39 0.2 0.59 0z" /><path
   id="path3121"
   fill="#319400"
   d="m327.64 203.03c0.2 0 0.59-0.2 0.59-0.6s-0.39-0.6-0.79-0.6c-0.2 0-0.4 0.2-0.6 0.4l-2.78 0.2v0.4l2.98-0.2c0 0.4 0.2 0.4 0.6 0.4z" /><path
   id="path3123"
   fill="#319400"
   d="m329.23 201.03c0.2 0 0.6-0.19 0.6-0.59-0.2-0.4-0.4-0.6-0.8-0.6-0.2 0-0.4 0.2-0.6 0.4l-2.78 0.2v0.4l2.78-0.2c0.2 0.39 0.4 0.39 0.8 0.39z" /><path
   id="path3125"
   fill="#319400"
   d="m331.02 199.24c0.4 0 0.6-0.39 0.6-0.79 0-0.2-0.2-0.6-0.6-0.6-0.2 0-0.4 0.2-0.6 0.4l-2.78 0.2v0.4h2.78c0.2 0.19 0.4 0.39 0.6 0.39z" /><path
   id="path3127"
   fill="#319400"
   d="m332.41 197.05c0.4-0.19 0.6-0.39 0.6-0.79s-0.4-0.6-0.8-0.6c-0.19 0.2-0.39 0.4-0.39 0.6l-2.79 0.4v0.59l2.79-0.59c0.2 0.2 0.39 0.39 0.59 0.39z" /><path
   id="path3129"
   fill="#319400"
   d="m328.04 194.27c0-0.4-0.4-0.6-0.8-0.4-0.4 0-0.6 0.4-0.4 0.8 0 0.19 0.2 0.39 0.4 0.39l0.8 2.79 0.39-0.2-0.59-2.79c0.2 0 0.2-0.39 0.2-0.59z" /><path
   id="path3131"
   fill="#319400"
   d="m326.24 195.66c0-0.2-0.39-0.4-0.79-0.4-0.2 0-0.4 0.4-0.4 0.8 0 0.2 0.2 0.4 0.6 0.4l0.59 2.78h0.4l-0.59-2.78c0.19-0.2 0.39-0.4 0.19-0.8z" /><path
   id="path3133"
   fill="#319400"
   d="m324.45 197.45c0-0.4-0.39-0.59-0.79-0.4-0.4 0-0.6 0.4-0.4 0.8 0 0.2 0.2 0.4 0.6 0.4l0.99 3.38h0.4l-1-3.58c0.2 0 0.2-0.4 0.2-0.6z" /><path
   id="path3135"
   fill="#319400"
   d="m322.86 199.24c-0.2-0.39-0.6-0.59-0.79-0.59-0.4 0.2-0.6 0.39-0.6 0.79 0.2 0.4 0.4 0.4 0.6 0.6l0.99 3.38 0.4-0.2-1-3.38c0.2-0.2 0.4-0.4 0.4-0.6z" /><path
   id="path3137"
   fill="#319400"
   d="m321.27 200.84c0-0.4-0.4-0.4-0.8-0.4-0.2 0.2-0.39 0.4-0.39 0.79 0.19 0.2 0.39 0.4 0.59 0.4l1.2 3.39h0.39l-1.19-3.39c0.2-0.2 0.4-0.6 0.2-0.79z" /><path
   id="path3139"
   fill="#319400"
   d="m319.48 203.03c-0.2-0.2-0.4-0.4-0.8-0.4-0.4 0.2-0.59 0.59-0.4 0.99 0 0.2 0.4 0.4 0.6 0.4l1.2 3.38 0.39-0.19-1.19-3.39c0.2-0.2 0.2-0.4 0.2-0.79z" /><path
   id="path3141"
   fill="#319400"
   d="m317.89 205.41c0-0.39-0.4-0.39-0.8-0.39-0.2 0.19-0.4 0.59-0.4 0.79 0.2 0.2 0.4 0.4 0.6 0.4l1.19 3.38 0.4-0.2-1.19-3.18c0.2-0.2 0.4-0.6 0.2-0.8z" /><path
   id="path3143"
   fill="#319400"
   d="m316.49 207.4c0-0.19-0.39-0.39-0.79-0.19-0.2 0-0.4 0.39-0.2 0.79 0 0.2 0.2 0.4 0.6 0.4l1.39 3.18 0.4-0.19-1.4-3.19c0.2-0.2 0.2-0.4 0-0.8z" /><path
   id="path3145"
   fill="#319400"
   d="m315.1 209.99c-0.2-0.4-0.6-0.4-0.8-0.4-0.39 0.2-0.59 0.6-0.39 1 0.2 0.2 0.39 0.4 0.59 0.2l1.4 3.38 0.59-0.2-1.59-3.18c0.2-0.2 0.4-0.6 0.2-0.8z" /><path
   id="path3147"
   fill="#319400"
   d="m313.91 211.78c-0.2-0.2-0.6-0.39-0.8-0.2-0.4 0.2-0.4 0.6-0.2 1 0 0.2 0.4 0.2 0.6 0.2l1.79 3.18 0.4-0.2-1.79-3.18c0.2-0.2 0.2-0.4 0-0.8z" /><path
   id="path3149"
   fill="#319400"
   d="m312.91 214.17c-0.2-0.2-0.6-0.4-0.79-0.2-0.4 0.2-0.6 0.6-0.4 0.8s0.4 0.4 0.79 0.4l1.6 3.18 0.39-0.2-1.59-3.18c0-0.2 0.2-0.6 0-0.8z" /><path
   id="path3151"
   fill="#319400"
   d="m311.92 215.96c-0.2-0.2-0.6-0.39-0.8-0.2-0.4 0.2-0.4 0.6-0.2 1 0.2 0.2 0.4 0.2 0.6 0.2l1.99 2.98 0.4-0.19-1.99-2.99c0.2-0.2 0.2-0.6 0-0.8z" /><path
   id="path3153"
   fill="#319400"
   d="m310.92 217.95c-0.2-0.39-0.6-0.39-0.79-0.2-0.4 0.2-0.4 0.6-0.2 0.8s0.39 0.4 0.79 0.4l1.99 2.79 0.4-0.2-2.19-2.99c0.2-0.2 0.2-0.4 0-0.6z" /><path
   id="path3155"
   fill="#319400"
   d="m310.32 219.94c-0.19-0.19-0.59-0.19-0.79 0-0.4 0.2-0.4 0.6-0.2 0.8 0 0.2 0.4 0.4 0.6 0.2l1.99 2.99 0.39-0.2-1.99-2.99c0.2-0.2 0.2-0.4 0-0.8z" /><path
   id="path3157"
   fill="#319400"
   d="m309.33 222.73c-0.2-0.4-0.6-0.4-1-0.2-0.19 0.2-0.19 0.6 0 1 0 0.2 0.4 0.2 0.6 0.2l2.19 2.78 0.4-0.4-2.19-2.78c0.2-0.2 0.2-0.4 0-0.6z" /><path
   id="path3159"
   fill="#319400"
   d="m308.53 225.12c-0.2-0.2-0.59-0.2-0.79 0s-0.4 0.6-0.2 0.8c0.2 0.39 0.6 0.39 0.79 0.39l2.19 2.79 0.4-0.4-2.19-2.78c0-0.2 0-0.4-0.2-0.8z" /><path
   id="path3161"
   fill="#319400"
   d="m307.94 228.3c-0.4-0.2-0.8-0.39-1 0-0.2 0.2-0.2 0.6 0 0.8s0.4 0.2 0.6 0.2l2.39 2.79 0.39-0.4-2.38-2.59c0.2-0.4 0.2-0.6 0-0.8z" /><path
   id="path3163"
   fill="#319400"
   d="m307.54 231.69c-0.2-0.2-0.6-0.4-1 0-0.2 0.2-0.2 0.59 0 0.79s0.4 0.2 0.6 0.2l2.39 2.79 0.4-0.4-2.39-2.79c0.2-0.19 0.2-0.39 0-0.59z" /><path
   id="path3165"
   fill="#319400"
   d="m306.94 235.47c-0.2-0.2-0.6-0.2-0.99 0-0.2 0.2-0.2 0.6 0 0.8 0.2 0.39 0.39 0.39 0.59 0.19l2.39 2.79 0.4-0.2-2.39-2.78c0.2-0.2 0.2-0.6 0-0.8z" /><path
   id="path3167"
   fill="#319400"
   d="m306.54 239.25c-0.2-0.2-0.59-0.4-0.79 0-0.2 0.2-0.4 0.6 0 0.8 0 0.2 0.4 0.4 0.59 0.2l2.39 2.58 0.4-0.19-2.39-2.59c0-0.4 0-0.6-0.2-0.8z" /><path
   id="path3169"
   fill="#319400"
   d="m306.54 243.03c-0.39-0.39-0.79-0.39-0.99-0.2-0.2 0.4-0.2 0.8 0 1s0.4 0.2 0.79 0.2l2.39 2.39 0.4-0.2-2.59-2.59c0.2-0.2 0-0.6 0-0.6z" /><path
   id="path3171"
   fill="#319400"
   d="m306.34 246.42c-0.39-0.2-0.79-0.2-0.99 0-0.2 0.4-0.2 0.79 0.2 0.99 0.2 0.2 0.4 0.2 0.79 0l2.79 2.19 0.2-0.4-2.79-2.19c0-0.19 0-0.39-0.2-0.59z" /><path
   id="path3173"
   fill="#319400"
   d="m306.54 250c-0.39-0.2-0.79 0-0.99 0.2-0.2 0.4 0 0.8 0.2 0.99h0.79l2.99 1.8 0.2-0.4-2.99-1.79c0-0.4 0-0.6-0.2-0.8z" /><path
   id="path3175"
   fill="#319400"
   d="m306.94 253.58c-0.4-0.2-0.79 0-0.99 0.2-0.2 0.4 0 0.8 0.2 1h0.79l2.99 1.79 0.2-0.4-2.99-1.79c0-0.4 0-0.6-0.2-0.8z" /><path
   id="path3177"
   fill="#319400"
   d="m307.34 257.17c-0.4-0.2-0.8 0-1 0.19 0 0.4 0 0.8 0.4 0.8 0.2 0.2 0.6 0.2 0.8 0l3.18 1.39 0.2-0.39-3.18-1.4c0-0.4-0.2-0.59-0.4-0.59z" /><path
   id="path3179"
   fill="#319400"
   d="m307.74 259.95c-0.4-0.2-0.8 0-0.8 0.4-0.2 0.2 0 0.6 0.2 0.8 0.2 0 0.6 0 0.8-0.2l3.18 1.59 0.2-0.4-3.18-1.59c0-0.2-0.2-0.4-0.4-0.6z" /><path
   id="path3181"
   fill="#319400"
   d="m308.33 262.54c-0.39-0.2-0.59 0-0.79 0.4-0.2 0.2 0 0.59 0.2 0.79 0.4 0 0.59 0 0.79-0.2l3.19 1.6 0.2-0.4-3.19-1.59c0-0.2-0.2-0.4-0.4-0.6z" /><path
   id="path3183"
   fill="#319400"
   d="m308.93 264.73c-0.4-0.2-0.79 0-0.99 0.2 0 0.4 0 0.79 0.2 0.99 0.39 0 0.59 0 0.79-0.2l3.78 2.59 0.4-0.4-3.98-2.58c0.2-0.2 0-0.4-0.2-0.6z" /><path
   id="path3185"
   fill="#319400"
   d="m314.11 231.29c0.39-0.2 0.39-0.6 0.39-1-0.2-0.19-0.59-0.39-0.99-0.19-0.2 0-0.2 0.39-0.2 0.59l-3.38 1.59 0.2 0.4 3.38-1.59c0 0.2 0.4 0.2 0.6 0.2z" /><path
   id="path3187"
   fill="#319400"
   d="m313.51 234.28c0.2-0.2 0.4-0.6 0.2-0.8-0.2-0.4-0.6-0.4-0.8-0.2-0.4 0.2-0.4 0.4-0.4 0.6l-2.98 1.99 0.2 0.4 2.98-1.99c0.2 0.19 0.6 0.19 0.8 0z" /><path
   id="path3189"
   fill="#319400"
   d="m313.31 237.66c0.4-0.2 0.4-0.6 0.2-0.8-0.2-0.4-0.6-0.4-0.8-0.2s-0.4 0.4-0.4 0.6l-2.98 1.99 0.2 0.4 2.98-1.99c0.2 0.2 0.6 0.2 0.8 0z" /><path
   id="path3191"
   fill="#319400"
   d="m312.91 241.04c0.4-0.2 0.4-0.59 0.2-0.99-0.2-0.2-0.6-0.2-0.99 0-0.2 0.2-0.2 0.4-0.2 0.59l-2.79 2.19 0.2 0.4 2.98-2.19c0.2 0.2 0.4 0.2 0.6 0z" /><path
   id="path3193"
   fill="#319400"
   d="m312.71 244.43c0.4-0.2 0.4-0.6 0.2-0.8-0.2-0.4-0.6-0.4-0.79-0.2-0.4 0.2-0.4 0.4-0.4 0.8l-2.79 2.19 0.4 0.4 2.79-2.19c0.19 0 0.39 0 0.59-0.2z" /><path
   id="path3195"
   fill="#319400"
   d="m312.91 247.41c0.4-0.2 0.4-0.59 0-0.99-0.2-0.2-0.6-0.2-0.79 0-0.2 0.2-0.2 0.59-0.2 0.79l-2.59 2.39 0.4 0.4 2.58-2.59c0.2 0.2 0.4 0.2 0.6 0z" /><path
   id="path3197"
   fill="#319400"
   d="m313.11 250.2c0.2-0.2 0.2-0.6 0-1-0.2-0.2-0.6-0.2-0.8 0-0.19 0.2-0.39 0.6-0.19 0.8l-2.59 2.39 0.2 0.4 2.58-2.59c0.2 0.2 0.6 0.2 0.8 0z" /><path
   id="path3199"
   fill="#319400"
   d="m313.31 253.38c0.2-0.2 0.2-0.59 0-0.79-0.2-0.4-0.6-0.2-1 0 0 0.2-0.19 0.4 0 0.59l-2.38 2.79 0.39 0.2 2.39-2.59c0.2 0 0.4 0 0.6-0.2z" /><path
   id="path3201"
   fill="#319400"
   d="m313.91 256.17c0.2-0.4 0.2-0.8 0-0.99-0.4-0.2-0.8-0.2-1 0.19-0.2 0.2-0.2 0.4 0 0.6l-2.19 2.99 0.4 0.2 2.19-2.79c0.2 0 0.6 0 0.6-0.2z" /><path
   id="path3203"
   fill="#319400"
   d="m315.5 262.54c0.2-0.4 0.2-0.8-0.2-1-0.2-0.19-0.6-0.19-0.8 0.2-0.2 0.2-0.2 0.4 0 0.6l-2.19 2.99 0.4 0.2 1.99-2.79c0.4 0 0.6 0 0.8-0.2z" /><path
   id="path3205"
   fill="#319400"
   d="m316.89 265.53c0.2-0.4 0-0.8-0.2-1-0.4-0.2-0.79 0-0.99 0.2v0.8l-1.99 3.38 0.4 0.2 1.99-3.39c0.39 0 0.59 0 0.79-0.19z" /><path
   id="path3207"
   fill="#319400"
   d="m314.7 258.96c0.2-0.4 0-0.8-0.2-1-0.39-0.2-0.79 0-0.79 0.2-0.2 0.2-0.2 0.6 0 0.8l-2.19 3.38 0.4 0.2 2.19-3.38c0.19 0 0.39 0 0.59-0.2z" /><path
   id="path3209"
   fill="#319400"
   d="m330.62 194.47c-11.94 11.74-19.5 25.87-21.69 41.2-2.19 15.52 1.2 31.25 9.75 45.38 0.2 0.4 0.6 0.4 1 0.2s0.4-0.6 0.2-0.8c-8.36-13.93-11.74-29.26-9.56-44.58 2.19-14.93 9.36-29.06 21.1-40.41 0.4-0.2 0.4-0.6 0-0.99-0.2-0.2-0.6-0.2-0.8 0z"
   style="fill:#009933;fill-opacity:1" /><path
   id="path3219"
   fill="#f7c608"
   d="m321.27 264.33c6.17 16.72 19.7 29.86 36.81 35.23l-10.14-0.2v13.14c-21.3-8.36-37.62-26.47-43.59-48.97l12.74 10.36 4.18-9.56z"
   style="fill:#cc9966;fill-opacity:1" /><path
   id="path3223"
   fill="#319400"
   d="m424.15 205.02c-0.39 0-0.59-0.4-0.59-0.6 0-0.4 0.2-0.8 0.59-0.6 0.4 0 0.6 0.2 0.6 0.4h2.79v0.6l-2.79-0.2c0 0.2-0.4 0.4-0.6 0.4z" /><path
   id="path3225"
   fill="#319400"
   d="m425.55 207.01c-0.4 0-0.6-0.4-0.6-0.6 0-0.4 0.2-0.6 0.6-0.6 0.39 0 0.59 0.2 0.59 0.4l2.79 0.2v0.6l-2.79-0.4c-0.2 0.4-0.39 0.4-0.59 0.4z" /><path
   id="path3227"
   fill="#319400"
   d="m426.74 209c-0.4 0-0.6-0.4-0.6-0.6 0-0.4 0.4-0.6 0.8-0.6 0.2 0 0.4 0.2 0.4 0.4l2.98 0.4-0.2 0.4-2.78-0.4c0 0.4-0.4 0.4-0.6 0.4z" /><path
   id="path3229"
   fill="#319400"
   d="m428.13 211.19c-0.39 0-0.59-0.2-0.59-0.6 0.2-0.4 0.39-0.6 0.79-0.6 0.2 0 0.4 0.2 0.6 0.6l2.79 0.4-0.2 0.4-2.79-0.4c0 0.2-0.4 0.4-0.6 0.2z" /><path
   id="path3231"
   fill="#319400"
   d="m429.33 213.38c-0.2 0-0.6-0.4-0.4-0.8 0-0.2 0.4-0.4 0.8-0.4 0.19 0 0.39 0.4 0.39 0.6l2.79 0.79-0.2 0.4-2.59-0.79c-0.2 0.2-0.39 0.39-0.79 0.2z" /><path
   id="path3233"
   fill="#319400"
   d="m430.92 215.96c-0.2 0-0.6-0.39-0.4-0.59 0-0.4 0.4-0.6 0.8-0.6 0.2 0.2 0.4 0.4 0.4 0.6l2.78 0.79-0.2 0.4-2.58-0.8c-0.2 0.2-0.4 0.4-0.8 0.2z" /><path
   id="path3235"
   fill="#319400"
   d="m431.91 218.35c-0.39 0-0.59-0.4-0.39-0.79 0-0.2 0.39-0.4 0.79-0.4 0.2 0 0.4 0.2 0.4 0.59l2.79 0.6-0.2 0.6-2.59-0.8c-0.2 0.2-0.6 0.4-0.8 0.2z" /><path
   id="path3237"
   fill="#319400"
   d="m432.71 220.74c-0.4-0.2-0.6-0.4-0.4-0.8 0-0.39 0.4-0.59 0.8-0.39 0.2 0 0.4 0.2 0.4 0.39l2.78 0.8-0.2 0.4-2.58-0.6c-0.2 0.2-0.6 0.2-0.8 0.2z" /><path
   id="path3239"
   fill="#319400"
   d="m433.51 222.93c-0.2-0.2-0.4-0.6-0.2-1 0-0.19 0.4-0.39 0.79-0.39 0.2 0.2 0.4 0.39 0.4 0.59l2.59 1-0.2 0.4-2.59-0.8c-0.2 0.2-0.4 0.2-0.79 0.2z" /><path
   id="path3241"
   fill="#319400"
   d="m434.3 225.52c-0.2 0-0.4-0.4-0.2-0.8 0-0.2 0.4-0.4 0.8-0.2 0.2 0 0.4 0.2 0.4 0.6l2.58 0.99-0.19 0.4-2.59-0.99c-0.2 0.2-0.4 0.2-0.8 0z" /><path
   id="path3243"
   fill="#319400"
   d="m435.3 228.3c-0.4 0-0.6-0.39-0.4-0.79 0.2-0.2 0.4-0.4 0.8-0.4 0.19 0.2 0.39 0.4 0.39 0.6l2.59 1.19-0.2 0.4-2.59-1c-0.19 0.2-0.39 0.2-0.59 0z" /><path
   id="path3245"
   fill="#319400"
   d="m422.36 203.03c-0.2 0-0.59-0.2-0.59-0.6s0.39-0.6 0.79-0.6c0.2 0 0.4 0.2 0.6 0.4l2.78 0.2v0.4l-2.98-0.2c0 0.4-0.2 0.4-0.6 0.4z" /><path
   id="path3247"
   fill="#319400"
   d="m420.77 201.03c-0.2 0-0.6-0.19-0.6-0.59s0.4-0.6 0.8-0.6c0.2 0 0.4 0.2 0.6 0.4l2.78 0.2v0.4l-2.98-0.2c0 0.39-0.2 0.39-0.6 0.39z" /><path
   id="path3249"
   fill="#319400"
   d="m418.98 199.24c-0.4 0-0.8-0.39-0.6-0.79 0-0.2 0.2-0.6 0.6-0.6 0.2 0 0.4 0.2 0.6 0.4l2.78 0.2v0.4h-2.78c-0.2 0.19-0.4 0.39-0.6 0.39z" /><path
   id="path3251"
   fill="#319400"
   d="m417.59 197.05c-0.4-0.19-0.6-0.39-0.6-0.79s0.4-0.6 0.8-0.6c0.19 0.2 0.39 0.4 0.39 0.6l2.79 0.4v0.59l-2.79-0.59c-0.2 0.2-0.39 0.39-0.59 0.39z" /><path
   id="path3253"
   fill="#319400"
   d="m421.96 194.27c0-0.4 0.4-0.6 0.8-0.4 0.4 0 0.6 0.4 0.4 0.8 0 0.19-0.2 0.39-0.4 0.39l-0.8 2.79-0.39-0.2 0.59-2.79c-0.2 0-0.2-0.39-0.2-0.59z" /><path
   id="path3255"
   fill="#319400"
   d="m423.76 195.66c0-0.2 0.39-0.4 0.79-0.4 0.2 0 0.4 0.4 0.4 0.8 0 0.2-0.2 0.4-0.6 0.4l-0.59 2.78h-0.4l0.59-2.78c-0.19-0.2-0.39-0.4-0.19-0.8z" /><path
   id="path3257"
   fill="#319400"
   d="m425.55 197.45c0-0.4 0.39-0.59 0.79-0.4 0.4 0 0.4 0.4 0.4 0.8 0 0.2-0.4 0.4-0.6 0.4l-0.99 3.38h-0.4l1-3.58c-0.2 0-0.4-0.4-0.2-0.6z" /><path
   id="path3259"
   fill="#319400"
   d="m427.14 199.24c0.2-0.39 0.4-0.59 0.79-0.59 0.4 0.2 0.6 0.39 0.6 0.79-0.2 0.4-0.4 0.4-0.6 0.6l-0.99 3.38-0.4-0.2 1-3.38c-0.4-0.2-0.4-0.4-0.4-0.6z" /><path
   id="path3261"
   fill="#319400"
   d="m428.73 200.84c0-0.4 0.4-0.4 0.8-0.4 0.2 0.2 0.39 0.4 0.39 0.79-0.19 0.2-0.39 0.4-0.59 0.4l-1.2 3.39h-0.39l1.19-3.39c-0.2-0.2-0.4-0.6-0.2-0.79z" /><path
   id="path3263"
   fill="#319400"
   d="m430.52 203.03c0.2-0.2 0.4-0.4 0.8-0.4 0.4 0.2 0.59 0.59 0.4 0.99-0.2 0.2-0.4 0.4-0.6 0.4l-1.2 3.38-0.39-0.19 1.19-3.39c-0.2-0.2-0.4-0.4-0.2-0.79z" /><path
   id="path3265"
   fill="#319400"
   d="m432.11 205.41c0-0.39 0.4-0.39 0.8-0.39 0.2 0.19 0.4 0.59 0.4 0.79-0.2 0.2-0.4 0.4-0.6 0.4l-1.19 3.38-0.6-0.2 1.39-3.18c-0.2-0.2-0.4-0.6-0.2-0.8z" /><path
   id="path3267"
   fill="#319400"
   d="m433.51 207.4c0-0.19 0.39-0.39 0.79-0.19 0.2 0 0.4 0.39 0.2 0.79 0 0.2-0.2 0.4-0.6 0.4l-1.39 3.18-0.4-0.19 1.4-3.19c-0.2-0.2-0.2-0.4 0-0.8z" /><path
   id="path3269"
   fill="#319400"
   d="m434.9 209.99c0.2-0.4 0.6-0.4 0.8-0.4 0.39 0.2 0.59 0.6 0.39 1-0.2 0.2-0.39 0.4-0.59 0.2l-1.4 3.38-0.59-0.2 1.59-3.18c-0.2-0.2-0.4-0.6-0.2-0.8z" /><path
   id="path3271"
   fill="#319400"
   d="m436.09 211.78c0.2-0.2 0.6-0.39 0.8-0.2 0.4 0.2 0.4 0.6 0.2 1 0 0.2-0.4 0.2-0.6 0.2l-1.79 3.18-0.4-0.2 1.79-3.18c-0.2-0.2-0.2-0.4 0-0.8z" /><path
   id="path3273"
   fill="#319400"
   d="m437.09 214.17c0.2-0.2 0.6-0.4 0.79-0.2 0.4 0.2 0.4 0.6 0.4 0.8-0.2 0.2-0.4 0.4-0.79 0.4l-1.6 3.18-0.39-0.2 1.59-3.18c0-0.2-0.2-0.6 0-0.8z" /><path
   id="path3275"
   fill="#319400"
   d="m438.08 215.96c0.2-0.2 0.6-0.39 0.8-0.2 0.4 0.2 0.4 0.6 0.2 1-0.2 0.2-0.4 0.2-0.6 0.2l-1.99 2.98-0.4-0.19 1.99-2.99c-0.2-0.2-0.2-0.6 0-0.8z" /><path
   id="path3277"
   fill="#319400"
   d="m439.08 217.95c0.2-0.39 0.6-0.39 0.79-0.2 0.4 0.2 0.4 0.6 0.2 0.8s-0.39 0.4-0.79 0.4l-1.99 2.79-0.4-0.2 2.19-2.99c-0.2-0.2-0.2-0.4 0-0.6z" /><path
   id="path3279"
   fill="#319400"
   d="m439.68 219.94c0.19-0.19 0.59-0.19 0.79 0 0.4 0.2 0.4 0.6 0.2 0.8s-0.4 0.4-0.6 0.2l-1.99 2.99-0.39-0.2 1.99-2.99c-0.2-0.2-0.2-0.4 0-0.8z" /><path
   id="path3281"
   fill="#319400"
   d="m440.67 222.73c0.2-0.4 0.6-0.4 1-0.2 0.19 0.2 0.19 0.6 0 1-0.2 0.2-0.4 0.2-0.6 0.2l-2.19 2.78-0.4-0.4 2.19-2.78c-0.2-0.2-0.2-0.4 0-0.6z" /><path
   id="path3283"
   fill="#319400"
   d="m441.47 225.12c0.2-0.2 0.59-0.2 0.79 0s0.4 0.6 0.2 0.8c-0.2 0.39-0.6 0.39-0.79 0.39l-2.19 2.79-0.4-0.4 2.19-2.78c0-0.2 0-0.4 0.2-0.8z" /><path
   id="path3285"
   fill="#319400"
   d="m442.06 228.3c0.2-0.2 0.6-0.39 1 0 0.2 0.2 0.2 0.6 0 0.8s-0.4 0.2-0.6 0.2l-2.39 2.79-0.39-0.4 2.38-2.59c-0.2-0.4-0.2-0.6 0-0.8z" /><path
   id="path3287"
   fill="#319400"
   d="m442.46 231.69c0.2-0.2 0.6-0.4 1 0 0.2 0.2 0.2 0.59 0 0.79s-0.4 0.2-0.6 0.2l-2.39 2.79-0.4-0.4 2.39-2.79c-0.2-0.19-0.2-0.39 0-0.59z" /><path
   id="path3289"
   fill="#319400"
   d="m443.06 235.47c0.2-0.2 0.6-0.2 0.99 0 0.2 0.2 0.2 0.6 0 0.8-0.2 0.39-0.39 0.39-0.59 0.19l-2.39 2.79-0.4-0.2 2.39-2.78c-0.2-0.2-0.2-0.6 0-0.8z" /><path
   id="path3291"
   fill="#319400"
   d="m443.46 239.25c0.2-0.2 0.59-0.4 0.79 0 0.2 0.2 0.4 0.6 0 0.8-0.2 0.2-0.4 0.4-0.59 0.2l-2.39 2.58-0.4-0.19 2.39-2.59c0-0.4 0-0.6 0.2-0.8z" /><path
   id="path3293"
   fill="#319400"
   d="m443.46 243.03c0.39-0.39 0.79-0.39 0.99-0.2 0.2 0.4 0.2 0.8 0 1s-0.4 0.2-0.79 0.2l-2.39 2.39-0.4-0.2 2.59-2.59c-0.2-0.2-0.2-0.6 0-0.6z" /><path
   id="path3295"
   fill="#319400"
   d="m443.66 246.42c0.39-0.2 0.79-0.2 0.99 0 0.2 0.4 0 0.79-0.2 0.99s-0.6 0.2-0.79 0l-2.79 2.19-0.4-0.4 2.99-2.19c0-0.19 0-0.39 0.2-0.59z" /><path
   id="path3297"
   fill="#319400"
   d="m443.46 250c0.39-0.2 0.79 0 0.99 0.2 0.2 0.4 0 0.8-0.2 0.99h-0.79l-2.99 1.8-0.2-0.4 2.99-1.79c0-0.4 0-0.6 0.2-0.8z" /><path
   id="path3299"
   fill="#319400"
   d="m443.06 253.58c0.4-0.2 0.79 0 0.99 0.2 0 0.4 0 0.8-0.2 1h-0.79l-2.99 1.79-0.39-0.4 3.18-1.79c-0.2-0.4 0-0.6 0.2-0.8z" /><path
   id="path3301"
   fill="#319400"
   d="m442.66 257.17c0.4-0.2 0.8 0 1 0.19 0 0.4 0 0.8-0.4 0.8-0.2 0.2-0.6 0.2-0.8 0l-3.18 1.39-0.2-0.39 3.18-1.4c0-0.4 0.2-0.59 0.4-0.59z" /><path
   id="path3303"
   fill="#319400"
   d="m442.26 259.95c0.4-0.2 0.8 0 0.8 0.4 0.2 0.2 0 0.6-0.2 0.8-0.4 0-0.6 0-0.8-0.2l-3.18 1.59-0.2-0.4 3.18-1.59c0-0.2 0.2-0.4 0.4-0.6z" /><path
   id="path3305"
   fill="#319400"
   d="m441.67 262.54c0.19-0.2 0.59 0 0.79 0.4 0.2 0.2 0 0.59-0.2 0.79-0.4 0-0.59 0-0.79-0.2l-3.19 1.6-0.2-0.4 3.19-1.59c0-0.2 0.2-0.4 0.4-0.6z" /><path
   id="path3307"
   fill="#319400"
   d="m441.07 264.73c0.4-0.2 0.79 0 0.79 0.2 0.2 0.4 0.2 0.79 0 0.99-0.39 0-0.59 0-0.79-0.2l-3.78 2.59-0.4-0.4 3.98-2.58c-0.2-0.2 0-0.4 0.2-0.6z" /><path
   id="path3309"
   fill="#319400"
   d="m435.89 231.29c-0.39-0.2-0.39-0.6-0.39-1 0.2-0.19 0.59-0.39 0.99-0.19 0.2 0 0.2 0.39 0.2 0.59l3.38 1.59-0.2 0.4-3.38-1.59c-0.2 0.2-0.4 0.2-0.6 0.2z" /><path
   id="path3311"
   fill="#319400"
   d="m436.49 234.28c-0.2-0.2-0.4-0.6-0.2-0.8 0.2-0.4 0.6-0.4 0.8-0.2 0.4 0.2 0.4 0.4 0.4 0.6l2.98 1.99-0.2 0.4-2.98-1.99c-0.2 0.19-0.6 0.19-0.8 0z" /><path
   id="path3313"
   fill="#319400"
   d="m436.69 237.66c-0.4-0.2-0.4-0.6-0.2-0.8 0.2-0.4 0.6-0.4 0.8-0.2s0.4 0.4 0.4 0.6l2.98 1.99-0.2 0.4-3.18-1.99c-0.2 0.2-0.4 0.2-0.6 0z" /><path
   id="path3315"
   fill="#319400"
   d="m437.09 241.04c-0.4-0.2-0.4-0.59-0.2-0.99 0.2-0.2 0.6-0.2 0.99 0 0.2 0.2 0.2 0.4 0.2 0.59l2.79 2.19-0.2 0.4-2.98-2.19c-0.2 0.2-0.4 0.2-0.6 0z" /><path
   id="path3317"
   fill="#319400"
   d="m437.09 244.43c-0.2-0.2-0.2-0.6 0-0.8 0.2-0.4 0.6-0.4 0.79-0.2 0.2 0.2 0.4 0.4 0.2 0.8l2.99 2.19-0.4 0.4-2.79-2.19c-0.19 0-0.39 0-0.79-0.2z" /><path
   id="path3319"
   fill="#319400"
   d="m437.09 247.41c-0.4-0.2-0.4-0.59 0-0.99 0.2-0.2 0.6-0.2 0.79 0 0.2 0.2 0.2 0.59 0.2 0.79l2.59 2.39-0.4 0.4-2.58-2.59c-0.2 0.2-0.4 0.2-0.6 0z" /><path
   id="path3321"
   fill="#319400"
   d="m436.89 250.2c-0.2-0.2-0.2-0.6 0-1 0.2-0.2 0.6-0.2 0.8 0 0.19 0.2 0.39 0.6 0.19 0.8l2.59 2.39-0.2 0.4-2.58-2.59c-0.4 0.2-0.6 0.2-0.8 0z" /><path
   id="path3323"
   fill="#319400"
   d="m436.69 253.38c-0.2-0.2-0.2-0.59 0-0.79 0.2-0.4 0.6-0.2 0.8 0s0.39 0.4 0.2 0.59l2.38 2.79-0.39 0.2-2.39-2.59c-0.2 0-0.4 0-0.6-0.2z" /><path
   id="path3325"
   fill="#319400"
   d="m436.09 256.17c-0.2-0.4-0.2-0.8 0-0.99 0.4-0.2 0.8-0.2 1 0.19 0 0.2 0.2 0.4 0 0.6l2.19 2.99-0.4 0.2-2.19-2.79c-0.2 0-0.6 0-0.6-0.2z" /><path
   id="path3327"
   fill="#319400"
   d="m434.5 262.54c-0.2-0.4-0.2-0.8 0.2-1 0.2-0.19 0.6-0.19 0.8 0.2 0.2 0.2 0.2 0.4 0 0.6l2.19 2.99-0.4 0.2-2.19-2.79c-0.2 0-0.4 0-0.6-0.2z" /><path
   id="path3329"
   fill="#319400"
   d="m433.11 265.53c-0.2-0.4 0-0.8 0.2-1 0.4-0.2 0.79 0 0.99 0.2v0.8l1.99 3.38-0.4 0.2-1.99-3.39c-0.39 0-0.59 0-0.79-0.19z" /><path
   id="path3331"
   fill="#319400"
   d="m435.3 258.96c-0.2-0.4-0.2-0.8 0.2-1 0.2-0.2 0.59 0 0.79 0.2s0.2 0.6 0 0.8l2.19 3.38-0.4 0.2-2.19-3.38c-0.19 0-0.39 0-0.59-0.2z" /><path
   id="path3333"
   fill="#319400"
   d="m419.38 194.47c11.94 11.74 19.5 25.87 21.69 41.2 2.19 15.52-1.2 31.25-9.75 45.38-0.2 0.4-0.8 0.4-1 0.2-0.4-0.2-0.4-0.6-0.2-0.8 8.36-13.93 11.74-29.26 9.56-44.58-2.19-14.93-9.36-29.06-21.1-40.41-0.4-0.2-0.4-0.6 0-0.99 0.2-0.2 0.6-0.2 0.8 0z"
   style="fill:#009933;fill-opacity:1" /><path
   id="path5676"
   d="m323.78 237.08a51.885 51.885 0 1 1 -103.77 0 51.885 51.885 0 1 1 103.77 0z"
   transform="translate(103.1 7.4297)"
   stroke="#319400"
   stroke-width="2.5"
   fill="none"
   style="stroke:#009933;stroke-opacity:1" /><path
   id="path3335"
   fill="#f7c608"
   d="m428.73 264.33c-6.17 16.72-19.7 29.86-36.81 35.23l10.14-0.2v13.14c21.3-8.36 37.62-26.47 43.59-48.97l-12.74 10.36-4.18-9.56z"
   style="fill:#cc9966;fill-opacity:1" /><path
   id="path5678"
   d="m328.7 237.08a56.802 56.802 0 1 1 -113.6 0 56.802 56.802 0 1 1 113.6 0z"
   transform="translate(103.1 7.4297)"
   stroke="#f7c608"
   stroke-width="2.5"
   fill="none"
   style="stroke:#cc9966;stroke-opacity:1" /><path
   id="path5681"
   d="m325.27 256.51a56.802 56.802 0 0 1 -106.75 0"
   transform="translate(103.1 7.4297)"
   stroke="#952038"
   stroke-width="2.5"
   fill="none" /><path
   id="path2481"
   d="m367.48 205.74c-0.13 0-0.28 0.01-0.41 0.07-0.15 0.05-0.29 0.12-0.43 0.21-0.06 0.1-0.2 0.1-0.31 0.12-0.1 0.01-0.2-0.03-0.29-0.04-0.11 0.05-0.22 0.06-0.34 0.08-0.07-0.07-0.14-0.14-0.24-0.16-0.09-0.02-0.16-0.06-0.24-0.09-0.06 0.06-0.09 0.14-0.18 0.15-0.07 0.02-0.14 0.06-0.2 0.01-0.06-0.04-0.14-0.02-0.2-0.05-0.09-0.07-0.21-0.11-0.32-0.14-0.06 0.06-0.11 0.14-0.18 0.19-0.12 0.05-0.25 0.08-0.38 0.09s-0.24 0.1-0.36 0.11c-0.09 0.04-0.18-0.03-0.26-0.05-0.05-0.05-0.11-0.08-0.15-0.14-0.13-0.04-0.27-0.01-0.39-0.04-0.18-0.01-0.36 0.02-0.54-0.01-0.11 0.01-0.21 0.09-0.33 0.11-0.07 0.01-0.15 0.03-0.23-0.01-0.09 0-0.2 0.04-0.29-0.02-0.06-0.02-0.11 0.06-0.17 0.08-0.08 0.04-0.16 0.09-0.24 0.11-0.22-0.03-0.44 0.01-0.66 0.01-0.17 0.01-0.33-0.01-0.49 0.01-0.22 0.05-0.45 0.11-0.67 0.18-0.09 0.06-0.17 0.15-0.28 0.15-0.15 0.02-0.27 0.14-0.36 0.25-0.04 0.06-0.1 0.1-0.17 0.11-0.06 0.03-0.12 0.05-0.18 0-0.07-0.05-0.13-0.05-0.18 0.01-0.06 0.03-0.11 0.1-0.17 0.08-0.09-0.03-0.18-0.01-0.26 0.01-0.1 0.05-0.21 0.08-0.28 0.18-0.1 0.1-0.19 0.22-0.31 0.29-0.15 0.07-0.3 0.14-0.46 0.18-0.17 0.05-0.35-0.05-0.52-0.05-0.09 0.01-0.18 0.02-0.26-0.02-0.11-0.03-0.17-0.14-0.27-0.18-0.06-0.06-0.14 0.03-0.22 0.01-0.14 0.01-0.28 0.01-0.43-0.01-0.09 0.01-0.17 0-0.26-0.04-0.15 0.04-0.3 0.09-0.45 0.11-0.08-0.03-0.17-0.03-0.22-0.11-0.11-0.11-0.27-0.17-0.36-0.31-0.07-0.08-0.13-0.18-0.15-0.29-0.03-0.05-0.03-0.15-0.09-0.15-0.12 0.04-0.24 0.06-0.37 0.08-0.06 0.04-0.11 0.07-0.13 0.14-0.16 0.27-0.34 0.52-0.47 0.81-0.06 0.12-0.12 0.24-0.2 0.36-0.11 0.11-0.23 0.2-0.3 0.34-0.06 0.09-0.11 0.17-0.2 0.23-0.16 0.16-0.38 0.25-0.58 0.34s-0.4 0.16-0.61 0.21c-0.18 0.06-0.36 0.11-0.53 0.19-0.1 0.07-0.21 0.15-0.29 0.25-0.15 0.18-0.35 0.31-0.52 0.48-0.07 0.04-0.03 0.14-0.05 0.21-0.01 0.08-0.08 0.15-0.12 0.23-0.04 0.05-0.08 0.1-0.11 0.16 0.08-0.02-0.05 0.03-0.09 0.04-0.05 0.04-0.14 0.04-0.13 0.12-0.13 0.18-0.29 0.33-0.41 0.52-0.1 0.18-0.11 0.4-0.16 0.6-0.02 0.06-0.07 0.13-0.06 0.19 0.04 0.14 0.13 0.27 0.1 0.43-0.01 0.12-0.02 0.26-0.11 0.36-0.08 0.12-0.21 0.2-0.29 0.33-0.08 0.09-0.13 0.19-0.2 0.29-0.08 0.1-0.18 0.2-0.31 0.24-0.08 0.12-0.21 0.19-0.32 0.27-0.16 0.06-0.33 0.09-0.46 0.2-0.15 0.08-0.28 0.2-0.41 0.32-0.11 0.06-0.2 0.16-0.34 0.17-0.17 0.04-0.33 0.11-0.49 0.15-0.16 0.03-0.32 0.08-0.48 0.05-0.09-0.02-0.17 0.02-0.26 0.04-0.06 0.09-0.09 0.21-0.19 0.26-0.11 0.1-0.18 0.23-0.27 0.33-0.1 0.16-0.21 0.31-0.28 0.48-0.04 0.06-0.05 0.14-0.13 0.17-0.15 0.09-0.28 0.2-0.45 0.25-0.1 0.05-0.23 0.06-0.29 0.15-0.1 0.11-0.22 0.21-0.31 0.32-0.08 0.2-0.16 0.41-0.28 0.59-0.07 0.12-0.15 0.23-0.18 0.37-0.03 0.09-0.05 0.19-0.12 0.26-0.11 0.12-0.2 0.27-0.31 0.39-0.22 0.21-0.46 0.4-0.67 0.63-0.09 0.08-0.12 0.2-0.17 0.31-0.16 0.22-0.36 0.42-0.53 0.64 0 0.07 0.05 0.15-0.02 0.21-0.1 0.11-0.19 0.24-0.26 0.38-0.07 0.11-0.14 0.23-0.22 0.32-0.08 0.04-0.17 0.07-0.24 0.11-0.09 0.17-0.19 0.33-0.28 0.5-0.05 0.26-0.15 0.5-0.21 0.76 0 0.05-0.04 0.19 0.04 0.12 0.04-0.01 0.14-0.12 0.14-0.03 0.04 0.15 0.12 0.28 0.13 0.43 0.03 0.05 0 0.2 0.07 0.14 0.07-0.03 0.09-0.14 0.12-0.02 0.07 0.12 0.13 0.25 0.15 0.38s-0.1 0.21-0.09 0.33c-0.02 0.13-0.07 0.25-0.12 0.37-0.05 0.09-0.1 0.18-0.18 0.26-0.1-0.05-0.05 0.06-0.02 0.11 0.08 0.14 0.15 0.29 0.26 0.41 0.04 0.08 0.07 0.16 0.05 0.25-0.01 0.22 0 0.45-0.05 0.67-0.04 0.21-0.07 0.42-0.12 0.62-0.1 0.24-0.21 0.47-0.34 0.69-0.06 0.1-0.11 0.22-0.13 0.34-0.05 0.15-0.09 0.31-0.1 0.47-0.03 0.19-0.04 0.38-0.07 0.56-0.08 0.15-0.2 0.29-0.29 0.44s-0.2 0.3-0.32 0.43c-0.09 0.12-0.2 0.22-0.31 0.31-0.04 0.06-0.11 0.13-0.05 0.2 0.1 0.09 0.2 0.2 0.27 0.32 0.08 0.18 0.14 0.36 0.2 0.54 0.04 0.08 0.1 0.16 0.14 0.24-0.02 0.11 0.05 0.22 0.07 0.33 0.01 0.06-0.01 0.13 0.05 0.18 0.05-0.02 0.1-0.07 0.14-0.11 0.03-0.01 0.06-0.05 0.1-0.04 0.03 0.05 0.08 0 0.13 0.01 0.08 0 0.16-0.01 0.24-0.01 0.06 0.01 0.12-0.08 0.16-0.02 0.04 0.01 0.07-0.09 0.11-0.04 0.03 0.04 0.07 0 0.1 0.04s0.12 0.08 0.14 0.01c0.03 0-0.02 0.08-0.06 0.05-0.06 0.01-0.08-0.05-0.12-0.06-0.04 0.03-0.08-0.06-0.11 0-0.02 0.03-0.07 0.06-0.09 0.02-0.05 0.01-0.11 0.04-0.17 0.03-0.04-0.01-0.06 0-0.1 0.01-0.08-0.01-0.15 0.03-0.23 0-0.04-0.04-0.05 0.03-0.09 0.04-0.03 0.02-0.03 0.07-0.01 0.1-0.04 0.07 0.07 0 0.04 0.03-0.03 0.04-0.09 0.02-0.06-0.03-0.02-0.06-0.1-0.01-0.12 0.02-0.05 0.04-0.14 0.01-0.17-0.05-0.06-0.03-0.08-0.1-0.12-0.15-0.07 0.03-0.08 0.1-0.09 0.16-0.05 0.08-0.03 0.17-0.01 0.25-0.06 0.21-0.08 0.42-0.1 0.63-0.01 0.07-0.08 0.15-0.02 0.21 0.04 0.06 0.06 0.14 0.15 0.15 0.1 0.04 0.21 0.08 0.31 0.11 0 0.09-0.02 0.19 0.05 0.26 0.03 0.06 0.12 0.05 0.18 0.07 0.06 0.03 0.17-0.05 0.15 0.05-0.02 0.07 0 0.15 0.09 0.14 0.18-0.01 0.32-0.14 0.5-0.18 0.14-0.04 0.3-0.02 0.45-0.05 0.1-0.03 0.1 0.02 0.06 0.1-0.16 0.01-0.33-0.02-0.48 0.05-0.04 0.05-0.14 0.07-0.14 0.12 0.01 0.08 0.07 0.15 0.08 0.22-0.02 0.1-0.09 0.18-0.06 0.28 0 0.08 0.06 0.13 0.09 0.19 0.09 0.05 0.18 0.03 0.27 0.01-0.06 0.07-0.06 0.17-0.09 0.25 0.03 0.06 0.08 0.11 0.12 0.16 0.07 0 0.12-0.04 0.15-0.11 0.05-0.05 0.08-0.14 0.16-0.14-0.02 0.09-0.02 0.18 0.01 0.26-0.04 0.08 0.06 0.1 0.12 0.1 0.1-0.02 0.03 0.08 0.05 0.14-0.01 0.15 0.04 0.28 0.11 0.41 0.04 0.07 0.13 0.08 0.18 0.14 0.09 0.07 0.17 0.15 0.28 0.17 0.1 0.09 0.2 0.19 0.27 0.31 0.05 0.04 0.12 0.07 0.11 0.15 0 0.12 0.13 0.16 0.17 0.26 0.05 0.1 0.14 0.16 0.15 0.27 0.02 0.07 0.05 0.13 0.04 0.2 0.05 0.06 0.1 0.14 0.06 0.22-0.03 0.07 0.01 0.14 0.02 0.21 0.03 0.04 0.15 0.07 0.08 0.13-0.07 0.08-0.11 0.19-0.08 0.29-0.01 0.1 0.07 0.09 0.14 0.09 0.05 0.01 0.1 0.07 0.14 0.11 0 0.09-0.01 0.18 0.01 0.27 0.06 0.11 0.21 0.15 0.28 0.25 0.05 0.07 0.15 0.12 0.15 0.22 0 0.08 0.02 0.17 0.11 0.19 0.25 0.13 0.52 0.23 0.77 0.37 0.13 0.06 0.21 0.2 0.34 0.27 0.06 0.02 0.1 0.11 0.01 0.12-0.01 0.05 0.04 0.11 0.11 0.12 0.04 0.05 0.08 0.11 0.15 0.11 0.09 0.02 0.18 0.04 0.24 0.11 0.12 0.06 0.17 0.2 0.3 0.25 0.13 0.07 0.27 0.11 0.37 0.22 0.32 0.23 0.55 0.55 0.83 0.82 0.13 0.13 0.25 0.27 0.4 0.37 0.16 0.13 0.34 0.24 0.51 0.35 0.35 0.11 0.7 0.24 1.04 0.4 0.1-0.04 0.24 0 0.33-0.08 0.15-0.11 0.34-0.16 0.5-0.26 0.26-0.11 0.52-0.21 0.79-0.29 0.13-0.06 0.25-0.15 0.4-0.17 0.13-0.02 0.27-0.09 0.41-0.06 0.28-0.06 0.57-0.08 0.86-0.12 0.24-0.04 0.49-0.06 0.74-0.06 0.14-0.02 0.25 0.09 0.39 0.1 0.21 0.03 0.41 0.09 0.62 0.14 0.16 0.02 0.33 0.03 0.49 0.07 0.23 0.07 0.45 0.18 0.68 0.27 0.18-0.09 0.39-0.16 0.53-0.32 0.07-0.07 0.18-0.08 0.27-0.12 0.21-0.05 0.43-0.09 0.64-0.14 0.31-0.2 0.64-0.38 0.97-0.53 0.15-0.05 0.3-0.07 0.46-0.08 0.07-0.01 0.03-0.03 0.02-0.07s0.03-0.09-0.01-0.13c-0.02-0.05-0.06-0.09-0.11-0.1-0.02-0.04-0.07-0.04-0.1-0.07-0.05 0-0.07 0.09-0.12 0.04-0.05-0.01-0.08-0.08-0.13-0.07 0.04-0.04 0.09 0.02 0.12 0.05 0.04 0 0.08 0.02 0.09-0.03 0.06-0.01 0.12 0.02 0.15 0.06 0.08 0.04 0.15 0.12 0.13 0.21-0.02 0.03 0.04 0.07 0.04 0.09 0.01 0 0.12-0.04 0.13 0.03 0.05 0.06 0.12 0 0.19 0 0.07-0.01 0.08-0.1 0.13-0.15 0.05-0.06 0.09-0.13 0.15-0.19 0.13-0.05 0.25-0.1 0.39-0.13 0.23-0.06 0.47-0.13 0.72-0.12 0.23-0.01 0.45-0.06 0.67-0.06 0.13-0.02 0.27-0.01 0.41-0.02 0.28-0.02 0.56-0.05 0.84-0.04 0.18 0.03 0.36 0.02 0.54 0.08 0.11 0.04 0.2 0.12 0.31 0.17 0.08 0.04 0.16 0.07 0.2 0.16 0.05 0.07 0.11 0.14 0.14 0.23 0.08-0.01 0.1 0.06 0.12 0.12 0.04 0.06 0.1 0.09 0.11 0.16 0.03 0.06 0.02 0.16 0.1 0.16 0.03 0.04 0.17 0.03 0.15 0.05-0.07 0.03-0.12 0.07-0.09 0.15-0.01 0.18 0.06 0.35 0.1 0.52 0.13 0.12 0.25 0.25 0.33 0.41 0.03 0.05 0.12 0.04 0.18 0.07 0.09 0.04 0.19 0 0.29 0 0.02 0.05 0.02 0.15 0.05 0.18 0.12-0.06 0.24-0.11 0.36-0.18 0.04 0.09 0.1-0.06 0.16 0.01 0.06 0.08 0.1-0.02 0.17-0.01 0.07-0.02 0.11-0.08 0.15-0.14 0.09-0.02 0.12-0.1 0.16-0.17 0.17 0.05 0.32 0.14 0.48 0.2 0.23-0.03 0.47-0.02 0.7-0.01 0.01-0.13 0.02-0.26 0.08-0.37 0-0.09 0.1-0.03 0.14 0 0.03 0.06 0.09 0.11 0.11 0.17-0.02 0.06-0.02 0.13 0.05 0.15 0.06 0.06 0.13-0.03 0.19-0.01 0.06 0.01 0.16-0.04 0.17 0.05 0.05 0.16 0.1 0.32 0.19 0.45 0.13 0.07 0.27 0.14 0.41 0.17 0.09 0.02 0.09-0.07 0.14-0.1 0.06 0 0.13-0.02 0.18 0.04 0 0.09 0.03 0.2-0.04 0.27-0.09-0.01-0.08 0.1-0.03 0.14 0.06 0.08 0.09 0.18 0.18 0.25 0.06 0.06 0.11 0.13 0.17 0.2-0.07 0.07-0.04 0.18-0.08 0.26-0.07 0.25-0.12 0.51-0.12 0.77-0.04 0.13-0.05 0.26-0.04 0.39-0.07 0.13-0.16 0.25-0.17 0.4-0.02 0.18-0.18 0.3-0.25 0.46 0.1 0.06 0.19 0.12 0.29 0.18 0.04 0.06-0.05 0.12-0.05 0.12 0 0.1 0.02 0.2 0.01 0.3-0.03 0.07-0.08 0.11-0.16 0.1-0.07-0.02-0.1 0.1-0.06 0.14 0.06 0.14 0.2 0.21 0.32 0.3 0.09 0.02 0.19 0.02 0.25 0.09-0.03 0.08-0.1 0.06-0.17 0.05-0.11 0.01-0.21-0.02-0.31-0.07-0.05-0.05-0.09-0.11-0.17-0.11-0.03 0.04-0.01 0.13-0.02 0.19 0 0.19-0.02 0.39-0.05 0.58-0.09 0.07-0.18 0.15-0.24 0.25-0.04 0.07-0.13 0.09-0.2 0.11-0.12-0.01-0.03 0.07 0 0.13 0.07 0.15 0.15 0.31 0.21 0.47 0.08 0.25 0.17 0.49 0.28 0.73 0.19 0.15 0.32 0.35 0.47 0.54 0.11 0.11 0.17 0.25 0.27 0.37 0.2 0.19 0.44 0.34 0.64 0.54 0.17 0.16 0.31 0.36 0.49 0.51 0.12 0.09 0.12 0.26 0.21 0.35 0.08 0.05 0.18 0.07 0.25 0.13 0.09 0.14 0.2 0.26 0.32 0.37 0.1 0.08 0.18 0.18 0.24 0.29 0.05 0.15 0.13 0.3 0.2 0.45 0.05 0.05 0.12 0.1 0.12 0.18 0.02 0.12 0.05 0.24 0.03 0.36-0.01 0.07 0.01 0.14 0.04 0.21 0.06 0.08 0.13 0.15 0.21 0.21 0.02 0.02 0.06 0.05 0.07 0.07-0.03-0.05 0.07-0.04 0.08-0.01 0 0.04-0.09 0.05-0.02 0.07 0.04-0.01 0.08-0.04 0.12-0.06 0.05-0.04 0.12 0.02 0.17-0.03 0.03-0.03 0.02-0.07 0.05-0.1 0.02-0.03 0.07-0.02 0.1-0.04 0.04-0.01 0.07-0.04 0.11-0.02 0.05 0 0.08 0.05 0.13 0.03 0.04 0.02 0.09 0.04 0.13 0.01 0.04 0-0.04 0.04-0.06 0.04-0.04 0.03-0.06-0.04-0.1 0-0.04-0.01-0.09 0-0.09 0.04-0.03 0.06-0.09 0.07-0.14 0.1-0.04 0.01-0.08-0.01-0.12 0-0.05-0.04-0.08 0.05-0.13 0.03-0.04 0-0.06 0.01-0.1 0.02-0.05 0.04-0.11 0.01-0.17 0.03-0.04 0.01-0.09 0.03-0.09 0.08 0 0.06 0.02 0.12 0.03 0.18 0.06 0.16 0.18 0.27 0.25 0.43 0.09 0.15 0.21 0.27 0.3 0.42 0.09 0.17 0.09 0.36 0.16 0.54 0.07 0.21 0.11 0.44 0.21 0.64 0.03 0.08 0.12 0.13 0.13 0.23 0.05 0.16 0.08 0.33 0.06 0.49 0.02 0.09-0.09 0.13-0.13 0.2-0.04 0.05-0.09 0.1-0.12 0.16-0.01 0.18 0.07 0.34 0.1 0.51 0.04 0.19 0.1 0.38 0.17 0.55 0.07 0.09 0.13 0.18 0.16 0.29 0.02 0.06 0.05 0.12 0.11 0.16 0.07 0.05 0.15 0.1 0.2 0.16 0.02 0.13 0.04 0.25 0.08 0.38-0.02 0.06-0.09 0.11-0.09 0.17 0.02 0.14 0.04 0.3-0.02 0.43-0.02 0.13 0 0.25-0.01 0.38-0.03 0.15-0.04 0.3-0.11 0.44-0.08 0.22-0.24 0.39-0.39 0.55-0.14 0.06-0.28 0.12-0.41 0.19-0.02 0.09-0.02 0.19-0.04 0.27-0.09 0.11-0.19 0.19-0.3 0.27-0.06 0.14-0.13 0.28-0.13 0.43-0.04 0.05-0.09 0.1-0.07 0.17 0.01 0.12-0.07 0.21-0.1 0.32-0.06 0.11-0.07 0.23-0.09 0.35-0.08 0.15-0.05 0.33-0.12 0.49-0.05 0.14 0 0.3-0.08 0.43-0.08 0.17-0.09 0.37-0.16 0.54-0.03 0.09-0.12 0.14-0.16 0.22-0.04 0.27-0.03 0.55-0.01 0.83 0.01 0.07 0.03 0.18 0 0.05 0.02-0.05-0.13-0.14-0.1-0.05-0.01 0.21 0.05 0.42 0.07 0.63 0 0.14-0.02 0.27-0.01 0.41-0.02 0.14 0 0.28 0.06 0.41 0.01 0.09-0.01 0.19 0.05 0.27 0.08 0.15 0.15 0.3 0.26 0.43 0.03 0.05 0.09 0.08 0.14 0.11 0.08 0.06 0.14 0.15 0.19 0.24 0.04 0.08 0.07 0.17 0.15 0.23s0.07 0.17 0.14 0.24c0.04 0.08 0.14 0.13 0.14 0.23 0.04 0.13 0.14 0.23 0.17 0.36 0.05 0.13 0.15 0.23 0.21 0.35 0.06 0.09 0.14 0.17 0.15 0.29 0.01 0.09 0.1 0.15 0.11 0.25 0.05 0.18 0.15 0.35 0.25 0.52 0.09 0.17 0.2 0.33 0.33 0.47 0 0.11 0.05 0.2 0.1 0.29 0.13 0.16 0.27 0.31 0.39 0.47 0.07 0.15 0.16 0.31 0.18 0.48 0.04 0.19 0 0.38-0.02 0.56 0.03 0.25 0.01 0.5 0.03 0.74 0 0.15-0.03 0.3 0.02 0.44 0.02 0.12 0.11 0.21 0.13 0.34 0.06 0.18 0.19 0.33 0.24 0.51 0.05 0.16-0.04 0.32-0.01 0.49 0.01 0.17 0.01 0.36 0.09 0.52 0.04 0.07 0.08 0.14 0.1 0.22 0 0.06-0.04 0.13-0.02 0.19 0.07 0.11 0.12 0.24 0.12 0.37 0.01 0.13 0.03 0.26 0.09 0.38 0.04 0.14 0.03 0.3 0.07 0.44 0.12 0.13 0.23 0.27 0.34 0.41 0.09 0.14 0.12 0.31 0.25 0.42 0.07 0.08 0.16 0.13 0.25 0.2 0.11 0.09 0.2 0.21 0.31 0.31 0.08-0.02 0.15 0.03 0.18 0.1 0 0.06-0.03 0.14 0.03 0.19 0.07 0.09 0.19 0.15 0.22 0.28 0.07 0.2 0.15 0.39 0.23 0.59 0.08 0.28 0.16 0.57 0.3 0.83 0.06 0.12 0.1 0.26 0.2 0.36 0.08 0.11 0.09 0.26 0.17 0.38 0.06 0.13 0.17 0.24 0.24 0.37 0.1 0.16 0.21 0.31 0.28 0.48 0.04 0.11 0.02 0.22 0.03 0.33 0 0.13 0.02 0.26 0.01 0.39-0.05 0.09-0.11 0.18-0.18 0.26-0.07-0.03-0.13-0.05-0.2-0.08-0.05 0.07-0.07 0.15-0.07 0.23-0.03 0.08 0.07 0.07 0.11 0.12 0.05 0.02 0.12 0.14 0.06 0.15-0.08 0.02 0.04 0.11 0.05 0.15 0.03 0.06 0.11 0.07 0.12 0.14 0.05 0.12 0.13 0.21 0.21 0.3 0 0.07 0.02 0.14-0.03 0.19-0.08 0.11-0.05 0.25-0.05 0.38 0.04 0.03 0.06 0.15 0.11 0.13 0.03-0.04-0.02-0.12 0-0.18-0.01-0.07 0.05-0.13 0.12-0.12 0.07-0.02 0.14 0 0.22 0 0 0.11 0.01 0.21-0.02 0.31 0.05 0.04 0.12 0.04 0.19 0.03s0.16-0.02 0.23 0c0.07 0.05 0.07 0.11 0.05 0.18 0.03 0.06 0.12 0.06 0.16 0.1 0.08 0.05 0.18-0.02 0.25 0.04 0.1 0.04 0.22 0.03 0.32 0.02 0.07-0.02 0.15-0.02 0.19-0.09 0.05-0.04 0.09-0.11 0.15-0.14 0.1-0.01 0.2-0.02 0.31-0.02 0.04-0.05 0.11-0.07 0.17-0.07 0.13-0.02 0.25 0.02 0.38 0.04 0.04-0.05 0.1-0.07 0.17-0.05 0.13 0.01 0.26 0.05 0.38 0 0.02-0.06 0.02-0.15 0.1-0.15 0.12-0.03 0.22-0.1 0.31-0.19 0.18-0.01 0.36-0.06 0.54 0.01 0.12 0.02 0.23 0.08 0.34 0.1 0.07 0 0.14 0 0.19-0.06 0.05-0.05 0.11-0.08 0.19-0.07 0.15-0.02 0.31 0.03 0.46 0.06 0.2 0.05 0.39 0.11 0.58 0.17 0.08 0.01 0.16 0.01 0.24 0.01 0.05-0.07 0.09-0.15 0.15-0.21 0.11 0 0.21-0.02 0.31 0.02 0.13 0.05 0.26 0.06 0.4 0.08 0.01-0.07 0.03-0.13-0.01-0.2-0.06-0.07 0.02-0.11 0.08-0.13 0.14-0.05 0.3-0.04 0.46-0.03s0.32 0.04 0.49 0c0.39-0.09 0.71-0.35 1.07-0.54 0.18-0.1 0.31-0.25 0.46-0.38 0.16-0.13 0.36-0.2 0.49-0.35 0.14-0.14 0.3-0.26 0.44-0.39 0.16-0.2 0.32-0.4 0.52-0.55 0.22-0.14 0.42-0.3 0.62-0.46 0.14-0.16 0.27-0.32 0.4-0.48 0.1-0.11 0.2-0.22 0.28-0.35 0.12-0.2 0.27-0.37 0.39-0.57 0.04-0.12 0.16-0.18 0.2-0.3 0.03-0.09 0.11-0.15 0.16-0.23 0.11-0.13 0.21-0.26 0.33-0.36 0.09-0.06 0.18-0.1 0.29-0.12 0.11-0.05 0.21-0.14 0.31-0.21 0.14-0.06 0.21-0.19 0.31-0.3 0.06-0.19 0.1-0.39 0.18-0.57 0.07-0.11 0.13-0.22 0.16-0.35 0.04-0.1 0.03-0.23 0.07-0.33 0.07-0.12 0.15-0.23 0.18-0.36 0.03-0.09 0.04-0.18 0.06-0.27 0.04-0.04 0.03-0.12 0.05-0.18 0.01-0.17 0.05-0.34 0.09-0.51-0.04 0.07-0.1 0.13-0.17 0.17-0.06 0.03-0.08-0.1-0.11-0.13-0.04-0.07-0.1-0.11-0.15-0.17 0.07 0.01 0.09-0.08 0.14-0.12 0.14-0.12 0.2-0.31 0.36-0.41 0.12-0.01 0.24-0.06 0.35-0.12 0.1-0.06 0.18-0.14 0.29-0.17 0.25-0.1 0.51-0.2 0.77-0.27 0.12-0.01 0.24-0.01 0.35-0.06 0.12-0.04 0.24-0.07 0.34-0.15 0.11-0.07 0.21-0.14 0.29-0.23 0.11-0.11 0.22-0.22 0.29-0.36 0.06-0.1 0.09-0.22 0.12-0.33 0.03-0.1-0.06 0.04-0.1 0.06-0.07 0.06-0.09 0.15-0.14 0.22 0-0.1-0.03-0.2 0.03-0.29 0.11-0.24 0.17-0.5 0.29-0.74 0.07-0.23 0.08-0.47 0.14-0.7 0.03-0.15 0.05-0.31 0.06-0.47-0.04-0.07-0.09-0.08-0.15-0.01s-0.06-0.08-0.06-0.12c0-0.15 0.03-0.31-0.02-0.46-0.04-0.19-0.11-0.37-0.13-0.57 0-0.07-0.01-0.13-0.04-0.19 0.01-0.07 0.02-0.15-0.04-0.21-0.06-0.1-0.17-0.16-0.25-0.25-0.03-0.05-0.01-0.13-0.03-0.19 0.03-0.19 0.09-0.38 0.11-0.58 0.08-0.02 0.17-0.02 0.23-0.06 0.09-0.09 0.16-0.19 0.27-0.24s0.21-0.14 0.3-0.23c0.15-0.13 0.29-0.26 0.42-0.41 0.05-0.07 0.16-0.08 0.22-0.13 0.04-0.1 0.09-0.2 0.15-0.29 0.02 0.06 0.02 0.14 0.06 0.19 0.06 0.06 0.11 0.05 0.14-0.03 0.13-0.2 0.31-0.34 0.46-0.51-0.01-0.05-0.17-0.11-0.08-0.13 0.09-0.05 0.21 0 0.29-0.09 0.06-0.04 0.05-0.15 0.1-0.21 0.19-0.15 0.39-0.29 0.6-0.42 0.3-0.14 0.61-0.28 0.92-0.39 0.11-0.04 0.22-0.08 0.34-0.07 0.09-0.01 0.18 0.04 0.25-0.02 0.08-0.05 0.18-0.06 0.23-0.13 0.04-0.06 0.08-0.14 0.13-0.19 0.23-0.07 0.44-0.21 0.63-0.35 0.03-0.06 0.09-0.12 0.09-0.17-0.02-0.06-0.14-0.1-0.03-0.13 0.09-0.05 0.2-0.09 0.28-0.15 0.06-0.11 0.12-0.21 0.21-0.29 0.08-0.1 0.16-0.19 0.25-0.27 0.06-0.02 0.13-0.05 0.18-0.09 0.04-0.1 0.06-0.2 0.07-0.31-0.03-0.03-0.19-0.03-0.12-0.08 0.08-0.08 0.18-0.15 0.21-0.26 0.04-0.12 0.11-0.22 0.16-0.33-0.01-0.06 0.04-0.15-0.01-0.19-0.03-0.06-0.19-0.03-0.12-0.09 0.03-0.05 0.12-0.1 0.07-0.16-0.02-0.09-0.05-0.12-0.11-0.04-0.08-0.04-0.09-0.09-0.04-0.16 0.04-0.08-0.01-0.17 0-0.26-0.02-0.2 0.02-0.39 0.05-0.58 0-0.12 0.01-0.24 0.02-0.35-0.09 0.02-0.06-0.09-0.07-0.14-0.03-0.08 0.06-0.11 0.1-0.15 0.04-0.05 0.01-0.13 0.02-0.2 0.02-0.23-0.05-0.46-0.01-0.69 0.01-0.14-0.03-0.29 0.03-0.43 0.03-0.13 0.1-0.24 0.16-0.36 0.05-0.11 0.12-0.2 0.19-0.3 0.04-0.06 0.05-0.12 0.03-0.19 0.01-0.09 0-0.19 0.01-0.28 0.05-0.04 0.02-0.14-0.03-0.17-0.09-0.04-0.09-0.17-0.18-0.21-0.06-0.06-0.14-0.08-0.22-0.09-0.04-0.07-0.06-0.15-0.11-0.21-0.07-0.04-0.16-0.07-0.2-0.14 0-0.07 0.03-0.16-0.04-0.21-0.02-0.07 0.02-0.15-0.02-0.22-0.01-0.07-0.08-0.11-0.12-0.16 0.03-0.12 0.06-0.25-0.02-0.35-0.06-0.1-0.12-0.19-0.17-0.29-0.09-0.07 0.07-0.08 0.05-0.15-0.04-0.06-0.11-0.1-0.12-0.18-0.05-0.13-0.1-0.26-0.11-0.4 0.03-0.06 0.01-0.17 0.1-0.15 0.09 0.03 0.07-0.07 0.08-0.13 0.03-0.1-0.02-0.2 0-0.3-0.02-0.07-0.07-0.13-0.03-0.2 0.04-0.11 0.03-0.24 0.07-0.34 0.04-0.06 0.07-0.14 0.15-0.17 0.02-0.11-0.06-0.2-0.1-0.3-0.06-0.11-0.19-0.17-0.24-0.28-0.03-0.08-0.09-0.13-0.16-0.17-0.07-0.06-0.15-0.11-0.21-0.17-0.04-0.12-0.04-0.24-0.04-0.36 0.11-0.25 0.22-0.5 0.29-0.77 0.09-0.15 0.12-0.34 0.17-0.51 0.02-0.12 0.08-0.23 0.07-0.35 0.09-0.05 0.2-0.09 0.29-0.15 0.09-0.17 0.2-0.34 0.26-0.53 0.04-0.15 0.12-0.29 0.2-0.43 0.11-0.19 0.21-0.39 0.3-0.59 0.02-0.13 0.02-0.26 0.06-0.39 0.05-0.09 0.1-0.19 0.16-0.27 0.16-0.09 0.32-0.17 0.48-0.25 0.01-0.09-0.02-0.2 0.06-0.27 0.05-0.07 0.11-0.15 0.16-0.22 0.15 0.01 0.31-0.02 0.43-0.1 0.1-0.05 0.14-0.16 0.21-0.23 0.08-0.1 0.09-0.23 0.14-0.34 0.02-0.07 0.12-0.06 0.14-0.14 0.2-0.28 0.41-0.55 0.64-0.8l0.06-0.21c0.08-0.01 0.14-0.03 0.1-0.11 0.04-0.12-0.12 0.01-0.1-0.04 0.04-0.04 0.09-0.17 0.1-0.05 0.03 0.03 0.12-0.05 0.17-0.06 0.07 0 0.12-0.01 0.15-0.09 0.19-0.24 0.35-0.51 0.58-0.71 0.15-0.14 0.29-0.3 0.43-0.44 0.11-0.12 0.22-0.23 0.35-0.33 0.1-0.07 0.15-0.21 0.27-0.27 0.21-0.17 0.4-0.36 0.64-0.49 0.09-0.09 0.22-0.08 0.33-0.12 0.25-0.12 0.47-0.3 0.67-0.49 0.13-0.14 0.28-0.27 0.39-0.42 0.05-0.09 0.08-0.19 0.14-0.26 0.09-0.08 0.19-0.15 0.29-0.21 0.13-0.12 0.24-0.27 0.39-0.38 0.07-0.1 0.09-0.25 0.2-0.33 0.16-0.15 0.3-0.31 0.42-0.49 0.09-0.17 0.21-0.32 0.31-0.47 0.07-0.18 0.13-0.37 0.17-0.55 0.15-0.18 0.29-0.38 0.45-0.55 0.08-0.08 0.18-0.14 0.25-0.23 0.06-0.13 0.14-0.24 0.16-0.39 0.06-0.19 0.05-0.39 0.08-0.59 0.01-0.15 0 0.12 0.02 0 0.08-0.26 0.22-0.48 0.33-0.72 0.12-0.21 0.17-0.44 0.28-0.64 0.05-0.13 0.02-0.28 0.08-0.41 0.02-0.11 0.09-0.19 0.16-0.27 0.07-0.02 0.09-0.09 0.1-0.16 0.03-0.1 0.05-0.2 0.13-0.27 0.05-0.06 0.09-0.13 0.1-0.22 0.02-0.08 0.02-0.18 0.1-0.23 0.06-0.05 0.11-0.11 0.12-0.19 0.05-0.14 0.1-0.28 0.11-0.42-0.02-0.14-0.04-0.28-0.02-0.43s0.04-0.31 0.08-0.47c0.03-0.06 0.05-0.14 0.09-0.19 0.11-0.04 0.22-0.08 0.33-0.08-0.05-0.04-0.08-0.14-0.15-0.11-0.1 0.05-0.05-0.07-0.05-0.13-0.02-0.17-0.03-0.34-0.05-0.51-0.05-0.13-0.13-0.27-0.1-0.42 0.01-0.09 0-0.18 0.06-0.25 0.06-0.05 0.03-0.12 0-0.18-0.01-0.08-0.08-0.1-0.14-0.13-0.1-0.05-0.21-0.02-0.31-0.07-0.09-0.09-0.06 0.08-0.13 0.04-0.07-0.02-0.14-0.03-0.15 0.06-0.05 0.1-0.08 0.22-0.18 0.29-0.06 0.06-0.11 0.12-0.19 0.12-0.18 0.05-0.37 0.07-0.53 0.16-0.12 0.03-0.2 0.12-0.31 0.15-0.18 0.05-0.37 0.08-0.55 0.07-0.06 0.01-0.15-0.05-0.19 0-0.1 0.18-0.2 0.37-0.31 0.56-0.01-0.13-0.02-0.27-0.03-0.4-0.17 0.03-0.35 0-0.52-0.02-0.11-0.03-0.22-0.06-0.34-0.1-0.1 0.07-0.21 0.13-0.28 0.24-0.13 0.15-0.28 0.3-0.43 0.45-0.16-0.01-0.31 0-0.46-0.01-0.19-0.06-0.37-0.12-0.56-0.17-0.2 0.14-0.38 0.29-0.58 0.42-0.09 0.06-0.17 0.14-0.27 0.18-0.12 0.01-0.24 0.06-0.36 0.02-0.15-0.04-0.32-0.04-0.45-0.13-0.09-0.05-0.19-0.09-0.25-0.17-0.19-0.19-0.36-0.4-0.5-0.63-0.09-0.1-0.17-0.21-0.29-0.27-0.06-0.01-0.14-0.14-0.08-0.04-0.06-0.03-0.12-0.12-0.2-0.09-0.15 0.02-0.29 0.08-0.44 0.12-0.01-0.07-0.01-0.13 0.07-0.16 0.07-0.04 0.1-0.14 0.19-0.16 0.17-0.09 0.3-0.23 0.45-0.35 0.07-0.04 0.08-0.1 0.07-0.18-0.01-0.09-0.07-0.17-0.1-0.26-0.14-0.14-0.22-0.31-0.34-0.47-0.08-0.03-0.18-0.03-0.27-0.05-0.06-0.12-0.14-0.24-0.23-0.33-0.14-0.08-0.27-0.19-0.35-0.33-0.12-0.17-0.29-0.28-0.45-0.4-0.11-0.08-0.24-0.12-0.31-0.24-0.18-0.19-0.32-0.42-0.49-0.61-0.11-0.06-0.21-0.13-0.33-0.15-0.09-0.03-0.19-0.05-0.28-0.08-0.02-0.06-0.04-0.13-0.11-0.16-0.07-0.06-0.18-0.07-0.27-0.09-0.08-0.01-0.17 0.03-0.22-0.04-0.07-0.03-0.11-0.09-0.14-0.16-0.07-0.13-0.14-0.25-0.21-0.37-0.04 0.06-0.09 0.13-0.07 0.21s0.01 0.17-0.01 0.25c-0.11-0.17-0.25-0.33-0.37-0.51-0.06-0.13-0.15-0.24-0.22-0.37-0.12-0.31-0.19-0.64-0.28-0.97-0.07-0.14-0.15-0.28-0.19-0.44-0.05-0.16-0.11-0.32-0.19-0.46-0.12-0.17-0.22-0.35-0.33-0.51-0.04-0.06-0.09-0.1-0.15-0.1-0.05-0.04-0.04-0.13-0.08-0.17-0.08 0.04-0.12-0.06-0.18-0.04-0.07 0.05-0.11 0-0.12-0.07-0.04-0.07-0.06-0.16-0.14-0.19-0.07-0.09-0.19-0.06-0.28-0.12-0.11-0.05-0.24-0.08-0.34-0.16-0.06-0.08-0.14-0.16-0.16-0.27-0.08-0.25-0.16-0.51-0.2-0.77-0.08-0.33-0.07-0.68-0.14-1.01-0.03-0.19-0.05-0.38-0.08-0.57 0.11 0.04 0.01-0.07 0-0.11-0.11-0.11-0.23-0.22-0.32-0.34-0.04-0.12-0.08-0.25-0.08-0.38-0.02-0.08-0.04-0.17-0.1-0.23-0.07-0.07-0.13-0.17-0.21-0.24-0.09-0.04-0.18-0.07-0.24-0.16-0.09-0.08-0.17-0.17-0.28-0.22-0.12-0.08-0.27-0.09-0.4-0.15-0.09-0.12-0.19-0.24-0.27-0.36-0.03-0.12-0.12-0.21-0.12-0.34-0.04-0.11-0.03-0.24-0.06-0.35-0.03-0.06-0.1-0.13-0.04-0.19 0.02-0.08 0.12-0.01 0.18-0.01 0.06 0.01 0.13 0.08 0.1-0.03-0.06-0.08-0.15-0.12-0.22-0.18-0.2-0.16-0.43-0.3-0.55-0.53-0.09-0.15-0.17-0.31-0.29-0.44-0.14-0.17-0.23-0.38-0.34-0.57-0.06-0.11-0.12-0.21-0.21-0.29-0.14-0.13-0.17-0.33-0.3-0.47-0.1-0.13-0.19-0.27-0.26-0.42-0.07-0.23-0.16-0.45-0.25-0.68-0.12-0.09-0.22-0.2-0.31-0.33-0.07-0.13-0.07-0.28-0.11-0.42-0.01-0.07-0.1-0.05-0.14-0.11-0.17-0.14-0.33-0.3-0.49-0.46-0.13-0.19-0.27-0.37-0.37-0.58-0.12-0.22-0.25-0.44-0.34-0.68-0.03-0.11-0.01-0.22-0.01-0.33-0.02-0.09-0.04-0.2-0.07-0.29-0.05-0.06-0.11-0.12-0.18-0.16-0.03-0.08 0-0.17-0.04-0.25-0.03-0.17-0.06-0.33-0.08-0.5-0.01-0.09-0.01-0.19-0.07-0.28-0.03-0.04-0.11-0.03-0.16-0.06-0.09-0.02-0.13-0.11-0.2-0.14-0.2-0.02-0.41-0.01-0.61-0.01-0.07-0.02-0.14-0.03-0.21-0.04 0.04 0.06-0.07 0.09-0.1 0.13-0.07 0.09-0.19 0.06-0.28 0.1-0.04 0.01-0.18 0.05-0.14-0.01 0.03-0.09 0.14-0.1 0.21-0.14 0.11-0.04-0.04-0.06-0.08-0.02-0.11 0.05-0.22 0.05-0.33 0.06-0.08 0.08-0.17 0.15-0.27 0.19-0.16 0.08-0.3 0.19-0.43 0.31-0.13 0.06-0.25 0.16-0.39 0.18-0.07 0.01-0.15 0.07-0.21 0.01-0.19-0.1-0.41-0.14-0.61-0.19-0.12-0.02-0.24 0.01-0.35 0-0.07-0.06-0.15-0.11-0.25-0.12-0.11-0.03-0.24-0.02-0.35-0.06-0.12-0.06-0.22-0.14-0.36-0.16-0.15-0.05-0.3-0.08-0.46-0.09-0.17-0.02-0.35-0.02-0.52-0.06-0.13-0.02-0.25-0.04-0.38-0.02-0.15 0.01-0.3 0.07-0.45 0.09-0.07-0.01-0.14-0.03-0.16-0.1-0.06-0.08-0.08-0.19-0.13-0.26-0.08-0.04-0.16-0.09-0.26-0.08-0.17-0.02-0.35 0.01-0.52-0.02-0.18 0-0.33-0.13-0.51-0.15-0.13-0.03-0.26-0.05-0.4-0.06-0.11 0.05-0.21-0.04-0.3-0.1-0.06-0.02-0.08-0.13-0.08-0.16 0.09 0.03 0.04-0.1 0.04-0.14 0-0.08-0.1-0.08-0.15-0.12-0.08-0.03-0.17 0.01-0.25-0.05-0.19-0.08-0.39-0.12-0.59-0.18-0.19 0.01-0.39 0-0.57 0.03-0.12 0.05-0.24 0.09-0.36 0.1-0.09 0-0.18 0.04-0.26 0.08-0.17 0.08-0.31 0.21-0.47 0.33-0.14 0.12-0.27 0.26-0.39 0.4-0.07 0.15-0.06 0.33-0.03 0.48 0.05 0.08 0.13 0.15 0.12 0.24-0.01 0.12 0.09 0.21 0.11 0.32-0.01 0.06 0 0.13-0.05 0.18-0.08 0.1-0.12 0.22-0.19 0.32-0.09 0.09-0.17 0.19-0.29 0.25-0.11 0.06-0.25 0.09-0.37 0.15-0.09 0.01-0.18 0.01-0.27 0.01-0.12-0.06-0.27-0.08-0.36-0.18-0.13-0.1-0.25-0.19-0.35-0.32-0.1-0.05-0.2-0.08-0.3-0.08-0.14-0.11-0.3-0.19-0.47-0.23-0.23-0.08-0.45-0.16-0.69-0.18-0.19-0.02-0.38-0.03-0.57-0.03-0.14-0.05-0.28-0.09-0.41-0.15-0.13-0.13-0.28-0.25-0.37-0.41-0.04-0.06-0.1-0.11-0.08-0.19 0.01-0.12-0.04-0.24-0.08-0.35-0.06-0.06-0.13-0.11-0.22-0.13-0.15-0.08-0.33-0.08-0.49-0.16-0.14-0.06-0.28-0.12-0.41-0.2-0.15-0.04-0.29-0.11-0.44-0.1-0.14 0.02-0.25-0.11-0.39-0.1-0.1-0.01-0.21-0.02-0.31 0.02-0.12 0.02-0.23 0.07-0.35 0.05-0.13-0.01-0.26 0-0.37-0.06-0.19-0.09-0.39-0.15-0.57-0.26-0.1-0.05-0.23-0.04-0.32-0.12-0.06 0.01-0.14 0.02-0.2 0-0.06-0.04-0.04-0.11-0.07-0.17-0.02-0.09-0.06-0.17-0.1-0.25-0.09-0.02-0.17 0.05-0.25 0.09-0.06-0.05-0.09-0.11-0.12-0.18-0.14 0.05-0.29 0.02-0.4-0.08-0.05-0.04-0.13-0.05-0.13-0.13-0.03-0.08-0.04-0.17-0.03-0.25-0.02-0.1 0.1-0.01 0.15-0.01 0.09 0.05 0.06-0.06 0.08-0.11 0.02-0.06 0.01-0.15 0.09-0.15 0.09-0.01 0.15-0.07 0.22-0.13 0.15-0.05 0.28-0.17 0.4-0.29 0.13-0.11 0.2-0.28 0.27-0.43 0.02-0.06 0.1-0.12 0.05-0.18-0.04-0.11-0.04-0.23-0.06-0.35-0.06-0.05-0.15-0.07-0.16-0.16-0.02-0.08-0.12-0.05-0.17-0.07-0.06-0.02-0.09-0.09-0.12-0.14-0.01-0.11-0.07-0.21-0.02-0.31 0.02-0.06 0.02-0.15 0.1-0.18 0.08-0.07 0.19-0.09 0.29-0.13 0.06-0.12 0.13-0.24 0.21-0.36-0.03-0.06-0.06-0.12-0.09-0.19-0.06 0-0.14-0.02-0.17 0.06-0.07 0.09-0.16 0.16-0.28 0.18-0.05 0.03-0.09 0.1-0.15 0.04-0.07-0.02-0.14-0.04-0.1-0.12 0.03-0.07 0.01-0.13-0.03-0.19-0.03-0.05-0.07-0.13-0.05-0.17-0.15-0.04-0.29-0.11-0.45-0.1zm2.1 0.56h-0.01v0.01l-0.01 0.01v0.01 0.01l0.01 0.01 0.01 0.01v0.01h0.01v0.01h0.01v0.01h0.01v0.01h0.01l0.01 0.01h0.01 0.01v-0.01h0.01 0.01l0.01-0.01 0.01-0.01v-0.01l-0.01-0.01v-0.01-0.01h-0.01l-0.01-0.01-0.01-0.01-0.01-0.01h-0.01v0.01h-0.01-0.01v-0.01l-0.01-0.01h-0.01-0.01zm-0.74 2.16h-0.01v0.01 0.01h-0.01v0.01h-0.01v0.01 0.01h0.01l-0.01 0.01v0.01h-0.01v0.01h-0.01-0.01v-0.01l-0.01-0.01v0.01h-0.01v0.01 0.01l-0.01 0.01v0.01h-0.01l-0.01 0.01-0.01 0.01v0.01 0.01h-0.01l0.01 0.01h0.01l0.01-0.01h0.01l0.01-0.01 0.01-0.01 0.01-0.01h0.01 0.01v-0.01h0.01 0.01l0.01-0.01h0.01 0.01l0.01-0.01h0.01 0.01v-0.01-0.01-0.01h-0.01v-0.01-0.01-0.01h0.01l-0.01-0.01h0.01 0.01 0.01v-0.01h-0.01-0.01l-0.01-0.01h-0.01-0.01-0.01zm-0.26 0.16h-0.01v0.01 0.01h0.01l0.01 0.01v0.01h0.01 0.01 0.01l0.01 0.01 0.01 0.01v-0.01h0.01v-0.01h0.01l0.01-0.01h0.01v-0.01h0.01 0.01v-0.01-0.01h-0.01-0.01-0.01-0.01-0.01-0.01-0.01-0.01-0.01v0.01h-0.01l-0.01-0.01h-0.01zm-0.29 0.82l-0.07 0.04-0.05 0.04 0.02 0.14 0.12 0.01 0.08-0.01 0.01-0.1-0.03-0.06-0.03-0.03h0.02l-0.03-0.03 0.01 0.02-0.05-0.02zm23.26 2.3c-0.07 0.07-0.17 0.15-0.24 0.22-0.1 0.06-0.21 0.11-0.31 0.16-0.11 0.03-0.21 0.04-0.32 0.06-0.05 0-0.11 0.04-0.14-0.01-0.04-0.03-0.06-0.1-0.11-0.06-0.05 0-0.06 0.07-0.11 0.08-0.1 0.03-0.2 0.02-0.3 0.02-0.06 0.02-0.09-0.03-0.13-0.06-0.06-0.06-0.09-0.13-0.17-0.15-0.04-0.04-0.09 0-0.12-0.04-0.03-0.02 0.03 0.07 0.04 0.09 0.02 0.12 0.03 0.23 0.05 0.35 0.03 0.12 0.03 0.25 0.07 0.38 0.01 0.06 0.03 0.11 0.07 0.16 0.06 0.1 0.17 0.18 0.2 0.3 0.02 0.04 0.08 0.03 0.1 0.07 0.06 0.03 0.05 0.1 0.09 0.14s0.06 0.1 0.09 0.15c0.02 0.08 0.04 0.16 0.07 0.24 0.05 0.08 0.14 0.14 0.18 0.23 0.05 0.1 0.15 0.16 0.22 0.23 0.08 0.06 0.12 0.15 0.17 0.23 0.04 0.09 0.05 0.19 0.08 0.29 0.08 0.1 0.18 0.2 0.27 0.29 0.19 0.17 0.37 0.36 0.56 0.54 0.06 0.03 0.14 0.03 0.21 0.05 0.05-0.04 0.11-0.07 0.16-0.12 0.06-0.03 0.05-0.1 0.06-0.15-0.02-0.1-0.04-0.2-0.04-0.3 0.01-0.08 0.06-0.17 0.08-0.26 0.03-0.13 0.03-0.26 0.06-0.39 0.03-0.12 0.02-0.25 0.06-0.37 0-0.04 0.03-0.08 0.04-0.12 0-0.07 0.06-0.1 0.09-0.14-0.05-0.06-0.06-0.2-0.08-0.27-0.06-0.16-0.14-0.32-0.21-0.48-0.13-0.23-0.25-0.45-0.36-0.69-0.1-0.24-0.2-0.33-0.23-0.48-0.02-0.04-0.11-0.16-0.15-0.19zm-47.66 1.63h-0.02c-0.01 0-0.01 0.01-0.01 0.01v0.02h0.01 0.01s0-0.01 0.01-0.01c0 0 0.01 0 0.01-0.01v-0.01h-0.01zm-0.04 0.14v0.01c-0.01 0-0.01 0.01-0.01 0.01 0 0.01-0.01 0.02-0.01 0.02 0 0.01-0.01 0.02-0.01 0.02-0.01 0-0.01 0-0.01 0.01s0.01 0.01 0.01 0.01c0.01-0.01 0.01-0.01 0.02-0.01s0.01-0.01 0.01-0.01l0.02-0.02 0.01-0.01c0-0.01-0.01-0.01-0.01-0.02h-0.01l-0.01-0.01zm0.02 0.06c-0.03 0.01-0.03 0.05-0.05 0.07-0.01 0.02-0.03 0.07-0.06 0.05-0.02-0.02-0.04-0.01-0.07 0-0.03 0-0.05 0.03-0.08 0.04-0.03 0-0.06 0-0.08 0.02-0.03 0.03-0.06 0.06-0.07 0.1 0 0.03-0.02 0.06-0.04 0.08-0.03 0.01-0.03 0.04 0.01 0.05 0.02-0.01 0.05 0.02 0.07 0.01 0.02-0.02 0.03-0.05 0.05-0.06 0.03-0.02 0.07 0 0.1-0.01s0.05-0.04 0.08-0.04 0.05-0.02 0.08-0.04c0.03-0.01 0.02-0.05 0.04-0.08 0.02-0.02 0-0.06 0.02-0.08 0.02 0 0.03-0.02 0.04-0.04 0.02-0.03 0-0.07-0.04-0.07zm-4.42 0.12c-0.03 0.01-0.06 0.02-0.07 0.04-0.02 0.02-0.04 0.03-0.04 0.05 0.01 0.02 0.03 0.04 0.03 0.07 0.01 0.02 0.01 0.05 0.02 0.07s-0.01 0.05 0.01 0.07 0.01 0.05 0.01 0.07 0 0.05 0.01 0.06c0.03 0.01 0.04-0.03 0.06-0.04 0.01 0 0.02-0.02 0.02-0.03 0.01-0.02 0.04-0.03 0.04-0.06 0.02-0.02 0.03-0.05 0.02-0.07 0-0.04 0.02-0.07 0.05-0.08 0.02-0.02 0-0.04-0.01-0.06-0.01-0.03 0-0.06-0.02-0.08-0.02-0.01-0.04 0-0.06 0-0.03 0.01-0.05-0.02-0.07-0.01zm3.88 0.4c-0.01 0-0.02 0-0.03 0.01-0.06 0-0.08 0.06-0.09 0.11-0.02 0.06-0.07 0.09-0.1 0.15-0.03 0.04-0.09 0.07-0.09 0.13-0.03 0.04-0.08 0.08-0.08 0.14-0.02 0.06-0.08 0.08-0.13 0.11-0.04 0.02-0.09 0.04-0.14 0.05-0.02-0.01-0.07-0.01-0.06 0.03 0.05-0.02 0.1 0.02 0.15 0.03 0.07-0.01 0.1-0.08 0.15-0.11 0.03-0.02 0.07-0.03 0.11-0.04 0.05-0.02 0.11-0.02 0.16-0.03 0.05-0.02 0.07-0.08 0.1-0.12s0.05-0.07 0.05-0.12 0.04-0.07 0.05-0.12c0.02-0.05 0.02-0.11 0.02-0.17 0-0.03-0.04-0.06-0.07-0.05zm-2.35 0.03c-0.03 0-0.07 0.02-0.1 0.03-0.06 0.03-0.09 0.1-0.15 0.12-0.04 0.01-0.08 0.04-0.12 0.03-0.05-0.01-0.1 0.02-0.16 0.02-0.04-0.01-0.08-0.03-0.12 0s0.03 0.07 0.02 0.11c0 0.05 0.01 0.09 0.03 0.13 0.01 0.04 0.03 0.07 0.05 0.11 0 0.04 0.02 0.1 0.07 0.07 0.04-0.02 0.11-0.01 0.14-0.06 0.03-0.03 0.06-0.06 0.1-0.09 0.03-0.05 0.05-0.11 0.09-0.16 0.02-0.04 0.02-0.09 0.07-0.11 0.05-0.01 0.07-0.07 0.12-0.09 0.03-0.02 0.09-0.01 0.11-0.05s-0.03-0.07-0.06-0.05c-0.02 0.01-0.04 0.02-0.05 0-0.02 0-0.03-0.01-0.04-0.01zm-1.04 0.34h-0.02c-0.02 0.01-0.04 0.02-0.05 0.03s-0.02 0.03-0.02 0.05c-0.01 0.01-0.02 0.03-0.01 0.05 0.01 0.01 0.01 0.03 0.02 0.04s0.02 0.03 0.03 0.04 0.03 0.01 0.04 0c0.02 0 0.03 0.01 0.04 0 0.03 0 0.04-0.02 0.06-0.04 0.02 0 0.03-0.01 0.04-0.03 0.01-0.01 0.01-0.03 0-0.04 0-0.01-0.01-0.02-0.02-0.03-0.01 0-0.02-0.01-0.03-0.02s-0.02-0.03-0.04-0.03c-0.01 0-0.02-0.01-0.03-0.02h-0.01zm1.53 0.16c-0.01 0-0.03 0.01-0.02 0.03-0.01 0.03-0.02 0.05-0.03 0.07-0.02 0.03-0.05 0.04-0.07 0.05-0.03 0.01-0.06 0.03-0.06 0.06 0 0.01-0.01 0.02-0.01 0.04-0.02 0.02 0.01 0.06 0.01 0.09s0.04 0.05 0.05 0.08c0.02 0.02 0.04 0.06 0.07 0.05 0.03 0 0.05 0.03 0.07 0.02 0.02-0.02 0.06-0.03 0.08-0.04 0.03 0 0.07 0 0.08-0.03 0.02-0.02 0.05-0.04 0.07-0.06-0.01-0.03-0.02-0.06 0.01-0.07 0.01-0.03 0-0.06 0.02-0.08 0-0.03-0.04-0.05-0.02-0.08 0.01-0.03-0.01-0.06 0.01-0.09 0.02-0.01 0.02-0.04-0.01-0.03-0.02 0.01-0.01 0.06-0.04 0.05s-0.06-0.04-0.1-0.02c-0.03 0-0.06-0.02-0.09-0.03-0.01-0.01-0.01-0.01-0.02-0.01zm-2.28 0.19c-0.01 0-0.02 0.01-0.03 0.01-0.02 0.02-0.03 0.01-0.04 0.02 0 0.01-0.01 0.02-0.02 0.03-0.02 0-0.03 0.03-0.05 0.03h-0.01c-0.01 0-0.03 0-0.05-0.01-0.02-0.02-0.04-0.01-0.05 0.01-0.02 0.01-0.01 0.03-0.01 0.05 0.01 0.01 0.03 0.01 0.04 0.01 0.02 0.01 0.03 0.02 0.05 0.02s0.03 0.01 0.03 0.03c0.01 0.02 0.02 0.03 0.04 0.03s0.02-0.02 0.02-0.03c0.01-0.02 0.03-0.04 0.05-0.05 0.01-0.01 0.01-0.03 0.02-0.05 0.01-0.01 0.02-0.03 0.04-0.03 0.01-0.01 0.01-0.03 0.01-0.05-0.01-0.01-0.02-0.03-0.04-0.02zm-9.48 11.82c-0.02 0-0.03 0-0.04 0.01-0.02 0.01-0.04 0.02-0.06 0.02s-0.03 0.01-0.04 0.03c-0.03 0.01-0.05 0.03-0.07 0.02-0.03 0.01-0.05 0.03-0.07 0.05-0.01 0.03 0.01 0.05 0.03 0.06 0.01 0 0.01 0.01 0 0.02 0 0.02 0.01 0.05 0 0.07-0.01 0.03 0.02 0.05 0.03 0.03 0.03-0.01 0.05 0.01 0.07 0.01 0.03 0 0.05-0.02 0.06-0.05 0.02-0.01 0.04-0.03 0.06-0.04l0.06-0.03c0.02-0.02 0.04-0.02 0.05-0.03 0.02-0.02 0.05-0.04 0.04-0.07-0.01-0.02-0.05-0.03-0.04-0.06 0-0.03-0.04-0.02-0.05-0.03s-0.02-0.01-0.03-0.01zm0.13 0.33c-0.01 0-0.01 0.01-0.01 0.01-0.01 0.01-0.03 0-0.03-0.01-0.01 0-0.02 0.01-0.03 0.02-0.01 0 0 0.02-0.01 0.02-0.01 0.01-0.03 0-0.04 0-0.01-0.01-0.02 0-0.02 0.01-0.01 0.01-0.02 0.01-0.03 0.02 0 0.01-0.02 0.02 0 0.03 0.01 0 0.01 0.03 0.02 0.03h0.02c0.01 0.01 0.02 0.01 0.03 0.02 0.01 0.02 0.03 0.01 0.03 0 0.02-0.01 0.05 0 0.07-0.01 0.01-0.01 0.03-0.01 0.04-0.02s0-0.02 0-0.04c0.01-0.01-0.01-0.01-0.02-0.02-0.01 0-0.02-0.01-0.01-0.02 0-0.01 0.01-0.03 0-0.04h-0.01zm0.14 0.15c0-0.01-0.01 0-0.01 0s-0.01 0-0.01 0.01v0.01 0.02c0.01 0 0.01 0 0.02 0.01l0.01 0.01v0.02h0.01 0.02c0 0.01 0.01 0 0.01 0 0.01 0 0.02-0.01 0.02-0.02v-0.01h-0.02c0 0.01 0 0.01-0.01 0.01-0.01-0.01-0.01-0.01-0.01-0.02s-0.01-0.01-0.01-0.02v-0.01c-0.01 0-0.01-0.01-0.01-0.01h-0.01zm1.9 0.05s-0.01 0.01-0.02 0.01l-0.02 0.02c-0.02 0-0.04 0.02-0.03 0.04 0 0.01-0.01 0.03 0 0.04s0 0.02-0.01 0.03c0.01 0.01 0.01 0.02 0 0.03 0 0.01 0 0.02 0.01 0.02 0.01-0.01 0.03-0.01 0.03 0 0.01 0.01 0.01 0.03-0.01 0.04 0 0.02 0.02 0.03 0.01 0.05-0.01 0.01 0 0.03 0.02 0.02 0.01 0 0.02-0.01 0.01-0.02s0.01-0.03 0.02-0.04 0.02-0.02 0.01-0.04c0-0.01-0.01-0.03-0.01-0.04 0-0.02 0-0.04 0.01-0.05 0.01-0.02 0-0.03 0-0.04-0.01-0.02 0.01-0.02 0.01-0.03 0-0.02-0.01-0.03-0.02-0.03 0-0.01 0-0.01-0.01-0.01zm-1.5 0.12h-0.01c-0.02 0.01-0.04 0.01-0.06 0.02-0.02 0.03-0.01 0.08 0.03 0.08 0.03 0.01 0.01 0.04 0.02 0.05 0.01 0.03 0.02 0.05 0.01 0.07 0 0.02 0.03 0.01 0.03-0.01s0.02-0.04 0.03-0.05c0.01-0.02 0.03-0.05 0.05-0.06 0.02 0 0.05 0 0.07 0.02 0.02 0.01 0.04 0.02 0.05 0.04 0.03 0.01 0.05 0 0.07 0.01 0.02 0 0.05-0.02 0.04-0.04-0.02-0.02-0.04-0.03-0.06-0.04s-0.04-0.01-0.06-0.01c-0.02 0.01-0.04-0.01-0.05-0.02-0.02-0.02-0.04-0.02-0.06-0.01s-0.04 0-0.06-0.02c-0.01-0.01-0.02-0.04-0.04-0.03zm1.41 0.61s-0.01 0-0.01 0.01c0.01 0.02-0.01 0.04 0 0.05 0 0.02 0.01 0.04 0 0.06 0.01 0.02-0.02 0.03-0.04 0.03-0.02 0.02-0.01 0.04-0.02 0.06s0 0.04 0.02 0.05c0.01 0 0.02 0.01 0.02 0.01 0.02 0.01 0.03 0.04 0.05 0.03s0.05 0.01 0.07 0 0.04-0.03 0.06-0.04c0.03-0.01 0.06-0.03 0.08-0.06 0.02-0.02 0-0.04 0-0.06 0.01-0.01 0.02-0.04-0.01-0.05-0.01-0.01 0-0.04-0.02-0.05s-0.04-0.02-0.05-0.03c-0.02-0.01-0.04 0.01-0.05 0.02-0.02 0.02-0.06 0.01-0.08-0.02 0 0-0.01-0.01-0.02-0.01zm-1 1.03c-0.02-0.01-0.04 0.01-0.02 0.02-0.01 0.01-0.03 0.01-0.01 0.02 0 0.02 0.01 0.04 0.02 0.05-0.01 0.03-0.04 0.04-0.04 0.07-0.02 0.02 0 0.06-0.01 0.09-0.02 0.02-0.03 0.04-0.01 0.06 0 0.02 0.01 0.04 0.03 0.05 0.01 0 0.01 0.01 0.01 0.02-0.02 0.02 0.01 0.04 0.02 0.05 0.02 0.03 0.05 0.05 0.08 0.06s0.06 0 0.08 0.02c0.02 0 0.04-0.01 0.05-0.02 0.02-0.02 0.02-0.05 0.04-0.07 0.03 0 0.02-0.03 0.01-0.05-0.01-0.04-0.04-0.07-0.04-0.1s-0.03-0.04-0.04-0.05c-0.02-0.02-0.04-0.05-0.05-0.07-0.02-0.03-0.05-0.05-0.07-0.07-0.03-0.02-0.01-0.04 0-0.06 0-0.02-0.03-0.02-0.04-0.02h-0.01zm0.57 0.02c-0.01 0.01-0.01 0.02-0.01 0.02-0.02 0 0 0.01-0.02 0.02 0 0.02-0.02 0.02-0.03 0.03s0.02 0.02 0.02 0.03c-0.01 0.02-0.03 0.02-0.03 0.03 0.01 0.02 0 0.03-0.01 0.04 0 0.01-0.01 0.03 0 0.04 0.02 0.01 0.03 0.01 0.04 0.02 0 0.01 0.02 0.03 0.03 0.02 0.02 0 0.02-0.02 0.03-0.03 0.02 0 0.03 0 0.03-0.01 0.01-0.01 0.02-0.03 0.02-0.04s-0.01-0.03 0-0.04c0.01-0.02 0-0.03 0-0.04v-0.05c0-0.02-0.02-0.02-0.03-0.01-0.01 0-0.02-0.01-0.02-0.02 0 0-0.02 0.01-0.02 0v-0.01zm-1.27 0.27c-0.02 0.01-0.04 0.03-0.06 0.03-0.01 0-0.02 0.01-0.03 0.02-0.03 0.01-0.05 0.03-0.05 0.06-0.01 0.01-0.03 0.02-0.02 0.04s0 0.04 0.01 0.05c0.02 0.01 0.03 0.03 0.04 0.04s0.02 0.02 0.04 0.03c0.01 0.01 0.03 0.01 0.04 0.01 0.02 0 0.03-0.01 0.05-0.02l0.04-0.04c0.01-0.02 0-0.04 0.01-0.06s-0.01-0.04 0-0.05c0.01-0.02 0-0.04 0-0.05 0-0.02-0.02-0.04-0.03-0.04-0.01-0.01-0.03-0.02-0.04-0.02zm-0.35 0.16c-0.01-0.01-0.01 0-0.01 0.01-0.01 0-0.02 0-0.02-0.01-0.01 0-0.02 0.01-0.02 0.02s0 0.02-0.01 0.02c0 0-0.01 0.01 0 0.01 0 0.01 0 0.01-0.01 0.02h0.01c0.01 0.01 0 0.02 0.01 0.02 0.01 0.01 0.02 0.01 0.02 0.02 0 0 0.01 0 0.01-0.01s0.01-0.01 0.02-0.01c0 0 0.01 0 0.01-0.01v-0.02-0.03-0.03h-0.01zm8.69 4.82l-0.15 0.06 0.04 0.13 0.17-0.1 0.07-0.07-0.13-0.02zm3.48 4.24l-0.12 0.05h-0.12l0.06 0.09 0.12 0.05 0.11-0.01 0.07-0.14-0.02 0.01-0.1-0.05zm23.51 4.48c-0.01 0-0.03 0.01-0.03 0.02-0.02 0.04-0.04 0.06-0.06 0.09-0.03 0.04-0.01 0.09-0.02 0.13-0.01 0.03-0.05 0.04-0.05 0.07 0.02 0.05-0.05 0.05-0.08 0.04-0.04-0.01-0.08 0.03-0.08 0.07-0.02 0.04-0.01 0.1 0.01 0.14 0.03 0.04 0.08 0.03 0.12 0.05 0.04 0 0.08 0 0.12 0.03 0.03 0.02 0.06-0.01 0.07-0.04 0.01-0.04 0.05-0.05 0.06-0.09 0-0.04 0-0.08 0.04-0.1 0.03-0.05 0.05-0.1 0.08-0.15 0.03-0.04 0.07-0.07 0.09-0.12 0.01-0.04-0.02-0.08-0.05-0.11-0.06-0.01-0.12 0-0.18-0.01-0.01-0.01-0.02-0.02-0.04-0.02zm-1.49 2.34c-0.01 0-0.01 0.01-0.02 0.01s-0.02 0.01-0.02 0.02c-0.01 0.01 0 0.02 0 0.03-0.01 0.01 0 0.02 0 0.03s-0.02 0.01-0.03 0.01c-0.01-0.01-0.02 0-0.02 0.01 0.01 0.01 0.01 0.02 0.01 0.03s0 0.02 0.01 0.02c0.01-0.01 0.01 0 0.02 0s0.01 0.02 0.03 0.02c0.01-0.01 0.01 0.01 0.02 0.01 0-0.01-0.01-0.02 0-0.02 0-0.02 0.02 0 0.02-0.01 0.01-0.01 0.01-0.02 0.01-0.03s-0.01-0.03 0-0.04c0.01 0 0.03 0 0.03-0.02 0-0.01-0.02-0.01-0.03-0.01-0.01-0.01 0.01-0.02 0.02-0.02s0.02-0.02 0-0.03c-0.01 0-0.02 0.01-0.03 0 0 0-0.01 0-0.01-0.01h-0.01zm-0.85 1.46c-0.01 0-0.02 0.01-0.03 0.01-0.03 0-0.04 0.04-0.06 0.05-0.03 0-0.05 0.02-0.07 0.04-0.02 0.01-0.02 0.03-0.03 0.05s-0.02 0.03-0.02 0.05c0 0.04 0.01 0.07 0.03 0.11 0 0.02 0 0.04 0.02 0.05 0.02 0.02 0 0.04 0 0.06 0 0.03 0.03 0.02 0.04 0.01 0.01 0 0.03 0 0.03-0.02-0.01-0.03 0.03-0.03 0.04-0.03 0.02-0.02 0.05-0.02 0.05-0.04 0-0.03 0.04-0.04 0.04-0.06 0.02-0.03 0.06-0.04 0.07-0.07s0.01-0.06 0.01-0.08c0-0.03-0.01-0.05-0.03-0.07-0.01-0.02-0.04-0.04-0.06-0.05-0.01-0.01-0.01-0.01-0.03-0.01zm-1.14 2.07c-0.01 0.01-0.01 0.01-0.02 0.01v0.02s0 0.01 0.01 0.01c0 0.01-0.01 0.01-0.01 0.02-0.01 0 0 0.01 0.01 0.01 0 0 0.01 0 0.01-0.01 0.01 0 0.01 0 0.01-0.01v-0.03c-0.01-0.01-0.01-0.01-0.01-0.02zm-22 7.58c-0.01 0-0.01 0.01-0.01 0.01-0.01 0.01-0.02 0.02-0.02 0.04 0 0.01-0.01 0.01-0.01 0.02s0.01 0.02 0.01 0.03c-0.01 0.01 0 0.02 0.01 0.02h0.01c0-0.01 0.01-0.01 0.02-0.01h0.03c0.01-0.01 0.02-0.01 0.03-0.02 0.01 0 0.01-0.01 0.02-0.01 0-0.01 0-0.02-0.01-0.02s-0.01-0.01-0.02-0.02c0-0.01-0.01-0.01-0.02-0.01s-0.01-0.01-0.02-0.02h-0.02v-0.01zm72.17 1.73c-0.01 0-0.01 0.01-0.01 0.02 0.02 0 0.01-0.02 0.01-0.02zm-5.09 0.01h-0.02c-0.01 0.02 0.01 0.02 0.02 0.02h0.05c0.02 0.01 0.03 0 0.05 0.01 0.01 0.01 0.05-0.01 0.03-0.02-0.03-0.01-0.05-0.01-0.08-0.01h-0.05zm-0.09 0c-0.01 0-0.01 0.01-0.01 0.01l-0.01 0.01c-0.01 0-0.01 0.03 0.01 0.02 0.01-0.01 0.02-0.01 0.03-0.01 0-0.02-0.01-0.03-0.02-0.03zm0.25 0.01c0 0.01 0 0.02 0.01 0.03-0.01 0.01 0.01 0.02 0 0.02-0.01 0.01-0.03-0.01-0.04 0.01-0.02 0.01-0.04 0-0.06 0.02-0.01 0-0.03 0-0.05 0.01-0.03 0.01-0.06 0.01-0.08 0s-0.04-0.02-0.04-0.04c-0.01 0.02-0.01 0.04 0 0.05 0.01 0.02 0.03 0.03 0.05 0.04 0.02 0 0.04-0.02 0.06-0.02 0.03-0.01 0.06-0.01 0.08-0.03 0.03-0.01 0.05 0.01 0.07 0.01s0.04-0.02 0.05-0.03c0.02 0 0.03-0.03 0.02-0.04-0.02-0.01-0.05-0.02-0.07-0.03zm4.89 0.29c-0.01 0-0.01 0.01 0 0.01 0.02 0 0-0.01 0-0.01zm-0.03 0.03v0.01h-0.01c0.03 0.01 0.02-0.01 0.01-0.01zm-0.02 0.03v0.01h0.01 0.01v-0.01h-0.01-0.01zm-3.73 0.09c-0.03 0.03 0.04 0 0 0zm-1.08 0s0 0.01-0.01 0.01-0.01 0.01-0.01 0.01l-0.01 0.01c0.01 0.02 0.02 0.01 0.02 0 0.02 0 0.03-0.02 0.01-0.03zm1.23 0.03c-0.01 0-0.01 0.01-0.01 0.01-0.03 0.04 0.04 0 0.01-0.01zm-0.08 0.04c-0.02 0 0.01 0.03 0.02 0h-0.02zm0.15 0.39c-0.01 0.01-0.02 0.01-0.01 0.02-0.01 0.02 0.02 0.02 0.02 0.01 0.01-0.02 0-0.03-0.01-0.03zm3.65 0.13v0.04c0.02 0.01 0.01-0.02 0.01-0.02 0-0.02-0.01-0.02-0.01-0.02zm-0.01 0.08l-0.01 0.01c-0.01 0.03 0.02-0.01 0.01-0.01zm5.59 0.38v0.01c-0.01 0.01-0.01 0.02 0 0.02 0 0.01 0 0.02 0.01 0.03 0 0 0.01 0.01 0.01 0.02l0.02 0.02h0.01c0-0.01-0.01-0.02-0.01-0.02 0-0.01-0.01-0.01-0.01-0.02l-0.01-0.01c-0.01-0.01-0.01-0.02-0.01-0.03v-0.02h-0.01zm0.07 0.14c0 0.01 0 0.01 0.01 0.02v0.01c0 0.01 0 0.01 0.01 0.01 0 0 0.01 0 0.01-0.01v-0.01-0.01h-0.01l-0.01-0.01h-0.01zm-14.12 0.64c-0.03 0-0.05 0.01-0.07 0.01s-0.03 0.02-0.03 0.04c-0.02 0.02-0.02 0.06-0.02 0.09s-0.01 0.06-0.01 0.1c-0.01 0.02-0.01 0.05-0.01 0.07 0 0.03-0.01 0.06-0.03 0.08s-0.02 0.06 0.01 0.08c0.02 0.03 0.02 0.08 0.06 0.09 0.03 0 0.07 0 0.09 0.03s0.03 0.07 0.07 0.07c0.03-0.01 0.05-0.05 0.05-0.08-0.02-0.02-0.03-0.05-0.04-0.07-0.02-0.03 0-0.06-0.01-0.09-0.02-0.03-0.04-0.06-0.05-0.09-0.01-0.02-0.01-0.06 0-0.09 0.02-0.04 0-0.08 0.02-0.12 0.01-0.03 0.02-0.08-0.01-0.11-0.01-0.01-0.02-0.01-0.02-0.01zm4.2 0.33v0.01h-0.01l-0.01 0.01s0.01 0 0.01 0.01c0.01 0.01 0.01 0.01 0.02 0.01v-0.01-0.02l-0.01-0.01zm-3.08 0.52c-0.01 0-0.02 0.01-0.03 0.01-0.02 0.01-0.01 0.03-0.01 0.05-0.01 0.02-0.02 0.03-0.04 0.05-0.02 0.01-0.04 0.01-0.07 0.01-0.02 0.01-0.04 0-0.06-0.01-0.03 0.01-0.04-0.02-0.07-0.02 0.01 0.01 0.01 0.01 0.01 0.02 0.01 0.02 0.04 0.03 0.06 0.04s0.04 0.03 0.06 0.04c0.02-0.01 0.04 0.01 0.06 0.03 0.01 0.01 0.02 0.03 0.03 0.05 0.02 0.02 0.06 0.02 0.06 0.05 0 0.02 0.02 0.04 0.04 0.03s0.01-0.04 0.01-0.06c0.01-0.02 0-0.05 0.01-0.07s0-0.04-0.01-0.06c0-0.03-0.01-0.06-0.01-0.08-0.01-0.02-0.01-0.05-0.02-0.07 0-0.01-0.01-0.01-0.02-0.01zm-0.89 0.17s-0.01 0.01-0.02 0.01c-0.01 0.02 0 0.04 0 0.05s0.01 0.02 0.02 0.02c0.01 0.01 0 0.03 0.01 0.04 0 0.02 0.02 0.01 0.03 0.01s0.02 0.01 0.03 0.01c0.01 0.01 0.02-0.01 0.03 0s0.03 0.01 0.04 0.01 0.03 0.01 0.04 0.01 0.02 0.01 0.04 0.01c0.01-0.01 0.01-0.03 0-0.04l-0.03-0.03c-0.02-0.01-0.05-0.01-0.06-0.03 0-0.02-0.02-0.02-0.03-0.03s-0.03-0.01-0.05-0.02c-0.01-0.01-0.03-0.01-0.04-0.02h-0.01zm5.74 0.12c-0.04 0-0.08 0.06-0.13 0.08-0.05 0.04-0.09 0.09-0.13 0.14-0.04 0.04-0.08 0.14-0.15 0.09-0.03-0.03-0.04-0.02-0.01 0.01 0.02 0.06 0.06 0.11 0.08 0.17-0.01 0.13-0.03 0.26-0.06 0.39 0 0.08-0.04 0.15-0.07 0.22-0.03 0.06-0.04 0.14-0.09 0.18-0.06 0.02-0.12 0.1-0.17 0.09-0.05-0.02-0.08-0.1-0.13-0.09-0.02 0.07-0.03 0.14-0.05 0.21-0.1 0.12-0.19 0.25-0.28 0.38-0.02-0.07-0.04-0.15-0.06-0.22-0.06-0.04-0.14-0.09-0.2-0.08-0.07 0.05-0.06 0.12-0.04 0.18 0 0.1 0.03 0.2 0.06 0.3-0.01 0.08-0.03 0.16-0.04 0.24-0.03 0.01-0.06-0.08-0.09-0.1-0.03 0-0.06 0.07-0.1 0.11-0.05 0.06-0.11 0.13-0.14 0.21-0.02 0.06 0.04 0.12 0.06 0.18 0.03 0.03 0.09 0.03 0.13 0.05 0.05 0.01 0.1 0.09 0.05 0.12-0.08 0.02-0.16-0.01-0.24-0.01-0.11 0.13-0.23 0.26-0.34 0.39 0-0.01 0.03-0.09 0.04-0.13 0.03-0.07 0.03-0.15-0.01-0.22 0-0.05-0.02-0.04-0.04-0.01-0.03 0.05-0.1 0.07-0.11 0.12 0.06 0.06-0.04 0.11-0.07 0.16-0.06 0.09-0.14 0.15-0.23 0.22 0.04 0.11 0.09 0.21 0.12 0.32 0.05 0.06 0 0.1-0.06 0.12-0.05 0.04-0.13 0-0.19 0v-0.23c0-0.07-0.08-0.07-0.12-0.11-0.08 0.05-0.16 0.09-0.24 0.14-0.07 0.05-0.13 0.12-0.19 0.19-0.07 0.04-0.06 0.13-0.08 0.2-0.03 0.05 0.05 0.08 0.07 0.13 0.03 0.04 0.08 0.07 0.1 0.12 0 0.06 0.06 0.19-0.05 0.18-0.07 0.02-0.14-0.02-0.21-0.04-0.03-0.06-0.09-0.11-0.12-0.18s-0.02-0.18-0.1-0.2c-0.07-0.05-0.12 0.02-0.18 0.06-0.05 0.06-0.09-0.03-0.13-0.05-0.06 0.02-0.14 0.02-0.19 0.06-0.02 0.06-0.03 0.14-0.09 0.18-0.03 0.05-0.09 0.09-0.14 0.03-0.08-0.04-0.09 0.11-0.17 0.11-0.06-0.01-0.06-0.09-0.07-0.14-0.05 0-0.11 0.05-0.15 0.07-0.07 0.03-0.12 0.08-0.17 0.14h-0.16c-0.07 0-0.14 0.02-0.2-0.02-0.06-0.05-0.12-0.01-0.15 0.05-0.05 0.04-0.04 0.11-0.05 0.17-0.01 0.07 0 0.14-0.02 0.2-0.08 0.18-0.18 0.36-0.27 0.53-0.07 0.15-0.18 0.27-0.28 0.41-0.03 0.06-0.12 0.12-0.09 0.19 0.05 0.1 0.1 0.2 0.15 0.29-0.02 0.15-0.04 0.29-0.04 0.43-0.01 0.14 0 0.28 0.01 0.41 0.01 0.21 0.04 0.42 0.07 0.63 0 0.09 0.05 0.18 0.09 0.26 0.03 0.08 0.06 0.16 0.06 0.24 0.03 0.07-0.01 0.12-0.06 0.16-0.04 0.07 0.01 0.15 0 0.23l-0.12 0.21c-0.04 0.04-0.08 0.09-0.13 0.13-0.08 0.07-0.13 0.17-0.19 0.25-0.1 0.15-0.2 0.29-0.29 0.44-0.09 0.16-0.17 0.32-0.24 0.49-0.04 0.06-0.13 0.04-0.18 0.1-0.1 0.09-0.19 0.2-0.25 0.33-0.04 0.06-0.07 0.13-0.12 0.18-0.04 0.05-0.09 0.1-0.11 0.16-0.02 0.14-0.05 0.28-0.05 0.43 0.01 0.15-0.02 0.29-0.05 0.44l0.06 0.21c0.01 0.08 0.05 0.13 0.11 0.18 0.04 0.04 0.07 0.09 0.08 0.15 0.04 0.16 0.06 0.33 0.08 0.49 0 0.08-0.07 0.14-0.1 0.2-0.02 0.12-0.05 0.23-0.05 0.35 0.01 0.11 0 0.22 0.01 0.32 0.02 0.1 0.03 0.2 0.05 0.29 0.05 0.11 0.1 0.21 0.15 0.32 0.03 0.04 0.04 0.1 0.07 0.13 0.08 0.08 0.14 0.17 0.24 0.23 0.13 0.08 0.25 0.18 0.36 0.29 0.12 0.09 0.22 0.19 0.31 0.3 0.09-0.01 0.17-0.02 0.26-0.03 0.11-0.05 0.23-0.1 0.34-0.16 0.1-0.05 0.21-0.11 0.32-0.16 0.14-0.03 0.29-0.05 0.44-0.07 0.07-0.01 0.15-0.04 0.22-0.02 0.07 0.05 0.14 0.02 0.2-0.01 0.1-0.03 0.16-0.1 0.24-0.16 0.06-0.03 0.09-0.09 0.13-0.15 0.09-0.12 0.19-0.23 0.26-0.37 0.08-0.16 0.19-0.3 0.29-0.45 0.06-0.12 0.11-0.25 0.16-0.39 0.05-0.13 0.09-0.26 0.15-0.38 0.08-0.14 0.13-0.29 0.18-0.44 0.11-0.29 0.24-0.58 0.37-0.87 0.07-0.17 0.16-0.32 0.25-0.47 0.09-0.2 0.18-0.41 0.27-0.61s0.15-0.41 0.23-0.61c0.07-0.14 0.15-0.28 0.23-0.42 0.09-0.16 0.16-0.34 0.24-0.51 0.07-0.15 0.13-0.3 0.2-0.45 0.03-0.09 0.09-0.18 0.12-0.28 0.02-0.06 0.01-0.12 0.08-0.15 0.09-0.18 0.18-0.35 0.26-0.53 0.1-0.25 0.18-0.5 0.26-0.76 0.04-0.15 0.09-0.29 0.11-0.44 0.01-0.18 0.07-0.35 0.11-0.52 0.04-0.07 0.09-0.14 0.13-0.21 0.05-0.08 0.12-0.14 0.19-0.21 0.04-0.07 0.07-0.15 0.11-0.23 0.02-0.11 0.03-0.22 0.05-0.33-0.03-0.09-0.07-0.17-0.1-0.26 0.02-0.1 0.03-0.2 0.04-0.31 0.04-0.15 0.09-0.31 0.13-0.46 0.02-0.05 0.11-0.01 0.16-0.02 0.03 0.03 0.02 0.11 0.04 0.16 0.01 0.13 0.05 0.25 0.09 0.37 0.01 0.09 0.11 0.03 0.16 0.03 0.04-0.08 0.08-0.16 0.12-0.23 0.03-0.11 0.05-0.21 0.08-0.31v-0.34l-0.09-0.33c-0.01-0.16-0.02-0.33-0.01-0.49 0.02-0.15-0.02-0.29-0.03-0.44-0.02-0.14 0-0.29-0.03-0.43-0.02-0.13-0.06-0.26-0.05-0.39 0.01-0.14-0.02-0.29-0.04-0.43-0.02-0.09-0.06-0.17-0.09-0.26-0.04-0.06-0.09-0.1-0.13-0.16-0.1-0.11-0.15-0.24-0.21-0.37-0.06-0.07-0.14-0.14-0.2-0.22h-0.02zm-4.23 0.41h-0.01c0 0.02-0.02 0.03-0.04 0.04-0.01 0.02 0 0.04 0 0.06 0.01 0.01 0.04 0.01 0.04 0.02v0.05c0.01 0.01 0.01 0.03 0 0.04-0.01 0.02 0.02 0.03 0.03 0.04 0.01 0.02 0.02 0.05 0 0.06-0.01 0-0.03-0.01-0.03-0.03-0.01-0.01-0.04-0.02-0.04 0 0.01 0.01 0.04 0.03 0.02 0.05-0.01 0-0.02 0.02 0 0.02s0 0.03 0.02 0.03c0.02 0.01 0.03 0.01 0.05 0 0.01 0 0.03 0 0.03-0.02-0.01-0.01-0.03-0.03-0.01-0.05 0.01-0.01 0.03-0.01 0.03-0.03s0.03-0.03 0.01-0.05c-0.01-0.01-0.01-0.04 0-0.05 0.02-0.02 0.03-0.04 0.04-0.06 0-0.02-0.01-0.03-0.03-0.04-0.01-0.01-0.04-0.01-0.05 0-0.02-0.01-0.03-0.03-0.04-0.04 0-0.01-0.01-0.01-0.01-0.02-0.01 0-0.01-0.02-0.01-0.02zm-55.51 3.43h-0.01c-0.01 0.01-0.01 0.02-0.02 0.03-0.01 0-0.02 0.01-0.03 0.02 0 0.01 0 0.02-0.01 0.03 0 0-0.01 0.02 0 0.03 0 0.01 0.01 0.01 0.02 0.02s0.01 0 0.02-0.01c0.01 0 0.02 0 0.02-0.01 0.01 0 0.01-0.01 0.02-0.01s0.01 0.01 0.02 0.01c0.01-0.01 0.02-0.01 0.03-0.02 0.01 0 0.01-0.01 0.01-0.02 0.01-0.01 0.01-0.01 0.01-0.02 0-0.02-0.01-0.02-0.01-0.03-0.01-0.01-0.01-0.03-0.02-0.02h-0.03c0-0.01-0.01-0.01-0.02 0zm52.51 1.55s-0.01 0-0.01 0.01c0 0 0.01 0 0.01 0.01h0.01v0.01c0.01 0 0.02 0 0.02-0.01 0.01 0 0.01 0 0-0.01 0 0-0.01-0.01-0.02-0.01h-0.01zm14.81 4.3c-0.03-0.01-0.05 0.01-0.08 0.02s-0.04 0.05-0.06 0.08-0.01 0.08-0.05 0.09c-0.03 0.01-0.06 0.01-0.07 0.04-0.03 0.03-0.05 0.06-0.07 0.11 0.01 0.03-0.03 0.07-0.02 0.11 0 0.02-0.01 0.06-0.05 0.05-0.03-0.01-0.02 0.05 0 0.05 0.02 0.04 0.06 0.05 0.09 0.05 0.04 0.01 0.07 0.02 0.11 0.02s0.07-0.02 0.11-0.03c0.03 0 0.06-0.03 0.08-0.06 0-0.03-0.01-0.06 0.03-0.07 0.04-0.02 0.06-0.06 0.07-0.1 0.02-0.03 0.03-0.07 0.01-0.11 0-0.03-0.03-0.05-0.01-0.08 0.01-0.04-0.05-0.05-0.04-0.08-0.01-0.03 0.01-0.07-0.02-0.08-0.01-0.01-0.02-0.01-0.03-0.01zm5.8 0.12h-0.01-0.01l-0.01 0.01h-0.01l-0.01-0.01v0.01h-0.01v0.01h-0.01-0.01v0.01h-0.01-0.01-0.01v0.01h-0.01v0.01 0.01 0.01h0.01 0.01v0.01h-0.01v0.01 0.01h0.01 0.01 0.01 0.01v-0.01h0.01l0.01-0.01h0.01v-0.01h0.01 0.01 0.01 0.01 0.01 0.01v-0.01h0.01l0.01-0.01 0.01-0.01v-0.01-0.01-0.01l-0.01-0.01h-0.01-0.01-0.01-0.01zm-8.17 0.74c-0.03 0-0.05 0.01-0.07 0.02-0.03 0.02-0.05 0.03-0.08 0.02-0.03 0.03-0.01 0.09-0.06 0.09-0.04 0.02-0.07 0.06-0.05 0.1 0.02 0.03 0.04 0.07 0.04 0.11 0 0.03-0.01 0.06 0.01 0.09 0.01 0.05 0.05 0.05 0.08 0.07 0.01 0.04 0.07 0.04 0.1 0.08 0.02 0.03 0.07 0.02 0.1 0.03 0.06 0.01 0.11-0.01 0.17-0.02 0.05 0 0.03-0.06 0.04-0.09 0.02-0.04 0.04-0.08 0.06-0.11 0.02-0.05-0.05-0.05-0.06-0.09-0.02-0.03-0.03-0.07-0.03-0.11-0.01 0-0.01-0.01-0.02-0.01 0-0.04 0.01-0.08-0.01-0.1-0.03-0.03-0.06-0.03-0.09-0.05-0.03-0.01-0.07 0-0.1-0.02-0.01-0.01-0.02-0.02-0.03-0.01zm-67.93 17.25c-0.05 0-0.1 0.16 0.05 0.06-0.02-0.05-0.03-0.07-0.05-0.06zm-0.32 0.28c-0.01 0-0.02 0.01 0.01 0.03 0.04-0.02 0.01-0.03-0.01-0.03zm0.23 0.11c-0.01 0-0.04 0.03 0 0.01v-0.01zm3.03 2.97c-0.05-0.01-0.1 0.03 0.01 0.06 0.01 0.01 0.04 0.02 0.06 0-0.01-0.04-0.04-0.06-0.07-0.06z"
   fill="#f7c608"
   style="fill:#cc9966;fill-opacity:1" /><rect
   id="rect5683"
   height="13.646"
   stroke="#952038"
   stroke-width=".5"
   fill="#fff"
   fill-rule="evenodd"
   width="57.048"
   y="296.42"
   x="346.48" /><g
   id="g5667"
   transform="translate(-.000010004 -12.985)"><path
     id="path5643"
     d="m332.53 312.99a4.6262 4.6262 0 1 1 -9.25 0 4.6262 4.6262 0 1 1 9.25 0z"
     transform="translate(47.098 3.2414)"
     stroke="#952038"
     fill="none" /><use
     id="use5651"
     xlink:href="#path5643"
     transform="translate(14.493 4.5072e-7)"
     height="500"
     width="750"
     y="0"
     x="0" /><use
     id="use5655"
     xlink:href="#path5643"
     transform="translate(7.2463 4.5072e-7)"
     height="500"
     width="750"
     y="0"
     x="0" /><use
     id="use5659"
     xlink:href="#path5643"
     transform="translate(-7.2463 -4.5072e-7)"
     height="500"
     width="750"
     y="0"
     x="0" /><use
     id="use5663"
     xlink:href="#path5643"
     transform="translate(-14.493 -4.5072e-7)"
     height="500"
     width="750"
     y="0"
     x="0" /><use
     id="use5645"
     xlink:href="#path5643"
     transform="translate(-21.739 -4.5072e-7)"
     height="500"
     width="750"
     y="0"
     x="0" /><use
     id="use5647"
     xlink:href="#path5643"
     transform="translate(21.739 4.5072e-7)"
     height="500"
     width="750"
     y="0"
     x="0" /></g></g></svg>