<?xml version="1.0" encoding="UTF-8"?>
<svg width="1200" height="600" version="1.1" viewBox="-50 -30 120 60" xmlns="http://www.w3.org/2000/svg" xmlns:xlink="http://www.w3.org/1999/xlink"><rect x="-50" y="-30" width="120" height="60" fill="#e00" fill-rule="evenodd"/><g transform="matrix(.83333 0 0 .83333 11.126 -8.3991)" fill="#fc0"><path d="m-9.4379-1.5266-6.9138 7.3457 4.654 4.9447 10.516-11.173-2.2374-2.3772s-4.0499 2.8289-6.0189 1.2599z"/><path d="m-8.0808 2.4513-0.60924 4.2085 19.065 18.036s4.2389 1.1004 3.0686-3.2604z"/><path d="m1.1865-4.9005c-0.56003-0.07212-0.99157 0.0441-1.2311 0.37415 0 0 11.281 8.5244 7.0242 17.555-2.7356 5.8043-7.762 5.2816-11.145 2.76 0.09525-0.18771 0.16826-0.39754 0.19351-0.62434 0.11118-0.93241-0.51721-1.7798-1.3945-1.8926-0.65681-0.08382-0.87099 0.27906-1.6051 0.89022-1.4278 1.1879-2.4059 2.9263-3.9049 3.6047-6.0949 1.5086-5.4564 6.182-5.4564 6.182 0.35378 1.2316 2.1029 1.1277 2.1029 1.1277 1.1676-0.08094 2.3996-0.80626 3.44-1.7756 0-0.0011 3e-3 -0.0018 3e-3 -0.0036 1.147-0.83851 2.6398-3.0364 3.7467-5.1283l0.96618 0.12447s13.16 9.113 17.595-2.6547c3.8808-10.297-6.4107-20.035-10.335-20.54z" fill-rule="evenodd"/></g></svg>
