<?xml version="1.0" encoding="UTF-8" standalone="no"?>
<!-- Created with Inkscape (http://www.inkscape.org/) -->

<svg
   xmlns:dc="http://purl.org/dc/elements/1.1/"
   xmlns:cc="http://creativecommons.org/ns#"
   xmlns:rdf="http://www.w3.org/1999/02/22-rdf-syntax-ns#"
   xmlns:svg="http://www.w3.org/2000/svg"
   xmlns="http://www.w3.org/2000/svg"
   xmlns:sodipodi="http://sodipodi.sourceforge.net/DTD/sodipodi-0.dtd"
   xmlns:inkscape="http://www.inkscape.org/namespaces/inkscape"
   width="254mm"
   height="169.33333mm"
   viewBox="0 0 900 599.99998"
   id="svg8595"
   version="1.1"
   inkscape:version="0.91 r13725"
   sodipodi:docname="CARICOM.svg">
  <defs
     id="defs8597" />
  <sodipodi:namedview
     id="base"
     pagecolor="#ffffff"
     bordercolor="#666666"
     borderopacity="1.0"
     inkscape:pageopacity="0.0"
     inkscape:pageshadow="2"
     inkscape:zoom="0.34"
     inkscape:cx="88.599222"
     inkscape:cy="294.35057"
     inkscape:document-units="px"
     inkscape:current-layer="layer1"
     showgrid="false"
     fit-margin-top="0"
     fit-margin-left="0"
     fit-margin-right="0"
     fit-margin-bottom="0"
     showguides="false"
     inkscape:window-width="1600"
     inkscape:window-height="837"
     inkscape:window-x="-8"
     inkscape:window-y="-8"
     inkscape:window-maximized="1" />
  <metadata
     id="metadata8600">
    <rdf:RDF>
      <cc:Work
         rdf:about="">
        <dc:format>image/svg+xml</dc:format>
        <dc:type
           rdf:resource="http://purl.org/dc/dcmitype/StillImage" />
        <dc:title />
      </cc:Work>
    </rdf:RDF>
  </metadata>
  <g
     inkscape:label="Laag 1"
     inkscape:groupmode="layer"
     id="layer1"
     transform="translate(1391.4286,-571.40979)">
    <rect
       style="opacity:1;fill:#124086;fill-opacity:1;stroke:none;stroke-width:15;stroke-linecap:round;stroke-linejoin:round;stroke-miterlimit:4;stroke-dasharray:none;stroke-dashoffset:0;stroke-opacity:1"
       id="rect9143"
       width="900"
       height="600"
       x="-1391.4286"
       y="571.40979"
       ry="0" />
    <rect
       ry="0"
       y="571.40979"
       x="-1391.4286"
       height="300"
       width="900"
       id="rect9145"
       style="opacity:1;fill:#71d4ed;fill-opacity:1;stroke:none;stroke-width:15;stroke-linecap:round;stroke-linejoin:round;stroke-miterlimit:4;stroke-dasharray:none;stroke-dashoffset:0;stroke-opacity:1" />
    <circle
       style="opacity:1;fill:#fcd116;fill-opacity:1;stroke:#007a4d;stroke-width:29.81072617;stroke-linecap:round;stroke-linejoin:round;stroke-miterlimit:4;stroke-dasharray:none;stroke-dashoffset:0;stroke-opacity:1"
       id="path9169"
       cx="-941.42859"
       cy="871.40979"
       r="210.09464" />
    <g
       id="g4801"
       transform="matrix(0.94117721,0,0,0.94117721,-62.436192,49.697065)">
      <path
         inkscape:connector-curvature="0"
         id="rect4752"
         d="m -1042.3505,750.56897 c -10.2662,0 -19.0781,8.8144 -19.0781,19.0805 l 0,20.4258 0,94.9874 0,20.4281 c 0,10.2661 8.8119,19.078 19.0781,19.078 l 20.4281,0 94.9898,0 20.4234,0 c 10.2661,0 19.0804,-8.8119 19.0804,-19.078 l 0,-20.4281 0,-14.625 -35.1445,0 0,14.625 c 0,2.7199 -1.6394,4.3617 -4.3593,4.3617 l -94.9898,0 c -2.7199,0 -4.3617,-1.6418 -4.3617,-4.3617 l 0,-94.9874 c 0,-2.72 1.6418,-4.3617 4.3617,-4.3617 l 94.9898,0 c 2.7199,0 4.3593,1.6417 4.3593,4.3617 l 0,14.6273 35.1445,0 0,-14.6273 0,-20.4258 c 0,-10.2661 -8.8143,-19.0805 -19.0804,-19.0805 l -20.4234,0 -94.9898,0 -20.4281,0 z"
         style="color:#000000;font-style:normal;font-variant:normal;font-weight:normal;font-stretch:normal;font-size:medium;line-height:normal;font-family:sans-serif;text-indent:0;text-align:start;text-decoration:none;text-decoration-line:none;text-decoration-style:solid;text-decoration-color:#000000;letter-spacing:normal;word-spacing:normal;text-transform:none;direction:ltr;block-progression:tb;writing-mode:lr-tb;baseline-shift:baseline;text-anchor:start;white-space:normal;clip-rule:nonzero;display:inline;overflow:visible;visibility:visible;opacity:1;isolation:auto;mix-blend-mode:normal;color-interpolation:sRGB;color-interpolation-filters:linearRGB;solid-color:#000000;solid-opacity:1;fill:#0f0f0f;fill-opacity:1;fill-rule:nonzero;stroke:none;stroke-width:29.28717232;stroke-linecap:round;stroke-linejoin:miter;stroke-miterlimit:4;stroke-dasharray:none;stroke-dashoffset:0;stroke-opacity:1;color-rendering:auto;image-rendering:auto;shape-rendering:auto;text-rendering:auto;enable-background:accumulate" />
      <path
         style="color:#000000;font-style:normal;font-variant:normal;font-weight:normal;font-stretch:normal;font-size:medium;line-height:normal;font-family:sans-serif;text-indent:0;text-align:start;text-decoration:none;text-decoration-line:none;text-decoration-style:solid;text-decoration-color:#000000;letter-spacing:normal;word-spacing:normal;text-transform:none;direction:ltr;block-progression:tb;writing-mode:lr-tb;baseline-shift:baseline;text-anchor:start;white-space:normal;clip-rule:nonzero;display:inline;overflow:visible;visibility:visible;opacity:1;isolation:auto;mix-blend-mode:normal;color-interpolation:sRGB;color-interpolation-filters:linearRGB;solid-color:#000000;solid-opacity:1;fill:#0f0f0f;fill-opacity:1;fill-rule:nonzero;stroke:none;stroke-width:29.28717232;stroke-linecap:round;stroke-linejoin:miter;stroke-miterlimit:4;stroke-dasharray:none;stroke-dashoffset:0;stroke-opacity:1;color-rendering:auto;image-rendering:auto;shape-rendering:auto;text-rendering:auto;enable-background:accumulate"
         d="m -961.3506,821.56938 c -10.2661,0 -19.078,8.8143 -19.078,19.0804 l 0,20.4258 0,94.9875 0,20.428 c 0,10.2661 8.8119,19.0781 19.078,19.0781 l 20.4282,0 94.9898,0 20.4233,0 c 10.2661,0 19.0805,-8.812 19.0805,-19.0781 l 0,-20.428 0,-14.625 -35.1445,0 0,14.625 c 0,2.7199 -1.6394,4.3616 -4.3593,4.3616 l -94.9898,0 c -2.7199,0 -4.3617,-1.6417 -4.3617,-4.3616 l 0,-94.9875 c 0,-2.7199 1.6418,-4.3616 4.3617,-4.3616 l 94.9898,0 c 2.7199,0 4.3593,1.6417 4.3593,4.3616 l 0,14.6274 35.1445,0 0,-14.6274 0,-20.4258 c 0,-10.2661 -8.8144,-19.0804 -19.0805,-19.0804 l -20.4233,0 -94.9898,0 -20.4282,0 z"
         id="path4783"
         inkscape:connector-curvature="0" />
    </g>
  </g>
</svg>
