<?xml version="1.0" encoding="utf-8"?>
<!-- Generator: Adobe Illustrator 12.0.0, SVG Export Plug-In . SVG Version: 6.00 Build 51448)  -->
<!DOCTYPE svg PUBLIC "-//W3C//DTD SVG 1.0//EN" "http://www.w3.org/TR/2001/REC-SVG-20010904/DTD/svg10.dtd" [
	<!ENTITY ns_svg "http://www.w3.org/2000/svg">
	<!ENTITY ns_xlink "http://www.w3.org/1999/xlink">
]>
<svg  version="1.0" id="Layer_1" xmlns="&ns_svg;" xmlns:xlink="&ns_xlink;" width="431.962" height="215.981"
	 viewBox="0 0 431.962 215.981" overflow="visible" enable-background="new 0 0 431.962 215.981" xml:space="preserve">
<rect fill="#DB2028" width="431.962" height="215.981"/>
<rect y="92.26" fill="#FFD81F" width="431.962" height="31.461"/>
<path fill="#DB2028" d="M269.024,125.305V46.033h-106.48v79.272C162.544,189.137,269.024,189.137,269.024,125.305z"/>
<path fill="#E6E6E7" d="M228.21,65c2.615-1.57,4.318-4.445,4.318-7.715c0-4.842-3.926-8.896-8.896-8.896
	c-4.97,0-9.021,4.054-9.021,8.896c0,2.351,1.042,4.582,2.481,6.279c-0.397,0-0.914,0.13-1.308,0.391
	c-0.653-0.391-1.173-0.525-1.832-0.525c-0.522-1.7-0.522-4.442-1.307-5.231c0.521-0.261,1.048-0.653,1.438-1.175
	c0-0.789,0-1.572,0-2.358c-0.39-0.39-0.917,0.264-1.046,0.655c0-0.786,0-1.7,0-2.616c-0.652-1.178-1.18-0.787-1.18,0
	c0-1.178-1.042-1.829-1.042,0c0,0.397,0,0.916,0,1.438c-0.395-0.522-1.047,0.262-0.656,0.661c-0.655-0.27-1.175,0.125-0.913,0.909
	c0,1.311,0.127,1.833,1.042,2.486c0,1.961,0,3.928,0.264,5.756c-0.783-0.13-1.439,0-1.703,0.392
	c-0.912-0.392-1.698-0.131-2.484,0.786c-1.439-0.263-2.095,0.525-2.484,1.831c-1.311,0.131-1.178,1.828-1.047,3.662
	c-0.391,0.389-0.651,0.786-1.044,1.045c0,0.392,0,0.788,0,1.309c-0.523,1.047,0,1.83,0.78,2.484
	c-1.304,0.916-1.965,1.964-1.304,3.403c-0.918,0.786-1.047,1.569-0.661,2.616c-1.042-0.131-2.091-0.131-3.267,0.656
	c0-0.525-0.125-0.787-1.175-0.525c1.309-0.652,0.653-2.223-0.783-1.569c1.958-1.439,0.389-1.703-1.442-2.091
	c-0.395-0.785-0.522-1.574-0.395-2.49c0.919-1.437,0.134-2.352-1.17-3.134c-0.53-1.833-1.18-3.792-1.701-5.632
	c2.222-0.911,4.576-1.302,7.06-1.039c-0.393-1.442-0.783-2.878-1.176-4.45c-2.223,1.7-4.449,2.617-6.673,3.008
	c-0.393-1.569-0.917-3.27-1.303-4.837c1.833-0.789,3.398-1.05,5.099-0.789c-0.389-1.305-0.784-2.484-1.179-3.787
	c-1.437,1.042-3.009,1.826-4.971,1.958c-0.263-1.703-0.388-3.405-0.522-5.106c-1.308,0.53-2.617,0.787-3.924,1.308
	c0.79,1.57,1.568,3.142,2.355,4.582c-1.566,0.653-3.273,0.914-5.103,0.914c0.394,1.312,0.783,2.62,1.311,3.793
	c1.178-1.045,2.615-1.698,4.448-2.093c0.389,1.57,0.913,3.006,1.308,4.581c-2.358,0.786-4.712,1.307-7.067,1.172
	c0.527,1.445,0.919,2.879,1.442,4.321c1.961-1.306,4.059-2.356,6.279-2.75c1.044,3.669,2.088,7.326,3.139,11.121
	c-1.965,0.133-2.355,2.092-2.614,4.317c-1.051,1.051-1.964,2.225-3.014,3.268c-3.003,1.439-4.184,3.403-3.789,5.754
	c-0.261,0.66-0.659,1.311-0.659,1.838c0.136,0.912,1.047,1.959,1.705,2.481c0.783,0.261,1.698-0.124,2.615-0.261
	c1.828,1.699,5.756,0.393,9.551-0.914c0,1.307,0.521,1.959,1.307,1.959c0.261,0.785,1.437,5.104,1.698,5.893
	c-1.57,0.516-1.698,1.303-0.914,1.958c-0.784,0.915-0.656,1.569,0.395,2.093c-0.787,0.781,0,1.302,1.042,1.83
	c-0.39,0.783,0.396,1.176,1.575,1.437c0.784,3.009,1.567,5.888,2.354,8.896c-2.095,1.18-2.879,3.537-5.104,5.234
	c0.134,0.131,0.266,0.392,0.393,0.658c-0.783,0.648-1.176,1.438-1.31,2.611c-1.306,0.789-1.703,1.834-1.174,3.271
	c0,0.786,0,1.569,0,2.356c-3.926-0.653-7.585-0.131-11.118,0.91c-2.224-3.397-5.363-5.883-10.072-6.537c0-1.041,0-1.963,0-2.878
	c0.522-1.179,1.566,0.134,3.269,0.134c1.31-0.134,2.488-2.748,4.71-1.312c-1.436-5.357-6.148,0.918-7.851-1.436
	c0-0.787,0-1.697,0-2.614c1.05-2.36,2.622,0,3.797-0.131c1.307,0,3.134-1.572,4.054-0.267c-2.092-6.146-6.015-0.516-7.72-1.827
	c-0.39-2.487,2.225-5.234-1.046-7.455c-0.261,2.351-2.355,4.052-0.783,7.319c-2.094,1.18-4.188-2.873-7.458,1.572
	c5.623-1.437,3.404,2.225,7.061,0.657c0.137,0.913,0.137,1.829,0.137,2.745c-2.488,0.653-4.058-3.527-7.461,1.962
	c1.833,0.133,3.143-1.569,5.498,0.522c0.52,0.521,1.439-0.783,1.826-0.39c0,1.175,0,2.224,0,3.397
	c-3.268-0.658-6.405-0.13-9.547,1.307c0.917,10.076,4.186,19.494,11.252,27.604c10.333,0.912,14.65-5.627,23.935-3.793
	c1.179,3.138-3.012,3.53-4.574,5.232c-3.015-0.131-5.757,1.175-4.711,2.09c-2.227,0.657,0.132,2.354,2.875,1.048
	c1.052,1.705,4.581-0.651,6.671-0.391c2.228,0.263,4.711,0.915,5.889-0.657c1.175-1.437-1.438-4.185-0.525-6.015
	c3.139,1.308,6.279,2.223,9.682,2.878c0.656,2.62,1.437,5.361,2.093,7.979c0.522,2.225,3.793,1.044,3.14-0.784
	c-0.654-2.354-1.179-4.575-1.832-6.935c8.24,0,15.436-3.397,23.021-4.317c-0.52,2.353-0.909,4.843-1.439,7.193
	c-3.922,1.181-3.793,3.143-1.699,2.753c0.129,0.914,4.314,1.306,6.146-1.048c1.179-5.234,5.102-4.581,4.449-8.244
	c3.27,1.18,7.326,1.832,10.989,1.832c7.063-7.457,10.728-17.002,10.857-28.773c-2.881-0.525-5.762-0.786-8.509-0.525
	c0-0.92-0.129-1.964-0.129-2.878c1.966,1.566,3.796-2.356,6.805-1.442c-2.617-4.444-4.578-0.256-6.934-0.393
	c0-1.177,0-2.354,0-3.399c2.485,1.175,4.188-1.306,6.541-1.044c-1.699-3.534-5.1,0.256-7.062-0.918
	c-0.134-2.353,2.226-5.23-0.263-7.195c-0.393,2.617-3.535,3.926-1.049,7.977c-2.352,1.05-5.102-3.397-6.41,1.445
	c2.488-0.917,3.793,2.35,6.41,0.26c0,1.048,0,2.09,0,3.012c-2.486,1.828-4.184-3.536-6.935,1.043
	c2.358-0.521,4.188,2.488,6.676,0.391c0,1.179,0,2.357,0,3.398c-4.843,1.181-8.635,3.797-11.382,7.848
	c-4.58-0.91-9.551-0.649-14.521,1.179c-2.612-0.392-2.351-3.137-1.832-6.013c0.262,0,0.393,0.131,0.654,0.131
	c0.525-4.578,0.656-8.898-0.393-12.032c0.786,0.389,1.049-0.661,0.527-3.142c1.043-0.787,2.224-1.178,3.401-1.178
	c4.968,6.411,8.368,8.5,8.892,1.178c2.878-0.653,5.364-2.226,7.325-4.32c-0.134-1.436-0.259-2.873-0.392-4.184
	c1.834-1.176,4.451-0.132,6.539-1.048c1.701-3.397,1.31-6.538-0.912-9.416c-0.656-0.133-1.311-0.261-1.832-0.395
	c-1.306-3.011-3.537-5.231-6.805-6.54c-0.914,0.264-1.825,0.652-2.875,1.047c-2.225,0.262-2.878-3.271-4.842-3.271
	c-1.959,0.128-2.223,3.012-4.576,3.533c-0.914-2.617-1.836-5.492-4.32-6.148c0.396-1.436,0.133-3.139-0.521-4.837
	c1.309,0,1.832-0.784,1.439-2.358c1.83,0.261,3.661-0.127,5.492-0.65c1.44,0.911,2.616,0.781,3.535-0.392
	c2.481-0.394,3.793-1.833,4.055-4.059c0.258,0,0.527,0,0.916,0c0-0.914,0-1.83,0-2.742c-0.389,0-0.787,0-1.178,0
	c-0.264-2.1-1.439-3.142-3.4-3.142c0-0.917,0-1.701-0.131-2.487c0.914,0.392,1.697,0.786,2.617,1.173c0-1.173,0-2.351,0-3.526
	c-0.92,0.392-1.703,0.783-2.617,1.05c0.259-0.922,0.653-1.833,0.914-2.753c-1.049,0-2.225,0-3.271,0
	c0.137,0.919,0.39,1.831,0.651,2.753c-0.914-0.397-1.698-0.789-2.615-1.186c0,1.311,0,2.62,0,3.928
	c0.917-0.522,1.701-0.917,2.615-1.309c0,0.787-0.125,1.572-0.125,2.356c-2.098,0.263-3.271,1.177-3.671,3.142
	c-0.256,0-0.646,0-0.908,0c0,0.778,0,1.698,0,2.617c0.262,0,0.522,0,0.781,0c0.127,0.518,0.264,1.176,0.264,1.698
	c-0.915,1.57-3.269-0.132-4.974-0.264c0.786-0.392,0.527-1.7,0.131-3.003C231.351,67.225,231.086,65.527,228.21,65L228.21,65z
	 M198.514,94.304c1.178,0.132,2.225,0.39,3.403,0.521c0.526,3.658,4.842,6.014,8.113,7.849c-1.181-0.132-3.398,0.267-4.583,0.658
	c-1.694-2.226-3.396-3.009-4.969-2.493C199.829,98.619,199.175,96.523,198.514,94.304L198.514,94.304z M205.448,116.672
	c-0.257-0.656-0.391-1.439-0.652-2.1c1.044-0.779,0.395-2.352-1.178-4.315c2.222-2.089,4.709-2.747,7.457-2.347
	c-0.259,1.693,0,2.875,0.392,3.92C209.505,112.221,207.413,114.447,205.448,116.672L205.448,116.672z M222.195,136.686
	c-3.271,1.179-6.672,1.307-10.462,0.389c0.125-1.305-0.393-2.354-1.703-3.008c-0.395-1.307-0.656-2.747-1.045-4.186
	c0.65-0.132,1.303-0.391,1.962-0.651c0.258,0.261,0.653,0.389,0.911,0.651c1.965,0.393,3.405,0.132,4.581-0.781
	c0.653,0.913,1.963,1.436,3.008,1.436C218.924,132.366,222.062,133.674,222.195,136.686L222.195,136.686z M207.152,136.027
	c-1.439-0.655-2.745-1.178-4.184-1.436c-0.398-2.096,1.958-1.962,2.872-2.879C206.366,133.152,206.76,134.592,207.152,136.027z"/>
<path fill="#D1AA67" d="M228.603,64.741c2.357-1.575,3.926-4.322,3.926-7.326c0-4.972-4.057-9.026-8.896-9.026
	c-4.97,0-9.021,4.054-9.021,9.026c0,2.356,1.042,4.452,2.481,6.149h1.442l1.83,0.517l0,0l-0.918-1.434l0.393-0.78h-1.305
	l-0.264-0.787v-1.047l-0.786-0.527V58.59l-0.393-0.13l-0.397-2.094l0.527-1.045h0.524l0.263-0.655l-0.524-0.65l1.308-1.703
	l0.914-0.522l0.786,0.127l1.439-1.042l1.31,0.259l0.652-0.65l1.051,0.522l0.912-0.13l1.701,1.437l0.262-0.261l1.571,2.225
	l0.651,0.39l0.261,1.7l0.261,1.964l-0.783,1.573l-0.525,1.703l-0.913,0.125l0.13,0.784h-0.914l0.262,1.05l-0.393,0.13l-1.963-0.786
	l0.523,1.703L228.603,64.741z"/>
<polygon fill="#D1AA67" points="245.352,71.278 234.361,71.278 234.361,68.536 238.677,68.536 239.065,63.038 236.45,64.216 
	236.45,60.418 239.065,61.466 238.414,58.852 241.555,58.852 240.636,61.604 243.253,60.682 243.253,64.081 240.771,62.78 
	241.163,68.4 245.352,68.536 "/>
<path fill="none" stroke="#231F20" stroke-width="2.3546" d="M269.024,125.305V46.033h-106.48v79.272
	C162.544,189.137,269.024,189.137,269.024,125.305z"/>
<g>
	<g>
		<path fill="none" stroke="#231F20" stroke-width="0.591" stroke-linecap="round" stroke-linejoin="round" d="M228.21,65
			c2.615-1.57,4.318-4.445,4.318-7.715c0-4.842-3.926-8.896-8.896-8.896c-4.97,0-9.021,4.054-9.021,8.896
			c0,2.351,1.042,4.582,2.481,6.279c-0.397,0-0.914,0.13-1.308,0.391c-0.653-0.391-1.173-0.525-1.832-0.525
			c-0.522-1.7-0.522-4.442-1.307-5.231c0.521-0.261,1.048-0.653,1.438-1.175c0-0.789,0-1.572,0-2.358
			c-0.39-0.39-0.917,0.264-1.046,0.655c0-0.786,0-1.7,0-2.616c-0.652-1.178-1.18-0.787-1.18,0c0-1.178-1.042-1.829-1.042,0
			c0,0.397,0,0.916,0,1.438c-0.395-0.522-1.047,0.262-0.656,0.661c-0.655-0.27-1.175,0.125-0.913,0.909
			c0,1.311,0.127,1.833,1.042,2.486c0,1.961,0,3.928,0.264,5.756c-0.783-0.13-1.439,0-1.703,0.392
			c-0.912-0.392-1.698-0.131-2.484,0.786c-1.439-0.263-2.095,0.525-2.484,1.831c-1.311,0.131-1.178,1.828-1.047,3.662
			c-0.391,0.389-0.651,0.786-1.044,1.045c0,0.392,0,0.788,0,1.309c-0.523,1.047,0,1.83,0.78,2.484
			c-1.304,0.916-1.965,1.964-1.304,3.403c-0.918,0.786-1.047,1.569-0.661,2.616c-1.042-0.131-2.091-0.131-3.267,0.656
			c0-0.525-0.125-0.787-1.175-0.525c1.309-0.652,0.653-2.223-0.783-1.569c1.958-1.439,0.389-1.703-1.442-2.091
			c-0.395-0.785-0.522-1.574-0.395-2.49c0.919-1.437,0.134-2.352-1.17-3.134c-0.53-1.833-1.18-3.792-1.701-5.632
			c2.222-0.911,4.576-1.302,7.06-1.039c-0.393-1.442-0.783-2.878-1.176-4.45c-2.223,1.7-4.449,2.617-6.673,3.008
			c-0.393-1.569-0.917-3.27-1.303-4.837c1.833-0.789,3.398-1.05,5.099-0.789c-0.389-1.305-0.784-2.484-1.179-3.787
			c-1.437,1.042-3.009,1.826-4.971,1.958c-0.263-1.703-0.388-3.405-0.522-5.106c-1.308,0.53-2.617,0.787-3.924,1.308
			c0.79,1.57,1.568,3.142,2.355,4.582c-1.566,0.653-3.273,0.914-5.103,0.914c0.394,1.312,0.783,2.62,1.311,3.793
			c1.178-1.045,2.615-1.698,4.448-2.093c0.389,1.57,0.913,3.006,1.308,4.581c-2.358,0.786-4.712,1.307-7.067,1.172
			c0.527,1.445,0.919,2.879,1.442,4.321c1.961-1.306,4.059-2.356,6.279-2.75c1.044,3.669,2.088,7.326,3.139,11.121
			c-1.965,0.133-2.355,2.092-2.614,4.317c-1.051,1.051-1.964,2.225-3.014,3.268c-3.003,1.439-4.184,3.403-3.789,5.754
			c-0.261,0.66-0.659,1.311-0.659,1.838c0.136,0.912,1.047,1.959,1.705,2.481c0.783,0.261,1.698-0.124,2.615-0.261
			c1.828,1.699,5.756,0.393,9.551-0.914c0,1.307,0.521,1.959,1.307,1.959c0.261,0.785,1.437,5.104,1.698,5.893
			c-1.57,0.516-1.698,1.303-0.914,1.958c-0.784,0.915-0.656,1.569,0.395,2.093c-0.787,0.781,0,1.302,1.042,1.83
			c-0.39,0.783,0.396,1.176,1.575,1.437c0.784,3.009,1.567,5.888,2.354,8.896c-2.095,1.18-2.879,3.537-5.104,5.234
			c0.134,0.131,0.266,0.392,0.393,0.658c-0.783,0.648-1.176,1.438-1.31,2.611c-1.306,0.789-1.703,1.834-1.174,3.271
			c0,0.786,0,1.569,0,2.356c-3.926-0.653-7.585-0.131-11.118,0.91c-2.224-3.397-5.363-5.883-10.072-6.537c0-1.041,0-1.963,0-2.878
			c0.522-1.179,1.566,0.134,3.269,0.134c1.31,0,2.488-2.748,4.71-1.312c-1.436-5.357-6.148,0.918-7.851-1.436
			c0-0.787,0-1.697,0-2.614c1.05-2.36,2.622-0.131,3.797-0.131c1.307,0,3.134-1.572,4.054-0.267
			c-2.092-6.146-6.015-0.516-7.72-1.827c-0.39-2.487,2.225-5.234-1.046-7.455c-0.261,2.351-2.355,4.052-0.783,7.319
			c-2.094,1.18-4.188-2.873-7.458,1.572c5.623-1.437,3.404,2.225,7.061,0.657c0.137,0.913,0.137,1.829,0.137,2.745
			c-2.488,0.653-4.058-3.527-7.461,1.962c1.833,0.133,3.143-1.569,5.498,0.522c0.52,0.521,1.439-0.783,1.826-0.39
			c0,1.175,0,2.224,0,3.397c-3.268-0.658-6.405-0.13-9.547,1.307c0.917,10.076,4.186,19.494,11.252,27.604
			c10.333,0.912,14.65-5.627,23.935-3.793c1.179,3.138-3.012,3.53-4.574,5.232c-3.015-0.131-5.757,1.175-4.711,2.09
			c-2.227,0.657,0.132,2.354,2.875,1.048c1.052,1.705,4.581-0.651,6.671-0.391c2.097,0.131,4.711,0.785,5.889-0.657
			c1.175-1.437-1.438-4.185-0.525-6.015c3.139,1.308,6.279,2.223,9.682,2.878c0.656,2.62,1.437,5.361,2.093,7.979
			c0.522,2.225,3.793,1.044,3.14-0.784c-0.654-2.354-1.179-4.575-1.832-6.935c8.24,0,15.436-3.397,23.021-4.317
			c-0.52,2.353-0.909,4.843-1.439,7.193c-3.922,1.181-3.793,3.143-1.699,2.753c0.129,0.914,4.314,1.306,6.146-1.048
			c1.179-5.234,5.102-4.581,4.449-8.244c3.27,1.18,7.326,1.832,10.989,1.832c7.063-7.457,10.728-17.002,10.857-28.773
			c-2.881-0.525-5.762-0.786-8.509-0.525c0-0.92-0.129-1.964-0.129-2.878c1.966,1.566,3.796-2.356,6.805-1.442
			c-2.617-4.444-4.578-0.256-6.934-0.393c0-1.177,0-2.354,0-3.399c2.485,1.175,4.188-1.306,6.541-1.044
			c-1.699-3.534-5.1,0.256-7.062-0.918c-0.134-2.353,2.226-5.23-0.263-7.195c-0.393,2.617-3.535,3.4-1.049,7.977
			c-2.352,1.05-5.102-3.397-6.41,1.445c2.488-0.917,3.793,2.35,6.41,0.26c0,1.048,0,2.09,0,3.012
			c-2.486,1.828-4.184-3.536-6.935,1.043c2.358-0.521,4.188,2.488,6.676,0.391c0,1.179,0,2.357,0,3.398
			c-4.843,1.181-8.635,3.797-11.382,7.848c-4.58-0.91-9.551-0.649-14.521,1.179c-2.612-0.392-2.351-3.137-1.832-6.013
			c0.262,0,0.393,0.131,0.654,0.131c0.525-4.578,0.656-8.898-0.393-12.032c0.786,0.389,1.049-0.661,0.527-3.142
			c1.043-0.787,2.224-1.178,3.401-1.178c4.968,6.411,8.368,8.5,8.892,1.178c2.878-0.653,5.364-2.226,7.325-4.32
			c-0.134-1.436-0.259-2.873-0.392-4.184c1.834-1.176,4.451-0.132,6.539-1.048c1.701-3.397,1.31-6.538-0.912-9.416
			c-0.656-0.133-1.311-0.261-1.832-0.395c-1.306-3.011-3.537-5.231-6.805-6.54c-0.914,0.264-1.825,0.652-2.875,1.047
			c-2.225,0.262-3.01-3.271-4.842-3.271c-1.829,0-2.223,3.012-4.576,3.533c-0.914-2.617-1.836-5.492-4.32-6.148
			c0.396-1.436,0.133-3.139-0.521-4.837c1.309,0,1.832-0.784,1.439-2.358c1.83,0.261,3.661-0.127,5.492-0.65
			c1.44,0.911,2.616,0.781,3.535-0.392c2.481-0.394,3.793-1.833,4.055-4.059c0.258,0,0.527,0,0.916,0c0-0.914,0-1.83,0-2.742
			c-0.389,0-0.787,0-1.178,0c-0.264-2.1-1.439-3.142-3.4-3.142c0-0.917,0-1.701-0.131-2.487c0.914,0.392,1.697,0.786,2.617,1.173
			c0-1.173,0-2.351,0-3.526c-0.92,0.392-1.703,0.783-2.617,1.05c0.259-0.922,0.653-1.833,0.914-2.753c-1.049,0-2.225,0-3.271,0
			c0.137,0.919,0.39,1.831,0.651,2.753c-0.914-0.397-1.698-0.789-2.615-1.186c0,1.311,0,2.62,0,3.928
			c0.917-0.522,1.701-0.917,2.615-1.309c0,0.787-0.125,1.572-0.125,2.356c-2.098,0.263-3.271,1.177-3.671,3.142
			c-0.256,0-0.646,0-0.908,0c0,0.778,0,1.698,0,2.617c0.262,0,0.522,0,0.781,0c0.127,0.518,0.264,1.176,0.264,1.698
			c-0.915,1.57-3.269-0.132-4.974-0.264c0.786-0.392,0.527-1.7,0.131-3.003C231.351,67.225,231.086,65.527,228.21,65L228.21,65z
			 M198.514,94.304c1.178,0.132,2.225,0.39,3.403,0.521c0.526,3.658,4.971,6.014,8.243,7.979c-1.175-0.262-3.528,0.137-4.712,0.528
			c-1.694-2.226-3.396-3.009-4.969-2.493C199.829,98.619,199.175,96.523,198.514,94.304L198.514,94.304z M205.448,116.672
			c1.965-2.225,4.058-4.451,6.019-4.842c-0.392-1.045-0.65-2.227-0.392-3.92c-2.748-0.4-5.235,0.258-7.457,2.347
			c1.573,1.964,2.222,3.536,1.178,4.315C205.057,115.232,205.19,116.016,205.448,116.672L205.448,116.672z M222.195,136.686
			c-3.271,1.179-6.672,1.307-10.462,0.389c0.125-1.305-0.393-2.354-1.703-3.008c-0.395-1.307-0.656-2.747-1.045-4.186
			c0.65-0.132,1.303-0.391,1.962-0.651c0.258,0.261,0.653,0.389,0.911,0.651c1.965,0.393,3.405,0.132,4.581-0.781
			c0.653,0.913,1.963,1.436,3.008,1.436C218.924,132.366,222.062,133.674,222.195,136.686L222.195,136.686z M207.152,136.027
			c-1.439-0.655-2.745-1.178-4.184-1.436c-0.398-2.096,1.958-1.962,2.872-2.879C206.366,133.152,206.76,134.592,207.152,136.027
			L207.152,136.027z M220.233,54.534c-0.655,0.786-1.31,1.572-1.832,2.49c0.783-0.522,0.916-0.136,0.391,1.306
			c-0.391,0-0.783,0.13-1.175,0.261c-0.261,1.312,0.392,1.829,1.701,1.442c0.521,1.698,2.745,3.532,4.445,3.398
			c1.572,0,2.748-1.439,3.926-3.398c1.702,0.387,2.614-1.442,0.521-1.442c-0.129-0.783-0.129-1.566,0.132-2.484
			c-0.784-0.394-1.308-0.917-0.653-1.831c-0.522-0.656-0.522-1.312,0-2.089 M217.092,63.563c1.31-0.264,2.614,0.391,4.057,0.652
			c0.261-0.391,0.522-0.786,0.783-1.178 M223.112,63.43c0,0.264,0,0.651-0.133,0.917c-0.393-0.653-1.182-0.266-1.704-1.309
			c-0.261,1.832-2.741-0.258-1.308-1.172c-1.434,0.386-1.959-0.137-1.697-1.575 M217.356,58.59c-0.786,0.262-0.525-3.531,0.261-3.27
			c0.129-0.261,0.261-0.391,0.525-0.655c-1.311-0.39,1.176-3.66,2.092-2.749c1.042-1.042,2.094-1.177,2.879-0.65
			c0.65-1.18,1.305-0.783,1.961-0.133c0.783-0.65,1.566,0.392,2.484,1.309c0.393-0.787,1.045,0.391,1.697,1.833
			c1.048,0,1.178,1.044,1.048,2.226c0.394,1.306,0.394,2.223-0.132,2.609c-0.129,0.395-0.391,0.922-0.65,1.309
			c0,1.572-0.783,1.708-2.225,0.397c1.307,1.051,2.095,1.964,0.131,1.831c1.176,1.569-0.261,1.047-1.963,0.261
			c0.129,0.522,0.393,1.173,0.523,1.703c0.787,0.13,1.57,0.259,2.354,0.389 M220.102,54.665c-1.178-1.309-1.178-1.701,0.132-1.309
			c0-0.784-0.655-0.914-1.31-1.045 M221.671,52.443c-2.354,3.922,3.273,1.044,1.441-1.045c0.258,2.222,1.051,2.877,2.352,1.833
			c-1.701,2.089,3.139,1.173,0.654-0.527 M219.839,56.629c0.525-1.047,3.793-1.964,3.141,3.142c0.262,0,0.519,0,0.914,0
			 M220.233,57.807c0.651-0.261,0.915-0.261,1.438,0 M221.798,58.459c-0.389,0.13-1.041,0.13-1.306,0 M224.546,57.023
			c0.656-1.047,1.441-1.179,2.488-0.658 M224.944,58.199c0.52-0.653,1.174-0.653,1.83-0.261 M225.202,58.459l1.309,0.13
			 M222.327,60.946h2.352 M222.979,61.466c0,0.264,0,0.4,0,0.525c0.391,0,0.783-0.125,1.045-0.261 M230.171,56.106l-0.65,0.781
			l-1.179-0.781 M219.839,69.969c0.263,0,0.395,0,0.653,0.134 M225.593,70.104c0.264,0,0.395,0,0.65,0 M210.552,63.955
			c1.306,0.126,1.961,0.523,2.223,1.306c0.524,0,0.919,0,1.439,0c0.522,0.652,1.049,1.311,1.439,1.964
			c0.655,0,1.178-0.13,1.703-0.13c-0.264,1.306-0.134,2.489,0.39,3.4c0.263,0.261,0.525,0.658,0.656,0.916
			c0.261,1.047,0.133,1.962,0,3.009c0.522,0.259,1.045,0.523,1.566,0.787c0.524-0.131,0.917-0.264,1.308-0.264
			c1.052,0.264,2.095,0.52,3.142,0.785c-0.129,0.262-0.129,0.523-0.254,0.781c0.254-0.258,0.649-0.52,0.91-0.781
			c1.045-0.266,2.223-0.521,3.269-0.785c0.261,0.649,0.654,0.911,1.179,1.178c0.393,0,0.782,0,1.305,0
			c0-0.267,0.135-0.528,0.261-0.914c0,0.386-0.126,0.647-0.126,1.045c0.521,0,1.043,0.127,1.568,0.127c0-0.389,0-0.65,0.131-1.042
			c0,0.392,0,0.784,0,1.042c0.389,0,0.912-0.127,1.311-0.127c0-0.397,0-0.789,0-1.045 M228.342,74.943l-0.132-3.401h-0.783
			l1.045-1.178l-0.13-2.486l0.522-0.395 M209.505,56.106c0.783,0.523,1.442,0.917,1.835,0c-0.393-0.394-0.656-0.786-1.052-1.177
			c0.396,0.391,0.659,0.784,0.917,1.177c0.782,0,1.044-0.394,0.782-1.303c-0.387-0.138-0.647-0.399-1.041-0.528
			c0.393,0,0.653,0.128,0.911,0.128c0-0.65,0-1.303,0-2.092 M244.563,71.278c-3.14,0-6.274,0-9.421,0
			c0.527,2.612,2.878,4.059,6.281,3.798 M235.406,68.4h3.397l0.137-3.14 M240.901,65.261l0.262,3.14h3.139 M202.834,70.495
			c0.522-0.392,1.047-0.656,1.573-0.261c-0.137-1.045-0.265-2.092-0.395-3.139c0,2.354,1.569,0.389,3.01-1.309
			c-0.262,1.572,1.699,0.786,1.699-1.308c0,2.094,1.439,2.219,1.439,1.308c0.261,1.047,1.18,1.178,2.615,0.786
			c-0.656,1.176-0.389,2.09,0.791,2.876c0,0.135-0.135,0.258-0.266,0.258c0.523,0.397,0.523,1.309,0.395,2.226
			c0.781-0.653,1.569-1.175,2.876,0.264c0.652-0.917,0.391-1.7-0.786-2.747c-0.131-1.048,0.911-1.57,1.438-2.354
			c-1.305,1.174-2.611,2.22-3.656,0 M205.057,71.153c2.356-2.491,2.095,0.651,3.271-0.396c-0.131,0.786-0.26,1.702-0.39,2.481
			c-0.786,0.267-0.786,0.789,0.39,1.314c0.522-0.131,0.92-0.264,1.442-0.392c0-0.269,0-0.525,0-0.786c-0.264,0-0.395,0-0.656,0
			c0.134-0.915,0.134-1.831,0.134-2.748 M208.067,70.104l-0.396-0.915c-0.39,0.518-1.306-0.527-2.224,0.395 M212.903,68.792
			c-0.128,0.261-0.39,0.522-0.517,0.656c-1.439-0.521-1.965-0.26-1.439,0.916c0.127,0.522,0.258,0.65,0.519,0.65
			c0.392-0.128,0.652-0.258,0.392-0.65 M210.947,71.67c-0.131,0-0.395,0-0.659,0c0.527-1.567,1.312-1.832,2.486-0.784
			 M206.104,70.364c-0.391,0.789,0.918,0.789,0.918,0.261 M205.712,72.062c0.783-0.52,0.653-0.52,1.439-0.392 M212.903,71.542
			l-0.653,0.128 M201.79,72.587c1.697-0.783,2.48,0.392,2.48,3.403c-0.258,1.567-2.614,0.649-3.136,1.304c0,0.524,0,0.923,0,1.443
			c0.783,0,1.175-0.266,1.309-0.653 M204.271,71.67c-1.178,1.567,0.525,2.617,0.786,3.922c0.525-0.13,0.917-0.13,1.439-0.13
			c0.136-0.256,0.136-0.654,0.264-0.912c0.392-0.131,0.783-0.131,1.178-0.264 M209.505,74.42l1.442,0.259l0.786,1.311h1.17
			c0.396,0.649,0.791,1.304,1.181,2.094c0.13-0.131,0.13-0.266,0.264-0.266c-0.264-0.261-0.525-0.392-0.782-0.65v-0.916l0.909-0.131
			l-0.261-1.962l0.522-0.395l-0.125-1.178L215,71.411 M200.479,81.219c0.656,0.133,1.312,0.264,2.092,0.264
			c0.398,0.262,0.786,0.525,1.184,0.786c0.783,0.261,1.303,0.784,1.828,1.439c0.258,0.522,0.131,1.178-0.134,1.695
			c1.312-0.257,2.879-0.386,2.49-1.431c0.522,0.258,0.783,0.125,1.048-0.265c-0.397,1.048,0.389,1.438,2.481,1.31
			c0.784-0.398-0.126-0.92-0.782-1.576c0.39,0.395,0.916,0.789,1.434,1.178c1.312-1.833,0-2.48-0.778-3.4
			c0.778,0.525,1.435,1.176,1.435,2.617c1.439-1.05,1.7-2.223,0.791-3.4c-0.135-0.261-0.266-0.523-0.266-0.916
			c0.131,0.393,0.395,0.655,0.523,0.916c0.13,0.783,0.261,1.572,0.391,2.225c0.397-0.785,0.917-1.047,1.309-1.309 M205.19,75.729
			c-1.573,0.911-1.965,1.698-1.048,2.225c-1.308,0.784-1.439,1.566-0.655,2.222l-0.917,1.177l0.655,0.523
			c0.262-0.523,0.393-1.047,0.656-1.57l-0.127,1.834c0.127-0.525,0.258-1.051,0.388-1.573c0.265,0.263,0.526,0.396,0.785,0.653
			c0-0.258,0-0.391,0.13-0.653c0.134-0.13,0.391-0.13,0.525-0.261c-0.134-0.393-0.266-0.785-0.391-1.306
			c0.125-0.133,0.257-0.262,0.391-0.395c-0.134-0.264-0.134-0.651-0.266-0.917l1.444-1.048h0.522V75.99l1.307-0.262v-1.049v1.175
			l1.181,0.136l0.125,0.52l0.527,0.13l0.395,0.528c0.524,0,0.917,0.126,1.303,0.126l-0.261,0.923
			c0.13,0.255,0.392,0.521,0.528,0.782l-0.528,0.653c0.13,0.26,0.392,0.392,0.528,0.652l-0.92,0.523v0.391 M205.057,83.053
			l0.134-1.045l1.175-1.047l0.656,0.521l0.916-0.521l0.522,1.434l-0.522-1.566l1.048,0.654l-1.175-1.308v-1.176l1.04-1.312
			l-0.654-0.52l0.131-0.261l0.522,0.261 M218.271,71.411l-0.129,1.568l-1.572-0.784l-1.178,1.695l0.654,0.789l2.489-0.128
			l-1.178,0.786v1.042l0.786,0.528l1.697-1.7l-0.393,1.172l1.438,0.131l1.702,0.917l-1.178,1.045
			c-0.395-0.255-0.785-0.519-1.308-0.784c-0.917,0.131-1.96,0.131-3.01,0.266l1.05-1.18c-0.133,0.521-0.396,1.045-0.657,1.567
			c-0.523,0.658-1.176,1.312-1.831,1.964c0,0.392,0,0.656-0.13,0.914c-0.131-0.258-0.26-0.653-0.392-1.044
			c0.132-0.263,0.261-0.522,0.522-0.784c-0.262-0.392-0.39-0.653-0.522-0.919c0.392,0,0.915,0.133,1.439,0.133
			c-0.131-0.521-0.131-0.917-0.261-1.437l-0.655-0.658h0.655l-0.131-1.831 M230.171,78.737l0.132-1.18l-0.522,0.659l-0.916-1.182
			l0.526-0.783l-1.049,0.655l-0.392-1.7l0.26,1.828l-0.783,0.259l-0.261,0.923l-1.31-0.79l-3.141,0.131l-1.567,1.18l-0.524,1.045
			c-0.391-0.13-0.656-0.263-1.046-0.392l1.046,0.392c-0.132,0.783-0.391,1.7-0.522,2.486c-0.134,1.306-0.263,2.617-0.396,3.921
			c-0.128,0.395-0.26,0.791-0.389,1.178c0.129,0.262,0.129,0.525,0.129,0.786c-0.522,0.655-0.912,1.308-1.438,1.961l-0.131,1.572
			h-1.047l-0.522-0.392c0.13-0.392,0.386-0.658,0.522-1.049l-0.522,1.049l-0.655-0.133l0.263-0.916c-0.263,0-0.394,0-0.653-0.132
			L215,91.031h0.392V90.51l-0.527,0.394l-0.517-0.394c0-0.396,0-0.656,0-1.049c0.517-0.521,0.916-0.913,1.306-1.44
			c0.524-0.257,0.917-0.518,1.308-0.784c-0.522,0.131-0.916,0.267-1.438,0.527c0.394-1.049,0.394-1.828,0-2.486
			c0-0.392,0-0.919-0.131-1.305c0.131-0.92,0-1.834,0.131-2.621c-0.131,0.131-0.26,0.262-0.392,0.523c0,0.785,0,1.699,0,2.483
			c-0.267-0.128-0.52-0.261-0.656-0.261c0.261,0.521,0.656,1.18,1.048,1.838c-0.131,0-0.26,0.123-0.392,0.123
			c-0.267-0.259-0.52-0.655-0.917-0.912c-0.261-0.129-0.52-0.261-0.648-0.391c0.257,0.13,0.519,0.13,0.782,0.262
			c0.263,0.521,0.652,1.172,0.916,1.827c0,0.522-0.132,1.176-0.132,1.833 M217.878,90.378l0.393,1.44l0.914-0.132v-0.783
			l0.133,0.783h0.65l0.134-0.916v0.916h0.783l0.264-1.309l-0.134,1.309l1.181-0.392l0.132-1.049l-0.132,1.175l0.917-0.259
			l0.386-1.048l-0.128-0.913l-0.783-1.309l0.654,0.391l0.257-1.047l1.181-1.959l0.134-1.703l-0.396-1.83l0.262-0.783l-0.262,0.783
			l0.396,1.964l1.175-0.267l-0.263-0.912l0.519-0.916l-0.387,0.916l0.131,0.912l1.309-0.128l-0.13-0.653l0.13-0.266v-0.912v1.047
			l0.262,0.784l0.784-0.261c0.396-1.834,0.13-3.4-1.046-4.836 M212.903,85.277l1.444,1.307 M212.119,86.189l0.656,0.128l0.656,1.446
			 M211.075,86.715l1.175,1.049v0.65 M192.373,72.329c-0.788,0.909-0.396,2.092,1.17,3.264 M193.938,77.953
			c-1.178,0.131-2.354,1.046-3.526,2.482 M184.129,88.548c1.308-2.095,3.011-4.189,4.969-6.019 M194.068,79.52l-0.261,0.785
			 M194.988,81.482l-0.394,0.656 M195.248,83.441l-0.26,0.917 M197.339,82.008c0.134,0.652-0.522,1.176-1.175,1.566
			c0.392-0.261,0.785-0.391,1.175-0.652c0.526,1.309,0,2.225-1.308,2.743c-0.129-0.388-0.129-0.779-0.261-1.177
			c0.132,0.397,0.132,0.789,0.261,1.312c-1.437,1.181-2.742,1.703-4.188,1.306c-0.388,1.178-0.781,2.096-1.305,2.617
			c0,0.262,0.134,0.523,0.134,0.655c0.258,1.309-0.656,1.962-1.707,2.615 M189.624,89.461l-1.044,0.262 M189.229,90.637
			l-0.649,0.395h-1.314 M188.579,91.943l-0.397,0.266h-1.306 M186.22,93.521l0.92,0.125l0.653-0.261 M188.055,95.871
			c0.653-0.522,0.911-1.047,0.911-1.834 M190.143,93.907c0.136,0.528,0,1.047-0.52,1.441 M191.062,94.954
			c0.522-0.519,0.651-0.917,0.781-1.434 M192.633,94.168c0.393-0.261,0.656-0.647,0.656-1.175 M185.306,95.871l1.834-0.262
			 M190.672,90.378c2.222,0.259,3.791,1.44,4.837,3.268c-0.261,0.522-0.393,1.048-0.521,1.703 M198.645,94.304l-2.481-8.639
			 M193.678,87.105l1.831,6.54 M200.479,100.838l0.656,1.054l-3.27,0.911 M195.509,93.521c1.439-0.397,2.096,0.261,1.83,1.828
			c-0.125,0.522-0.522,1.437-1.044,1.829 M196.422,86.584l2.489,0.919l1.048-0.658l-1.314-0.392l0.79,0.392l-0.79,1.048
			c-0.389,0.261-0.913,0.521-1.431,0.785c0.518,0.131,1.172,0.389,1.564,0.523c0.656,0.131,1.441,0.652,2.228,0.652
			c0.519,0,1.304-0.261,1.962-0.393 M201.917,94.824c5.234,0.13,9.423-1.179,12.693-4.054 M202.184,95.74
			c0.909,0.131,1.829,0.262,2.612,0.131 M202.968,96.785c0.913,0.13,1.827,0.262,2.613,0.13 M203.618,98.227
			c0.919,0.137,1.83,0.256,2.748,0.137 M205.19,99.533c0.913,0.131,1.832,0.259,2.62,0.131 M209.374,103.848
			c1.047-1.045,1.966-2.48,3.401-3.134c1.573-0.789,3.534-1.05,5.367-1.573 M212.646,100.578l-3.533-6.671
			c0.917,0.917,1.834,1.441,2.62,1.441 M212.646,94.168c-0.913,0.136-1.83-0.131-2.616-0.647 M214.214,93.254
			c-0.915,0-1.828-0.261-2.613-0.65 M217.222,99.274c0.263-3.926,0.92-6.543,2.225-7.588 M218.271,93.521
			c-0.786-0.789-1.576-0.917-2.354-1.052 M218.009,94.954c-0.787-0.786-1.314-1.047-2.092-1.173 M217.617,96.002
			c-0.786-0.786-0.922-0.786-1.7-0.914 M216.831,97.047l-0.786-0.784 M197.078,104.897c0.527-0.392,2.356-0.261,1.833-1.308
			 M198.911,106.862l-1.438,0.128 M198.256,108.692h1.178 M199.302,105.29l0.526,1.306 M199.829,107.51l0.65,0.919 M228.21,83.053
			c3.664-0.784,5.889,11.251,7.719,25.376 M239.329,105.681l-7.062-17.788 M237.892,94.304l-3.139-4.843 M244.692,89.332
			l-7.588,3.922 M254.111,94.824l-16.352-0.521l-3.532-1.05 M236.587,103.59l2.611,2.091l6.409,2.091l3.925,3.145 M234.491,113.139
			c-1.443-2.882-3.666-5.629-3.928-8.896l-1.567-16.739c0-1.444-0.654-2.747-1.569-4.189 M223.37,90.637
			c0.262,0,1.574,0.134,1.703,0.267c1.832,1.176,2.746,3.265,4.579,3.921 M227.95,93.781c-0.262,0.387-0.916,0.654-1.045,1.043
			c-0.918,3.008-2.488,5.89-4.318,8.239c-0.655,0.784-0.916,2.487-1.963,3.013c-0.656,0.391-1.046-1.57-2.482-0.525 M211.075,107.91
			c4.056,0,7.587-0.4,9.549-1.704 M220.757,104.506c-0.655-1.442,1.438-1.965,0.914-3.139 M226.774,94.954
			c-0.531-1.173-1.311-1.961-2.229-2.223 M225.335,96.139c0.129-0.79-0.262-1.445-1.047-1.971 M224.679,97.832
			c0-0.785-0.262-1.438-1.047-1.961 M224.024,99.141c0-0.777-0.262-1.309-0.912-1.828 M223.112,100.061l-0.396-0.92 M230.96,106.467
			c-0.918-1.309-1.964-2.486-2.75-3.794c-0.391-0.781-0.26-2.095-0.783-2.612c-0.521-0.527-1.57-0.527-2.354-0.786 M227.427,100.061
			l-0.652-3.798l1.045,0.132l0.652,2.225l-0.521-1.965l0.652-0.516l1.178,2.741 M227.819,101.105l1.306,0.649l0.788-1.566
			 M228.472,103.59l-1.438,2.616c-1.31-1.309-3.01-1.833-4.972-1.7 M223.632,102.02c2.611,0.391,3.664,2.745,3.664,6.541
			c1.441,1.696,3.007,3.398,3.79,5.625 M226.774,102.15l0.392,3.926 M229.78,106.99l0.652,1.702l-1.695-1.702l0.915,1.83
			 M249.532,91.295c0.654,0.648,1.441,1.698,1.834,2.351 M248.485,91.943c0.656,0.525,1.178,1.18,1.701,1.838 M247.569,92.604
			c0.655,0.52,0.655,0.52,1.178,1.304 M246.524,92.993c0.652,0.527,0.393,0.13,0.788,0.914 M236.974,90.771l1.178,1.698l1.178-0.525
			l-1.309-1.697l1.309,1.697l0.92-0.387l-1.184-1.834 M256.726,104.897c-2.878-1.308-1.436-4.709-3.4-5.105
			c-9.807-0.259-7.194,5.105-12.689,5.366 M253.716,99.925c-2.873,0.397-4.444,2.748-3.657,6.021 M241.555,100.975
			c-0.392,0.78-0.919,1.176-1.706,1.566c3.014,1.307,4.453,1.049,5.503-0.131 M253.063,102.02c0.262,1.176,0.918,2.223,1.701,3.008
			c-0.653,0.131-1.176,0.131-1.83,0.131c-0.393-0.652-0.785-1.441-0.914-2.219c0.389,0.65,0.655,1.434,0.914,2.219
			c-0.393,0-0.914,0-1.309,0.132c-0.26-0.393-0.523-0.917-0.523-1.442 M241.685,102.541c0.654-0.391,1.045-0.786,1.306-1.566
			 M243.388,102.541c0.65-0.391,1.042-0.786,1.305-1.566 M235.929,108.429l1.045-1.7 M240.771,118.892
			c-2.22-0.39-3.14-2.484-1.311-8.106c-4.837-2.617-8.109-5.365-6.801-8.244c0.652-1.047,0.912,1.176,0.652,2.749 M238.151,107.123
			l-0.784,2.221l1.437,0.913l0.525-2.347 M243.253,114.316c-0.785-3.4-0.656-6.024,1.568-6.807 M243.907,110.916
			c0,0.783,0.395,1.697,1.309,2.613c0.392-0.13,0.915-0.264,1.309-0.391c-0.656-0.525-1.045-1.048-1.173-1.832
			c0.39,0.523,0.779,1.18,1.173,1.7c0.393-0.133,0.652-0.261,1.045-0.394c-0.652-0.522-0.918-1.045-0.918-1.57 M234.884,109.74
			l-0.522,1.045 M235.536,110.785l-0.522,1.045 M218.924,114.969c3.663-3.662,9.679-0.396,6.801-4.445 M216.961,112.746
			c0.395,1.309,1.31,1.176,2.356,0.393l-1.309-1.048l1.438,0.655l0.918-0.26l-1.047-0.918 M220.364,111.174
			c0.65,0.656,1.307,0.656,2.092,0.133c-0.261-0.264-0.394-0.652-0.524-0.92 M222.327,109.215l0.785,0.525 M229.521,114.969
			l1.043,2.878 M226.774,118.502c1.436,0,2.351,0.39,3.006,1.178 M227.427,120.066c1.311,0.134,1.698,0.4,2.354,1.051
			 M227.95,121.377c1.305,0,1.175,0.262,1.83,1.049 M228.21,122.817c0.915,0,1.045,0.524,1.57,1.309 M228.603,124.648
			c0.522,0.13,0.918,0.396,1.178,1.045 M230.171,129.229c-5.098-3.536-7.191,0.783-10.854,1.306 M216.438,128.963
			c-0.393-0.779-0.393-2.743-1.175-2.348c-0.916,0.383,0.782,3.003-0.264,3.003c-1.434,0-1.7-3.136-3.142-3.136
			c-1.042,0,1.18,3.398,0.13,3.267c-1.567-0.131-1.828-3.659-3.399-3.659c-1.307,0,0.132,2.486,0.132,3.659 M211.733,126.482
			c1.042-2.617,3.131-4.582,3.92-7.33 M220.102,122.036c0.522,1.046,0.132,0.39,1.047,1.046 M219.317,123.212
			c0.65,1.175,0.521,0.653,1.439,1.437 M218.662,124.259c0.655,1.175,0.916,1.046,1.83,1.831 M217.356,126.22
			c0.653,1.173,1.436,1.964,2.222,2.743 M218.142,125.045c0.65,1.175,1.176,1.438,1.96,2.09 M208.067,126.09
			c1.18-2.49,4.183-4.842,5.099-7.721 M204.795,114.572l5.098,19.365 M202.443,119.022c0.127,0.917,0.391,1.7,0.649,2.616
			c1.703,0.658,1.834,2.227,1.314,4.451c2.353,7.977,4.578,15.953,6.933,23.938 M214.864,150.68
			c-1.17-4.316-2.218-9.024-3.524-13.344c-1.966-1.833-2.62-2.744-1.447-3.398 M202.968,121.514
			c-0.785,1.828-0.134,3.398,1.439,4.969c-2.224-1.834-4.449-2.096-6.676-1.57 M204.795,114.713
			c-2.225-1.967-2.612-3.539-1.309-4.58c-1.177,0.254-1.962,0.124-3.138-0.137 M206.888,121.77l1.572,1.312 M208.327,120.986
			l0.92,0.783 M209.505,120.066l0.783,0.789 M211.601,111.83l0.649,2.225l-1.175,1.703 M195.116,133.152
			c0.264,0.914,0.522,1.568,0.915,1.963 M196.422,140.737c-0.391-1.829-0.652-3.795-0.391-5.622
			c1.183-0.788,1.308-2.094,0.391-4.054c0.134-0.266,0.264-0.659,0.526-0.919 M204.537,142.439c1.698-3.531-1.312-5.104-1.569-7.848
			 M201.917,134.193c-0.393,0-0.651-0.127-0.912-0.127c-1.704,2.876-1.831,5.23-0.917,7.326 M203.881,140.737
			c-0.264,0.524-0.525,1.047-1.438,1.18 M203.356,139.17c-0.131,0.652-0.522,1.045-1.173,1.176 M202.968,137.864
			c0,0.647-0.398,1.044-0.917,1.175 M223.112,135.242c1.961,1.311,3.398,2.622,2.48,3.797c-1.047,0.131-2.223-0.392-3.266-2.354
			 M225.593,139.039c3.01,3.004,6.154,5.887,9.16,8.893 M230.171,140.869c3.4,5.494,3.271,2.357,6.672,6.802 M226.905,128.838
			c0.652,0.125,1.305,0.521,1.959,1.043 M227.296,130.273c0.393,0,0.785,0.129,1.307,0.522 M227.558,131.449
			c0.393,0.264,0.652,0.396,0.914,0.524 M227.819,132.76c0.262,0.262,0.391,0.393,0.522,0.523 M228.472,134.193
			c0.266,0.527,0.653,0.922,1.049,1.445 M231.747,135.242c10.069,5.369,5.227,5.884,7.843,8.895 M237.892,143.227
			c1.698,1.047,3.138,2.351,4.186,3.922 M237.76,139.561c-0.522,0-0.917,0-1.438,0 M238.551,141.523
			c-0.659-0.521-1.446-0.786-2.361-0.654 M238.677,142.701c-0.656-0.527-1.31-0.784-2.227-0.784 M183.998,134.193
			c-8.11,2.881-15.175,3.143-20.929-0.52 M177.066,143.619c-2.359-0.529-2.75-2.75-0.13-4.059c-0.128,1.963,1.83,2.613,4.445,1.701
			c5.625-2.223,10.726-3.27,14.65-2.75 M174.975,141.784c-3.407,0.39-6.805,0.133-10.075-0.915 M186.743,136.426
			c-7.192,2.871-14.777,3.527-22.762,1.041 M195.902,135.9c-2.744-1.051-8.374,0.916-7.064-1.18c-2.745,0-2.745,1.705-0.522,3.144
			 M209.635,144.404c-3.661-1.054-7.326-3.278-11.25-3.278c-8.896-0.124-13.997,3.147-21.189,3.669
			c-3.665,0.131-8.507,0-11.38-1.305 M210.421,147.277c-4.839-1.176-9.682-3.534-14.651-3.534c-6.015,0-11.898,3.275-17.92,3.795
			c-3.533,0.265-7.981-0.126-10.724-1.046 M194.202,146.885c-8.637,0-17.394,5.757-25.512,2.096 M195.902,148.718
			c-1.569-0.522-3.664-4.444,0.784-3.923c-1.438,1.568-0.13,2.617,2.093,2.354c2.488-0.13,8.11,2.093,12.562,3.143
			c7.977,1.828,15.694-1.182,23.413-2.226c4.188-0.527,8.371-1.047,12.56,0 M203.356,154.081c-1.964-0.787-3.922-1.308-5.884-1.439
			 M200.873,156.698c2.614,0.654,0-2.356,0.133-3.529 M188.447,159.97c1.436-0.266,3.138-0.919,4.969-1.964 M213.038,156.959
			c1.176,0.261,2.354,0.261,3.4,0.261 M239.329,153.037c2.487-0.396,4.973-0.264,7.588,0.52 M245.091,153.169
			c0.389,0.653-0.139,1.304-1.313,2.22 M237.104,161.404l-0.654,1.308 M238.414,161.668l-0.654,1.57 M239.722,161.668l-0.523,1.57
			 M240.771,161.404l-0.262,1.444 M177.066,153.169c-2.359,0.125-4.447-0.132-6.281-0.655 M179.419,154.6
			c-2.878-0.914-3.271-3.395-0.653-4.049c-1.049,2.743,1.178,3.006,4.971,1.568c3.925-1.307,8.106-2.617,12.165-2.355
			c6.801,0.264,13.604,4.184,20.276,4.184c3.79,0,7.454-0.391,10.728-1.174 M204.142,137.728c1.439,0.522,2.618,0.784,3.795,0.784
			 M204.927,140.215c1.177,0.654,2.486,1.047,3.662,1.178 M211.988,139.297c4.707,1.314,9.288,1.049,13.605-0.258 M214.084,147.803
			c4.578,1.83,12.159-1.439,18.312-2.094 M213.431,145.053c4.971,1.18,10.463,0.398,16.222-1.826 M215.653,142.963l-2.878-0.654
			 M217.878,144.534c-3.664-1.184-2.225-2.879-0.656-3.408c0.263,1.575,1.18,1.837,2.746,1.837c2.619-0.131,5.105-0.92,7.328-2.094
			 M228.472,153.557c-2.354-0.654-1.961-3.006-0.262-3.266c0.132,1.828,1.703,1.958,3.793,1.307
			c4.447-1.307,8.768-1.965,12.561-1.179c5.361,0.916,10.727,2.354,16.349,1.569 M235.27,137.336
			c2.361-0.91,5.104-1.309,8.118-1.045 M237.76,139.17c1.438-0.522,3.011-0.783,4.708-0.522c4.845,0.649,9.553,2.354,14.395,2.876
			c3.529,0.394,6.798-0.786,9.938-1.57 M267.581,136.942c-5.623,2.228-12.424,2.88-19.751,0.655
			c-1.044-0.262-2.739-1.045-1.962-2.482c-2.48,0.127-2.878,1.311-1.961,2.612 M238.677,141.917
			c6.016-2.356,12.035,1.958,18.311,2.22 M258.427,145.451c-1.962-1.314-1.962-2.361,0-3.012c-0.262,1.697,1.442,2.486,7.195,1.051
			 M240.249,144.926c8.368-3.533,11.377,4.971,24.064,1.438 M248.225,149.764c-1.7-2.093-0.912-2.879,0.917-3.01
			c-0.395,1.834,0.783,2.487,2.613,2.748c4.317,0.525,7.588,0.654,10.598,0 M215.131,126.482c1.178-2.487,3.271-4.446,4.054-7.193
			 M246.524,134.193c7.191,2.749,14.388,3.404,21.848-1.041 M248.485,91.943c0.656,0.525,1.178,1.18,1.701,1.838 M247.569,92.604
			c0.655,0.52,0.655,0.52,1.178,1.304"/>
	</g>
	<path fill="#231F20" d="M221.042,57.648c0.129,0,0.262,0.131,0.262,0.261c0,0.131-0.133,0.262-0.262,0.262
		c-0.133,0-0.264-0.131-0.264-0.262C220.778,57.779,220.909,57.648,221.042,57.648z"/>
	<path fill="#231F20" d="M225.963,57.815c0.132,0,0.261,0,0.261,0.129c0,0.131-0.129,0.262-0.261,0.262
		c-0.134,0-0.264-0.13-0.264-0.262C225.699,57.815,225.829,57.815,225.963,57.815z"/>
</g>
<path fill="#D1AA67" d="M213.563,157.443c0,0,1.872,0.222,2.555,0.141c1.709,6.418,1.77,6.619,1.83,6.881
	c0.061,0.261,0.021,1.046-0.965,1.228c-0.986,0.181-1.328-0.182-1.488-0.865C215.333,164.142,213.563,157.443,213.563,157.443z"/>
<path fill="#D1AA67" d="M214.408,150.362c0,0-2.052-0.161-2.696-0.382l-6.94-23.899c0,0,0.523-1.468,0.161-2.957
	c-0.362-1.489-1.529-1.771-1.529-1.771l-2.877-10.904c0,0,1.65,0.242,2.012,0.223c-0.262,0.381-0.321,1.267,0.181,2.212
	c0.503,0.946,1.791,2.093,1.791,2.093l4.928,18.77c0,0-0.522,0.423-0.542,0.965c-0.02,0.544,0.704,1.57,2.112,2.837L214.408,150.362
	z"/>
<path fill="#D1AA67" d="M198.174,102.363l-1.409-5.09c0,0,1.429-1.75,0.885-3.359c-0.382-1.127-1.911-0.845-1.911-0.845l-1.61-5.674
	c0,0,1.689-0.804,1.83-1.046l4.567,15.31L198.174,102.363z"/>
<path fill="#D1AA67" d="M191.595,78.686l-3.158-11.266c0,0-0.02-0.402-0.664-0.282c-0.645,0.121-2.978,0.684-5.794,2.495l-1.086-3.3
	c0,0,3.259-0.019,6.558-1.187c0.423-0.181,0.303-0.604,0.303-0.604l-1.268-4.425c0,0-0.041-0.403-0.543-0.302
	c-0.504,0.101-2.192,0.382-4.144,1.81c-0.685-1.891-0.946-2.776-0.946-2.776s2.192,0,4.707-0.925
	c0.322-0.101,0.182-0.624,0.182-0.624l-2.132-4.165l3.078-0.985c0,0,0.463,4.285,0.463,4.626c0,0.343,0.341,0.403,0.724,0.363
	c0.382-0.041,3.038-0.584,4.405-1.751c0.685,2.213,0.845,2.756,0.845,2.756s-2.233-0.221-4.505,0.785
	c-0.483,0.222-0.463,0.402-0.402,0.644c0.059,0.242,1.186,4.366,1.287,4.667c0.101,0.302,0.322,0.382,0.544,0.322
	c0.22-0.061,3.459-0.604,6.256-2.695l0.905,3.359c0,0-3.078-0.201-5.714,0.785c-0.623,0.222-0.684,0.222-0.885,0.302
	c-0.2,0.08-0.382,0.321-0.281,0.664c0.101,0.342,1.63,5.27,1.63,5.27s-0.443,0.503-0.382,1.187c0.061,0.684,0.664,1.73,1.549,2.334
	c0,0-0.061,1.227,0.281,1.891C192.158,77.941,191.595,78.686,191.595,78.686z"/>
</svg>
