<?xml version="1.0" encoding="UTF-8" standalone="no"?>
<!-- Created with Inkscape (http://www.inkscape.org/) -->
<svg
   xmlns:dc="http://purl.org/dc/elements/1.1/"
   xmlns:cc="http://web.resource.org/cc/"
   xmlns:rdf="http://www.w3.org/1999/02/22-rdf-syntax-ns#"
   xmlns:svg="http://www.w3.org/2000/svg"
   xmlns="http://www.w3.org/2000/svg"
   xmlns:sodipodi="http://sodipodi.sourceforge.net/DTD/sodipodi-0.dtd"
   xmlns:inkscape="http://www.inkscape.org/namespaces/inkscape"
   width="431"
   height="216"
   id="svg2232"
   sodipodi:version="0.32"
   inkscape:version="0.45"
   sodipodi:modified="true"
   version="1.0">
  <defs
     id="defs2234" />
  <sodipodi:namedview
     id="base"
     pagecolor="#ffffff"
     bordercolor="#666666"
     borderopacity="1.0"
     gridtolerance="10000"
     guidetolerance="10000"
     objecttolerance="10000"
     inkscape:pageopacity="0.0"
     inkscape:pageshadow="2"
     inkscape:zoom="1.7637795"
     inkscape:cx="219.78572"
     inkscape:cy="133.38397"
     inkscape:document-units="px"
     inkscape:current-layer="layer1"
     borderlayer="true"
     showgrid="true"
     gridspacingx="0px"
     gridspacingy="0px"
     inkscape:object-bbox="true"
     inkscape:object-points="true"
     inkscape:object-nodes="true"
     inkscape:grid-points="true"
     inkscape:guide-points="true"
     inkscape:window-width="1024"
     inkscape:window-height="712"
     inkscape:window-x="-4"
     inkscape:window-y="-4" />
  <metadata
     id="metadata2237">
    <rdf:RDF>
      <cc:Work
         rdf:about="">
        <dc:format>image/svg+xml</dc:format>
        <dc:type
           rdf:resource="http://purl.org/dc/dcmitype/StillImage" />
      </cc:Work>
    </rdf:RDF>
  </metadata>
  <g
     inkscape:label="Layer 1"
     inkscape:groupmode="layer"
     id="layer1"
     transform="translate(-121.64285,-110.07646)">
    <g
       id="g2250"
       transform="translate(-537.14286,-71.42858)">
      <path
         style="fill:#038e3b"
         d="M 658.78571,289.50504 L 658.78571,181.50504 L 874.28571,181.50504 L 1089.7857,181.50504 L 1089.7857,289.50504 L 1089.7857,397.50504 L 874.28571,397.50504 L 658.78571,397.50504 L 658.78571,289.50504 z "
         id="path2254" />
    </g>
    <path
       sodipodi:type="arc"
       style="fill:#3a3734;fill-opacity:1;fill-rule:evenodd;stroke:none;stroke-width:3;stroke-linecap:round;stroke-linejoin:round;stroke-miterlimit:4;stroke-dasharray:none;stroke-dashoffset:0;stroke-opacity:1"
       id="path1875"
       sodipodi:cx="71.283333"
       sodipodi:cy="72.294441"
       sodipodi:rx="58.475925"
       sodipodi:ry="56.453705"
       d="M 129.75926 72.294441 A 58.475925 56.453705 0 1 1  12.807407,72.294441 A 58.475925 56.453705 0 1 1  129.75926 72.294441 z"
       transform="matrix(1.4103782,0,0,1.442813,237.97816,112.98678)" />
    <path
       style="fill:#997b3d;fill-opacity:1;fill-rule:evenodd;stroke:#5d5d43;stroke-width:0.46147096;stroke-linecap:butt;stroke-linejoin:miter;stroke-miterlimit:4;stroke-dasharray:none;stroke-opacity:1"
       d="M 401.55281,180.49976 L 397.80953,184.2616 L 395.06055,184.03011 L 393.7153,181.94663 L 392.72101,181.36789 L 392.60402,180.84702 L 391.84367,180.78914 L 391.78517,179.11078 L 390.26446,178.12692 L 389.38714,175.81193 L 385.58536,173.95995 L 380.37987,168.05677 L 379.50253,167.36228 L 378.85915,167.42016 L 378.33276,168.17252 L 376.16867,167.82527 L 376.46111,164.70005 L 376.46111,164.23706 L 368.74059,164.29494 L 367.98024,162.03784 L 370.84618,159.25986 L 370.49525,162.09571 L 378.21578,162.5587 L 380.55533,163.54256 L 381.14021,165.74179 L 382.95336,168.34615 L 389.79657,173.95995 L 391.60972,174.71233 L 393.13042,175.63833 L 392.31158,177.66392 L 394.06624,178.35841 L 394.12473,179.5159 L 396.46427,180.96276 L 395.52846,181.88875 L 395.58696,182.52537 L 397.63406,182.35175 L 399.85663,180.03678 L 401.55281,180.49976 z "
       id="path3651" />
    <path
       style="fill:#997b3d;fill-opacity:1;fill-rule:evenodd;stroke:#5d5d43;stroke-width:0.46147096;stroke-linecap:butt;stroke-linejoin:miter;stroke-miterlimit:4;stroke-dasharray:none;stroke-opacity:1"
       d="M 393.89078,184.84035 L 392.89646,184.9561 L 392.95496,186.46083 L 394.18322,186.28721 L 393.89078,184.84035 z "
       id="path3653" />
    <path
       style="fill:#997b3d;fill-opacity:1;fill-rule:evenodd;stroke:#5d5d43;stroke-width:0.46147096;stroke-linecap:butt;stroke-linejoin:miter;stroke-miterlimit:4;stroke-dasharray:none;stroke-opacity:1"
       d="M 392.37007,163.65832 L 394.94358,166.49416 L 393.1889,167.65165 L 392.2531,166.49416 L 392.31158,165.16304 L 390.84935,164.17918 L 392.37007,163.65832 z "
       id="path3655" />
    <path
       style="fill:#3a3734;fill-opacity:1;fill-rule:evenodd;stroke:#5d5d43;stroke-width:0.46147096;stroke-linecap:butt;stroke-linejoin:miter;stroke-miterlimit:4;stroke-dasharray:none;stroke-opacity:1"
       d="M 378.74218,165.04731 L 377.86484,165.10518 L 377.86484,165.97329 L 378.91764,165.91541 L 378.74218,165.04731 z "
       id="path3657" />
    <path
       style="fill:#997b3d;fill-opacity:1;fill-rule:evenodd;stroke:#5d5d43;stroke-width:0.46147096;stroke-linecap:butt;stroke-linejoin:miter;stroke-miterlimit:4;stroke-dasharray:none;stroke-opacity:1"
       d="M 379.15913,151.86167 L 374.07582,160.33312 L 372.87187,160.20076 L 377.19714,151.9058 L 379.15913,151.86167 z "
       id="path7199" />
    <path
       style="fill:#997b3d;fill-opacity:1;fill-rule:evenodd;stroke:#5d5d43;stroke-width:0.46147096;stroke-linecap:butt;stroke-linejoin:miter;stroke-miterlimit:4;stroke-dasharray:none;stroke-opacity:1"
       d="M 373.49614,149.61145 L 370.06268,157.99465 L 368.01151,160.11251 L 366.04953,160.02426 L 364.8456,158.92121 L 364.57805,157.06808 L 354.41141,156.71511 L 350.66582,154.7296 L 349.3727,152.25878 L 349.90779,150.00855 L 349.10515,150.31741 L 347.54448,152.17053 L 345.09201,155.56794 L 343.17462,154.7296 L 342.59495,153.97954 L 342.63954,149.87619 L 344.42315,147.89068 L 344.24478,150.84687 L 344.82446,152.78825 L 347.27695,150.4939 L 349.50646,148.1113 L 350.66582,147.62596 L 351.42386,147.18474 L 352.18189,148.15543 L 351.60223,149.92032 L 351.82517,151.72931 L 352.40485,152.78825 L 353.38584,153.58244 L 354.67896,154.33251 L 355.92749,154.7296 L 359.22719,155.08259 L 361.0108,155.56794 L 362.79443,155.17083 L 364.57805,154.86197 L 365.15773,153.4942 L 366.04953,150.97923 L 367.16429,149.03787 L 368.0561,147.93481 L 369.34921,147.67008 L 369.57218,149.25848 L 368.76955,149.78795 L 368.14529,151.77343 L 367.1197,153.71481 L 366.49543,156.31802 L 366.85215,157.46518 L 368.41281,157.72991 L 368.9925,156.0974 L 369.75054,153.97954 L 370.73153,151.24396 L 371.44498,149.74382 L 372.91646,149.12611 L 373.49614,149.61145 z "
       id="path8086" />
    <path
       style="fill:#997b3d;fill-opacity:1;fill-rule:evenodd;stroke:#5d5d43;stroke-width:0.46147096;stroke-linecap:butt;stroke-linejoin:miter;stroke-miterlimit:4;stroke-dasharray:none;stroke-opacity:1"
       d="M 361.18917,147.97893 L 359.94064,149.3026 L 356.77472,149.47909 L 356.15045,148.46428 L 356.77472,147.22887 L 357.71112,147.93481 L 359.45014,147.93481 L 360.11899,147.22887 L 361.41211,147.31711 L 361.18917,147.97893 z "
       id="path8973" />
    <path
       style="fill:#997b3d;fill-opacity:1;fill-rule:evenodd;stroke:#5d5d43;stroke-width:0.46147096;stroke-linecap:butt;stroke-linejoin:miter;stroke-miterlimit:4;stroke-dasharray:none;stroke-opacity:1"
       d="M 340.59244,142.20295 L 341.27344,147.40134 L 341.46801,151.82958 L 339.96005,150.57813 L 339.86277,141.91415 L 340.59244,142.20295 z "
       id="path9860" />
    <path
       style="fill:#997b3d;fill-opacity:1;fill-rule:evenodd;stroke:#5d5d43;stroke-width:0.46147096;stroke-linecap:butt;stroke-linejoin:miter;stroke-miterlimit:4;stroke-dasharray:none;stroke-opacity:1"
       d="M 336.65225,141.96229 L 337.72242,143.06936 L 338.50072,147.49761 L 338.74395,151.34826 L 338.30615,152.35905 L 337.23598,153.94745 L 335.38751,154.57318 L 332.76071,155.34331 L 331.05817,156.40225 L 329.69614,157.17237 L 328.57732,158.56824 L 326.3397,159.0977 L 325.36682,157.46117 L 326.19375,154.86197 L 326.77748,155.19892 L 326.72885,156.64291 L 328.13951,156.4985 L 329.93936,155.43958 L 331.05817,154.47692 L 332.80936,153.80305 L 335.77665,152.84039 L 336.89546,151.97399 L 336.99275,149.47107 L 336.45767,147.11254 L 335.67937,144.41708 L 335.33886,142.78056 L 336.6036,141.76977 L 336.65225,141.96229 z "
       id="path10749" />
    <path
       style="fill:#997b3d;fill-opacity:1;fill-rule:evenodd;stroke:#5d5d43;stroke-width:0.46147096;stroke-linecap:butt;stroke-linejoin:miter;stroke-miterlimit:4;stroke-dasharray:none;stroke-opacity:1"
       d="M 325.95054,149.08599 L 327.4585,147.83454 L 329.16105,147.16066 L 332.61479,148.0752 L 336.01989,148.5084 L 335.77665,150.00053 L 333.34445,150.81879 L 331.00953,151.78145 L 328.91783,152.74412 L 325.75596,153.36985 L 324.63715,154.57318 L 322.39951,154.62132 L 320.89154,155.39144 L 319.52951,155.68024 L 318.99442,157.36491 L 316.41629,160.06035 L 315.20018,161.02303 L 312.18424,161.88942 L 310.43306,161.79315 L 309.65475,161.02303 L 308.48729,159.91596 L 308.24406,157.31677 L 309.11966,157.70183 L 309.46017,158.56824 L 310.67628,159.14583 L 313.10848,159.29024 L 314.95696,158.2313 L 316.17306,157.26864 L 317.43781,156.30597 L 317.92426,155.43958 L 317.19459,153.70678 L 317.34052,151.78145 L 317.82696,151.3964 L 318.41068,151.44452 L 318.79984,152.64785 L 319.96731,153.03291 L 321.57256,152.98478 L 322.10765,150.52999 L 322.98324,149.90426 L 324.29663,150.09679 L 325.41545,150.81879 L 327.79902,151.01132 L 329.01512,150.91506 L 329.2097,150.3856 L 329.30698,149.80799 L 326.2424,149.85613 L 325.95054,149.08599 z "
       id="path11636" />
    <path
       style="fill:#3a3734;fill-opacity:1;fill-rule:evenodd;stroke:#5d5d43;stroke-width:0.46147096;stroke-linecap:butt;stroke-linejoin:miter;stroke-miterlimit:4;stroke-dasharray:none;stroke-opacity:1"
       d="M 323.85884,151.30013 L 323.17782,151.34826 L 323.12917,152.11839 L 323.95613,152.11839 L 323.85884,151.30013 z "
       id="path12523" />
    <path
       style="fill:#997b3d;fill-opacity:1;fill-rule:evenodd;stroke:#5d5d43;stroke-width:0.46147096;stroke-linecap:butt;stroke-linejoin:miter;stroke-miterlimit:4;stroke-dasharray:none;stroke-opacity:1"
       d="M 331.88512,144.27268 L 329.59884,144.75401 L 329.50156,145.71668 L 332.12834,145.76481 L 331.88512,144.27268 z "
       id="path13410" />
    <path
       style="fill:#997b3d;fill-opacity:1;fill-rule:evenodd;stroke:#5d5d43;stroke-width:0.46147096;stroke-linecap:butt;stroke-linejoin:miter;stroke-miterlimit:4;stroke-dasharray:none;stroke-opacity:1"
       d="M 319.91866,143.59881 L 320.64833,146.0536 L 319.82138,146.43867 L 319.04307,145.13908 L 319.28629,143.50255 L 319.91866,143.59881 z "
       id="path15182" />
    <path
       style="fill:#997b3d;fill-opacity:1;fill-rule:evenodd;stroke:#5d5d43;stroke-width:0.46147096;stroke-linecap:butt;stroke-linejoin:miter;stroke-miterlimit:4;stroke-dasharray:none;stroke-opacity:1"
       d="M 313.44899,148.17147 L 314.76238,148.5084 L 315.10289,150.04866 L 314.17865,150.77066 L 312.37883,150.09679 L 312.4761,148.9416 L 313.44899,148.17147 z "
       id="path16069" />
    <path
       style="fill:#997b3d;fill-opacity:1;fill-rule:evenodd;stroke:#5d5d43;stroke-width:0.46147096;stroke-linecap:butt;stroke-linejoin:miter;stroke-miterlimit:4;stroke-dasharray:none;stroke-opacity:1"
       d="M 308.77915,148.0477 L 313.20577,156.00342 L 312.66373,157.34428 L 311.57966,156.36099 L 308.05644,150.99757 L 308.77915,148.0477 z "
       id="path16956" />
    <path
       style="fill:#997b3d;fill-opacity:1;fill-rule:evenodd;stroke:#5d5d43;stroke-width:0.46147096;stroke-linecap:butt;stroke-linejoin:miter;stroke-miterlimit:4;stroke-dasharray:none;stroke-opacity:1"
       d="M 302.1844,149.74612 L 306.33999,155.91403 L 306.97237,157.43367 L 307.06272,161.99257 L 304.9849,164.13793 L 303.35881,166.55146 L 302.27473,168.16047 L 301.37134,170.39523 L 299.92592,171.28914 L 298.39016,170.57401 L 298.02879,168.16047 L 299.02253,168.07109 L 299.47422,168.69682 L 300.64863,168.42865 L 301.37134,166.64085 L 302.90711,163.69098 L 305.97864,160.56232 L 306.24966,158.9533 L 302.27473,153.41111 L 301.46168,151.7127 L 302.1844,149.74612 z "
       id="path17843" />
    <path
       style="fill:#997b3d;fill-opacity:1;fill-rule:evenodd;stroke:#5d5d43;stroke-width:0.46147096;stroke-linecap:butt;stroke-linejoin:miter;stroke-miterlimit:4;stroke-dasharray:none;stroke-opacity:1"
       d="M 295.13795,162.17136 L 295.58965,160.11537 L 296.67371,158.9533 L 298.84185,158.50635 L 300.46795,158.14879 L 303.17813,157.25489 L 303.72015,159.31087 L 302.1844,161.00928 L 299.47422,164.76366 L 296.76405,166.46207 L 295.13795,166.2833 L 294.50558,167.26658 L 294.05388,169.50134 L 292.96981,171.19975 L 288.90455,174.95414 L 288.00115,175.66925 L 288.90455,176.65255 L 288.90455,178.26157 L 288.09149,178.8873 L 285.74267,178.79791 L 285.20063,178.08279 L 284.92962,181.21145 L 285.1103,184.25072 L 284.74894,185.94913 L 282.85182,187.82633 L 281.67742,187.64755 L 279.87063,186.93242 L 279.14791,184.87645 L 279.23826,184.07194 L 280.41266,184.42949 L 280.59334,185.23401 L 281.94843,185.23401 L 282.94217,184.25072 L 283.30351,180.04938 L 283.30351,177.63584 L 283.93588,174.4178 L 286.0137,174.06023 L 287.36877,172.98755 L 289.89828,171.28914 L 291.70505,168.8756 L 292.69879,167.44536 L 293.60217,164.58488 L 294.50558,164.49549 L 295.13795,164.85305 L 295.86065,164.49549 L 297.66744,163.06525 L 299.11286,161.90318 L 299.74525,160.74111 L 298.66116,160.91989 L 297.48676,161.54562 L 296.58337,161.99257 L 295.13795,162.17136 z "
       id="path18730" />
    <path
       style="fill:#997b3d;fill-opacity:1;fill-rule:evenodd;stroke:#5d5d43;stroke-width:0.46147096;stroke-linecap:butt;stroke-linejoin:miter;stroke-miterlimit:4;stroke-dasharray:none;stroke-opacity:1"
       d="M 298.93218,154.12623 L 296.67371,156.62916 L 297.39643,157.70183 L 298.48048,157.52306 L 300.10659,155.19892 L 299.38388,154.21562 L 298.93218,154.12623 z "
       id="path19617" />
    <path
       style="fill:#997b3d;fill-opacity:1;fill-rule:evenodd;stroke:#5d5d43;stroke-width:0.46147096;stroke-linecap:butt;stroke-linejoin:miter;stroke-miterlimit:4;stroke-dasharray:none;stroke-opacity:1"
       d="M 286.82675,163.5122 L 286.7364,165.38939 L 285.38133,166.2833 L 284.92962,165.2106 L 285.01996,164.22732 L 286.19437,163.4228 L 286.82675,163.5122 z "
       id="path20504" />
    <path
       style="fill:#3a3734;fill-opacity:1;fill-rule:evenodd;stroke:#5d5d43;stroke-width:0.46147096;stroke-linecap:butt;stroke-linejoin:miter;stroke-miterlimit:4;stroke-dasharray:none;stroke-opacity:1"
       d="M 286.87192,176.42219 L 286.1909,176.47033 L 286.14225,177.24046 L 286.9692,177.24046 L 286.87192,176.42219 z "
       id="path21391" />
    <path
       style="fill:#997b3d;fill-opacity:1;fill-rule:evenodd;stroke:#5d5d43;stroke-width:0.46147096;stroke-linecap:butt;stroke-linejoin:miter;stroke-miterlimit:4;stroke-dasharray:none;stroke-opacity:1"
       d="M 294.32489,172.00426 L 295.31862,170.84219 L 296.67371,170.93158 L 296.85439,172.27243 L 296.4027,173.07694 L 295.31862,173.52389 L 294.41523,172.63 L 294.32489,172.00426 z "
       id="path21393" />
    <path
       style="fill:#997b3d;fill-opacity:1;fill-rule:evenodd;stroke:#5d5d43;stroke-width:0.46147096;stroke-linecap:butt;stroke-linejoin:miter;stroke-miterlimit:4;stroke-dasharray:none;stroke-opacity:1"
       d="M 292.60845,172.89816 L 293.51184,172.80877 L 294.32489,173.34511 L 294.50558,174.4178 L 294.32489,175.04354 L 292.96981,175.13291 L 292.51812,174.06023 L 292.60845,172.89816 z "
       id="path21395" />
    <path
       style="fill:#997b3d;fill-opacity:1;fill-rule:evenodd;stroke:#5d5d43;stroke-width:0.46147096;stroke-linecap:butt;stroke-linejoin:miter;stroke-miterlimit:4;stroke-dasharray:none;stroke-opacity:1"
       d="M 402.97044,220.2509 L 405.02159,218.92723 L 406.62685,219.72143 L 406.8944,221.66279 L 406.98358,223.95715 L 407.78621,225.10432 L 408.85638,223.42767 L 410.46163,223.16295 L 411.79935,224.66308 L 412.69116,226.16325 L 413.22623,228.10461 L 413.04789,230.4872 L 412.15607,231.01667 L 411.17509,232.42858 L 409.12393,232.60507 L 407.69703,232.16384 L 407.87539,237.81147 L 407.3403,243.19437 L 406.27013,245.57695 L 404.84324,247.78306 L 404.30816,248.48901 L 405.28914,250.16565 L 406.44849,252.37176 L 406.53768,255.98977 L 406.09178,257.48992 L 403.86225,260.31373 L 401.98945,260.75495 L 400.47337,260.22548 L 399.13565,259.43129 L 398.24385,258.28412 L 397.88712,257.13694 L 399.13565,257.13694 L 399.67073,257.84289 L 401.72191,257.93114 L 402.52453,257.13694 L 403.5947,256.69571 L 404.39734,255.28382 L 404.57569,253.51893 L 404.21897,251.13634 L 403.32716,249.10672 L 402.61371,247.87131 L 401.98945,246.72412 L 402.70289,246.01818 L 403.32716,244.51803 L 404.39734,242.57666 L 404.75405,240.45879 L 406.27013,237.98796 L 406.27014,237.10552 L 406.44849,236.39957 L 406.27013,235.42888 L 406.44849,234.54644 L 406.27014,233.75224 L 406.53768,233.04629 L 406.27013,232.42858 L 405.82423,231.63438 L 404.4865,230.75194 L 402.25698,230.13424 L 401.09763,228.98706 L 400.56255,227.83988 L 401.00845,227.83988 L 402.25698,228.63408 L 404.04061,229.51652 L 405.02159,230.22249 L 407.07275,230.39897 L 408.3213,231.10491 L 408.94556,230.57545 L 410.10491,229.95774 L 410.81837,229.16355 L 410.90755,227.75164 L 410.81837,226.2515 L 409.65902,226.86921 L 409.48065,228.72232 L 408.23212,229.16355 L 407.51866,228.2811 L 406.98358,227.22217 L 406.62685,226.16325 L 406.71603,224.83958 L 405.11078,223.51592 L 404.4865,223.0747 L 403.41635,222.63348 L 402.79207,221.30981 L 402.97044,220.2509 z "
       id="path22284"
       sodipodi:nodetypes="cccccccccccccccccccccccccccccccccccccccccccccccccccccccccccccccccccccccccccccccccc" />
    <path
       style="fill:#997b3d;fill-opacity:1;fill-rule:evenodd;stroke:#5d5d43;stroke-width:0.46147096;stroke-linecap:butt;stroke-linejoin:miter;stroke-miterlimit:4;stroke-dasharray:none;stroke-opacity:1"
       d="M 413.58296,224.31011 L 414.47479,223.8689 L 415.63413,224.22187 L 415.99085,225.4573 L 414.83151,226.075 L 413.49378,225.63378 L 413.22623,224.75133 L 413.58296,224.31011 z "
       id="path23171" />
    <path
       style="fill:#997b3d;fill-opacity:1;fill-rule:evenodd;stroke:#5d5d43;stroke-width:0.46147096;stroke-linecap:butt;stroke-linejoin:miter;stroke-miterlimit:4;stroke-dasharray:none;stroke-opacity:1"
       d="M 410.99673,236.39957 L 410.72918,238.25269 L 409.74818,239.39987 L 409.74818,240.54704 L 411.08591,240.63528 L 411.79935,238.87041 L 412.06689,236.75254 L 410.99673,236.39957 z "
       id="path23173" />
    <path
       style="fill:#997b3d;fill-opacity:1;fill-rule:evenodd;stroke:#5d5d43;stroke-width:0.46147096;stroke-linecap:butt;stroke-linejoin:miter;stroke-miterlimit:4;stroke-dasharray:none;stroke-opacity:1"
       d="M 396.99532,243.2826 L 395.92514,242.84139 L 395.2117,243.98856 L 394.58743,244.60627 L 394.2307,246.2829 L 395.12252,246.98886 L 395.65759,246.01818 L 396.5494,245.48872 L 397.0845,244.78276 L 396.99532,243.2826 z "
       id="path24060" />
    <path
       style="fill:#3a3734;fill-opacity:1;fill-rule:evenodd;stroke:#5d5d43;stroke-width:0.46147096;stroke-linecap:butt;stroke-linejoin:miter;stroke-miterlimit:4;stroke-dasharray:none;stroke-opacity:1"
       d="M 405.36906,220.84453 L 404.68804,220.89267 L 404.63939,221.6628 L 405.46634,221.6628 L 405.36906,220.84453 z "
       id="path24947" />
    <path
       style="fill:#997b3d;fill-opacity:1;fill-rule:evenodd;stroke:#5d5d43;stroke-width:0.46147096;stroke-linecap:butt;stroke-linejoin:miter;stroke-miterlimit:4;stroke-dasharray:none;stroke-opacity:1"
       d="M 390.43299,251.9695 L 394.40675,254.98126 L 397.78868,259.33159 L 398.63415,260.92113 L 397.87322,261.75773 L 396.68955,260.25185 L 394.82949,258.6623 L 393.30763,257.15643 L 391.95486,255.65054 L 391.10937,254.39564 L 390.43299,251.9695 z "
       id="path24949" />
    <path
       style="fill:#997b3d;fill-opacity:1;fill-rule:evenodd;stroke:#5d5d43;stroke-width:0.46147096;stroke-linecap:butt;stroke-linejoin:miter;stroke-miterlimit:4;stroke-dasharray:none;stroke-opacity:1"
       d="M 388.91112,254.56297 L 393.64581,259.41525 L 394.23766,260.67014 L 394.74495,263.76556 L 394.15311,265.60608 L 391.36301,265.77341 L 390.43299,268.95248 L 388.57292,270.37471 L 387.55835,271.54595 L 386.45922,272.88451 L 385.44465,275.05967 L 384.17642,276.9002 L 380.37175,280.66489 L 377.41257,282.25442 L 373.9461,282.50541 L 370.90236,280.66489 L 369.97232,278.65705 L 368.70411,276.48189 L 367.77409,274.72502 L 367.35134,272.54987 L 368.11226,272.21523 L 368.95776,274.1394 L 370.14143,276.06359 L 371.3251,277.98777 L 372.93152,279.66098 L 374.79159,280.24659 L 376.82073,279.32634 L 378.59624,278.32241 L 380.37175,277.31848 L 383.92277,273.80477 L 385.86739,270.87666 L 386.12103,270.20738 L 383.58459,269.62176 L 383.58459,266.86098 L 384.34552,265.35511 L 386.20559,264.85314 L 387.81199,265.27145 L 388.40382,266.86098 L 389.33386,265.60608 L 389.92569,265.27145 L 390.01024,263.34727 L 393.39217,263.17994 L 393.47671,261.67407 L 392.12395,260.00086 L 389.41841,257.57472 L 388.91112,254.56297 z "
       id="path24951" />
    <path
       style="fill:#997b3d;fill-opacity:1;fill-rule:evenodd;stroke:#5d5d43;stroke-width:0.46147096;stroke-linecap:butt;stroke-linejoin:miter;stroke-miterlimit:4;stroke-dasharray:none;stroke-opacity:1"
       d="M 379.86447,267.02831 L 376.56709,271.46229 L 374.70703,274.47406 L 375.12977,275.56163 L 376.56709,273.72111 L 377.49713,272.63352 L 378.42715,271.21131 L 379.44173,269.87275 L 380.28721,268.11589 L 379.86447,267.02831 z "
       id="path24953" />
    <path
       style="fill:#997b3d;fill-opacity:1;fill-rule:evenodd;stroke:#5d5d43;stroke-width:0.46147096;stroke-linecap:butt;stroke-linejoin:miter;stroke-miterlimit:4;stroke-dasharray:none;stroke-opacity:1"
       d="M 386.20559,258.91329 L 387.98109,258.99695 L 388.15019,260.50282 L 386.20559,260.67014 L 386.20559,258.91329 z "
       id="path24955" />
    <path
       style="fill:#997b3d;fill-opacity:1;fill-rule:evenodd;stroke:#5d5d43;stroke-width:0.46147096;stroke-linecap:butt;stroke-linejoin:miter;stroke-miterlimit:4;stroke-dasharray:none;stroke-opacity:1"
       d="M 384.30324,260.71196 L 386.07875,260.79563 L 386.24785,262.30151 L 384.30324,262.46882 L 384.30324,260.71196 z "
       id="path24957" />
    <path
       style="fill:#997b3d;fill-opacity:1;fill-rule:evenodd;stroke:#5d5d43;stroke-width:0.46147096;stroke-linecap:butt;stroke-linejoin:miter;stroke-miterlimit:4;stroke-dasharray:none;stroke-opacity:1"
       d="M 365.91402,278.65705 L 367.0977,278.15509 L 368.87321,279.49365 L 369.80324,281.58516 L 369.3805,284.01129 L 369.54959,287.02305 L 367.52044,288.94723 L 366.42131,288.69624 L 366.42131,287.525 L 367.35134,286.85573 L 368.02772,285.76815 L 368.78866,284.09495 L 365.66038,283.42567 L 365.49128,280.91588 L 365.91402,278.65705 z "
       id="path24959" />
    <path
       style="fill:#997b3d;fill-opacity:1;fill-rule:evenodd;stroke:#5d5d43;stroke-width:0.46147096;stroke-linecap:butt;stroke-linejoin:miter;stroke-miterlimit:4;stroke-dasharray:none;stroke-opacity:1"
       d="M 362.7012,278.90804 L 362.7012,280.58122 L 363.20847,284.68057 L 362.44754,288.69624 L 361.60206,290.11847 L 358.98107,292.46096 L 354.58456,292.29364 L 353.0627,291.1224 L 352.38632,289.19822 L 352.72451,286.43743 L 353.0627,284.09495 L 354.07728,283.25836 L 354.83822,284.26226 L 353.99274,285.76815 L 354.33092,286.85573 L 355.09185,288.61261 L 356.69827,289.61651 L 357.88194,289.61651 L 359.48836,288.36161 L 361.51752,286.68841 L 361.8557,285.01522 L 361.68662,283.42567 L 361.09477,281.75247 L 361.68662,279.32634 L 362.7012,278.90804 z "
       id="path24961" />
    <path
       style="fill:#997b3d;fill-opacity:1;fill-rule:evenodd;stroke:#5d5d43;stroke-width:0.46147096;stroke-linecap:butt;stroke-linejoin:miter;stroke-miterlimit:4;stroke-dasharray:none;stroke-opacity:1"
       d="M 356.61372,282.50541 L 357.7974,281.91979 L 358.89653,282.25442 L 359.65746,284.01129 L 358.47378,284.93155 L 356.78283,284.51326 L 356.61372,282.50541 z "
       id="path24963" />
    <path
       style="fill:#997b3d;fill-opacity:1;fill-rule:evenodd;stroke:#5d5d43;stroke-width:0.46147096;stroke-linecap:butt;stroke-linejoin:miter;stroke-miterlimit:4;stroke-dasharray:none;stroke-opacity:1"
       d="M 350.8129,278.06227 L 350.97274,287.03737 L 350.33342,288.26306 L 349.33447,290.35858 L 347.73617,291.82146 L 346.0979,292.09824 L 344.2998,291.54471 L 343.98014,291.07025 L 343.14103,291.14932 L 342.02221,292.88899 L 341.30298,293.60068 L 337.82666,294.07514 L 337.94653,292.92853 L 339.02539,292.01916 L 340.26408,291.34702 L 341.18311,290.20041 L 342.46176,289.88411 L 342.9812,288.7375 L 343.30086,287.39322 L 343.50065,285.45586 L 344.41968,284.9814 L 344.57951,286.28617 L 344.57951,287.82813 L 345.65837,288.81658 L 346.65731,289.60735 L 347.77613,289.48873 L 348.41545,288.38167 L 349.37444,286.60246 L 349.29452,284.74418 L 349.13468,282.60912 L 349.13468,278.93209 L 350.8129,278.06227 z "
       id="path24965" />
    <path
       style="fill:#997b3d;fill-opacity:1;fill-rule:evenodd;stroke:#5d5d43;stroke-width:0.46147096;stroke-linecap:butt;stroke-linejoin:miter;stroke-miterlimit:4;stroke-dasharray:none;stroke-opacity:1"
       d="M 337.50699,283.04405 L 339.1053,283.8348 L 339.5848,285.37678 L 339.70467,287.15599 L 338.90552,288.89566 L 338.2662,290.55626 L 337.34716,291.58424 L 336.42814,292.65178 L 334.55013,293.16576 L 333.19156,293.60068 L 332.67212,292.37501 L 333.59115,291.42609 L 334.82984,291.30748 L 336.14844,290.16088 L 337.46704,289.56781 L 337.70679,288.4212 L 336.38818,288.53983 L 335.22941,288.10489 L 335.14949,285.61402 L 335.86873,284.94188 L 336.2683,283.71619 L 337.50699,283.04405 z "
       id="path25852" />
    <path
       style="fill:#997b3d;fill-opacity:1;fill-rule:evenodd;stroke:#5d5d43;stroke-width:0.46147096;stroke-linecap:butt;stroke-linejoin:miter;stroke-miterlimit:4;stroke-dasharray:none;stroke-opacity:1"
       d="M 333.71101,279.40655 L 332.83194,283.08358 L 331.87296,284.9814 L 330.95393,286.80015 L 330.03491,288.77704 L 328.47655,290.2795 L 327.27782,291.82146 L 326.23893,292.49361 L 325.0402,293.28438 L 321.52392,293.56114 L 319.64591,292.37501 L 318.64697,291.26794 L 318.40723,290.35858 L 318.48713,286.87923 L 319.84569,285.77216 L 320.4051,287.31415 L 320.56494,288.6189 L 322.20321,290.20041 L 325.16007,290.63534 L 327.19792,289.52827 L 328.87613,287.82813 L 329.79517,285.02094 L 330.91397,281.34392 L 331.63322,279.40655 L 333.0717,278.85302 L 333.71101,279.40655 z "
       id="path26739" />
    <path
       style="fill:#997b3d;fill-opacity:1;fill-rule:evenodd;stroke:#5d5d43;stroke-width:0.46147096;stroke-linecap:butt;stroke-linejoin:miter;stroke-miterlimit:4;stroke-dasharray:none;stroke-opacity:1"
       d="M 328.35669,279.12979 L 327.35774,283.08358 L 325.20003,286.20708 L 324.00129,287.35369 L 324.32096,285.06049 L 325.39981,282.13467 L 326.79834,278.93209 L 328.11694,278.45765 L 328.35669,279.12979 z "
       id="path27626" />
    <path
       style="fill:#997b3d;fill-opacity:1;fill-rule:evenodd;stroke:#5d5d43;stroke-width:0.46147096;stroke-linecap:butt;stroke-linejoin:miter;stroke-miterlimit:4;stroke-dasharray:none;stroke-opacity:1"
       d="M 324.94292,279.37561 L 322.33002,280.64081 L 318.10493,281.0809 L 314.93611,280.97089 L 315.71443,281.96105 L 318.10493,283.88638 L 316.21476,285.09659 L 311.04457,285.92171 L 308.04255,285.97673 L 303.70627,285.04158 L 301.14897,284.0514 L 297.36863,282.18109 L 291.8093,277.61531 L 290.80861,275.19491 L 291.30895,272.38942 L 292.19844,270.95918 L 293.03235,269.52894 L 294.64455,268.48376 L 293.81064,267.32857 L 291.86489,266.00834 L 291.97607,264.74313 L 292.30963,262.76279 L 290.64183,262.43274 L 290.53065,265.01817 L 288.08453,265.29322 L 286.19437,265.23821 L 285.63844,264.41307 L 282.19166,264.46808 L 281.8581,265.7333 L 282.08046,267.76864 L 282.74758,268.48376 L 283.85946,269.36392 L 285.1937,270.40909 L 284.86013,271.28923 L 283.58148,271.17923 L 281.96928,270.18905 L 279.80114,269.36392 L 278.80046,267.98868 L 278.63367,264.63311 L 279.96791,263.86298 L 281.13538,263.91799 L 281.63572,263.53293 L 284.91572,263.53293 L 286.36114,263.86298 L 288.4737,264.35806 L 288.58488,263.64294 L 288.14014,262.87281 L 287.13946,262.37773 L 286.86149,261.82764 L 287.52861,261.00249 L 289.41879,261.00249 L 289.86354,262.10268 L 291.64251,261.22253 L 293.31032,261.44256 L 293.97743,262.15769 L 294.53338,264.02801 L 293.92184,264.68812 L 294.75574,266.39341 L 295.64523,266.77847 L 296.92389,266.00834 L 297.75778,265.29322 L 299.1476,264.85314 L 299.36999,265.7333 L 298.31372,266.44842 L 297.20186,267.4936 L 295.97879,268.81382 L 295.20049,269.80399 L 294.36658,270.29907 L 294.14421,272.05937 L 294.14421,274.09472 L 294.70015,275.41494 L 298.75846,279.48563 L 300.42626,280.42079 L 301.64931,281.24593 L 303.76185,282.18109 L 306.87508,283.17126 L 310.54424,284.10641 L 313.3795,283.88638 L 312.49,282.8412 L 311.37815,281.46597 L 311.98967,280.36577 L 313.60188,279.98071 L 315.93679,279.15557 L 319.05002,279.2656 L 320.16188,279.21058 L 324.27579,278.66049 L 324.88731,279.15557 L 324.94292,279.37561 z "
       id="path27628"
       sodipodi:nodetypes="cccccccccccccccccccccccccccccccccccccccccccccccc" />
    <path
       style="fill:#997b3d;fill-opacity:1;fill-rule:evenodd;stroke:#5d5d43;stroke-width:0.46147096;stroke-linecap:butt;stroke-linejoin:miter;stroke-miterlimit:4;stroke-dasharray:none;stroke-opacity:1"
       d="M 317.549,274.91985 L 318.77205,275.63498 L 318.77205,276.9002 L 318.04933,277.78034 L 315.99239,276.9002 L 316.04798,276.18507 L 316.82629,275.08489 L 317.549,274.91985 z "
       id="path28515" />
    <path
       style="fill:#997b3d;fill-opacity:1;fill-rule:evenodd;stroke:#5d5d43;stroke-width:0.46147096;stroke-linecap:butt;stroke-linejoin:miter;stroke-miterlimit:4;stroke-dasharray:none;stroke-opacity:1"
       d="M 290.97539,267.71363 L 292.19844,267.71363 L 292.69879,268.15371 L 292.14286,269.2539 L 291.14218,269.2539 L 290.53065,268.7038 L 290.97539,267.71363 z "
       id="path29402" />
    <path
       style="fill:#997b3d;fill-opacity:1;fill-rule:evenodd;stroke:#5d5d43;stroke-width:0.46147096;stroke-linecap:butt;stroke-linejoin:miter;stroke-miterlimit:4;stroke-dasharray:none;stroke-opacity:1"
       d="M 288.97404,268.97884 L 290.19709,268.97884 L 290.64183,269.30891 L 290.58624,270.35408 L 289.69675,270.90417 L 288.4737,270.24406 L 288.97404,268.97884 z "
       id="path30289" />
    <path
       style="fill:#997b3d;fill-opacity:1;fill-rule:evenodd;stroke:#5d5d43;stroke-width:0.46147096;stroke-linecap:butt;stroke-linejoin:miter;stroke-miterlimit:4;stroke-dasharray:none;stroke-opacity:1"
       d="M 285.1937,266.22838 L 287.75099,266.22838 L 287.75099,268.0987 L 285.0825,268.15371 L 285.1937,266.22838 z "
       id="path30291" />
    <path
       style="fill:#3a3734;fill-opacity:1;fill-rule:evenodd;stroke:#5d5d43;stroke-width:0.46147096;stroke-linecap:butt;stroke-linejoin:miter;stroke-miterlimit:4;stroke-dasharray:none;stroke-opacity:1"
       d="M 337.77512,285.57506 L 337.0941,285.62319 L 337.04546,286.39331 L 337.87242,286.39331 L 337.77512,285.57506 z "
       id="path30293" />
    <path
       style="fill:#3a3734;fill-opacity:1;fill-rule:evenodd;stroke:#5d5d43;stroke-width:0.46147096;stroke-linecap:butt;stroke-linejoin:miter;stroke-miterlimit:4;stroke-dasharray:none;stroke-opacity:1"
       d="M 367.76829,280.99093 L 367.08727,281.03907 L 367.03862,281.8092 L 367.86558,281.8092 L 367.76829,280.99093 z "
       id="path30295" />
    <path
       style="fill:#997b3d;fill-opacity:1;fill-rule:evenodd;stroke:#5d5d43;stroke-width:0.46147096;stroke-linecap:butt;stroke-linejoin:miter;stroke-miterlimit:4;stroke-dasharray:none;stroke-opacity:1"
       d="M 288.45979,259.18718 L 282.47425,262.23562 L 280.97787,262.06142 L 281.8581,261.01624 L 285.20296,259.18718 L 287.75562,258.40329 L 288.45979,259.18718 z "
       id="path30297" />
    <path
       style="fill:#997b3d;fill-opacity:1;fill-rule:evenodd;stroke:#5d5d43;stroke-width:0.46147096;stroke-linecap:butt;stroke-linejoin:miter;stroke-miterlimit:4;stroke-dasharray:none;stroke-opacity:1"
       d="M 289.16398,255.18067 L 285.46703,257.53232 L 281.32995,258.05492 L 278.7773,257.79362 L 277.89708,256.40005 L 278.07311,254.48389 L 276.40068,253.00322 L 273.49593,250.21606 L 271.38338,249.1709 L 269.71095,248.21282 L 267.77445,247.25474 L 266.19005,246.20956 L 266.54213,245.07729 L 267.24632,245.16439 L 268.83072,246.29666 L 271.38338,247.16764 L 273.76,248.12572 L 275.60847,249.69349 L 277.10486,250.82576 L 278.07311,251.87094 L 279.04137,251.87094 L 279.65753,250.30317 L 280.97787,250.12898 L 283.09042,250.73867 L 284.05866,251.69674 L 284.23471,253.96129 L 283.35447,254.65809 L 280.80182,255.35487 L 281.50599,256.74843 L 283.0024,256.92263 L 285.11493,255.44197 L 287.22748,254.74519 L 289.16398,255.18067 z "
       id="path31184" />
    <path
       style="fill:#997b3d;fill-opacity:1;fill-rule:evenodd;stroke:#5d5d43;stroke-width:0.46147096;stroke-linecap:butt;stroke-linejoin:miter;stroke-miterlimit:4;stroke-dasharray:none;stroke-opacity:1"
       d="M 278.60125,245.59987 L 278.24915,242.37724 L 276.75278,241.41918 L 274.99232,239.67721 L 272.6157,235.32231 L 271.55944,232.18676 L 271.20734,227.83187 L 271.47141,225.13182 L 272.08757,224.34794 L 271.29536,223.47695 L 270.15106,222.08339 L 268.83072,221.5608 L 268.03851,220.95111 L 267.07027,221.2995 L 268.12655,222.60597 L 268.83072,223.56406 L 268.83072,224.60923 L 268.30259,225.39311 L 268.03851,228.78994 L 268.83072,231.66418 L 268.39062,232.62226 L 268.83072,233.84163 L 269.71095,235.4094 L 270.67921,237.23846 L 272.52767,240.0256 L 273.49593,240.98368 L 275.52045,242.63854 L 275.60847,243.85791 L 275.3444,244.6418 L 276.48871,245.33858 L 276.92882,246.03537 L 278.60125,245.59987 z "
       id="path32071"
       sodipodi:nodetypes="cccccccccccccccccccccccccccccccc" />
    <path
       style="fill:#997b3d;fill-opacity:1;fill-rule:evenodd;stroke:#5d5d43;stroke-width:0.46147096;stroke-linecap:butt;stroke-linejoin:miter;stroke-miterlimit:4;stroke-dasharray:none;stroke-opacity:1"
       d="M 270.41514,243.16114 L 272.87977,243.24823 L 272.87977,244.99019 L 270.23908,244.99019 L 270.41514,243.16114 z "
       id="path32958" />
    <path
       style="fill:#997b3d;fill-opacity:1;fill-rule:evenodd;stroke:#5d5d43;stroke-width:0.46147096;stroke-linecap:butt;stroke-linejoin:miter;stroke-miterlimit:4;stroke-dasharray:none;stroke-opacity:1"
       d="M 276.13661,231.83838 L 277.19288,232.88355 L 277.80905,234.36422 L 276.75278,235.06102 L 276.04858,233.92872 L 276.13661,231.83838 z "
       id="path33845" />
    <path
       style="fill:#997b3d;fill-opacity:1;fill-rule:evenodd;stroke:#5d5d43;stroke-width:0.46147096;stroke-linecap:butt;stroke-linejoin:miter;stroke-miterlimit:4;stroke-dasharray:none;stroke-opacity:1"
       d="M 268.65468,237.93525 L 267.42236,237.06426 L 266.19005,237.84815 L 266.45412,239.24171 L 268.03851,239.7643 L 268.65468,237.93525 z "
       id="path34732" />
    <path
       style="fill:#997b3d;fill-opacity:1;fill-rule:evenodd;stroke:#5d5d43;stroke-width:0.46147096;stroke-linecap:butt;stroke-linejoin:miter;stroke-miterlimit:4;stroke-dasharray:none;stroke-opacity:1"
       d="M 267.24632,235.27875 L 266.014,234.40777 L 264.78168,235.19165 L 265.04575,236.58522 L 266.63015,237.10781 L 267.24632,235.27875 z "
       id="path35619" />
    <path
       style="fill:#997b3d;fill-opacity:1;fill-rule:evenodd;stroke:#5d5d43;stroke-width:0.46147096;stroke-linecap:butt;stroke-linejoin:miter;stroke-miterlimit:4;stroke-dasharray:none;stroke-opacity:1"
       d="M 275.52045,220.42853 L 276.57673,221.5608 L 276.04858,222.69307 L 276.48871,223.73826 L 277.54498,224.43504 L 276.66475,225.9157 L 275.3444,225.9157 L 275.25638,224.17374 L 274.28814,222.51887 L 274.37616,220.95111 L 275.52045,220.42853 z "
       id="path35621" />
    <path
       sodipodi:type="arc"
       style="fill:#ffffff;fill-opacity:1;fill-rule:evenodd;stroke:none;stroke-width:0.5;stroke-linecap:butt;stroke-linejoin:miter;stroke-miterlimit:4;stroke-dasharray:none;stroke-dashoffset:0;stroke-opacity:1"
       id="path37395"
       sodipodi:cx="92.853706"
       sodipodi:cy="94.033333"
       sodipodi:rx="46.67963"
       sodipodi:ry="43.140739"
       d="M 139.53334 94.033333 A 46.67963 43.140739 0 1 1  46.174076,94.033333 A 46.67963 43.140739 0 1 1  139.53334 94.033333 z"
       transform="matrix(1.2541311,0,0,1.3176528,222.53283,93.545588)" />
    <path
       style="fill:none;fill-rule:evenodd;stroke:#000000;stroke-width:0.92294192px;stroke-linecap:butt;stroke-linejoin:miter;stroke-opacity:1"
       d="M 338.01372,161.19888 L 289.07654,189.41061 L 288.65101,245.6235 L 338.65203,273.83523 L 388.22749,245.6235 L 389.07859,244.9919 L 388.86581,190.04221 L 339.07757,160.98835 L 338.01372,161.19888 z "
       id="path38282" />
    <path
       style="fill:none;fill-rule:evenodd;stroke:#000000;stroke-width:0.92294192px;stroke-linecap:butt;stroke-linejoin:miter;stroke-opacity:1"
       d="M 295.8852,194.25292 L 295.8852,241.62334 L 338.65203,266.67703 L 382.26993,241.4128 L 381.8444,193.41077 L 338.8648,168.98869 L 295.8852,194.25292 z "
       id="path38284" />
    <path
       style="fill:none;fill-rule:evenodd;stroke:#000000;stroke-width:0.92294192px;stroke-linecap:butt;stroke-linejoin:miter;stroke-opacity:1"
       d="M 382.26993,241.20227 L 388.86581,244.9919"
       id="path38288" />
    <path
       style="fill:none;fill-rule:evenodd;stroke:#000000;stroke-width:0.92294192px;stroke-linecap:butt;stroke-linejoin:miter;stroke-opacity:1"
       d="M 338.65203,266.67703 L 338.65203,273.62469"
       id="path38290"
       sodipodi:nodetypes="cc" />
    <path
       style="fill:none;fill-rule:evenodd;stroke:#000000;stroke-width:0.92294192px;stroke-linecap:butt;stroke-linejoin:miter;stroke-opacity:1"
       d="M 381.63162,193.20023 L 388.65303,190.04221"
       id="path38292" />
    <path
       style="fill:none;fill-rule:evenodd;stroke:#000000;stroke-width:0.92294192px;stroke-linecap:butt;stroke-linejoin:miter;stroke-opacity:1"
       d="M 338.8648,168.98869 L 338.8648,160.98835"
       id="path38294" />
    <path
       style="fill:none;fill-rule:evenodd;stroke:#000000;stroke-width:0.92294192px;stroke-linecap:butt;stroke-linejoin:miter;stroke-opacity:1"
       d="M 295.67243,241.4128 L 288.86377,245.6235"
       id="path38296" />
    <path
       style="fill:none;fill-rule:evenodd;stroke:#000000;stroke-width:0.92294192px;stroke-linecap:butt;stroke-linejoin:miter;stroke-opacity:1"
       d="M 295.8852,194.04238 L 289.07654,189.62113"
       id="path38298" />
    <path
       style="fill:#f6f6ef;fill-opacity:1;fill-rule:evenodd;stroke:none;stroke-width:1px;stroke-linecap:butt;stroke-linejoin:miter;stroke-opacity:1"
       d="M 289.7858,189.55096 L 338.38254,161.54978 L 338.42508,168.75006 L 296.02704,193.6915 L 289.7858,189.55096 z "
       id="path38300"
       sodipodi:nodetypes="ccccc" />
    <path
       style="fill:#5d5d43;fill-opacity:1;fill-rule:evenodd;stroke:none;stroke-width:1px;stroke-linecap:butt;stroke-linejoin:miter;stroke-opacity:1"
       d="M 339.22634,161.54848 L 339.36416,168.84467 L 381.67646,192.77889 L 387.8786,189.98314 L 339.22634,161.54848 z "
       id="path41848"
       sodipodi:nodetypes="ccccc" />
    <path
       style="fill:#a43037;fill-opacity:1;fill-rule:evenodd;stroke:none;stroke-width:1px;stroke-linecap:butt;stroke-linejoin:miter;stroke-opacity:1"
       d="M 289.51433,190.37394 L 295.5897,194.3742 L 295.4993,241.10287 L 288.94971,245.01368 L 289.51433,190.37394 z "
       id="path43620"
       sodipodi:nodetypes="ccccc" />
    <path
       style="fill:#a43037;fill-opacity:1;fill-rule:evenodd;stroke:none;stroke-width:1px;stroke-linecap:butt;stroke-linejoin:miter;stroke-opacity:1"
       d="M 382.24339,193.38685 L 388.42236,190.60773 L 388.64705,244.41145 L 382.58044,240.85418 L 382.24339,193.38685 z "
       id="path45392"
       sodipodi:nodetypes="ccccc" />
    <path
       style="fill:#0370b6;fill-opacity:1;fill-rule:evenodd;stroke:none;stroke-width:1px;stroke-linecap:butt;stroke-linejoin:miter;stroke-opacity:1"
       d="M 295.63655,241.93144 L 338.37391,267.02258 L 338.23145,273.22488 L 289.58209,245.66691 L 295.63655,241.93144 z "
       id="path46279"
       sodipodi:nodetypes="ccccc" />
    <path
       style="fill:#3a3734;fill-opacity:1;fill-rule:evenodd;stroke:none;stroke-width:1px;stroke-linecap:butt;stroke-linejoin:miter;stroke-opacity:1"
       d="M 382.43103,241.76986 L 388.27527,245.1598 L 338.96863,273.20998 L 339.03581,266.89537 L 382.43103,241.76986 z "
       id="path46281"
       sodipodi:nodetypes="ccccc" />
    <path
       style="fill:#fde100;fill-opacity:1;fill-rule:evenodd;stroke:none;stroke-width:1px;stroke-linecap:butt;stroke-linejoin:miter;stroke-opacity:1"
       d="M 296.31074,201.20059 L 300.35338,205.20075 L 301.84277,206.46396 L 302.90662,206.04288 L 303.11939,204.14808 L 303.11939,200.99004 L 305.03432,200.99004 L 306.73648,200.1479 L 308.01311,198.4636 L 310.14081,197.832 L 311.20466,196.14772 L 308.43864,192.77916 L 310.56634,191.30543 L 312.90682,189.62113 L 314.82176,188.56847 L 319.07716,190.04221 L 323.11979,191.93703 L 326.09857,192.77916 L 327.80074,195.30559 L 330.14122,197.2004 L 336.73708,196.98987 L 338.22649,193.83184 L 339.92864,192.77916 L 342.26912,193.41077 L 345.46068,192.3581 L 347.58837,192.3581 L 351.20548,196.5688 L 352.05655,198.25308 L 355.46088,199.51629 L 358.22689,200.7795 L 359.50351,201.83219 L 364.61,201.41111 L 367.58878,200.35843 L 370.35479,200.35843 L 372.05695,203.09539 L 375.2485,204.3586 L 378.22729,204.3586 L 381.63162,204.56914 L 381.63162,193.62131 L 338.8648,169.19922 L 296.31074,194.4728 L 296.31074,201.20059 z "
       id="path47168"
       sodipodi:nodetypes="cccccccccccccccccccccccccccccccccccccccccc" />
    <path
       style="fill:#fde100;fill-opacity:1;fill-rule:evenodd;stroke:none;stroke-width:1px;stroke-linecap:butt;stroke-linejoin:miter;stroke-opacity:1"
       d="M 296.31074,203.09539 L 296.73628,204.3586 L 300.14061,208.14824 L 302.05554,210.88519 L 303.75769,214.25376 L 306.09817,216.99072 L 309.07696,220.14874 L 309.50249,221.83302 L 310.14081,223.51731 L 312.48128,224.99106 L 314.18344,226.25427 L 315.8856,231.30711 L 317.16222,236.5705 L 322.90703,240.36012 L 323.54533,241.62334 L 324.39642,244.3603 L 325.67304,246.2551 L 326.09857,247.51833 L 331.41783,249.20261 L 333.12,250.25528 L 336.09879,252.99225 L 339.07757,255.30813 L 339.92864,256.78188 L 338.01372,258.6767 L 338.01372,259.30831 L 339.50309,259.72938 L 340.14141,258.46616 L 342.05634,260.36098 L 343.1202,261.41365 L 346.11789,261.94468 L 338.64257,266.25596 L 296.30128,241.4128 L 296.31074,203.09539 z "
       id="path47170"
       sodipodi:nodetypes="ccccccccccccccccccccccccccccccccc" />
    <path
       style="fill:#fde100;fill-opacity:1;fill-rule:evenodd;stroke:none;stroke-width:1px;stroke-linecap:butt;stroke-linejoin:miter;stroke-opacity:1"
       d="M 335.67324,242.04442 L 335.67324,244.9919 L 338.22649,250.04476 L 340.35419,254.25546 L 342.26912,254.67653 L 347.58837,250.25528 L 350.35439,249.41315 L 353.54594,247.30779 L 356.7375,244.57083 L 360.56736,242.46548 L 363.33338,240.57066 L 364.61,236.78104 L 363.33338,233.20193 L 361.84398,230.6755 L 359.71628,230.25444 L 357.37581,232.14926 L 354.60979,232.78085 L 352.05655,234.46514 L 349.07777,238.25478 L 346.52453,242.25495 L 345.24789,240.36012 L 342.69465,239.09693 L 340.77973,239.09693 L 338.22649,238.88638 L 336.94986,240.1496 L 335.67324,242.04442 z "
       id="path47172" />
    <path
       style="fill:#997b3d;fill-opacity:1;fill-rule:evenodd;stroke:none;stroke-width:1px;stroke-linecap:butt;stroke-linejoin:miter;stroke-opacity:1"
       d="M 303.97047,203.30592 L 304.82155,206.25342 L 307.16202,207.72716 L 312.69404,214.88537 L 314.60898,218.04339 L 318.22608,219.9382 L 320.35379,222.88569 L 320.77932,225.41213 L 322.05594,228.35962 L 323.97087,230.25444 L 326.09857,230.88604 L 328.01352,232.35979 L 328.43905,234.04407 L 330.35399,235.09675 L 331.41783,237.62317 L 335.46048,242.46548 L 337.80095,239.30745 L 341.63081,239.09692 L 343.99019,239.72852 L 345.45122,240.73442 L 346.52453,242.46548 L 351.84378,234.67567 L 354.1937,233.18322 L 355.55307,232.64285 L 357.37581,232.14926 L 358.22689,231.39834 L 359.59571,230.56555 L 361.53902,230.86732 L 362.51066,232.0206 L 363.45395,233.70487 L 363.87949,234.98681 L 364.74002,236.88162 L 367.58878,235.93889 L 369.92925,234.25461 L 371.63141,234.46514 L 372.87387,232.8623 L 372.69526,231.93872 L 375.03574,230.88604 L 375.46128,229.4123 L 376.0996,228.14908 L 376.52513,227.51748 L 377.37621,227.09641 L 377.71944,224.73287 L 376.95067,222.88569 L 379.07839,220.99088 L 380.14223,217.83286 L 381.20609,216.14857 L 380.99331,213.20108 L 378.44007,211.51681 L 377.80175,210.46412 L 373.75913,210.67465 L 373.33359,209.62198 L 372.26973,209.62198 L 370.78035,207.72716 L 369.92925,205.83235 L 369.07818,202.25326 L 368.01432,202.67432 L 366.95047,204.14808 L 365.88662,207.30609 L 365.03554,208.77985 L 363.1206,210.46412 L 358.65243,211.93788 L 356.95027,212.56948 L 356.52473,210.67465 L 356.09919,208.14824 L 355.03534,205.62181 L 354.18425,205.41127 L 353.54594,207.51663 L 354.18425,209.41145 L 353.97149,210.46412 L 351.41824,208.35876 L 350.35439,206.67449 L 349.50331,202.88486 L 346.95007,201.62165 L 345.24789,200.7795 L 344.82235,198.88469 L 341.41804,195.93719 L 341.73246,193.109 L 339.92864,192.77916 L 338.43925,193.42013 L 336.73708,196.98987 L 330.14122,197.2004 L 326.61632,193.42948 L 325.67304,192.4774 L 314.82176,188.14738 L 308.22587,192.77916 L 311.20466,196.14772 L 309.91858,197.86008 L 307.92091,198.26244 L 306.32039,200.37715 L 305.03432,200.99004 L 303.33216,200.99004 L 303.97047,203.30592 z "
       id="path47174"
       sodipodi:nodetypes="ccccccccccccccccccccccccccccccccccccccccccccccccccccccccccccccccccccccccccccccccccccccccccccc" />
    <path
       style="fill:#0370b6;fill-opacity:1;fill-rule:evenodd;stroke:none;stroke-width:1px;stroke-linecap:butt;stroke-linejoin:miter;stroke-opacity:1"
       d="M 303.29197,200.43539 L 304.81682,206.23938 L 307.44466,207.77671 L 311.16361,212.76426 L 313.05103,215.39299 L 314.70635,218.0083 L 318.54051,220.02008 L 320.52959,222.98075 L 320.87861,225.55248 L 322.20015,228.57016 L 324.05879,229.99349 L 326.06312,230.8837 L 328.06745,232.23494 L 328.40123,234.00196 L 330.73933,235.20903 L 331.65425,237.92494 L 335.61887,242.25027 L 335.77813,245.06675 L 339.17687,251.80624 L 340.29508,254.32096 L 342.40109,254.59422 L 347.54154,250.36948 L 350.46078,249.2915 L 353.71379,247.17914 L 356.53139,244.73648 L 360.72812,242.35085 L 363.57452,240.23849 L 364.53347,236.81845 L 367.84411,235.78406 L 369.9789,234.10255 L 371.60542,234.40432 L 372.62199,232.69431 L 372.72364,231.88959 L 374.96009,230.8552 L 375.58528,228.72775 L 376.48494,227.46368 L 377.2982,227.06132 L 377.60317,225.4519 L 377.60317,224.34542 L 376.78992,222.93716 L 379.12803,220.92539 L 379.68035,218.99911 L 380.3479,217.20359 L 381.13236,216.1977 L 380.82739,213.10794 L 379.433,212.17414 L 378.41643,211.47001 L 377.70484,210.46412 L 373.74022,210.92348 L 373.43523,209.76 L 372.31701,209.65941 L 371.30044,208.45233 L 370.28387,206.84291 L 369.57228,204.52937 L 369.0352,202.21582 L 368.14908,202.61818 L 366.92919,204.2276 L 366.0719,207.47495 L 364.89605,208.95528 L 363.3712,210.36354 L 356.96682,212.67709 L 356.15355,209.31406 L 355.66053,207.23186 L 355.06414,205.95102 L 354.32374,205.63585 L 353.87307,207.37437 L 354.41015,209.70133 L 354.12043,210.56472 L 350.98431,208.15058 L 350.43197,206.97201 L 350.05414,205.73643 L 349.28495,202.91995 L 345.17462,201.09426 L 344.89846,199.31215 L 341.22524,196.03629 L 341.68949,193.23488 L 342.53153,193.36398 L 345.17462,192.45868 L 347.71604,192.2575 L 351.3757,196.68342 L 352.17369,198.19225 L 357.98338,200.6064 L 359.27613,201.68437 L 365.09937,201.20993 L 367.74245,200.30463 L 370.28387,200.30463 L 371.80873,202.61818 L 374.9008,204.25609 L 376.14949,204.29969 L 379.31609,204.40027 L 381.56779,204.52937 L 381.7711,241.14379 L 346.19118,261.96572 L 343.03982,261.46278 L 340.19343,258.54569 L 339.48183,259.55158 L 338.16028,259.451 L 337.95698,258.84746 L 339.88846,256.93627 L 339.32088,255.59843 L 335.31389,252.20858 L 332.67082,249.89503 L 326.06312,247.58148 L 325.65648,245.97206 L 324.43661,244.46322 L 322.91175,240.23849 L 317.24777,236.67429 L 314.27092,226.2566 L 310.26224,223.65469 L 309.28974,221.32774 L 309.08642,220.22127 L 304.20688,214.78945 L 303.29197,213.48179 L 301.97043,210.56472 L 297.57039,205.36258 L 296.68427,204.12701 L 296.37931,203.52349 L 296.48095,201.20993 L 301.73832,206.25447 L 302.88534,206.03821 L 303.29197,200.43539 z "
       id="path47176"
       sodipodi:nodetypes="ccccccccccccccccccccccccccccccccccccccccccccccccccccccccccccccccccccccccccccccccccccccccccccccccccccccccccccccccccccccccc" />
    <path
       style="fill:#997b3d;fill-opacity:1;fill-rule:evenodd;stroke:none;stroke-width:0.5;stroke-linecap:butt;stroke-linejoin:miter;stroke-miterlimit:4;stroke-dasharray:none;stroke-opacity:1"
       d="M 351.74121,204.78466 L 352.29772,204.80242 L 352.59652,204.65517 L 352.76967,204.72623 L 352.93357,204.83566 L 352.96311,205.05342 L 352.90172,205.21099 L 352.78241,205.28205 L 352.58495,205.29981 L 352.567,205.49521 L 352.53109,205.83271 L 352.45929,206.20575 L 352.36953,206.40114 L 352.26182,206.73865 L 352.02843,206.77417 L 351.83096,206.56102 L 351.66939,205.70837 L 351.6335,205.44191 L 351.47192,205.33533 L 351.18469,205.17547 L 351.18469,204.96231 L 351.2565,204.78466 L 351.54372,204.78466 L 351.74121,204.78466 z "
       id="path47178"
       sodipodi:nodetypes="cccccccccccccccccccccccc" />
  </g>
</svg>
