<svg xmlns="http://www.w3.org/2000/svg" width="1000" height="750"><path fill-rule="evenodd" d="M0 0h1000v750H0z"/><path d="M471.66 666.15c-2.976-.207-8.129-.898-9.75-1.316-1.024-.263-2.97-.719-4.322-1.012-1.353-.294-3.147-.786-3.986-1.095-.839-.31-2.251-.744-3.139-.964-.887-.225-3.477-1.143-5.757-2.048-2.279-.904-4.498-1.757-4.931-1.894-.432-.14-1.914-.813-3.291-1.5-1.378-.687-3.247-1.558-4.154-1.933-1.94-.803-4.321-2.057-5.84-3.073-.595-.399-1.658-.925-2.362-1.169-1.58-.548-2.166-.84-3.543-1.771a29.75 29.75 0 0 0-2.46-1.446c-2.807-1.453-9.142-5.658-12.229-8.117-.988-.788-2.316-1.765-2.952-2.172-2.152-1.375-7.996-6.394-10.852-9.32-2.11-2.16-4.938-6.074-7.999-11.068-.64-1.044-1.639-2.496-2.221-3.227-.582-.73-1.33-1.837-1.662-2.46a14.584 14.584 0 0 0-1.48-2.16c-.483-.565-1.097-1.46-1.365-1.988-.268-.529-.783-1.29-1.144-1.692-.362-.402-.971-1.351-1.354-2.11-.382-.756-1.097-1.89-1.59-2.52-.503-.643-1.162-1.841-1.511-2.747a41.118 41.118 0 0 0-1.261-2.893c-1.442-2.885-3.26-7.501-3.726-9.455-.271-1.136-.759-2.819-1.082-3.739-.323-.92-1.066-3.046-1.65-4.723-1.241-3.565-2.003-5.28-3.19-7.183-1.822-2.924-2.097-4.289-2.576-12.795-.305-5.383-.319-7.155-.129-15.056.332-13.59.751-16.102 4.101-24.576.273-.69.757-2.462 1.075-3.937.32-1.476.927-4.19 1.35-6.029.958-4.161 1.649-7.678 2.183-11.12.227-1.462.932-4.916 1.566-7.676s1.209-5.418 1.278-5.905c.072-.487.335-1.639.591-2.559.258-.92.783-3.134 1.17-4.92 1.134-5.254 1.464-6.462 2.297-8.42.887-2.083 1.191-3.296 1.626-6.468.354-2.598 2.67-9.84 3.782-11.827.489-.875.824-1.886 1.156-3.485.4-1.93.68-2.676 1.937-5.168.808-1.603 1.737-3.673 2.065-4.602.676-1.918 1.321-3.293 2.675-5.692 2.325-4.12 4.415-7.944 5.433-9.94.608-1.19 1.996-3.582 3.087-5.313 1.09-1.733 2.337-3.859 2.772-4.724.436-.866 1.142-1.973 1.57-2.46.428-.488 1.202-1.639 1.72-2.56.517-.92 1.362-2.248 1.877-2.952a33.276 33.276 0 0 0 1.814-2.854c2.267-4.066 5.729-9.166 8.963-13.203.852-1.064 3.55-3.384 5.816-5.002a38.162 38.162 0 0 0 1.867-1.414c.345-.29 2.376-1.437 4.515-2.547 2.138-1.11 4.4-2.35 5.028-2.755.628-.405 1.735-.96 2.46-1.234.726-.274 3.71-1.424 6.634-2.555 5.072-1.963 8.002-2.899 9.94-3.173 1.36-.196 12.168-2.833 13.324-3.255.99-.363 6.668-1.313 10.49-1.757a86.435 86.435 0 0 0 3.641-.521c.975-.17 2.79-.429 4.035-.58 1.245-.157 2.84-.368 3.543-.478 1.583-.246 30.426-.592 43.103-.517 10.08.064 10.541.106 13.498 1.215 1.382.52 4.378 1.225 8.743 2.058 2.966.566 9.453 2.58 14.073 4.372 1.849.716 5.926 2.79 7.282 3.703.433.291 1.607.94 2.608 1.443 1.001.502 2.292 1.34 2.868 1.862a22.741 22.741 0 0 0 2.017 1.608c1.462.995 2.596 1.912 4.12 3.336a57.702 57.702 0 0 0 3.142 2.665c.969.757 2.284 2.024 2.922 2.813.64.79 1.719 2 2.4 2.692.681.691 1.72 1.861 2.31 2.6.59.738 1.86 2.196 2.824 3.24 2.782 3.009 3.699 4.11 4.65 5.582.49.757 1.305 1.833 1.81 2.39 1.047 1.155 5.049 6.917 6.499 9.359a86.414 86.414 0 0 1 2.028 3.682c.58 1.127 1.4 2.44 1.822 2.918.42.478.996 1.474 1.279 2.215.283.74.87 1.844 1.306 2.452 2.071 2.892 6.857 12.405 8.522 16.937.635 1.733 1.493 3.814 1.905 4.626.412.812 1.022 2.495 1.355 3.74a57.105 57.105 0 0 0 1.473 4.542c.477 1.254 1.09 3.158 1.362 4.232.272 1.074.636 2.35.809 2.837.176.488.535 1.933.806 3.211.613 2.897 1.293 4.837 2.844 8.107 1.293 2.727 2.148 5.594 2.165 7.258 1.114 29.323.655 18.174.718 47.359-2.878 15.732 5.31 46.016-3.896 59.735-.867 1.275-1.177 1.967-1.634 3.64-.737 2.703-1.741 5.256-2.787 7.086-.464.812-1.04 2.096-1.28 2.855-.24.757-.701 1.909-1.024 2.558-.977 1.966-4.708 7.926-5.707 9.117-.516.615-1.18 1.5-1.476 1.966-2.135 3.362-5.293 7.267-8.23 10.173-1.093 1.083-2.322 2.394-2.73 2.913-.407.518-1.24 1.305-1.852 1.748-.611.442-1.82 1.492-2.686 2.334-2.289 2.226-7.573 6.538-9.77 7.97a66.095 66.095 0 0 0-3.748 2.684c-1.018.793-2.584 1.842-3.48 2.328-.896.488-2.62 1.544-3.83 2.348-1.21.804-2.85 1.763-3.645 2.13a41.725 41.725 0 0 0-3.05 1.617c-.884.522-2.669 1.365-3.968 1.874-1.299.51-3.986 1.766-5.97 2.794-1.986 1.028-4.776 2.34-6.2 2.917-1.425.578-3.654 1.488-4.953 2.022-1.299.535-3.513 1.303-4.92 1.707-3.34.96-7.521 2.297-9.251 2.96-1.418.544-6.242 1.677-10.923 2.567-1.462.278-3.53.684-4.597.904-3.911.806-9.05.951-32.602.919-12.07-.016-22.388-.064-22.93-.101zm38.631-29.787c2.704-.624 7.567-2.767 13.382-5.9 1.648-.887 1.945-.98 3.09-.98.696 0 2.887.312 4.868.695 10.22 1.979 14.53 2.459 18.888 2.102 3.045-.249 8.525-1.306 10.837-2.09 1.906-.647 8.02-3.84 9.283-4.847a53.42 53.42 0 0 1 2.088-1.563c2.034-1.432 3.498-3.02 4.26-4.628.683-1.435.704-1.547.626-3.303-.072-1.545-.17-1.975-.653-2.865-.768-1.408-2.615-3.389-4.208-4.514a34.429 34.429 0 0 1-2.425-1.911c-.763-.676-2.236-1.555-4.625-2.762-3.724-1.882-4.233-2.308-4.506-3.76-.3-1.6.564-2.364 2.479-2.19 1.471.136 2.574.722 4.183 2.236 1.707 1.605 2.629 2.182 4.573 2.862 1.933.676 4.301.77 5.406.216.695-.351 3.257-3.249 4.865-5.504.49-.683 1.186-1.95 1.55-2.813.364-.863.973-2.054 1.352-2.647 1.68-2.626 2.395-4.704 2.678-7.775.108-1.141.245-2.528.311-3.083.11-.886.034-1.208-.62-2.657-1.054-2.347-1.641-3.147-4.073-5.546-2.027-1.998-2.3-2.195-4.578-3.294-1.332-.643-2.936-1.303-3.566-1.467-2.426-.632-4.858-.196-7.63 1.378-1.809 1.025-3.382 2.512-5.829 5.506-1.542 1.887-4.807 6.958-5.234 8.129-.962 2.64-2.472 5.14-3.471 5.747-1.177.715-2.011.695-4.488-.115-3.66-1.193-5.675-.981-7.386.776-1.735 1.78-2.332 3.694-1.89 6.064.226 1.208 1.897 4.325 3.135 5.845 1.458 1.791 5.97 4.891 9.598 6.596 3.63 1.706 4.66 4.356 2.529 6.5-.657.66-3.19 1.898-4.876 2.384-1.047.302-1.537.312-5.117.1-3.309-.2-4.412-.346-6.705-.906-1.51-.37-3.108-.67-3.55-.67-1.117 0-2.938-.504-4.09-1.13-1.434-.781-2.712-2.29-3.377-3.986-.77-1.964-2.8-4.893-4.72-6.81-2.757-2.753-4.56-3.868-8.276-5.111-1.893-.633-2.194-.678-4.56-.677-1.394 0-3.376.132-4.405.287-2.31.354-7.955 2.084-9.542 2.925-1.82.965-3.514 2.747-4.365 4.591-.77 1.669-2.295 4.036-3.048 4.734-.257.237-.894.622-1.415.852l-.947.419-1.019-.504c-2.784-1.377-3.738-2.69-5.155-7.105-.675-2.105-1.137-3.15-1.955-4.429-3.89-6.077-6.487-8.787-11.72-12.23-1.787-1.175-3.715-2.47-4.287-2.875-.571-.406-1.679-1.011-2.46-1.345a48.026 48.026 0 0 1-2.456-1.134c-1.635-.839-5.42-2.247-6.727-2.505-.748-.15-2.17-.201-3.802-.138-2.421.095-2.767.159-4.839.896-2.562.915-3.044 1.208-5.382 3.267-2.221 1.954-2.763 2.982-2.882 5.472-.108 2.172.225 3.14 1.51 4.45.963.984 3.008 2.417 4.694 3.292l1.002.52 5.581-.241 5.581-.242 1.575.54c3.87 1.33 5.702 2.728 7.783 5.942 1.587 2.449 1.98 3.497 2.107 5.605.086 1.375.023 1.962-.315 3.07-.228.751-.594 1.595-.812 1.872-.888 1.129-3.93 1.6-6.697 1.038-3.37-.685-7.274-2.179-9.554-3.655-1.877-1.215-3.224-1.608-5.207-1.516-2.026.097-3.028.5-4.499 1.829-2.049 1.851-3.037 4.262-3.063 7.471-.025 2.992.276 3.667 2.722 6.127 2.144 2.157 3.471 2.982 6.093 3.791 1.918.592 5.983 1.068 7.915.928 2.781-.206 8.146-1.05 11.4-1.8 1.732-.399 3.964-.84 4.96-.98 2.29-.321 2.935-.53 4.88-1.573.866-.464 2.682-1.314 4.035-1.887 2.14-.906 2.627-1.041 3.74-1.035.704.01 1.943.195 2.756.416.81.226 2.095.51 2.853.636.762.128 1.818.47 2.362.77 3.76 2.08 4.783 2.781 6.786 4.66 2.868 2.687 8.29 6.083 10.836 6.783 1.924.53 4.484.696 5.854.38zm-3.459-12.104c-2.768-.944-3.938-1.592-5.385-2.987-3.322-3.203-3.058-4.332 2.042-8.715 2.546-2.189 3.324-2.594 4.805-2.513 2.016.114 3.018 1.071 4.269 4.09.38.918.918 2.2 1.195 2.85.655 1.535.659 2.68.013 3.976-.88 1.766-3.546 3.806-4.955 3.793-.302-.009-1.195-.225-1.984-.494zm65.6-37.22c-2.412-.567-3.523-1.933-2.764-3.4.956-1.849 3.338-1.8 4.641.098 1.069 1.553 1.126 2.408.203 2.987-.437.274-1.547.444-2.076.32zm-162.817-23.392c2.91-.34 4.222-.736 6.925-2.09 2.275-1.14 4.465-2.848 5.27-4.111 1.404-2.205 2.87-5.45 3.293-7.282.237-1.029.73-2.865 1.097-4.081.753-2.498 1.159-4.995 1.463-9.008.49-6.453.835-10.37 1.095-12.4.326-2.555.779-19.973.605-23.322-.363-7.027-.69-10.572-1.09-11.846-1.114-3.546-4.305-5.233-7.898-4.176-1.385.407-3.205 1.513-3.822 2.322-.756.991-1.999 3.793-2.578 5.815-.874 3.042-.6 5.849 1.294 13.277.328 1.287.825 3.9 1.104 5.805.707 4.82.606 8.994-.335 13.996-.631 3.354-.648 3.585-.658 8.856-.011 6.053.1 5.547-1.633 7.702-.833 1.039-1.722 1.803-3.675 3.161-4.33 3.012-5.007 3.182-8.041 2.024-2.92-1.114-2.985-1.158-4.832-3.31-2.106-2.454-3.16-4.195-4.136-6.835-1.078-2.915-2.074-3.923-3.874-3.923-1.504 0-2.83 1.326-3.263 3.259-.202.88-.188 1.398.08 2.987.177 1.057.368 2.314.432 2.793.068.48.566 2.34 1.116 4.134a787.63 787.63 0 0 1 1.785 5.919c1.487 5.03 2.64 6.922 5.262 8.644 1.98 1.3 2.88 1.547 6.503 1.78 3.754.24 5.878.223 8.514-.094zm39.27-6.008a74.978 74.978 0 0 0 5.553-1.4c1.462-.443 3.145-.938 3.74-1.098.595-.163 2.101-.755 3.346-1.323s2.574-1.152 2.952-1.295c1.408-.535 3.863-1.834 4.626-2.448.432-.348 1.597-1.176 2.589-1.84 2.042-1.367 2.125-1.468 3.752-4.567.95-1.81 1.233-2.559 1.406-3.739.458-3.117.93-3.945 2.782-4.873 2.033-1.02 3.416-1.226 6.003-.898 3.178.402 7.691 1.503 9.991 2.436 3.769 1.529 5.259 1.957 7.821 2.25 1.353.158 3.434.416 4.626.579 1.19.166 3.405.384 4.92.492 6.582.469 9.906.806 10.825 1.097.598.195 2.296.384 4.33.493 4.467.237 8.334.54 10.136.795.812.117 3.648.26 6.302.322 5.189.126 6.141.028 7.933-.808.56-.26 1.894-.88 2.965-1.375 1.872-.868 4.796-2.686 8.068-5.015 1.25-.891 1.872-1.538 3.223-3.355 2.406-3.234 4.03-6.303 4.803-9.076l.629-2.254.08-6.952.08-6.952-.628-2.692c-.346-1.481-.742-2.913-.88-3.184-.14-.271-.79-1.081-1.451-1.802-1.351-1.474-2.17-1.86-4.367-2.065-2.225-.21-3.05.115-5.094 1.967-1.226 1.112-2.221 2.264-3.244 3.756-1.252 1.824-1.595 2.512-2.254 4.527-1.113 3.398-1.175 3.847-1.319 9.593-.087 3.362-.22 5.393-.372 5.782-.417 1.03-2.388 2.974-3.661 3.61-3.59 1.794-6.997 1.11-9.946-1.995-1.436-1.511-1.73-2.129-1.953-4.085-.16-1.38.317-4.324 1.118-6.954 1.522-4.994.736-9.325-2.254-12.423-1.5-1.553-2.157-1.77-4.955-1.627-2.836.148-3.628.48-5.439 2.306-2.93 2.955-4.162 6.545-4.072 11.87.054 3.103-.107 3.908-1.018 5.289-1.177 1.776-2.935 2.53-5.994 2.57-1.675.024-2.137-.045-3.013-.428-1.95-.86-2.935-2.722-2.741-5.19.316-4.052.618-10.305.622-12.93.009-2.953-.011-3.078-.518-3.936-.62-1.05-2.892-3.069-4.004-3.558-1.38-.606-3.029-.833-4.325-.593-1.908.353-2.74.876-4.05 2.547-1.664 2.123-2.112 3.142-2.576 5.86-.63 3.689-.649 4.305-.193 6.422.631 2.914.503 4.47-.461 5.603-.256.3-1.675 1.167-3.151 1.924l-2.685 1.378h-3.582c-3.518 0-3.603-.009-4.695-.546-1.98-.971-3.558-3.158-4.669-6.464-1.582-4.71-4.385-9.289-7.845-12.822-1.8-1.836-2.506-2.113-5.386-2.113-5.252 0-8.598 1.584-13.843 6.554-2.665 2.526-4.497 4.785-5.512 6.8-.678 1.344-1.293 3.743-1.29 5.03.01 1.627.708 4.577 1.453 6.095.966 1.967 2.992 5.386 3.747 6.323.35.434 1.16 1.581 1.8 2.552.682 1.032 2.106 2.722 3.43 4.066 1.995 2.028 2.475 2.406 4.056 3.193.993.494 2.025 1.167 2.313 1.51.69.82.704 1.91.04 2.704-.805.955-6.351 3.949-10.954 5.912-1.07.456-3.942 2.378-4.852 3.247-.353.336-.817 1.084-1.034 1.662-.697 1.864-.461 3.224.811 4.673 1.435 1.634 2.909 1.81 7.414.886zm8.353-32.177c-.789-.342-2.835-1.896-3.337-2.534-.205-.257-.535-.965-.743-1.574-.439-1.292-.3-2.13.688-4.168.849-1.748 4.89-6.437 6.02-6.984 1.095-.53 1.999-.407 2.897.395.56.501.63.68.63 1.613 0 .867-.17 1.375-.955 2.92-1.164 2.278-1.363 3.686-.807 5.71.734 2.671.537 3.984-.691 4.62-.73.377-2.837.378-3.702.009zm132.617 28.342c2.416-.72 4.129-1.6 6.67-3.425 1.234-.887 2.61-1.828 3.056-2.089 1.343-.787 2.336-1.758 3.045-2.975a90.5 90.5 0 0 1 1.44-2.37c1.373-2.17 1.782-3.6 2.12-7.424.191-2.115.348-2.752 1.66-6.594.799-2.338 1.592-4.575 1.761-4.972.174-.396.476-1.459.68-2.361.209-.903.747-2.926 1.204-4.496 1.105-3.783 1.381-5.308 1.52-8.365.143-3.12-.159-4.443-1.955-8.718-1.267-3.012-1.86-3.759-3.55-4.464-.836-.35-3.384-.403-4.21-.093-1.12.426-2.612 1.785-4.129 3.763-3.45 4.5-3.593 4.901-3.83 10.788-.102 2.436-.31 5.702-.471 7.259-.164 1.557-.293 3.231-.293 3.722 0 1.29-1.099 8.007-1.762 10.768-.312 1.3-.625 2.804-.696 3.346-.188 1.408-1.052 4.778-1.416 5.494-.173.334-1.63 1.881-3.246 3.44-3.585 3.455-3.954 4.06-3.974 6.516-.011 1.193.081 1.843.306 2.264.342.631 1.056 1.35 1.538 1.546.55.224 2.857-.066 4.532-.563zM441.941 467.41a216.41 216.41 0 0 1 4.723-.789c3.592-.545 8.178-2.323 10.48-4.06.578-.436 1.892-1.85 2.92-3.14 1.027-1.29 2.065-2.456 2.304-2.59.536-.302 2.696-.285 3.845.03.469.132 1.403.611 2.078 1.073 1.778 1.217 6.554 2.775 10.01 3.265 2.42.343 3.87.459 12.45.992 1.732.11 5.674.198 8.759.195l5.61-.009 3.443-.694c1.895-.383 4.685-.82 6.2-.971 1.516-.154 3.345-.458 4.065-.681 2.283-.707 4.732-2.682 5.971-4.816 1.018-1.753 2.092-4.873 2.272-6.598.365-3.498.787-10.558.985-16.444.191-5.62.175-6.405-.201-9.939-.57-5.466-.567-16.035.009-23.237.387-4.846.392-5.213.091-6.739-.688-3.452-2.16-5.394-5.22-6.883-2.01-.98-3.364-1.153-4.929-.633-1.795.596-3.675 2.7-4.359 4.878-.967 3.082-1.615 11.275-1.915 24.249-.194 8.216-.135 10.429.375 14.367.115.866.29 3.636.398 6.154.255 5.992.127 6.617-1.76 8.38-1.323 1.237-2.364 1.694-3.87 1.7-2.307.009-4.977-1.83-6.196-4.266l-.67-1.34v-10.037c0-8.553.055-10.494.363-13.122.313-2.638.332-3.322.132-4.724-.134-.902-.312-4.075-.404-7.052-.095-2.977-.252-5.9-.357-6.495-.497-2.81-1.71-4.702-3.267-5.094-1.274-.321-2.989-.271-3.817.115-1.005.463-4.365 3.876-5.101 5.181-.659 1.168-2.604 5.895-3.107 7.549-.359 1.179-.625 4.963-.882 12.525-.227 6.728-.504 12.909-.763 17.045-.236 3.762-.615 5.042-1.868 6.303-1.05 1.058-3.595 1.935-5.163 1.78-2.058-.206-3.854-1.446-5.06-3.506-.65-1.106-1.498-4.594-2.388-9.807-.6-3.514-.715-4.697-.786-8.018-.115-5.305-.37-6.64-1.854-9.603-.65-1.299-1.468-3.007-1.816-3.795-.943-2.136-2.764-3.57-4.545-3.581-2.803-.017-5.315 1.436-6.25 3.617-.44 1.026-1.113 3.97-1.282 5.61-.157 1.493-.895 3.567-1.609 4.503-.783 1.027-2.696 2.346-5.14 3.545l-2.217 1.087-2.704.157c-8.994.51-11.157 1.233-14.925 4.987-2.612 2.602-3.353 3.83-4.204 6.966-.334 1.228-.727 2.468-.875 2.756-.15.288-.638 1.876-1.091 3.528-.996 3.631-1.301 6.192-1.005 8.419.261 1.962.357 2.297 1.512 5.27 2.666 6.862 7.154 10.962 13.544 12.372 3.787.836 4.774.844 9.065.076zm-.103-15.2c-2.047-.345-3.469-1.296-4.728-3.166-.53-.787-1.015-1.717-1.077-2.066-.156-.852 1.647-7.94 2.446-9.632.417-.88 1.1-1.785 2.226-2.945 2.221-2.29 3.193-2.917 4.84-3.126.722-.095 1.7-.303 2.173-.47 2.168-.77 4.514-.109 5.923 1.677 1.356 1.715 1.486 3.583.51 7.267-.273 1.028-.498 2.283-.5 2.787-.013 3.543-1.915 7.575-4.205 8.916-.726.426-1.245.535-3.3.695-2.495.197-3.442.211-4.308.065zm111.221 5.976c1.79-.944 2.657-2.786 3.309-7.021.212-1.353.739-3.889 1.18-5.635.44-1.746.936-4.082 1.103-5.192.17-1.11.337-2.073.379-2.14.044-.07.451-1.85.911-3.96l.835-3.838-.037-14.073c-.04-15.221-.144-17.175-1.136-21.551-.271-1.191-.747-3.475-1.057-5.075-.31-1.6-.78-3.372-1.044-3.937-.75-1.603-2.299-3.188-3.59-3.67-1.518-.569-3.178-.543-4.373.071-2.29 1.17-2.815 2.423-3.481 8.296-.261 2.295-.295 4.214-.204 11.246.096 6.813.06 8.938-.179 10.814a112.31 112.31 0 0 0-.411 3.81c-.071.812-.293 2.808-.5 4.436-.946 7.419-1.2 17.165-.512 19.576.173.595.403 2.012.518 3.149.624 6.174 1.047 9.432 1.396 10.766.882 3.366 1.934 4.387 4.522 4.389 1.186 0 1.674-.097 2.362-.458zm146.643-186.52c-1.37-.493-2.788-1.411-3.647-2.362-1.106-1.224-1.37-2.779-.8-4.7.481-1.619 1.363-2.424 4.14-3.78 3.104-1.516 3.624-2.058 3.622-3.78 0-2.131-.262-2.651-3.008-5.995-.934-1.137-1.557-2.619-1.557-3.706 0-.398.281-1.274.646-2.016.844-1.714 5.59-6.616 7.944-8.206 2.128-1.438 3.335-1.746 6.9-1.759 3.54-.012 4.991.388 6.763 1.868 1.401 1.172 1.908 1.929 2.2 3.285.28 1.312-.01 2.393-.906 3.386-.914 1.012-2.16 1.51-4.728 1.885-1.182.176-2.474.4-2.872.504-1.924.505-2.714 3.596-1.479 5.792.683 1.214 2.977 2.58 6.27 3.732 2.372.83 3.23 1.468 3.913 2.912.688 1.454.707 1.766.19 3.153-.456 1.221-.955 1.738-2.852 2.95-2.578 1.648-4.079 2.274-10.772 4.49-1.919.634-3.932 1.379-4.474 1.653-1.024.52-3.093 1.084-3.944 1.077-.27 0-.966-.178-1.546-.383zm-193.6-.424c-.902-.335-3.166-1.881-3.723-2.543-.968-1.152-1.15-2.857-.49-4.62.662-1.768 1.41-2.41 5.68-4.88 1.427-.827 1.878-1.615 1.878-3.279 0-1.55-.423-2.364-2.336-4.498-2.792-3.114-2.762-5.351.122-8.71 3.52-4.104 6.265-6.31 8.792-7.067.714-.218 2.396-.513 3.739-.666 2.704-.308 3.587-.193 5.677.765 1.096.5 3.063 2.22 3.494 3.052.83 1.606.508 3.538-.81 4.856-1.202 1.201-2.182 1.59-4.58 1.816-3.454.325-4.578 1.174-4.713 3.56-.093 1.583.195 2.19 1.621 3.508.97.894 1.825 1.37 3.79 2.11.74.278 2.085.92 2.988 1.427 1.868 1.049 2.527 1.902 2.714 3.517.1.823.018 1.132-.552 2.235-.59 1.135-.863 1.416-2.431 2.498-1.429.987-2.614 1.556-6.195 2.978-2.436.967-4.871 1.87-5.413 2.008-.541.139-2.003.649-3.247 1.138-1.89.743-2.524.9-3.838.952-.866.035-1.84-.039-2.165-.16zm73.42-40.124c-1.838-.322-3.82-.724-4.405-.894-1.626-.473-5.044-2.322-6.605-3.574-.769-.615-1.884-1.508-2.48-1.983-3.404-2.714-7.031-8.551-7.885-12.686-.312-1.514-.376-2.67-.377-6.84 0-8.338.29-10.788 1.825-15.353.272-.811.908-2.77 1.411-4.35 1.457-4.577 3.568-8.009 6.673-10.85 1.878-1.72 5.335-3.893 7.112-4.472.65-.216 2.554-.61 4.232-.884 2.539-.416 3.892-.513 8.069-.58 9.24-.148 13.102-.891 16.307-3.15 1.944-1.37 2.903-2.439 3.756-4.185.65-1.335.802-1.974 1.875-7.894.731-4.033 1.683-6.575 3.548-9.478 2.958-4.602 4.789-5.42 8.164-3.646 1.653.869 3.306 2.609 5.6 5.894 1.742 2.497 2.362 3.722 3.337 6.594.907 2.674 1.13 4.73 1.192 11.021.047 4.48.12 5.474.68 9.251.348 2.327.764 4.852.926 5.61.165.757.428 2.086.592 2.952.56 2.958 1.309 6.1 1.68 7.05 2.073 5.29 7.481 10.143 11.333 10.166 1.034.01 4.6-.674 5.211-.994 1.443-.757 3.994-2.717 4.798-3.687 1.715-2.068 2.244-3.778 2.628-8.5.655-8.065.815-10.28.99-13.68.27-5.283.558-13.578.809-23.421.181-6.97.28-8.724.573-9.94.642-2.649 2.962-6.375 7.09-11.386.92-1.117 2.04-2.488 2.487-3.047.447-.56 1.58-1.543 2.52-2.185 1.634-1.12 1.757-1.169 2.926-1.166 1.418.008 2.171.334 3.059 1.345 1.285 1.464 1.868 3.18 2.312 6.795.26 2.115.313 7.9.379 41.135.044 21.272.133 40.093.202 41.825.098 2.44.057 3.47-.18 4.579-.594 2.834-2.4 5.274-4.702 6.351-2.195 1.027-3.998 1.152-8.26.57-.728-.103-3.075-.314-5.216-.477-2.14-.166-4.688-.383-5.662-.488a233.48 233.48 0 0 0-4.133-.401c-1.3-.119-3.026-.339-3.838-.496-.812-.16-2.712-.466-4.223-.686-3.867-.562-7.223-1.585-9.233-2.815-6.636-4.06-6.424-3.97-8.883-3.824-.967.06-1.918.245-2.465.488-1.039.46-2.801 2.016-4.184 3.694-2.256 2.737-4.618 5.12-5.846 5.9-1.789 1.134-5.756 2.955-7.285 3.345-.704.182-2.097.585-3.097.902-1.845.585-9.43 2.052-13.732 2.656-1.298.186-3.69.364-5.314.403-2.592.065-3.358 0-6.291-.514zm24.989-18.953c1.647-.456 2.609-1.066 3.53-2.241 1.37-1.744 2.602-4.088 2.969-5.64.186-.774.58-2.204.885-3.178.984-3.15 1.926-7.057 2.328-9.66.979-6.331 1.073-7.155.962-8.474-.14-1.635-.747-3.342-1.588-4.445-.343-.449-1.352-1.373-2.244-2.053-2.167-1.654-3.661-2.134-6.547-2.103-2.36.027-6.262.778-7.986 1.54-2.595 1.148-5.455 3.428-7.516 5.995-1.255 1.561-4.076 5.787-5.394 8.08-1.947 3.383-2.553 6.832-2.175 12.386.198 2.853.279 3.337.76 4.32 1.307 2.674 5.022 4.96 8.7 5.353 5.538.592 11.42.644 13.316.123zM193.55 230.11c-4.44-.554-10.214-3.305-13.55-6.454-2.73-2.578-6.682-8.03-8.197-11.308-1.794-3.883-2.31-7.741-1.761-13.141.313-3.072.84-5.191 2.047-8.215.6-1.506 1.091-2.848 1.091-2.982 0-.136.343-.918.762-1.742a31.04 31.04 0 0 0 1.26-2.877c.273-.758 1.087-2.53 1.81-3.937 2-3.892 3.39-5.524 6.364-7.472 2.429-1.592 3.73-2.24 6.27-3.123 2.66-.926 4.42-1.114 12.171-1.3 6.08-.15 6.646-.195 8.854-.7 3.976-.914 6.711-2.324 8.637-4.452 1.895-2.094 2.806-4.48 2.997-7.85.14-2.414.343-3.33 1.393-6.2.477-1.299 1.007-2.75 1.18-3.225.39-1.064 2.194-3.76 3.289-4.91 1.15-1.208 2.514-1.866 3.862-1.863 1.998.009 3.08.73 5.064 3.405.604.812 1.47 1.874 1.926 2.362 1.111 1.188 3.343 5.213 4.035 7.282.792 2.365.96 3.853 1.177 10.431.225 6.67.265 7.081 1.49 13.913.5 2.794 1.04 5.833 1.2 6.753.338 1.953 1.316 5.268 1.887 6.397 1.411 2.788 4.702 6.396 6.811 7.464 2.681 1.36 4.771 1.562 7.311.71 3.682-1.235 5.691-2.756 7.374-5.584 1.357-2.28 1.626-3.33 1.975-7.707.158-1.949.371-4.606.48-5.905.431-5.087.828-12.067.997-17.517.102-3.14.272-8.808.387-12.596.232-7.617.414-9.743.977-11.38 1.03-2.99 5.1-8.9 9.215-13.376 3.137-3.412 4.21-3.938 6.413-3.148 2.939 1.053 4.177 4.021 4.662 11.174.162 2.34.215 11.784.178 31.393l-.055 28.046.444 1.138c1.265 3.233 7.656 8.03 11.497 8.628 2.646.412 5.195-.541 7.547-2.822 2.419-2.345 3.804-4.692 4.429-7.501.687-3.09.305-9.137-1.254-19.813l-.617-4.232.254-3.346c.142-1.84.287-5.604.328-8.365.22-14.36.535-21.16 1.448-30.802.444-4.676.812-6.509 1.773-8.817.815-1.958 1.632-3.16 2.706-3.98.899-.686 2.611-1.427 3.728-1.612.804-.136 2.574.426 3.807 1.203.531.335 1.745 1.087 2.697 1.67 1.938 1.19 4.792 3.842 5.407 5.027.614 1.184.67 2.746.195 5.383-.989 5.463-1.607 30.05-.92 36.631.874 8.384.74 25.533-.28 35.645-.323 3.194-.642 6.78-.71 7.972-.154 2.644-.579 5.323-1.094 6.852-.529 1.569-2.21 4.474-3.278 5.661-.897.998-4.189 3.304-5.493 3.85-1.254.523-3.41.813-7.052.948-4.054.154-6.036.435-10.343 1.488-1.684.411-4.107.856-5.385.987-3.173.327-15.15.137-24.128-.39-10.568-.616-12.093-.737-14.761-1.172a130.026 130.026 0 0 0-5.02-.702c-5.052-.594-6.71-.866-7.718-1.263-1.923-.758-4.617-2.208-6.814-3.668-3.17-2.106-4.846-2.455-7.511-1.566-1.63.544-2.757 1.407-4.317 3.307-4.496 5.472-5.33 6.172-9.895 8.3-2.596 1.211-4.112 1.7-9.997 3.23-2.654.69-8.175 1.551-11.5 1.795-3.01.224-8.273.209-10.15-.032zm23.325-18.68c2.865-.454 4.816-2.033 6.434-5.208 1.183-2.32 2.079-4.78 2.52-6.921.178-.848.661-2.876 1.081-4.507.42-1.63.864-3.756.985-4.723.124-.968.403-3.085.624-4.705.235-1.713.352-3.32.281-3.838-.07-.49-.56-1.79-1.097-2.889-1.15-2.358-1.909-3.11-4.25-4.223-3.697-1.755-5.9-1.785-11.204-.157-2.53.777-4.583 1.855-6.241 3.275-1.39 1.19-3.786 4.14-5.081 6.256a77.027 77.027 0 0 1-1.537 2.394c-.424.627-1.316 2.203-1.982 3.502-1.714 3.338-1.843 4.102-1.746 10.235.096 5.737.093 5.727 1.946 7.49 1.547 1.467 2.891 2.246 5.234 3.03 1.622.544 2.175.624 5.479.787 2.02.104 3.724.232 3.784.293.189.189 3.406.124 4.77-.099zm564.772 12.407c-6.164-.155-12.487-.502-19.78-1.096-2.003-.166-4.855-.38-6.338-.483-2.987-.21-4.151-.419-5.457-.996-1.94-.859-2.892-2.039-3.473-4.31-.285-1.11-.297-1.605-.1-4.03.189-2.223.181-3.257-.04-5.288-.613-5.748.456-7.643 5.575-9.881 3.63-1.588 5.214-3.035 6.663-6.089 1.027-2.165 1.174-3.01 1.503-8.667.16-2.706.423-6.824.591-9.152.31-4.273.465-8.427.869-23.126.174-6.226.313-8.677.623-10.727.54-3.576.88-4.289 4.64-9.724 1.17-1.69 4.53-5.67 5.63-6.668 1.136-1.03 4.052-2.699 4.716-2.699.681 0 2.268.79 3.162 1.575 1.46 1.282 1.982 3.373 2.503 10.037.368 4.716.39 6.657.355 32.18l-.038 27.161.44 1.139c.874 2.254 2.558 4.076 5.888 6.37 2.793 1.924 3.427 2.19 5.62 2.358 3.087.236 5.123-.633 7.893-3.372 1.335-1.32 1.76-1.909 2.628-3.64 1.44-2.875 1.674-4.279 1.521-9.131-.091-2.769-.29-4.854-.794-8.168-.874-5.742-1.098-7.894-1.099-10.552 0-4.348.674-27.525.891-30.605.662-9.368 1.396-16.528 1.894-18.481.725-2.843 2.544-5.349 4.728-6.513 1.131-.603 1.293-.635 2.764-.55 1.49.09 1.71.168 4.652 1.662 1.698.864 4.044 1.958 5.212 2.431 2.45.992 3.442 1.751 4.157 3.186.595 1.193.687 3.004.234 4.6-.523 1.84-.813 23.017-.746 54.411.069 30.825.1 29.761-.93 32.487-.515 1.366-2.248 3.413-4.237 5.002-.812.65-2.141 1.738-2.953 2.42-1.77 1.484-3.941 2.852-5.389 3.394-1.388.52-3.065.733-7.656.975-3.963.213-5.372.435-11.076 1.776-4.086.96-5.386 1.027-15.253.784zm-340.202-1.313c-2.93-.13-8.584-.495-11.71-.76-1.84-.16-4.56-.371-6.044-.476-5.326-.377-7.379-1.39-8.653-4.272-.474-1.07-.478-1.202-.334-9.515.087-4.82.126-5.3.53-6.327.865-2.18 2.336-3.324 6.279-4.882 2.538-1.004 4.42-2.897 5.525-5.558.62-1.496.632-1.579 1.718-12.067.433-4.195.656-8.685.98-19.78.501-17.164.626-19.856.987-21.158.462-1.667 1.528-3.9 2.632-5.511.52-.758 1.195-1.82 1.501-2.362.522-.922.915-1.45 3.648-4.894.589-.743 1.903-2.088 2.92-2.988 2.034-1.803 3.003-2.216 4.628-1.972 1.771.266 3.555 2.025 4.306 4.245.674 1.996 1.266 8.982 1.166 13.777-.016.812-.035 10.156-.04 20.765-.008 10.608-.08 21.723-.165 24.7-.17 5.815-.11 6.786.53 8.472.865 2.285 3.989 5.255 7.612 7.235 3.559 1.946 5.241 2.049 8.352.511 2.197-1.085 4.112-2.869 5.712-5.32 1.243-1.903 1.737-3.502 1.999-6.47.292-3.324.124-5.778-.911-13.062-.497-3.505-.921-7.18-.942-8.168-.04-1.751.307-16.55.543-23.25.313-8.934.912-17.457 1.48-21.06.106-.65.19-1.668.193-2.263.011-4.092 2.867-9.153 5.765-10.212 1.27-.464 3.049-.546 4.096-.191.367.129 1.844.978 3.28 1.894 2.75 1.755 3.855 2.841 4.618 4.541.38.845.386 1.551.362 44.088-.017 28.622-.098 43.856-.231 45.085-.233 2.093-1.3 6.021-2.02 7.438-1.234 2.424-4.857 5.482-7.668 6.474-1.585.56-4.435.894-8.99 1.056-4.332.157-4.752.207-6.643.766-1.11.33-3.081.826-4.382 1.1-2.361.5-2.378.5-11.858.462-5.22-.023-10.069-.066-10.773-.098zm267.912-3.015c-.689-.313-.932-.575-1.32-1.423-.614-1.343-.981-2.989-1.37-6.156a174.379 174.379 0 0 0-.696-4.92c-1.1-6.834-1.366-8.567-1.484-9.645-.074-.65-.38-3.04-.688-5.314-.711-5.245-.912-10.363-.602-15.352.13-2.057.32-5.156.427-6.888.28-4.517.67-8.206 1.614-15.254l.83-6.2-.064-13.58c-.064-13.562-.063-13.587.445-17.747.625-5.143.765-5.91 1.392-7.653.568-1.58 2.033-3.534 3.177-4.241 1.089-.673 3.018-.645 4.212.063 1.22.722 2.328 1.94 3.542 3.895 1.275 2.051 1.95 3.518 3.06 6.645 1.044 2.939 1.332 4.15 1.742 7.329.178 1.353.533 3.434.796 4.625.263 1.19.57 2.916.682 3.833.131 1.05.207 9.074.206 21.65 0 21.148-.054 22.521-.964 27.511-.218 1.164-.625 3.444-.916 5.068-.532 2.976-2.862 12.463-3.761 15.318-.767 2.436-1.74 6.118-2.32 8.792-1.46 6.718-2.367 8.602-4.634 9.628-1.113.504-2.22.51-3.305.018zm-190.267-.328c-1.358-.715-2.274-1.98-2.637-3.642-.107-.47-.327-2.315-.499-4.101-.174-1.786-.488-4.222-.703-5.413-2.465-13.662-2.597-14.816-2.698-23.421-.091-7.492-.105-7.201.936-20.076.442-5.485.838-8.868 1.43-12.203.61-3.438.625-3.673.544-7.97-.048-2.436-.094-8.282-.102-12.99-.01-6.994.056-9.212.35-12.105.72-7.013 2.371-11.422 4.716-12.59 1.352-.674 2.464-.654 3.993.072 1.028.486 1.377.804 2.43 2.214 1.516 2.031 1.808 2.6 3.418 6.665 1.304 3.295 1.767 4.82 1.999 6.594.074.54.299 1.648.507 2.46.594 2.326 1.355 7.446 1.559 10.496.109 1.582.158 11.308.117 22.471-.085 21.854.018 20.02-1.57 28.932-.996 5.582-1.108 6.078-2.371 10.432a112.47 112.47 0 0 0-1.384 5.284 75.581 75.581 0 0 1-1.291 4.778c-.42 1.345-.9 3.307-1.068 4.36-.635 3.988-1.843 6.99-3.543 8.807-1.139 1.217-2.868 1.614-4.133.949zm-143.302-.456c-.657-.265-1.814-1.753-2.231-2.866-.215-.563-.61-2.518-.888-4.346-.277-1.828-.68-4.386-.894-5.685-1.871-11.322-2.194-13.765-2.553-19.288-.329-5.075-.349-6.28-.179-10.431.39-9.33 1.183-17.457 2.67-27.358.266-1.773.31-3.272.24-8.266-.193-13.385-.102-19.202.365-23.647.481-4.61 1.243-8.093 2.128-9.718 1.087-1.997 3.128-3.391 4.935-3.37 1.338.016 2.186.421 3.293 1.573 2.194 2.281 3.602 4.825 5.142 9.291 1.505 4.363 1.462 4.16 2.792 13.274l.546 3.74v42.709l-.537 3.445c-.296 1.894-.76 4.95-1.034 6.79-.272 1.84-.802 4.409-1.177 5.708a173.086 173.086 0 0 0-1.473 5.61 165.42 165.42 0 0 1-2.864 10.332c-.373 1.19-.824 2.918-1.001 3.838-.416 2.16-1.165 4.746-1.653 5.703-.485.95-2.173 2.697-2.857 2.957-.62.235-2.198.238-2.774.009z" fill="#fff"/></svg>