<?xml version="1.0" encoding="UTF-8" standalone="no"?>
<!-- Created with Inkscape (http://www.inkscape.org/) -->

<svg
   xmlns:dc="http://purl.org/dc/elements/1.1/"
   xmlns:cc="http://creativecommons.org/ns#"
   xmlns:rdf="http://www.w3.org/1999/02/22-rdf-syntax-ns#"
   xmlns:svg="http://www.w3.org/2000/svg"
   xmlns="http://www.w3.org/2000/svg"
   xmlns:sodipodi="http://sodipodi.sourceforge.net/DTD/sodipodi-0.dtd"
   xmlns:inkscape="http://www.inkscape.org/namespaces/inkscape"
   width="600"
   height="400"
   id="svg2"
   sodipodi:version="0.32"
   inkscape:version="0.92.4 (5da689c313, 2019-01-14)"
   version="1.0"
   sodipodi:docname="Semaia_tes_Kyprou.svg"
   inkscape:output_extension="org.inkscape.output.svg.inkscape">
  <defs
     id="defs4">
    <inkscape:perspective
       sodipodi:type="inkscape:persp3d"
       inkscape:vp_x="0 : 200 : 1"
       inkscape:vp_y="0 : 1000 : 0"
       inkscape:vp_z="600 : 200 : 1"
       inkscape:persp3d-origin="300 : 133.33333 : 1"
       id="perspective15" />
  </defs>
  <sodipodi:namedview
     id="base"
     pagecolor="#ffffff"
     bordercolor="#666666"
     borderopacity="1.0"
     inkscape:pageopacity="0.0"
     inkscape:pageshadow="2"
     inkscape:zoom="1"
     inkscape:cx="137.5"
     inkscape:cy="200"
     inkscape:document-units="px"
     inkscape:current-layer="layer1"
     showgrid="true"
     inkscape:window-width="1366"
     inkscape:window-height="705"
     inkscape:window-x="-8"
     inkscape:window-y="-8"
     objecttolerance="10"
     gridtolerance="10"
     guidetolerance="10"
     inkscape:window-maximized="1">
    <inkscape:grid
       type="xygrid"
       id="grid2383"
       visible="true"
       enabled="true" />
  </sodipodi:namedview>
  <metadata
     id="metadata7">
    <rdf:RDF>
      <cc:Work
         rdf:about="">
        <dc:format>image/svg+xml</dc:format>
        <dc:type
           rdf:resource="http://purl.org/dc/dcmitype/StillImage" />
      </cc:Work>
    </rdf:RDF>
  </metadata>
  <g
     inkscape:label="Calque 1"
     inkscape:groupmode="layer"
     id="layer1">
    <path
       style="fill:#0d5eaf;fill-opacity:1;fill-rule:evenodd;stroke:none;stroke-width:3;stroke-linecap:butt;stroke-linejoin:miter;marker:none;marker-start:none;marker-mid:none;marker-end:none;stroke-miterlimit:4;stroke-dashoffset:0;stroke-opacity:1;visibility:visible;display:inline;overflow:visible;enable-background:accumulate"
       d="M 0,0 L 600,0 L 600,400 L 0,400 L 0,0 z"
       id="rect01" />
    <path
       id="path02"
       d="M 260,160 L 260,0 L 300,0 L 340,0 L 340,160 L 600,160 L 600,200 L 600,240 L 340,240 L 340,400 L 300,400 L 260,400 L 260,240 L 0,240 L 0,200 L 0,160 L 260,160 z"
       style="fill:#ffffff;fill-opacity:1;fill-rule:evenodd;stroke:none;stroke-width:3;stroke-linecap:butt;stroke-linejoin:miter;marker:none;marker-start:none;marker-mid:none;marker-end:none;stroke-miterlimit:4;stroke-dashoffset:0;stroke-opacity:1;visibility:visible;display:inline;overflow:visible;enable-background:accumulate"
       sodipodi:nodetypes="ccccccccccccccccc" />
    <g
       id="g03"
       transform="matrix(0.28,0,0,0.28,149.8157,129.89708)">
      <path
         style="fill:#ed8000"
         inkscape:connector-curvature="0"
         d="M 440.951,191.3586 C 440.951,199.27736 441.94085,200.2672 442.43577,201.75197 C 442.93069,203.23674 443.54935,230.45643 439.46624,237.8813 C 435.38313,245.30616 427.34064,249.51197 424.12365,250.25435 C 420.90665,250.99674 410.76074,243.82036 401.35619,240.85083 C 391.95267,237.8813 392.44759,238.37622 388.48924,238.37622 C 384.53089,238.37622 375.62126,241.71591 373.14665,243.82036 C 371.53815,243.5729 371.16696,242.83052 370.17712,243.82036 C 369.1883,244.81021 365.22789,248.76959 364.23805,251.2442 C 363.24821,253.71881 360.77463,263.12336 357.80406,264.11218 C 354.83453,265.10202 346.79204,273.14348 341.47163,273.51673 C 336.15224,273.88792 337.63598,273.26927 334.04779,273.02181 C 330.46064,272.77435 330.08841,269.06243 326.62396,267.08274 C 323.16053,265.10305 322.16966,263.61829 322.16966,263.61829 C 322.16966,263.61829 321.17981,259.65891 319.69505,259.65891 C 318.21131,259.65891 316.72654,266.58885 316.72654,268.56854 C 316.72654,270.54823 320.68489,277.97206 322.66561,279.4558 C 324.6453,280.94057 324.6453,289.8502 323.65545,292.32378 C 322.66561,294.79839 325.63514,297.27403 326.12903,299.74761 C 326.62396,302.22222 323.16053,304.20088 324.6453,304.69683 C 326.12903,305.19073 328.10976,308.16026 328.10976,311.13082 C 328.10976,314.10036 335.53359,315.0902 337.01836,318.05974 C 338.50312,321.02927 338.99805,325.97849 339.49297,328.94906 C 339.98789,331.91859 341.72012,330.55755 341.96655,337.85766 C 344.31743,338.97123 347.90562,341.32108 350.87515,342.80688 C 353.84468,344.29165 353.35079,347.7561 357.30914,349.24087 C 361.26852,350.72461 361.26852,349.24087 363.24821,349.73476 C 365.22789,350.22968 362.25836,350.72564 365.72282,351.71445 C 369.1883,352.7043 370.67204,351.22056 373.6426,352.7043 C 376.61214,354.18906 378.09691,357.65455 380.07659,358.64439 C 382.05628,359.63424 390.46996,362.10782 390.96488,362.60377 C 391.45981,363.09766 396.90395,365.07838 397.8938,365.07838 C 398.88364,365.07838 401.85317,363.09766 401.85317,363.09766 C 401.85317,363.09766 405.31763,364.08751 408.28716,363.09766 C 411.2567,362.10885 413.23639,359.13829 415.21608,359.13829 C 417.19577,359.13829 417.69069,360.12813 419.67038,360.12813 C 421.65007,360.12813 424.61857,359.13829 424.61857,359.13829 C 424.61857,359.13829 429.07287,358.14844 432.53732,360.12813 C 436.00178,362.10885 443.92054,371.51237 443.92054,375.47175 C 443.92054,379.4301 443.42665,381.41082 443.42665,381.41082 C 443.42665,381.41082 447.38499,380.91487 448.86976,381.90471 C 450.35453,382.89559 450.2308,381.03963 461.24282,382.89559 C 460.50043,380.17248 449.8596,372.50222 459.75805,361.6129 C 469.6565,350.72358 470.27515,355.17891 472.62603,353.20025 C 474.97691,351.21953 484.00924,345.40316 499.35183,350.72461 C 514.1995,348.25103 503.31121,346.27134 511.72489,345.77641 C 513.20966,345.15673 516.05649,345.89911 519.14976,346.76626 C 520.1396,344.90927 522.24302,343.17807 525.58374,343.79569 C 526.2024,342.06347 530.28448,339.71259 534.49131,339.34243 C 535.111,336.00067 545.75183,331.79589 551.81463,331.42264 C 554.28821,329.19549 557.13504,319.29704 570.62167,323.9988 C 571.11556,320.78284 573.34374,315.58512 577.05566,314.59528 C 577.79805,307.91486 575.32137,294.42617 582.00488,289.84917 C 588.6853,283.78637 594.99659,285.14637 606.25608,285.3959 C 613.92737,287.00439 617.63929,292.8187 620.11287,293.31465 C 622.58748,293.80958 623.57732,293.80958 626.54686,291.83092 C 629.51639,289.8502 626.05297,285.89082 628.52655,285.89082 C 631.00116,285.89082 630.01028,286.38574 633.97069,285.89082 C 637.93007,285.39693 637.43515,284.03486 639.90976,283.41724 C 643.87017,285.39796 648.32344,283.91113 650.30313,285.39693 C 652.28385,286.88066 652.53028,286.75693 656.73712,287.37662 C 658.22085,289.8502 662.18023,289.8502 662.18023,289.8502 C 662.18023,289.8502 659.21173,288.86035 660.20157,287.37662 C 661.19142,285.89185 660.20157,281.43652 658.22085,279.45683 C 656.2422,277.47714 655.25235,276.98222 653.76758,275.00356 C 652.28385,273.02387 654.26148,273.02284 651.78686,270.54926 C 649.31328,268.07465 643.86914,265.60004 642.38437,262.6305 C 640.90064,259.66097 641.39453,257.68128 638.91992,255.20667 C 636.44634,252.73206 626.54686,244.31838 626.05297,235.40978 C 625.55908,226.50118 626.54686,217.9648 632.48593,215.11796 C 632.23846,209.92128 633.4768,209.1789 638.91992,206.20936 C 644.36303,203.23983 644.86105,205.21952 648.32344,205.21952 C 651.78686,205.21952 653.76862,205.71444 657.23204,203.24086 C 660.6965,200.76625 657.72696,195.3221 666.63556,187.40335 C 675.5452,179.48459 679.00862,175.52521 681.97919,175.03029 C 684.94872,174.53537 695.71225,166.9878 700.29131,167.60646 C 703.5083,163.77184 706.7253,159.19278 710.68468,156.22324 C 714.64406,153.25371 719.09939,153.25371 721.07805,150.7791 C 723.05773,148.30449 722.56178,143.84916 728.50188,139.88978 C 734.44095,135.93143 739.3912,133.45682 741.86478,131.4761 C 744.33836,129.49641 749.78354,130.98118 751.76323,129.00149 C 753.74292,127.0218 753.74292,119.59796 755.72157,118.1132 C 757.70229,116.62843 749.28862,121.57765 744.83431,123.55734 C 740.38001,125.53703 733.94602,129.00149 728.50188,128.50657 C 723.05773,128.01164 726.02624,131.47507 723.05773,132.46594 C 720.0882,133.45579 715.13898,132.96087 713.15826,134.94055 C 711.17857,136.92024 707.71514,141.86947 704.74561,143.84916 C 701.77505,145.82781 700.29131,145.33392 697.32178,146.81869 C 694.35121,148.30346 691.87763,149.78822 689.40302,150.77807 C 686.92841,151.76791 679.50354,151.27299 679.50354,151.27299 C 679.50354,151.27299 673.06955,159.68667 670.10002,162.6562 C 667.13049,165.62574 663.66603,165.13081 660.6965,166.61558 C 657.72696,168.09932 632.48593,184.43278 615.16468,186.90739 C 597.84137,189.38097 605.76012,185.42263 600.31701,186.90739 C 594.87389,188.39216 586.95308,198.7845 580.52012,199.28045 C 574.08613,199.77537 572.10644,199.28045 570.62167,199.28045 C 569.13691,199.28045 561.21815,204.22967 556.26893,203.23983 C 548.96882,205.46698 543.52571,204.97206 541.42126,204.72357 C 539.31784,204.47714 535.48219,207.19818 530.03805,204.72357 C 525.83121,203.36356 525.83121,206.33206 517.66602,203.73475 C 509.49877,201.13641 503.80716,204.7246 499.84779,202.74491 C 495.88841,200.76522 496.38333,199.28045 493.4138,199.28045 C 490.44426,199.28045 490.44426,201.26014 486.97981,201.26014 C 483.51535,201.26014 483.02043,199.28045 480.05089,199.28045 C 477.08136,199.28045 473.61691,201.26014 469.1626,200.76522 C 464.7083,200.2703 463.22354,198.29061 460.254,198.29061 C 457.28344,198.28761 440.951,191.3586 440.951,191.3586 L 440.951,191.3586 z"
         id="Cyprus" />
    </g>
  </g>
</svg>
