<?xml version="1.0" encoding="UTF-8"?>
<!-- Created with Inkscape (http://www.inkscape.org/) -->
<svg id="svg3031" width="746.85712" height="497.90475" version="1.1" xmlns="http://www.w3.org/2000/svg" xmlns:cc="http://creativecommons.org/ns#" xmlns:dc="http://purl.org/dc/elements/1.1/" xmlns:rdf="http://www.w3.org/1999/02/22-rdf-syntax-ns#">
 <metadata id="metadata3036">
  <rdf:RDF>
   <cc:Work rdf:about="">
    <dc:format>image/svg+xml</dc:format>
    <dc:type rdf:resource="http://purl.org/dc/dcmitype/StillImage"/>
   </cc:Work>
  </rdf:RDF>
 </metadata>
 <g id="layer1" transform="translate(-.85717581 -223.4098)">
  <g id="g6" transform="matrix(2.3051146,0,0,2.3051146,1460.9859,318.7309)">
   <rect id="rect8" x="-633.42999" y="-41.352001" width="324" height="108" fill="#e60004" fill-rule="evenodd"/>
   <rect id="rect10" x="-633.42999" y="66.648003" width="324" height="108" fill="#000000" fill-rule="evenodd"/>
   <g id="g12" transform="translate(.4508602 -.7172241)" fill="#ffffff" font-size="99.06834412px" font-weight="bold">
    <g id="text14">
     <path id="path3069" d="m-468.95584 102.7985v-70.334654h14.31847v58.38647h35.60269v11.948184z"/>
    </g>
    <g id="text18">
     <path id="path3072" d="m-592.76512 102.7985v-70.915133h48.61508v11.996557h-34.29661v16.785506h29.60441v11.996557h-29.60441v30.136513z"/>
    </g>
    <g id="text22">
     <path id="path3075" d="m-536.58582 79.724477 13.93149-1.35445c0.83845 4.676097 2.53957 8.110592 5.10337 10.303494 2.56376 2.192931 6.02244 3.28939 10.37606 3.289379 4.61154 1.1e-5 8.08635-0.975515 10.42443-2.92658 2.33799-1.951037 3.50701-4.232638 3.50705-6.844809-4e-5 -1.676916-0.49184-3.103925-1.47538-4.28103-0.98363-1.177056-2.70088-2.200954-5.15175-3.071699-1.67697-0.58045-5.49845-1.612411-11.46445-3.095886-7.67524-1.902647-13.06078-4.240683-16.15665-7.014116-4.3536-3.902064-6.53039-8.658759-6.53039-14.270098 0-3.611811 1.0239-6.989871 3.0717-10.134189 2.04779-3.144193 4.99855-5.538665 8.8523-7.183422 3.85371-1.644618 8.5056-2.466962 13.95567-2.467034 8.90063 7.2e-5 15.60032 1.951123 20.09907 5.853159 4.49866 3.902168 6.86088 9.110346 7.08668 15.624548l-14.31847 0.628852c-0.61277-3.644062-1.92691-6.264275-3.94242-7.860648-2.01559-1.596256-5.03891-2.394413-9.06998-2.394474-4.16012 6.1e-5 -7.41725 0.854653-9.77139 2.563781-1.51571 1.096516-2.27356 2.563835-2.27354 4.401962-2e-5 1.67699 0.70946 3.112061 2.12843 4.305216 1.8059 1.515742 6.19174 3.095932 13.15751 4.740575 6.9657 1.644732 12.11744 3.345855 15.45524 5.103375 3.3377 1.757597 5.94985 4.160131 7.83646 7.207609 1.8865 3.047541 2.82977 6.812586 2.82984 11.295145-7e-5 4.063367-1.12877 7.868723-3.38613 11.416079-2.25747 3.547375-5.4501 6.183712-9.5779 7.909024-4.12789 1.72531-9.27157 2.58796-15.43105 2.58796-8.96519 0-15.85031-2.07198-20.65536-6.215954-4.80508-4.143963-7.67523-10.182547-8.61044-18.115769z"/>
    </g>
    <g id="text26">
     <path id="path3078" d="m-407.25183 102.7985v-70.915133h13.93149l29.02392 47.357377v-47.357377h13.30264v70.915133h-14.36685l-28.58857-46.244793v46.244793z"/>
    </g>
   </g>
  </g>
 </g>
</svg>
