<!-- Created with Inkscape (http://www.inkscape.org/) -->
<svg xmlns:inkscape="http://www.inkscape.org/namespaces/inkscape" xmlns:rdf="http://www.w3.org/1999/02/22-rdf-syntax-ns#" xmlns="http://www.w3.org/2000/svg" sodipodi:docname="seato.svg" height="200" width="300" version="1.1" xmlns:cc="http://creativecommons.org/ns#" xmlns:dc="http://purl.org/dc/elements/1.1/" inkscape:version="0.48.1 " xmlns:sodipodi="http://sodipodi.sourceforge.net/DTD/sodipodi-0.dtd">
<title>Flag of SEATO</title>
<sodipodi:namedview fit-margin-left="0" inkscape:zoom="1.4142136" borderopacity="1.0" inkscape:current-layer="layer1" inkscape:cx="147.64229" inkscape:cy="48.216223" inkscape:window-maximized="1" showgrid="false" fit-margin-right="0" inkscape:guide-bbox="true" showguides="true" bordercolor="#666666" inkscape:window-x="-9" inkscape:window-y="-9" fit-margin-bottom="0" inkscape:window-width="1280" inkscape:pageopacity="0.0" inkscape:pageshadow="2" pagecolor="#ffffff" inkscape:document-units="px" inkscape:window-height="949" fit-margin-top="0"/>
<metadata>
<rdf:RDF>
<cc:Work rdf:about="">
<dc:format>image/svg+xml</dc:format>
<dc:type rdf:resource="http://purl.org/dc/dcmitype/StillImage"/>
<dc:title>Flag of SEATO</dc:title>
</cc:Work>
</rdf:RDF>
</metadata>
<g inkscape:label="Layer 1" inkscape:groupmode="layer" transform="translate(2.854293,-577.56167)">
<g transform="translate(-802.71429,-386.14289)">
<g transform="translate(84.145707,289.91378)">
<rect transform="translate(802.71429,386.14289)" height="200" width="300" y="287.65" x="-87" fill="#0094ff"/>
<path fill="#FFF" inkscape:connector-curvature="0" d="m799.15,698.15,0,55.625,0,9.25c0,37.025,31.239,73.274,66.562,86.406,35.323-13.132,66.562-49.382,66.562-86.406v-9.25-55.625h-16.562-50-50-16.562z"/>
<g transform="translate(525.30804,-76.724845)">
<path d="m290.83,839.41c0-26.825,21.746-48.571,48.571-48.571v48.571z" inkscape:connector-curvature="0" stroke="#0094ff" stroke-miterlimit="4" stroke-width="1" fill="none"/>
<path d="m302.96,839.41c0-26.825,19.221-48.571,36.45-48.571" sodipodi:nodetypes="cc" inkscape:connector-curvature="0" stroke="#0094ff" stroke-miterlimit="4" stroke-width="1" fill="none"/>
<path d="m316.34,839.41c0-26.825,11.645-48.571,23.065-48.571" sodipodi:nodetypes="cc" inkscape:connector-curvature="0" stroke="#0094ff" stroke-miterlimit="4" stroke-width="1" fill="none"/>
<path stroke-linejoin="miter" d="m294.33,821.42c15.279,4.9245,44.826,5.0508,44.826,5.0508" sodipodi:nodetypes="cc" inkscape:connector-curvature="0" stroke="#0094ff" stroke-linecap="butt" stroke-width="1px" fill="none"/>
<path stroke-linejoin="miter" d="m305.32,805c15.279,4.9245,33.84,5.0508,33.84,5.0508" sodipodi:nodetypes="cc" inkscape:connector-curvature="0" stroke="#0094ff" stroke-linecap="butt" stroke-width="1px" fill="none"/>
<g stroke="#0094ff" transform="matrix(1,0,0,-1,0,1679.0705)" fill="none">
<path d="m290.83,839.41c0-26.825,21.746-48.571,48.571-48.571v48.571" sodipodi:nodetypes="ccc" inkscape:connector-curvature="0" stroke-miterlimit="4" stroke-width="1"/>
<path d="m302.96,839.41c0-26.825,19.221-48.571,36.45-48.571" sodipodi:nodetypes="cc" inkscape:connector-curvature="0" stroke-miterlimit="4" stroke-width="1"/>
<path d="m316.34,839.41c0-26.825,11.645-48.571,23.065-48.571" sodipodi:nodetypes="cc" inkscape:connector-curvature="0" stroke-miterlimit="4" stroke-width="1"/>
<path stroke-linejoin="miter" d="m294.33,821.42c15.279,4.9245,44.826,5.0508,44.826,5.0508" sodipodi:nodetypes="cc" inkscape:connector-curvature="0" stroke-linecap="butt" stroke-width="1px"/>
<path stroke-linejoin="miter" d="m305.32,805c15.279,4.9245,33.84,5.0508,33.84,5.0508" sodipodi:nodetypes="cc" inkscape:connector-curvature="0" stroke-linecap="butt" stroke-width="1px"/>
</g>
<path d="m387.97,839.66c0,26.825-21.746,48.571-48.571,48.571v-48.571z" inkscape:connector-curvature="0" stroke="#0094ff" stroke-miterlimit="4" stroke-width="1" fill="#0094ff"/>
<path d="m375.85,839.66c0,26.825-19.221,48.571-36.45,48.571" sodipodi:nodetypes="cc" inkscape:connector-curvature="0" stroke="#FFF" stroke-miterlimit="4" stroke-width="1" fill="#0094ff"/>
<path d="m362.46,839.66c0,26.825-11.645,48.571-23.065,48.571" sodipodi:nodetypes="cc" inkscape:connector-curvature="0" stroke="#FFF" stroke-miterlimit="4" stroke-width="1" fill="#0094ff"/>
<path stroke-linejoin="miter" d="m384.47,857.65c-15.279-4.9245-44.826-5.0508-44.826-5.0508" sodipodi:nodetypes="cc" inkscape:connector-curvature="0" stroke="#FFF" stroke-linecap="butt" stroke-width="1px" fill="none"/>
<path stroke-linejoin="miter" d="m373.48,874.07c-15.279-4.9245-33.84-5.0508-33.84-5.0508" sodipodi:nodetypes="cc" inkscape:connector-curvature="0" stroke="#FFF" stroke-linecap="butt" stroke-width="1px" fill="none"/>
<g stroke="#0094ff" transform="matrix(-1,0,0,1,678.80237,0)" fill="none">
<path d="m290.83,839.41c0-26.825,21.746-48.571,48.571-48.571v48.571z" inkscape:connector-curvature="0" stroke-miterlimit="4" stroke-width="1"/>
<path d="m302.96,839.41c0-26.825,19.221-48.571,36.45-48.571" sodipodi:nodetypes="cc" inkscape:connector-curvature="0" stroke-miterlimit="4" stroke-width="1"/>
<path d="m316.34,839.41c0-26.825,11.645-48.571,23.065-48.571" sodipodi:nodetypes="cc" inkscape:connector-curvature="0" stroke-miterlimit="4" stroke-width="1"/>
<path stroke-linejoin="miter" d="m294.33,821.42c15.279,4.9245,44.826,5.0508,44.826,5.0508" sodipodi:nodetypes="cc" inkscape:connector-curvature="0" stroke-linecap="butt" stroke-width="1px"/>
<path stroke-linejoin="miter" d="m305.32,805c15.279,4.9245,33.84,5.0508,33.84,5.0508" sodipodi:nodetypes="cc" inkscape:connector-curvature="0" stroke-linecap="butt" stroke-width="1px"/>
</g>
</g>
<path d="m864.65,703.76c-2.3218,2.3218-4.75,10.834-4.75,13.625,0,1.7859,0.87269,3.3514,2.1875,4.25v5.6562c-3.5992-0.67088-4.6206-2.176-7.1562-5.2812v3.5938c0,2.5269,1.8528,7.3271,7.1562,7.9062v7.0312c-3.8097-0.66626-5.8285-2.1627-8.375-5.2812v4.8438c0,1.3854,2.9213,6.0989,8.375,6.6562v6.5625c-3.8658-0.76828-6.1366-2.8761-8.6875-6v6.2188c0,0.97391,3.2008,5.4952,8.6875,6.0312v6.25c-3.8921-0.76828-6.3241-2.8761-8.875-6v6.2188c0,1.7967,3.3689,5.5844,8.875,6.0312v6.6562c-3.9724-0.81407-6.7535-3.2723-9.3125-6.4062v6.2188c0,1.7968,3.7598,5.92,9.3125,6.4062v5.5938c-4.0217-0.813-7.0961-3.271-9.6562-6.4062v6.2188c0,1.7976,4.0635,5.9231,9.6562,6.4062v5.8438c-4.0302-0.813-7.1586-3.271-9.7188-6.4062v6.2188c0,1.7976,4.1194,5.9231,9.7188,6.4062v13.031h0.25,4.75,0.25v-13.031c5.5994-0.48316,9.7188-4.6087,9.7188-6.4062v-6.2188c-2.5601,3.1352-5.6886,5.5932-9.7188,6.4062v-5.8438c5.5928-0.48316,9.6562-4.6087,9.6562-6.4062v-6.2188c-2.5601,3.1352-5.6346,5.5932-9.6562,6.4062v-5.5938c5.5526-0.48622,9.3125-4.6095,9.3125-6.4062v-6.2188c-2.559,3.1339-5.3401,5.5922-9.3125,6.4062v-6.6562c5.5061-0.44688,8.875-4.2346,8.875-6.0312v-6.2188c-2.5509,3.1239-4.9829,5.2317-8.875,6v-6.25c5.4867-0.53606,8.6875-5.0573,8.6875-6.0312v-6.2188c-2.5509,3.1239-4.8216,5.2317-8.6875,6v-6.5625c5.4537-0.55732,8.375-5.2709,8.375-6.6562v-4.8438c-2.5465,3.1186-4.5653,4.615-8.375,5.2812v-7.0312c5.3034-0.57911,7.1562-5.3794,7.1562-7.9062v-3.5938c-2.5356,3.1052-3.557,4.6104-7.1562,5.2812v-5.75c1.2433-0.91122,2.0625-2.4287,2.0625-4.1562,0-2.7906-2.271-11.365-4.75-13.625z" fill="#ffbd00" inkscape:connector-curvature="0"/>
</g>
</g>
</g>
</svg>
