<?xml version="1.0" encoding="UTF-8" standalone="no"?>
<svg
   width="1318"
   height="790.801"
   version="1.1"
   id="svg878"
   sodipodi:docname="Flag_of_UNITA.svg"
   inkscape:version="1.1 (c68e22c387, 2021-05-23)"
   xmlns:inkscape="http://www.inkscape.org/namespaces/inkscape"
   xmlns:sodipodi="http://sodipodi.sourceforge.net/DTD/sodipodi-0.dtd"
   xmlns="http://www.w3.org/2000/svg"
   xmlns:svg="http://www.w3.org/2000/svg">
  <defs
     id="defs882" />
  <sodipodi:namedview
     id="namedview880"
     pagecolor="#ffffff"
     bordercolor="#666666"
     borderopacity="1.0"
     inkscape:pageshadow="2"
     inkscape:pageopacity="0.0"
     inkscape:pagecheckerboard="0"
     showgrid="false"
     inkscape:zoom="0.5"
     inkscape:cx="609"
     inkscape:cy="471"
     inkscape:window-width="1280"
     inkscape:window-height="697"
     inkscape:window-x="-8"
     inkscape:window-y="-8"
     inkscape:window-maximized="1"
     inkscape:current-layer="svg878" />
  <path
     fill="#E12000"
     d="M.915 0H1318v261.77H.915z"
     id="path854" />
  <path
     fill="#259B00"
     d="M.915 261.77H1318v268.177H.915z"
     id="path856" />
  <g
     fill="#e12000"
     stroke-miterlimit="10"
     id="g862"
     style="stroke:none"
     transform="translate(-40)">
    <path
       stroke="#000"
       stroke-width="2.335"
       d="m 1004.922,276.164 1.654,139.735 35.558,-138.069 -17.316,142.482 67.932,-140.217 -56.511,146.272 112.454,-143.768 -99.72,153.125 157.663,-150.532 -146.997,162.198 229.082,-155.719 -220.901,169.233 226.818,-99.241 -221.428,114.099 229.843,-48.648 -227.461,64.268 -5.938,134.594 5.232,-118.806 125.155,38.902 -128.924,-23.556 115.156,62.573 -121.851,-48.258 100.736,83.839 -110.092,-71.109 82.442,101.884 -94.108,-91.215 60.986,116.005 -74.505,-107.823 37.181,125.676 -52.037,-120.287 11.952,130.514 L 999.402,576.184 985.659,706.525 983.615,575.478 944.706,700.633 968.27,571.708 905.691,686.865 953.953,565.014 870.115,665.749 941.221,555.656 839.34,638.1 930.556,543.987 814.55,604.977 922.373,530.474 796.697,567.651 916.982,515.617 786.472,527.562 914.602,499.996 439.037,422.813 915.309,484.208 472.719,317.617 919.075,468.862 587.398,278.355 925.771,454.546 686.994,273.373 935.129,441.816 756.808,271.85 946.793,431.15 838.671,268.723 960.147,426.627 908.729,271.858 l 66.44,145.72 -11.623,-143.266 27.244,140.88 z"
       id="path858"
       style="stroke:none" />
    <ellipse
       stroke="#231F20"
       stroke-width="1.832"
       cx="995.41803"
       cy="493.578"
       rx="98.699997"
       ry="78.377998"
       id="ellipse860"
       style="stroke:none" />
  </g>
  <path
     fill="#e12000"
     stroke="#231F20"
     stroke-width="1.97659"
     stroke-miterlimit="10"
     d="M 262.54625,489.717 H 1267.3563 v 13.278 H 262.54625 Z"
     id="path864"
     style="stroke:none" />
  <path
     fill="#E12000"
     d="M0 523.539h1318v267.262H0z"
     id="path874" />
  <path
     fill="#259B00"
     d="M500.258 502.002H1318v21.537H500.258z"
     id="path876" />
  <g
     id="g13678"
     transform="matrix(0.27174765,0,0,0.27174765,757.10386,335.51539)">
    <path
       id="path10169"
       style="fill:#e12000;fill-opacity:1;stroke:none;stroke-width:1px;stroke-linecap:butt;stroke-linejoin:miter;stroke-opacity:1"
       d="m -111.45312,-143.25586 c -5.81739,0.20508 -8.14063,2.03711 -5.29688,7.50586 3.25,6.25 7.67883,18.01758 1.93359,18.01758 -5.74525,0 -10.78389,0.353 -13.43554,-4.06641 -2.65165,-4.41942 -7.33598,-9.19224 -11.49024,-5.92187 -4.15425,3.27037 -2.03244,5.21511 -4.5957,7.24804 -2.56326,2.03293 -23.28711,-1.02734 -29.16211,7.84766 -5.875,8.875 -9.25,20.25 0.125,29.375 9.375,9.125 28.94904,26.681301 39.73242,29.863281 10.78338,3.181981 11.49024,-2.121093 11.49024,-2.121093 0,0 5.80837,-18.499665 65.230465,-14.496094 0,0 8.131501,-47.375984 2.121094,-56.568364 C -60.811189,-135.76466 -68.25,-130.25 -71.25,-123.75 c -3,6.5 -10.75,8.5 -15.75,1 -5,-7.5 -14,-20.25 -21.75,-20.5 -0.96875,-0.0312 -1.87207,-0.0352 -2.70312,-0.006 z M -57,-31.25 C -72.25,-29.75 -114.5,18 -114.5,18 l 13.75,18.75 c 13.75,18.75 32,15 40.25,12.75 8.25,-2.25 6.25,-30.5 2.75,-47 -3.5,-16.5 0.75,-33.75 0.75,-33.75 z" />
    <path
       id="path2350"
       style="fill:#000000;fill-opacity:1;stroke:#000000;stroke-width:1px;stroke-linecap:butt;stroke-linejoin:miter;stroke-opacity:1"
       d="m -513.25586,-151.38477 c -4.41938,-0.15453 -8.91656,-0.14203 -13.48437,0.0527 -16.86577,0.71916 -34.69093,3.92903 -53.08789,10.44141 -1.23744,2.12131 4.2423,7.24744 3.18164,12.90429 -1.06066,5.65686 -2.11963,9.19325 -15.90821,10.25391 -36.91984,13.88118 -73.36145,26.286439 -81.67187,78.310545 C -621.77704,-118.72321 -470.11992,-126.79873 -444,-23.5 c -29.7436,-28.317183 -113.83369,-77.9399 -152.375,-5.875 21.45201,-8.691627 91.23008,-22.031597 108.61328,27.875 -57.78546,-27.798727 -137.09702,-16.405013 -136.23828,47 23.06204,-11.150652 97.08171,-33.867976 114.5293,3.998047 1.94454,4.949747 -0.53072,7.070312 -5.48047,7.070312 -97.81587,-2.883811 -125.97013,84.601151 -141.24414,205.767581 26.77463,-24.60966 26.50743,-96.49184 61.07031,-109.58594 5.625,-1 7.125,0.875 5.875,5.375 -10.95855,34.04875 -31.43836,62.22216 -15.50391,97.49414 10.00895,-22.13379 11.93495,-70.05977 37.83008,-81.49414 4.77297,-1.76776 7.24923,3.18214 5.30469,7.60156 -5.6611,29.99969 -30.06298,80.20339 -2.88086,116.02344 6.33501,-26.94186 19.48557,-100.58046 45.25,-117.75 3,-0.5 1.5,8.25 0,13.5 -2.82597,11.96107 -25.68091,92.74122 18,135.25 0,0 -3.75,-42.5 -2,-47.75 1.75,-5.25 8.25,-19.25 10.75,-14.5 5.46941,14.11105 0.009,26.98098 11.75,36.25 4.01691,-26.50319 16.69683,-75.23074 47.25,-85.5 2.125,0.375 2.875,3.875 0.375,7.375 -31.04851,50.21212 -46.262,82.08551 -40.375,139.625 5.51309,-4.12988 18.2174,-21.92246 21.5,-21 5.93144,6.21426 -4.79734,27.46648 -7,33.875 60.06437,17.04544 72.74288,-19.47331 116.75977,-53.26953 8.48528,-5.65685 18.38468,-4.68453 19.09179,4.1543 4.16574,13.72037 -46.75846,69.87353 -88.74218,70.09179 0,0 12.72887,11.31329 27.57812,3.88867 14.84924,-7.42462 29.34552,-17.32451 31.11328,-14.49609 1.76777,2.82843 3.53561,4.59701 -0.70703,10.60742 -4.24264,6.0104 -6.71875,7.07031 -6.71875,7.07032 6.71334,4.29653 49.49643,-31.72036 57.62891,-45.25391 8.13176,-13.53235 19.44597,-20.8593 31.46679,-21.56641 12.02081,-0.7071 62.93284,3.8875 70.00391,-39.95312 7.07107,-43.84062 16.26272,-103.94333 25.10156,-104.29688 8.83883,-0.35355 11.6682,1.05926 9.54688,31.46485 -3.86067,41.99482 -8.27497,106.10336 -39.95117,119.85547 -20.15255,8.48527 -68.76731,10.42902 -89.62696,34.82421 -19.18258,22.43387 -35.17762,51.08989 -72.6543,50.73633 -57.87914,-4.31734 -28.25848,18.88328 -12.02148,33.58594 23.97577,20.34734 45.77606,63.07028 12.72852,85.56055 l -11.66797,7.42382 c 0,0 16.82031,-1.80273 15.82031,6.69727 -1,8.5 -9.125,19.375 -26.375,20.875 -17.25,1.5 -14,20.5 -14,20.5 0,0 0.375,-0.875 2.625,-1.625 12.78095,-1.31458 27.23525,4.05047 33.5,-10.75 1.875,-4.75 4.25,-5.375 4.25,-5.375 18.57465,1.9183 30.20317,4.11988 33.625,26.75 9.08118,-12.70314 15.54632,-25.56291 32.625,-9.875 9.56347,-18.4265 28.67877,-17.06014 34.625,-4.125 0,0 10,-13.625 25.875,-9.75 15.875,3.875 38.875,20.375 38.875,20.375 0,0 -8.875,-12.75 -9.625,-18.875 0.94404,-16.21442 -11.0776,-18.78401 -28.25,-14.875 -82.21979,-23.79039 -25.03855,-174.42656 26,-209 154.713113,-102.33077 81.46339,-208.96516 105.7832,-316.912109 3.39339,-53.8951847 33.299514,-75.982776 54.335941,-81.816407 21.036427,-5.833631 24.747933,-3.182522 25.808593,-4.066406 1.060661,-0.883883 -15.908896,-8.838433 -18.560546,-12.904297 -2.651652,-4.065863 -4.774268,-12.019998 3.003906,-16.792969 7.778175,-4.77297 14.850491,-6.894885 15.734375,-12.728515 0,0 -7.689731,-1.326437 -14.230469,1.148437 -6.540738,2.474874 -5.038037,4.773325 -10.076172,5.833985 C -103.95718,-84.493803 -144.49786,-77.330849 -164.75,-34.25 -208.57027,66.136972 -223.8215,211.43655 -359.5,179.5 c 0,0 -1.75,-38.25 6,-64.25 7.75,-26 17.25,-73.75 17.25,-73.75 0,0 -16,3.875 -14.75,-17.25 -2.29728,-29.8816266 4.13768,-82.132168 -30.48438,-99.734375 -3.71231,-1.06066 -9.89062,-3.453125 -11.57812,-10.890625 -5.1769,-22.88997 -53.90272,-62.69182 -120.19336,-65.00977 z m 431.763672,85.394536 a 9.625,9.625 0 0 1 9.625,9.625 9.625,9.625 0 0 1 -9.625,9.625 9.625,9.625 0 0 1 -9.625,-9.625 9.625,9.625 0 0 1 9.625,-9.625 z M -255.91992,394.63477 c 6.09282,4.7e-4 7.38882,9.75772 -4.45508,15.24023 -28.03704,9.18893 -28.60596,59.6393 -49.16016,88.01562 -1.67938,3.0936 -1.76852,4.86319 7.07032,14.93946 8.83883,10.07627 12.99269,21.38952 12.90429,27.13476 -0.26242,8.23348 -11.51348,14.62619 -10.34179,25.2793 7.7516,-9.9083 13.11513,-3.22249 15.55664,6.80469 C -282.75471,581.68316 -296.75,584.5 -311.75,586 c -15,1.5 -26.75,-5.5 -31,-8 -20.98993,-27.02003 37.56855,-118.86095 53.18945,-153.0293 11.28859,-23.35965 30.75977,-29.69726 30.75977,-29.69726 1.04184,-0.43909 2.01046,-0.63874 2.88086,-0.63867 z" />
  </g>
</svg>
