<?xml version="1.0" encoding="UTF-8" standalone="no"?>
<!-- Created with Inkscape (http://www.inkscape.org/) -->
<svg
   xmlns:dc="http://purl.org/dc/elements/1.1/"
   xmlns:cc="http://creativecommons.org/ns#"
   xmlns:rdf="http://www.w3.org/1999/02/22-rdf-syntax-ns#"
   xmlns:svg="http://www.w3.org/2000/svg"
   xmlns="http://www.w3.org/2000/svg"
   xmlns:sodipodi="http://sodipodi.sourceforge.net/DTD/sodipodi-0.dtd"
   xmlns:inkscape="http://www.inkscape.org/namespaces/inkscape"
   id="svg2457"
   sodipodi:version="0.32"
   inkscape:version="0.46"
   width="1059.2593"
   height="800"
   version="1.0"
   sodipodi:docname="Jaishi-e-Mohammed.svg"
   inkscape:output_extension="org.inkscape.output.svg.inkscape">
  <metadata
     id="metadata2462">
    <rdf:RDF>
      <cc:Work
         rdf:about="">
        <dc:format>image/svg+xml</dc:format>
        <dc:type
           rdf:resource="http://purl.org/dc/dcmitype/StillImage" />
      </cc:Work>
    </rdf:RDF>
  </metadata>
  <defs
     id="defs2460">
    <inkscape:perspective
       sodipodi:type="inkscape:persp3d"
       inkscape:vp_x="0 : 526.18109 : 1"
       inkscape:vp_y="0 : 1000 : 0"
       inkscape:vp_z="744.09448 : 526.18109 : 1"
       inkscape:persp3d-origin="372.04724 : 350.78739 : 1"
       id="perspective2464" />
  </defs>
  <sodipodi:namedview
     inkscape:window-height="744"
     inkscape:window-width="1280"
     inkscape:pageshadow="2"
     inkscape:pageopacity="0.0"
     guidetolerance="10.0"
     gridtolerance="10.0"
     objecttolerance="10.0"
     borderopacity="1.0"
     bordercolor="#666666"
     pagecolor="#ffffff"
     id="base"
     showgrid="false"
     inkscape:zoom="0.40454667"
     inkscape:cx="115.41392"
     inkscape:cy="267.30497"
     inkscape:window-x="-4"
     inkscape:window-y="-4"
     inkscape:current-layer="svg2457"
     showguides="true"
     inkscape:guide-bbox="true" />
  <rect
     style="fill:#ffffff;fill-opacity:1;stroke:none;stroke-width:0.48100001;stroke-miterlimit:4;stroke-dasharray:none;stroke-opacity:1"
     id="rect3292"
     width="1059.2593"
     height="800"
     x="0"
     y="0" />
  <path
     sodipodi:type="arc"
     style="fill:#000000;fill-opacity:1;stroke:none;stroke-width:0.48100001;stroke-miterlimit:4;stroke-dasharray:none;stroke-opacity:1"
     id="path3294"
     sodipodi:cx="177.9614"
     sodipodi:cy="107.17279"
     sodipodi:rx="38.641544"
     sodipodi:ry="39.430145"
     d="M 216.60294,107.17279 A 38.641544,39.430145 0 1 1 139.31985,107.17279 A 38.641544,39.430145 0 1 1 216.60294,107.17279 z"
     transform="matrix(3.6533315,0,0,3.5802471,12.859372,18.09912)" />
  <path
     style="fill:#ffffff;fill-opacity:1;fill-rule:evenodd;stroke:#ffffff;stroke-width:3.70370364px;stroke-linecap:butt;stroke-linejoin:miter;stroke-opacity:1"
     d="M 632.11637,289.9663 C 625.64778,302.4604 613.72331,300.84809 613.31111,301.75695 C 611.93316,304.79534 613.75078,375.69578 614.0417,404.72018 C 614.21297,428.38896 613.66148,452.16296 614.53466,475.76548 C 617.81256,487.60937 628.24367,500.38444 641.73771,498.50722 C 656.62297,494.80007 661.0913,475.95504 676.15741,472.56944 C 686.09333,479.12026 678.19645,495.06696 688.92415,500.84578 C 701.02564,497.57285 706.16112,484.90985 713.54312,476.06215 C 724.33052,459.54141 735.52986,442.88459 741.66668,423.95833 C 742.1913,415.70307 752.75818,406.60744 744.23907,399.04578 C 735.38819,389.18441 712.63286,389.90655 709.06275,391.6887 C 700.83704,394.86866 687.87292,396.50363 692.11646,382.74307 C 700.31733,374.44652 710.2186,366.67958 717.29597,356.62422 C 725.64755,346.15647 732.73741,334.50699 737.84127,322.19441 C 740.58618,314.37009 730.92667,308.65799 727.90846,317.71554 C 711.892,336.87021 695.67186,355.8714 678.59889,374.09811 C 674.23782,382.72144 673.52437,396.31137 683.66833,401.14633 C 688.35586,403.77674 693.46705,404.97533 698.70319,405.63133 C 701.32126,405.95933 708.35197,406.00426 710.99496,405.83278 C 721.36638,405.15981 730.72059,404.52092 727.95471,411.75152 C 725.07019,425.46078 704.37094,474.37841 695.57423,472.67674 C 692.16622,463.10615 687.96831,450.35711 676.38826,448.70941 C 664.364,448.26396 658.22941,460.06518 651.92172,468.28226 C 645.95505,478.349 631.59181,473.17544 631.7153,461.94255 C 631.05452,449.04192 632.54645,436.06626 631.2689,423.14922 C 629.82227,399.56274 631.11008,375.90889 630.551,352.2918 C 630.66404,333.11062 630.1676,313.83475 631.66622,294.72314 C 632.07067,292.853 631.39445,291.7396 632.11637,289.9663 z"
     id="path2468"
     sodipodi:nodetypes="cscccccccccccccccssccccccccc" />
  <path
     style="fill:#ffffff;fill-opacity:1;fill-rule:evenodd;stroke:#ffffff;stroke-width:3.70370364px;stroke-linecap:butt;stroke-linejoin:miter;stroke-opacity:1"
     d="M 599.00859,411.49737 C 594.95675,401.71563 583.89886,394.9 573.30863,396.64059 C 566.94585,398.02229 561.8186,405.90081 565.56567,411.926 C 569.15037,417.78278 576.6433,419.38437 580.61263,424.89589 C 585.34219,430.03589 591.79027,435.00133 592.21641,442.55011 C 592.0509,447.68718 592.1803,453.09285 590.20307,457.91804 C 587.4773,462.27418 585.87197,467.21711 582.99296,471.47278 C 580.03145,475.52292 574.2063,478.30329 574.84449,484.18055 C 575.0136,488.88015 580.71026,489.88015 584.1659,488.06526 C 590.39353,485.10948 596.33274,481.327 601.36486,476.59348 C 606.59852,471.62181 607.8763,464.21048 610.69492,457.85555 C 611.64308,452.46322 611.65516,446.91133 611.30223,441.46804 C 610.50756,434.46844 606.76419,428.37011 604.67734,421.75441 C 603.28459,418.09589 601.58259,414.48526 599.00859,411.49737 z"
     id="path3276" />
  <path
     style="fill:#ffffff;fill-opacity:1;fill-rule:evenodd;stroke:#ffffff;stroke-width:3.70370364px;stroke-linecap:butt;stroke-linejoin:miter;stroke-opacity:1"
     d="M 770.35063,340.81867 C 767.02489,344.2648 765.93486,346.50481 761.15048,347.39874 C 756.06071,351.91622 759.63389,359.69773 758.75467,365.63226 C 758.47578,373.87026 758.4833,399.91859 757.86704,406.11289 C 758.26956,413.33541 753.32212,451.73866 749.2526,463.98959 C 745.31627,475.83955 743.83311,485.15581 742.01786,484.80603 C 739.99489,484.41622 742.66159,487.78866 744.87885,484.70007 C 749.10633,480.56785 764.42116,442.45318 763.80716,436.48355 C 767.14923,431.0897 768.84771,408.03826 769.65252,402.26174 C 771.46594,396.68707 771.14692,343.25017 770.35063,340.81867 z"
     id="path3287"
     sodipodi:nodetypes="ccccsscccc" />
  <path
     sodipodi:type="arc"
     style="fill:#ffffff;fill-opacity:1;stroke:#ffffff;stroke-width:0.48100001;stroke-miterlimit:4;stroke-dasharray:none;stroke-opacity:1"
     id="path3290"
     sodipodi:cx="195.44209"
     sodipodi:cy="131.88235"
     sodipodi:rx="2.6286764"
     sodipodi:ry="3.1544118"
     d="M 198.07077,131.88235 A 2.6286764,3.1544118 0 1 1 192.81342,131.88235 A 2.6286764,3.1544118 0 1 1 198.07077,131.88235 z"
     transform="matrix(4.41471,0,0,3.6789252,-137.98668,4.24112)" />
  <rect
     style="fill:#000000;fill-opacity:1;stroke:none;stroke-width:0.48100001;stroke-miterlimit:4;stroke-dasharray:none;stroke-opacity:1"
     id="rect3304"
     width="40.094959"
     height="800"
     x="201.32043"
     y="0" />
  <rect
     style="fill:#000000;fill-opacity:1;stroke:none;stroke-width:0.48100001;stroke-miterlimit:4;stroke-dasharray:none;stroke-opacity:1"
     id="rect3306"
     width="40.094959"
     height="800"
     x="121.13052"
     y="0" />
  <rect
     style="fill:#000000;fill-opacity:1;stroke:none;stroke-width:0.48100001;stroke-miterlimit:4;stroke-dasharray:none;stroke-opacity:1"
     id="rect3310"
     width="40.094959"
     height="800"
     x="40.94062"
     y="0" />
</svg>
