<?xml version="1.0" encoding="UTF-8"?>
<svg width="900" height="600" version="1.1" xmlns="http://www.w3.org/2000/svg">
 <g stroke-linecap="round" stroke-miterlimit="10">
  <path d="M 0,600 900,0 H 0 Z" fill="#009367"/>
  <path d="m900 0-900 600h900z" fill="#009ada"/>
  <path d="M 629.59,0 0,419.72 V 600 H 270.41 L 900,180.28 V 0 Z" fill="#f49800"/>
 </g>
 <path d="m639.52 303.49c0 34.799-28.211 63.012-63.012 63.012s-63.008-28.211-63.008-63.012 28.208-63.012 63.008-63.012c34.799 0 63.012 28.211 63.012 63.012" fill="#f49800" stroke-width="1.1845"/>
 <path d="m577.3 239.59v126.74m-64.077-64.035h126.48" fill="none" stroke="#fff" stroke-width="3.7793"/>
 <path d="m509.71 303.49c0 34.799-28.211 63.012-63.012 63.012-34.796 0-63.008-28.211-63.008-63.012s28.211-63.012 63.008-63.012c34.799 0 63.012 28.211 63.012 63.012" fill="#f49800" stroke-width="1.1845"/>
 <path d="m383.42 304.29h126.48m118.58-44.645c0 14.521-22.206 26.296-49.593 26.296-27.389 0-49.595-11.775-49.595-26.296 0-14.524 22.206-26.296 49.595-26.296 27.386 0 49.593 11.772 49.593 26.296zm-19.348-17.033c0 8.2782-13.966 14.99-31.197 14.99-17.234 0-31.201-6.7115-31.201-14.99 0-8.2748 13.966-14.983 31.201-14.983 17.231 0 31.197 6.7081 31.197 14.983zm19.348 105.32c0-14.524-22.206-26.299-49.593-26.299-27.389 0-49.595 11.775-49.595 26.299 0 14.521 22.206 26.292 49.595 26.292 27.386 0 49.593-11.772 49.593-26.292zm-19.348 17.03c0-8.2782-13.966-14.986-31.197-14.986-17.234 0-31.201 6.7078-31.201 14.986 0 8.2748 13.966 14.983 31.201 14.983 17.231 0 31.197-6.7081 31.197-14.983z" fill="none" stroke="#fff" stroke-width="3.7793"/>
 <path d="m385.59 305.38c0 34.799-28.209 63.012-63.012 63.012-34.796 0-63.008-28.211-63.008-63.012 0-34.799 28.211-63.012 63.008-63.012 34.803 0 63.012 28.211 63.012 63.012" fill="#f49800" stroke-width="1.1845"/>
 <path d="m323.37 241.47v126.74m-64.077-64.035h126.48m-11.214-42.644c0 14.521-22.206 26.296-49.595 26.296-27.386 0-49.591-11.775-49.591-26.296 0-14.524 22.206-26.296 49.591-26.296 27.39 0 49.595 11.772 49.595 26.296zm-19.348-17.033c0 8.2782-13.966 14.99-31.201 14.99-17.231 0-31.197-6.7115-31.197-14.99 0-8.2746 13.966-14.986 31.197-14.986 17.234 0 31.201 6.7115 31.201 14.986zm19.348 105.32c0-14.524-22.206-26.299-49.595-26.299-27.386 0-49.591 11.775-49.591 26.299 0 14.521 22.206 26.292 49.591 26.292 27.39 0 49.595-11.772 49.595-26.292zm-19.348 17.03c0-8.2782-13.966-14.986-31.201-14.986-17.231 0-31.197 6.7081-31.197 14.986 0 8.2748 13.966 14.983 31.197 14.983 17.234 0 31.201-6.7078 31.201-14.983zm137.05-63.005c0 34.603-45.784 62.655-45.784 62.655s-45.788-28.053-45.788-62.655c0-34.598 45.788-62.648 45.788-62.648s45.784 28.05 45.784 62.648zm-24.782-0.31043c0 34.772-19.217 62.966-19.217 62.966s-19.221-28.193-19.221-62.966c0-34.778 19.221-62.969 19.221-62.969s19.217 28.191 19.217 62.969z" fill="none" stroke="#fff" stroke-width="3.7793"/>
 <path d="m364.62 258.43c-10.914-9.0688-24.944-14.524-40.245-14.524-34.799 0-63.012 28.211-63.012 63.012s28.211 63.012 63.012 63.012c16.09 0 30.491-5.893 41.628-15.819l0.16938-0.14556s-11.341-23.942-11.553-48.728c-0.21172-25.05 10-46.808 10-46.808m211.3-16.204c-33.836 0-61.268 27.428-61.268 61.265 0 33.844 27.432 61.272 61.268 61.272 33.84 0 61.268-27.428 61.268-61.272 0-33.836-27.428-61.265-61.268-61.265m-83.242 16.578s-15.544-13.613-44.108-14.874c-35.671-1.5736-60.658 25.724-60.658 59.564s27.432 61.268 61.268 61.268c11.952 0 24.827-1.0798 34.257-6.994 0 0-1.5879-16.771-2.5232-27.305-1.6761-18.903 0.0529-38.332 0.96333-42.047 3.7369-15.22 8.183-23.572 10.801-29.612m0 0.24613c1.0515-1.2597 1.7112-2.3149 2.3747-3.4616 8.0207-13.758 22.136-31.042 43.064-40.011 30.752-13.176 62.386-7.5479 86.043 5.667 28.564 15.964 44.525 47.892 47.207 75.14 3.0488 31.003-7.3007 53.824-22.004 71.036-18.586 21.762-43.675 29.168-68.051 29.415-31.296 0.31415-50.827-9.4534-65.951-20.794v84.226h-31.084v-68.474c-15.544 8.4019-33.082 8.2994-44.108 7.5618-25.205-1.6795-38.646-12.601-52.087-21.842 0 0-18.269 14.817-38.647 20.163-25.625 6.7222-57.267 8.1157-88.641-20.332-37.803-34.277-48.254-98.799-2.0961-140.14 28.145-25.201 84.646-40.746 126.02-2.5194 0 0 0.32473-3.031 0.21172-14.284-0.20907-20.801-17.026-41.473-42.848-44.105-30.873-3.1512-54.186 9.4496-72.462 23.313v-35.919c15.751-13.232 51.039-24.574 73.093-23.942 22.054 0.62813 44.736 11.973 57.969 25.834 16.331 17.107 18.903 49.147 18.903 49.147 20.794-9.4496 62.588-1.8912 80.232 9.8733l-14.28 26.885" fill="#fff" stroke-width="1.1845"/>
 <path d="m364.62 258.43c-10.914-9.0688-24.944-14.524-40.245-14.524-34.799 0-63.012 28.211-63.012 63.012s28.211 63.012 63.012 63.012c16.09 0 30.491-5.893 41.628-15.819l0.16938-0.14556s-11.341-23.942-11.553-48.728c-0.21172-25.05 10-46.808 10-46.808zm211.3-16.204c-33.836 0-61.268 27.428-61.268 61.265 0 33.844 27.432 61.272 61.268 61.272 33.84 0 61.268-27.428 61.268-61.272 0-33.836-27.428-61.265-61.268-61.265zm-83.242 16.578s-15.544-13.613-44.108-14.874c-35.671-1.5736-60.658 25.724-60.658 59.564s27.432 61.268 61.268 61.268c11.952 0 24.827-1.0798 34.257-6.9939 0 0-1.5879-16.771-2.5232-27.305-1.6761-18.903 0.0529-38.332 0.96333-42.047 2.3153-10.339 6.7068-20.257 10.801-29.612zm2.1e-4 -1e-3c8.0207-13.758 24.511-34.256 45.439-43.225 30.752-13.176 62.386-7.5479 86.043 5.667 28.564 15.964 44.525 47.892 47.207 75.14 3.0488 31.003-7.3007 53.824-22.004 71.036-18.586 21.762-43.675 29.168-68.051 29.415-31.296 0.31414-50.827-9.4534-65.951-20.794v84.226h-31.084v-68.474c-15.544 8.4019-33.082 8.2994-44.108 7.5618-25.205-1.6795-38.646-12.601-52.087-21.842 0 0-18.269 14.817-38.647 20.163-25.625 6.7222-57.267 8.1158-88.641-20.332-37.803-34.277-48.254-98.799-2.0961-140.14 28.145-25.201 84.646-40.746 126.02-2.5194 0 0 0.32473-3.031 0.21173-14.284-0.20907-20.801-17.026-41.473-42.848-44.105-30.873-3.1512-54.186 9.4496-72.462 23.313v-35.919c15.751-13.232 51.039-24.574 73.093-23.942 22.054 0.62811 44.736 11.973 57.969 25.834 16.331 17.107 18.903 49.147 18.903 49.147 20.794-9.4496 62.588-1.8912 80.232 9.8733l-14.28 26.885" fill="none" stroke="#000" stroke-width="6.3022"/>
</svg>
