<svg clip-rule="evenodd" fill-rule="evenodd" height="900" image-rendering="optimizeQuality" shape-rendering="geometricPrecision" text-rendering="geometricPrecision" viewBox="0 0 1500 900" width="1500" xmlns="http://www.w3.org/2000/svg"><path d="m0 900h1500v-900h-1500z" fill="#bf0a30"/><g fill="#fff"><path d="m0 840.001h1500v-59.997h-1500z"/><path d="m0 720.035h1500v-59.998h-1500z"/><path d="m0 600.004h1500v-59.999h-1500z"/><path d="m0 480.006h1500v-60h-1500z"/><path d="m0 360.007h1500v-60h-1500z"/><path d="m0 240.011h1500v-60.002h-1500z"/><path d="m0 120.011h1500v-60.0004h-1500z"/></g><path d="m0 479.969h600.001v-479.969h-600.001z" fill="#002868"/><g fill="#fff"><path d="m350.003 141.707 6.264 19.278h20.27l-16.4 11.914 6.263 19.284-16.397-11.917-16.399 11.917 6.262-19.284-16.397-11.914h20.268z"/><path d="m350.003 287.784 6.264 19.279h20.27l-16.4 11.914 6.263 19.281-16.397-11.917-16.399 11.917 6.262-19.281-16.397-11.914h20.268z"/><path d="m550.002 141.707 6.263 19.278h20.27l-16.397 11.914 6.262 19.284-16.398-11.917-16.4 11.917 6.262-19.284-16.397-11.914h20.27z"/><path d="m550.002 287.784 6.263 19.279h20.27l-16.397 11.914 6.262 19.281-16.398-11.917-16.4 11.917 6.262-19.281-16.397-11.914h20.27z"/><path d="m550.002 141.707 6.263 19.278h20.27l-16.397 11.914 6.262 19.284-16.398-11.917-16.4 11.917 6.262-19.284-16.397-11.914h20.27z"/><path d="m550.002 287.784 6.263 19.279h20.27l-16.397 11.914 6.262 19.281-16.398-11.917-16.4 11.917 6.262-19.281-16.397-11.914h20.27z"/><path d="m150 141.707 6.265 19.278h20.27l-16.398 11.914 6.263 19.284-16.4-11.917-16.397 11.917 6.262-19.284-16.398-11.914h20.27z"/><path d="m150 287.784 6.265 19.279h20.27l-16.398 11.914 6.263 19.281-16.4-11.917-16.397 11.917 6.262-19.281-16.398-11.914h20.27z"/><path d="m450.002 68.6705 6.264 19.2779h20.27l-16.399 11.9138 6.263 19.2838-16.398-11.917-16.399 11.917 6.262-19.2838-16.397-11.9138h20.27z"/><path d="m450.002 214.747 6.264 19.279h20.27l-16.399 11.914 6.263 19.281-16.398-11.917-16.399 11.917 6.262-19.281-16.397-11.914h20.27z"/><path d="m450.002 360.823 6.264 19.278h20.27l-16.399 11.914 6.263 19.284-16.398-11.918-16.399 11.918 6.262-19.284-16.397-11.914h20.27z"/><path d="m249.999 68.6705 6.266 19.2779h20.269l-16.397 11.9138 6.262 19.2838-16.4-11.917-16.397 11.917 6.263-19.2838-16.399-11.9138h20.27z"/><path d="m249.999 214.747 6.266 19.279h20.269l-16.397 11.914 6.262 19.281-16.4-11.917-16.397 11.917 6.263-19.281-16.399-11.914h20.27z"/><path d="m249.999 360.823 6.266 19.278h20.269l-16.397 11.914 6.262 19.284-16.4-11.918-16.397 11.918 6.263-19.284-16.399-11.914h20.27z"/><path d="m50.0008 68.6705 6.2646 19.2779h20.27l-16.3972 11.9138 6.2622 19.2838-16.3996-11.917-16.3984 11.917 6.2622-19.2838-16.3973-11.9138h20.2701z"/><path d="m50.0008 214.747 6.2646 19.279h20.27l-16.3972 11.914 6.2622 19.281-16.3996-11.917-16.3984 11.917 6.2622-19.281-16.3973-11.914h20.2701z"/><path d="m50.0008 360.823 6.2646 19.278h20.27l-16.3972 11.914 6.2622 19.284-16.3996-11.918-16.3984 11.918 6.2622-19.284-16.3973-11.914h20.2701z"/></g></svg>