<?xml version="1.0" encoding="UTF-8"?>
<svg id="svg1192" width="3e3" height="1500" clip-rule="evenodd" fill-rule="evenodd" stroke-linejoin="round" stroke-miterlimit="2" version="1.1" viewBox="0 0 3e3 1500" xml:space="preserve" xmlns="http://www.w3.org/2000/svg">
    <rect id="rect1322" width="3e3" height="1500" fill="#000000" fill-rule="evenodd" stroke-width="15.9214"/><g id="g1190" transform="matrix(1.0164987,0,0,1.0164987,203.96196,-927.22282)" fill="#ffffff">
        <g id="g1188" transform="scale(4.16667)" fill="#ffffff">
            <g id="path8" transform="matrix(1.1137,0,0,1.1137,30.0811,292.704)">
                <path id="path1011" d="m8.25 58.25c0-0.17 0.75-1.17 2.25-3 3-3.67 4.5-5.83 4.5-6.5 0-1.33-0.58-2-1.75-2-0.5 0-0.96 0.08-1.37 0.25-0.42 0.17-0.71 0.33-0.88 0.5l-0.25 0.25-0.25-0.25c0.33-1.5 0.92-2.75 1.75-3.75s1.67-1.5 2.5-1.5c1.83 0 2.75 1.17 2.75 3.5 0 2.83-1.58 5.83-4.75 9-2.33 2.33-3.83 3.5-4.5 3.5z" fill="#ffffff"/>
            </g>
            <g id="path9" transform="matrix(1.1137,0,0,1.1137,30.0811,292.704)">
                <path id="path1014" d="m272.5 49.25c-1.5 0-2.25-1.25-2.25-3.75 0-1.33 0.25-2.87 0.75-4.62s1-3.21 1.5-4.38 0.92-1.83 1.25-2l-0.75 3c-1 3.17-1.5 5.17-1.5 6 0 1.83 0.58 2.75 1.75 2.75 0.5 0 1.17-0.75 2-2.25l0.25-0.25v0.5c-0.67 3.33-1.67 5-3 5z" fill="#ffffff"/>
            </g>
            <g id="path10" transform="matrix(1.1137,0,0,1.1137,30.0811,292.704)">
                <path id="path1017" d="m165.75 50.75c-1.67 0-2.5-1.42-2.5-4.25 0-1.67 0.29-3.5 0.88-5.5 0.58-2 1.16-3.71 1.75-5.12 0.58-1.42 1.04-2.13 1.37-2.13l-1 3.5c-1 3.5-1.5 5.75-1.5 6.75 0 2.17 0.58 3.25 1.75 3.25 0.83 0 1.67-0.83 2.5-2.5l0.25-0.25v0.25c-0.67 4-1.83 6-3.5 6z" fill="#ffffff"/>
            </g>
            <g id="path11" transform="matrix(1.1137,0,0,1.1137,30.0811,292.704)">
                <path id="path1020" d="m200 138.25c-2.17 0-3.25-1.83-3.25-5.5 0-2 0.38-4.21 1.13-6.62 0.75-2.42 1.5-4.55 2.25-6.38s1.29-2.75 1.62-2.75l-1 4.5c-1.33 4.33-2 7.08-2 8.25 0 2.83 0.75 4.25 2.25 4.25 0.83 0 1.83-1.08 3-3.25l0.5-0.5v0.5c-1 5-2.5 7.5-4.5 7.5z" fill="#ffffff"/>
            </g>
            <g id="path12" transform="matrix(1.1137,0,0,1.1137,30.0811,292.704)">
                <path id="path1023" d="m56.25 141.5c-1.33 0-2-1.25-2-3.75 0-1.33 0.25-2.87 0.75-4.62s1-3.21 1.5-4.38 0.92-1.83 1.25-2l-1 3c-0.83 3.17-1.25 5.17-1.25 6 0 1.83 0.5 2.75 1.5 2.75 0.67 0 1.42-0.75 2.25-2.25l0.25-0.25v0.5c-0.67 3.33-1.75 5-3.25 5z" fill="#ffffff"/>
            </g>
            <g id="path13" transform="matrix(1.1137,0,0,1.1137,30.0811,292.704)">
                <path id="path1026" d="m418 133.5c0-0.33 0.75-1.42 2.25-3.25 2.67-3.17 4-5.08 4-5.75 0-1.17-0.58-1.75-1.75-1.75-0.33 0-0.71 0.08-1.12 0.25-0.42 0.17-0.71 0.29-0.88 0.38-0.17 0.08-0.33 0.12-0.5 0.12v-0.25c0.33-1.5 0.88-2.67 1.63-3.5s1.54-1.25 2.37-1.25c1.67 0 2.5 1.08 2.5 3.25 0 2.67-1.42 5.5-4.25 8.5-2.17 2.17-3.58 3.25-4.25 3.25z" fill="#ffffff"/>
            </g>
            <g id="path17" transform="matrix(1.1137,0,0,1.1137,30.0811,292.704)">
                <path id="path1029" d="m440.75 180.5h-1c-0.5 0-0.75-0.08-0.75-0.25 0-0.67 9.92-7.17 29.75-19.5 4.17-2.83 8.33-6.75 12.5-11.75 5.67-6.33 8.5-11.75 8.5-16.25 0-9-1.71-28.54-5.12-58.62-3.42-30.09-5.13-47.13-5.13-51.13 0-1.83-0.42-4-1.25-6.5l-1.25-4.25c0-0.5 0.46-2.29 1.38-5.37 0.91-3.09 1.5-4.92 1.75-5.5 0.25-0.59 0.45-0.88 0.62-0.88 0.5 0 0.83 0.33 1 1 1 1.83 2.92 5.83 5.75 12l1.75 4c2 5 3.42 9.08 4.25 12.25 0 0.67-0.17 1-0.5 1-0.83 0-2.58-1.58-5.25-4.75l-0.25-0.25c-0.17 0-0.25 0.5-0.25 1.5 0 4 1.38 18.54 4.13 43.63 2.75 25.08 4.12 41.2 4.12 48.37 0 14.83-3.33 27.25-10 37.25-5 7.67-10.83 13.08-17.5 16.25-2.5 1.5-6.92 3-13.25 4.5-6.5 2-11.17 3.08-14 3.25z" fill="#ffffff"/>
            </g>
            <g id="path18" transform="matrix(1.1137,0,0,1.1137,30.0811,292.704)">
                <path id="path1032" d="m481.36 138c-0.48 0-1.11-3.58-1.9-10.75-1.58-11.67-9-25.08-22.27-40.25-15-16.67-26.37-29.92-34.1-39.75-7.74-9.83-13.98-19.25-18.72-28.25-0.79-1.17-1.5-2.04-2.13-2.62-0.63-0.59-1.14-1.13-1.54-1.63-0.39-0.5-0.59-1.08-0.59-1.75v-9.5c0-2 0.31-3 0.95-3 0.47 0 1.18 0.42 2.13 1.25l15.63 14c1.11 1.17 1.66 2 1.66 2.5s-0.4 0.75-1.18 0.75c-1.43 0-3.64-0.42-6.64-1.25 1.9 3.5 18.16 23.33 48.8 59.5 14.53 17.17 21.79 31.92 21.79 44.25 0 4.5-0.28 8.38-0.83 11.63s-0.91 4.87-1.06 4.87z" fill="#ffffff"/>
            </g>
            <g id="path20" transform="matrix(1.1137,0,0,1.1137,30.0811,292.704)">
                <path id="path1035" d="m359.37 136.05c-0.31 0-0.93-3.81-1.87-11.43-1.56-12.52-8.99-26.76-22.27-42.73l-17.11-20.69c-6.72-8.34-11.72-15.24-15-20.68-2.66-4.54-6.18-11.25-10.55-20.14-0.78-1.09-1.57-2-2.35-2.73-1.25-1.27-1.87-2.54-1.87-3.81v-10.34c0-2 0.31-2.99 0.94-2.99 0.31 0 1.01 0.54 2.11 1.63l15.47 14.7c1.09 1.27 1.64 2.17 1.64 2.72 0 0.36-0.47 0.54-1.41 0.54-1.25 0-3.36-0.36-6.33-1.09 2.81 6.17 13.99 21.33 33.52 45.46l5.39 6.8c14.38 18.33 21.57 34.12 21.57 47.36v3.54c-0.94 9.26-1.56 13.88-1.88 13.88z" fill="#ffffff"/>
            </g>
            <g id="path0" transform="matrix(.24 0 0 .24 -19.128 -73.1908)">
                <path id="path1038" d="m1471.87 2371.44c-20.09 0-44.46-5.01-73.09-15.08-40.97-13.92-73.27-32.3-96.84-55.08-23.62-22.83-40.84-50.12-51.65-81.81-6.17-19.35-13.92-51.42-23.2-96.29 0 26.31-3.11 44.45-9.28 54.52-30.17 44.09-68.82 83.53-116.01 118.33-50.26 37.91-92.81 56.85-127.614 56.85-20.882 0-36.752-8.91-47.564-26.68-10.07-14.71-15.081-32.49-15.081-53.37 0-43.3 9.28-86.22 27.842-128.77 3.852-9.28 6.589-13.92 8.121-13.92l1.16 3.48-2.32 12.76c-12.39 43.29-18.562 75.41-18.562 96.29 0 16.24 4.826 28.63 14.524 37.12 9.653 8.49 21.439 12.76 35.36 12.76 37.914 0 87.004-23.99 147.334-71.93 55.68-44.87 86.64-80.04 92.81-105.56-3.85-34.81-18.56-87.01-44.09-156.62-23.2-64.17-35.17-96.29-35.96-96.29 0-11.6 3.48-27.84 10.44-48.72 0.79-2.32 1.53-3.48 2.32-3.48 6.96 0 19.72 20.88 38.29 62.64 18.56 37.92 31.69 75.78 39.44 113.7l4.64 20.88c6.17 36.33 13.13 73.08 20.88 110.21 7.75 37.12 20.88 71.55 39.44 103.24 17.04 27.85 42.14 47.94 75.41 60.33 0-45.61 11.97-75.41 35.96-89.33 19.35-12.39 54.16-28.21 104.41-47.56-156.24 0-235.5-0.37-237.82-1.16-0.79-1.53-1.16-5.01-1.16-10.44 5.43-66.5 75.41-133.04 209.98-199.54l-16.24-31.32c-3.11-6.96-4.64-15.08-4.64-24.36 0-16.25 4.27-29.38 12.76-39.45 9.28-13.13 22.83-19.72 40.6-19.72 14.71 0 35.97 9.47 63.81 28.45 27.84 18.93 41.76 34.57 41.76 46.96-4.64 17.77-9.65 34.01-15.08 48.72l-83.53 25.52v16.24c0 7.75-1.94 11.61-5.8 11.61-3.85 0-7.33-6.96-10.44-20.89-25.52 9.28-56.84 25.71-93.96 49.33-37.13 23.57-64.18 44.27-81.21 62.04 21.67 1.54 52.99 2.32 93.97 2.32 49.51 0 111.37-1.16 185.61-3.48 47.94-2.32 79.26-3.48 93.97-3.48h11.6c1.53 0 2.69 0.37 3.48 1.16 0 3.11-5.43 17.78-16.24 44.09-0.79 4.64-3.85 7.75-9.28 9.28-202.65 64.18-303.95 104.04-303.95 119.49 0 11.6 30.95 31.69 92.81 60.32 2.32 1.53 3.48 3.48 3.48 5.8 0 9.29-0.18 14.71-0.56 16.25-0.41 1.53-0.6 3.48-0.6 5.8 0 18.56-3.48 27.84-10.44 27.84zm30.16-448.96 52.21-18.56c0-4.64-9.65-11.23-29-19.73-14.71-6.17-28.22-9.28-40.61-9.28-1.53 0-2.69 0.38-3.48 1.17 0 4.64 6.96 20.09 20.88 46.4z" fill="#ffffff"/>
            </g>
            <g id="path25" transform="matrix(1.1137,0,0,1.1137,30.0811,292.704)">
                <path id="path1041" d="m82.5 185.5-0.75-0.25c0-0.33 2.33-1.58 7-3.75l29.75-12.5c22.83-10 39.75-18.75 50.75-26.25s16.5-12.33 16.5-14.5c0-0.33-1-2.67-3-7-3.5-7.83-5.75-13.5-6.75-17-1-2.5-1.92-4.42-2.75-5.75l-0.5-1c0.67-8.17 1.42-12.25 2.25-12.25 0.33 0 0.67 0.25 1 0.75 2 2.33 4.17 4.67 6.5 7 3.5 3.67 5.25 5.75 5.25 6.25 0 0.33-0.17 0.5-0.5 0.5-0.67 0-2.33-0.33-5-1 2.33 5 4.29 9.67 5.88 14 1.58 4.33 2.37 8.25 2.37 11.75 0 2.5-0.5 5.33-1.5 8.5s-2.25 5.75-3.75 7.75c-4.33 4.67-10.37 9.63-18.12 14.88s-15.21 9.75-22.38 13.5-11.58 5.62-13.25 5.62l-13.25 3c-16.33 4-26.17 6.25-29.5 6.75z" fill="#ffffff"/>
            </g>
            <g id="path1" transform="matrix(.24 0 0 .24 -19.128 -73.1908)">
                <path id="path1044" d="m339.61 2325.03c-33.272 0-58.794-12.39-76.567-37.12-16.242-20.88-24.362-47.56-24.362-80.05 0-41.76 8.909-84.31 26.682-127.61 3.852-10.07 6.589-15.08 8.121-15.08 0.789 0.79 1.16 1.95 1.16 3.48 0 3.11-0.789 7.75-2.32 13.92-12.39 43.3-18.562 76.2-18.562 98.61 0 20.1 5.429 37.5 16.242 52.21 14.71 20.88 39.072 31.32 73.086 31.32 30.163 0 66.126-12.39 107.89-37.12 34.014-20.89 66.497-46.04 97.448-75.41 27.843-27.05 41.764-44.87 41.764-53.36 0-6.97-1.16-13.56-3.48-19.73-12.39 3.85-29.374 5.8-51.045 5.8-47.193 0-70.766-16.24-70.766-48.72 0-24.73 7.564-46.4 22.645-64.97 15.081-18.56 30.72-27.84 46.961-27.84 25.522 0 50.256 25.52 74.247 76.57 38.654-13.13 73.086-32.49 103.249-58.01 4.64-3.85 7.749-5.8 9.281-5.8h3.48c0.789 0 1.16 1.53 1.16 4.64 0 3.85-0.974 9.65-2.877 17.4-1.949 7.75-2.923 13.93-2.923 18.57 0 21.67 15.87 32.48 47.564 32.48 23.991 0 44.084-10.44 60.325-31.32l30.163-47.57c3.851-4.64 6.96-6.96 9.281-6.96 3.109 0.79 4.64 3.11 4.64 6.96-3.109 20.09-5.429 30.16-6.961 30.16 0 6.96 3.666 13.55 11.045 19.73 7.331 6.17 16.427 9.28 27.239 9.28 13.921 0 22.831-3.48 26.682-10.44l-12.761-23.21c6.172-34.01 11.601-51.04 16.242-51.04 1.531 0 3.48 1.53 5.8 4.64 8.492 13.13 12.761 27.47 12.761 42.92 0 24.74-5.429 46.04-16.241 63.81-12.39 20.88-29.792 31.32-52.205 31.32-16.241 0-30.951-11.97-44.084-35.96-21.671 38.65-49.884 58-84.687 58-40.233 0-60.326-22.83-60.326-68.44-13.132 13.92-40.232 31.32-81.207 52.2 0 58.8-45.615 122.97-136.892 192.58-51.834 39.44-97.449 59.16-136.892 59.16zm191.417-295.82c9.281 0 18.933-1.16 29.002-3.48-13.921-18.56-27.053-27.84-39.443-27.84-17.031 0-25.522 4.64-25.522 13.92 0 11.6 11.972 17.4 35.963 17.4z" fill="#ffffff"/>
            </g>
            <g id="path28" transform="matrix(1.1137,0,0,1.1137,30.0811,292.704)">
                <path id="path1047" d="m50 88.5c-7.5 0-12.83-3.58-16-10.75-1.67-4-2.5-8.75-2.5-14.25 0-7.17 0.92-13.92 2.75-20.25l0.5-3.5c0-0.33-0.08-0.5-0.25-0.5s-0.83 0.83-2 2.5c-1.67 2.67-3.42 8.08-5.25 16.25-2.5 10.33-4.08 16.58-4.75 18.75-1 3.17-2.33 5.54-4 7.13-1.67 1.58-3 2.37-4 2.37-4.83 0-8.58-3.08-11.25-9.25-2.17-5-3.25-11.17-3.25-18.5 0-5 0.75-10.5 2.25-16.5 0.17-0.33 0.33-0.75 0.5-1.25s0.58-1.25 1.25-2.25l0.5 0.25-0.5 3.75c-0.83 4.67-1.25 8.83-1.25 12.5 0.17 14.5 3.25 21.75 9.25 21.75 2.83 0 5-1.92 6.5-5.75 1.17-2.5 2.58-7.42 4.25-14.75s3.17-12.87 4.5-16.62 3.13-7.3 5.38-10.63 4.12-5 5.62-5c1.33 0 2 1.42 2 4.25 0 2.5-0.67 7.46-2 14.88-1.33 7.41-2 12.37-2 14.87 0 5.5 1.17 9.79 3.5 12.88 2.33 3.08 5.5 4.62 9.5 4.62 7.5 0 13.17-2.33 17-7 3-3.5 4.5-8 4.5-13.5 0-5.17-0.42-10.04-1.25-14.62-0.83-4.59-2.17-9.21-4-13.88 0-3 1-7.08 3-12.25 0.33-1 0.67-1.5 1-1.5 0.17 0 0.67 0.67 1.5 2 2.67 5.83 4.83 14.67 6.5 26.5 1.5 11.17 3.67 19.13 6.5 23.88s7.17 7.12 13 7.12c4.67 0 7.83-1.75 9.5-5.25 0-1.17-1-3.75-3-7.75-5.33-10.5-8.67-20.83-10-31-0.5-3.83-1.33-6.42-2.5-7.75 2.33-6.67 3.67-10 4-10 0.5 0 1.08 0.5 1.75 1.5 6.67 9.17 10 14.58 10 16.25 0 0.33-0.17 0.5-0.5 0.5-1 0-2.58-0.67-4.75-2-0.33 0-0.5 0.17-0.5 0.5 0.67 2.67 1.92 6.5 3.75 11.5 3.83 11 5.75 19.08 5.75 24.25 0 5-0.75 9.33-2.25 13-2.5 6.5-6.83 9.75-13 9.75-6.5 0-11.67-2.83-15.5-8.5-2.33-3.33-4.33-8.5-6-15.5-1 7-3.25 12.92-6.75 17.75-4.5 6-10.17 9-17 9z" fill="#ffffff"/>
            </g>
            <g id="path29" transform="matrix(1.1137,0,0,1.1137,30.0811,292.704)">
                <path id="path1050" d="m442 161.25c0-0.67 0.04-1.33 0.13-2 0.08-0.67 1.04-1.75 2.87-3.25-2.17-0.67-3.25-1.67-3.25-3 0-1.17 0.58-2.58 1.75-4.25 2.33-2.67 4.25-4 5.75-4 1.33 0 2 0.75 2 2.25 0 1-0.33 2.08-1 3.25l-0.25 0.25c-0.67-1.17-1.33-1.75-2-1.75-0.5 0-1.17 0.29-2 0.88-0.83 0.58-1.25 0.95-1.25 1.12 0 0.5 0.5 1 1.5 1.5s1.75 0.75 2.25 0.75 1.29-0.33 2.38-1c1.08-0.67 1.95-1.17 2.62-1.5s1.17-0.58 1.5-0.75h0.25c0 1.67-0.42 2.83-1.25 3.5l-11 7.5z" fill="#ffffff"/>
            </g>
            <g id="path30" transform="matrix(1.1137,0,0,1.1137,30.0811,292.704)">
                <path id="path1053" d="m435.25 173 1.5-4.25 20.75-7.25-1.5 3.25c-6 2.17-12.92 4.92-20.75 8.25z" fill="#ffffff"/>
            </g>
            <g id="path31" transform="matrix(1.1137,0,0,1.1137,30.0811,292.704)">
                <path id="path1056" d="m401.25 113.75c0.33-1.33 0.83-2.75 1.5-4.25l28.5-10.25v0.75c-0.5 1.33-1 2.17-1.5 2.5-8.17 2.83-17.67 6.58-28.5 11.25z" fill="#ffffff"/>
            </g>
            <g id="path32" transform="matrix(1.1137,0,0,1.1137,30.0811,292.704)">
                <path id="path1059" d="m396.25 104.5c0.33-1.33 0.83-2.75 1.5-4.25l20.75-7.25v0.75c-0.67 1.33-1.17 2.17-1.5 2.5-6 2-12.92 4.75-20.75 8.25z" fill="#ffffff"/>
            </g>
            <g id="path33" transform="matrix(1.1137,0,0,1.1137,30.0811,292.704)">
                <path id="path1062" d="m331 8.5c0.5-1.33 1.25-2.67 2.25-4l21.75-3.5-0.25 0.75-1.75 2.25c-6.33 1-13.67 2.5-22 4.5z" fill="#ffffff"/>
            </g>
            <g id="path34" transform="matrix(1.1137,0,0,1.1137,30.0811,292.704)">
                <path id="path1065" d="m410.25 86.5-0.5-1c0-1.17-0.67-3.75-2-7.75s-2.25-6-2.75-6c-0.33 0-0.54 0.13-0.62 0.38-0.09 0.25-0.38 0.37-0.88 0.37-0.33 0-0.75-0.21-1.25-0.62-0.5-0.42-0.96-0.88-1.37-1.38-0.42-0.5-0.63-0.83-0.63-1 0-0.33 0.33-1.08 1-2.25s1.08-1.75 1.25-1.75c2.5 0 4.75 2.92 6.75 8.75 1 3.5 1.5 5.58 1.5 6.25h0.25l0.25-1.5c1.67-10.33 3.75-15.5 6.25-15.5 0.83 0 1.58 0.46 2.25 1.38 0.67 0.91 1 1.62 1 2.12 0 0.83-0.17 1.54-0.5 2.13-0.33 0.58-0.67 0.87-1 0.87l-0.5-0.75c-0.83-0.83-1.5-1.25-2-1.25-1.17 0-2.5 4-4 12-1 4.33-1.83 6.5-2.5 6.5z" fill="#ffffff"/>
            </g>
            <g id="path35" transform="matrix(1.1137,0,0,1.1137,30.0811,292.704)">
                <path id="path1068" d="m17.5 145.75c0-0.17 0.25-0.54 0.75-1.12 0.5-0.59 1.17-1.38 2-2.38s1.67-2.04 2.5-3.12c0.83-1.09 1.25-1.88 1.25-2.38 0-1.17-0.58-1.75-1.75-1.75-0.83 0-1.5 0.25-2 0.75h-0.5v-0.5c0-0.17 0.17-0.62 0.5-1.37s0.79-1.46 1.38-2.13c0.58-0.67 1.29-1 2.12-1 1.67 0 2.5 1.08 2.5 3.25 0 2.67-1.5 5.5-4.5 8.5-0.83 1-1.67 1.79-2.5 2.38-0.83 0.58-1.42 0.87-1.75 0.87z" fill="#ffffff"/>
            </g>
            <g id="path36" transform="matrix(1.1137,0,0,1.1137,30.0811,292.704)">
                <path id="path1071" d="m398.5 57h-0.25c3.17-4.83 4.75-8.17 4.75-10 0-0.83-0.67-1.25-2-1.25-0.5 0-0.87 0.13-1.12 0.38s-0.55 0.54-0.88 0.87h-0.25l0.25-2.5c0.33-1.83 1.33-2.83 3-3h1.25c1.33 0.17 2 1.5 2 4 0 3.33-2 7-6 11-0.33 0.33-0.58 0.5-0.75 0.5z" fill="#ffffff"/>
            </g>
            <g id="path37" transform="matrix(1.1137,0,0,1.1137,30.0811,292.704)">
                <path id="path1074" d="m383.5 174.75v-0.25c0.17-0.67 0.33-1.29 0.5-1.87 0.17-0.59 1.08-1.55 2.75-2.88-2.33-1-3.5-2-3.5-3 0-1.5 0.58-2.92 1.75-4.25 2.33-2.83 4.25-4.25 5.75-4.25s2.25 0.75 2.25 2.25c0 1-0.42 2.08-1.25 3.25l-0.25 0.25c-0.67-1.17-1.33-1.75-2-1.75-0.5 0-1.12 0.25-1.87 0.75s-1.13 1-1.13 1.5 0.33 0.92 1 1.25 1.17 0.58 1.5 0.75 0.67 0.25 1 0.25c0.5 0 1.92-0.67 4.25-2 1.33-1 2.17-1.5 2.5-1.5l0.25 0.25c-0.5 1.83-0.92 2.92-1.25 3.25-1.67 1-5.5 3.58-11.5 7.75z" fill="#ffffff"/>
            </g>
            <g id="path38" transform="matrix(1.1137,0,0,1.1137,30.0811,292.704)">
                <path id="path1077" d="m380.75 182c0.17-1.33 0.67-2.75 1.5-4.25l20.5-7.25 0.25 0.25-1.5 3c-6 2-12.92 4.75-20.75 8.25z" fill="#ffffff"/>
            </g>
            <g id="path39" transform="matrix(1.1137,0,0,1.1137,30.0811,292.704)">
                <path id="path1080" d="m417.75 182c-0.33 0-0.5-0.46-0.5-1.37 0-0.92-0.62-2.92-1.87-6-1.25-3.09-2.13-4.63-2.63-4.63s-0.79 0.13-0.87 0.38c-0.09 0.25-0.3 0.37-0.63 0.37-0.67 0-1.5-0.42-2.5-1.25-0.17-0.33-0.42-0.67-0.75-1s-0.5-0.75-0.5-1.25c0-0.17 0.38-0.87 1.13-2.12s1.29-1.88 1.62-1.88c1.83 0 3.5 1.13 5 3.38s2.42 5.12 2.75 8.62l0.25 0.5c0.33 0 0.5-0.17 0.5-0.5 1.5-9.5 3.58-14.25 6.25-14.25 0.67 0 1.38 0.5 2.13 1.5s1.12 1.83 1.12 2.5c0 0.5-0.12 1.13-0.37 1.88s-0.63 1.12-1.13 1.12c-1-1.5-1.92-2.25-2.75-2.25-1.17 0-2.33 3.17-3.5 9.5-1 4.5-1.92 6.75-2.75 6.75z" fill="#ffffff"/>
            </g>
            <g id="path40" transform="matrix(1.1137,0,0,1.1137,30.0811,292.704)">
                <path id="path1083" d="m343 61c-1.67 0-2.71-0.92-3.12-2.75-0.42-1.83-0.63-4.25-0.63-7.25 0-0.33-0.21-0.58-0.62-0.75-0.42-0.17-0.63-0.5-0.63-1 0-0.67 0.17-1.29 0.5-1.87 0.33-0.59 0.71-1.09 1.13-1.5 0.41-0.42 0.79-0.63 1.12-0.63 0.5 0 0.75 0.92 0.75 2.75l-0.5 4.25c0 1.17 0.25 2.21 0.75 3.13 0.5 0.91 1.08 1.37 1.75 1.37 1 0 1.92-0.42 2.75-1.25s1.25-1.83 1.25-3l-1.25-6.5c0-0.17 0.08-0.46 0.25-0.87 0.17-0.42 0.33-0.84 0.5-1.25 0.17-0.42 0.33-0.63 0.5-0.63 0.5 0 0.88 1.13 1.13 3.38s0.66 4.29 1.25 6.12c0.58 1.83 1.62 2.75 3.12 2.75 1 0 1.58-0.42 1.75-1.25-2-3.5-3-6.17-3-8 0-0.5 0.13-1.04 0.38-1.62 0.25-0.59 0.5-1.05 0.75-1.38s0.37-0.58 0.37-0.75c0.17 0 0.33 0.46 0.5 1.38 0.17 0.91 0.33 1.58 0.5 2 0.17 0.41 0.58 1.5 1.25 3.25s1 3.04 1 3.87c0 1.5-0.37 3.04-1.12 4.63-0.75 1.58-1.71 2.37-2.88 2.37-2 0-3.42-1.42-4.25-4.25-1 3.5-2.75 5.25-5.25 5.25z" fill="#ffffff"/>
            </g>
            <g id="path41" transform="matrix(1.1137,0,0,1.1137,30.0811,292.704)">
                <path id="path1086" d="m202.75 51.75c-1.5 0-2.42-0.83-2.75-2.5s-0.5-3.92-0.5-6.75c0-0.17-0.21-0.33-0.62-0.5-0.42-0.17-0.63-0.5-0.63-1s0.17-1.04 0.5-1.62c0.33-0.59 0.67-1.05 1-1.38s0.67-0.5 1-0.5c0.5 0 0.75 0.83 0.75 2.5l-0.5 3.75c0 0.83 0.21 1.71 0.63 2.63 0.41 0.91 0.95 1.37 1.62 1.37 0.83 0 1.58-0.37 2.25-1.12s1-1.63 1-2.63l-0.5-3.5-0.5-2.25c0-0.5 0.17-1.04 0.5-1.62 0.33-0.59 0.58-0.88 0.75-0.88 0.33 0 0.67 1.08 1 3.25 0.67 5.17 1.92 7.75 3.75 7.75 0.83 0 1.42-0.42 1.75-1.25-1.83-3.17-2.75-5.5-2.75-7 0-1 0.21-1.79 0.63-2.37 0.41-0.59 0.7-0.88 0.87-0.88l0.75 3.25c1.33 2.83 2 4.75 2 5.75 0 1.5-0.37 2.92-1.12 4.25s-1.63 2-2.63 2c-1.67 0-2.92-1.17-3.75-3.5-0.83 3.17-2.33 4.75-4.5 4.75z" fill="#ffffff"/>
            </g>
            <g id="path42" transform="matrix(1.1137,0,0,1.1137,30.0811,292.704)">
                <path id="path1089" d="m204.75 32.75c-0.17 0-0.25-0.08-0.25-0.25 0.17-0.5 0.38-0.96 0.63-1.37 0.25-0.42 0.45-0.92 0.62-1.5 0.17-0.59 0.33-1.05 0.5-1.38 0.33-1.17 0.5-2.33 0.5-3.5 0-3.33-1.17-7-3.5-11v-0.5c0.17-0.33 1-1.25 2.5-2.75l0.25 0.5c2.33 3.17 3.5 6.5 3.5 10 0 4.33-1.25 8-3.75 11-0.33 0.5-0.67 0.75-1 0.75z" fill="#ffffff"/>
            </g>
            <g id="path2" transform="matrix(.24 0 0 .24 -19.128 -73.1908)">
                <path id="path1092" d="m844.255 1642.89c-6.172-0.78-9.652-1.53-10.441-2.32 0-1.53 26.682-6.96 80.047-16.24 27.842-5.43 50.255-11.6 67.286-18.56-11.601-7.75-17.402-15.45-17.402-23.2 1.532-11.6 7.332-20.88 17.402-27.84 0-11.61 3.109-18.94 9.281-22.05l6.96-2.32c9.282 2.32 15.872 6.18 19.722 11.61 16.24 17.77 24.73 35.96 25.52 54.52l-1.16 3.48c-1.53 5.43-5.19 10.81-11 16.24-5.8 5.43-10.25 8.12-13.36 8.12l-26.682-12.76c-28.632 17.03-60.697 27.05-96.289 30.16zm182.135-35.96 1.16-5.8c-0.79-10.81-5.43-20.51-13.92-29-3.85 9.28-7.75 16.61-11.6 22.04zm-31.322-17.4c3.109-3.85 5.012-10.07 5.802-18.56 0-4.64-2.322-7.75-6.962-9.28-2.32 0-5.801 1.16-10.441 3.48s-7.332 5.01-8.121 8.12c0 4.64 6.59 10.07 19.722 16.24z" fill="#ffffff"/>
            </g>
            <g id="path45" transform="matrix(1.1137,0,0,1.1137,30.0811,292.704)">
                <path id="path1095" d="m262.5 116.75c0.83-1.67 1.92-3.5 3.25-5.5l53.25-11h1.25c-0.83 2.17-1.67 3.58-2.5 4.25-15.67 3.17-34.08 7.25-55.25 12.25z" fill="#ffffff"/>
            </g>
            <g id="path46" transform="matrix(1.1137,0,0,1.1137,30.0811,292.704)">
                <path id="path1098" d="m229.5 103.25c-1.33 0-2.42-0.67-3.25-2s-1.25-3.08-1.25-5.25c0-3.83-0.08-5.79-0.25-5.87-0.17-0.09-0.46-0.25-0.87-0.5-0.42-0.25-0.63-0.71-0.63-1.38s0.21-1.37 0.63-2.12c0.41-0.75 0.91-1.38 1.5-1.88 0.58-0.5 1.04-0.75 1.37-0.75 0.67 0 1 1.17 1 3.5 0 1.33-0.12 2.38-0.37 3.13s-0.38 1.37-0.38 1.87c0 1.5 0.29 2.83 0.88 4 0.58 1.17 1.29 1.75 2.12 1.75 1.17 0 2.29-0.5 3.38-1.5 1.08-1 1.62-2.25 1.62-3.75 0-0.67-0.33-2.33-1-5l-0.5-3c0-0.33 0.13-0.75 0.38-1.25s0.45-1 0.62-1.5l0.5-0.75c0.33 0 0.71 0.67 1.13 2 0.41 1.33 0.75 2.79 1 4.38 0.25 1.58 0.37 2.79 0.37 3.62 0 3.5 1.42 5.25 4.25 5.25 1.17 0 1.92-0.58 2.25-1.75-2.33-4.17-3.5-7.42-3.5-9.75 0-0.67 0.13-1.33 0.38-2s0.5-1.25 0.75-1.75 0.45-0.75 0.62-0.75 0.33 0.54 0.5 1.63c0.17 1.08 0.33 1.87 0.5 2.37s0.67 1.83 1.5 4 1.25 3.75 1.25 4.75c0 2-0.46 3.96-1.37 5.88-0.92 1.91-2.05 2.87-3.38 2.87-2.5 0-4.25-1.67-5.25-5-1.17 4.33-3.33 6.5-6.5 6.5z" fill="#ffffff"/>
            </g>
            <g id="path3" transform="matrix(.24 0 0 .24 -19.128 -73.1908)">
                <path id="path1101" d="m1434.75 1835.47c0-1.53 1.16-3.11 3.48-4.64l2.32-2.32 58-45.24c22.42-18.57 39.07-35.6 49.89-51.05-17.78-5.43-27.06-12.76-27.84-22.04v-5.8c0-9.28 3.66-18.38 11.04-27.24 7.33-8.91 14.85-13.36 22.6-13.36 8.49 0.79 12.76 10.44 12.76 29 0 6.17-0.79 12.76-2.32 19.72 8.49 3.85 14.29 7.33 17.4 10.44v1.16c0 4.64-2.32 11.97-6.96 22.04-3.11-2.32-8.91-5.43-17.4-9.28-17.78 32.49-46.04 59.17-84.69 80.05l-27.84 16.24zm120.65-126.45c0-6.96-0.79-12.39-2.32-16.24s-3.85-5.8-6.96-5.8c-1.53 0-3.11 0.37-4.64 1.16-1.54 0.79-3.48 1.76-5.8 2.92s-3.48 2.88-3.48 5.2c0.79 4.64 8.49 8.91 23.2 12.76z" fill="#ffffff"/>
            </g>
            <g id="path5" transform="matrix(.24 0 0 .24 -19.128 -73.1908)">
                <path id="path1104" d="m547.268 2272.83-1.16-1.16c0-0.79 26.682-17.4 80.047-49.88 27.843-16.25 49.096-32.12 63.806-47.57-18.562-10.07-27.843-20.09-27.843-30.16 0-13.13 5.244-24.36 15.685-33.64s19.118-13.93 26.079-13.93l4.64 1.16c6.961 2.32 10.441 9.28 10.441 20.89 0 10.07-2.32 22.04-6.96 35.96 9.281 4.64 15.081 9.28 17.401 13.92 0 4.64-3.851 13.13-11.601 25.52-2.32-4.64-8.12-9.28-17.401-13.92-21.671 29.38-51.834 52.58-90.488 69.61-2.32 1.53-19.722 8.12-52.205 19.72-4.64 2.32-8.121 3.48-10.441 3.48zm154.294-124.13 1.16-12.76c-0.789-10.07-3.852-15.08-9.281-15.08-2.32 0-5.429 1.16-9.281 3.48-3.851 2.32-5.8 4.64-5.8 6.96 0 4.64 7.749 10.44 23.202 17.4z" fill="#ffffff"/>
            </g>
            <g id="path6" transform="matrix(.24 0 0 .24 -19.128 -73.1908)">
                <path id="path1107" d="m208.518 1662.62c0-1.54 18.933-13.55 56.845-35.97 19.351-11.6 34.432-22.04 45.244-31.32-13.921-3.11-20.882-9.28-20.882-18.56 0-8.49 1.949-15.45 5.801-20.88l-1.16-9.28c0-10.07 4.64-15.09 13.921-15.09 3.851 0 8.121 1.54 12.761 4.64 18.562 10.07 30.163 22.42 34.803 37.13 0 4.64-1.531 10.07-4.64 16.24s-5.801 9.28-8.121 9.28l-24.362-2.32c-6.961 10.07-16.613 19.54-29.003 28.45-12.39 8.86-23.991 16-34.803 21.43zm136.892-80.05 1.16-1.16c-3.851-10.07-10.812-17.03-20.882-20.88 0 7.75-0.788 14.29-2.32 19.72zm-27.842-3.48 1.16-6.96c-1.531-10.07-4.269-15.08-8.121-15.08-2.32 0-5.012 1.34-8.121 4.08-3.109 2.69-4.64 5.57-4.64 8.68 0 4.64 6.589 7.75 19.722 9.28z" fill="#ffffff"/>
            </g>
            <g id="path52" transform="matrix(1.1137,0,0,1.1137,30.0811,292.704)">
                <path id="path1110" d="m29 120.5c-0.33 0-0.5-0.46-0.5-1.37 0-0.92-0.37-2.55-1.12-4.88s-1.63-4.5-2.63-6.5-1.75-3-2.25-3c-0.33 0-0.58 0.13-0.75 0.38s-0.58 0.37-1.25 0.37c-0.5 0-1.12-0.25-1.87-0.75s-1.42-1.08-2-1.75c-0.59-0.67-0.88-1.25-0.88-1.75 0-0.33 0.5-1.29 1.5-2.87 1-1.59 1.67-2.38 2-2.38 3.67 0 6.5 2.83 8.5 8.5 1 2.5 1.75 5 2.25 7.5l0.25 0.25 0.5-2.25c2.17-11.17 4.83-16.75 8-16.75 1 0 1.96 0.58 2.88 1.75 0.91 1.17 1.37 2.17 1.37 3 0 0.5-0.08 1.08-0.25 1.75s-0.37 1.21-0.62 1.63c-0.25 0.41-0.55 0.62-0.88 0.62-0.17 0-0.46-0.21-0.87-0.62l-1.38-1.38c-0.5-0.5-1-0.75-1.5-0.75-1.83 0-3.42 4.08-4.75 12.25-1.5 6-2.75 9-3.75 9z" fill="#ffffff"/>
            </g>
            <g id="path53" transform="matrix(1.1137,0,0,1.1137,30.0811,292.704)">
                <path id="path1113" d="m346 33.75c-1.83 0-2.75-1.58-2.75-4.75 0-3.83 1.08-7.92 3.25-12.25 0.17-0.5 0.42-0.92 0.75-1.25l0.25-0.25-0.5 1.75c-1.33 4.5-2 7.92-2 10.25 0 1.83 0.67 2.75 2 2.75 0.67 0 1.5-0.92 2.5-2.75v-0.25h0.25v0.5c-0.83 4.17-2.08 6.25-3.75 6.25z" fill="#ffffff"/>
            </g>
            <g id="path54" transform="matrix(1.1137,0,0,1.1137,30.0811,292.704)">
                <path id="path1116" d="m135.75 147.5 1.5-2c4.83-5.33 7.25-8.92 7.25-10.75 0-1.67-0.75-2.5-2.25-2.5-0.67 0-1.25 0.13-1.75 0.38s-0.92 0.45-1.25 0.62l-0.25 0.25h-0.5l0.25-1.5c0.83-3.67 2.67-5.5 5.5-5.5 2.33 0 3.5 1.5 3.5 4.5 0 3.83-2 7.75-6 11.75-3.17 3.17-5.17 4.75-6 4.75z" fill="#ffffff"/>
            </g>
            <g id="path55" transform="matrix(1.1137,0,0,1.1137,30.0811,292.704)">
                <path id="path1119" d="m140.75 16.25 2.5-3.25c2.5-3 3.75-4.92 3.75-5.75 0-1.17-0.58-1.75-1.75-1.75-0.33 0-0.67 0.08-1 0.25s-0.58 0.29-0.75 0.38c-0.17 0.08-0.33 0.12-0.5 0.12h-0.25c0.5-1.67 1.08-2.87 1.75-3.62s1.42-1.13 2.25-1.13c1.83 0 2.75 1 2.75 3 0 1.67-0.54 3.42-1.62 5.25-1.09 1.83-2.96 3.75-5.63 5.75z" fill="#ffffff"/>
            </g>
            <g id="path56" transform="matrix(1.1137,0,0,1.1137,30.0811,292.704)">
                <path id="path1122" d="m190 9.25c0.5-1.33 1.25-2.67 2.25-4l21.25-4 0.25 0.25c-0.5 1.33-1.17 2.33-2 3-6.17 1-13.42 2.58-21.75 4.75z" fill="#ffffff"/>
            </g>
            <g id="path57" transform="matrix(1.1137,0,0,1.1137,30.0811,292.704)">
                <path id="path1125" d="m82.5 33.5h-0.25v-0.25l1.25-8.5c0-7.33-3.08-13.58-9.25-18.75l-0.25-0.75c0-0.67 0.17-1.29 0.5-1.87 0.33-0.59 0.75-1.21 1.25-1.88l0.25-0.25 0.5 0.25c6 4.67 9 11.25 9 19.75 0 4.17-0.67 7.67-2 10.5-0.33 1-0.67 1.58-1 1.75z" fill="#ffffff"/>
            </g>
            <g id="path58" transform="matrix(1.1137,0,0,1.1137,30.0811,292.704)">
                <path id="path1128" d="m193.5 111.75v-0.5l1-1.5c4.17-4.5 6.25-7.67 6.25-9.5 0-1.17-0.25-1.83-0.75-2s-0.92-0.25-1.25-0.25c-0.83 0-1.46 0.21-1.87 0.63-0.42 0.41-0.88 0.62-1.38 0.62l0.5-2.25c0.67-2.67 2.08-4 4.25-4l1.25 0.25c1.33 0.33 2 1.83 2 4.5 0 1.67-0.75 3.71-2.25 6.13-1.5 2.41-3.5 4.54-6 6.37z" fill="#ffffff"/>
            </g>
            <g id="path59" transform="matrix(1.1137,0,0,1.1137,30.0811,292.704)">
                <path id="path1131" d="m205 180.75c-1.5 0-2.58-0.83-3.25-2.5-0.83-1-1.25-1.92-1.25-2.75 0.83-2.67 1.5-4 2-4 0.17 0 0.29 0.04 0.38 0.13l1.37 1.37c0.5 1 1.17 1.58 2 1.75 1.83 0 3.92-3.92 6.25-11.75 1-3.67 2.08-6.25 3.25-7.75 0.67-0.83 1.08-1.25 1.25-1.25h0.25c0.17 0.17 0.25 0.58 0.25 1.25 0 1.5 0.5 4.42 1.5 8.75 1.5 4.5 2.5 6.75 3 6.75 0.67 0 1-0.08 1-0.25s0.08-0.25 0.25-0.25l0.25-0.25 0.5 0.25c0.83 0 1.79 0.58 2.88 1.75 1.08 1.17 1.62 2.08 1.62 2.75 0 0.33-0.58 1.33-1.75 3l-0.75 1c-0.67 0.83-1.08 1.25-1.25 1.25-2.67-0.33-4.83-1.92-6.5-4.75-2-4.5-3-8.83-3-13l-0.5 1c-0.67 2.67-2 6.75-4 12.25-2.17 3.5-4.08 5.25-5.75 5.25z" fill="#ffffff"/>
            </g>
            <g id="path60" transform="matrix(1.1137,0,0,1.1137,30.0811,292.704)">
                <path id="path1134" d="m268.25 25.5c-2.33 0-3.5-2.08-3.5-6.25 0-2.17 0.42-4.67 1.25-7.5s1.71-5.25 2.63-7.25c0.91-2 1.54-3.08 1.87-3.25l-1.25 5c-1.5 5.17-2.25 8.33-2.25 9.5 0 3.17 0.83 4.75 2.5 4.75 1 0 2.08-1.17 3.25-3.5l0.5-0.5 0.25 0.5c-1.17 5.67-2.92 8.5-5.25 8.5z" fill="#ffffff"/>
            </g>
            <g id="path61" transform="matrix(1.1137,0,0,1.1137,30.0811,292.704)">
                <path id="path1137" d="m5.25 120c-2.83 0-4.25-2.33-4.25-7 0-2.67 0.46-5.58 1.38-8.75 0.91-3.17 1.91-5.87 3-8.12 1.08-2.25 1.79-3.46 2.12-3.63 0 0.33-0.12 1.04-0.37 2.13-0.25 1.08-0.63 2.29-1.13 3.62-1.67 5.67-2.5 9.25-2.5 10.75 0 3.67 1 5.5 3 5.5 1.17 0 2.42-1.42 3.75-4.25l0.5-0.5h0.25v0.75c-1.17 6.33-3.08 9.5-5.75 9.5z" fill="#ffffff"/>
            </g>
            <g id="path62" transform="matrix(1.1137,0,0,1.1137,30.0811,292.704)">
                <path id="path1140" d="m4.25 18.5c-1.83 0-2.75-1.17-2.75-3.5 0-2.83 1.58-5.83 4.75-9 2.33-2.33 3.83-3.5 4.5-3.5 0 0.33-0.75 1.42-2.25 3.25-3 3.5-4.5 5.67-4.5 6.5 0 1.33 0.67 2 2 2l2.5-1h0.25c-0.33 1.5-0.92 2.75-1.75 3.75s-1.75 1.5-2.75 1.5z" fill="#ffffff"/>
            </g>
            <g id="path7" transform="matrix(.24 0 0 .24 -19.128 -73.1908)">
                <path id="path1143" d="m1691.13 2284.39c-19.68 5.38-31.23 8.3-34.76 8.86l-1.06-0.56c0.37-0.7 8.72-5.06 25.05-12.95 29.19-13.45 47.94-23.43 56.2-29.88-7.52-2.37-12.16-6.03-13.78-11-0.56-7.14 1.25-13.59 5.47-19.3-0.55-7.15 0.14-11.51 2.05-13.09 1.94-1.58 3.61-2.92 5.1-3.99 4.04-0.74 8.45 0.51 13.22 3.81 12.53 8.07 20.51 17.35 24.04 27.84-0.37 4.41-1.81 8.86-4.27 13.36s-4.54 7.06-6.17 7.57l-19.58-3.53c-5.71 6.82-13.37 13.18-23.02 19.17-9.65 5.98-19.12 10.58-28.49 13.69zm73.55-41.17c0.37-0.74 0.28-1.94-0.28-3.57-2.04-6.08-6.35-10.76-12.99-14.06-0.56 5.71-1.72 10.4-3.57 14.06zm-22.09-5.47c1.49-2.97 1.95-6.17 1.39-9.65-1.48-4.41-3.15-6.64-4.96-6.64-7.38 3.71-10.86 7.01-10.49 9.98 0.74 2.18 5.43 4.27 14.06 6.31z" fill="#ffffff"/>
            </g>
            <g id="path65" transform="matrix(1.1137,0,0,1.1137,30.0811,292.704)">
                <path id="path1146" d="m314.25 83.5c-1.5 0-2.25-1.25-2.25-3.75 0-1.33 0.25-2.87 0.75-4.62s1.04-3.21 1.63-4.38c0.58-1.17 0.95-1.83 1.12-2l-0.75 3.25c-0.83 3-1.25 4.92-1.25 5.75 0 1.83 0.5 2.75 1.5 2.75 0.67 0 1.33-0.67 2-2l0.5-0.5v0.5c-0.67 3.33-1.75 5-3.25 5z" fill="#ffffff"/>
            </g>
            <g id="path66" transform="matrix(1.1137,0,0,1.1137,30.0811,292.704)">
                <path id="path1149" d="m169.25 134c-2.17 0-3.25-1.83-3.25-5.5 0-2 0.33-4.21 1-6.62 0.67-2.42 1.42-4.55 2.25-6.38s1.42-2.75 1.75-2.75c0 0.33-0.42 1.83-1.25 4.5-1.17 4.33-1.75 7.08-1.75 8.25 0 2.83 0.75 4.25 2.25 4.25 0.83 0 1.83-1.08 3-3.25l0.25-0.5v0.5c-0.83 5-2.25 7.5-4.25 7.5z" fill="#ffffff"/>
            </g>
            <g id="path67" transform="matrix(1.1137,0,0,1.1137,30.0811,292.704)">
                <path id="path1152" d="m108.5 15.5c-1.5 0-2.25-1.33-2.25-4 0-1.33 0.25-2.83 0.75-4.5s1.04-3.12 1.63-4.37c0.58-1.25 0.95-1.88 1.12-1.88l-0.75 3c-0.83 3-1.25 4.92-1.25 5.75 0 2 0.5 3 1.5 3 0.67 0 1.33-0.75 2-2.25l0.25-0.25v0.25c-0.5 3.5-1.5 5.25-3 5.25z" fill="#ffffff"/>
            </g>
            <g id="path68" transform="matrix(1.1137,0,0,1.1137,30.0811,292.704)">
                <path id="path1155" d="m306.25 178c-0.17-0.17-0.25-1.25-0.25-3.25 0-3.67-0.54-8-1.62-13-1.09-5-1.63-8-1.63-9 0-2.5 0.75-4.33 2.25-5.5 0.83-0.5 2.08-1 3.75-1.5-0.67-0.83-1.42-1.25-2.25-1.25-0.17 0-0.5 0.29-1 0.88-0.5 0.58-0.83 1-1 1.25s-0.33 0.37-0.5 0.37c0-4.67 1.17-7 3.5-7 1 0 2.33 0.63 4 1.88s2.58 2.37 2.75 3.37c-0.5 1.33-1.08 2.58-1.75 3.75-4.17 0.83-7 1.92-8.5 3.25 2.17 6.5 3.25 12.83 3.25 19 0 2-0.17 3.92-0.5 5.75z" fill="#ffffff"/>
            </g>
            <g id="path69" transform="matrix(1.1137,0,0,1.1137,30.0811,292.704)">
                <path id="path1158" d="m286 176.5c-4.17 0-6.25-1.67-6.25-5 0-2.67 1.08-5.33 3.25-8 4.33-4.5 6.58-6.92 6.75-7.25 0-0.33-0.25-0.58-0.75-0.75-1.5-0.5-3.25-0.75-5.25-0.75-1 0-2.08 0.25-3.25 0.75h-0.5v-0.5c0.67-1.83 1.46-3.08 2.38-3.75 0.91-0.67 2.62-1 5.12-1 4 0 6 1.08 6 3.25 0 1.5-1.42 3.83-4.25 7l-6.25 6.25c-0.83 1.17-1.25 2.17-1.25 3 0 1.67 2.08 2.5 6.25 2.5 3.83 0 7.92-0.67 12.25-2l1.75-0.25c0 0.33-0.5 0.83-1.5 1.5-3.67 3.33-8.5 5-14.5 5z" fill="#ffffff"/>
            </g>
            <g id="path15" transform="matrix(1.1137,0,0,1.1137,30.0811,292.704)">
                <path id="path1161" d="m462.25 158c-0.17-0.17-0.33-0.83-0.5-2 0.67-5.17 1-10.33 1-15.5 0-4-1.25-23.83-3.75-59.5s-3.75-55.42-3.75-59.25-0.67-7.17-2-10c0-1.83 1.17-5.42 3.5-10.75 0.17-0.67 0.42-1 0.75-1 0.5 0 1.67 2.42 3.5 7.25l2.25 6c3 7.83 4.75 13 5.25 15.5 0 0.67-0.17 1-0.5 1-0.83 0-2.5-1.5-5-4.5l-0.5-0.25c-0.17 0-0.25 0.42-0.25 1.25 4.67 64.17 7 97.75 7 100.75 0 10-1.58 18.92-4.75 26.75-1 2.83-1.75 4.25-2.25 4.25z" fill="#ffffff"/>
            </g>
            <g id="path16" transform="matrix(1.1137,0,0,1.1137,30.0811,292.704)">
                <path id="path1164" d="m359.5 180.71c-4.67 0-8.67-3.8-12-11.4-3-6.59-4.5-13.52-4.5-20.79 0-8.61 0.92-15.54 2.75-20.78 0.5-1.69 0.92-2.53 1.25-2.53s0.5 0.84 0.5 2.53c-0.67 6.08-1 10.98-1 14.7 0 18.42 4.17 27.63 12.5 27.63 3.33 0 6.42-2.71 9.25-8.11l8.75-19.27c2.67-5.23 5.88-9.71 9.63-13.43s7.12-5.57 10.12-5.57c2.33 0 4.42 1.39 6.25 4.18s3.58 5.62 5.25 8.49c2.33 3.21 4.71 5.45 7.13 6.72 2.41 1.26 5.62 1.9 9.62 1.9 4.33 0 8.5-1.61 12.5-4.82 1-1.01 1.5-4.56 1.5-10.64 0-3.72-1.12-21.38-3.37-52.98-2.25-31.59-3.38-49.55-3.38-53.86 0-4.3-0.58-7.81-1.75-10.51 0-1.69 1.17-5.33 3.5-10.9 0.33-0.85 0.58-1.27 0.75-1.27 0.33 0 1.42 2.45 3.25 7.35 5 12.84 7.5 20.11 7.5 21.8 0 0.67-0.25 1.01-0.75 1.01-0.67 0-2.25-1.52-4.75-4.56l-0.25-0.25c-0.17 0-0.25 0.42-0.25 1.26 0 0.17 1 14.49 3 42.96s3 44.91 3 49.3c0 12.67-2.25 22.64-6.75 29.91-3.83 6.25-8.42 9.38-13.75 9.38-4.33 0-7.5-0.34-9.5-1.02-4-1.18-7.42-3.88-10.25-8.11-1.67-2.87-3.33-5.66-5-8.36-1.67-2.71-3.25-4.06-4.75-4.06-7.17 0-14 8.03-20.5 24.08-5.33 13.35-10.5 20.02-15.5 20.02z" fill="#ffffff"/>
            </g>
            <g id="path22" transform="matrix(1.1137,0,0,1.1137,30.0811,292.704)">
                <path id="path1167" d="m388 158.75c-0.17 0-0.33-0.67-0.5-2 0.67-5.17 1-10.33 1-15.5 0-4.33-1.25-24.25-3.75-59.75s-3.75-55.17-3.75-59-0.67-7.17-2-10c0-1.83 1.17-5.42 3.5-10.75 0.33-0.67 0.67-1 1-1s1.42 2.42 3.25 7.25l2.25 6c3 7.83 4.75 13 5.25 15.5 0 0.67-0.17 1-0.5 1-0.83 0-2.5-1.5-5-4.5l-0.5-0.25c-0.17 0-0.25 0.33-0.25 1 4.67 64.5 7 98.17 7 101 0 10-1.58 18.92-4.75 26.75-1 2.83-1.75 4.25-2.25 4.25z" fill="#ffffff"/>
            </g>
            <g id="path21" transform="matrix(1.1137,0,0,1.1137,30.0811,292.704)">
                <path id="path1170" d="m317.01 175.99c-1.2 0-1.8-0.09-1.8-0.27 0-0.55 0.6-1.18 1.8-1.91 20.88-12.55 34.83-22.83 41.85-30.84 5.82-6.91 8.73-12.55 8.73-16.92 0-9.64-1.5-28.11-4.49-55.4-3-27.3-4.5-42.76-4.5-46.4 0-2-0.43-4.32-1.28-6.96-0.86-2.64-1.28-4.05-1.28-4.23 0-0.55 0.38-2.5 1.15-5.87 0.77-3.36 1.33-5.32 1.67-5.87 0.34-0.54 0.68-0.81 1.03-0.81 0-0.19 0.21 0 0.64 0.54 0.43 0.55 2.44 4.91 6.03 13.1 3.08 6.92 5.14 12.74 6.16 17.47 0 0.54-0.17 0.82-0.51 0.82-0.86 0-2.57-1.64-5.14-4.92l-0.51-0.27c-0.17 0-0.26 0.46-0.26 1.37 0 3.64 1.25 16.37 3.73 38.21 2.48 21.83 3.72 36.66 3.72 44.48 0 15.65-3.42 28.84-10.27 39.58-5.48 8-11.55 13.73-18.23 17.19-2.74 1.45-7.32 3.09-13.73 4.91-6.42 1.82-11.26 2.82-14.51 3z" fill="#ffffff"/>
            </g>
            <g id="path19" transform="matrix(1.1137,0,0,1.1137,30.0811,292.704)">
                <path id="path1173" d="m328.5 142.75c-0.17 0-0.33-0.17-0.5-0.5l0.75-17c0-4-1.04-21.04-3.12-51.12-2.09-30.09-3.13-46.88-3.13-50.38 0-4.33-0.67-7.75-2-10.25 0-1.5 1.25-5.08 3.75-10.75 0.33-0.83 0.58-1.25 0.75-1.25 0.33 0 0.58 0.17 0.75 0.5s0.25 0.58 0.25 0.75c6.5 16.83 9.75 26.17 9.75 28 0 0.33-0.17 0.5-0.5 0.5-0.67 0-2.33-1.42-5-4.25l-0.25-0.5-0.25 1.25c0 0.17 0.92 13.42 2.75 39.75s2.75 41.17 2.75 44.5c0 10-1.5 18.83-4.5 26.5l-1.5 3.5z" fill="#ffffff"/>
            </g>
            <g id="path23" transform="matrix(1.1137,0,0,1.1137,30.0811,292.704)">
                <path id="path1176" d="m203.75 79c-7.5 0-12.75-3.67-15.75-11-1.83-4-2.75-8.75-2.75-14.25 0-7.33 1-14.67 3-22l0.5-1.75-0.25-0.25c-0.33 0-1 0.75-2 2.25-1.67 2.33-3.5 7.75-5.5 16.25-2.5 10.5-4.08 16.75-4.75 18.75-1 3.17-2.33 5.54-4 7.13-1.67 1.58-3 2.37-4 2.37-4.83 0-8.58-3.08-11.25-9.25-2.17-5.17-3.25-11.25-3.25-18.25 0-6.33 0.92-12.42 2.75-18.25 0.5-1.33 0.92-2 1.25-2l0.5 0.5-0.25 3.5c-1 4.5-1.5 8.67-1.5 12.5 0.17 14.5 3.25 21.75 9.25 21.75 2.67 0 4.83-1.92 6.5-5.75 1.17-2.5 2.5-7.17 4-14 1.67-7.67 3.17-13.25 4.5-16.75 1.5-4.17 3.38-7.92 5.63-11.25s4.12-5 5.62-5 2.25 1.5 2.25 4.5c0 2.17-0.71 7-2.12 14.5-1.42 7.5-2.13 12.5-2.13 15 0 5.5 1.17 9.83 3.5 13s5.5 4.75 9.5 4.75c7.5 0 13.08-2.33 16.75-7 3-3.67 4.5-8.25 4.5-13.75 0-8.33-1.25-16.58-3.75-24.75l-1.25-3.75c0-2.83 0.92-6.83 2.75-12 0.5-1.17 0.83-1.75 1-1.75 0.5 0 0.92 0.5 1.25 1.5l0.25 0.75c2.83 5.67 5.04 14.29 6.63 25.88 1.58 11.58 3.79 19.7 6.62 24.37s7.17 7 13 7c4.67 0 7.83-1.75 9.5-5.25 0-1.17-1-3.75-3-7.75-5.5-10.5-8.83-20.83-10-31l-0.5-4.25-2-3.5c1.83-6.5 3.25-9.75 4.25-9.75 0.17 0 0.67 0.5 1.5 1.5 6.67 9.17 10 14.5 10 16-0.17 0.5-0.33 0.75-0.5 0.75-1 0-2.58-0.75-4.75-2.25-0.33 0-0.5 0.17-0.5 0.5 0.67 2.83 1.92 6.67 3.75 11.5 3.83 11.17 5.75 19.25 5.75 24.25s-0.75 9.42-2.25 13.25c-2.5 6.33-6.83 9.5-13 9.5-6.67 0-11.92-2.83-15.75-8.5-2.17-3.5-4.17-8.58-6-15.25-0.67 6.83-2.83 12.75-6.5 17.75-4.5 6-10.17 9-17 9z" fill="#ffffff"/>
            </g>
            <g id="path4" transform="matrix(.24 0 0 .24 -19.128 -73.1908)">
                <path id="path1179" d="m713.163 1932.92c-0.789 0-1.16-0.37-1.16-1.16s1.346-2.14 4.083-4.04c2.692-1.95 28.028-16.84 75.964-44.68 28.631-17.03 49.884-33.28 63.806-48.73-18.562-9.28-27.843-19.35-27.843-30.16 0-12.39 5.429-23.39 16.242-33.04 10.812-9.7 19.35-14.53 25.522-14.53l4.64 1.16c6.961 2.32 10.441 9.29 10.441 20.89 0 10.81-2.32 22.83-6.96 35.96 9.28 6.17 15.081 10.81 17.401 13.92 0 4.64-3.851 13.13-11.601 25.52-2.32-3.11-8.121-7.75-17.401-13.92-10.813 15.45-23.991 28.63-39.444 39.45-21.671 17.03-44.455 29.79-68.446 38.28l-34.803 12.76zm154.294-124.13 2.32-11.6c-0.789-10.07-4.269-15.08-10.441-15.08-1.531 0-4.455 0.97-8.678 2.92-4.269 1.9-6.403 4.04-6.403 6.36 0 4.64 7.749 10.44 23.202 17.4z" fill="#ffffff"/>
            </g>
            <g id="path27" transform="matrix(1.1137,0,0,1.1137,30.0811,292.704)">
                <path id="path1182" d="m63.25 182.25c-11.33 0-19.67-4.17-25-12.5-3.5-5.67-5.25-12.42-5.25-20.25 0-9.33 1.67-17.08 5-23.25 1.17-2.33 2-3.5 2.5-3.5 0.33 0 0.5 0.17 0.5 0.5 0 0.67-0.42 1.92-1.25 3.75-2.5 6.5-3.75 12.42-3.75 17.75s1.5 10.17 4.5 14.5c5 7.33 12.83 11 23.5 11 9.67 0 21.5-4.08 35.5-12.25 18-10.33 27-18.25 27-23.75 0-3-1.25-21.62-3.75-55.87s-3.75-53.25-3.75-57-0.67-6.96-2-9.63c0-1.33 1.25-4.75 3.75-10.25 0.33-0.5 0.58-0.75 0.75-0.75 0.67 0 4.17 8.25 10.5 24.75l0.25 2.5c0 0.5-0.17 0.75-0.5 0.75-0.83 0-2.58-1.42-5.25-4.25-0.17 0-0.25 0.33-0.25 1 4 54.17 6 82.92 6 86.25 0 11.5-0.92 20.33-2.75 26.5-1.33 4.5-3.5 8.42-6.5 11.75-4 4.83-10.92 10.58-20.75 17.25-14.83 10-27.83 15-39 15z" fill="#ffffff"/>
            </g>
            <g id="path14" transform="matrix(1.1137,0,0,1.1137,30.0811,292.704)">
                <path id="path1185" d="m42.5 141.75-0.25-0.75c1.17-7.33 1.92-12.96 2.25-16.87 0.33-3.92 0.71-20.96 1.13-51.13 0.41-30.17 0.79-47 1.12-50.5v-2.75c0-3.17-0.42-5.75-1.25-7.75 0.17-1.5 1.75-4.92 4.75-10.25 0.17-0.83 0.42-1.25 0.75-1.25 0.17 0 0.33 0.17 0.5 0.5s0.33 0.58 0.5 0.75l7 25.75 0.25 2.5c0 0.67-0.17 1-0.5 1-0.83-0.17-2.42-1.67-4.75-4.5l-0.25-0.5c-0.17 0.67-0.42 14.29-0.75 40.88-0.33 26.58-0.67 41.45-1 44.62-0.83 10-3.08 18.67-6.75 26l-1.75 3.5z" fill="#ffffff"/>
            </g>
        </g>
    </g>
</svg>
