<svg width="900" height="600" viewBox="0 0 238.125 158.75" xmlns="http://www.w3.org/2000/svg"><g transform="translate(335.75628,-22.097913)"><path fill="#fff" fill-rule="evenodd" stroke="#fff" stroke-width=".47" d="M-335.521 22.333H-97.86600000000001V180.613H-335.521z"/><g transform="translate(-0.4693679,0.93934199)"><g transform="matrix(0.88757397,0,0,0.88757397,-37.747745,19.392664)" stroke="#fff" fill="none" stroke-width=".265"><path d="m -293.6875,93.270833 c 0,0 26.45833,-51.842507 92.6114,-51.056584 66.1386,0.785751 92.59693,51.056584 92.59693,51.056584"/><path d="m -267.22917,63.240625 c 0,0 25.00379,-21.562765 65.88849,-21.290962 39.15087,0.260277 66.27089,21.820128 66.27089,21.820128"/><path d="m -277.8125,135.60396 c 0,0 33.76083,25.64961 76.43064,25.63876 43.26685,-0.0109 77.02769,-25.63876 77.02769,-25.63876"/><path d="m -293.6875,93.270833 h 185.20833"/><path d="m -293.6875,93.270833 c 0,0 26.45833,51.807337 92.6114,51.021947 66.1386,-0.78522 92.59693,-51.021947 92.59693,-51.021947"/><path d="M -201.08335,7.5458353 V 175.29168"/><path d="M -276.225,39.560417 V 153.86042"/><path d="m -125.94167,41.4125 v 114.3"/></g><g aria-label="LEAGUE OF NATIONS" transform="matrix(0.88757397,0,0,0.88757397,-37.747743,18.922991)" style="line-height:52.5%;-inkscape-font-specification:Sans" font-weight="400" font-size="23.283" font-family="'DIN Condensed',NORMA" letter-spacing="0" word-spacing="0" fill="#0c418c" stroke-width=".265"><path d="m -266.40211,62.489669 -9.58812,-13.523654 1.93738,-1.373579 8.21454,11.586276 3.83677,-2.720225 1.37358,1.937377 z" style="-inkscape-font-specification:'DIN Condensed, NORMA';font-variant-ligatures:normal;font-variant-caps:normal;font-variant-numeric:normal;font-feature-settings:normal;text-align:start"/><path d="m -259.29999,57.642748 -8.18003,-14.419031 6.15644,-3.492596 1.10292,1.944139 -4.09079,2.320738 2.40116,4.232553 3.56426,-2.022029 1.10292,1.944139 -3.56425,2.022029 2.40116,4.232552 4.09079,-2.320738 1.17186,2.065648 z" style="-inkscape-font-specification:'DIN Condensed, NORMA';font-variant-ligatures:normal;font-variant-caps:normal;font-variant-numeric:normal;font-feature-settings:normal;text-align:start"/><path d="m -249.82934,46.207044 -3.55846,-4.977741 -0.0423,0.01938 1.44133,5.946691 z m -2.92251,7.713427 -3.53267,-16.614653 1.79957,-0.823607 10.26517,13.533392 -2.15948,0.988329 -2.11764,-2.948536 -2.94282,1.34684 0.84735,3.529906 z" style="-inkscape-font-specification:'DIN Condensed, NORMA';font-variant-ligatures:normal;font-variant-caps:normal;font-variant-numeric:normal;font-feature-settings:normal;text-align:start"/><path d="m -247.50083,37.729663 q -0.33437,-0.943698 -0.26178,-1.784571 0.0726,-0.840874 0.45018,-1.518096 0.36342,-0.6475 0.93628,-1.122192 0.5948,-0.482467 1.27514,-0.723524 0.68034,-0.241056 1.42427,-0.232925 0.76588,3.54e-4 1.47784,0.26683 0.69778,0.296198 1.28359,0.903791 0.5858,0.607593 0.92017,1.551291 l 0.27994,0.790073 -2.23854,0.793153 -0.27994,-0.790073 q -0.28771,-0.812019 -0.88078,-1.021813 -0.57889,-0.239516 -1.19339,-0.02179 -0.61451,0.217728 -0.93541,0.776061 -0.30674,0.52861 -0.019,1.340629 l 2.92378,8.251871 q 0.28771,0.812019 0.86661,1.051535 0.59307,0.209794 1.20757,-0.0079 0.6145,-0.217728 0.92124,-0.746338 0.32091,-0.558333 0.0332,-1.370352 l -1.04198,-2.940826 -1.77766,0.629857 -0.69985,-1.975182 4.01621,-1.42301 1.74182,4.916008 q 0.34992,0.987591 0.26956,1.806518 -0.0804,0.818927 -0.44378,1.466427 -0.37759,0.677222 -0.9724,1.15969 -0.57286,0.474691 -1.2532,0.715748 -0.68034,0.241056 -1.44621,0.240701 -0.74393,-0.0081 -1.44172,-0.304328 -0.71196,-0.266476 -1.28999,-0.852123 -0.57803,-0.585646 -0.92795,-1.573237 z" style="-inkscape-font-specification:'DIN Condensed, NORMA';font-variant-ligatures:normal;font-variant-caps:normal;font-variant-numeric:normal;font-feature-settings:normal;text-align:start"/><path d="m -230.43195,28.437941 3.19254,12.449575 q 0.20242,0.789375 0.0827,1.541169 -0.10292,0.723456 -0.48863,1.375211 -0.38571,0.651755 -0.98713,1.118459 -0.60142,0.466704 -1.36824,0.663345 -0.76682,0.196642 -1.51862,0.07695 -0.72924,-0.125473 -1.38099,-0.511183 -0.65176,-0.38571 -1.11268,-0.964577 -0.4667,-0.601421 -0.66913,-1.390796 l -3.19253,-12.449575 2.30046,-0.589925 3.1347,12.224039 q 0.21978,0.857036 0.72985,1.158896 0.51007,0.30186 1.11901,0.145703 0.60895,-0.156156 0.91081,-0.666225 0.30186,-0.510069 0.0821,-1.367105 l -3.1347,-12.224039 z" style="-inkscape-font-specification:'DIN Condensed, NORMA';font-variant-ligatures:normal;font-variant-caps:normal;font-variant-numeric:normal;font-feature-settings:normal;text-align:start"/><path d="m -224.12289,44.058958 -2.77047,-16.344595 6.97859,-1.182896 0.37355,2.203766 -4.63709,0.786003 0.81324,4.797782 4.04023,-0.684835 0.37355,2.203766 -4.04024,0.684834 0.81324,4.797782 4.63709,-0.786003 0.3969,2.341501 z" style="-inkscape-font-specification:'DIN Condensed, NORMA';font-variant-ligatures:normal;font-variant-caps:normal;font-variant-numeric:normal;font-feature-settings:normal;text-align:start"/><path d="m -212.07307,29.610011 q -0.0473,-1.000066 0.26528,-1.784054 0.31257,-0.783988 0.86981,-1.323142 0.53508,-0.514797 1.22071,-0.803619 0.70888,-0.289922 1.42986,-0.324012 0.72097,-0.03409 1.43079,0.188749 0.73308,0.22174 1.3376,0.682652 0.58237,0.485269 0.96752,1.236266 0.38515,0.750997 0.43244,1.751063 l 0.41349,8.744764 q 0.0495,1.046581 -0.26419,1.807311 -0.31367,0.760731 -0.84875,1.275528 -0.55724,0.539154 -1.26612,0.829076 -0.68562,0.288822 -1.4066,0.322912 -0.72098,0.03409 -1.45405,-0.187649 -0.70982,-0.22284 -1.29219,-0.708109 -0.60453,-0.460912 -0.98858,-1.188652 -0.38405,-0.727739 -0.43354,-1.77432 z m 2.78573,8.632595 q 0.0407,0.860521 0.52563,1.25716 0.5071,0.372281 1.15831,0.34149 0.65121,-0.03079 1.09766,-0.448161 0.46861,-0.441726 0.42792,-1.302248 l -0.41349,-8.744764 q -0.0407,-0.860522 -0.54779,-1.232803 -0.48494,-0.396638 -1.13614,-0.365847 -0.65121,0.03079 -1.11982,0.472518 -0.44645,0.417369 -0.40576,1.277891 z" style="-inkscape-font-specification:'DIN Condensed, NORMA';font-variant-ligatures:normal;font-variant-caps:normal;font-variant-numeric:normal;font-feature-settings:normal;text-align:start"/><path d="m -201.42553,41.902327 0.58557,-16.567389 7.07372,0.25002 -0.079,2.233806 -4.70029,-0.166132 -0.17765,5.026062 4.09531,0.144748 -0.079,2.233805 -4.09531,-0.144748 -0.25002,7.073716 z" style="-inkscape-font-specification:'DIN Condensed, NORMA';font-variant-ligatures:normal;font-variant-caps:normal;font-variant-numeric:normal;font-feature-settings:normal;text-align:start"/><path d="m -188.62819,42.705958 2.64721,-16.365011 2.25248,0.364363 1.94461,10.432949 0.046,0.0074 1.59502,-9.860379 2.34442,0.379235 -2.64721,16.36501 -2.20651,-0.356927 -1.9943,-10.4174 -0.046,-0.0074 -1.59129,9.837394 z" style="-inkscape-font-specification:'DIN Condensed, NORMA';font-variant-ligatures:normal;font-variant-caps:normal;font-variant-numeric:normal;font-feature-settings:normal;text-align:start"/><path d="m -172.32519,40.021053 0.30511,-6.111256 -0.0452,-0.01113 -2.56598,5.554841 z m -7.08287,4.227407 7.55645,-15.212708 1.92174,0.472952 -0.36688,16.982104 -2.30609,-0.567542 0.17306,-3.626058 -3.14262,-0.773415 -1.52957,3.292209 z" style="-inkscape-font-specification:'DIN Condensed, NORMA';font-variant-ligatures:normal;font-variant-caps:normal;font-variant-numeric:normal;font-feature-settings:normal;text-align:start"/><path d="m -168.95168,47.017616 4.35761,-13.664535 -2.61755,-0.834737 0.6791,-2.129538 7.49775,2.391027 -0.67911,2.129538 -2.61755,-0.834737 -4.35761,13.664535 z" style="-inkscape-font-specification:'DIN Condensed, NORMA';font-variant-ligatures:normal;font-variant-caps:normal;font-variant-numeric:normal;font-feature-settings:normal;text-align:start"/><path d="m -163.03953,49.008619 5.8445,-15.513317 2.22242,0.837276 -5.84451,15.513316 z" style="-inkscape-font-specification:'DIN Condensed, NORMA';font-variant-ligatures:normal;font-variant-caps:normal;font-variant-numeric:normal;font-feature-settings:normal;text-align:start"/><path d="m -153.63187,39.021875 q 0.40837,-0.914112 1.04065,-1.473184 0.63228,-0.559073 1.37267,-0.789332 0.70964,-0.218499 1.45186,-0.167431 0.76348,0.06056 1.42249,0.354973 0.65901,0.294407 1.1923,0.81316 0.55454,0.52825 0.88656,1.212102 0.30127,0.695614 0.30675,1.539597 0.005,0.843983 -0.4029,1.758095 l -3.57088,7.993165 q -0.42737,0.956629 -1.05015,1.494443 -0.62278,0.537814 -1.33242,0.756313 -0.74039,0.23026 -1.50387,0.169695 -0.74222,-0.05107 -1.40123,-0.345476 -0.65901,-0.294407 -1.21355,-0.822657 -0.53329,-0.518754 -0.83456,-1.214367 -0.33202,-0.683852 -0.34699,-1.506577 -0.015,-0.822725 0.41239,-1.779353 z m -1.40252,8.961861 q -0.35139,0.786562 -0.0972,1.359154 0.28498,0.56083 0.88022,0.826747 0.59523,0.265916 1.18185,0.09446 0.61737,-0.183214 0.96876,-0.969775 l 3.57088,-7.993166 q 0.35139,-0.786561 0.0664,-1.347391 -0.25422,-0.572592 -0.84946,-0.838509 -0.59523,-0.265916 -1.2126,-0.0827 -0.58662,0.171453 -0.93801,0.958014 z" style="-inkscape-font-specification:'DIN Condensed, NORMA';font-variant-ligatures:normal;font-variant-caps:normal;font-variant-numeric:normal;font-feature-settings:normal;text-align:start"/><path d="m -149.73016,54.716246 8.01477,-14.511537 1.99738,1.103156 -1.6904,10.477141 0.0408,0.02251 4.82912,-8.743609 2.0789,1.148183 -8.01477,14.511538 -1.95661,-1.080644 1.63837,-10.479273 -0.0408,-0.02251 -4.81787,8.723228 z" style="-inkscape-font-specification:'DIN Condensed, NORMA';font-variant-ligatures:normal;font-variant-caps:normal;font-variant-numeric:normal;font-feature-settings:normal;text-align:start"/><path d="m -127.63687,54.455562 -1.95845,-1.343369 0.30292,-0.44161 q 0.46096,-0.672016 0.46381,-1.375922 0.0352,-0.709936 -0.7136,-1.223578 -0.40321,-0.276576 -0.75817,-0.294186 -0.35497,-0.01761 -0.66662,0.107433 -0.32482,0.144243 -0.60631,0.43114 -0.26833,0.267696 -0.50539,0.613304 -0.27658,0.40321 -0.44176,0.685186 -0.14599,0.295147 -0.17566,0.585374 -0.0297,0.290226 0.0762,0.588703 0.12504,0.311647 0.40368,0.728656 l 1.08936,1.622497 q 0.4816,0.697396 0.64775,1.31958 0.17931,0.602983 0.1068,1.202637 -0.10488,0.605684 -0.43636,1.253579 -0.31831,0.628695 -0.83195,1.377512 -0.59266,0.86402 -1.27911,1.494305 -0.67327,0.611084 -1.41288,0.86609 -0.77198,0.261037 -1.63552,0.120454 -0.86354,-0.140583 -1.80436,-0.785927 -0.71041,-0.487301 -1.15361,-1.158356 -0.4432,-0.671055 -0.5819,-1.415582 -0.13869,-0.744527 -0.0124,-1.504924 0.15867,-0.766428 0.6328,-1.457644 l 0.50048,-0.729617 1.95844,1.34337 -0.42145,0.614414 q -0.36877,0.537613 -0.36448,1.189947 0.0367,0.646305 0.78548,1.159947 0.49921,0.342427 0.86021,0.392408 0.39337,0.04395 0.73136,-0.119493 0.33799,-0.163444 0.60742,-0.515082 0.30181,-0.357669 0.6179,-0.818479 0.36876,-0.537613 0.56743,-0.909561 0.19866,-0.371949 0.22833,-0.662176 0.0105,-0.303397 -0.12774,-0.595843 -0.11901,-0.279276 -0.37846,-0.683116 l -1.00652,-1.537444 q -0.91163,-1.387651 -0.77375,-2.535388 0.17025,-1.153766 1.05266,-2.440196 0.52681,-0.768018 1.21215,-1.314361 0.68533,-0.546343 1.45017,-0.755808 0.74564,-0.222635 1.55761,-0.08919 0.84434,0.127413 1.70836,0.720076 0.72961,0.500471 1.14044,1.177556 0.43003,0.690256 0.56873,1.434783 0.25104,1.527454 -0.56552,2.717882 z" style="-inkscape-font-specification:'DIN Condensed, NORMA';font-variant-ligatures:normal;font-variant-caps:normal;font-variant-numeric:normal;font-feature-settings:normal;text-align:start"/></g><g aria-label="SOCIÉTÉ DES NATIONS" transform="matrix(0.88752084,-0.00971152,0.00971152,0.88752084,-38.719891,17.290232)" style="line-height:52.5%;-inkscape-font-specification:Sans" font-weight="400" font-size="22.225" font-family="'DIN Condensed',NORMA" letter-spacing=".794" word-spacing="0" fill="#0c418c" stroke-width=".265"><path d="m -264.65558,130.92008 -1.88979,-1.25209 0.28233,-0.42613 q 0.42964,-0.64846 0.42156,-1.32033 0.0227,-0.67811 -0.69985,-1.15685 -0.38908,-0.25779 -0.72814,-0.26915 -0.33905,-0.0114 -0.63458,0.11277 -0.3078,0.14265 -0.57206,0.42079 -0.25199,0.25961 -0.47295,0.59311 -0.25778,0.38907 -0.41111,0.66073 -0.1348,0.28394 -0.15867,0.56139 -0.0239,0.27745 0.0817,0.5607 0.12412,0.29553 0.39647,0.68925 l 1.0646,1.53183 q 0.47035,0.65822 0.63847,1.2495 0.1804,0.57275 0.12039,1.14619 -0.0908,0.57968 -0.39723,1.20314 -0.29416,0.60492 -0.7729,1.32749 -0.55239,0.83373 -1.19788,1.44582 -0.63321,0.59357 -1.33519,0.8483 -0.73279,0.26098 -1.55913,0.14006 -0.82634,-0.12093 -1.73418,-0.72242 -0.68552,-0.45419 -1.11881,-1.08786 -0.4333,-0.63367 -0.5771,-1.34213 -0.14379,-0.70847 -0.0349,-1.43615 0.13968,-0.73393 0.5816,-1.40091 l 0.46646,-0.70404 1.8898,1.25209 -0.39281,0.59287 q -0.34371,0.51877 -0.32961,1.14131 0.0449,0.61628 0.76748,1.09502 0.48171,0.31916 0.82702,0.36133 0.37612,0.0359 0.69619,-0.12527 0.32008,-0.16118 0.57184,-0.50093 0.28256,-0.346 0.57717,-0.79065 0.34371,-0.51877 0.52761,-0.87682 0.18391,-0.35804 0.20777,-0.63549 0.005,-0.28973 -0.13106,-0.56673 -0.11788,-0.26472 -0.37169,-0.64617 l -0.98424,-1.45193 q -0.89138,-1.31042 -0.77739,-2.40796 0.14479,-1.10379 0.96724,-2.34513 0.49102,-0.74109 1.13673,-1.27305 0.64572,-0.53196 1.37248,-0.74361 0.70824,-0.22393 1.48525,-0.10903 0.80781,0.10865 1.64154,0.66104 0.70404,0.46646 1.10654,1.10639 0.42102,0.65219 0.56482,1.36066 0.26304,1.45398 -0.49804,2.60268 z" style="-inkscape-font-specification:'DIN Condensed, NORMA';font-variant-ligatures:normal;font-variant-caps:normal;font-variant-numeric:normal;font-feature-settings:normal;text-align:start"/><path d="m -262.94768,130.95664 q 0.4653,-0.83475 1.11359,-1.31306 0.64828,-0.47831 1.37166,-0.63486 0.69315,-0.14797 1.39457,-0.0369 0.72083,0.12191 1.32262,0.45736 0.6018,0.33545 1.06515,0.87362 0.48277,0.54899 0.74085,1.22719 0.22785,0.68678 0.16195,1.48972 -0.0659,0.80294 -0.53121,1.63769 l -4.06868,7.29921 q -0.48695,0.87358 -1.12441,1.33247 -0.63747,0.4589 -1.33061,0.60686 -0.72339,0.15656 -1.44421,0.0346 -0.70142,-0.11109 -1.30322,-0.44654 -0.60179,-0.33545 -1.08456,-0.88444 -0.46335,-0.53817 -0.6912,-1.22495 -0.25808,-0.6782 -0.203,-1.46172 0.0551,-0.78353 0.54202,-1.6571 z m -2.08858,8.40296 q -0.40038,0.71827 -0.2069,1.28412 0.22372,0.55726 0.76727,0.86025 0.54356,0.30298 1.11578,0.18939 0.60244,-0.12219 1.00282,-0.84047 l 4.06869,-7.29921 q 0.40037,-0.71828 0.17666,-1.27554 -0.19348,-0.56585 -0.73704,-0.86883 -0.54356,-0.30299 -1.146,-0.1808 -0.57222,0.1136 -0.97259,0.83187 z" style="-inkscape-font-specification:'DIN Condensed, NORMA';font-variant-ligatures:normal;font-variant-caps:normal;font-variant-numeric:normal;font-feature-settings:normal;text-align:start"/><path d="m -251.26621,145.49253 -0.41893,0.88362 q -0.3142,0.66272 -0.8609,1.14141 -0.5171,0.46814 -1.1779,0.72056 -0.66079,0.25243 -1.39656,0.24795 -0.70616,-0.015 -1.38896,-0.33876 -0.58238,-0.27611 -1.10868,-0.7224 -0.52631,-0.44629 -0.81786,-1.07644 -0.29155,-0.63016 -0.31772,-1.40505 0.003,-0.78545 0.46998,-1.76948 l 3.73227,-7.87227 q 0.33324,-0.70288 0.85986,-1.1911 0.52662,-0.48821 1.17789,-0.72056 0.65128,-0.23234 1.368,-0.1877 0.74633,0.0341 1.48937,0.38636 1.44593,0.68552 1.90214,2.05784 0.22283,0.67136 0.15914,1.42825 -0.0341,0.74632 -0.38636,1.48937 l -0.38085,0.80329 -2.04839,-0.97115 0.32371,-0.6828 q 0.28564,-0.60247 0.1537,-1.20614 -0.13193,-0.60367 -0.71432,-0.87978 -0.76313,-0.3618 -1.25271,-0.004 -0.45997,0.34764 -0.80273,1.0706 l -3.46568,7.30997 q -0.29515,0.62255 -0.23402,1.16805 0.0812,0.55502 0.78409,0.88826 0.20082,0.0952 0.45029,0.1397 0.27907,0.0339 0.55606,-0.0315 0.25691,-0.075 0.5107,-0.299 0.25379,-0.22402 0.45373,-0.64575 l 0.33324,-0.70288 z" style="-inkscape-font-specification:'DIN Condensed, NORMA';font-variant-ligatures:normal;font-variant-caps:normal;font-variant-numeric:normal;font-feature-settings:normal;text-align:start"/><path d="m -250.71547,150.60184 6.06167,-14.61717 2.09403,0.86839 -6.06166,14.61716 z" style="-inkscape-font-specification:'DIN Condensed, NORMA';font-variant-ligatures:normal;font-variant-caps:normal;font-variant-numeric:normal;font-feature-settings:normal;text-align:start"/><path d="m -245.86214,152.58781 5.34508,-14.89415 6.3593,2.28217 -0.72069,2.0082 -4.22558,-1.51644 -1.569,4.37202 3.6817,1.32125 -0.72068,2.0082 -3.6817,-1.32125 -1.56899,4.37201 4.22558,1.51644 -0.76573,2.13372 z m 7.30065,-14.94796 2.94119,-2.2739 2.25922,0.81077 -3.81978,1.9586 z" style="-inkscape-font-specification:'DIN Condensed, NORMA';font-variant-ligatures:normal;font-variant-caps:normal;font-variant-numeric:normal;font-feature-settings:normal;text-align:start"/><path d="m -235.92946,155.95108 3.82857,-13.14438 -2.51791,-0.73339 0.59666,-2.04848 7.21233,2.10075 -0.59666,2.04847 -2.51791,-0.7334 -3.82858,13.14438 z" style="-inkscape-font-specification:'DIN Condensed, NORMA';font-variant-ligatures:normal;font-variant-caps:normal;font-variant-numeric:normal;font-feature-settings:normal;text-align:start"/><path d="m -229.49004,157.74584 3.42701,-15.44866 6.59605,1.46322 -0.46207,2.08296 -4.3829,-0.97227 -1.00596,4.53479 3.81876,0.84713 -0.46206,2.08296 -3.81877,-0.84713 -1.00596,4.53479 4.3829,0.97227 -0.49095,2.21315 z m 5.36023,-15.7483 2.63144,-2.62616 2.34334,0.51982 -3.54274,2.42401 z" style="-inkscape-font-specification:'DIN Condensed, NORMA';font-variant-ligatures:normal;font-variant-caps:normal;font-variant-numeric:normal;font-feature-settings:normal;text-align:start"/><path d="m -215.82155,160.35174 1.54303,-15.74879 3.33999,0.32724 q 1.94647,0.19071 2.83781,1.34995 0.91345,1.16141 0.72274,3.10789 l -0.72167,7.36566 q -0.21672,2.2119 -1.40458,3.16743 -1.16358,0.93557 -3.17641,0.73836 z m 3.59113,-13.40431 -1.12694,11.50193 1.0396,0.10185 q 0.95112,0.0932 1.39478,-0.3323 0.44582,-0.44761 0.54551,-1.46509 l 0.74334,-7.58684 q 0.091,-0.92901 -0.23515,-1.47459 -0.32618,-0.54558 -1.32154,-0.6431 z" style="-inkscape-font-specification:'DIN Condensed, NORMA';font-variant-ligatures:normal;font-variant-caps:normal;font-variant-numeric:normal;font-feature-settings:normal;text-align:start"/><path d="m -205.5998,161.20352 0.17177,-15.82327 6.756,0.0733 -0.0232,2.13347 -4.48918,-0.0487 -0.0504,4.64475 3.91137,0.0425 -0.0232,2.13348 -3.91137,-0.0425 -0.0504,4.64475 4.48918,0.0487 -0.0246,2.26682 z" style="-inkscape-font-specification:'DIN Condensed, NORMA';font-variant-ligatures:normal;font-variant-caps:normal;font-variant-numeric:normal;font-feature-settings:normal;text-align:start"/><path d="m -190.11182,149.41379 -2.26084,0.16628 -0.0375,-0.50979 q -0.0571,-0.77578 -0.47462,-1.3022 -0.39703,-0.55021 -1.26147,-0.48663 -0.46546,0.0342 -0.74057,0.23275 -0.2751,0.19852 -0.43286,0.47754 -0.15613,0.30119 -0.19491,0.68289 -0.0404,0.35953 -0.0111,0.7585 0.0342,0.46547 0.0792,0.77415 0.0671,0.30705 0.21807,0.54109 0.15093,0.23403 0.40779,0.39342 0.27902,0.15776 0.73536,0.30248 l 1.77942,0.55996 q 0.77481,0.23271 1.26962,0.59745 0.49318,0.34257 0.79666,0.83281 0.28294,0.51403 0.42214,1.19463 0.13757,0.65843 0.20115,1.52287 0.0734,0.99743 -0.0625,1.87654 -0.13754,0.85695 -0.53683,1.48801 -0.41982,0.65486 -1.14735,1.06493 -0.72753,0.41007 -1.81362,0.48996 -0.82011,0.0603 -1.55059,-0.17566 -0.73047,-0.23598 -1.27777,-0.70828 -0.54729,-0.47231 -0.90651,-1.11444 -0.33868,-0.66592 -0.39737,-1.46387 l -0.0619,-0.84227 2.26084,-0.16629 0.0522,0.70929 q 0.0456,0.62062 0.43778,1.10433 0.41268,0.45992 1.27712,0.39634 0.57629,-0.0424 0.87519,-0.22036 0.31943,-0.20178 0.47393,-0.52513 0.1545,-0.32336 0.14569,-0.74612 0.0117,-0.44657 -0.0274,-0.97853 -0.0456,-0.62062 -0.11932,-1.01634 -0.0737,-0.39571 -0.2246,-0.62974 -0.17309,-0.23241 -0.45048,-0.368 -0.25523,-0.13722 -0.68941,-0.28357 l -1.66696,-0.54594 q -1.50692,-0.49087 -2.08845,-1.42864 -0.56099,-0.96156 -0.67022,-2.44663 -0.0652,-0.8866 0.11992,-1.70248 0.18512,-0.81588 0.63037,-1.42803 0.42308,-0.61053 1.10791,-0.99518 0.70537,-0.40844 1.7028,-0.4818 0.84227,-0.0619 1.55222,0.19782 0.7321,0.25815 1.2794,0.73045 1.09785,0.98893 1.19892,2.36317 z" style="-inkscape-font-specification:'DIN Condensed, NORMA';font-variant-ligatures:normal;font-variant-caps:normal;font-variant-numeric:normal;font-feature-settings:normal;text-align:start"/><path d="m -182.03277,159.64286 -3.12309,-15.51295 2.13521,-0.42986 5.23708,8.67149 0.0436,-0.009 -1.88175,-9.34699 2.22237,-0.4474 3.12308,15.51295 -2.09163,0.42109 -5.27627,-8.64093 -0.0436,0.009 1.87736,9.3252 z" style="-inkscape-font-specification:'DIN Condensed, NORMA';font-variant-ligatures:normal;font-variant-caps:normal;font-variant-numeric:normal;font-feature-settings:normal;text-align:start"/><path d="m -168.61255,150.81754 -2.6092,-5.22555 -0.0428,0.0119 0.46821,5.82194 z m -3.91026,6.83397 -0.84217,-16.19209 1.81983,-0.50693 7.65051,14.29554 -2.1838,0.60833 -1.55478,-3.09679 -2.97597,0.82899 0.27019,3.45462 z" style="-inkscape-font-specification:'DIN Condensed, NORMA';font-variant-ligatures:normal;font-variant-caps:normal;font-variant-numeric:normal;font-feature-settings:normal;text-align:start"/><path d="m -161.86367,154.489 -4.45497,-12.94549 -2.47982,0.85339 -0.69428,-2.01748 7.10321,-2.44445 0.69428,2.01748 -2.47982,0.85339 4.45497,12.94549 z" style="-inkscape-font-specification:'DIN Condensed, NORMA';font-variant-ligatures:normal;font-variant-caps:normal;font-variant-numeric:normal;font-feature-settings:normal;text-align:start"/><path d="m -155.51451,152.19351 -5.83047,-14.71091 2.10746,-0.83526 5.83048,14.71091 z" style="-inkscape-font-specification:'DIN Condensed, NORMA';font-variant-ligatures:normal;font-variant-caps:normal;font-variant-numeric:normal;font-feature-settings:normal;text-align:start"/><path d="m -155.79008,139.30787 q -0.39714,-0.86925 -0.3987,-1.67489 -0.002,-0.80563 0.30062,-1.48126 0.29121,-0.64618 0.79607,-1.14562 0.52507,-0.50868 1.15173,-0.795 0.62667,-0.28631 1.33472,-0.34102 0.72826,-0.064 1.42759,0.12967 0.68835,0.22307 1.29636,0.75162 0.60802,0.52856 1.00516,1.39781 l 3.47271,7.60086 q 0.41562,0.90967 0.40794,1.6951 -0.008,0.78542 -0.29888,1.43159 -0.30219,0.67563 -0.82726,1.18431 -0.50485,0.49945 -1.13152,0.78576 -0.62667,0.28631 -1.35493,0.35026 -0.70805,0.0547 -1.3964,-0.16835 -0.69933,-0.19362 -1.2981,-0.70196 -0.59878,-0.50835 -1.0144,-1.41802 z m 5.53465,6.65879 q 0.34173,0.74796 0.91228,0.92711 0.58152,0.1497 1.14754,-0.1089 0.56603,-0.25861 0.81332,-0.78698 0.25827,-0.55783 -0.0835,-1.30579 l -3.47271,-7.60086 q -0.34173,-0.74795 -0.92326,-0.89765 -0.57055,-0.17916 -1.13657,0.0795 -0.56602,0.25861 -0.82429,0.81643 -0.24729,0.52838 0.0944,1.27633 z" style="-inkscape-font-specification:'DIN Condensed, NORMA';font-variant-ligatures:normal;font-variant-caps:normal;font-variant-numeric:normal;font-feature-settings:normal;text-align:start"/><path d="m -141.43008,145.94529 -7.54382,-13.91028 1.91461,-1.03834 7.55406,6.74967 0.0391,-0.0212 -4.54537,-8.38134 1.99277,-1.08072 7.54382,13.91029 -1.87554,1.01714 -7.58253,-6.70894 -0.0391,0.0212 4.53477,8.36181 z" style="-inkscape-font-specification:'DIN Condensed, NORMA';font-variant-ligatures:normal;font-variant-caps:normal;font-variant-numeric:normal;font-feature-settings:normal;text-align:start"/><path d="m -131.96903,127.2918 -1.90639,1.22666 -0.27661,-0.42987 q -0.42091,-0.65416 -1.0393,-0.91697 -0.61172,-0.29353 -1.34064,0.17549 -0.39249,0.25255 -0.53925,0.55841 -0.14677,0.30586 -0.15197,0.62636 0.007,0.33918 0.15519,0.69299 0.13634,0.33512 0.35281,0.67154 0.25255,0.3925 0.43961,0.64213 0.20574,0.23761 0.45017,0.37105 0.24443,0.13343 0.54623,0.15067 0.32049,0.005 0.79051,-0.0858 l 1.83064,-0.35865 q 0.79181,-0.16591 1.40077,-0.082 0.59694,0.0652 1.09782,0.35075 0.49422,0.31628 0.94179,0.84757 0.43555,0.5126 0.90456,1.24152 0.54118,0.84106 0.84199,1.67821 0.28878,0.81846 0.23968,1.56362 -0.0558,0.77587 -0.49881,1.4838 -0.44305,0.70793 -1.35887,1.29721 -0.69154,0.44497 -1.44596,0.58683 -0.75443,0.14187 -1.4609,-0.0114 -0.70648,-0.15327 -1.32893,-0.54561 -0.61578,-0.42306 -1.04872,-1.0959 l -0.45699,-0.71023 1.9064,-1.22666 0.38483,0.59808 q 0.33674,0.52333 0.91238,0.76078 0.58231,0.20674 1.31123,-0.26228 0.48594,-0.31267 0.66342,-0.61187 0.18414,-0.32991 0.1653,-0.68779 -0.0188,-0.35787 -0.22865,-0.72501 -0.20314,-0.39785 -0.49177,-0.84642 -0.33673,-0.52332 -0.59058,-0.83569 -0.25385,-0.31238 -0.49828,-0.44581 -0.26312,-0.12141 -0.57158,-0.10793 -0.28978,0.001 -0.7411,0.0804 l -1.72517,0.3172 q -1.55826,0.28909 -2.51728,-0.25668 -0.95236,-0.57648 -1.75811,-1.82872 -0.48104,-0.74761 -0.70839,-1.55274 -0.22735,-0.80514 -0.12885,-1.55566 0.0798,-0.73849 0.49751,-1.40368 0.42436,-0.69591 1.26542,-1.23708 0.71023,-0.45699 1.45799,-0.56814 0.76645,-0.12317 1.47293,0.0301 1.437,0.34393 2.18262,1.50272 z" style="-inkscape-font-specification:'DIN Condensed, NORMA';font-variant-ligatures:normal;font-variant-caps:normal;font-variant-numeric:normal;font-feature-settings:normal;text-align:start"/></g><path d="m -216.22408,75.171141 -26.88886,19.608912 10.68509,31.703017 32.52496,-0.11741 10.33285,-31.468189 z" fill="#0c418c" fill-rule="evenodd" stroke="#0c418c" stroke-width=".47"/><path d="m -216.22408,75.171142 -4.4619,22.426959 -22.42696,-2.81805 19.72633,10.919939 -9.04124,20.78308 16.20377,-15.49925 16.32119,15.38184 -9.27607,-20.66567 19.60892,-10.80252 -22.42696,2.583213 z" fill="#fff" fill-rule="evenodd" stroke="#0c418c" stroke-width=".47"/><path d="m -216.22408,95.014891 -1.76128,5.988349 -6.22318,-0.11742 5.16642,3.52256 -2.23096,6.22318 4.93159,-4.10964 5.049,4.22707 -2.23096,-6.10577 5.04901,-3.7574 -5.87093,0.11742 z" fill="#0c418c" fill-rule="evenodd" stroke="#0c418c" stroke-width=".47"/></g></g></svg>