<?xml version="1.0" encoding="UTF-8" standalone="no"?>
<svg
   xmlns:dc="http://purl.org/dc/elements/1.1/"
   xmlns:cc="http://creativecommons.org/ns#"
   xmlns:rdf="http://www.w3.org/1999/02/22-rdf-syntax-ns#"
   xmlns:svg="http://www.w3.org/2000/svg"
   xmlns="http://www.w3.org/2000/svg"
   xmlns:sodipodi="http://sodipodi.sourceforge.net/DTD/sodipodi-0.dtd"
   xmlns:inkscape="http://www.inkscape.org/namespaces/inkscape"
   width="1599.9999"
   height="1000"
   viewBox="0 0 724 433"
   version="1.0"
   id="svg2"
   sodipodi:version="0.32"
   inkscape:version="0.46"
   sodipodi:docname="Flag_of_Hamas.svg"
   inkscape:output_extension="org.inkscape.output.svg.inkscape">
  <metadata
     id="metadata155">
    <rdf:RDF>
      <cc:Work
         rdf:about="">
        <dc:format>image/svg+xml</dc:format>
        <dc:type
           rdf:resource="http://purl.org/dc/dcmitype/StillImage" />
      </cc:Work>
    </rdf:RDF>
  </metadata>
  <defs
     id="defs153">
    <inkscape:perspective
       sodipodi:type="inkscape:persp3d"
       inkscape:vp_x="0 : 500 : 1"
       inkscape:vp_y="0 : 1000 : 0"
       inkscape:vp_z="1599.9999 : 500 : 1"
       inkscape:persp3d-origin="799.99994 : 333.33333 : 1"
       id="perspective82" />
  </defs>
  <sodipodi:namedview
     inkscape:window-height="750"
     inkscape:window-width="1280"
     inkscape:pageshadow="2"
     inkscape:pageopacity="0.0"
     guidetolerance="10000"
     gridtolerance="10000"
     objecttolerance="10000"
     borderopacity="1.0"
     bordercolor="#666666"
     pagecolor="#ffffff"
     id="base"
     showgrid="false"
     inkscape:showpageshadow="false"
     inkscape:snap-global="false"
     inkscape:snap-intersection-grid-guide="false"
     inkscape:zoom="0.32250003"
     inkscape:cx="799.99994"
     inkscape:cy="500.03206"
     inkscape:window-x="-8"
     inkscape:window-y="-8"
     inkscape:current-layer="svg2" />
  <path
     style="fill:#007f00;fill-opacity:1;stroke:none;stroke-width:0.09375"
     d="M -3.5718745e-05,-9.75004 L 724.00004,-9.75004 L 724.00004,442.75004 L -3.5718745e-05,442.75004 L -3.5718745e-05,-9.75004 z"
     id="path4" />
  <path
     style="fill:#ffffff;stroke:#ffffff;stroke-width:0.00003374"
     d="M 817 206.59375 C 814.12708 216.98048 812.37278 227.57752 812.59375 238.40625 C 811.48878 294.09678 809.05579 349.99463 809.71875 405.90625 C 800.87897 404.13817 790.70353 404.58961 782.96875 398.84375 C 774.57095 391.5509 774.80143 379.4135 772.8125 369.46875 C 771.92852 335.21457 793.59138 306.02639 796.90625 272.65625 C 755.35928 307.13127 751.37744 369.22134 708.0625 402.8125 C 687.06811 391.32071 685.52447 364.37172 686.1875 343.15625 C 686.85056 337.18928 685.94389 328.57392 691.46875 324.375 C 706.93843 312.88321 723.09287 302.49169 738.5625 291 C 742.9824 293.20985 747.16937 295.42628 752.03125 296.53125 C 763.96499 287.02848 751.8016 270.22153 746.71875 260.71875 C 744.95078 260.93972 741.20546 261.62276 739.4375 261.84375 C 734.5756 271.56739 731.04262 281.71152 726.84375 291.65625 C 716.4571 303.58986 702.1034 310.88568 688.84375 319.0625 C 688.18084 315.52651 687.28803 308.25466 686.625 304.71875 C 674.24947 334.55291 670.04642 368.33529 677.78125 399.9375 C 681.53823 411.87108 685.72482 425.15142 697.4375 431.78125 C 712.68618 434.65406 722.21165 421.39347 729.0625 410.34375 C 749.17299 377.19455 757.98982 338.72945 780.53125 306.90625 C 769.92353 343.37023 746.27812 381.16974 761.96875 419.84375 C 773.46048 435.75523 794.25348 437.75451 812.375 437.3125 C 818.12087 464.4947 815.01798 491.88018 813.25 519.0625 C 833.58149 489.89134 826.94162 451.89695 832.6875 418.96875 C 844.40023 400.40511 853.46167 380.71096 860.3125 359.9375 C 862.08047 373.41813 861.19631 387.14434 863.40625 400.625 C 870.03601 423.38722 897.9028 437.73945 919.78125 426.46875 C 931.93583 416.74487 931.70284 399.07441 936.34375 385.59375 C 942.31054 392.66543 948.73192 399.2942 953.59375 407.25 C 980.99697 449.23876 1007.9557 492.31943 1043.0938 528.5625 C 1033.3691 552.65094 1015.6879 572.77089 1009.5 598.40625 C 981.65459 600.61624 953.8163 602.17196 925.75 600.625 C 881.55095 598.19401 837.3529 601.70563 793.375 596.84375 C 810.17062 576.07032 833.80458 562.61242 856.125 548.46875 C 882.2023 531.23132 914.47186 527.2355 938.78125 507.125 C 946.95793 497.84331 950.72516 486.14125 956.25 475.3125 C 939.01231 461.83171 918.89416 444.80557 895.46875 448.5625 C 880.88305 455.85514 867.18957 470.88517 870.0625 488.34375 C 873.15636 495.63666 877.33007 502.49517 881.75 509.125 C 853.6837 526.58364 824.09286 542.26884 799.5625 565.03125 C 781.88293 580.94289 772.36861 603.7063 766.84375 626.46875 C 806.62277 628.89969 846.41072 625.58689 885.96875 629.34375 C 864.53229 638.84654 840.66848 641.7113 821 654.75 C 803.09946 667.3466 797.1228 690.13277 797.34375 710.90625 C 773.03438 699.41449 757.33494 674.20461 755.125 647.90625 C 751.58907 601.27646 748.48517 553.98688 734.5625 509.125 C 729.47973 491.22453 725.50729 472.66162 715.5625 456.75 C 710.25874 472.88247 702.9686 489.44769 706.0625 506.90625 C 708.93551 519.28203 715.34136 530.34306 718.65625 542.71875 C 725.50718 570.12204 732.37919 597.53194 738.125 625.15625 C 739.67195 632.44902 737.21461 640.17159 731.46875 644.8125 C 708.0434 673.54174 684.20476 702.04785 654.8125 725.03125 C 644.86786 734.75495 630.72171 732.97997 618.125 731.875 C 631.38473 718.17329 649.50814 710.90247 664.09375 698.96875 C 691.71814 681.06815 708.04297 644.1379 697.65625 612.09375 C 694.56241 603.47492 698.10719 594.65228 696.78125 585.8125 C 690.81447 576.75173 683.07182 569.02054 676 560.84375 C 670.91719 569.46254 663.41523 578.08425 662.53125 588.25 C 672.69708 607.91846 687.05577 627.13931 687.71875 650.34375 C 687.05582 656.97358 680.88862 660.96184 676.46875 664.71875 C 651.27543 681.73526 625.8453 698.28056 598 710.65625 C 596.8952 702.70039 596.00678 694.55184 595.34375 686.375 C 620.09527 673.11531 645.52543 660.72166 670.71875 648.125 C 670.49789 646.35697 670.49998 642.61171 670.5 640.84375 C 645.52769 654.10344 620.09737 665.80283 595.125 679.0625 C 597.11414 665.36074 599.75881 651.67041 601.96875 637.96875 C 608.81969 644.15661 618.33877 652.99366 628.0625 647.46875 C 646.40511 629.56826 653.47773 602.16212 652.59375 576.96875 C 640.66011 586.25056 637.55833 601.71135 631.8125 614.75 C 627.61372 617.84393 621.88193 615.43538 618.125 612.5625 C 616.57808 605.93264 616.78574 598.84856 616.34375 592.21875 C 605.07315 602.16345 595.56338 617.83909 580.09375 621.375 C 564.8453 622.25902 560.65398 605.2462 560.875 593.3125 C 551.37244 599.05836 542.09651 605.03764 532.59375 610.5625 C 521.7652 595.97684 507.84273 574.55111 486.40625 578.75 C 473.58847 581.84387 468.73461 596.64004 464.09375 607.46875 C 459.45285 619.84448 453.26709 639.50173 466.96875 648.5625 C 483.32224 658.28627 502.3272 650.1029 519.34375 646.125 C 516.02907 660.48961 510.03865 675.9749 497 684.59375 C 467.16567 706.47206 435.7899 727.01258 401.09375 741.15625 C 385.84512 748.00701 369.04765 752.2115 355.125 762.15625 C 377.22449 763.04023 399.78453 763.03608 421 756.40625 C 443.54142 751.10239 461.65744 735.63467 480 722.375 C 497.01647 708.01031 516.44823 694.09498 524.625 672.4375 C 531.47605 658.29389 534.12446 642.16365 543.40625 629.125 C 550.25728 636.85976 554.01055 649.66506 565.28125 651.875 C 582.74002 656.95789 591.13778 637.30851 602.1875 628.46875 C 594.89479 649.68421 587.41074 671.54787 586.96875 694.53125 C 584.98 701.82401 588.0494 711.12241 583.1875 717.53125 C 572.57996 726.81296 559.3422 732.11563 547.1875 739.1875 C 530.8341 748.6902 511.82907 752.44821 494.8125 760.625 C 528.18257 767.91782 560.64333 752.43784 592.6875 746.25 C 601.74846 752.65886 608.60426 763.04006 619.875 765.25 C 644.62649 767.23897 665.18213 750.45183 681.09375 733.65625 C 704.74026 709.56779 726.40329 683.03973 739 651.4375 C 742.09389 641.49281 742.97531 630.8845 745.40625 620.71875 C 747.61617 641.05021 747.38154 661.60603 749.8125 681.9375 C 757.54726 729.45128 808.15811 760.84621 854.125 757.53125 C 854.125 747.8075 853.90849 738.06751 853.6875 728.34375 C 835.56595 719.28293 813.24363 709.56144 807.71875 688.125 C 809.48673 680.8321 816.78088 677.09168 822.96875 674.21875 C 856.33892 660.29613 891.48688 650.76608 926.625 643.03125 C 925.96191 652.53403 925.50222 662.05976 925.28125 671.5625 C 928.15408 671.78342 930.81459 672.21426 933.6875 672.65625 C 934.12935 671.5512 935.02676 669.35495 935.46875 668.25 C 932.81677 659.63124 931.70094 650.55855 930.375 641.71875 C 949.38046 636.41489 968.61948 633.76586 987.625 629.125 C 995.80168 628.46199 1002.1916 623.36412 1007.9375 618.28125 C 1010.5894 626.67905 1013.0417 639.28125 1024.3125 639.28125 C 1046.191 636.85036 1071.1612 624.48347 1076.9062 601.5 C 1081.7682 586.91443 1086.1687 571.65711 1084.8438 556.1875 C 1081.9699 544.25375 1072.701 534.75069 1071.375 522.375 C 1075.3529 507.12642 1088.5954 496.0898 1100.75 487.25 C 1102.96 526.5868 1104.2945 566.12949 1106.0625 605.6875 C 1093.2448 615.6322 1080.436 625.3655 1068.2812 635.53125 C 1081.099 631.55341 1092.3833 624.03835 1103.875 617.1875 C 1104.98 620.72336 1107.1771 628.02659 1108.2812 631.5625 C 1113.5851 620.95478 1117.5598 609.66577 1123.9688 599.5 C 1132.5866 589.3343 1143.408 580.94248 1152.4688 571.21875 C 1158.8767 572.76566 1164.8411 574.11153 1171.25 575.4375 C 1171.25 565.71379 1173.4602 555.08978 1168.1562 546.25 C 1164.1783 537.1892 1155.5831 532.32838 1147.4062 527.6875 C 1142.7654 541.38911 1143.864 555.98362 1141.875 569.90625 C 1138.5601 578.30409 1130.3767 582.93942 1123.9688 588.90625 C 1125.0728 542.49746 1117.1115 496.53386 1118.4375 450.125 C 1125.0673 438.85407 1134.803 430.02281 1144.9688 421.625 C 1156.0176 440.18832 1165.9481 459.18647 1177.2188 477.75 C 1181.1957 485.48471 1187.1806 492.99948 1187.8438 502.28125 C 1192.0416 538.96631 1188.2753 576.09619 1192.0312 612.78125 C 1193.7992 626.70391 1194.2442 640.6086 1194.9062 654.53125 C 1181.4256 668.89582 1162.8774 673.76103 1144.0938 675.75 C 1137.463 664.92121 1131.7026 653.447 1123.9688 643.28125 C 1116.896 635.54649 1104.5107 641.04442 1097.2188 645.90625 C 1069.3725 664.69076 1068.2694 704.05251 1041.75 723.5 C 1032.6892 727.03586 1027.6119 719.27484 1022.75 713.75 C 1007.0594 689.66154 1008.3839 659.40556 1007.5 631.78125 C 999.98599 662.05756 999.98617 694.31753 1007.5 724.59375 C 1012.5829 738.73734 1020.3249 757.08702 1037.5625 757.75 C 1054.3581 753.55112 1061.6523 734.98513 1068.2812 721.0625 C 1077.1211 700.50993 1085.7464 674.64313 1110.7188 669.78125 C 1117.3477 676.41102 1124.8636 682.81872 1129.0625 691.4375 C 1133.0404 697.4043 1135.9192 706.01556 1143.875 707.5625 C 1169.5104 709.77236 1192.4804 690.98789 1200.6562 667.5625 C 1217.0098 625.35255 1206.8435 578.94891 1209.9375 534.75 C 1223.8602 555.96542 1238.0115 577.17732 1249.2812 599.71875 C 1255.0271 633.75185 1252.8131 668.46461 1255.9062 702.71875 C 1262.5361 688.35405 1265.6337 672.43387 1270.9375 657.40625 C 1277.3463 669.3399 1279.5433 683.05283 1281.5312 696.3125 C 1267.6086 707.80417 1253.2486 719.30525 1238 729.25 C 1222.9724 739.4157 1205.2977 744.93901 1191.375 757.09375 C 1214.1375 753.55786 1237.1215 749.13879 1259 741.625 C 1275.3536 736.76306 1285.2808 721.72842 1294.5625 708.46875 C 1313.568 674.21456 1327.741 636.18301 1328.625 596.625 C 1330.835 518.17201 1326.8568 439.51542 1331.7188 361.0625 C 1328.624 359.51546 1325.5314 357.73671 1322.4375 355.96875 C 1316.4705 365.91347 1306.0778 375.43005 1310.7188 388.46875 C 1316.9056 449.24212 1305.8547 510.22657 1310.9375 571 C 1312.0425 609.67407 1317.7753 654.77053 1290.5938 686.59375 C 1288.6039 654.99147 1279.7818 624.70925 1270.5 594.875 C 1267.1851 536.9745 1268.5025 478.83809 1265.1875 420.9375 C 1268.9444 421.60036 1272.7118 422.05799 1276.4688 422.5 C 1270.0589 399.29547 1266.0562 375.19997 1257.4375 352.4375 C 1247.2717 362.16122 1239.0936 376.07062 1242.1875 390.65625 C 1247.7124 442.58974 1248.3898 495.18906 1246.8438 547.34375 C 1235.351 529.88525 1224.3042 512.20632 1212.8125 494.96875 C 1195.5749 472.86937 1203.96 443.91661 1201.75 418.28125 C 1205.2859 419.82803 1208.8391 421.39056 1212.375 422.9375 C 1209.7231 399.51198 1204.8657 376.53697 1196.4688 354.4375 C 1193.8158 357.0894 1191.3684 359.50654 1188.9375 361.9375 C 1195.1253 349.56178 1203.9616 338.29314 1207.7188 324.8125 C 1187.6072 341.60796 1174.3715 364.59272 1156.25 383.15625 C 1148.7362 373.65335 1142.092 363.48927 1133.0312 355.3125 C 1130.8213 359.95328 1129.2647 364.8256 1127.7188 369.6875 C 1119.7619 383.61001 1131.0466 396.40336 1135.6875 409 C 1133.0356 410.10487 1130.3698 411.23878 1127.7188 412.34375 C 1121.3089 393.33819 1117.5597 373.66175 1111.5938 354.65625 C 1104.742 361.94893 1096.9979 369.46374 1094.125 379.1875 C 1094.567 394.65699 1100.7612 409.46789 1099.6562 424.9375 C 1098.9933 438.86002 1102.0921 455.19354 1093.0312 466.90625 C 1081.9815 481.93374 1070.9202 496.7514 1060.3125 512 C 1048.5998 500.95041 1038.8867 488.12571 1028.5 475.75 C 1009.4945 450.7775 987.62586 427.34304 972.15625 399.71875 C 976.57602 399.93953 981.20511 399.93748 985.625 399.9375 C 973.91218 385.79382 960.65262 372.76621 945.625 361.9375 C 944.07793 365.25238 942.54467 368.56006 941.21875 371.875 C 938.56668 349.55448 931.69667 328.34945 927.71875 306.25 C 931.47552 289.23333 925.07633 272.65265 917.5625 257.625 C 911.81658 262.48686 906.29938 267.56882 901.4375 273.09375 C 902.10044 282.5964 906.06026 291.21599 906.28125 300.71875 C 907.38608 331.87885 925.52883 359.0608 928.84375 390 C 917.35196 396.18772 902.31092 399.50032 890.15625 393.3125 C 878.00146 384.47262 874.01793 368.36237 872.25 354.21875 C 870.03996 323.72137 865.39537 293.649 860.3125 263.59375 C 858.76555 263.59373 855.45319 263.59375 853.90625 263.59375 C 851.03333 272.21243 844.85253 280.84101 847.0625 290.34375 C 851.48239 325.70274 856.13311 367.02072 830.71875 395.75 C 828.95079 386.6891 828.05574 377.62554 828.71875 368.34375 C 829.38173 339.39336 827.60478 310.44803 829.59375 281.71875 C 832.46668 284.1496 835.12707 286.57135 838 288.78125 C 839.76794 282.37231 839.33268 275.75255 837.34375 269.34375 C 834.02885 272.87954 830.72117 276.62256 827.40625 279.9375 C 829.39521 269.32969 824.08182 252.11634 837.5625 246.8125 C 836.67853 231.34286 831.36462 214.77052 817 206.59375 z M 875.78125 263.59375 C 879.09617 274.86447 882.63155 285.91455 885.0625 297.40625 C 887.05145 286.13553 885.74344 274.64346 883.3125 263.59375 C 881.32355 263.59375 877.54922 263.59374 875.78125 263.59375 z M 775.46875 268.6875 C 775.46875 271.11844 775.24997 273.31908 775.25 275.75 C 776.79694 275.97099 779.67401 276.87276 781 277.09375 C 781.88396 274.88381 782.99106 272.64743 783.875 270.4375 C 781.00209 269.77452 778.1207 269.35051 775.46875 268.6875 z M 742.96875 271.34375 C 742.08472 274.43755 741.19872 277.31233 740.09375 280.40625 C 738.76779 280.18518 736.10946 279.72099 734.5625 279.5 C 737.43544 276.62702 740.0958 273.99566 742.96875 271.34375 z M 749.59375 278.40625 C 750.69875 281.72109 751.58475 285.24756 752.46875 288.5625 C 749.15378 286.79447 746.06265 284.80145 742.96875 282.8125 C 745.17864 281.26549 747.38383 279.95321 749.59375 278.40625 z M 688.625 281.71875 C 691.05594 287.02264 693.89933 292.32784 697.65625 296.96875 C 698.98222 293.43282 700.33026 289.90865 701.65625 286.59375 C 697.23638 284.82577 693.04489 283.2657 688.625 281.71875 z M 741.875 311.125 C 735.68714 313.77694 728.83714 316.86568 726.40625 323.9375 C 722.64933 330.78834 730.59582 336.53764 733.46875 342.0625 C 721.97704 353.99621 707.60117 362.61777 694.5625 372.5625 C 696.10947 373.88847 697.89052 375.42403 699.4375 376.75 C 715.57011 365.70026 728.16642 349.56524 745.625 340.0625 C 744.29903 330.55975 742.97995 320.84878 741.875 311.125 z M 836.25 320.1875 C 835.36602 327.48034 834.91072 334.7697 834.46875 342.0625 C 836.4577 342.50449 840.19854 343.3705 842.1875 343.8125 C 846.82838 335.19372 841.55386 327.03834 836.25 320.1875 z M 735.34375 322.4375 C 737.716 322.2407 740.38573 324.92954 738.5625 327.25 C 736.35256 330.56486 730.59807 326.81267 733.25 323.71875 C 733.8025 322.89001 734.55299 322.50311 735.34375 322.4375 z M 788.5 330.78125 C 780.32318 348.6818 790.93972 368.12396 790.71875 386.6875 C 797.79055 370.11292 796.22998 352.20632 795.125 334.96875 C 793.57804 333.86376 790.26795 331.88619 788.5 330.78125 z M 889.71875 340.5 C 888.83475 351.54972 881.99048 365.25622 892.15625 373.875 C 897.01811 379.62086 905.1965 373.22581 904.3125 366.375 C 900.3346 364.82804 896.35066 364.14743 892.59375 361.9375 C 890.16281 355.08667 890.38173 347.57181 889.71875 340.5 z M 1277.7812 354 C 1274.2453 367.48066 1286.1652 377.40557 1288.375 389.78125 C 1289.922 399.06302 1290.3793 408.56424 1293.0312 417.625 C 1298.335 395.74655 1299.2176 367.48066 1277.7812 354 z M 1047.5 356.625 C 1043.7431 356.84599 1036.0092 357.31024 1032.0312 357.53125 C 1030.0423 364.38208 1027.8327 371.45941 1025.8438 378.53125 C 1019.2139 371.23843 1012.3553 363.94234 1005.0625 357.3125 C 1003.0735 361.73239 1001.1094 366.14261 999.5625 370.5625 C 1010.8332 376.75034 1020.3233 385.16006 1025.4062 397.09375 C 1028.7212 381.62414 1033.3564 365.90678 1047.5 356.625 z M 1073.5938 358.625 C 1071.3838 358.625 1067.1787 358.84152 1064.9688 359.0625 C 1068.0627 371.65918 1072.6873 384.02607 1075.7812 396.84375 C 1078.6542 384.02607 1076.0247 371.2217 1073.5938 358.625 z M 1187.4062 362.59375 C 1174.1466 386.68201 1182.076 415.20617 1180.75 441.0625 C 1174.5621 431.78053 1168.6177 422.03848 1163.0938 412.09375 C 1166.4076 412.53553 1169.4976 412.99551 1172.8125 413.4375 C 1170.1605 405.26058 1167.739 396.86654 1165.75 388.46875 C 1173.0428 380.0709 1180.1143 371.21249 1187.4062 362.59375 z M 617 363.28125 C 609.7072 370.35307 603.96685 378.72948 598 386.90625 C 604.85084 427.34823 601.33236 468.8995 605.53125 509.5625 C 605.08927 535.63984 606.18735 561.48964 609.28125 587.125 C 613.25917 579.61118 615.22512 570.34858 620.75 563.71875 C 647.04834 550.01708 664.52799 525.9097 683.3125 504.03125 C 682.20757 516.62793 681.31699 529.46582 680.875 542.0625 C 684.18993 542.0625 687.28108 541.84375 690.375 541.84375 C 692.14297 537.20285 693.92179 532.33063 695.46875 527.46875 C 692.37484 527.46875 689.28142 527.46875 686.1875 527.46875 C 687.73448 518.18698 690.16734 508.90452 692.15625 499.84375 C 693.70321 492.10893 690.81011 484.13657 694.125 476.84375 C 700.31285 465.13103 712.48675 455.21063 710.71875 440.625 C 702.09999 434.43716 690.58751 437.72963 681.96875 442.8125 C 663.62622 454.3042 647.95804 471.10823 639.78125 491.21875 C 636.68735 498.73255 634.70047 510.22963 642.65625 515.3125 C 658.34686 518.18542 664.95252 502.04506 675.78125 494.53125 C 668.04644 521.49258 643.52123 538.95442 622.96875 555.75 C 626.94667 509.78314 619.65178 464.02935 620.09375 418.0625 C 624.29265 421.15643 628.26766 424.25207 632.6875 427.125 C 627.60465 405.68854 622.96683 384.49672 617 363.28125 z M 1217 363.9375 C 1211.6962 372.33529 1213.0267 382.2785 1213.4688 391.78125 C 1215.4577 391.78125 1219.2299 391.78126 1221.2188 391.78125 C 1222.9867 387.80335 1224.5178 383.60514 1225.8438 379.40625 C 1222.9708 378.74327 1219.8729 378.28574 1217 377.84375 C 1217 373.20287 1217 368.5784 1217 363.9375 z M 649.28125 366.59375 C 644.64037 377.42248 644.42629 389.13329 645.53125 400.625 C 647.5202 400.625 651.26107 400.62501 653.25 400.625 C 655.01796 395.76312 656.58026 390.67662 657.90625 385.59375 C 655.03332 386.03574 651.93766 386.46427 648.84375 386.90625 C 649.06474 380.05542 649.06028 373.22359 649.28125 366.59375 z M 455.6875 368.125 C 448.83666 374.31282 442.87759 381.15366 436.46875 387.5625 C 439.34168 432.64537 436.90418 477.73187 434.03125 522.59375 C 413.69973 518.17388 403.74985 495.8493 406.84375 476.84375 C 409.93768 447.0095 423.18957 419.39675 426.0625 389.5625 C 417.22274 391.99344 407.51142 395.97048 403.3125 405.03125 C 382.76005 436.63346 382.09703 476.42004 363.3125 508.90625 C 358.67163 520.61896 345.8622 524.38156 334.8125 526.8125 C 319.3429 505.597 311.14952 480.17334 311.8125 453.875 C 323.52522 449.45512 335.68474 445.24376 345.1875 436.625 C 326.18199 439.49792 306.94529 446.8106 287.71875 440.84375 C 297.88452 432.44597 308.27847 424.25052 317.78125 414.96875 C 322.20112 416.29472 326.82787 417.64278 331.46875 418.96875 C 334.12069 409.68699 334.13866 399.05853 329.71875 390.21875 C 325.29888 382.70493 316.91333 378.7391 310.0625 373.65625 C 305.64264 388.02088 301.20287 403.25589 305.84375 418.0625 C 294.57305 426.68128 285.74361 437.96133 280.21875 451 C 289.50054 452.32597 298.78073 453.20753 308.0625 454.3125 C 308.50452 476.19096 307.38588 498.53004 312.46875 520.1875 C 316.44666 534.55212 325.07286 549.34789 339.4375 555.09375 C 351.8132 559.07167 360.66937 549.34873 365.53125 539.625 C 383.6528 502.49791 381.87569 456.51968 409.5 423.8125 C 404.85909 445.69096 395.13188 466.24428 391.375 488.34375 C 388.94407 506.90729 389.82288 529.45235 404.1875 543.375 C 412.80628 551.77282 425.42127 552.65159 436.25 556.1875 C 438.90192 584.25375 440.21446 612.55873 437.5625 640.625 C 436.67854 647.25483 433.36641 653.42835 428.0625 657.40625 C 403.53213 678.62176 373.26297 693.66937 341.21875 698.53125 C 323.53921 699.41524 304.29526 692.99413 293.6875 678.1875 C 281.97482 663.1599 279.77642 641.71305 286.40625 623.8125 C 290.38416 598.17717 315.34151 581.39656 315.5625 554.65625 C 309.59568 558.85512 304.28833 564.16281 297.4375 566.59375 C 292.57563 563.94186 289.05818 559.95563 286.40625 555.09375 C 272.26262 535.20429 286.40159 511.55922 289.9375 490.34375 C 273.14193 515.97911 264.31662 547.56526 270.0625 578.0625 C 273.15643 587.12329 281.99517 591.99966 288.625 598.1875 C 281.11121 620.28692 269.38173 641.72408 268.71875 665.8125 C 268.05579 691.88985 283.95839 718.41696 309.59375 726.59375 C 334.56613 733.44458 359.76884 723.25725 382.53125 713.3125 C 408.38762 702.0418 430.05281 682.15985 443.3125 657.1875 C 460.77105 624.03836 452.16057 585.58235 454.8125 549.78125 C 470.72408 535.41658 481.97946 517.07476 490.15625 497.40625 C 492.58718 512.65487 496.13985 529.90573 510.0625 539.1875 C 522.43818 549.79521 542.98606 547.81319 553.59375 535.4375 C 569.94738 517.31598 572.79696 490.98793 571.25 467.5625 C 575.89089 472.20338 580.97512 476.18057 586.5 479.9375 C 588.48899 473.52864 590.26556 467.12534 591.8125 460.9375 C 588.05566 461.37949 584.28813 461.83926 580.53125 462.28125 C 579.86828 452.5575 579.00671 442.60098 578.34375 432.65625 C 575.91286 442.60097 573.48448 452.77175 571.9375 462.9375 C 569.28563 453.87673 566.61622 445.02952 564.40625 435.96875 C 562.19637 428.23395 569.27249 421.38881 567.0625 413.875 C 562.20068 397.96341 555.13883 383.15038 547.625 368.34375 C 541.2162 376.52054 534.81058 384.91247 528.84375 393.53125 C 541.88245 413.42075 542.32769 438.18407 550.0625 460.0625 C 553.15646 473.54316 561.10739 486.79385 556.6875 500.9375 C 551.82565 512.65021 535.91575 512.2077 525.75 510.21875 C 510.28044 508.00881 504.73222 488.57443 503.40625 475.09375 C 501.85926 439.29266 504.07217 402.37912 490.8125 368.125 C 485.2876 378.51171 474.68957 388.68234 477.5625 401.5 C 482.42437 427.79834 485.06716 454.76189 481.53125 481.28125 C 478.2163 497.41385 467.18819 510.4615 454.8125 520.40625 C 456.58046 491.89799 456.34375 462.94801 456.34375 434.21875 C 459.43768 435.76573 462.31233 437.08028 465.40625 438.40625 C 464.74327 414.75985 461.43338 391.10842 455.6875 368.125 z M 346.28125 369.25 C 344.73429 377.86878 345.18526 386.47495 345.40625 395.09375 C 352.47807 396.64071 362.87501 397.96822 362.875 407.25 C 360.22309 422.05663 348.5114 433.10637 344.3125 447.25 C 344.75449 468.90746 348.06249 490.56132 348.0625 512.21875 C 354.91333 490.78229 351.38381 467.78694 353.59375 445.6875 C 357.79267 436.40573 369.47942 437.75674 377.65625 437.09375 C 377.87722 428.91696 376.35723 420.73929 375.03125 412.5625 C 370.83236 401.73377 378.7721 392.44028 382.75 382.9375 C 387.39086 384.48446 392.2654 385.80129 396.90625 386.90625 C 397.34824 378.95045 393.37551 368.58029 384.09375 369.90625 C 377.02193 376.97807 373.48012 386.91023 369.28125 395.75 C 363.75639 385.36326 355.56302 376.7638 346.28125 369.25 z M 578.125 369.6875 C 576.13605 369.90849 571.92868 369.90626 569.71875 369.90625 C 574.35961 387.14382 579.44627 403.94545 581.65625 421.625 C 583.86617 404.38743 583.87086 386.48307 578.125 369.6875 z M 512.46875 375.1875 C 508.93284 386.01623 503.4218 396.63105 504.96875 408.34375 C 508.28367 410.55369 512.0266 411.89054 515.5625 413.4375 C 517.33046 408.57562 518.8883 403.92439 520.65625 399.0625 C 517.78332 398.62051 514.90417 398.19199 512.03125 397.75 C 512.25224 390.23619 512.46878 382.70132 512.46875 375.1875 z M 939.125 375.71875 C 941.78511 375.39498 942.56837 380.12034 939.875 381.15625 C 936.78106 382.26115 935.68957 376.97997 938.5625 375.875 C 938.75581 375.80591 938.94765 375.74032 939.125 375.71875 z M 312.6875 394.03125 C 315.18237 394.15821 317.16212 398.14192 314.46875 399.9375 C 311.37481 402.36845 307.62258 396.86617 310.9375 394.65625 C 311.51762 394.20044 312.11177 394.00195 312.6875 394.03125 z M 325.25 397.625 C 328.08709 397.56758 329.79504 402.19717 327.28125 403.9375 C 323.52436 405.92646 320.87483 399.9577 323.96875 397.96875 C 324.41075 397.74776 324.8447 397.6332 325.25 397.625 z M 852.375 399.9375 C 850.16506 412.75518 845.2811 425.36757 848.375 438.40625 C 850.58494 438.40625 855.22756 438.18973 857.4375 437.96875 C 855.00658 425.37207 852.15403 412.97616 852.375 399.9375 z M 1090.5938 399.9375 C 1066.5054 406.56733 1043.2959 415.87448 1020.3125 425.15625 C 1013.2407 427.80818 1007.0762 432.43939 1002.6562 438.40625 C 1033.1535 431.33443 1059.8778 414.10533 1090.375 406.8125 C 1090.375 405.04454 1090.3727 401.70544 1090.5938 399.9375 z M 676.90625 403.28125 C 670.93941 405.9332 661.87515 405.26968 658.78125 412.5625 C 650.60448 426.26415 635.80631 433.76934 627.1875 447.25 C 637.35327 443.9351 647.27627 439.51364 657 435.09375 C 669.5967 430.01087 674.03332 415.21495 676.90625 403.28125 z M 1115.5625 414.96875 C 1117.9935 418.72562 1120.4441 422.49309 1122.875 426.25 C 1120.2231 427.57589 1117.5582 428.67403 1114.9062 430 C 1115.1273 424.91706 1115.3415 420.05162 1115.5625 414.96875 z M 661.71875 417.15625 C 661.91084 417.1491 662.11913 417.15988 662.3125 417.1875 C 667.1744 418.73445 662.10066 426.46668 658.34375 423.59375 C 656.27194 421.10753 658.83762 417.26308 661.71875 417.15625 z M 933.6875 417.625 C 932.36153 428.23273 931.49521 439.96825 938.125 449.25 C 941.43994 444.16713 944.53557 438.6186 947.1875 433.09375 C 943.65157 433.09375 940.1006 433.3125 936.34375 433.3125 C 935.68077 429.3346 934.3505 421.60291 933.6875 417.625 z M 522.875 422.5 C 519.78108 427.58287 513.13158 432.65141 515.5625 439.28125 C 520.20338 452.09893 524.19406 465.14208 526.625 478.84375 C 527.95099 479.28572 530.36377 480.18301 531.46875 480.625 C 533.01569 470.01727 535.451 459.38674 534.125 449 C 531.69406 439.71823 527.29488 430.8978 522.875 422.5 z M 1073.1562 436.1875 C 1071.8303 443.48032 1072.7053 451.01745 1074.0312 458.53125 C 1072.9263 458.31026 1070.6987 457.62723 1069.5938 457.40625 C 1068.0468 452.10238 1066.5157 447.02038 1064.9688 441.9375 C 1063.4218 448.78833 1061.8594 455.64692 1060.3125 462.71875 C 1056.9976 462.49776 1053.9064 462.50001 1050.8125 462.5 C 1049.2655 455.64917 1047.7323 448.78608 1046.4062 442.15625 C 1046.6272 450.77503 1046.625 459.62897 1046.625 468.46875 C 1048.172 470.23671 1049.7008 471.76328 1051.4688 473.53125 C 1060.3085 470.21633 1069.5932 468.88831 1078.875 470.65625 C 1081.5269 458.72255 1081.1121 446.13226 1073.1562 436.1875 z M 741.875 436.40625 C 740.77001 440.60514 739.44649 444.58236 738.5625 448.78125 C 744.75034 456.95804 756.01332 463.17126 757.78125 474 C 756.6763 481.07184 752.71446 487.24515 750.0625 493.875 C 754.48241 492.32804 758.89266 490.76797 763.3125 489 C 756.0197 496.95582 746.06891 506.46804 751.59375 518.84375 C 756.89764 542.71115 765.52225 565.68839 766.40625 590.21875 C 770.60514 566.13035 766.16558 542.04595 759.09375 519.0625 C 750.69598 503.37189 770.37674 501.82837 779.4375 497.1875 C 778.33251 487.68474 770.60512 481.27058 766.40625 473.09375 C 766.84822 466.24292 767.9508 459.41332 769.71875 452.5625 C 777.23256 451.23653 783.19405 447.01382 785.625 439.5 C 772.14434 436.62707 766.85735 449.46149 762.4375 459.40625 C 757.35463 450.34548 751.37775 441.48911 741.875 436.40625 z M 1224.9688 437.53125 C 1222.0958 439.29921 1219.2167 441.04453 1216.3438 442.8125 C 1222.0896 459.60808 1223.627 477.29141 1226.5 494.75 C 1235.3398 476.62843 1230.7146 456.0948 1224.9688 437.53125 z M 470.0625 441.9375 C 461.66471 453.65021 458.57097 470.2158 466.96875 482.8125 C 471.60963 476.84563 475.12935 470.22807 477.78125 463.15625 C 474.46636 463.59824 470.94217 463.808 467.40625 464.25 C 468.51122 456.73619 469.62051 449.45132 470.0625 441.9375 z M 1286.8438 445.6875 C 1278.4459 456.73722 1274.4795 471.55281 1279.5625 484.8125 C 1283.0984 484.8125 1286.8368 484.8125 1290.5938 484.8125 C 1291.4777 480.61358 1293.0269 476.41988 1293.4688 472 C 1290.1539 469.79006 1286.8462 467.80369 1283.5312 465.59375 C 1284.8574 458.96392 1285.9598 452.31732 1286.8438 445.6875 z M 1138.5625 446.8125 C 1139.0045 464.27106 1143.654 481.51017 1143.875 498.96875 C 1150.9468 482.61516 1154.6951 459.4092 1138.5625 446.8125 z M 699.46875 447.84375 C 700.40429 447.8425 701.35946 447.851 702.3125 447.90625 C 700.32357 454.97808 697.68318 461.83667 695.03125 468.6875 C 689.06443 467.14053 682.8731 465.35722 676.90625 464.03125 C 668.06649 473.53402 663.43301 485.46357 663.875 498.28125 C 657.68719 499.8282 651.47134 500.71426 645.0625 501.15625 C 649.98653 474.60926 670.46709 447.88265 699.46875 447.84375 z M 856.5625 449.6875 C 850.59564 454.54938 842.87049 460.28522 843.3125 469.125 C 844.41748 475.53384 849.27886 480.38586 852.59375 485.46875 C 838.00813 503.8113 817.90709 516.41644 802.4375 533.875 C 826.5259 522.82526 843.31595 501.84478 861.4375 483.28125 C 864.31043 472.2315 861.20338 460.07424 856.5625 449.6875 z M 969.0625 451.4375 C 965.96858 466.90711 977.24308 479.5126 981 493.65625 C 980.11602 479.07059 980.55421 462.26622 969.0625 451.4375 z M 424.75 452.78125 C 419.00414 465.15694 410.16019 480.39882 419 493.4375 C 427.17677 494.76347 425.39937 480.84841 429.15625 477.3125 C 426.72533 477.3125 424.08718 477.31249 421.65625 477.3125 C 422.98224 469.13571 423.86602 460.95805 424.75 452.78125 z M 852.15625 465.375 C 859.44903 465.59598 848.62034 472.00483 852.15625 465.375 z M 888.375 477.09375 C 899.86662 478.86151 911.59548 482.39017 920.65625 490.125 C 912.4793 492.335 903.40226 503.15435 894.5625 497.1875 C 888.15362 492.76769 889.25898 483.94458 888.375 477.09375 z M 591.375 505.15625 C 585.1872 510.46013 578.54487 515.74068 574.125 522.8125 C 571.03107 531.87328 579.23189 536.32113 584.09375 541.625 C 567.29816 560.18855 546.05695 573.65105 525.0625 586.46875 C 525.06252 588.23672 525.28125 592.01105 525.28125 594 C 550.69556 578.7514 574.59028 560.60827 596.46875 540.71875 C 600.22567 529.22707 596.45792 515.985 591.375 505.15625 z M 784.96875 506.90625 C 782.09582 508.45321 779.21444 510.44856 776.5625 512.4375 C 782.97134 525.69717 786.29003 539.85413 788.5 554.21875 C 794.02486 538.74914 792.26154 521.27088 784.96875 506.90625 z M 1020.75 511.34375 C 1002.1865 513.3327 985.40052 522.60686 967.5 527.46875 C 929.70995 541.17041 890.38381 551.10635 852.59375 565.25 C 841.54403 567.23895 836.66537 577.62673 832.6875 586.6875 C 886.16818 569.89192 939.20682 551.54779 992.6875 534.53125 C 1005.7262 532.10031 1014.5621 522.39346 1020.75 511.34375 z M 584.75 520.625 C 592.04278 520.84601 581.21409 527.25483 584.75 520.625 z M 480.875 533.875 C 477.33909 540.50483 488.16781 534.09601 480.875 533.875 z M 1287.5 535.4375 C 1284.4061 553.55905 1291.0554 571.45664 1297.9062 588.03125 C 1304.315 570.79368 1302.7486 547.37118 1287.5 535.4375 z M 480 538.53125 C 477.79003 546.92904 477.78572 555.53747 477.34375 564.15625 C 480.87966 564.15625 484.18509 564.15626 487.5 564.15625 C 489.04696 559.95736 490.82804 555.7614 492.375 551.5625 C 489.28108 551.78349 486.18768 552.21426 483.09375 552.65625 C 482.20977 548.01537 481.10496 543.17216 480 538.53125 z M 994.46875 538.96875 C 989.38588 552.00742 983.85051 565.26038 983.1875 579.625 C 993.13225 580.28798 997.33459 572.31956 1001.3125 565.46875 C 997.99758 564.80577 994.68766 564.16297 991.59375 563.5 C 992.91972 555.32321 993.80576 547.14554 994.46875 538.96875 z M 1053.0312 546.46875 C 1054.5782 546.46878 1057.8905 546.6875 1059.4375 546.6875 C 1066.9513 557.51621 1075.5731 569.45235 1074.4688 583.375 C 1062.0925 601.05458 1038.8985 607.46443 1018.125 604.8125 C 1023.2078 582.0501 1039.1091 564.14831 1053.0312 546.46875 z M 413.46875 551.78125 C 403.74499 552.66523 391.81284 550.43698 385.625 559.71875 C 378.33218 570.1055 370.36376 582.27158 371.46875 595.53125 C 374.78367 599.06717 381.21636 606.37034 384.53125 609.90625 C 363.31578 632.44768 335.03485 646.13294 310.0625 663.8125 C 310.94648 664.91745 312.70979 667.36151 313.59375 668.6875 C 339.00812 655.64881 362.4318 638.6193 384.53125 620.71875 C 388.95114 614.97292 396.00414 617.17628 401.75 618.28125 C 405.06488 613.19838 409.05801 608.34409 409.5 602.15625 C 410.38398 585.36068 418.33063 569.23981 413.46875 551.78125 z M 1161.4062 555.40625 C 1163.7405 555.48765 1165.6468 559.04817 1163.3125 560.84375 C 1160.4396 563.05372 1156.9085 558.17869 1159.7812 555.96875 C 1160.3199 555.55441 1160.8678 555.38747 1161.4062 555.40625 z M 1150.5 555.46875 C 1155.3954 555.45509 1146.4972 563.76105 1148.5 555.75 C 1149.3287 555.54279 1149.9936 555.47019 1150.5 555.46875 z M 926.625 568.125 C 924.85704 574.75483 923.53798 581.1804 922.875 588.03125 C 926.85292 589.79921 931.04887 590.8928 935.46875 592.21875 C 934.58475 583.59997 930.16094 576.0808 926.625 568.125 z M 391.59375 572.5625 C 393.3617 574.99345 395.13829 577.41057 396.90625 580.0625 C 392.92835 578.95754 388.94665 577.85497 384.96875 576.75 C 387.1787 575.42404 389.38381 573.88847 391.59375 572.5625 z M 357.84375 581.0625 C 346.40772 581.24681 343.59013 594.41159 338.5625 603.5 C 332.59565 595.10221 325.96701 587.14536 316.90625 582.0625 C 315.58028 586.92438 313.59825 591.53986 313.15625 596.84375 C 322.43802 603.91557 333.46633 609.68905 336.78125 621.84375 C 342.08512 606.37414 353.36776 594.44043 363.3125 581.84375 C 361.29593 581.29126 359.47747 581.03617 357.84375 581.0625 z M 1162.4375 591.78125 C 1156.4706 602.60998 1152.2502 614.53282 1149.1562 626.6875 C 1146.2833 633.31733 1151.1535 648.78593 1160.6562 645.25 C 1166.4021 643.04006 1167.29 636.2079 1169.5 631.125 C 1165.5221 631.125 1161.3216 631.34376 1157.3438 631.34375 C 1158.6697 618.0841 1161.3326 605.04093 1162.4375 591.78125 z M 1230.5 604.15625 C 1219.8922 618.74188 1217.0193 640.82958 1230.5 654.53125 C 1233.8149 648.5644 1236.4441 642.37536 1238.875 636.1875 C 1235.1181 636.85048 1231.5984 637.52455 1228.0625 638.1875 C 1228.7255 626.69579 1229.837 615.42697 1230.5 604.15625 z M 482.15625 608.84375 C 482.40902 608.82552 482.65234 608.83266 482.90625 608.84375 C 483.84374 608.88473 484.79696 609.14883 485.75 609.6875 C 492.37983 613.00241 497.90591 617.6471 504.09375 621.625 C 492.38105 622.72992 481.54299 618.29489 471.15625 613.875 C 474.69128 612.52836 478.36474 609.11723 482.15625 608.84375 z M 394.03125 628.03125 C 391.82128 635.10307 388.49775 642.17371 388.71875 649.6875 C 389.16072 657.20133 395.78765 661.83235 401.3125 666.03125 C 409.48932 652.32959 393.36824 641.51191 394.03125 628.03125 z M 1090.375 631.78125 C 1072.6955 640.40003 1054.1349 648.1333 1037.7812 659.625 C 1032.9194 662.27696 1030.7121 667.57784 1028.2812 672.21875 C 1049.7177 662.93696 1069.1618 649.45371 1090.1562 638.625 C 1090.1562 636.85704 1090.375 633.54921 1090.375 631.78125 z M 796.46875 642.375 C 795.80574 646.57392 794.91298 650.55108 794.25 654.75 C 791.81904 651.21409 789.39744 647.47343 787.1875 643.9375 C 787.40849 650.56736 784.74138 656.95733 779.4375 661.15625 C 777.22756 655.85236 774.80594 650.33515 772.375 645.03125 C 772.81697 654.31302 774.36151 663.81196 775.6875 673.09375 C 784.52728 668.89483 793.34769 664.91313 802.1875 661.15625 C 800.41954 654.74741 798.67868 648.56286 796.46875 642.375 z M 975.46875 643.03125 C 972.37483 650.10305 969.92646 657.64241 967.9375 665.15625 C 971.03142 666.04023 974.34134 667.14501 977.65625 668.25 C 978.76122 665.81906 979.89281 663.58497 981.21875 661.375 C 978.56682 655.40815 976.79474 649.21907 975.46875 643.03125 z M 847.5 667.34375 C 844.40606 677.73051 844.86377 688.5775 845.96875 699.40625 C 848.39969 699.18526 853.47529 698.97102 855.90625 698.75 C 852.59133 688.58425 849.7099 677.9515 847.5 667.34375 z M 902.53125 672 C 893.2495 690.12157 884.41745 709.1328 883.3125 729.90625 C 882.42852 740.51398 888.16003 753.31252 900.09375 753.3125 C 910.48049 749.77659 910.92165 734.99153 915.5625 726.59375 C 909.37466 727.91972 902.96682 729.01778 897 730.34375 C 891.47514 710.89624 897.44837 691.00557 902.53125 672 z M 734.34375 684.15625 C 728.59787 685.48222 725.72339 691.45959 722.1875 695.4375 C 725.28142 695.87947 728.37711 696.30804 731.25 696.75 C 726.60912 705.36878 718.45513 713.76727 722.875 724.375 C 724.20097 733.21478 727.06681 741.81873 729.71875 750.4375 C 729.05577 736.95684 727.721 723.47839 727.5 710.21875 C 734.35083 707.34582 740.9929 704.93317 747.84375 702.28125 C 745.19179 695.43042 742.29958 686.36619 734.34375 684.15625 z M 1107.8438 684.8125 C 1101.8769 694.09427 1096.7905 704.05078 1092.8125 714.4375 C 1087.9506 729.02313 1092.1426 744.70234 1096.5625 758.625 C 1100.9824 756.85704 1105.3972 755.52692 1109.375 752.875 C 1114.0159 747.57113 1113.5758 739.62533 1115.3438 733.4375 C 1110.4819 731.22756 1106.0716 728.34839 1102.0938 724.8125 C 1100.7678 711.11084 1105.6338 698.07215 1107.8438 684.8125 z M 576.78125 687.25 C 569.70945 691.66989 563.54059 696.95961 556.46875 700.9375 C 547.40798 704.69441 537.01609 705.59115 529.28125 712 C 504.52987 730.12155 480.87881 749.77606 452.8125 762.59375 C 487.72962 762.59375 509.1657 729.44268 539 716.625 C 549.16572 715.07804 560.88341 714.88207 569.28125 708.03125 C 574.58512 702.50639 574.35034 693.87982 576.78125 687.25 z M 957.96875 693.15625 C 956.78781 693.18388 955.62896 693.27175 954.46875 693.4375 C 950.49085 696.31043 947.83946 700.49308 945.1875 704.25 C 950.71236 704.25 956.22517 704.03125 961.75 704.03125 C 953.35221 718.61688 941.4377 731.88741 938.34375 749.125 C 956.90728 751.77693 970.15105 736.51847 982.96875 725.46875 C 970.15107 730.99361 957.79544 738.06232 944.09375 741.15625 C 949.61861 723.69769 966.63608 712.66175 968.625 693.65625 C 965.14434 693.4905 961.51156 693.07337 957.96875 693.15625 z M 1238.6562 696.75 C 1209.706 711.77762 1180.3141 725.91867 1152.4688 743.15625 C 1152.4688 746.47117 1152.6852 749.77661 1152.9062 753.3125 C 1182.2985 738.94786 1208.8265 719.52314 1238.2188 704.9375 C 1238.4397 702.28557 1238.4353 699.62295 1238.6562 696.75 z "
     transform="matrix(0.4525,0,0,0.4525,0,-9.7500173)"
     id="path6" />
</svg>
