<svg enable-background="new 0 0 600 400" height="400" viewBox="0 0 600 400" width="600" xmlns="http://www.w3.org/2000/svg"><path d="m0 0h600v400h-600z" fill="#418fde"/><g fill="#fff"><g stroke="#fff" stroke-width=".1"><path d="m221.3793945 121.4287109c-7.2402344 8.5126953-7.5600586 15.9130859-7.5600586 15.9130859s5.1616211-1.8959961 11.2197266-8.6533203c6.6708984-8.3676758 12.1743164-17.4448242 12.1743164-17.4448242s-6.8818359 1.2329102-15.8339844 10.1850586z"/><path d="m222.6689453 141.9189453c-.0322266.0410156-.0634766.0786133-.0976563.1171875-4.0991211 4.8974609-9.1064453 9.3671875-13.0302734 12.9990234-2.8662109 2.6494141-4.9853516 5.3305664-4.9853516 5.3305664s-2.7910156-14.8476563.4316406-24.8735352c3.222168-11.815918 11.6962891-17.4262695 11.6962891-17.4262695s-2.1464844 3.7797852-3.4404297 9.7641602c-.8896484 4.1083984-1.7304688 8.984375-2.4467773 12.7729492-.7553711 3.9785156-1.5922852 6.4482422-1.5922852 6.4482422s1.4399414-3.6655273 5.8081055-7.2416992c3.1762695-2.6005859 7.1425781-4.8720703 10.324707-7.1826172 3.6132813-2.6240234 6.0878906-5.4902344 6.0878906-5.4902344s-1.0146483 5.5498047-8.7558593 14.7822266z"/><path d="m214.5351563 163.0449219c-3.3413086 6.5234375-7.8764648 12.96875-11.2202148 17.4257813-2.6694336 4.6640625-3.0703125 8.6474609-3.0703125 8.6474609s-.4643555.4755859-.7475586-.3925781c-.6455078-1.9863281-1.7236328-6.2036133-3.1035156-11.0410156-1.7011719-5.9624023-3.6928711-13.2246094-3.5009766-19.3359375.4570312-14.4365235 8.9912109-24.3486329 8.9912109-24.3486329s-.5576172 2.7060547-1.9907227 9.8676758c-.4770508 7.4780273 1.4072266 12.0249023 1.6713867 16.3896484.3828125 6.2841797-.4770508 11.0625-.4770508 11.0625s1.9902344-5.3208008 5.9804688-9.8813477c2.7885742-3.1826172 6.3349609-6.4731445 9.1274414-9.0268555 2.6738281-2.4438477 4.1494141-4.0083008 4.1494141-4.0083008s-2.1030274 8.1586915-5.8095703 14.6416017z"/><path d="m193.8476563 199.0908203c-7.8271484-10.1455078-8.0229492-19.4980469-8.6079102-23.671875.2285156-6.7724609 1.6855469-11.9780273 1.6855469-11.9780273s1.3291016 4.715332 3.4995117 9.8681641c2.0224609 4.8022461 4.934082 9.3881836 6.7646484 15.1977539 2.6918945 7.3881836 3.7392578 13.3681641 3.7392578 13.3681641s-.4101563-6.6669922 2.3862305-14.0039063c3.0786133-8.0664063 9.3911133-16.8706055 9.3911133-16.8706055s1.1025391 4.5576172-.2143555 9.734375c-.8208008 5.5429688-1.6176758 9.1206055-3.6850586 15.1723633-.6083984 1.7773438-2.9472656 6.5585938-4.7744141 11.5380859-.5371094 2.5253906.4775391 5.3300781.4775391 5.3300781l-1.0356445.0810547s-2.2260742-4.0566406-9.6264648-13.765625z"/><path d="m193.0219727 217.3154297c1.2319336 2.7333984 2.4243164 4.5898438 4.3930664 6.6445313 4.206543 4.3886719 9.6337891 7.6103516 13.1826172 10.6103516 3.9291992 3.3232422 6.2158203 5.4648438 6.2158203 5.4648438l.9648438-.1064453s-1.7392578-3.3222656-1.8222656-8.8417969c.590332-7.609375 1.3476563-18.0712891.4824219-26.0966797-.9331055-8.6557617-3.8579102-13.2895508-3.8579102-13.2895508s-3.3374023 11.9946289-3.3764648 21.5961914c-.159668 9.484375 1.7714844 12.8115234 2.7329102 15.96875.4956055 1.6259766.4829102 2.3574219.4829102 2.3574219s-3.0019531-6.4365234-7.9838867-13.1826172c-3.5541992-4.8115234-8.5205078-8.7880859-11.7890625-13.8251953-3.5078125-5.1254883-5.1987305-9.484375-5.1987305-9.484375s-.8569338 10.3945311 5.5737303 22.1845702z"/><path d="m231.6035156 261.3095703c-4.7685547-.5361328-10.9853516-1.9296875-14.7900391-3.7509766-6.2695313-3.0019531-8.5732422-5.6777344-9.5913086-6.5908203-9.5380859-9.6455078-12.9516602-25.4824219-12.9516602-25.4824219s.7104492.1748047 2.4482422 2.2255859c1.340332 2.3583984 3.65625 5.078125 6.9125977 7.984375 4.1547852 3.7099609 11.668457 8.6123047 16.3442383 12.4326172 3.5400391 2.8916016 6.3769531 5.4121094 8.3051758 7.7158203 1.7983398 1.7480469 2.4243164 2.1660156 2.4243164 2.1660156s-6.2285156-6.6132813-8.7470703-15.9912109c-1.4482422-5.1962891-1.6855469-11.9072266-1.8764648-16.4511719-.2084961-5.0146484-.5571289-7.6660156-.5571289-7.6660156s7.15625 9.9609375 11.1679688 20.0976563c2.1816406 5.5136719 2.6069336 11.6621094 3.6445313 16.1308594 1.1782227 6.1621094 2.8574219 8.4150391 2.8574219 8.4150391l-1.4853516.078125c-.0000001 0-.963379-.600586-4.1054689-1.3134766z"/><path d="m256.512207 275.2382813c-3.8007813.8261719-8.4628906 1.7382813-11.9047852 2.0761719-7.3759766.7246094-9.9887695-.8623047-12.5751953-1.6435547-14.9453125-4.5048828-21.8637695-18.0048828-21.8637695-18.0048828s3.5507813 2.3876953 13.2954102 5.3720703c5.9638672 1.828125 12.140625 3.5585938 19.3569336 4.6298828 5.78125 1.4609375 9.7880859 3.0019531 9.7880859 3.0019531s-7.2910156-2.9121094-11.0737305-9.4316406c-2.6943359-4.640625-4.4296875-10.1533203-5.6445313-14.71875-1.1577148-4.3447266-1.8574219-7.8583984-1.8574219-7.8583984s5.09375 4.3945313 10.9311523 11.1464844c8.0737305 8.5009766 9.5019531 13.7890625 13.5029297 19.5048828 2.4799805 3.1513672 5.2167969 3.6435547 5.2167969 3.6435547l-.4282227.7138672c.0000002-.0000001-2.9414061.7431639-6.7436522 1.5683593z"/><path d="m286.6899414 281.0292969c-9.109375 3.8574219-19.1835938 8.2519531-32.9018555 8.5742188-16.2412109.203125-26.1499023-8.6806641-26.1499023-8.6806641s2.3789063 1.2148438 12.9682617 1.4638672c9.7529297 0 21.184082-6.6445313 39.2241211-7.359375 7.7080078-.2578125 21.434082 3.609375 21.434082 3.609375s11.7177734-3.2519531 23.2939453-2.7304688c8.8222656.6572266 23.5566406 5.2685547 32.1679688 7.1064453 9.5859375 1.3769531 16.328125-1.3837891 16.328125-1.3837891s-9.5224609 8.4570313-25.7050781 8.7246094c-11.2119141-.1308594-21.0595703-3.2158203-32.5810547-8.3066406-1.2861328-.75-7.984375-1.7675781-7.984375-1.7675781s8.5556641 3.7509766 16.0585938 9.359375c4.4169922 3.1279297 7.5019531 7.3242188 7.5019531 7.3242188s-1.0097656.703125-2.0361328 1.25c-1.1416016.6074219-2.3134766 1.0625-2.3134766 1.0625s-3.5195313-5.9511719-9.4541016-10.2539063c-7.0009766-5.0722656-15.1679688-7.7773438-15.1679688-7.7773438s-9.2524414 2.8574219-16.5405273 8.0732422c-6.8100586 4.8261719-9.9316406 10.6826172-9.9316406 10.6826172s-1.0991211-.34375-2.09375-.8789063c-1.1855469-.6347656-2.3242188-1.453125-2.3242188-1.453125s3.6318359-5.171875 11.527832-10.1357422c6.144043-4.1572266 14.324707-7.4345703 14.324707-7.4345703s-3.2822264-.9999999-9.6455077.9316407z"/><path d="m341.9121094 269.7929688c3.2197266-4.1005859 5.0488281-9.9384766 11.7080078-17.25 6.2910156-7.2578125 12.8369141-13.2919922 12.8369141-13.2919922s-.4765625 2.9628906-1.5703125 7.0576172c-1.2294922 4.609375-3.2421875 10.6523438-6.2333984 15.5107422-4.3837891 7.5732422-10.6904297 9.3857422-10.6904297 9.3857422s3.3740234-1.1289063 8.9951172-2.4873047c5.8115234-1.40625 13.9746094-3.0722656 20.1904297-4.9775391 7.9443359-2.4365234 13.0615234-5.4863281 13.0615234-5.4863281s-6.3320313 13.6308594-24.0908203 18.9482422c-7.7480469 1.8525391-15.4921875.4521484-22-1.2451172-4.2490234-.8808594-7.2402344-1.3583984-7.2402344-1.3583984l-.2265625-.9609375c0-.0000001 2.1503906.1142577 5.2597656-3.8447266z"/><path d="m371.4277344 237.5185547c-4.2871094 9.7158203-4.6923828 15.5292969-6.2158203 20.5761719-1.0205078 3.3779297-2.3583984 5.1435547-2.3583984 5.1435547l.9287109.2861328s1.7041016-.8681641 5.1445313-1.5712891c6.1259766-1.2558594 14.0039063-1.7148438 22.4345703-8.7167969 11.4560547-10.1591797 14.6474609-27.1503906 14.6474609-27.1503906s-.953125.6416016-1.8574219 1.8574219c-1.3105469 1.7587891-3.1738281 4.6865234-7.359375 8.2880859-4.8740234 4.1943359-13.1142578 9.8232422-18.9345703 14.5751953-2.2158203 1.8095703-4.40625 4.3623047-5.7880859 5.7148438-1.8896484 1.8564453-2.5712891 2.2158203-2.5712891 2.2158203s7.1357422-7.8603516 8.9316406-16.5761719c1.4882813-6.0136719 1.3349609-10.3603516 1.6416016-14.9335938.3320313-4.8974609.6445313-8.5722656.6445313-8.5722656s-5.4121095 9.1845704-9.288086 18.8632813z"/><path d="m382.3583984 240.5908203s2.1357422-3.7783203 2.0732422-8.9326172c-.0761719-6.1230469-1.7988281-14.2753906-1.0019531-21.578125 1.1289063-12.2167969 4.2167969-17.8608398 4.2167969-17.8608398s3.3574219 11.1157227 3.3574219 21.5053711c0 12.2900391-3.3574219 18.7207031-3.3574219 18.7207031s2.6171875-5.2382813 6.5732422-11.0039063c3.4199219-4.9833984 8.2490234-9.3115234 11.7890625-14.1474609 4.1640625-5.6865234 6.7871094-11.5024414 6.7871094-11.5024414s1.1171875 12.324707-7.2158203 25.0786133c-3.2949219 5.0410156-10.1455078 9.8193359-15.21875 13.7890625-4.2363281 3.3164063-7.0732422 6.2880859-7.0732422 6.2880859z"/><path d="m395.8613281 206.7236328c-1.7675781-5.5991211-5.9248047-12.9233398-7.3222656-20.0419922-2.1972656-10.6723633-.8925781-14.9677734-.8925781-14.9677734s6.2871094 8.765625 9.5380859 17.5756836c2.4072266 6.5249023 2.0371094 13.7895508 2.0371094 13.7895508s.8662109-5.1479492 3-11.5390625c2.6113281-7.8203125 7.0605469-17.340332 9.2167969-23.0424805 1.0683594-2.8256836 1.0009766-5.0004883 1.0009766-5.0004883s.3271484 1.3779297.9287109 3.7685547c.5507813 2.1884766 1.4150391 5.2705078 1.3925781 9.1088867-.0205078 3.3959961-.7919922 7.3833008-2.2285156 11.8691406-1.9423828 6.1586914-7.5791016 13.293457-11.6679688 18.9799805-2.6591797 3.6962891-4.2148438 6.3574219-4.2148438 6.3574219l-.7714844.0292969c.0000001 0 1.1250001-3.2763672-.0166015-6.8867188z"/><path d="m384.4316406 161.1030273c5.5175781 10.6635742 9.8095703 14.8583984 13.2353516 20.6308594 2.1660156 3.6489258 2.6972656 7.2695313 2.6972656 7.2695313l.5703125-.5712891s.8642578-3.1611328 2.1445313-7.6625977c1.8808594-6.6108398 4.3720703-16.2954102 3.9648438-24.5957031-.2177734-4.4404297-1.4902344-8.1582031-2.8408203-11.4140625-2.5830078-6.8056641-5.9121094-10.1992188-5.9121094-10.1992188s1.0458984 4.7084961 1.7333984 11.7529297c-.3310547 5.6992188-1.3242188 10.5029297-1.6074219 15.5400391-.2529297 4.5058594.6601563 9.5742188.6601563 9.5742188s-1.546875-4.5820313-5.9648438-9.6821289c-2.5683594-2.9638672-5.8505859-5.706543-8.5205078-8.0908203-2.6699219-2.3833008-4.7285156-4.4077148-4.7285156-4.4077148s1.4003906 5.7133788 4.5683593 11.8559569z"/><path d="m378.28125 143.0947266c4.0878906 5.065918 9.1875 9.7939453 12.9013672 12.8642578 2.9677734 2.8691406 4.3408203 4.9833984 4.3408203 4.9833984h.375s.1269531-2.3652344.4277344-5.6796875c.4707031-5.1538086 1.2871094-11.4140625-.8564453-19.237793-1.4785156-5.1479492-4.0898438-9.4736328-6.5908203-12.4316406-2.5869141-3.0595703-5.0371094-4.5507813-5.0371094-4.5507813s.3193359.7290039 1.1269531 2.9384766c.6748047 1.8481445 1.7685547 4.8071289 2.5693359 8.5249023.7382813 3.4394531 1.3203125 7.0141602 1.9306641 10.1811523.7666016 3.9916992 1.5527344 7.1269531 1.5527344 7.1269531s-.9335938-2.7329102-4.9296875-6.3237305c-3.2373047-2.9082031-8.2978516-5.8569336-11.8417969-8.5727539-3.5449219-2.7158203-5.4121094-5.0371094-5.4121094-5.0371094s.616211 5.1171877 9.4433594 15.2143557z"/><path d="m378.4296875 132.5424805c-6.4365234-6.9082031-8.9775391-11.7407227-12.0576172-16.237793-1.8408203-2.6865234-3.3222656-4.5004883-3.3222656-4.5004883s9.4570313 3.0415039 14.7363281 8.8955078c9.5390625 10.6635742 8.8955078 17.3081055 8.8955078 17.3081055s-5.2978515-2.1899414-8.2519531-5.465332z"/></g><path d="m307.0527344 103.5151367c-12.8393555 8.3837891-26.2568359 36.8349609-33.387207 70.7983398-9.2626953 44.109375-4.9174805 81.0976563 9.8916016 84.2080078 14.8081055 3.1103516 33.6635742-29.0087891 42.9262695-73.1191406 7.1318359-33.9619141 6.2900391-65.4057617-2.09375-78.2470703-2.171875-3.324707-4.7958984-5.331543-7.7998047-5.9614258-3.0029297-.6313476-6.2128907.1494141-9.5371094 2.3212891zm-22.9672852 152.4907227c-12.9501953-2.7226563-16.5703125-39.8896484-7.9033203-81.1640625 3.480957-16.5786133 8.4785156-32.0068359 14.453125-44.6171875 5.7133789-12.0610352 12.0444336-20.7822266 17.8237305-24.5551758 2.7324219-1.7851563 5.2910156-2.4448242 7.6035156-1.9589844 2.3115234.4853516 4.3886719 2.1181641 6.1738281 4.8510742 3.7734375 5.7807617 6.0615234 16.3105469 6.4423828 29.6518555.3984375 13.9482422-1.2314453 30.0834961-4.7119141 46.6606445-8.6679687 41.2753907-26.930664 73.8486329-39.8813476 71.131836z"/><path d="m309.3388672 100.9794922s4.3544922-1.5009766 8.8056641 0c2.8466797.9599609 5.5800781 3.1655273 7.7431641 7.7172852 6.9306641 14.503418 5.1708984 37.0805664 5.1708984 37.0805664h-2.2148438s.0742188-22.7915039-5.1435547-33.3657227c-4.8027344-11.1274414-12.8027344-7.3730469-12.8027344-7.3730469z"/><circle cx="308.633301" cy="103.643555" r="3.777832"/><path d="m274.3344727 134.6201172c-2.1210938.9765625-3.722168 2.8959961-4.7607422 5.7045898-3.9345703 10.6494141.6469727 33.4995117 11.4013672 56.859375 6.5693359 14.2700195 14.5527344 26.871582 22.480957 35.4848633 8.2470703 8.9619141 15.6103516 12.6005859 20.7314453 10.2441406 5.1201172-2.359375 7.1445313-10.3173828 5.7001953-22.4111328-1.3896484-11.625-5.7724609-25.8852539-12.3417969-40.1547852-6.5683594-14.2680664-14.5517578-26.8706055-22.4804688-35.484375-8.2485351-8.961914-15.6108398-12.599121-20.7309569-10.2426757zm40.8754882 46.8037109c14.2666016 30.9902344 15.6044922 55.6054688 7.9013672 59.1533203-7.7021484 3.5439453-25.5332031-13.4775391-39.7993164-44.46875-7.96875-17.3076172-12.5615234-34.703125-12.5615234-46.2900391 0-3.4257813.402832-6.3447266 1.2363281-8.6025391.7929688-2.1455078 1.9443359-3.578125 3.4228516-4.2587891 7.7021484-3.5458983 25.5341797 13.4755861 39.8002929 44.466797z"/><path d="m274.6162109 133.7382813c2.8989258-1.1035156 6.9296875.2866211 6.9296875.2866211 2.5825195.9545898 5.3081055 2.7270508 7.3950195 4.465332 7.2822266 6.0644531 13.0395508 15.1469727 13.0395508 15.1469727l-1.965332 1.2148438s-5.3232422-8.340332-11.4311523-13.3618164c-2.6420898-2.1704102-5.5454102-3.5058594-7.5737305-4.1069336 0 0-2.7539063-.8510742-4.902832-.019043-1.6630859.6450195-2.8496094 3.0195313-2.8496094 3.0195313-1.6079102 3.3457031-1.5004883 9.1806641-1.5004883 9.1806641l-3.8930664.2861328s-.0473633-7.2851563 2.3759766-11.5214844c0-.0000001 1.6254883-3.5439454 4.3759765-4.5908204z"/><circle cx="270.024902" cy="151.913574" r="3.304688"/><path d="m296.2548828 167.3867188c-16.4384766 2.4970703-31.5966797 6.9213867-42.6811523 12.4584961-11.5068359 5.7490234-17.3530273 12.1455078-16.4624023 18.012207v.0004883c.3681641 2.4228516 1.8417969 4.5991211 4.3774414 6.4672852 9.6679688 7.1162109 34.2412109 9.1513672 61.1469727 5.0644531 16.4384766-2.4980469 31.5966797-6.921875 42.6806641-12.4589844 11.5068359-5.7485352 17.3535156-12.1455078 16.4628906-18.0117188-.8916016-5.8676758-8.3740234-10.2387695-21.0693359-12.3105469-12.2285158-1.9960937-28.0166017-1.7192382-44.4550783.7783204zm-56.6586914 29.3129882c0-8.8886719 22.2983398-21.4921875 57.0449219-26.7700195 35.7641602-5.4335938 61.2397461.4604492 62.5952148 9.3745117 1.3535156 8.9140625-21.2226563 22.1088867-56.9863281 27.5415039-25.8652344 3.9306641-50.2236328 2.0419922-59.2358398-4.5927734-1.9677734-1.4472656-3.0981445-3.0566406-3.3598633-4.78125-.038086-.2539063-.0581055-.5112305-.0581055-.7719727z"/><path d="m276.4545898 208.4199219s-19.2236328.1240234-28.9365234-4.0722656c-3.9604492-1.7109375-6.7055664-3.7709961-7.4482422-6.1625977-.7670898-2.4736328.5366211-5.2514648.5366211-5.2514648l-3.2695313 2.1972656s2.1347656 8.5654297 11.0927734 12.3251953c10.5742188 4.4365234 28.2397461 4.1787109 28.2397461 4.1787109z"/><circle cx="278.303711" cy="209.946289" r="3.081543"/><path d="m259.1137695 164.7822266c-2.2875977 3.8798828-.0029297 10.0151367 6.4365234 17.2788086 6.1787109 6.96875 15.5068359 14.3012695 26.2685547 20.6469727 10.7602539 6.3476563 21.6918945 10.9658203 30.777832 13.0019531 9.4716797 2.1201172 15.9482422 1.1533203 18.2373047-2.7275391 2.2880859-3.8798828.0009766-10.0166016-6.4375-17.2792969-6.1777344-6.9677734-15.5068359-14.3007813-26.2675781-20.6479492-10.7602539-6.3476563-21.690918-10.9633789-30.7773438-12.9995117-9.4716796-2.1225586-15.9492186-1.1533203-18.2377929 2.7265625zm47.9262696 12.1191406c23.3369141 13.7646484 35.359375 29.2060547 31.9472656 34.9912109-3.4130859 5.7871094-22.7431641 2.7353516-46.0805664-11.0297852-20.7172852-12.2192383-32.5175781-25.7602539-32.5175781-32.6948242 0-.8759766.1875-1.6474609.5712891-2.2973633 3.4130859-5.7856445 22.7436523-2.7338866 46.0795898 11.0307618z"/><path d="m312.4111328 210.6171875s11.3642578 3.4296875 18.9160156 3.4296875c3.1289063 0 5.4628906-1.3525391 6.4306641-2.3583984.4082031-.4257813.375-1.0712891.375-1.0712891l3.9648438.1074219s-.671875 6.0009766-9.2167969 6.0009766c-6.8046875.2646484-21.1132813-4.8232422-21.1132813-4.8232422z"/><circle cx="340.07959" cy="209.0625" r="3.340332"/><circle cx="309.634766" cy="198.959961" r="4.166016"/></g></svg>