<svg height="600" viewBox="0 0 900 600" width="900" xmlns="http://www.w3.org/2000/svg"><g transform="translate(164.04167 385.3988)"><path d="m-164.04167-385.3988h900v600h-900z" fill="#6abd51" fill-rule="evenodd"/><g transform="matrix(1.1981566 0 0 1.1979346 -159.75594 -382.48645)"><ellipse cx="372.00003" cy="247.99989" fill="#fcdd09" fill-rule="evenodd" rx="130.20001" ry="130.22414" stroke-width=".834693"/><path d="m303.0845 229.63772c-4.51737.62949-5.6592-7.35278-5.39809-13.49524.0593-1.39458 3.63781-9.33431 3.60937-1.86336-.007 1.83376 1.38141 3.11486 2.02342 4.79711 1.75294 4.59315 4.7183 7.35065 3.40315 1.8776-1.03467-4.30583-9.025-18.79267 12.6738-31.56714 9.41196-5.54098 19.22704-7.53503 27.92928-17.13309.95422-1.05244 3.49387-5.00517 3.7552.2347.0707 1.41647-1.20892 2.56898-2.46436 4.34195-1.17051 1.65304-3.09853 4.46904 1.87761 2.46435 4.02432-1.62124 6.89071-4.24668 10.0921-7.86245 4.70254-5.31124 10.14565-7.05909 20.18419-14.19934 3.15573-2.24463 7.76698-1.96388 2.5817 2.22965-1.56041 1.26196-1.8199 5.56603-3.52051 7.97979-1.29219 1.83409-6.29832 5.52668.35206 3.40315 6.57553-2.09963 10.44076-1.9179 22.45411-13.54385 2.5431-2.4611 3.96363-6.44527 14.15907-4.88009 5.81148.89217 10.90738 1.11387 16.19428-2.46435 1.49612-1.01258 5.49293-3.93862 1.52555 1.99495-8.93336 13.36063-20.88004 7.07495-28.50422 15.56728-4.07957 4.54409-.91192 3.05499 2.1005.62701 2.9422-2.37138 6.0577-4.19122 11.73499-2.11229 1.9537.71541 3.79261.18962 5.75015-1.29085 3.66713-2.77342 2.75229-.13255 1.76025 1.99495-1.53441 3.29066-4.83809 4.09711-8.09714 5.28074-2.68813.97628-1.57697 1.66397.70409 1.99495 5.50499.79878 14.45256 2.62362 16.07694 1.52555 2.11544-1.43002 3.37063-1.28142.82145 1.99495-3.47663 4.46839-9.71235 4.91109-16.45503 5.20367-3.90337.16937-9.17838 3.34318-14.05596 7.47012-3.81667 3.22931-3.50025 2.95067-.9388 2.46435 1.33538-.25354 5.52208-.7064 1.48284 2.63275-1.50223 1.24186-4.26107 5.66528-6.52806 7.83908-1.53242 1.46943-3.74627 2.61513-6.33772 3.49282-2.10238.71205-7.02292.68939-1.05615 2.22964 6.38838 1.64909 11.7115.83605 17.81463-.95303 5.45677-1.59961 10.8344.90144 17.03831 4.70823 3.60565 2.21246 7.17909 4.91807 13.17756 3.07123 3.34629-1.03027 5.82027-1.00337 1.49117 2.67892-5.09091 4.33027-12.10639 5.77766-20.94195 4.15347-3.76172-.69149-7.52341-1.38298-11.28513-2.07447-3.52695-.64834-6.96171.47718-.16596 1.49362 8.24462 1.23315 13.69313 7.92111 23.31709 10.28939 1.08624.2673 2.15163.0224 3.23617-.083 1.91715-.18631 5.78456.31583 1.41064 2.48937-3.96126 1.96847-6.38498 2.05361-13.52555.99575-2.24044-.33192-4.48086-.66383-6.72129-.99575-2.56253-.37964-4.02974-.50422-.4149 1.1617 5.18646 2.39023 7.99799 6.46973 16.51281 7.21917 4.10929.36168 3.40079 1.17703.58086 2.48937-4.29941 2.00086-9.2819 1.97289-14.2724 1.49362-3.289-.31586-4.66037-1.65222-10.20639-.82979-4.71379.69902-5.04176 2.72333-14.18941-1.74256-4.45903-2.17689-5.55539-3.343-7.80002-4.39788-2.29502-1.07857-5.17481-2.73545-2.07448 1.65958 2.63085 3.7295 3.10698 7.68617 12.11494 11.86599 3.59974 1.67033 4.55414 1.89529-.083 2.32341-12.19655 1.12603-12.37504-1.72223-17.09367-3.90001-3.49663-1.6138-6.59993-2.35919-10.87024-1.49362-2.40403.48728-10.42003 2.47652-14.52131 5.72554-4.18001 3.3114-15.85606-.19246-15.85606-.19246 8.79874-16.86767-22.73731-26.62734-36.5625-26.38487z" fill="#da121a"/><g stroke="#000" transform="translate(.000015 .011959)"><g stroke-width=".204435"><path d="m319.2512 292.59295c.43285-5.24163 3.06093-8.84037 4.98737-14.082.0767.048 9.99969-14.6267 16.51337-22.72091 2.46711-3.69218 4.81392-3.51911 8.95157-4.26957 6.9741-1.52831.89103-2.05949.11735-2.22965-2.19344-.48241-3.0331-1.29055-5.8675-2.17098-3.84928-1.19565.52061-.72306 1.34953-.88012l5.57412-1.05615c11.30097-2.14124.60026-2.10421-7.70935-5.45217-13.67108-5.5081-21.22248-11.43868-37.47038-12.50237-3.88334-.25423-3.75336 3.41669-1.66333 5.53398 1.87431 1.89877 1.73372 3.86799 1.92603 6.19385.84749 10.24942.9451 20.24944 1.49755 30.4008-2.19226 6.80699-5.1417 13.91685-6.57159 20.41889z" fill="#7d4b23"/><path d="m303.07986 229.12931c-.72066.004-.20317 1.07486-.19805 1.70575.57696 1.52751 2.00907 2.37187 2.58099 3.90342.78233.21682 1.56227.15455 2.3446 1.1755l.12139 8.79708c-.68493-.50929-1.23222-.73125-1.76325-.93274.0614.73908-.28673 1.46642-.61969 1.8463-.15779.18003-.0423.50977.0319.84968l2.22961 1.2905-.14693 8.15821-1.8463.40887c.0222 4.98685.0395 9.97834 1.05411 14.20181l.93912-.58775c.86557-.0704.97923.63473.70914 1.99324-.83798 4.37655-2.13673 8.84478-3.75649 13.37768-.93571 2.64403-2.00524 2.18605-3.20068 2.31906l5.30891-17.10223-5.51334 17.48554-.40671 1.24901c.95048.1043 1.33681.62231 3.02352.1867 1.74861-.75384 3.56125-1.44366 5.36252-2.14484-1.20018-.30114-1.32568-1.27135-1.29049-2.34461.0139-3.59032 1.70761-7.744 2.58099-11.62082.47563-1.22151.26379-2.90024 3.40511-2.34461 2.09521.60878 3.97172.99893 6.80384 2.34461 1.8498 1.02952 3.49635 2.18941 4.10785 3.99286l2.351-3.16874c-1.50466-1.44392-7.8981-3.42859-12.32357-5.04697-.46027-.32572-1.10561-.39269-.82413-1.75686l1.06051-4.34424c.20056-1.97799 1.29628-1.90553 2.58098-1.40548 3.30425.33974 10.77265 3.79217 12.90492 7.62796l2.5235-3.49455c-5.14461-2.85485-10.0215-4.87828-14.84067-6.59941-1.43713-.57763-1.29428-1.74315-1.29688-2.8493l.12138-5.13003c.45604-2.63917 1.17518-1.91683 1.82075-1.91019 5.63995 1.25774 13.92242 4.30177 19.29991 9.41677 1.02135-.85366 1.00655-2.51735 3.64147-2.10823l-.35136-2.37655c-.46317-.61215-6.48054-1.24454-8.46488-2.44683-4.15219-1.85057-8.27285-3.73156-12.66216-4.80421-1.36624-.33391-1.35014-1.35525-1.17549-2.4596l.47275-5.16197c.31204-1.76369 1.69644-2.4748 1.52687.22998-.75959 7.93183.72278 6.53194 2.10823.12139.32073-1.49775 2.31202-1.45251 1.64826.81774-.28912 1.2798-.99087 3.61057.93273.47275.4235-.72174.85786-1.6487 1.99962-1.29049 5.84404 1.83347 5.76124 3.08879 8.33072 3.98647 2.74554.95928 5.31873-.3076 1.75685-1.87824-8.33296-3.6745-16.62122-7.15476-25.93124-9.7362-2.37357-.47819-4.64889.86817-7.1616-2.11462-1.00459-.58284-1.58261-.80043-1.91018-.79857zm9.59564 6.14581c.75309.0124 1.56703 1.19814 1.35438 2.22323l-.38331 5.20669c-.0894 3.34881-2.50971 2.62217-2.25517.2811l.17249-5.66667c.10686-1.51373.59634-2.05285 1.11161-2.04435zm4.66366.85607c.70987-.008 1.36601.99679 1.06051 2.36378l-.55581 5.74972c-.4169 2.00548-2.70457 1.94475-2.46599-.23638l.82413-6.63134c.26876-.87569.71124-1.24103 1.13716-1.24578zm-5.44307 11.73582c.55491.0136 1.06824.61735.95829 1.83353l-.46637 4.98948c-.097 2.53967-2.12228 2.45502-1.93573.11499l.22998-5.21947c.0613-1.15303.65893-1.73208 1.21383-1.71853zm3.46261 1.98046c.44974-.009.88377.52973.86885 1.43743l-.54942 4.05675c.0369 1.97097-1.76348 1.89082-1.58436.0831l.34498-4.1398c.11416-.99464.52313-1.42918.91995-1.43743zm-5.11086 10.42616c.35401-.01.68908.50171.6133 1.57159l-.47275 4.45923c-.0151 1.09755-1.40682 1.20943-1.22661.0639l.35137-4.52312c.009-1.03001.38068-1.56162.73469-1.57159zm2.7982.32582c.45264-.009.89337.56759.68997 1.36716l-.40887 3.16873c-.0293.9068-1.38254 1.63897-1.41188 0l.35137-3.29012c.0648-.87913.42736-1.23852.77941-1.24577z" stroke-linejoin="round"/></g><g stroke-linejoin="round"><path d="m288.72048 317.67635c1.1747 3.22246 1.55473 6.47654 1.8415 9.85315l-5.07155 17.509c3.32374 2.94393 6.92767 6.00024 10.79709 8.61029l5.62712-14.95484c.65143-1.66593 1.87219-.7406 3.02943.24099 2.09016 1.77924 2.96051 3.45404 7.06883 3.14433 3.51872-.26528 3.19247-.30032 6.04826 1.6403 16.51152 11.87717 27.19105 21.60872 43.38781 33.85336 15.44086 1.16885 34.16165.89424 58.00622-8.52672-22.32008-21.29928-43.98502-21.88484-56.63904-29.09002-10.67944-6.08084-21.43314-9.90017-27.05113-19.08517-2.51806-4.11684-.36224-6.93713-2.90428-10.41385-3.63628-4.97328-3.13222-8.53949-4.89575-12.32237-1.2607-2.7043-3.09974-5.05236-5.64256-6.80427-1.89412-1.30497-5.18039-4.01268-12.36387-4.06597l-5.72554 1.41064-6.05747.66383-1.32766 4.23193-3.23618 1.90852-3.96839 8.12309z" fill="#7d4b23" stroke-width=".306652"/><g stroke-width=".204435"><path d="m287.39488 346.63965 5.553-19.13031c1.23629-4.15519 4.0531-3.24063 2.65533 1.16172l-6.15451 19.68701z"/><path d="m298.95084 329.05157c2.05429-5.04303 3.77291-3.75114 2.12898 1.11311l-7.2282 21.6785c-.62784-.51047-1.13412-.8994-1.88422-1.53215z"/><path d="m384.53667 377.43302c-11.69351-7.71681-19.38206-13.7423-25.50583-19.7086-19.86249-19.35176-2.27203-3.95303 6.62832 2.94747 7.21533 5.53956 13.97413 10.23848 24.41125 16.20075z"/><path d="m299.09977 288.53671c-1.7515.006-3.24317 1.65853-2.58737 3.90342-.0821 1.12693-.52574 1.15157-.79219 1.55881-1.61715.61899-.68239-1.42404-4.39534 2.4085-.60406.96388-.78147 1.06064-.75385 1.82713.0504 1.39914-.44099 2.97585-1.0669 3.9162-.71326.65405-.94799 1.33361-1.02217 2.21684-.0652.80782-.0252 1.64194.0192 2.42766.12389.90379.0167 1.7296-.12777 2.56182-.15872.9168-.25405 1.68529-.15333 2.74069.22653 1.1432.33512 1.91954.10222 2.9707-.55451 2.51211-.3259 3.4833 0 4.49116.47453.82362.4621 1.63462.51108 2.45961.0553.90847.1917 2.03944.51109 2.86848.60974.58693 1.18647 2.55088.91996 3.73093 1.62756-4.92638 4.46741-8.07996 10.56032-5.98611 2.30315 1.36317 3.40483-2.651 5.10447-.64525 2.08513.2611 6.20966-1.65721 6.22248.82413.25882 2.49084.43916 5.5393 4.36979 6.7783 2.19205.84192 6.12503-.72736 5.60278 3.87146.17603 2.62093-2.96326 4.69302.70913 7.57047 2.74224 2.0568 9.63437 1.55902 4.8681-1.00301-2.13861-1.53228-2.86017-1.68113-3.46261-3.02179-1.3105-2.91638.56255-4.68098 1.29049-3.92899l8.86097 9.15485c6.85373 7.78143 14.92247 15.15642 22.6475 22.64752l4.69562 4.57422c1.96204 2.72579 4.27363 5.10291 5.93503 8.37975.96807.0463 1.68319.0638 2.44186.11013-2.49289-3.11608-5.23631-5.62297-7.82747-8.24709-9.51524-10.17974-19.56402-19.8933-28.51222-30.56934-1.31016-1.52909-1.01128-1.55645-1.15634-1.99324-.26188-3.84315-1.96219-6.12165-2.98987-9.12927-1.12342-3.39744 1.83714-6.09838 2.16573-9.39761.43129-4.32935-2.28726-3.33713-2.1274.15333.11957 2.61062-2.07007 4.09351-2.56821 5.90942-.39766 1.44989-.73405 2.69414.37054 4.49756 1.55827 2.04265 2.10594 3.40931 2.75988 4.84894.98006 2.42398.22079 1.53132-.47277.76025-2.17939-1.93824-3.79268-3.85761-5.51334-6.24165-2.02694-2.73826-2.83381-1.21706-5.01504-1.40549-2.5524-.0534-3.349-1.44801-4.49117-3.78843-1.64081-8.37209.0673-9.45146 1.45021-21.72116.28588-1.57685 6.16439-2.70548 1.89741-2.98347-4.22869-.11915-4.08216.0166-5.30252-1.98685-.47991-.81119-.55287-1.19321-.63247-1.98684-.11333-1.0499-1.06374-.98597-2.5171-.24916-4.06148 1.86757-6.6143 2.17817-10.44533.52386-.11101-.18351-.0634-.469.29388-.96467 2.22098.27803 2.57795-.46399 3.11123-1.20744.62289-.86838.30972-2.27388-.20443-3.04735-.41158-.61916-1.6944-1.00926-3.11124-1.1755-.057-.003-.11599-.007-.17249-.006zm-.15971 1.57798 2.38932.23637c-.007.81914-.51562 1.19277-.35137 2.52349-1.33384.0182-1.99474.0331-2.69598-.11499-.0112-1.44635.13982-1.89434.65803-2.64487zm-3.20068 5.69861c.45449.002.93074.0949 1.39271.30026l4.22285 1.87825c1.77481.44086 3.63923.43726 5.63473-.23638 1.61874-.2924 3.02072-.16382 3.98647.82412.59004.64365 1.22454.92658 1.16272 1.78881-.12712 1.77301-1.551 3.59453-3.53927 1.41187-.84111-.92333-2.16601-.64677-3.25179-.85607-1.68201.22133-3.36496.22123-5.04698 0-2.25585-.0144-4.44127-.24032-5.74333-.8944-3.18907-1.60201-1.27236-4.22569 1.18189-4.21646zm4.31868 6.27997c2.76505-.004 5.33483.39325 6.69523 1.99963 1.52167 1.37296 4.30084 1.71162 4.29312 3.80759-.005 1.48749-1.35201 4.86969-3.75648 2.46599-1.87982-1.87922-2.88494-2.63825-5.23225-2.98985l-8.79707-.22999c-1.72661.57938-4.45638-4.41942.46637-4.69561 1.91164-.10725 4.18048-.35458 6.33108-.35776zm-2.75987 6.91883c1.35197-.004 2.70478.0889 4.05675.24277 2.59332.39984 3.7081 1.69168 5.28335 2.70238l1.52049 1.52686c.33478 1.39465-1.15987 4.25461-3.04736 3.63511 0 0-2.8517-1.85739-4.45922-2.34462-2.5218-.76434-7.86435-.82411-7.86435-.82411-3.05656.025-3.50796-3.55445-.70274-4.34425 1.73825-.42158 3.47484-.58869 5.21308-.59414zm15.67757 1.4566c1.06091-.0115-1.15545 3.2685-1.62908 1.87824.27078-.68481.47381-1.24161.95828-1.65465.29995-.15923.51925-.22195.6708-.22359zm-14.3168 5.36001c2.80811.45728 3.27766 4.22633.11499 4.69561l-4.57422-.12139-1.99962.58775c-2.27421.62475-3.16568-1.55015-1.31605-3.80119 1.26586-1.54058 5.01541-1.00844 7.7749-1.36078zm11.34611 1.09883c.61195.006 1.04136.54916.0192 2.13381-.47606.73799-1.43066.47711-1.74408-.53664-.17973-.81353.47049-1.24305 1.29049-1.5205.14526-.0491.29321-.0781.43442-.0767z"/><path d="m302.16359 334.47477c.69275-4.35421 1.97792-6.37713 3.70972-10.25601.39225-1.12484.0534-2.093-.0587-3.10977l5.45678.3227c-.0222.26163-.68537-.0479-1.12972.51394-1.78713 2.74364-4.77523 8.36841-6.32201 12.95197.99782 1.30493 1.07501 2.64668 1.11483 3.98991-.7769-.69679-1.29978-.93725-1.66078-1.04243-.96188-.46791-1.61409 1.0484-2.10254 2.76287.22784-1.21125.5069-1.47918.46416-2.19346-.54115-.45466-.51182-2.11712-.0393-2.44579.55701-.32258.49179-.87686.56751-1.49393z"/><path d="m315.17329 341.9386c1.22482.30426 2.00754.95084 2.78706 1.70157.0612.13231-.10026-.99204.64543-1.87759.35784-.42496-1.32617-1.20889-1.76025-.88013-.58807.44536-1.33049.96564-1.67224 1.05615z"/><path d="m384.18651 359.34006c4.85215 5.52348 5.61364 4.1905 3.53839 1.43321-11.22346-14.91201-16.57678-14.35977-12.34065-10.50579 3.84464 3.49782 3.50511 3.04254 8.80226 9.07258z"/></g><g fill="none" stroke-linecap="round"><path d="m419.338 368.8148c-22.32008-21.29928-43.92252-21.73937-56.57654-28.94455-10.67944-6.08084-21.37845-9.81423-26.99644-18.99923-2.51806-4.11684-.36224-6.93713-2.90428-10.41385-3.63628-4.97328-3.13222-8.53949-4.89575-12.32237-1.2607-2.7043-3.09974-5.05236-5.64256-6.80427-1.89412-1.30497-5.18039-4.01268-12.36387-4.06597l-5.72554 1.41064" stroke-width=".818"/><path d="m291.03138 326.00395-5.38013 18.8259" stroke-width=".817738"/></g></g></g></g></g></svg>