<svg xmlns="http://www.w3.org/2000/svg" id="Calque_1" width="900" height="600"><style id="style16235">.st3{fill:#010101}</style><path id="XMLID_1_" fill="#129dd2" d="M0 0h900v600H0z"/><path id="XMLID_18_" fill="#fff" d="M0 0h600v600H0z"/><path id="XMLID_7_" fill="#d44d4a" d="M0 0h300v600H0z"/><path id="XMLID_3_" class="st3" transform="translate(-.05)" fill="#010101" d="M113 323.3h109v-53.5H113v-75.7h126.3v-53.4H60.8v318.6H113z"/><path id="XMLID_5_" class="st3" d="M544.146 197.243c-9.195-33.782-36.18-48.374-52.671-52.872-16.491-4.497-89.251-3.598-89.251-3.598h-52.172V459.3h52.172V338.566c8.995.3 41.477.8 76.258-2.799 40.978-4.297 57.169-32.182 64.565-53.27 7.396-21.19 10.394-51.573 1.1-85.254zm-48.573 42.477c-.9 23.187-11.894 42.776-39.379 44.575-17.79 1.2-40.378.8-53.97.4v-90.45c11.793-.1 62.266-.4 70.661 4.997 9.395 6.096 23.587 17.29 22.688 40.478z" fill="#010101" stroke-width=".999"/><path id="XMLID_13_" class="st3" d="M821.988 370.776c-14.887-31.073-44.362-52.454-44.362-52.454 37.967-6.894 53.853-28.376 61.647-48.458 7.793-20.083 13.488-57.95-6.195-92.52-19.683-34.47-50.556-34.371-64.844-35.77-14.288-1.399-83.328-.7-83.328-.7h-52.155V459.3h52.155V326.015c34.37-.1 37.568 2.798 45.56 8.393 8.094 5.695 19.983 26.977 26.877 38.966 6.895 11.99 47.26 85.127 47.26 85.127h62.646c-5.296-14.288-30.474-56.751-45.261-87.725zm-80.73-95.817h-56.452v-80.33c10.391-.1 77.333-.9 86.425 3.197 9.892 4.496 15.487 11.69 16.786 16.685 1.299 4.996 4.396 12.49 3.297 24.879-1.099 12.39-4.896 22.38-13.888 28.575s-18.784 6.994-36.169 6.994z" fill="#010101" stroke-width=".999"/></svg>