<?xml version="1.0" encoding="UTF-8"?>
<!-- Created with Inkscape (http://www.inkscape.org/) -->
<svg width="900" height="600" version="1.1" viewBox="0 0 238.12 158.75" xmlns="http://www.w3.org/2000/svg" xmlns:cc="http://creativecommons.org/ns#" xmlns:dc="http://purl.org/dc/elements/1.1/" xmlns:rdf="http://www.w3.org/1999/02/22-rdf-syntax-ns#">
 <defs>
  <style type="text/css"/>
  <style type="text/css"/>
 </defs>
 <metadata>
  <rdf:RDF>
   <cc:Work rdf:about="">
    <dc:format>image/svg+xml</dc:format>
    <dc:type rdf:resource="http://purl.org/dc/dcmitype/StillImage"/>
    <dc:title/>
   </cc:Work>
  </rdf:RDF>
 </metadata>
 <g transform="translate(266.47 86.072)">
  <g transform="matrix(.26458 0 0 .26458 -367.01 -5.9415)">
   <rect x="380" y="-302.86" width="900" height="600" fill="#840000"/>
  </g>
  <g transform="matrix(.26458 0 0 .26458 -564.7 -203.63)">
   <path d="m1645.4 862.95-67.904-36.025-68.172 35.514 13.278-75.713-54.842-53.861 76.11-10.768 34.278-68.802 33.76 69.058 76.028 11.339-55.245 53.448z" fill="#c00000" stroke="#fd9f3d" stroke-width="2.4158"/>
   <g fill="#fd9f3d">
    <path d="m1559.6 731.08-28.76 29.911 14.092 13.23 10.929-11.792 59.247 60.109c8.2187 9.8641 16.863-0.0872 8.9156-7.4777l-60.972-59.822 17.544-18.119z" stroke-width=".80529"/>
    <path d="m1549.5 789.18-23.871 30.199c-6.1021 6.8754 3.6698 15.665 9.4909 8.3405l18.407-26.46c58.135 35.208 93.195-47.375 33.074-71.614 38.576 35.044 8.5434 90.409-37.101 59.534z" stroke-width=".80529"/>
    <g transform="matrix(.95259 0 0 .95259 1104.6 481.71)">
     <path transform="matrix(.84537 0 0 .84537 182.09 -174.37)" d="m195 510.93c0.35765 26.171-21.686 71.912 15.268 67.411 22.326-2.7196 8.5606-31.429 1.0714-47.857 9.2002 10.771 21.779 22.713 16.786 44.375 62.087-35.168-16.006-47.344-33.125-63.929z"/>
     <path transform="matrix(.84537 0 0 .84537 182.09 -174.37)" d="m180.92 597.23c18.207 18.802 18.631 58.595 52.794 40.108 17.402-9.4169-10.776-30.26-27.493-37.082 14.083 1.5303 31.932 6.1414 43.153 25.332 24.012-73.072-43.773-29.44-68.454-28.359z"/>
     <path transform="matrix(.84537 0 0 .84537 182.09 -174.37)" d="m206.9 661.48c22.576 13.242 43.746 48.897 63.12 26.531 17.52-20.226-20.815-25.39-40.457-26.348 13.861-2.2176 15.547-6.0288 42.615 2.0444 21.827-60.756-42.656-14.521-65.278-2.2278z"/>
    </g>
    <path d="m1493.3 904.8 6.4174-31.431 26.945-14.012c43.652 18.712 57.756 18.712 100.66 2.7e-4l26.945 14.011 6.4176 31.43c-52.765 32.947-112.89 33.776-167.39 4.2e-4z" stroke-width=".95259"/>
   </g>
   <g stroke-width=".80529">
    <path d="m1425.3 578.08c42.725 9.7635 74.861-0.52515 121.96-13.942 70.453-20.07 154.03 9.2452 194.41 77.215l-44.291 83.406c-30.647-58.225-94.102-91.424-139.76-74.357-102.04 38.144-84.752 18.926-108.73 23.738z" fill="#fff" stroke="#fd9f3d"/>
    <path d="m1425.3 578.08c58.53 43.98 124.47-2.6483 167.39 21.283 53.419 8.5964 96.238 35.565 126.65 84.037l-21.963 41.359c-30.647-58.225-94.102-91.424-139.76-74.357-102.04 38.144-84.752 18.926-108.73 23.738z" fill="#c00000"/>
    <path d="m1425.3 578.08c58.53 43.98 124.47-2.6483 167.39 21.283-18.221 3.6305-43.282 12.751-65.719 35.692-18.994 19.421-50.833 36.648-78.083 39.085z" fill="#004080"/>
   </g>
   <g transform="matrix(.95259 0 0 .95259 1104.6 481.71)" fill="#c00000" font-size="40" font-weight="700" letter-spacing="0" word-spacing="0">
    <path transform="matrix(1.157 0 0 1.2725 787.87 -135.59)" d="m-278.53 463.92-7.7535-2.6922c-0.50761-2.7469-1.1559-5.4456-1.9449-8.096-0.78902-2.6504-1.668-5.224-2.6369-7.7208l0.1243 0.0432-3.5579 8.4719c-0.14753 0.35124-0.2137 0.67018-0.19863 0.95677 0.0151 0.28662 0.14054 0.55363 0.37638 0.80103 0.13617 0.13003 0.43045 0.33937 0.88287 0.62801 0.45241 0.28862 0.95727 0.54103 1.5146 0.7572l-0.83189 1.9808-11.34-3.9376 0.82471-1.9637c0.53549 0.13541 1.0624 0.26698 1.5806 0.39466 0.51824 0.12772 0.88554 0.18292 1.1018 0.16569 0.31353-0.0227 0.58484-0.13251 0.81395-0.32955 0.22909-0.19702 0.42234-0.48295 0.57976-0.85775l7.6935-18.319c0.14654-0.34894 0.21502-0.66185 0.20543-0.93873-0.01-0.27685-0.13848-0.54198-0.38658-0.79542-0.24567-0.25515-0.55287-0.51099-0.92162-0.76755-0.36877-0.25651-0.81953-0.50036-1.3523-0.73154l0.82855-1.9729 11.34 3.9376-0.83429 1.9866c-0.57808-0.17717-1.1225-0.30283-1.6332-0.37696-0.51074-0.074-0.903-0.11077-1.1768-0.11006-0.33323 1e-3 -0.60968 0.11173-0.82938 0.33203-0.21973 0.22035-0.40366 0.50689-0.55179 0.85963l-3.5283 8.4012-0.19842-0.0689c1.3005-0.47701 2.6856-1.0314 4.1553-1.6631 1.4696-0.63173 2.8224-1.2835 4.0585-1.9554 1.3585-0.73739 2.377-1.345 3.0555-1.8229 0.67846-0.47784 1.1079-0.93153 1.2883-1.3611 0.015-0.0357-0.0303-0.11136-0.136-0.22689-0.10571-0.11549-0.27192-0.24967-0.49868-0.40248-0.29302-0.18182-0.55933-0.32399-0.79898-0.4264-0.2397-0.10239-0.56033-0.2407-0.96186-0.41502l0.82855-1.9729 10.32 3.5836-0.84004 2.0002c-0.27829-0.0966-0.48097-0.15951-0.60749-0.19006-0.12676-0.0301-0.27201-0.067-0.43563-0.11081-0.13875-0.0368-0.29869-0.0667-0.47984-0.0895-0.18124-0.0228-0.38135-0.0514-0.60039-0.0856-0.4842-0.0523-0.96719-0.0544-1.449-7e-3 -0.48183 0.0479-0.91104 0.16759-1.2876 0.35912-1.647 0.75224-3.4935 1.6954-5.5396 2.8295-2.0461 1.1342-3.9185 2.027-5.6172 2.6784 0.9672 2.5154 1.7372 4.7422 2.3101 6.6803 0.57285 1.9381 1.1644 3.923 1.7747 5.9547 0.23429 0.79655 0.52069 1.4685 0.85922 2.016 0.33847 0.54742 0.6371 0.96319 0.89587 1.2473 0.22656 0.24244 0.53977 0.47728 0.93959 0.70453 0.39977 0.22723 0.86889 0.44654 1.4074 0.6579z"/>
    <path transform="matrix(1.157 0 0 1.2725 787.87 -135.59)" d="m-243.47 453.4c0.59813 0.66489 1.0421 1.3983 1.3318 2.2003 0.28969 0.80201 0.43455 1.7251 0.43457 2.7692-2e-5 2.513-0.92918 4.5852-2.7875 6.2164-1.8583 1.6313-4.162 2.4469-6.911 2.4469-1.2712 0-2.5305-0.19388-3.7781-0.58166-1.2476-0.38778-2.1965-0.83883-2.8467-1.3532l-0.71899 1.3989h-2.2095l-0.27832-10.088h2.3108c0.36702 1.3208 0.75887 2.4323 1.1755 3.3344 0.41666 0.9021 0.96028 1.7373 1.6309 2.5055 0.63883 0.7251 1.3719 1.2958 2.1991 1.712 0.82722 0.41627 1.7934 0.6244 2.8986 0.62439 0.82843 1e-5 1.5432-0.10518 2.1442-0.31555 0.60098-0.21036 1.0854-0.50476 1.4532-0.88318 0.3548-0.3662 0.62458-0.814 0.80932-1.3434 0.18472-0.52937 0.27709-1.1412 0.2771-1.8353-1e-5 -1.0116-0.28444-1.9531-0.85327-2.8247-0.56886-0.87158-1.4144-1.5316-2.5366-1.98-0.88868-0.35644-1.865-0.73384-2.9291-1.1322-1.064-0.39834-1.9708-0.76964-2.7203-1.1139-1.6008-0.7202-2.8499-1.6709-3.7476-2.8522-0.89763-1.1812-1.3464-2.7126-1.3464-4.5941 0-1.0864 0.22156-2.0994 0.66468-3.0389 0.44311-0.93951 1.0793-1.7836 1.9086-2.5324 0.76903-0.69007 1.6868-1.2343 2.7533-1.6327 1.0665-0.39832 2.1726-0.5975 3.3185-0.59753 1.3013 3e-5 2.4676 0.19961 3.4992 0.59875 1.0315 0.3992 1.8382 0.83804 2.42 1.3165l0.68115-1.3025h2.2046l0.16602 9.801h-2.3193c-0.33286-1.2248-0.67018-2.2971-1.012-3.2172-0.34181-0.91998-0.78045-1.7438-1.3159-2.4713-0.52491-0.70635-1.1522-1.2626-1.8817-1.6687-0.72959-0.40606-1.6266-0.6091-2.691-0.60913-1.0913 3e-5 -2.0233 0.35179-2.796 1.0553-0.77271 0.70355-1.1591 1.5623-1.1591 2.5763-1e-5 1.0995 0.25349 2.0056 0.7605 2.7185 0.50699 0.71291 1.2431 1.2992 2.2082 1.759 0.91145 0.43703 1.8148 0.81748 2.71 1.1414 0.89517 0.32391 1.7749 0.67547 2.6392 1.0547 0.80158 0.34751 1.5651 0.73692 2.2906 1.1682 0.72549 0.43133 1.3751 0.9546 1.9488 1.5698z"/>
    <path transform="matrix(1.157 0 0 1.2725 787.87 -135.59)" d="m-208.5 463.16c-1.596 0.50601-3.2428 0.67732-4.9404 0.51397-1.6976-0.16336-3.3245-0.64945-4.8809-1.4583-1.5643-0.82269-2.9947-1.9673-4.2913-3.4338-1.2966-1.4664-2.3473-3.249-3.152-5.3476-0.80057-2.0878-1.208-4.0904-1.2223-6.0078-0.0143-1.9174 0.31216-3.6795 0.97931-5.2864 0.65495-1.578 1.6299-2.9519 2.9248-4.1217 1.295-1.1698 2.8207-2.0332 4.5774-2.5901 1.3048-0.41364 2.5507-0.62635 3.7377-0.63814 1.187-0.0117 2.2431 0.14038 3.1684 0.45634l0.1762-1.4352 2.0794-0.65924 3.9665 9.8319-2.2258 0.70564c-0.63203-0.98292-1.3357-1.9285-2.111-2.8367-0.77531-0.90819-1.5414-1.6289-2.2983-2.162-0.85016-0.6078-1.7286-1.0102-2.6354-1.2071-0.90676-0.19686-1.8293-0.14657-2.7675 0.15087-1.0989 0.3484-2.0289 0.91732-2.7901 1.7068-0.76123 0.7895-1.308 1.7816-1.6402 2.9763-0.31031 1.1507-0.37804 2.5182-0.20322 4.1024 0.17482 1.5843 0.61479 3.2958 1.3199 5.1347 0.61759 1.6106 1.3839 3.0175 2.299 4.2205 0.91506 1.203 1.9327 2.1842 3.0529 2.9434 1.1249 0.75343 2.2896 1.2454 3.4941 1.4759 1.2045 0.23049 2.4226 0.15047 3.6544-0.24006 0.93133-0.29526 1.7235-0.70691 2.3764-1.235 0.6529-0.52803 1.1828-1.1392 1.5896-1.8336 0.3732-0.67421 0.65344-1.3976 0.84071-2.1702 0.18725-0.77253 0.29093-1.6968 0.31104-2.7727l2.326 0.21663c-3e-3 3.1545-0.67828 5.5826-2.0256 7.2845-1.3474 1.7018-3.244 2.9405-5.6899 3.7159zm-6.3837-36.378-2.2364 6.8174c-0.13657 0.40358-0.26872 0.71244-0.39645 0.92657-0.12775 0.21419-0.53895 0.43139-1.2336 0.65159-0.59631 0.18908-1.0428 0.23774-1.3395 0.14608-0.29672-0.0916-0.60724-0.24118-0.93154-0.44865l-6.4268-4.1109 0.95106-1.2788 6.5081 2.2765 3.475-5.4415z"/>
   </g>
   <path d="m1458.1 723.61 6.3272-1.1504-39.689-145.53-4.6018 1.7256z" fill="#fd9f3d" stroke="#fd9f3d" stroke-width=".80529"/>
   <g transform="matrix(.95259 0 0 .95259 1104.6 481.71)" fill="#fd9f3d">
    <path transform="matrix(-.84537 0 0 .84537 811.53 -174.37)" d="m195 510.93c0.35765 26.171-21.686 71.912 15.268 67.411 22.326-2.7196 8.5606-31.429 1.0714-47.857 9.2002 10.771 21.779 22.713 16.786 44.375 62.087-35.168-16.006-47.344-33.125-63.929z"/>
    <path transform="matrix(-.84537 0 0 .84537 811.53 -174.37)" d="m180.92 597.23c18.207 18.802 18.631 58.595 52.794 40.108 17.402-9.4169-10.776-30.26-27.493-37.082 14.083 1.5303 31.932 6.1414 43.153 25.332 24.012-73.072-43.773-29.44-68.454-28.359z"/>
    <path transform="matrix(-.84537 0 0 .84537 811.53 -174.37)" d="m206.9 661.48c22.576 13.242 43.746 48.897 63.12 26.531 17.52-20.226-20.815-25.39-40.457-26.348 13.861-2.2176 15.547-6.0288 42.615 2.0444 21.827-60.756-42.656-14.521-65.278-2.2278z"/>
   </g>
  </g>
 </g>
</svg>
