<?xml version="1.0" encoding="UTF-8" standalone="no"?>
<svg
   xmlns:dc="http://purl.org/dc/elements/1.1/"
   xmlns:cc="http://creativecommons.org/ns#"
   xmlns:rdf="http://www.w3.org/1999/02/22-rdf-syntax-ns#"
   xmlns:svg="http://www.w3.org/2000/svg"
   xmlns="http://www.w3.org/2000/svg"
   xmlns:sodipodi="http://sodipodi.sourceforge.net/DTD/sodipodi-0.dtd"
   xmlns:inkscape="http://www.inkscape.org/namespaces/inkscape"
   width="1200"
   height="660"
   version="1.1"
   id="svg214"
   sodipodi:docname="Flag_of_Paraguay_(reverse).svg"
   inkscape:version="0.92.3 (2405546, 2018-03-11)">
  <metadata
     id="metadata220">
    <rdf:RDF>
      <cc:Work
         rdf:about="">
        <dc:format>image/svg+xml</dc:format>
        <dc:type
           rdf:resource="http://purl.org/dc/dcmitype/StillImage" />
        <dc:title></dc:title>
      </cc:Work>
    </rdf:RDF>
  </metadata>
  <defs
     id="defs218" />
  <sodipodi:namedview
     pagecolor="#ffffff"
     bordercolor="#666666"
     borderopacity="1"
     objecttolerance="10"
     gridtolerance="10"
     guidetolerance="10"
     inkscape:pageopacity="0"
     inkscape:pageshadow="2"
     inkscape:window-width="1366"
     inkscape:window-height="706"
     id="namedview216"
     showgrid="false"
     inkscape:zoom="0.19848485"
     inkscape:cx="328.00417"
     inkscape:cy="131.49536"
     inkscape:window-x="-8"
     inkscape:window-y="-8"
     inkscape:window-maximized="1"
     inkscape:current-layer="svg214" />
  <g
     id="g1651">
    <g
       id="g1030">
      <path
         d="M 7.5e-6,0 H 1200 V 660 H 7.5e-6 Z"
         id="path4"
         inkscape:connector-curvature="0"
         style="fill:#ffffff;stroke-width:1.22474492" />
      <path
         d="M 1.5e-5,440 H 1200 V 660 H 1.5e-5 Z"
         id="path2"
         inkscape:connector-curvature="0"
         style="fill:#0038a8;stroke-width:0.57735026" />
      <path
         d="M 7.5e-6,0 H 1200 V 220 H 7.5e-6 Z"
         id="path6"
         inkscape:connector-curvature="0"
         style="fill:#d52b1e" />
    </g>
    <g
       transform="matrix(2,0,0,2,3.7500001e-6,0)"
       id="g1493">
      <g
         id="g8"
         style="fill:#ffffff;stroke:#000000">
        <path
           inkscape:connector-curvature="0"
           style="stroke-width:1.14999998"
           d="M 342.175,165 A 42.174999,42.174999 0 0 1 300,207.175 42.174999,42.174999 0 0 1 257.825,165 42.174999,42.174999 0 0 1 300,122.825 42.174999,42.174999 0 0 1 342.175,165 Z"
           id="circle2" />
        <path
           inkscape:connector-curvature="0"
           style="stroke-width:0.54500002"
           d="M 334.83,165 A 34.830002,34.830002 0 0 1 300,199.83 34.830002,34.830002 0 0 1 265.17,165 34.830002,34.830002 0 0 1 300,130.17 34.830002,34.830002 0 0 1 334.83,165 Z"
           id="circle4" />
        <path
           inkscape:connector-curvature="0"
           style="stroke-width:0.54500002"
           d="M 326.39,165 A 26.389999,26.389999 0 0 1 300,191.39 26.389999,26.389999 0 0 1 273.61,165 26.389999,26.389999 0 0 1 300,138.61 26.389999,26.389999 0 0 1 326.39,165 Z"
           id="circle6" />
      </g>
      <g
         id="g34"
         style="fill:#000000"
         inkscape:transform-center-x="0.17306573"
         inkscape:transform-center-y="-18.22959">
        <path
           d="m 269.74,161.24 c -1.4723,-0.30337 -2.7681,-0.589 -2.8796,-0.63474 -0.1168,-0.0479 -0.18048,-0.16195 -0.15023,-0.26902 0.0289,-0.10222 0.10919,-0.49341 0.17848,-0.8693 0.2655,-1.4404 0.61124,-2.7479 0.81758,-3.0919 0.54029,-0.90063 2.2509,-0.97775 3.0162,-0.13598 0.52942,0.5823 0.61866,1.0485 0.45846,2.395 l -0.0906,0.76182 0.43547,0.12441 c 0.2395,0.0684 0.74743,0.18694 1.1287,0.26336 l 0.69326,0.13894 -0.18067,0.91127 c -0.16567,0.83557 -0.20433,0.9132 -0.46545,0.9345 -0.15662,0.0128 -1.4894,-0.22497 -2.9616,-0.52834 z m 0.0626,-2.4466 c 0.13233,-0.70541 -0.13475,-1.206 -0.64348,-1.206 -0.3877,0 -0.64936,0.34008 -0.69664,0.90541 -0.031,0.37132 -0.0105,0.39394 0.48015,0.52745 0.75232,0.20474 0.78038,0.19734 0.85997,-0.22691 z"
           id="path10"
           inkscape:connector-curvature="0" />
        <path
           d="m 272.41,154.26 c -0.94038,-0.95724 -2.0134,-2.059 -2.3844,-2.4482 l -0.67467,-0.70782 0.448,-0.96777 c 0.38886,-0.84 0.48637,-0.96838 0.73861,-0.97234 0.6169,-0.01 6.3208,0.58276 6.404,0.66516 0.0483,0.0479 -0.0771,0.46053 -0.27871,0.91703 l -0.3666,0.83001 -0.55406,-0.0532 -0.55405,-0.0532 -0.51356,1.0226 -0.51355,1.0226 0.34961,0.34181 c 0.19229,0.188 0.34962,0.40083 0.34962,0.47295 0,0.0721 -0.1666,0.4776 -0.37021,0.90107 l -0.3702,0.76995 -1.7098,-1.7404 z m 0.97629,-2.3805 c 0.16081,-0.31523 0.20169,-0.50686 0.12456,-0.58399 -0.11072,-0.11072 -1.9639,-0.4557 -2.0399,-0.37974 -0.0539,0.0539 1.4674,1.4329 1.5808,1.4329 0.0523,0 0.20283,-0.21114 0.33448,-0.46919 z"
           id="path12"
           inkscape:connector-curvature="0" />
        <path
           d="m 276.72,149.18 -0.46822,-0.42047 -0.24461,-2.1643 c -0.13454,-1.1904 -0.28204,-2.2869 -0.32777,-2.4368 -0.078,-0.25554 -0.14265,-0.20763 -1.0382,0.76888 -0.52525,0.57277 -1.0098,1.0406 -1.0767,1.0397 -0.0669,-10e-4 -0.32374,-0.17261 -0.57066,-0.3815 l -0.44895,-0.37981 1.6584,-1.9252 c 2.1939,-2.5468 1.9865,-2.3889 2.5332,-1.928 l 0.44595,0.37607 0.26582,2.3705 c 0.1462,1.3038 0.30957,2.4142 0.36305,2.4677 0.0537,0.0537 0.59897,-0.46636 1.218,-1.1617 0.61642,-0.69242 1.1494,-1.257 1.1844,-1.2547 0.035,0.002 0.26535,0.17691 0.5119,0.3879 l 0.44826,0.38363 -0.89723,1.1214 c -0.96109,1.2012 -2.8565,3.4137 -3.0009,3.503 -0.0481,0.0297 -0.29823,-0.13512 -0.55575,-0.36638 z"
           id="path14"
           inkscape:connector-curvature="0" />
        <path
           d="m 285.48,140.77 c -0.24716,-0.42612 -0.53125,-0.93565 -0.63133,-1.1323 -0.14415,-0.28326 -0.54361,-0.55245 -1.9227,-1.2957 -2.2606,-1.2183 -2.1928,-1.1698 -1.9401,-1.3888 0.10967,-0.095 0.44483,-0.31404 0.74481,-0.48671 0.66608,-0.38342 0.88963,-0.35234 1.9776,0.2749 0.44174,0.25469 0.83648,0.46306 0.8772,0.46306 0.0407,0 0.0747,-0.44851 0.0756,-0.9967 8.6e-4,-0.54818 0.0304,-1.1043 0.0657,-1.2357 0.0411,-0.1531 0.38859,-0.41189 0.96667,-0.7199 l 0.9025,-0.48087 2.8e-4,0.43513 c 1.5e-4,0.23932 -0.0562,1.2306 -0.12522,2.2028 l -0.12557,1.7676 0.63076,1.1881 0.63075,1.1881 -0.30619,0.18494 c -0.16841,0.10173 -0.54587,0.32485 -0.83881,0.49585 l -0.53261,0.31089 -0.44938,-0.77475 z"
           id="path16-2"
           inkscape:connector-curvature="0" />
        <path
           d="m 293.83,137.94 c -0.18781,-0.10232 -0.43674,-0.27219 -0.55319,-0.37749 -0.24445,-0.22106 -0.6431,-0.96214 -0.6431,-1.1955 0,-0.0987 0.3126,-0.25146 0.82583,-0.40358 0.45421,-0.13462 0.85873,-0.24461 0.89893,-0.24441 0.0402,2e-4 0.10508,0.12786 0.14419,0.28369 0.0872,0.34741 0.53536,0.65981 0.80057,0.55803 0.39782,-0.15265 0.41619,-0.55351 0.12109,-2.6416 -0.15654,-1.1077 -0.28462,-2.1005 -0.28462,-2.2061 0,-0.14108 0.16594,-0.22655 0.62482,-0.32181 0.34365,-0.0713 0.76654,-0.11342 0.93974,-0.0935 0.31088,0.0357 0.31817,0.0553 0.56731,1.517 0.13881,0.81445 0.28451,1.9678 0.32378,2.5629 0.0701,1.0621 0.0651,1.0918 -0.26795,1.6068 -0.45513,0.7037 -1.1117,1.0178 -2.2746,1.0882 -0.67717,0.041 -0.96043,0.0103 -1.2228,-0.13267 z"
           id="path18-4"
           inkscape:connector-curvature="0" />
        <path
           d="m 301.75,137.71 c -1.3814,-0.3813 -2.0507,-1.2159 -2.05,-2.5562 4.3e-4,-0.7641 0.18015,-3.0666 0.29228,-3.7439 l 0.0628,-0.37928 0.87593,0.0786 c 0.48176,0.0432 0.91422,0.11381 0.96103,0.15684 0.0468,0.043 0.005,0.99303 -0.0925,2.1111 -0.13488,1.5442 -0.14665,2.1076 -0.0489,2.3434 0.24419,0.58953 1.1368,0.75439 1.6578,0.3062 0.28667,-0.24658 0.31973,-0.38337 0.57122,-2.3636 0.14681,-1.156 0.26904,-2.1147 0.27161,-2.1304 0.01,-0.0609 1.3295,-0.0214 1.587,0.0475 0.27162,0.0727 0.27216,0.0761 0.19852,1.2799 -0.0406,0.66387 -0.15047,1.7196 -0.24413,2.3461 -0.19687,1.3169 -0.51077,1.8869 -1.2703,2.3068 -0.61989,0.34271 -1.9116,0.43438 -2.7724,0.19676 z"
           id="path20"
           inkscape:connector-curvature="0" />
        <path
           d="m 309.38,139.41 c -0.91666,-0.33093 -1.7043,-0.91556 -1.9436,-1.4426 -0.22104,-0.48693 -0.30242,-1.501 -0.12906,-1.6081 0.0519,-0.0321 0.4876,0.05 0.96823,0.18244 l 0.87387,0.24076 0.003,0.40885 c 0.004,0.5795 0.30804,0.92366 0.8856,1.0011 0.54418,0.073 0.8205,-0.0868 0.8205,-0.47439 0,-0.17765 -0.31177,-0.52091 -1.0478,-1.1536 -0.57627,-0.4954 -1.1452,-1.068 -1.2644,-1.2725 -0.42901,-0.73625 -0.17621,-1.6374 0.60968,-2.1733 0.5668,-0.38649 1.7232,-0.30845 2.7404,0.18496 1.1969,0.58059 1.582,1.0365 1.582,1.8729 0,0.49341 -0.0247,0.5442 -0.26447,0.5442 -0.14547,0 -0.506,-0.0823 -0.80118,-0.18287 -0.42033,-0.14322 -0.58345,-0.27452 -0.75237,-0.60564 -0.29169,-0.57176 -0.49069,-0.71442 -0.93682,-0.6716 -0.28648,0.0275 -0.38613,0.0958 -0.41281,0.28312 -0.0273,0.19181 0.15051,0.3855 0.79736,0.86851 0.45789,0.3419 1.0095,0.80784 1.2259,1.0354 0.34608,0.36407 0.3986,0.49921 0.43714,1.1249 0.0371,0.60225 0.003,0.77055 -0.22247,1.0993 -0.47523,0.69285 -0.81008,0.86053 -1.7833,0.893 -0.58531,0.0195 -1.044,-0.0318 -1.385,-0.15489 z"
           id="path22-2"
           inkscape:connector-curvature="0" />
        <path
           d="m 315.04,142.2 c -0.4927,-0.29562 -0.74209,-0.51123 -0.691,-0.5974 0.044,-0.0742 0.63437,-0.96668 1.312,-1.9834 0.67764,-1.0167 1.2321,-1.8956 1.2321,-1.953 0,-0.0575 -0.24888,-0.26423 -0.55307,-0.45942 -0.30418,-0.1952 -0.64187,-0.45304 -0.75041,-0.57297 -0.18865,-0.20845 -0.18062,-0.24363 0.18206,-0.79763 0.23199,-0.35436 0.43877,-0.55678 0.53219,-0.52093 0.1938,0.0744 4.0641,2.6987 4.5127,3.0599 l 0.33533,0.27003 -0.37568,0.58544 c -0.20663,0.32199 -0.40878,0.58529 -0.44924,0.5851 -0.0404,-1.4e-4 -0.40674,-0.20442 -0.81396,-0.45385 l -0.74041,-0.4535 -0.39868,0.43743 c -0.21927,0.24059 -0.83438,1.0836 -1.3669,1.8733 -0.53252,0.7897 -1.0195,1.4375 -1.0821,1.4396 -0.0627,0.002 -0.46084,-0.20433 -0.88486,-0.45873 z"
           id="path24-9"
           inkscape:connector-curvature="0" />
        <path
           d="m 319.01,145.41 -0.67179,-0.67886 1.3771,-1.4585 c 0.75743,-0.8022 1.756,-1.8324 2.2191,-2.2893 l 0.84197,-0.83073 0.73281,0.68071 0.7328,0.68072 -2.2801,2.2874 -2.2801,2.2874 -0.67178,-0.67887 z"
           id="path26-1"
           inkscape:connector-curvature="0" />
        <path
           d="m 323.52,150.85 c -0.60299,-0.29847 -1.391,-1.3172 -1.671,-2.1603 -0.43378,-1.306 0.16076,-2.7303 1.4963,-3.5846 0.7976,-0.51022 1.7993,-0.77122 2.4225,-0.63119 1.4488,0.32553 2.6623,1.7712 2.681,3.1941 0.009,0.7105 -0.31884,1.7203 -0.55907,1.7203 -0.0844,0 -0.4208,-0.24578 -0.7475,-0.54618 -0.53021,-0.48754 -0.57999,-0.57235 -0.46357,-0.78988 0.0717,-0.13402 0.13041,-0.42115 0.13041,-0.63805 0,-0.30884 -0.0873,-0.47105 -0.40264,-0.7479 -0.67316,-0.59104 -1.4625,-0.39895 -2.5185,0.6129 -0.49933,0.47844 -0.52391,0.5306 -0.46325,0.98284 0.0993,0.73994 0.49866,1.0693 1.2967,1.0693 0.63032,0 0.64304,0.007 0.77776,0.39869 0.0753,0.21927 0.17137,0.58462 0.21342,0.81188 0.0676,0.36508 0.0463,0.42129 -0.18237,0.48256 -0.57201,0.15326 -1.5132,0.0716 -2.0101,-0.17435 z"
           id="path28-5"
           inkscape:connector-curvature="0" />
        <path
           d="m 325.16,154.71 c -0.0904,-0.1383 -0.27333,-0.49798 -0.40646,-0.79929 -0.36534,-0.8269 -0.46218,-0.76127 3.4146,-2.3141 1.7537,-0.70241 2.1275,-0.81682 2.2544,-0.68991 0.21659,0.21659 0.71634,1.4864 0.62103,1.578 -0.0686,0.0659 -1.5525,0.71082 -4.8928,2.1265 l -0.82638,0.35024 -0.16442,-0.25145 z"
           id="path30-5"
           inkscape:connector-curvature="0" />
        <path
           d="m 327.04,162.07 c -0.0667,-0.23775 -0.15266,-0.69275 -0.19105,-1.0111 -0.0689,-0.5715 -0.0646,-0.58192 0.34229,-0.82199 0.47372,-0.2795 0.48913,-0.37985 0.23189,-1.5108 -0.1936,-0.85123 -0.34835,-1.0182 -0.9437,-1.0182 -0.22696,0 -0.36123,-0.0669 -0.40026,-0.19934 -0.12719,-0.43178 -0.3094,-1.6501 -0.25494,-1.7046 0.0602,-0.0602 6.5776,0.85506 6.6574,0.93487 0.0764,0.0764 0.35328,1.4618 0.35754,1.7891 0.003,0.24911 -0.13119,0.40375 -0.70793,0.81439 -0.59986,0.4271 -3.0139,1.9678 -4.5496,2.9037 l -0.42039,0.25619 -0.12125,-0.43226 z m 2.9273,-3.3528 c 0.98332,-0.5428 0.95483,-0.60283 -0.34207,-0.72067 -0.80971,-0.0736 -0.88274,-0.0629 -0.88215,0.12884 8.6e-4,0.287 0.22278,1.0634 0.30394,1.0634 0.0363,0 0.45046,-0.21219 0.92028,-0.47154 z"
           id="path32-3"
           inkscape:connector-curvature="0" />
      </g>
      <g
         id="g94">
        <path
           d="m 490.31,95.791 a 12.013,4.8816 0 1 1 -24.025,0 12.013,4.8816 0 1 1 24.025,0 z"
           transform="matrix(0.3465349,-0.13402367,0.12878059,0.36064347,122.04621,179.91659)"
           id="path36-6"
           inkscape:connector-curvature="0"
           style="fill:#aa0000;fill-rule:nonzero;stroke:#2b0000;stroke-width:0.83700001" />
        <rect
           width="0.91000003"
           height="42.299999"
           x="300"
           y="142.89999"
           rx="1.1578947"
           ry="1.8105263"
           id="rect38"
           style="fill:#784421;stroke:#000000;stroke-width:0.33000001" />
        <g
           id="g84"
           style="fill:none;stroke:#000000">
          <path
             d="m 299.3,148.34 v 4.1092"
             id="path40-4"
             inkscape:connector-curvature="0"
             style="stroke:#2b0000;stroke-width:0.03638813" />
          <path
             d="m 299.64,148.16 v 4.2113"
             id="path42-3"
             inkscape:connector-curvature="0"
             style="stroke:#2b0000;stroke-width:0.01819406" />
          <path
             d="m 298.96,148.34 v 4.2081"
             id="path44-1"
             inkscape:connector-curvature="0"
             style="stroke:#2b0000;stroke-width:0.05458219" />
          <path
             d="m 298.62,148.56 v 4.0057"
             id="path46-1"
             inkscape:connector-curvature="0"
             style="stroke:#2b0000;stroke-width:0.07277625" />
          <path
             d="m 298.28,148.63 v 3.9977"
             id="path48-2"
             inkscape:connector-curvature="0"
             style="stroke:#2b0000;stroke-width:0.09097032" />
          <path
             d="m 297.94,148.85 v 3.7745"
             id="path50-3"
             inkscape:connector-curvature="0"
             style="stroke:#2b0000;stroke-width:0.10916439" />
          <path
             d="m 297.6,149.04 v 3.5974"
             id="path52-2"
             inkscape:connector-curvature="0"
             style="stroke:#2b0000;stroke-width:0.12735842" />
          <path
             d="m 297.26,149.29 v 3.3026"
             id="path54-4"
             inkscape:connector-curvature="0"
             style="stroke:#2b0000;stroke-width:0.1455525" />
          <path
             d="m 296.92,149.48 v 3.0714"
             id="path56-7"
             inkscape:connector-curvature="0"
             style="stroke:#2b0000;stroke-width:0.16374657" />
          <path
             d="m 296.58,149.81 v 2.6441"
             id="path58-8"
             inkscape:connector-curvature="0"
             style="stroke:#2b0000;stroke-width:0.20013469" />
          <path
             d="m 296.24,149.99 v 2.3029"
             id="path60-7"
             inkscape:connector-curvature="0"
             style="stroke:#2b0000;stroke-width:0.21832874" />
          <path
             d="m 301.13,151.9 v -3.463"
             id="path62-8"
             inkscape:connector-curvature="0"
             style="stroke:#2b0000;stroke-width:0.03209215" />
          <path
             d="m 300.81,152.3 v -3.8013"
             id="path64-2"
             inkscape:connector-curvature="0"
             style="stroke-width:0.01604608" />
          <path
             d="m 301.45,151.79 v -3.4733"
             id="path66"
             inkscape:connector-curvature="0"
             style="stroke:#2b0000;stroke-width:0.04813823" />
          <path
             d="m 301.77,151.65 v -3.3913"
             id="path68-5"
             inkscape:connector-curvature="0"
             style="stroke:#2b0000;stroke-width:0.06418431" />
          <path
             d="m 302.08,151.48 v -3.2878"
             id="path70-6"
             inkscape:connector-curvature="0"
             style="stroke:#2b0000;stroke-width:0.08023039" />
          <path
             d="m 302.4,151.32 v -3.1514"
             id="path72"
             inkscape:connector-curvature="0"
             style="stroke:#2b0000;stroke-width:0.09627648" />
          <path
             d="m 302.72,151.14 v -2.9144"
             id="path74"
             inkscape:connector-curvature="0"
             style="stroke:#2b0000;stroke-width:0.11232253" />
          <path
             d="m 303.04,150.92 v -2.7541"
             id="path76-9"
             inkscape:connector-curvature="0"
             style="stroke:#2b0000;stroke-width:0.12836862" />
          <path
             d="m 303.36,150.75 v -2.5859"
             id="path78-6"
             inkscape:connector-curvature="0"
             style="stroke:#2b0000;stroke-width:0.14441469" />
          <path
             d="m 303.68,150.25 v -2.0279"
             id="path80-8"
             inkscape:connector-curvature="0"
             style="stroke:#2b0000;stroke-width:0.17650686" />
          <path
             d="m 304,149.85 v -1.5294"
             id="path82-0"
             inkscape:connector-curvature="0"
             style="stroke:#2b0000;stroke-width:0.19255292" />
        </g>
        <g
           id="g92"
           style="fill:#ed1c24;stroke:#000000;stroke-width:0.315">
          <path
             d="m 295.91,151.4 -0.13551,-2.6312 c 0,0 -0.31813,-0.30296 -0.39067,-0.50228 -0.34378,-0.94463 -0.26864,-2.0208 -0.11161,-3.0137 0.12687,-0.80219 0.363,-1.6288 0.83713,-2.2882 0.69539,-0.96712 1.6583,-1.8621 2.7904,-2.2324 0.79379,-0.25961 1.7414,-0.2356 2.5032,0.10664 0.68687,0.30857 1.2782,0.92963 1.5708,1.6234 0.24593,0.58303 0.24707,1.2943 0.0558,1.8975 -0.11245,0.35466 -0.66971,0.89294 -0.66971,0.89294 0,0 0.67378,0.71266 0.94876,1.1162 0.33275,0.48832 0.6316,1.0086 0.83713,1.5626 0.0597,0.1608 0.11162,0.37329 0.11162,0.37329 l 0.043,0.44278 c 0,0 -0.9796,-0.37286 -1.4483,-0.34764 -0.61469,0.0331 -1.2263,0.15097 -1.8197,0.31469 -0.74933,0.20675 -1.4806,0.49088 -2.1766,0.83714 -0.72561,0.36101 -1.26037,0.60904 -1.91347,1.0889 -0.32082,0.23572 -0.88093,0.56448 -0.88093,0.56448 z"
             id="path86-5"
             inkscape:connector-curvature="0"
             sodipodi:nodetypes="ccccsccccccccccccscc"
             style="stroke:#550000" />
          <path
             d="m 297.27,148.65 c 1.7501,-1.4437 3.9348,-1.8732 6.2995,-1.8828"
             id="path88-8"
             inkscape:connector-curvature="0"
             style="stroke:#550000;stroke-linecap:round" />
          <path
             d="m 300.2,144.56 c 0.42631,0.39933 0.60228,0.92383 2.2039,0.73549"
             id="path90-5"
             inkscape:connector-curvature="0"
             style="stroke:#550000;stroke-linecap:round" />
        </g>
      </g>
      <g
         id="g302"
         style="fill:#eac102;stroke:#000000">
        <g
           id="g134"
           style="stroke-width:0.192">
          <path
             d="m 303.24,173.39 c -0.11701,0.85176 -0.31376,2.41 -0.22619,2.6727 0.12162,0.36485 0.36873,0.29953 0.55115,1.5157 0.068,0.45318 0.17746,0.96273 0.29526,1.4566 -0.12161,0.30403 -0.48226,0.97435 -0.48226,0.97435 0,0 0.35357,0.0791 0.55116,0.0197 -0.15493,0.32068 -0.374,0.70862 -0.374,0.70862 0,0 0.26355,0.0594 0.46257,0.0394 -0.15015,0.33129 -0.4232,0.84641 -0.4232,0.84641 0,0 0.36628,0.0866 0.56099,0.0197 -0.15405,0.33155 -0.41336,0.7972 -0.41336,0.7972 0,0 0.43382,0.0999 0.6102,0 -0.0547,0.89137 -0.26603,2.5143 0.30617,2.618 0.48645,0 3.2173,0.36415 3.2173,0.36415 l 1.1023,-0.54131 0.78735,-0.37399 c 0,0 -0.33199,-0.84397 -0.63602,-1.0264 -0.30404,-0.18242 -1.0069,-0.73357 -1.3717,-0.79438 -0.36484,-0.0608 -0.84641,-0.17822 -0.84641,-0.48226 0,-0.30403 -0.18875,-2.2531 -0.12794,-2.618 0.0608,-0.36484 0.0671,-1.6457 0.12794,-2.2538 0.0508,-0.50791 0.43561,-2.5432 0.561,-3.1999"
             id="path96-1"
             inkscape:connector-curvature="0" />
          <path
             d="m 307.74,182.69 c 0,0 0.74461,0.0925 0.98784,0.3357 0.24323,0.24323 0.47381,0.26959 0.66887,0.45605 0.21978,0.21009 0.54727,0.57767 0.54727,0.72968 0,0.15202 -0.15202,0.51686 -0.33444,0.51686 -0.18242,0 -0.72969,-0.0608 -0.72969,-0.0608 l -0.79049,-0.39525 -0.69927,-0.18242"
             id="path98-0"
             inkscape:connector-curvature="0" />
          <path
             d="m 307.79,183.6 c 0.24323,0.24323 0.5209,0.1906 0.72968,0.36485 0.23343,0.1948 0.54727,0.57766 0.54727,0.72968 0,0.15202 -0.15202,0.51686 -0.33445,0.51686 -0.18241,0 -0.72968,-0.0608 -0.72968,-0.0608 l -0.79049,-0.39524 -0.69928,-0.18243"
             id="path100-5"
             inkscape:connector-curvature="0" />
          <path
             d="m 306.27,183.72 c 0,0 0.27363,0.15202 0.51686,0.39524 0.24322,0.24323 0.5209,0.1906 0.72968,0.36485 0.23342,0.1948 0.54726,0.57766 0.54726,0.72968 0,0.15202 -0.15202,0.51686 -0.33444,0.51686 -0.18242,0 -0.72968,-0.0608 -0.72968,-0.0608 l -0.79049,-0.39525 -0.69928,-0.18242"
             id="path102-4"
             inkscape:connector-curvature="0" />
          <path
             d="m 291.31,174.5 c 0,0 0.94473,0.52081 1.0337,0.18242 0.18194,-0.69191 1.1874,-1.7507 2.1282,-2.0066 0.70218,-0.19105 1.561,0.0306 2.1282,0.48646 0.96117,0.77243 1.4403,2.1194 1.581,3.3444 0.0875,0.76227 -0.23181,1.5261 -0.48645,2.2499 -0.25571,0.72681 -0.79049,1.7634 -1.0337,2.0674 -0.24323,0.30404 -1.2161,1.885 -1.2161,1.885 0,0 0.66888,0.18242 1.0945,0.18242 0.42565,0 0.9121,0.30403 1.0337,0.54726 0.12162,0.24323 0.36485,0.60807 0,0.66887 -0.36484,0.0608 -0.91101,0.55388 -0.91101,0.55388 0,0 -1.3388,0.35823 -1.5821,0.35823 -0.24323,0 -0.48646,0.24323 -1.2161,0 -0.72968,-0.24323 -0.60807,-0.24323 -1.1553,-0.24323 h -1.3986 c 0,0 -1.0337,0.12162 -1.3986,0.0608 -0.36484,-0.0608 -0.97291,-0.12162 -1.0337,-0.60807 -0.0608,-0.48646 -0.0608,-0.79049 -0.0608,-0.97291 0,-0.18242 0,-0.36484 0.12162,-0.60807 0.12161,-0.24323 0.48645,-0.97291 0.48645,-0.97291 l -0.42564,-1.581"
             id="path104"
             inkscape:connector-curvature="0" />
          <path
             d="m 296.64,182.9 c 0,0 0.79426,0.08 1.0375,0.32328 0.24323,0.24323 0.47381,0.26959 0.66887,0.45605 0.21978,0.21009 0.54727,0.57767 0.54727,0.72968 0,0.15202 -0.15202,0.51686 -0.33444,0.51686 -0.18242,0 -0.72969,-0.0608 -0.72969,-0.0608 l -0.79049,-0.39525 -0.69927,-0.18242"
             id="path106-8"
             inkscape:connector-curvature="0" />
          <path
             d="m 296.74,183.8 c 0.24323,0.24323 0.5209,0.1906 0.72968,0.36485 0.23343,0.1948 0.54727,0.57766 0.54727,0.72968 0,0.15202 -0.15202,0.51686 -0.33445,0.51686 -0.18241,0 -0.72968,-0.0608 -0.72968,-0.0608 l -1.0293,-0.36871 -0.16863,-0.63347"
             id="path108-1"
             inkscape:connector-curvature="0" />
          <path
             d="m 295.73,184.32 c 0.24322,0.24323 0.5209,0.1906 0.72968,0.36485 0.23342,0.1948 0.54726,0.57766 0.54726,0.72968 0,0.15202 -0.15202,0.51686 -0.33444,0.51686 -0.18242,0 -0.72968,-0.0608 -0.72968,-0.0608 l -0.79049,-0.39525 -1.1632,-0.41855"
             id="path110-0"
             inkscape:connector-curvature="0" />
          <path
             d="m 310.65,158.01 c 0,0 -0.60128,-1.0287 -2.0231,0.1607 -2.0261,1.6948 -3.2807,4.9893 -5.1207,6.3991 -0.83042,0.63628 -3.8272,2.5298 -4.5569,2.773 -0.72969,0.24323 -1.543,0.56065 -2.3107,0.8513 -0.73219,0.27722 -1.4733,0.53401 -2.189,0.8513 -0.99442,0.44082 -2.0503,0.80433 -2.9187,1.4594 -0.52684,0.3974 -0.88137,0.98272 -1.3378,1.4594 -0.55507,0.57973 -1.1938,1.0819 -1.7026,1.7026 -0.46332,0.56517 -0.84933,1.1921 -1.2161,1.8242 -0.31848,0.5488 -0.68843,1.0893 -0.85129,1.7026 -0.18758,0.70632 -0.20486,1.463 -0.12162,2.189 0.11544,1.0068 0.12397,2.213 0.8513,2.9187 0.40574,0.3937 1.0877,0.31342 1.6418,0.42565 0.68269,0.13828 1.3713,0.27942 2.0674,0.30404 1.0766,0.0381 2.2437,0.20622 3.2228,-0.24323 0.83363,-0.38269 1.3643,-1.2365 1.9458,-1.9458 0.556,-0.67819 0.62987,-1.9044 1.4594,-2.189 0.48501,-0.16641 0.95794,0.37921 1.4594,0.48646 0.39839,0.0852 0.80892,0.10915 1.2161,0.12161 1.0543,0.0323 2.1269,0.0813 3.162,-0.12161 0.93124,-0.18258 1.8121,-0.5791 2.6755,-0.97291 0.75946,-0.34641 1.591,-0.6338 2.189,-1.2161 0.74217,-0.72269 1.2512,-1.6935 1.581,-2.6755 0.97349,-2.8988 1.046,-9.114 1.046,-9.114 z"
             id="path112-5"
             inkscape:connector-curvature="0" />
          <path
             d="m 301.25,174.34 c -0.11701,0.85176 -0.31376,2.41 -0.22619,2.6727 0.12162,0.36485 0.36873,0.29953 0.55115,1.5157 0.068,0.45318 0.17746,0.96273 0.29526,1.4566 -0.12161,0.30403 -0.48226,0.97435 -0.48226,0.97435 0,0 0.35357,0.0791 0.55116,0.0197 -0.15493,0.32068 -0.374,0.70862 -0.374,0.70862 0,0 0.26355,0.0594 0.46257,0.0394 -0.15015,0.33129 -0.4232,0.84641 -0.4232,0.84641 0,0 0.36628,0.0866 0.56099,0.0197 -0.15405,0.33155 -0.41336,0.7972 -0.41336,0.7972 0,0 0.43382,0.0999 0.6102,0 -0.0547,0.89137 -0.26603,2.5143 0.30617,2.618 0.48645,0 3.2173,0.36415 3.2173,0.36415 l 1.1023,-0.54131 0.78735,-0.37399 c 0,0 -0.33199,-0.84397 -0.63602,-1.0264 -0.30404,-0.18242 -1.0069,-0.73357 -1.3717,-0.79438 -0.36484,-0.0608 -0.84641,-0.17822 -0.84641,-0.48226 0,-0.30403 -0.18875,-2.2531 -0.12794,-2.618 0.0608,-0.36484 0.0671,-1.6457 0.12794,-2.2538 0.0508,-0.50791 0.43561,-2.5432 0.561,-3.1999"
             id="path114-7"
             inkscape:connector-curvature="0"
             style="stroke-linecap:round;stroke-linejoin:round" />
          <path
             d="m 305.72,183.64 c 0,0 0.78185,0.0925 1.0251,0.3357 0.24323,0.24323 0.47381,0.26959 0.66887,0.45605 0.21978,0.21009 0.54727,0.57767 0.54727,0.72968 0,0.15202 -0.15202,0.51686 -0.33444,0.51686 -0.18242,0 -0.72969,-0.0608 -0.72969,-0.0608 l -0.79049,-0.39525 -0.69927,-0.18242"
             id="path116-5"
             inkscape:connector-curvature="0" />
          <path
             d="m 305.8,184.55 c 0.24323,0.24323 0.5209,0.1906 0.72968,0.36485 0.23343,0.1948 0.54727,0.57766 0.54727,0.72968 0,0.15202 -0.15202,0.51686 -0.33445,0.51686 -0.18241,0 -0.72968,-0.0608 -0.72968,-0.0608 l -0.79049,-0.39524 -0.69928,-0.18243"
             id="path118-0"
             inkscape:connector-curvature="0" />
          <path
             d="m 304.8,185.07 c 0.24322,0.24323 0.5209,0.1906 0.72968,0.36485 0.23342,0.1948 0.54726,0.57766 0.54726,0.72968 0,0.15202 -0.15202,0.51686 -0.33444,0.51686 -0.18242,0 -0.72968,-0.0608 -0.72968,-0.0608 l -0.79049,-0.39525 -0.76135,-0.15759"
             id="path120-6"
             inkscape:connector-curvature="0" />
          <path
             d="m 289.44,175.61 c 0,0 0.94473,0.52081 1.0337,0.18242 0.18194,-0.69191 1.1951,-1.7241 2.1282,-2.0066 0.92831,-0.28109 2.0959,-0.0994 2.8688,0.48646 0.98269,0.74485 1.4403,2.1194 1.581,3.3444 0.0875,0.76227 -0.14507,1.5627 -0.48645,2.2499 -0.40406,0.8133 -1.5311,1.7634 -1.7743,2.0674 -0.24323,0.30404 -1.2161,1.885 -1.2161,1.885 0,0 0.66888,0.18242 1.0945,0.18242 0.42565,0 0.9121,0.30403 1.0337,0.54726 0.12162,0.24323 0.36485,0.60807 0,0.66887 -0.36484,0.0608 -0.91101,0.55388 -0.91101,0.55388 0,0 -1.3388,0.35823 -1.5821,0.35823 -0.24323,0 -0.48646,0.24323 -1.2161,0 -0.72968,-0.24323 -0.60807,-0.24323 -1.1553,-0.24323 h -1.3986 c 0,0 -1.0337,0.12162 -1.3986,0.0608 -0.36484,-0.0608 -0.97291,-0.12162 -1.0337,-0.60807 -0.0608,-0.48646 -0.0608,-0.79049 -0.0608,-0.97291 0,-0.18242 0,-0.36484 0.12162,-0.60807 0.12161,-0.24323 0.48645,-0.97291 0.48645,-0.97291 l -0.42564,-1.581"
             id="path122-2"
             inkscape:connector-curvature="0"
             style="stroke-linecap:round;stroke-linejoin:round" />
          <path
             d="m 294.78,184.01 c 0,0 0.79426,0.08 1.0375,0.32328 0.24323,0.24323 0.47381,0.26959 0.66887,0.45605 0.21978,0.21009 0.54727,0.57767 0.54727,0.72968 0,0.15202 -0.15202,0.51686 -0.33444,0.51686 -0.18242,0 -0.72969,-0.0608 -0.72969,-0.0608 l -0.79049,-0.39525 -0.69927,-0.18242"
             id="path124-1"
             inkscape:connector-curvature="0" />
          <path
             d="m 294.87,184.91 c 0.24323,0.24323 0.5209,0.1906 0.72968,0.36485 0.23343,0.1948 0.54727,0.57766 0.54727,0.72968 0,0.15202 -0.15202,0.51686 -0.33445,0.51686 -0.18241,0 -0.72968,-0.0608 -0.72968,-0.0608 l -1.0293,-0.36871 -0.16863,-0.63347"
             id="path126-3"
             inkscape:connector-curvature="0" />
          <path
             d="m 293.87,185.43 c 0.24322,0.24323 0.5209,0.1906 0.72968,0.36485 0.23342,0.1948 0.54726,0.57766 0.54726,0.72968 0,0.15202 -0.15202,0.51686 -0.33444,0.51686 -0.18242,0 -0.72968,-0.0608 -0.72968,-0.0608 l -0.79049,-0.39525 -1.1632,-0.41855"
             id="path128-6"
             inkscape:connector-curvature="0" />
          <path
             d="m 288.23,180.81 c 0,0 0.63806,1.12197 1.1709,1.4325 0.62185,0.3624 1.40978,0.4086 2.1282,0.36484 0.63367,-0.0386 1.24725,-0.28239 1.8242,-0.54726 0.54676,-0.25101 1.08649,-0.55596 1.5202,-0.97291 0.58775,-0.56504 1.03723,-1.27575 1.3986,-2.0066 0.23582,-0.47693 0.37696,-0.99954 0.48646,-1.5202 0.0797,-0.37894 0.16352,-0.77035 0.12161,-1.1553 -0.0694,-0.63719 -0.30562,-1.25908 -0.60807,-1.8242 -0.43619,-0.81501 -1.11218,-1.47772 -1.7026,-2.189 -0.36486,-0.43955 -0.74766,-0.86417 -1.13589,-1.28322 -0.36256,-0.39135 -0.75073,-0.7584 -1.11401,-1.14908 -0.38739,-0.41662 -0.74805,-0.85759 -1.13589,-1.27379 -0.38473,-0.41286 -0.82036,-0.77896 -1.18103,-1.21299 -0.26956,-0.32438 -0.51791,-0.66896 -0.72968,-1.0337 -0.37424,-0.64453 -0.73045,-1.31227 -0.94717,-2.02537 -0.15504,-0.51016 -0.2226,-1.04819 -0.24323,-1.581 -0.0192,-0.49604 -0.1898,-1.01253 0.11195,-1.48503 0.23346,-0.36559 0.45779,-0.73086 0.86033,-0.89247 0.34066,-0.13676 0.74609,-0.23713 1.0945,-0.12161 0.39475,0.13087 0.8586,0.25631 1.13646,0.56575 0.20313,0.22622 0.41789,0.45455 0.54726,0.72969 0.22174,0.47159 0.4803,1.01203 0.36485,1.5202 -0.0926,0.40747 -0.38259,1.06356 -0.7905,0.97291 -0.40789,-0.0906 -0.17064,-0.82012 -0.30403,-1.2161 -0.14784,-0.43888 -0.1688,-1.0101 -0.54726,-1.277 -0.26556,-0.18725 -0.69913,-0.23581 -0.97291,-0.0608 -0.32984,0.21083 -0.38822,0.70484 -0.42565,1.0945 -0.056,0.58282 0.12104,1.17532 0.31338,1.72833 0.23831,0.68515 0.60794,1.32609 1.02437,1.92007 0.46962,0.66985 1.07874,1.23073 1.6418,1.8242 0.63133,0.66542 1.30444,1.29004 1.9458,1.9458 0.45108,0.46122 0.91156,0.91433 1.3378,1.3986 0.60293,0.68501 1.24557,1.34995 1.72211,2.1282 0.38228,0.62431 0.71508,1.29639 0.89259,2.0066 0.13797,0.552 0.14542,1.13412 0.12162,1.7026 -0.0275,0.6559 -0.11845,1.31611 -0.30404,1.9458 -0.11287,0.38296 -0.28209,0.75152 -0.48645,1.0945 -0.32613,0.54734 -0.74996,1.03208 -1.1666,1.5141 -0.36048,0.41704 -0.71436,0.85066 -1.1501,1.1883 -0.56941,0.44121 -1.1957,0.83928 -1.8789,1.0676 -0.60088,0.20081 -1.25146,0.24402 -1.885,0.24323 -0.77687,-9.7e-4 -1.5903,-0.0132 -2.3107,-0.30404 -0.53757,-0.217 -1.02576,-0.58979 -1.3986,-1.0337 -0.53502,-0.637 -1.0536,-1.929 -1.1144,-2.233"
             id="path130-5"
             inkscape:connector-curvature="0"
             sodipodi:nodetypes="caaaaaaaaaaaaaaaaccccsaaaccaaaaaaaaaaaaaaaaac"
             style="stroke-linecap:round;stroke-linejoin:round" />
          <path
             d="m 310.98,162.73 c 0.24569,0.17545 0.75445,0.18217 1.32368,0.41942 0.52205,0.21759 0.84695,0.92749 1.34872,1.29858 0.17557,0.12984 0.35473,0.30434 0.57266,0.31815 0.22798,0.0144 0.50903,0 0.63629,-0.25451 0.12726,-0.25452 0.12726,-0.6363 0.25451,-0.38178 0.12726,0.25452 0.23221,0.87962 0,1.209 -0.14829,0.21034 -0.47209,0.29348 -0.72718,0.2594 -0.65626,-0.0877 -1.1075,-0.72843 -1.62998,-1.1351 -0.28704,-0.22341 -0.49032,-0.57099 -0.82434,-0.715 -0.39148,-0.16879 -1.2726,-0.12725 -1.2726,-0.12725 z"
             id="path132-8"
             inkscape:connector-curvature="0"
             sodipodi:nodetypes="csaaccaaaacc" />
        </g>
        <g
           id="g258"
           style="stroke-width:0.25799999">
          <path
             d="m 306.11,172.49 c 0,0 -0.60196,1.5049 -0.60196,2.1498 0,0.64496 0.086,1.8059 0.043,1.9779 -0.043,0.17199 0.42997,-0.77394 0.77395,-1.1179 0.34397,-0.34398 0.68795,-0.60196 0.85994,-1.0319 0.17199,-0.42997 0.17199,-1.1179 0.21498,-1.3759 0.043,-0.25798 0.30098,-0.043 -0.043,-0.73095 -0.34398,-0.68795 -1.2469,0.12899 -1.2469,0.12899 z"
             id="path136-1"
             inkscape:connector-curvature="0" />
          <path
             d="m 306.8,170.21 c 0,0 -0.086,0.77395 -0.086,1.5049 0,0.73095 0.17199,0.64496 0.25798,1.3759 0.086,0.73095 0.17199,1.7199 0.17199,1.7199 0,0 0.64496,-0.64496 0.85994,-0.90294 0.21499,-0.25798 0.73095,-1.5479 0.73095,-1.5479 l -1.3329,-1.8919 -0.38697,-0.25798 z"
             id="path138-9"
             inkscape:connector-curvature="0" />
          <path
             d="m 308.69,174.64 c 0,0 -0.38697,1.1179 -0.47296,1.4619 -0.086,0.34397 -0.25799,0.64495 -0.21499,1.1179 0.043,0.47297 -0.17199,1.4619 -0.17199,1.4619 l 0.47297,-0.25798 c 0.086,-0.25799 0.98893,-1.8059 0.98893,-1.8059 l 0.086,-1.3329 z"
             id="path140-3"
             inkscape:connector-curvature="0" />
          <path
             d="m 308.91,172.23 c 0,0 -0.77395,0.85994 -0.98893,1.2469 -0.21499,0.38697 -0.25798,0.90294 -0.25798,1.2899 0,0.38697 0.043,0.64496 0.17198,1.4189 0.12899,0.77395 0.47297,0.38698 0.68795,0 0.21499,-0.38697 0.60196,-0.77394 0.60196,-1.2039 0,-0.42997 0,-1.6339 -0.043,-2.0208 -0.043,-0.38698 -0.17199,-0.73095 -0.17199,-0.73095 z"
             id="path142-9"
             inkscape:connector-curvature="0" />
          <path
             d="m 305.34,171.29 c 0,0.25799 -0.129,2.1069 -0.043,2.4938 0.086,0.38697 -0.086,1.8489 0,1.5479 0.086,-0.30098 1.2899,-2.0209 1.3329,-2.1928 0.043,-0.17198 -0.086,-1.6769 -0.086,-1.6769 z"
             id="path144-6"
             inkscape:connector-curvature="0" />
          <path
             d="m 304.65,170.43 v 1.0319 c 0,0.47297 0.086,0.38698 0,1.2469 -0.086,0.85994 -0.25798,1.2469 -0.25798,1.2469 0,0 0.81694,-0.25798 0.94594,-0.55896 0.12899,-0.30098 0.47297,-0.47297 0.47297,-1.0319 v -1.4619 z"
             id="path146-1"
             inkscape:connector-curvature="0" />
          <path
             d="m 304.05,167.5 c 0,0 -0.25799,1.3329 -0.34398,1.5479 -0.086,0.21498 -0.086,1.0319 -0.21498,1.5049 -0.129,0.47297 -0.38698,1.3759 -0.38698,1.3759 0,0 1.0319,-0.60196 1.1609,-0.77395 0.12899,-0.17198 0.68795,-0.51596 0.81694,-0.85994 0.12899,-0.34397 0.17199,-1.2469 0.17199,-1.2469 l -0.42997,-1.2469 z"
             id="path148-5"
             inkscape:connector-curvature="0" />
          <path
             d="m 305.38,169.82 c 0.043,0.30098 0.086,1.3329 0.55897,1.9349 0.47296,0.60196 0.81694,1.0319 0.81694,1.2039 0,0.17198 0.25798,-0.55896 0.30098,-0.98893 0.043,-0.42997 0.17199,-1.1179 0.043,-1.4189 -0.12899,-0.30098 -0.68795,-0.94593 -0.68795,-0.94593 z"
             id="path150-3"
             inkscape:connector-curvature="0" />
          <path
             d="m 304.99,167.63 c 0,0 -0.17199,0.85994 -0.17199,1.3759 0,0.51597 -0.043,0.81694 0.17199,1.2899 0.21498,0.47297 0.60196,0.90294 0.68795,1.0749 0.086,0.17199 0.25799,0.60196 0.25799,0.60196 0,0 0.043,-0.68796 0.12898,-0.94594 0.086,-0.25798 0.086,-1.9779 0.086,-1.9779 l -0.25798,-1.8059 z"
             id="path152-6"
             inkscape:connector-curvature="0" />
          <path
             d="m 304.52,165.82 c 0,0 -0.17198,1.5049 -0.086,1.8059 0.086,0.30098 0.30098,1.6339 0.30098,1.6339 0,0 0.17199,-0.60195 0.42997,-1.2039 0.25798,-0.60196 0.51596,-1.3759 0.47296,-1.5909 -0.043,-0.21499 -0.94593,-0.77395 -1.1179,-0.64496 z"
             id="path154-7"
             inkscape:connector-curvature="0" />
          <path
             d="m 304.95,164.75 c 0,0.17199 -0.086,1.1609 0,1.4189 0.086,0.25798 0.47297,1.3329 0.60196,1.5049 0.12899,0.17198 0.42997,0.85994 0.42997,0.85994 0,0 0.21499,-0.68796 0.38698,-1.1179 0.17198,-0.42997 0.30097,-1.0749 0.30097,-1.4189 0,-0.34397 -0.17198,-1.1179 -0.21498,-1.4189 -0.043,-0.30098 -0.73095,-1.1179 -0.73095,-1.1179 z"
             id="path156-0"
             inkscape:connector-curvature="0" />
          <path
             d="m 303.7,166.25 c 0,0 -0.42997,0.85995 -0.42997,1.2039 0,0.34398 -0.60196,1.1609 -0.60196,1.1609 0,0 -0.086,0.17199 0.34398,0.043 0.42997,-0.12899 0.90294,-0.25799 1.0749,-0.55896 0.17199,-0.30098 0.51597,-1.2469 0.55896,-1.4189 0.043,-0.172 -0.94593,-0.42998 -0.94593,-0.42998 z"
             id="path158-0"
             inkscape:connector-curvature="0" />
          <path
             d="m 304.82,162.94 c 0,0 -0.73095,0.90294 -0.85994,1.2469 -0.12899,0.34397 -0.17199,0.60196 -0.17199,1.0749 0,0.47297 0.129,1.8489 0.129,1.8489 l 0.21498,0.77394 c 0,0 0.30098,-0.90294 0.68795,-1.4619 0.38697,-0.55896 0.68795,-1.3329 0.81694,-1.6339 0.129,-0.30098 0.172,-1.3759 0.172,-1.3759 z"
             id="path160-8"
             inkscape:connector-curvature="0" />
          <path
             d="m 303.83,162.69 c 0,0 -0.51596,0.81695 -0.64495,1.1179 -0.12899,0.30097 -0.30098,1.0749 -0.30098,1.4189 v 0.94593 c 0,0.55896 0.34397,1.7199 0.34397,1.8919 0,0.17199 0.25799,-0.12899 0.34398,-0.34398 0.086,-0.21498 0.34398,-2.1928 0.34398,-2.1928 l 0.30097,-1.6769 0.55897,-1.4619 z"
             id="path162-1"
             inkscape:connector-curvature="0" />
          <path
             d="m 309.21,173.26 c 0,0 -0.42997,1.5909 -0.42997,2.0638 0,0.47297 0.42997,1.5909 0.42997,1.5909 l 0.77394,0.98893 c 0,0 -0.043,-0.55896 -0.043,-1.0749 0,-0.51597 0.30099,-1.5049 0.30099,-1.5049 v -0.94593 z"
             id="path164-9"
             inkscape:connector-curvature="0" />
          <path
             d="m 308.52,169.65 c 0,0 -0.47296,1.1609 -0.47296,1.4189 0,0.25798 0.34397,1.7629 0.34397,1.7629 0,0 0.64496,1.3759 0.73095,1.6339 0.086,0.25798 0.086,1.2469 0.17199,0.51596 0.086,-0.73094 0.34398,-1.5049 0.42997,-1.7199 0.086,-0.21499 -0.086,-1.4619 -0.12899,-1.6769 -0.043,-0.21498 -0.25798,-1.2899 -0.25798,-1.2899 z"
             id="path166-2"
             inkscape:connector-curvature="0" />
          <path
             d="m 307.49,168.06 c 0,0 -0.55896,1.5909 -0.55896,1.8489 0,0.25798 0.55896,1.4189 0.55896,1.4189 l 1.1609,1.2469 c 0,0 0.086,-1.0319 0.086,-1.3759 0,-0.34398 0.086,-1.3329 0,-1.5049 -0.086,-0.17198 -1.2469,-1.6339 -1.2469,-1.6339 z"
             id="path168-1"
             inkscape:connector-curvature="0" />
          <path
             d="m 306.02,167.72 c -0.043,0.60196 -0.17199,1.8919 0.043,2.3648 0.21499,0.47296 1.0319,1.2039 1.1179,1.3759 0.086,0.17199 0.043,0.12899 0.086,-0.38697 0.043,-0.51597 0.086,-0.94594 0.17199,-1.5049 0.086,-0.55896 0.17199,-0.85994 0.086,-1.2899 -0.086,-0.42997 -0.55896,-0.90294 -0.55896,-0.90294 z"
             id="path170-7"
             inkscape:connector-curvature="0" />
          <path
             d="m 307.74,166 c -0.043,0.17199 -0.55896,1.0749 -0.60196,1.4189 -0.043,0.34398 0.17199,1.1609 0.30098,1.3329 0.12899,0.17199 0.77395,1.0319 0.77395,0.85994 0,-0.17199 0.25798,-1.3329 0.25798,-1.5479 0,-0.21499 -0.086,-0.68796 -0.12899,-1.3329 -0.043,-0.64495 0.12899,-1.1609 0.12899,-1.1609 z"
             id="path172-0"
             inkscape:connector-curvature="0" />
          <path
             d="m 308.48,165.87 c 0,0 -0.60196,0.90294 -0.60196,1.3759 0,0.47296 0,1.4189 0.086,1.6339 0.086,0.21499 0.38698,1.4189 0.42997,1.6769 0.043,0.25799 0.34398,-0.12899 0.51597,-0.51596 0.17199,-0.38697 0.51596,-0.73095 0.51596,-1.2039 0,-0.47296 -0.17199,-1.3759 -0.17199,-1.6339 0,-0.25799 -0.12899,-1.1179 -0.12899,-1.1179 z"
             id="path174-2"
             inkscape:connector-curvature="0" />
          <path
             d="m 307.91,163.28 c 0,0 -0.12161,1.0337 -0.0912,1.3378 0.0304,0.30403 0.15201,1.1249 0.15201,1.1249 0,0 0.12162,0.79049 0.15202,0.9121 0.0304,0.12161 0.0304,0.18242 0.0304,0.18242 0,0 0.45605,-0.21282 0.48645,-0.33443 0.0304,-0.12162 0.27363,-1.0033 0.42565,-1.2161 0.15202,-0.21283 0.57767,-0.8513 0.57767,-0.8513 0,0 0.0912,-0.15202 0.15201,-0.39525 0.0608,-0.24323 0.12162,-1.0641 0.12162,-1.0641 l -0.66888,-0.57766 z"
             id="path176-1"
             inkscape:connector-curvature="0" />
          <path
             d="m 303.49,161.53 c 0,0 -0.55896,0.64496 -0.64496,0.85994 -0.086,0.21499 -0.38697,0.55896 -0.47297,0.90294 -0.086,0.34397 0,0.21499 -0.21498,0.68795 -0.21499,0.47297 -0.81695,1.2039 -0.81695,1.2039 l -0.85994,0.21498 c 0,0 0.64496,0.34398 0.94594,0.34398 0.30098,0 1.2899,-0.42997 1.4189,-0.60196 0.12899,-0.17199 0.73095,-1.0749 0.85994,-1.4189 0.12899,-0.34397 -0.21498,-2.1928 -0.21498,-2.1928 z"
             id="path178-2"
             inkscape:connector-curvature="0" />
          <path
             d="m 304.05,159.72 c 0,0 -0.68796,0.51596 -0.73095,0.90294 -0.043,0.38697 -0.086,0.73095 -0.086,1.1179 0,0.38697 0,1.0319 0.086,1.3329 0.086,0.30099 0.12899,0.77395 0.12899,0.77395 0,0 0.55896,-0.47296 0.73095,-0.64495 0.17199,-0.17199 0.30098,-0.60196 0.47296,-0.98894 0.17199,-0.38697 0.086,-0.94593 0.17199,-1.2039 0.086,-0.25798 0.21499,-1.2469 0.21499,-1.2469 z"
             id="path180-5"
             inkscape:connector-curvature="0" />
          <path
             d="m 305.21,159.58 c 0,0 -0.76009,1.429 -0.76009,1.5506 0,0.12161 -0.0304,0.39524 0.18242,0.36484 0.21283,-0.0304 0.76009,-0.48646 0.94251,-0.63847 0.18242,-0.15202 0.54726,-0.36485 0.72968,-0.63847 0.18242,-0.27364 0.21283,-0.18243 0.24323,-0.45606 0.0304,-0.27363 0.15202,-0.79049 0.0304,-0.79049 -0.12161,0 -0.27363,-0.12161 -0.60807,0.0304 -0.33444,0.15202 -0.76008,0.57767 -0.76008,0.57767 z"
             id="path182-0"
             inkscape:connector-curvature="0" />
          <path
             d="m 305.59,157.74 c 0,0 -0.77395,-0.17199 -0.94594,-0.043 -0.17198,0.12899 -0.38697,0.086 -0.55896,0.55896 -0.17198,0.47297 -0.47296,1.5049 -0.47296,1.5049 l -0.30098,0.38698 -0.60196,0.38697 c 0,0 0.25798,0.25798 0.51596,0.25798 0.25799,0 1.1609,-0.25798 1.3759,-0.38697 0.21498,-0.12899 0.68795,-0.77394 0.73095,-0.98893 0.043,-0.21499 0.086,-0.60196 0.12899,-0.90294 0.043,-0.30098 0.12899,-0.77394 0.12899,-0.77394 z"
             id="path184-4"
             inkscape:connector-curvature="0" />
          <path
             d="m 306.18,157.75 c -0.36484,0.18243 -0.94251,0.8209 -1.1249,1.2466 -0.18242,0.42564 -0.30403,1.0033 -0.51686,1.1249 -0.21282,0.12161 -0.72968,0.24322 -0.21282,0.27363 0.51686,0.0304 1.0033,-0.21283 1.2465,-0.33444 0.24323,-0.12162 0.79049,-1.1553 0.79049,-1.1553 l 0.21283,-0.63848 z"
             id="path186-8"
             inkscape:connector-curvature="0" />
          <path
             d="m 307.49,156.17 c 0,0 -0.36548,-0.0215 -0.55896,0.0215 -0.19349,0.043 -0.47297,-0.0645 -0.73095,0.17199 -0.25798,0.23648 -0.40848,0.40847 -0.51597,0.53746 -0.10749,0.12899 -0.17199,0.12899 -0.42997,0.47296 -0.25798,0.34398 -0.043,0.129 -0.32248,0.49447 -0.27948,0.36547 -0.45146,0.70945 -0.53746,0.79545 -0.086,0.086 -0.34397,0.30097 -0.60196,0.34397 -0.47425,0.22248 0.50542,0.21846 0.88144,0.24656 0.25798,0.0215 0.49573,-0.0126 0.71071,-0.0341 0.21499,-0.0215 0.27823,-0.19091 0.49321,-0.25541 0.21499,-0.0645 0.30098,-0.043 0.34398,-0.12899 0.043,-0.086 0.47296,-0.40847 0.62345,-0.58046 0.15049,-0.17199 0.21499,-0.32248 0.34398,-0.45147 0.12899,-0.12899 0.10749,-0.21498 0.38697,-0.32247 0.27948,-0.1075 0.36548,-0.15049 0.45147,-0.27948 0.086,-0.129 0.043,-0.60196 0.043,-0.60196 z"
             id="path188-8"
             inkscape:connector-curvature="0" />
          <path
             d="m 306.45,164.79 c 0,0 -0.42997,1.0319 -0.42997,1.3329 0,0.30098 0.21498,1.3329 0.21498,1.3329 l 0.129,1.1179 c 0,0 0.47296,-0.38697 0.68795,-0.73095 0.21498,-0.34397 0.55896,-1.4189 0.55896,-1.4189 v -1.1179 l -0.34398,-0.85994 z"
             id="path190"
             inkscape:connector-curvature="0" />
          <path
             d="m 306.63,162.94 c 0,0 -0.60196,0.73095 -0.60196,1.1609 0,0.42997 0.30098,1.6339 0.30098,1.6339 0,0 0,1.0749 0.086,0.77394 0.086,-0.30097 0.34398,-0.77394 0.64496,-1.2899 0.30098,-0.51597 0.42997,-1.0749 0.42997,-1.2469 0,-0.17198 -0.85994,-1.0319 -0.85994,-1.0319 z"
             id="path192-0"
             inkscape:connector-curvature="0" />
          <path
             d="m 307.58,162.36 c 0,0 -0.44357,1.2743 -0.40058,1.9188 0.043,0.6445 0.30098,2.2558 0.47297,2.4169 0.17199,0.16113 0.47297,-0.21483 0.47297,-0.80562 0,-0.59079 -0.043,-1.9335 -0.043,-2.202 0,-0.26854 0.42997,-2.3094 0.42997,-2.3094 z"
             id="path194-5"
             inkscape:connector-curvature="0" />
          <path
             d="m 308.99,159.74 c 0,0 -0.64063,0.79352 -0.72663,1.0515 -0.086,0.25799 -0.086,0.98893 -0.086,1.2899 0,0.30098 0.12899,1.3759 0.12899,1.3759 0,0 1.0967,-0.72346 1.0798,-0.80287 0.0373,-0.0625 -0.0614,-0.031 -0.043,-0.72965 0.0203,-0.76744 0.71556,-1.471 0.71556,-1.471 z"
             id="path196"
             inkscape:connector-curvature="0" />
          <path
             d="m 310.28,169.35 c 0,0 -0.85994,0.77394 -0.85994,1.2899 0,0.51596 -0.043,1.6339 -0.043,1.8919 0,0.25798 -0.086,1.2469 0.043,1.6769 0.12899,0.42997 1.5049,2.1498 1.5049,2.1498 0,0 0.51596,0.12899 0.34397,-0.17199 -0.17198,-0.30098 -0.64495,-1.0319 -0.64495,-1.7199 0,-0.68795 0.086,-1.9349 0.086,-1.9349 l 0.21499,-1.3759 z"
             id="path198-9"
             inkscape:connector-curvature="0" />
          <path
             d="m 309.38,168.79 c 0,0 -0.25798,0.73095 -0.25798,1.3759 0,0.64496 -0.12899,0.64496 0.086,1.0749 0.21498,0.42998 0.12899,1.6339 0.30098,1.2469 0.17199,-0.38697 0.38697,-1.5049 0.38697,-1.8919 0,-0.38697 0.12899,-1.2039 0.21499,-1.4619 0.086,-0.25798 -0.73096,-0.34397 -0.73096,-0.34397 z"
             id="path200-2"
             inkscape:connector-curvature="0" />
          <path
             d="m 311.44,171.46 c 0,0 -0.25798,0.81694 0,1.3329 0.25798,0.51596 0.25798,0.98893 0.38697,1.1609 0.129,0.17198 0.21499,0.55896 -0.30097,0.21498 -0.51597,-0.34397 -0.98893,-0.64495 -1.1179,-1.1609 -0.12899,-0.51596 -0.30097,-1.1179 -0.17198,-1.5479 0.12899,-0.42997 0.17198,-1.5479 0.17198,-1.5479 l 1.1609,1.8059 z"
             id="path202-9"
             inkscape:connector-curvature="0" />
          <path
             d="m 309.98,163.19 c 0,0 -0.36484,0.69927 -0.48645,0.9121 -0.12162,0.21282 -0.36484,0.79049 -0.36484,0.79049 0,0 -0.15202,0.79049 -0.15202,1.0033 v 0.82089 c 0,0.21282 -0.0912,1.4594 -0.0912,1.4594 0,0 0.0608,0.72968 0.0608,1.0033 v 0.54726 c 0,0 0.39524,-0.15202 0.48645,-0.27363 0.0912,-0.12161 0.39525,-0.33444 0.48646,-0.76008 0.0912,-0.42565 0.18242,-0.69929 0.18242,-1.0945 0,-0.39525 -0.0608,-1.277 -0.0608,-1.277 0,0 -0.0608,-0.51686 0.0608,-0.76008 0.12161,-0.24323 0.24322,-0.60807 0.33443,-0.79049 0.0912,-0.18243 0.21283,-0.8513 0.21283,-0.8513 z"
             id="path204-2"
             inkscape:connector-curvature="0" />
          <path
             d="m 310.5,169.35 c -0.043,0.17199 0.086,1.7629 0.25798,2.4078 0.17199,0.64496 0.21498,1.3759 0.21498,1.5909 0,0.21498 0.34398,0 0.47297,-0.38697 0.12899,-0.38698 0.30098,-1.4189 0.38697,-1.7199 0.086,-0.30097 0.043,-1.5479 0.043,-1.5479 l -0.55896,-1.1609 z"
             id="path206-1"
             inkscape:connector-curvature="0" />
          <path
             d="m 310.11,166.56 c 0,0 -0.30099,1.3759 -0.30099,1.8919 0,0.51597 0.34398,2.1928 0.34398,2.1928 0,0 0.086,0.34398 0.30098,-0.21499 0.21499,-0.55896 0.51596,-1.1609 0.51596,-1.5479 0,-0.38697 -0.38697,-1.9349 -0.38697,-1.9349 z"
             id="path208-5"
             inkscape:connector-curvature="0" />
          <path
             d="m 310.41,164.19 c 0,0 -0.51596,0.77394 -0.55896,1.0104 -0.043,0.23648 -0.0215,0.90293 -0.0215,0.90293 0,0 0.043,0.85995 0.12899,0.94594 0.086,0.086 0.32248,0.66645 0.32248,0.66645 0,0 0.15049,-0.12899 0.23648,-0.40847 0.086,-0.27948 0.34398,-0.81694 0.34398,-0.81694 l 0.32248,-0.75245 c 0,0 0.0215,-0.58046 0.0215,-0.66645 0,-0.086 -0.70946,-0.81695 -0.79545,-0.88144 z"
             id="path210-4"
             inkscape:connector-curvature="0" />
          <path
             d="m 312.04,167.16 c 0.21498,0.25798 0.51596,1.1179 0.51596,1.3759 0,0.25798 -0.12899,0.51596 -0.30098,0.98893 -0.17198,0.47296 -0.17198,1.4189 -0.17198,1.4189 0,0 -0.51597,-0.55896 -0.51597,-0.81695 0,-0.25798 -0.17199,-1.7199 -0.17199,-1.7199 z"
             id="path212"
             inkscape:connector-curvature="0" />
          <path
             d="m 311.16,165.37 c 0,0 -0.42997,0.70945 -0.49446,0.88143 -0.0645,0.17199 -0.086,0.90294 -0.0645,1.1179 0.0215,0.21499 0.27948,1.7629 0.27948,1.8489 0,0.086 -0.043,0.51596 -0.043,0.51596 0,0 0.34398,-0.30098 0.47297,-0.45147 0.12899,-0.15049 0.55896,-0.68795 0.55896,-0.68795 0,0 0.10749,-0.49446 0.15049,-0.66645 0.043,-0.17199 0.10749,-1.1394 0.10749,-1.1394 z"
             id="path214"
             inkscape:connector-curvature="0" />
          <path
             d="m 307.02,160.31 c 0,0 -0.45993,0.86533 -0.64264,1.0889 -0.18271,0.22355 -0.17956,0.93982 -0.13657,1.4988 0.043,0.55896 0.17199,1.0749 0.17199,1.0749 0,0 0.61394,-0.29556 0.71448,-0.74967 0.10055,-0.4541 0.42196,-1.6322 0.54771,-1.7736 0.12575,-0.14138 -0.65497,-1.1394 -0.65497,-1.1394 z"
             id="path216"
             inkscape:connector-curvature="0" />
          <path
             d="m 306.57,157.11 c 0,0 -0.89871,0.96243 -1.0611,1.1033 -0.16237,0.14091 -0.58515,0.86079 -0.56371,1.161 0.0214,0.30021 0.0765,1.0722 0.0765,1.0722 l 0.62497,-0.90674 c 0,0 0.64099,-0.87495 0.66563,-1.1486 0.0246,-0.27368 0.25765,-1.2812 0.25765,-1.2812 z"
             id="path218"
             inkscape:connector-curvature="0" />
          <path
             d="m 308.35,158.3 -0.94594,0.73095 c 0,0 -0.30098,0.77394 -0.38697,1.2469 -0.086,0.47297 -0.043,0.98893 -0.12899,1.2899 -0.086,0.30098 0.73095,0 0.73095,0 l 0.62018,-0.67592 0.74293,-1.1667 z"
             id="path220"
             inkscape:connector-curvature="0" />
          <path
             d="m 307.55,161.59 c 0,0 -0.49478,1.6546 -0.45179,1.9126 0.043,0.25798 0.64496,-0.21499 0.85994,-0.81695 0.21499,-0.60196 0.43583,-2.0445 0.43583,-2.0445 z"
             id="path222"
             inkscape:connector-curvature="0" />
          <path
             d="m 305.79,160.76 c 0,0 -0.71379,0.33745 -0.88577,0.42345 -0.17199,0.086 -0.51597,0.34397 -0.55896,0.51596 -0.043,0.17199 -0.043,1.3329 -0.043,1.3329 l 0.42997,1.2899 0.66944,-0.51641 c 0,0 0.0905,-1.2845 0.22179,-1.4585 0.13126,-0.17393 0.16653,-1.5874 0.16653,-1.5874 z"
             id="path224"
             inkscape:connector-curvature="0" />
          <path
             d="m 307.33,159.21 c 0,0 -0.96496,0.89599 -1.137,1.025 -0.17199,0.12899 -0.64496,0.81695 -0.64496,1.1179 v 1.0749 l 0.68795,-0.85994 c 0,0 0.70167,-0.82709 0.74574,-1.0983 0.0441,-0.27124 0.34822,-1.2596 0.34822,-1.2596 z"
             id="path226"
             inkscape:connector-curvature="0" />
          <path
             d="m 307.5,156.8 c 0,0 -0.45992,0.86533 -0.64263,1.0889 -0.18271,0.22355 -0.17957,0.93982 -0.13657,1.4988 0.043,0.55896 0.17199,1.0749 0.17199,1.0749 0,0 0.61393,-0.29556 0.71448,-0.74967 0.10054,-0.4541 0.42195,-1.6322 0.54771,-1.7736 0.12575,-0.14138 -0.65498,-1.1394 -0.65498,-1.1394 z"
             id="path228"
             inkscape:connector-curvature="0" />
          <path
             d="m 307.79,158.2 c 0,0 -0.49478,1.6546 -0.45178,1.9126 0.043,0.25797 0.64495,-0.21499 0.85994,-0.81695 0.21498,-0.60196 0.43583,-2.0445 0.43583,-2.0445 z"
             id="path230"
             inkscape:connector-curvature="0" />
          <path
             d="m 306.16,161.66 c 0,0 -0.69844,0.67957 -0.74144,1.2385 -0.043,0.55896 0,1.8489 0,1.8489 0,0 1.0011,-0.64126 0.93476,-1.0211 -0.0663,-0.37983 -0.13986,-1.2483 -0.13986,-1.2483 z"
             id="path232"
             inkscape:connector-curvature="0" />
          <path
             d="m 313.34,158.16 c 0,0 -0.66749,-1.0033 -1.1797,-1.2715 -0.17957,-0.094 -0.42997,-0.043 -0.60196,-0.086 -0.17199,-0.043 -1.2039,-0.34398 -0.90294,0 0.30098,0.34398 0.94593,0.73095 1.1179,1.1609 0.17199,0.42997 0.56645,0.7737 0.56645,0.7737 l 0.46548,0.21523 z"
             id="path234"
             inkscape:connector-curvature="0" />
          <path
             d="m 307.09,157.07 c 0,0 -0.82777,0.51421 -0.98948,1.051 -0.16172,0.53678 -0.39597,1.806 -0.39597,1.806 0,0 1.1152,-0.41197 1.1318,-0.79721 0.0165,-0.38524 0.13071,-1.2492 0.13071,-1.2492 z"
             id="path236"
             inkscape:connector-curvature="0" />
          <path
             d="m 309.44,157.08 -0.80819,-0.44092 c 0,0 -0.76035,-0.0236 -1.13561,0.0269 -0.49074,0.066 -1.19459,0.28388 -1.44159,0.35846 -0.24696,0.0746 -0.39062,0.34254 -0.39062,0.34254 0,0 0.68693,0.0895 1.0298,0.13815 0.41001,0.0582 0.85364,0.008 1.2287,0.184 0.46978,0.22005 1.1873,0.99226 1.1624,1.0349 -0.025,0.0426 0.47416,0.38617 0.47416,0.38617 l 0.70769,-1.5044 z"
             id="path238"
             inkscape:connector-curvature="0"
             sodipodi:nodetypes="ccacccccccc" />
          <path
             d="m 311.1,157.14 -0.64622,-0.65574 -1.4009,-0.39505 c 0,0 -0.91967,0.0189 -1.1776,0.0189 -0.25798,0 -0.47297,0.21498 -0.47297,0.21498 0,0 0.64496,0.25799 0.94594,0.42997 0.30098,0.17199 0.94593,0.73095 0.94593,0.73095 0,0 1.0268,1.0936 0.99063,1.1271 -0.0362,0.0336 0.34228,0.50676 0.34228,0.50676 l 1.1124,-1.2356 z"
             id="path240"
             inkscape:connector-curvature="0" />
          <path
             d="m 312.19,157.77 c 0,0 -0.67135,-0.99606 -1.1797,-1.2715 -0.24551,-0.13302 -0.65359,-0.0989 -0.82558,-0.1419 -0.17199,-0.043 -0.80976,0.0186 -0.80976,0.0186 0,0 1.0764,0.76822 1.2484,1.1982 0.17199,0.42997 0.56645,0.7737 0.56645,0.7737 l 0.46548,0.21523 z"
             id="path242"
             inkscape:connector-curvature="0" />
          <path
             d="m 309.69,157.78 c 0,0 -0.67165,0.18362 -0.78254,0.30407 -0.1109,0.12046 -0.23537,0.10563 -0.40156,0.62793 -0.1662,0.5223 -0.26426,0.56631 -0.26751,0.87411 -0.003,0.3078 0.0923,0.78331 0.10792,0.87057 0.0156,0.0873 -0.27028,0.71041 -0.27028,0.71041 0,0 0.046,0.05 0.22254,-0.0292 0.17652,-0.0792 0.49916,-0.20043 0.7061,-0.31688 0.20695,-0.11645 0.42672,-0.30933 0.60048,-0.55226 0.17374,-0.24292 0.46795,-0.37495 0.57606,-0.65912 0.10812,-0.28416 0.16821,-0.57033 0.21346,-0.73203 0.0453,-0.16169 0.13978,-0.58115 0.13978,-0.58115 z"
             id="path244"
             inkscape:connector-curvature="0" />
          <path
             d="m 309.44,158.32 c 0,0 -0.38511,0.6727 -0.50098,1.3072 -0.11588,0.63446 -0.24277,0.61128 -0.10853,1.0729 0.13424,0.4616 -0.16666,1.6305 0.072,1.2807 0.23872,-0.34978 0.65105,-1.4109 0.72058,-1.7916 0.0695,-0.38068 0.34319,-1.1612 0.47413,-1.3995 0.13095,-0.23833 -0.65725,-0.4697 -0.65725,-0.4697 z"
             id="path246"
             inkscape:connector-curvature="0" />
          <path
             d="m 291.41,161.2 c 0.40978,-0.52594 1.4237,0.18753 1.885,0.66888 0.38151,0.39807 0.38508,1.039 0.48646,1.581 0.1046,0.55928 0.61587,1.4207 0.12161,1.7026 -0.27839,0.15876 -0.63611,-0.26642 -0.79049,-0.54726 -0.2443,-0.44441 0.1496,-1.0588 -0.0608,-1.5202 -0.19632,-0.43054 -0.72821,-0.61157 -1.0337,-0.97292 -0.23591,-0.27904 -0.83264,-0.62386 -0.60807,-0.9121 z"
             id="path248"
             inkscape:connector-curvature="0" />
          <path
             d="m 292.26,163.94 c -0.3734,0.34316 -0.093,1.0369 0.0608,1.5202 0.14665,0.46071 0.44252,0.88046 0.79049,1.2161 0.4253,0.41028 0.93649,0.81983 1.5202,0.91211 0.26711,0.0422 0.75601,0.0858 0.79049,-0.18242 0.0613,-0.47658 -1.0041,-0.27335 -1.2769,-0.66888 -0.28979,-0.4201 -0.0116,-1.0393 -0.18242,-1.5202 -0.15249,-0.4292 -0.34521,-0.9111 -0.72969,-1.1553 -0.27587,-0.17524 -0.73227,-0.34277 -0.97291,-0.12162 z"
             id="path250"
             inkscape:connector-curvature="0" />
          <path
             d="m 290.93,163.67 c -0.34831,0.40012 0.0883,1.0838 0.32705,1.5575 0.27791,0.55138 0.88457,0.87309 1.2308,1.3844 0.16072,0.23735 0.11367,0.86258 0.38465,0.76912 0.79144,-0.27297 -0.30429,-1.6473 -0.5002,-2.4612 -0.095,-0.39462 -0.0124,-0.91651 -0.327,-1.1729 -0.28886,-0.23542 -0.87061,-0.35787 -1.1153,-0.0768 z"
             id="path252"
             inkscape:connector-curvature="0" />
          <path
             d="m 291.41,161.63 c -0.33621,0.29571 -0.0296,0.91631 0.12162,1.3378 0.18229,0.50799 0.6781,0.85142 0.9121,1.3378 0.11954,0.24843 -0.0318,0.77205 0.24323,0.79049 0.28956,0.0194 0.29586,-0.5086 0.36484,-0.79049 0.1013,-0.41391 0.15316,-0.86094 0.0608,-1.2769 -0.0943,-0.42485 -0.26228,-0.8911 -0.60807,-1.1553 -0.29697,-0.22693 -0.81389,-0.49006 -1.0945,-0.24323 z"
             id="path254"
             inkscape:connector-curvature="0" />
          <path
             d="m 290.92,161.69 c -0.49736,0.18451 -0.21323,1.0514 -0.18242,1.581 0.0411,0.70677 0.20454,1.418 0.48645,2.0674 0.0582,0.13408 0.10006,0.39423 0.24323,0.36484 0.54521,-0.1119 0.26342,-1.0867 0.30404,-1.6418 0.04,-0.54618 0.16808,-1.1443 -0.0608,-1.6418 -0.14988,-0.32577 -0.45429,-0.85441 -0.79049,-0.72968 z"
             id="path256"
             inkscape:connector-curvature="0"
             style="opacity:1;vector-effect:none;fill:#eac102;fill-opacity:1;stroke:#000000;stroke-width:0.25799999;stroke-linecap:butt;stroke-linejoin:miter;stroke-miterlimit:4;stroke-dasharray:none;stroke-dashoffset:0;stroke-opacity:1" />
        </g>
        <g
           id="g284"
           style="fill:#e6e6e6;stroke-width:0.189">
          <path
             d="m 314.82,163.2 c -0.29638,0.50148 -0.4791,0.90942 -0.90965,1.0889 0.37936,-0.41842 0.25956,-1.13789 0.28773,-1.70489 z"
             id="path260"
             inkscape:connector-curvature="0"
             sodipodi:nodetypes="cccc"
             style="stroke-width:0.18895499;stroke-linejoin:round;stroke-miterlimit:4;stroke-dasharray:none" />
          <path
             d="m 312.18,166.05 c 0.47785,-0.0382 0.85737,-0.22027 1.31615,-0.63438 -0.0279,0.53558 -0.37198,0.94674 -0.74169,1.16678 z"
             id="path262"
             inkscape:connector-curvature="0"
             sodipodi:nodetypes="cccc"
             style="stroke-linejoin:round" />
          <path
             d="m 308.54,184.42 c 0,0 0.57581,0.4298 0.68517,0.75037 0.0476,0.13941 -0.0364,0.44039 -0.0364,0.44039 0,0 -0.2444,-0.30013 -0.39812,-0.41441 -0.20575,-0.15296 -0.68466,-0.35047 -0.68466,-0.35047 -0.0115,-0.24907 0.0987,-0.41467 0.43402,-0.42589 z"
             id="path264"
             inkscape:connector-curvature="0"
             style="stroke-linecap:round" />
          <path
             d="m 309.52,183.97 c 0,0 0.57582,0.4298 0.68517,0.75038 0.0476,0.13941 -0.0364,0.44039 -0.0364,0.44039 0,0 -0.24439,-0.30013 -0.39812,-0.41441 -0.20575,-0.15297 -0.68466,-0.35048 -0.68466,-0.35048 -0.0115,-0.24906 0.0987,-0.41467 0.43403,-0.42588 z"
             id="path266"
             inkscape:connector-curvature="0"
             style="stroke-linecap:round" />
          <path
             d="m 297.49,184.62 c 0,0 0.57581,0.4298 0.68517,0.75037 0.0476,0.13941 -0.0364,0.44039 -0.0364,0.44039 0,0 -0.2444,-0.30013 -0.39812,-0.41441 -0.20575,-0.15296 -0.68466,-0.35047 -0.68466,-0.35047 -0.0115,-0.24907 0.0987,-0.41467 0.43402,-0.42589 z"
             id="path268"
             inkscape:connector-curvature="0"
             style="fill-rule:nonzero;stroke-linecap:round" />
          <path
             d="m 298.46,184.17 c 0,0 0.57582,0.4298 0.68517,0.75038 0.0476,0.13941 -0.0364,0.44039 -0.0364,0.44039 0,0 -0.24439,-0.30013 -0.39812,-0.41441 -0.20575,-0.15297 -0.68466,-0.35048 -0.68466,-0.35048 -0.0115,-0.24906 0.0987,-0.41467 0.43403,-0.42588 z"
             id="path270"
             inkscape:connector-curvature="0"
             style="fill-rule:nonzero;stroke-linecap:round" />
          <path
             d="m 305.54,185.96 c 0,0 0.57582,0.4298 0.68517,0.75037 0.0476,0.13941 -0.0364,0.4404 -0.0364,0.4404 0,0 -0.24439,-0.30013 -0.39812,-0.41441 -0.20575,-0.15297 -0.68466,-0.35048 -0.68466,-0.35048 -0.0115,-0.24906 0.0987,-0.41467 0.43403,-0.42588 z"
             id="path272"
             inkscape:connector-curvature="0"
             style="stroke-linecap:round" />
          <path
             d="m 306.55,185.38 c 0,0 0.57581,0.4298 0.68517,0.75037 0.0476,0.13941 -0.0364,0.44039 -0.0364,0.44039 0,0 -0.2444,-0.30013 -0.39812,-0.41441 -0.20575,-0.15296 -0.68466,-0.35047 -0.68466,-0.35047 -0.0115,-0.24907 0.0987,-0.41467 0.43402,-0.42589 z"
             id="path274"
             inkscape:connector-curvature="0"
             style="stroke-linecap:round" />
          <path
             d="m 307.53,184.92 c 0,0 0.57582,0.4298 0.68517,0.75038 0.0476,0.13941 -0.0364,0.44039 -0.0364,0.44039 0,0 -0.24439,-0.30013 -0.39812,-0.41441 -0.20575,-0.15297 -0.68466,-0.35048 -0.68466,-0.35048 -0.0115,-0.24906 0.0987,-0.41467 0.43403,-0.42588 z"
             id="path276"
             inkscape:connector-curvature="0"
             style="stroke-linecap:round" />
          <path
             d="m 294.61,186.31 c 0,0 0.57582,0.4298 0.68517,0.75037 0.0476,0.13941 -0.0364,0.4404 -0.0364,0.4404 0,0 -0.24439,-0.30013 -0.39812,-0.41441 -0.20575,-0.15297 -0.68466,-0.35048 -0.68466,-0.35048 -0.0115,-0.24906 0.0987,-0.41467 0.43403,-0.42588 z"
             id="path278"
             inkscape:connector-curvature="0"
             style="fill-rule:nonzero;stroke-linecap:round" />
          <path
             d="m 295.63,185.73 c 0,0 0.57581,0.4298 0.68517,0.75037 0.0476,0.13941 -0.0364,0.44039 -0.0364,0.44039 0,0 -0.2444,-0.30013 -0.39812,-0.41441 -0.20575,-0.15296 -0.68466,-0.35047 -0.68466,-0.35047 -0.0115,-0.24907 0.0987,-0.41467 0.43402,-0.42589 z"
             id="path280"
             inkscape:connector-curvature="0"
             style="fill-rule:nonzero;stroke-linecap:round" />
          <path
             d="m 296.6,185.28 c 0,0 0.57582,0.4298 0.68517,0.75038 0.0476,0.13941 -0.0364,0.44039 -0.0364,0.44039 0,0 -0.24439,-0.30013 -0.39812,-0.41441 -0.20575,-0.15297 -0.68466,-0.35048 -0.68466,-0.35048 -0.0115,-0.24906 0.0987,-0.41467 0.43403,-0.42588 z"
             id="path282"
             inkscape:connector-curvature="0"
             style="fill-rule:nonzero;stroke-linecap:round" />
        </g>
        <path
           d="m 311.88,157.62 c -0.16944,-0.005 -0.33751,0.006 -0.4975,0.0358 -0.2555,0.0473 -0.60724,0.12018 -0.87568,0.32258 -0.40176,-0.48058 -1.53593,-0.50584 -1.84207,-0.32021 -0.45778,0.27758 0.0273,1.22994 0.83137,1.35832 0.13925,0.26392 -0.0149,0.54709 0.18774,0.79065 -0.005,0.31016 -0.0177,0.59752 -0.11653,0.76642 -0.21739,0.26404 -0.32735,0.61482 -0.39442,0.95019 -0.0671,0.33537 -0.0786,0.69351 0,1.0264 0.0811,0.34352 0.30406,0.63449 0.47061,0.9457 0.20017,0.37401 0.63196,1.107 0.63196,1.107 v 1.1026 l 0.63196,-0.39441 c 0.18943,0.75943 0.49386,1.4414 1.0264,1.9721 0,0 0.79343,-0.0178 0.9457,-0.31374 0.16374,-0.31818 -0.31374,-1.0264 -0.31374,-1.0264 l -0.9457,-0.9457 c -0.25901,-0.37949 -0.52994,-1.1138 -0.47419,-1.56984 0.0524,-0.4283 0.30954,-0.68193 0.66647,-0.92442 0.31686,-0.21525 0.76495,-0.0984 1.14779,-0.10978 0.1089,-0.003 0.67418,-0.36106 0.68126,-0.21962 0.007,0.12992 -0.0353,0.26797 0.0269,0.37649 0.20689,0.36087 1.0264,0.70815 1.0264,0.70815 0,0 0.71068,-0.39518 1.0264,-0.63196 0.3157,-0.23678 0.4714,-0.82206 0.17727,-1.26156 -0.15278,-0.22827 -0.57343,-0.41284 -0.80923,-0.55369 -0.51107,-0.30526 -1.1805,-1.0227 -1.2594,-1.2594 -0.0789,-0.23678 -0.1746,-1.0848 -0.55577,-1.4208 -0.36619,-0.32276 -0.88559,-0.49527 -1.3939,-0.51095 z"
           id="path286"
           inkscape:connector-curvature="0"
           style="stroke-width:0.1925"
           sodipodi:nodetypes="cccscccccccccccccccccccccccccc" />
        <path
           d="m 314.28,161.36 c -0.26816,0.1239 -0.36664,0.14097 -0.47924,0.2899 -0.12595,0.16657 -0.10294,0.27036 -0.1659,0.60411"
           id="path290"
           inkscape:connector-curvature="0"
           style="opacity:1;vector-effect:none;fill:none;fill-opacity:1;stroke:#000000;stroke-width:0.23;stroke-linecap:round;stroke-linejoin:miter;stroke-miterlimit:4;stroke-dasharray:none;stroke-dashoffset:0;stroke-opacity:1" />
        <path
           d="m 309.19168,158.01327 c 0.11771,-0.0632 0.87384,0.24338 1.03609,0.48923 m -0.30211,0.86271 c -0.0942,-0.17539 -0.0886,-0.60813 0.27775,-0.8499"
           id="path292"
           inkscape:connector-curvature="0"
           style="stroke-width:0.17209999;stroke-linecap:round"
           sodipodi:nodetypes="cccc" />
        <path
           style="color:#000000;clip-rule:nonzero;display:inline;overflow:visible;visibility:visible;opacity:1;isolation:auto;mix-blend-mode:normal;color-interpolation:sRGB;color-interpolation-filters:linearRGB;solid-color:#000000;solid-opacity:1;vector-effect:none;fill:#ececec;fill-opacity:1;fill-rule:nonzero;stroke:none;stroke-width:0.1925;stroke-linecap:butt;stroke-linejoin:miter;stroke-miterlimit:4;stroke-dasharray:none;stroke-dashoffset:0;stroke-opacity:1;marker:none;paint-order:markers stroke fill;color-rendering:auto;image-rendering:auto;shape-rendering:auto;text-rendering:auto;enable-background:accumulate"
           d="m 311.36189,159.72426 c 0,0 0.64178,-0.16225 0.7211,-0.16225 0.0793,0 0.46975,-0.12819 0.46975,-0.12819 0.0821,0.11885 0.0182,-0.0252 0.14895,0.44651 -0.0417,0.34888 -0.13083,0.36506 -0.21127,0.44246 l -0.61655,-0.16586 z"
           id="path1247"
           inkscape:connector-curvature="0"
           sodipodi:nodetypes="csccccc" />
        <path
           d="m 312.67663,159.87726 a 0.22352819,0.41387608 0 1 1 -0.44705,0 0.22352819,0.41387608 0 1 1 0.44705,0 z"
           id="path298"
           inkscape:connector-curvature="0"
           style="fill:#eac102;fill-opacity:1;fill-rule:nonzero;stroke:#000000;stroke-width:0.04601372" />
        <path
           d="m 312.57579,158.69817 c -0.0224,0.0224 0.0959,0.11794 0.2518,0.23234 0.29243,0.21454 0.0443,0.45462 -0.0777,0.44371 -0.11055,0.0276 -0.12435,0.0338 -0.33664,0.0971 -0.30932,0.0919 -1.12875,0.25764 -1.12875,0.25764 0,0 0.37993,0.30911 0.60039,0.40951 0.19098,0.087 0.55422,0.19064 0.81898,0.26079 0.18268,0.0484 0.59972,0.36929 0.59972,0.36929"
           id="path296"
           inkscape:connector-curvature="0"
           style="fill:none;stroke-width:0.1425;stroke-linecap:round"
           sodipodi:nodetypes="csccccsc" />
        <path
           sodipodi:nodetypes="ccccccccc"
           inkscape:connector-curvature="0"
           id="path1130-6"
           d="m 316.01725,161.81839 c -0.004,-0.0473 -0.13443,-0.0845 -0.13443,-0.0845 l -0.0826,0.0483 -0.0981,0.0701 c -0.20226,0.12025 -0.34119,0.0189 -0.46095,-0.14949 -0.0425,-0.006 -0.093,-0.0559 -0.11212,0.0623 0.0954,0.2336 0.27866,0.47645 0.53181,0.72666 0.41319,-0.004 0.34608,-0.27347 0.35631,-0.67328 z"
           style="color:#000000;clip-rule:nonzero;display:inline;overflow:visible;visibility:visible;opacity:1;isolation:auto;mix-blend-mode:normal;color-interpolation:sRGB;color-interpolation-filters:linearRGB;solid-color:#000000;solid-opacity:1;vector-effect:none;fill:#000000;fill-opacity:1;fill-rule:nonzero;stroke:#000000;stroke-width:0.06154537;stroke-linecap:round;stroke-linejoin:round;stroke-miterlimit:4;stroke-dasharray:none;stroke-dashoffset:0;stroke-opacity:1;marker:none;paint-order:markers stroke fill;color-rendering:auto;image-rendering:auto;shape-rendering:auto;text-rendering:auto;enable-background:accumulate" />
        <path
           style="fill:#000000;fill-rule:nonzero;stroke:none;stroke-width:0.4399913"
           inkscape:connector-curvature="0"
           id="path1263"
           d="m 312.67715,159.89001 a 0.15632385,0.28944314 0 1 1 -0.31263,0 0.15632385,0.28944314 0 1 1 0.31263,0 z" />
      </g>
    </g>
  </g>
</svg>
