<?xml version="1.0" encoding="UTF-8" standalone="no"?>
<!-- Created with Inkscape (http://www.inkscape.org/) -->
<svg
   xmlns:svg="http://www.w3.org/2000/svg"
   xmlns="http://www.w3.org/2000/svg"
   xmlns:xlink="http://www.w3.org/1999/xlink"
   version="1.0"
   width="1200"
   height="600"
   viewBox="0 0 12 6"
   id="Flag_of_Guinea-Bissau">
  <defs
     id="defs23" />
  <rect
     width="4"
     height="6"
     x="0"
     y="0"
     style="fill:#ce1126"
     id="rect3" />
  <rect
     width="8"
     height="3"
     x="4"
     y="0"
     style="fill:#fcd116"
     id="rect5" />
  <rect
     width="8"
     height="3"
     x="4"
     y="3"
     style="fill:#009e49"
     id="rect7" />
  <g
     transform="translate(2,3)"
     style="fill:#000000"
     id="star">
    <g
       id="cone">
      <polygon
         points="0,0 0,1 0.5,1 0,0 "
         transform="matrix(0.9510565,0.309017,-0.309017,0.9510565,0,-1)"
         id="triangle" />
      <use
         transform="scale(-1,1)"
         id="use12"
         x="0"
         y="0"
         width="12"
         height="6"
         xlink:href="#triangle" />
    </g>
    <use
       transform="matrix(0.309017,0.9510565,-0.9510565,0.309017,0,0)"
       id="use14"
       x="0"
       y="0"
       width="12"
       height="6"
       xlink:href="#cone" />
    <use
       transform="matrix(0.309017,-0.9510565,0.9510565,0.309017,0,0)"
       id="use16"
       x="0"
       y="0"
       width="12"
       height="6"
       xlink:href="#cone" />
    <use
       transform="matrix(-0.809017,0.5877853,-0.5877853,-0.809017,0,0)"
       id="use18"
       x="0"
       y="0"
       width="12"
       height="6"
       xlink:href="#cone" />
    <use
       transform="matrix(-0.809017,-0.5877853,0.5877853,-0.809017,0,0)"
       id="use20"
       x="0"
       y="0"
       width="12"
       height="6"
       xlink:href="#cone" />
  </g>
  <path
     d="M 0.5,5.2734869 L 0.5,4.5567334 L 0.7703716,4.5567334 C 0.8179592,4.556734 0.854302,4.5590158 0.8794003,4.5635783 C 0.9146018,4.569446 0.9440999,4.5806096 0.9678944,4.5970691 C 0.9916878,4.61353 1.0108371,4.6365905 1.0253422,4.666251 C 1.0398462,4.6959126 1.0470985,4.7285071 1.0470991,4.7640345 C 1.0470985,4.8249867 1.0277047,4.8765675 0.9889179,4.9187771 C 0.9501298,4.9609872 0.8800517,4.9820923 0.7786832,4.982092 L 0.5948501,4.982092 L 0.5948501,5.2734869 L 0.5,5.2734869 z M 0.5948501,4.8975091 L 0.7801499,4.8975091 C 0.8414272,4.8975095 0.8849409,4.8861015 0.910691,4.8632848 C 0.9364402,4.8404692 0.949315,4.8083636 0.9493155,4.7669681 C 0.949315,4.7369817 0.9417368,4.7113135 0.9265808,4.6899635 C 0.9114239,4.6686147 0.8914598,4.6545175 0.8666884,4.6476722 C 0.8507166,4.6434355 0.8212186,4.6413169 0.7781943,4.6413161 L 0.5948501,4.6413161 L 0.5948501,4.8975091 z M 1.0901238,5.2734869 L 1.3653846,4.5567334 L 1.4675684,4.5567334 L 1.7609192,5.2734869 L 1.6528683,5.2734869 L 1.5692634,5.0564075 L 1.2695567,5.0564075 L 1.1908409,5.2734869 L 1.0901238,5.2734869 z M 1.2969361,4.9791584 L 1.5399283,4.9791584 L 1.4651238,4.7806577 C 1.4423073,4.7203585 1.4253582,4.6708149 1.4142764,4.6320267 C 1.4051496,4.6779857 1.3922748,4.7236179 1.3756519,4.7689238 L 1.2969361,4.9791584 z M 1.8538135,5.2734869 L 1.8538135,4.5567334 L 1.9486636,4.5567334 L 1.9486636,5.2734869 L 1.8538135,5.2734869 z M 2.4507822,4.9923592 L 2.4507822,4.9082653 L 2.7544002,4.9077765 L 2.7544002,5.1737478 C 2.7077894,5.2109055 2.6597125,5.2388553 2.6101694,5.2575972 C 2.5606252,5.2763389 2.5097778,5.28571 2.4576271,5.28571 C 2.3872226,5.28571 2.3232559,5.2706349 2.2657268,5.2404851 C 2.2081973,5.2103351 2.1647651,5.16674 2.1354302,5.1096995 C 2.1060951,5.0526592 2.0914275,4.988937 2.0914276,4.9185326 C 2.0914275,4.8487807 2.1060136,4.7836732 2.1351857,4.7232099 C 2.1643577,4.6627477 2.2063231,4.6178488 2.2610821,4.588513 C 2.3158406,4.5591786 2.378911,4.5445112 2.4502933,4.5445104 C 2.5021181,4.5445112 2.5489727,4.5529043 2.5908572,4.5696898 C 2.6327406,4.5864766 2.6655795,4.6098631 2.6893741,4.6398494 C 2.7131675,4.669837 2.7312574,4.7089504 2.743644,4.7571898 L 2.6580834,4.7806577 C 2.6473266,4.7441524 2.6339629,4.7154693 2.6179921,4.6946083 C 2.6020203,4.6737484 2.5792041,4.6570437 2.5495436,4.6444941 C 2.5198821,4.6319459 2.4869617,4.6256715 2.4507822,4.6256707 C 2.4074311,4.6256715 2.3699475,4.6322719 2.3383311,4.645472 C 2.3067142,4.6586734 2.281209,4.67603 2.2618155,4.6975418 C 2.2424215,4.7190547 2.2273466,4.7426857 2.2165906,4.7684349 C 2.1983375,4.8127638 2.189211,4.8608407 2.1892112,4.9126655 C 2.189211,4.9765511 2.2002117,5.0300062 2.2222131,5.0730306 C 2.2442142,5.1160556 2.2762383,5.1479982 2.3182855,5.1688585 C 2.3603321,5.1897192 2.4049865,5.2001494 2.452249,5.2001493 C 2.4933176,5.2001494 2.5334088,5.1922453 2.5725228,5.1764367 C 2.6116356,5.1606286 2.6412966,5.1437608 2.6615058,5.1258338 L 2.6615058,4.9923592 L 2.4507822,4.9923592 z M 3.4051499,5.0221832 L 3.5,5.0461402 C 3.4801167,5.1240412 3.4443442,5.1834447 3.3926825,5.2243508 C 3.3410197,5.2652569 3.2778678,5.28571 3.2032268,5.28571 C 3.1259775,5.28571 3.0631516,5.2699831 3.014749,5.2385294 C 2.966346,5.2070757 2.9295142,5.1615249 2.9042536,5.1018767 C 2.8789927,5.042229 2.8663624,4.9781809 2.8663624,4.909732 C 2.8663624,4.8350911 2.8806225,4.7699836 2.9091427,4.7144094 C 2.9376628,4.6588363 2.978243,4.6166265 3.0308833,4.5877796 C 3.0835232,4.5589343 3.1414599,4.5445112 3.2046936,4.5445104 C 3.2764011,4.5445112 3.3367009,4.5627641 3.3855932,4.5992692 C 3.4344844,4.6357758 3.4685456,4.687112 3.487777,4.7532784 L 3.3943937,4.7752796 C 3.37777,4.7231289 3.35365,4.6851563 3.3220339,4.6613619 C 3.2904167,4.6375684 3.2506514,4.6256715 3.2027379,4.6256707 C 3.1476528,4.6256715 3.1016131,4.6388723 3.0646186,4.6652732 C 3.0276236,4.6916752 3.0016295,4.7271218 2.9866362,4.7716128 C 2.9716426,4.8161048 2.9641459,4.8619815 2.964146,4.9092432 C 2.9641459,4.9701952 2.9730279,5.0234058 2.990792,5.0688749 C 3.0085559,5.1143443 3.0361797,5.1483241 3.0736636,5.1708143 C 3.111147,5.1933045 3.1517272,5.2045496 3.1954042,5.2045495 C 3.2485328,5.2045496 3.2935132,5.1892302 3.3303455,5.1585912 C 3.3671767,5.1279525 3.3921115,5.0824833 3.4051499,5.0221832 L 3.4051499,5.0221832 z "
     style="font-size:1.00130379px;font-style:normal;font-weight:normal;fill:#000000;fill-opacity:1;stroke:none;stroke-width:1px;stroke-linecap:butt;stroke-linejoin:miter;stroke-opacity:1;font-family:Arial"
     id="text2396" />
</svg>
