<svg xmlns="http://www.w3.org/2000/svg" version="1.0" width="1260" height="630"><path transform="scale(-1,1)" fill="#0d3b9f" d="M-1260 0H0V630H-1260z"/><path transform="scale(-1,1)" fill="#fff" d="M-1260 210H0V420H-1260z"/><g transform="translate(-0.37774505)"><path d="m 633.76179,1083.5646 -22.78396,-70.1218 59.64922,43.3377 h -73.73049 l 59.64922,-43.3377 z" fill="#ffe401" transform="translate(-3.3840417,-733.5037)"/><g transform="matrix(1.1075143,0,0,1.1075143,-78.438088,-47.796699) translate(-75.41744)"><path d="m 431.01775,-590.33697 -6.34798,19.53708 16.61924,-12.07459 -20.54251,10e-6 16.61924,12.07457 z" fill="#ffe401" transform="matrix(3.2407407,0,0,-3.2407407,-591.81793,-1510.6294)"/><path d="m 431.01775,-590.33697 -6.34798,19.53708 16.61924,-12.07459 -20.54251,10e-6 16.61924,12.07457 z" fill="#ffe401" transform="matrix(3.2407407,0,0,-3.2407407,-591.81793,-1597.1592)"/></g><g transform="matrix(1.1075143,0,0,1.1075143,-451.67672,497.67304) translate(76.170235,-1.067406)"><path d="m 431.01775,-590.33697 -6.34798,19.53708 16.61924,-12.07459 -20.54251,10e-6 16.61924,12.07457 z" fill="#ffe401" transform="matrix(-3.2407407,0,0,-3.2407407,2208.0829,-2002.0791)"/><path d="m 431.01775,-590.33697 -6.34798,19.53708 16.61924,-12.07459 -20.54251,10e-6 16.61924,12.07457 z" fill="#ffe401" transform="matrix(-3.2407407,0,0,-3.2407407,2208.0829,-2088.6089)"/></g></g></svg>