<?xml version="1.0" encoding="utf-8"?>
<!-- Generator: Adobe Illustrator 16.0.5, SVG Export Plug-In . SVG Version: 6.00 Build 0)  -->
<!DOCTYPE svg PUBLIC "-//W3C//DTD SVG 1.1//EN" "http://www.w3.org/Graphics/SVG/1.1/DTD/svg11.dtd">
<svg version="1.1" id="svg2545" xmlns:svg="http://www.w3.org/2000/svg"
	 xmlns="http://www.w3.org/2000/svg" xmlns:xlink="http://www.w3.org/1999/xlink" x="0px" y="0px" width="1169.291px"
	 height="701.576px" viewBox="-177.166 -225.156 1169.291 701.576" enable-background="new -177.166 -225.156 1169.291 701.576"
	 xml:space="preserve">
<rect x="-177.166" y="-225.156" fill="#FFFFFF" width="1169.291" height="701.576"/>
<g id="layer1" transform="translate(-687.60924,-575.81428)">
	<g id="g4159" transform="translate(17.716536,17.750433)">
		<path id="path3986" fill="#335290" d="M875.289,793.306H687.609V575.814h187.679V793.306z"/>
		<path id="path3988" fill="#335290" d="M1072.708,793.306H887.636V575.814h185.072V793.306z"/>
		<path id="path3990" fill="#335290" d="M1270.266,793.306h-185.072V575.814h185.072V793.306z"/>
		<path id="path3992" fill="#335290" d="M1467.137,793.306h-185.348V575.814h185.348V793.306z"/>
		<path id="path3996" fill="#FFFFFF" d="M1430.286,729.827c-9.068,5.2-16.668,8.932-22.801,10.935
			c-6.132,2.003-12.278,2.936-18.534,2.936c-9.068,0-17.877-2.141-26.41-6.393c-8.396-4.281-15.063-10.935-20.002-19.879
			c-4.802-9.069-7.203-20.799-7.464-35.465h49.074c10.934,0,21.991-0.261,32.926-1.07c5.734-0.397,12.402-1.193,19.742-2.524
			c0.397-4.143,0.535-7.614,0.535-10.413c0-11.332-2.141-21.457-6.407-30.402c-4.267-8.932-10.934-15.997-20.126-21.196
			c-9.206-5.2-19.468-7.875-30.813-7.875c-9.329,0-18,1.742-25.998,5.076c-6.132,2.401-12.265,5.735-18.397,10.001
			c-6.132,4.129-10.674,7.861-13.733,11.195c-4.006,4.404-7.613,11.332-10.811,20.798c-3.196,9.343-4.801,19.879-4.801,31.609
			c0,14.94,3.072,27.864,9.068,39.072c6.009,11.072,14.405,19.469,25.201,25.065c10.797,5.474,22.938,8.272,36.273,8.272
			c6.805,0,13.198-0.672,19.331-2.14c6.132-1.468,11.606-3.334,16.408-5.46c3.196-1.346,8.259-4.268,15.338-8.671l4.788-10.935
			L1430.286,729.827z M1345.873,631.158c6.941-8.41,16.271-12.676,27.877-12.676c10.934,0,19.591,3.869,26.135,11.606
			c6.53,7.738,9.864,19.742,9.864,36.136c0,1.331,0,3.334-0.137,5.872c-4.404,0.398-13.198,0.659-26.808,0.659
			c-5.721,0-16.258-0.261-31.473-0.659c-7.984-0.535-13.458-0.933-16.257-1.207C1335.198,652.752,1338.807,639.417,1345.873,631.158
			"/>
		<path id="path4000" fill="#FFFFFF" d="M1236.269,737.564l-6.008,10.139c-6.929,3.869-13.871,6.531-20.661,8.396
			c-6.806,1.729-14.543,2.538-23.076,2.538c-21.196,0-38.14-6.407-50.666-19.207c-12.676-12.8-18.932-30.539-18.932-52.942
			c0-11.867,1.729-22.129,5.062-30.937c3.457-8.794,7.6-15.599,12.539-20.263c3.32-3.334,9.727-7.738,19.056-13.061
			c9.344-5.337,15.873-8.671,19.605-10.276c6.805-2.936,15.077-4.39,24.667-4.39c9.068,0,17.203,0.919,24.544,2.798
			c4.665,1.194,9.191,3.197,13.869,5.996c-1.206,7.738-2.14,13.733-2.675,17.739c-0.534,3.869-1.193,11.195-2.003,21.731h-8.794
			c-0.672-9.741-1.207-15.736-1.865-18.137c-0.398-1.468-1.208-2.799-2.676-3.993c-3.594-2.812-8.136-5.213-13.856-7.202
			c-5.61-2.003-11.867-3.073-18.549-3.073c-8.396,0-15.722,1.729-21.868,5.199c-6.132,3.471-10.921,9.069-14.254,16.669
			c-3.471,7.601-5.076,16.93-5.076,28.139c0,13.87,2.4,26.271,7.203,37.33c4.801,11.209,11.332,19.207,19.741,24.406
			c8.259,5.062,17.465,7.601,27.727,7.601c5.2,0,10.139-0.673,15.077-1.866c4.788-1.33,11.058-3.731,18.796-7.34L1236.269,737.564"
			/>
		<path id="path4004" fill="#FFFFFF" d="M928.232,708.63h8.808c0.123,5.872,0.398,10.537,0.933,13.87
			c0.535,3.458,1.331,6.792,2.524,10.125c1.207,3.21,3.073,6.009,5.611,8.272c2.524,2.264,5.2,4.006,8.135,5.199
			c3.059,1.332,5.995,2.141,9.068,2.539c3.06,0.397,7.724,0.658,13.994,0.658c10.138,0,18.535-2.799,25.203-8.259
			c6.53-5.474,9.864-12.8,9.864-22.267c0-4.267-1.056-8.012-3.197-11.209c-2.003-3.334-5.062-5.734-8.931-7.6
			c-3.869-1.866-12.265-4.268-25.065-7.066c-12.814-2.936-21.073-5.062-24.941-6.406c-5.598-2.126-10.139-4.665-13.473-7.724
			c-3.333-3.073-5.995-6.805-7.861-11.469c-2.003-4.665-3.073-9.741-3.073-15.201c0-7.875,2.14-15.201,6.407-21.868
			c4.266-6.805,10.797-12.265,19.865-16.408c9.068-4.129,18.933-6.256,29.606-6.256c6.53,0,13.87,0.795,22.403,2.524
			c8.396,1.729,15.201,3.731,20.524,6.27c-0.261,11.332-0.398,22.938-0.521,34.668h-8.808c-0.535-7.34-1.194-12.265-1.866-14.529
			c-0.536-2.401-1.468-4.404-2.662-6.27c-1.07-1.866-2.936-3.731-5.734-5.872c-2.675-2.003-6.27-3.869-10.537-5.597
			c-4.403-1.605-9.74-2.401-15.996-2.401c-8.945,0-16.148,2.662-21.608,7.861c-5.336,5.336-8.135,11.469-8.135,18.534
			c0,4.006,0.796,7.34,2.401,10.139c1.605,2.936,3.595,5.2,6.27,6.928c2.538,1.743,6.27,3.348,10.934,4.802l24.928,6.27
			c12.676,3.196,21.333,6.009,26.135,8.272c4.678,2.401,8.547,5.995,11.47,10.797c2.936,4.939,4.267,10.797,4.267,17.739
			c0,13.596-5.598,25.601-16.792,35.738c-11.209,10.125-26.272,15.201-45.068,15.201c-8.67,0-20.14-1.331-34.545-4.006
			c-7.998-1.468-12.265-2.538-12.8-3.196c-0.398-0.275-0.672-0.811-0.672-1.469c0-0.672,0.137-1.604,0.274-2.661
			c0.933-4.267,1.592-8.547,1.866-12.677C927.833,730.499,928.094,721.828,928.232,708.63"/>
		<path id="path4008" fill="#FFFFFF" d="M715.816,720.497c2.524,6.27,6.269,12.402,11.195,18.397
			c4.938,6.009,11.332,11.071,19.344,14.94c7.861,3.992,17.601,5.996,29.057,5.996c14.679,0,28.138-3.458,40.403-10.537
			c12.142-6.928,21.608-16.531,28.275-28.797c6.668-12.402,10.139-25.874,10.139-40.801c0-21.21-6.53-38.538-19.604-52.01
			c-12.937-13.472-29.867-20.126-50.542-20.126c-21.992,0-40.005,7.188-53.999,21.594c-14.131,14.405-21.073,32.94-21.073,55.742
			C709.011,697.559,711.275,709.426,715.816,720.497 M748.084,631.295c7.6-9.206,17.602-13.747,29.867-13.747
			c8.67,0,16.668,2.401,23.871,7.34c7.203,4.802,13.061,13.198,17.739,25.065c4.665,11.867,6.928,25.874,6.928,42.146
			c0,19.591-3.869,34.133-11.73,43.6c-7.737,9.467-17.478,14.131-29.071,14.131c-9.068,0-17.464-3.06-25.202-9.068
			c-7.875-5.996-13.733-15.462-17.739-28.398c-4.129-13.062-6.132-25.875-6.132-38.538
			C736.614,654.631,740.346,640.35,748.084,631.295"/>
	</g>
</g>
</svg>
