<svg id="flag" xmlns="http://www.w3.org/2000/svg" width="211.66667mm" height="141.11111mm" viewBox="0 0 600 400">
  <defs>
    <style>
      .cls-1 {
        fill: #003c6e;
      }

      .cls-2 {
        fill: #007846;
      }

      .cls-3 {
        fill: #ffdc14;
      }
    </style>
  </defs>
  <rect id="background" class="cls-1" width="600" height="400"/>
  <circle id="circle" class="cls-2" cx="300" cy="200" r="150"/>
  <g id="logo_SADC" data-name="logo SADC">
    <g>
      <path class="cls-3" d="M349.60411,217.53456h.00757V139.48784c0-10.91761,8.81678-21.59411,19.69992-21.59411,10.91761,0,19.73439,10.6765,19.73439,21.59411h18.4948a38.2291,38.2291,0,1,0-76.45817,0V221.1121a38.19192,38.19192,0,0,0,16.87051,31.70915,18.38908,18.38908,0,0,0,1.651-7.56625Z"/>
      <path class="cls-3" d="M371.76452,242.50441V245.255a40.49552,40.49552,0,0,1-2.55782,14.081c.03532,0,.06958.00525.1049.00525a38.23085,38.23085,0,0,0,38.22919-38.22919H389.046C389.046,231.16534,381.51737,241.05187,371.76452,242.50441Z"/>
    </g>
    <g>
      <path class="cls-3" d="M210.9538,219.08023H192.45921c0,15.22752,9.64123,28.39058,23.73782,34.93984l6.10636-15.962C215.46425,233.9733,210.9538,227.00573,210.9538,219.08023Z"/>
      <path class="cls-3" d="M213.26126,140.7966c0-12.63964,11.39983-22.90287,25.45165-22.90287s25.45165,10.26323,25.45165,22.90287h18.49459c0-21.83522-19.66566-39.57221-43.94624-39.57221s-43.94624,17.737-43.94624,39.57221a41.84876,41.84876,0,0,0,14.80942,29.99784c14.32741,12.50195,32.95968,17.25477,45.42716,29.68778,5.13161,5.2693,7.47355,11.36535,6.85364,18.598,0,9.59371-6.61148,17.77651-15.96178,21.14573l-6.9289,18.10423c23.0805-1.19231,41.38527-18.25873,41.38527-39.25a44.11,44.11,0,0,0-4.09844-16.66935C264.71552,173.44643,210.8159,170.3467,213.26126,140.7966Z"/>
    </g>
    <g>
      <path class="cls-3" d="M278.69839,146.7205H260.20381l-10.53818,27.54659a123.087,123.087,0,0,1,14.88151,9.49239l4.9212-12.86183,15.73938,41.22551h-2.99043a55.74693,55.74693,0,0,1,.897,6.95707,37.84971,37.84971,0,0,1-.65,6.71574h7.97848L318.374,298.77561h18.49458Z"/>
      <path class="cls-3" d="M259.09412,218.96209l.01009-.11793a20.77474,20.77474,0,0,0-.46582-6.721h-4.9439l2.30788-6.03194a24.21169,24.21169,0,0,0-2.95007-3.6528,60.71888,60.71888,0,0,0-10.946-8.4115L202.03359,298.77561h18.49458L248.45966,225.796H257.753a17.79428,17.79428,0,0,0,1.34113-6.71574Z"/>
    </g>
    <g>
      <polygon class="cls-3" points="287.963 228.559 287.963 283.243 309.471 283.243 288.542 228.559 287.963 228.559"/>
      <path class="cls-3" d="M352.37445,170.89765h-.00757V245.255a21.31283,21.31283,0,0,1-21.31874,21.31873H327.5076l6.32329,16.52851A37.94367,37.94367,0,0,0,369.00175,245.255V165.5594a37.92,37.92,0,0,0-15.9601-30.9238,18.6863,18.6863,0,0,0-.6672,4.85224Z"/>
      <path class="cls-3" d="M330.09632,127.57153h-42.1334v35.63353l18.49459,48.34444V144.24066h21.86234v-4.75282A40.90427,40.90427,0,0,1,330.09632,127.57153Z"/>
    </g>
  </g>
</svg>
