<?xml version="1.0" encoding="UTF-8"?>
<svg width="900" height="600" version="1.1" viewBox="0 0 10368 6912" xmlns="http://www.w3.org/2000/svg" xmlns:cc="http://creativecommons.org/ns#" xmlns:dc="http://purl.org/dc/elements/1.1/" xmlns:rdf="http://www.w3.org/1999/02/22-rdf-syntax-ns#">
 <title>Flag of Saudi Arabia</title>
 <path d="m0 0h10368v6912H0z" fill="#006c35"/>
 <path transform="scale(11.52)" d="m564.32227 412.5c-1.4757 0-5.46875 4.07899-5.46875 5.55469 0 1.12847 1.99717 3.38541 3.64648 4.6875v3.38672h-281.25c9.98264 9.98264 24.82639 10.24218 54.6875 10.24218h226.5625v3.38672c-1.73611 1.38889-3.64648 3.55903-3.64648 4.6875 0 1.4757 3.99305 5.55469 5.46875 5.55469 1.21527 0 3.3865-2.16927 4.77539-3.99219h12.5a5.2083333 3.4722222 0 0 0 9.63476 0h14.84375c1.82292 2.08334 4.25282 2.16992 5.72852 2.16992 4.25347 0 6.94531-1.824 6.94531-11.80664 0-9.375-4.1671-10.24218-14.41016-10.24218h-38.19336v-3.38672c1.64931-1.30209 3.64454-3.55903 3.64454-4.6875 0-1.4757-3.99306-5.55469-5.46875-5.55469zm1.82421 23.87109h38.19336c-0.69444 2.60417-0.69444 4.602 0 6.51172h-13.10742a5.2083333 3.4722222 0 0 0-9.63476 0h-12.5c-0.69445-0.95486-1.99631-2.43055-2.95118-3.125v-3.38672z" fill="#ffffff" stroke-width=".0868056"/>
 <metadata>
  <rdf:RDF>
   <cc:Work rdf:about="">
    <dc:title>Flag of Saudi Arabia</dc:title>
   </cc:Work>
  </rdf:RDF>
 </metadata>
 <g transform="matrix(2.0249996,0,0,1.6022253,2395.0911,1627.861)" fill="#ffffff">
  <path d="m2441.589 160.849c30.589-32.115 60.251-65.112 89.643-98.349 1.302 29.871-14.061 57.334-31.217 80.668-9.184 13.567-22.138 23.723-33.79 35.002-5.579 5.056-10.994 10.261-16.349 15.526 1.541 7.988 3.889 15.855 4.757 23.963-0.449 7.524-1.66 15.003-2.558 22.497-6.596-10.351-11.308-21.899-18.847-31.591 3.321 33.88 4.936 67.909 7.195 101.879 5.893 99.74 11.293 199.495 16.379 299.279-0.299 2.573 1.96 4.203 3.41 6.028 21.764 24.202 43.438 48.494 63.811 73.892 16.005 21.3 31.157 43.318 44.006 66.698 16.828 30.604 30.155 63.751 34.089 98.693 2.139 21.973 1.077 44.65-6.073 65.695-7.195-52.876-29.856-102.986-61.941-145.377-0.688-0.105-2.094-0.314-2.782-0.404 0.359-0.329 1.107-0.987 1.466-1.316-22.736-30.978-47.162-60.684-72.262-89.763 1.75 35.57 3.5 71.155 4.861 106.74 1.331 45.906-0.359 91.827-2.304 137.688 0.015 8.691-3.904 16.633-5.923 24.935-5.849 18.638-10.56 37.724-18.054 55.793-1.197-42.361-2.633-84.767-5.191-127.083-4.592-75.792-9.423-151.554-13.761-227.346-0.643-5.968-0.314-12.056-1.451-17.92-16.514-19.311-34.344-37.47-51.59-56.107-30.38-31.741-61.073-63.183-92.934-93.428 6.043 79.173 12.295 158.33 17.949 237.533 2.423 35.959 5.624 71.918 5.968 107.982 0.434 31.367 0.12 62.749-0.583 94.101 0.09 19.789 0.359 40.237-6.656 59.054-10.381 23.305-29.004 42.765-51.456 54.776-17.531 9.304-37.35 14.255-57.184 14.42-13.387 0.299-26.7-3.261-38.532-9.379-20.717-11.682-35.495-31.606-45.009-53.056-6.521-14.764-11.203-30.365-13.731-46.325-1.466-6.985-3.021-15.063-9.259-19.43-4.966-3.351-10.904-0.673-15.706 1.571-11.682 6.223-22.93 13.731-31.382 24.067-27.523 33.117-40.611 75.388-48.808 116.986-4.009 17.949-10.366 35.794-21.525 50.618-8.092 10.56-19.685 19.7-33.326 20.941-10.695-0.763-21.046-4.353-30.604-9.079-21.151-11.159-36.034-31.502-44.56-53.46-2.543-5.714-3.725-11.937-6.313-17.606-0.434-0.075-1.286-0.194-1.72-0.269 0.419-0.269 1.256-0.823 1.66-1.107-8.75-33.536-10.037-68.552-8.122-103.016 0.927-3.336-2.528-4.547-4.427-6.402-7.539-6.462-10.62-16.723-10.516-26.386-0.209-35.465 4.936-71.544 19.864-103.988 12.101-26.76 30.23-50.124 47.881-73.399 1.66-2.513 4.592-4.517 5.4-7.449-10.994-12.55-22.602-24.576-34.329-36.438-6.686-7.733-14.823-14.016-21.405-21.824-24.74-26.82-49.062-54.013-73.369-81.222 2.319 39.803 4.084 79.636 6.073 119.469 1.511 36.886 4.068 73.758 3.545 110.689 0.105 32.922-1.376 65.815-2.722 98.693-0.075 8.197-3.38 15.826-5.474 23.634-5.894 19.251-11.219 38.726-18.369 57.573-1.331-15.586-0.523-31.277-1.511-46.878-2.707-77.826-8.795-155.473-13.118-233.21-3.68-59.473-6.926-118.991-10.844-178.434-16.199-20.104-33.297-39.564-49.316-59.862-18.757-23.664-37.5-47.492-53.205-73.324-22.542-40.566-47.851-79.95-79.098-114.414-1.78-1.675-1.227-4.173-1.212-6.312 1.077-22.302 1.93-44.605 3.036-66.907 22.243 14.479 43.453 30.529 63.841 47.536 15.796 13.627 30.829 28.241 43.618 44.769 6.597 7.808 12.684 17.77 10.471 28.435-7.509-2.977-15.272-5.355-22.377-9.214-2.857-1.571-5.968-2.573-9.169-3.051-0.464 6.237 3.784 11.159 6.97 16.065 23.17 33.94 47.342 67.161 72.142 99.919 3.186 4.203 6.701 8.212 9.154 12.939-1.571-38.412-4.502-76.779-6.582-115.176-3.515-59.293-7.12-118.572-10.635-177.865-0.643-8.855-0.209-17.994-3.769-26.326-1.72-3.321 0.823-6.357 2.229-9.229 8.511-16.454 16.738-33.072 24.815-49.765 0.389-1.167 2.259-4.173 2.827-1.286 15.302 39.773 27.209 80.848 36.004 122.536 2.707 9.977-0.628 20.148-1.63 30.125-5.714-11.293-12.191-22.168-18.533-33.117 8.122 104.123 12.834 208.499 18.922 312.741 4.113 6.911 10.426 12.385 15.452 18.698 48.539 55.973 98.932 110.285 149.296 164.598 37.425-41.553 75.224-82.778 113.157-123.867 1.645-1.526 2.767-3.395 2.184-5.714-11.413-129.611-22.841-259.237-34.269-388.848-1.451-13.103-1.062-26.595-5.983-39.04 9.349-20.089 19.595-39.773 28.884-59.907 5.086 10.575 8.586 21.869 12.595 32.908 9.423 27.508 17.576 55.464 24.022 83.81 1.346 6.387 3.56 12.834 2.677 19.445-0.673 5.968-1.496 11.922-2.139 17.905-6.252-10.56-12.25-21.27-18.548-31.801-0.913 0.344-1.78 0.703-2.618 1.062 0.897 0.224 1.825 0.434 2.782 0.628 9.498 110.24 16.648 220.72 25.967 331.005 39.325-41.778 78.335-83.869 117.839-125.467 4.338-4.936 9.274-9.349 13.268-14.584-19.221-25.832-37.156-52.592-55.046-79.352-6.222-8.81-11.054-18.473-16.992-27.463-12.505-19.386-25.279-38.995-42.451-54.627-1.496-25.189-2.304-50.438-3.381-75.672 40.327 35.241 81.297 69.794 120.487 106.321 3.755 3.366 6.746 7.494 8.84 12.101-3.53-39.414-6.761-78.844-10.097-118.273-0.404-3.62-0.284-7.389-1.795-10.77-1.002-3.47-3.77-7.18-1.526-10.725 9.274-19.071 18.024-38.397 27.194-57.528 16.05 37.993 28.555 77.452 38.457 117.48 1.017 5.624 3.47 11.144 2.722 16.947-0.733 6.402-1.167 12.834-1.899 19.236-5.669-9.424-11.338-18.847-16.948-28.286-0.972-1.496-1.885-2.992-2.707-4.517 5.115 45.098 8.496 90.376 12.49 135.579 29.542-31.352 59.877-61.941 90.436-92.321 13.612-12.879 27.732-25.234 40.775-38.711-1.227-17.501-1.93-35.032-3.306-52.517-0.254-5.549-5.355-11.144-1.78-16.454 9.648-18.338 18.787-36.961 27.792-55.644 10.547 24.234 17.667 49.842 25.296 75.106m-175.966 219.702c0.464 7.075 1.062 14.15 1.705 21.21 9.603 11.862 19.356 23.619 29.497 35.032 38.666 43.647 78.664 86.083 117.899 129.207-6.073-106.665-12.894-213.316-18.922-319.996-44.26 44.007-87.668 88.851-130.179 134.547m-83.51-96.748c12.4 19.386 25.309 38.487 39.07 56.93-1.107-17.097-2.767-34.179-4.263-51.246-0.748 1.511-1.556 3.022-2.184 4.562-9.349-6.82-20.762-12.175-32.623-10.246m-79.487 275.915c-8.017 9.438-16.947 18.144-24.486 27.956 1.78 30.245 5.639 60.415 8.017 90.645 1.167 49.975-7.135 103.016-37.859 143.911 0.883-6.507 0.464-13.088 0.539-19.64-0.045-22.422-0.015-44.844-0.015-67.281-0.209-21.495 0.867-42.989 0.254-64.484-0.868-10.979-1.99-21.958-2.842-32.938-0.389-1.765 0.12-4.891-2.378-4.981 1.974-2.468 1.541-5.534 1.077-8.436-10.725 11.338-20.941 23.155-31.636 34.523-21.046 23.514-43.423 45.771-64.992 68.792 21.913 23.604 35.66 54.671 39.205 86.637 3.575 33.999-4.891 70.153-27.208 96.584-19.685 23.17-47.925 37.799-77.258 44.53-13.761 3.051-28.465 5.146-42.122 0.539 1.705 14.27 3.844 28.495 6.701 42.585 4.906 23.753 11.293 47.731 23.963 68.657 6.776 10.695 16.065 21.061 28.839 24.202 13.657 3.321 27.552-3.53 37.156-12.924 8.556-7.673 12.52-18.802 16.125-29.392 10.844-31.187 14.509-64.693 28.854-94.684 10.067-23.798 22.856-46.893 41.314-65.232 9.573-9.962 20.582-18.458 32.115-26.027 7.943-4.757 17.561-8.721 26.909-5.938 8.9 2.618 14.898 10.471 19.011 18.383 9.364 17.815 11.802 38.188 19.385 56.706 5.55 15.302 12.909 30.843 25.982 41.164 13.208 10.426 30.619 13.612 47.088 12.924 28.749-1.241 55.763-14.15 78.425-31.277-2.019-29.437-4.144-58.86-6.641-88.267-12.58-143.626-24.486-287.313-36.722-430.954-0.419-3.949-3.964-6.626-5.714-9.977-41.091 43.901-80.924 88.955-121.086 133.694m-187.334 206.076c-8.601 9.932-16.723 20.298-24.815 30.649-15.392 20.762-30.798 41.763-42.196 65.037-2.872 5.908-5.49 13.283-2.184 19.565 3.904 6.432 12.251 7.389 19.101 7.404 30.245-1.212 58.456-14.749 83.017-31.651 8.212-4.054 15.93-13.028 12.834-22.766-4.069-13.088-11.772-24.636-19.311-35.959-7.823-11.129-16.065-22.003-24.845-32.399-0.404 0.03-1.197 0.09-1.601 0.12z"/>
  <path d="m2574.161 140.057c8.99-21.33 17.306-42.914 26.401-64.2 13.941 45.936 27.552 92.007 38.921 138.645 1.705 8.032 3.934 16.005 4.772 24.187-1.182 6.477-3.156 12.834-3.321 19.49-4.966-9.573-9.962-19.116-15.003-28.63 6.342 119.32 14 238.58 22.556 357.78 2.648 38.337 6.522 76.6 7.928 115.012 2.573 71.155 0.09 143.851-21.524 212.254-8.122 24.725-18.458 48.823-31.591 71.32-17.65 29.078-43.857 52.009-72.681 69.629-51.336 30.888-110.091 46.953-168.756 56.87-3.321 1.212-4.667-2.648-6.552-4.398 52.338-25.204 102.656-54.821 149.625-89.045 23.484-17.591 46.474-36.123 66.234-57.902 22.646-25.503 39.729-56.212 47.492-89.538 8.511-33.506 5.579-68.373 3.71-102.477-4.906-78.619-10.979-157.163-16.155-235.768-7.972-121.13-16.005-242.274-23.993-363.404-1.69-8.511-7-15.811-9.453-24.097-0.659-2.033 0.867-3.858 1.39-5.728z"/>
  <path d="m352.168 139.728c10.201-19.774 19.999-39.743 29.946-59.637 16.155 42.196 28.944 85.694 37.814 130 0.583 8.062-1.615 16.095-2.333 24.112-7.299-9.872-11.682-21.764-19.116-31.621 4.054 33.282 5.505 66.832 8.152 100.248 2.947 43.214 5.729 86.442 8.496 129.671 22.153-3.71 42.062-16.798 55.434-34.658 20.118-26.745 29.048-60.4 31.576-93.338-0.165-42.316-2.423-85.365-15.721-125.871-2.348-8.287-6.671-16.304-6.582-25.085 1.586-16.319 7.045-31.965 12.819-47.207 1.466-3.56 2.423-8.092 6.731-9.154 6.567 20.298 13.357 40.581 17.725 61.492 6.776 32.758 10.052 66.114 13.821 99.321 2.513 20.104 3.261 40.536 8.347 60.236 6.596 26.491 19.969 52.308 41.987 69.151 16.558 12.565 37.709 21.166 58.77 17.83 14.853-2.677 29.886-8.586 40.282-19.924 4.697-5.026 7.928-12.385 5.923-19.266-21.27-54.761-38.636-110.928-56.197-166.961-5.998-19.49-11.892-39.025-17.77-58.546-1.675-4.951 0.509-10.052 1.316-14.943 3.695-14.928 8.481-29.722 15.093-43.603 7.195 3.455 11.862 10.291 16.558 16.469 14.165 20.403 25.458 42.63 35.839 65.142-0.494 2.872-0.972 5.759-1.361 8.661-5.265-6.537-12.026-12.4-20.492-14.06-1.346 3.201-1.286 6.701-0.12 9.947 9.424 28.495 19.475 56.781 29.063 85.216 8.152 25.354 16.334 51.156 17.396 77.961 0.808 21.824-2.588 43.692-8.78 64.589-0.808 1.81-0.972 5.37-3.71 4.921 2.363 1.72 0.18 4.502-0.389 6.656-7.359 18.324-18.802 36.109-36.258 46.175-14.973 9.005-33.461 10.396-50.334 7.075-22.213-4.442-41.269-18.802-54.911-36.483-19.176-24.92-30.948-54.866-37.918-85.32-1.047 0.03-3.141 0.12-4.188 0.165-6.522 30.634-16.439 60.804-31.756 88.222-13.731 24.516-32.713 47.686-58.89 59.383 4.577 75.852 9.364 151.689 12.639 227.616 0.479 37.44-1.032 74.865-2.887 112.26-0.03 5.086-2.154 9.797-3.739 14.554-5.131 16.229-10.56 32.369-16.334 48.404-0.912 2.677-2.094 5.295-3.784 7.599-0.748-71.484-6.806-142.789-11.637-214.079-4.383-62.779-8.765-125.557-13.028-188.336-20.956-0.464-42.54-6.596-58.007-21.315-18.024-16.588-27.224-40.506-31.621-64.11-3.889-20.911-4.712-42.346-3.081-63.512 3.59-27.642 10.665-54.671 17.411-81.685 0.927-4.831 1.601-9.902 0.509-14.764-0.419-1.765-0.823-3.859-2.872-4.353-3.141-0.404-5.475 1.945-7.599 3.844-11.757 11.368-19.445 26.072-26.161 40.79-12.729 30.41-20.223 62.824-24.307 95.477-3.381 21.525-8.317 42.959-16.394 63.257-6.417 15.078-14.419 30.604-28.33 40.057-11.877 8.182-27.583 7.18-40.581 2.483-16.454-6.103-28.166-20.851-34.388-36.827-10.815-27.463-11.518-57.528-10.859-86.652 1.541-34.134 6.387-68.089 13.851-101.415 1.406-0.299 2.827-0.583 4.233-0.853-6.043 38.233-10.964 77.004-8.107 115.76 1.391 16.798 4.383 33.76 11.563 49.137 6.103 13.133 16.813 24.935 30.993 29.228 12.056 3.71 26.341 3.41 36.602-4.697 11.159-8.93 16.439-22.886 20.522-36.138 9.603-33.581 13.208-68.567 23.155-102.058 9.648-32.833 22.766-64.678 38.995-94.804 9.409-15.616 19.58-30.888 31.397-44.799 3.5-3.65 7.015-8.84 12.58-8.9 3.051 1.959 1.96 6.252 2.034 9.319-1.556 15.108-1.705 30.559-6.223 45.173-8.257 29.991-13.821 60.64-19.879 91.124-4.203 23.738-5.325 49.092 3.754 71.858 6.686 17.366 20.597 31.457 37.38 39.295 9.124 4.308 18.982 6.941 28.959 8.376-5.505-84.692-11.757-169.339-17.456-254.031-1.302-13.177-0.434-26.774-5.565-39.249z"/>
  <path d="m1564.213 100.344c4.233-7.03 8.272-14.793 15.496-19.221-10.501 21.031-21.211 42.421-25.937 65.636-1.84 10.037-2.468 22.257 5.774 29.781 4.786 2.333 10.306 3.725 15.526 1.885 9.543-2.139 14.001-12.071 17.725-20.118 1.032 3.231 1.72 6.581 0.613 9.902-3.396 13.971-7.913 28.6-18.129 39.175-11.503 12.325-34.703 5.235-39.085-10.56-3.844-14.33-0.329-29.348 3.889-43.199 6.134-18.549 14.63-36.244 24.128-53.281z"/>
  <path d="m711.743 144.245c9.065-20.463 18.114-40.94 27.373-61.313 17.905 41.194 32.474 83.825 43.393 127.397 1.286 8.81-1.316 17.665-1.002 26.52-6.252-11.099-13.432-21.644-19.984-32.564 1.69 19.984 4.757 39.863 6.611 59.847 12.535 118.033 23.559 236.231 32.967 354.564 10.785-7.808 19.012-19.012 23.634-31.472 6.028-14.031 12.535-27.986 21.345-40.521 3.306-4.502 7.673-10.276 14.076-8.885 3.62 0.209 5.34 4.099 5.699 7.255 1.601 11.114-6.806 20.702-5.37 31.726 0.389 9.05 7.464 16.813 15.87 19.55 14.539 5.25 30.335 2.902 45.248 0.793 6.731-1.481 15.137-2.752 18.413-9.738-3.5-11.219-7.389-22.317-11.802-33.207 6.297-16.05 13.492-31.756 20.059-47.716 1.69-3.769 2.827-7.928 5.609-11.099 4.772 18.249 5.968 37.186 7.898 55.883 1.989 30.23-2.857 61.612-17.935 88.207-8.122 13.612-20.253 25.982-36.079 29.916-13.791 3.306-28.944 1.795-41.449-5.086-14.479-8.242-24.411-22.721-29.572-38.322-7.838 18.009-18.144 35.032-31.262 49.675 1.526 23.364 3.231 46.714 4.398 70.093 0.867 26.072-5.819 51.62-13.552 76.301-3.754 10.605-7.449 21.27-12.086 31.531-41.224 67.371-95.716 127.053-161.097 171.613-42.795 29.392-90.137 52.188-139.842 67.161-25.982 7.539-52.547 13.687-79.576 15.661-27.897 0.389-56.212-3.216-82.284-13.447-24.471-9.543-45.846-26.924-59.563-49.391-48.195 4.981-96.673 7.718-145.137 7.838 43.229-15.496 86.023-32.234 128.1-50.663-11.233-54.791-1.945-111.287 12.101-164.657 8.601-32.354 19.7-63.99 32.16-95.043 8.197-22.766 16.334-46.101 30.26-66.069-8.167 17.052-16.678 34.029-23.409 51.695l0.374 0.957c0.179 0.254 0.553 0.778 0.748 1.032-0.449-0.12-1.361-0.374-1.81-0.494-2.857 5.564-5.295 11.353-6.926 17.396-11.368 36.393-18.608 74.087-21.016 112.155-2.378 41.852 0.628 85.799 20.133 123.673 51.859-24.247 102.342-51.5 150.747-82.074 41.045-26.296 80.698-54.986 116.732-87.878 17.082-15.796 33.685-32.279 47.716-50.887 4.143-4.876 2.124-11.832 0.778-17.381-3.126-9.319-6.671-18.488-10.276-27.612-24.531 9.932-50.663 16.738-77.273 16.618-14.509 0.419-29.437-2.348-41.942-9.992-10.725-6.611-18.682-17.471-21.913-29.647-4.472-15.975-2.528-32.833 0.15-48.943 4.248-23.319 12.834-46.639 29.153-64.289 11.458-12.325 26.625-21.809 43.438-24.292 19.012 0.09 36.916 9.364 50.483 22.242 17.276 16.379 29.063 37.619 38.128 59.413 16.917-9.857 33.177-21.524 45.771-36.677 12.355-12.849 25.07-25.967 40.85-34.598 3.934-2.259 10.725-4.757 13.342 0.523 2.857 7.838 0.135 16.454-1.78 24.247-5.086 11.368 1.062 24.292 8.661 32.982 10.575 11.936 27.956 13.088 42.69 10.411-15.437-158.629-31.128-317.244-46.579-475.873-0.314-5.322-2.617-10.183-4.592-15.045m-210.219 487.107c-7.569 3.261-17.037 8.092-18.159 17.202 1.78 6.926 9.917 9.065 16.035 10.545 19.67 3.814 40.117 3.74 59.772-0.12-0.359-0.703-1.107-2.094-1.481-2.797-10.246-11.607-23.305-21.599-38.831-24.531-5.699-0.853-11.757-2.483-17.336-0.299m128.803 64.798c2.034 32.324-2.498 65.007-12.684 95.716-3.934 10.665-7.21 21.958-14.629 30.843-36.483 48.763-83.48 88.596-133.006 123.568-44.126 30.739-90.72 58.007-139.423 80.788 8.317 4.054 17.052 7.314 26.132 9.244 24.322 5.4 49.436 2.498 73.803-1.017 76.286-11.428 148.114-44.724 209.98-90.227 41.015-30.17 78.38-65.307 110.988-104.422 10.904-13.821 24.322-27.328 26.984-45.517-2.603-30.858-6.043-61.642-8.915-92.485-16.962 6.806-37.963 8.406-53.355-2.962-18.683-14.105-25.788-38.173-28.734-60.4-16.111 21.645-35.063 41.27-57.141 56.871z"/>
  <path d="m1452.761 85.61c7.778 4.039 12.864 11.413 17.875 18.324 12.221 17.89 22.258 37.171 31.577 56.691 1.585 2.872 2.139 6.492 4.981 8.511-0.912 0.165-1.81 0.299-2.663 0.419-0.105 1.556-0.284 4.682-0.374 6.238-5.624-6.118-12.206-12.026-20.567-13.821-1.481 3.276-1.466 6.806-0.209 10.156 10.859 33.311 23.14 66.159 33.656 99.59 6.701 21.794 12.58 44.186 12.804 67.131 0.464 21.3-3.171 42.57-9.453 62.883-6.312 19.086-15.99 38.008-32.13 50.603-13.283 10.785-31.008 15.257-47.91 13.672-20.627-1.541-40.162-11.488-54.477-26.266-7.644-7.285-13.851-15.885-19.67-24.651l2.229-0.524c-0.613 0.075-1.825 0.224-2.438 0.299-12.924-21.779-22.512-45.547-28.046-70.273 0.494-3.201-5.609-2.932-4.996 0.254-7.883 36.064-20.463 71.634-41.284 102.357-12.161 17.65-27.896 33.401-47.417 42.72-21.27 10.037-46.325 10.695-68.717 4.263-22.497-6.492-40.327-24.262-49.99-45.203-14.001-30.006-16.14-63.975-14.599-96.599 3.007-26.356 9.588-52.129 16.02-77.811 2.169-7.898 4.099-16.394 1.301-24.411-0.897-0.464-2.677-1.391-3.56-1.855-3.007 1.959-6.103 3.889-8.451 6.641-16.484 18.189-25.847 41.434-33.326 64.484-5.654 18.563-10.067 37.515-13.028 56.706-3.934 30.335-9.962 61.029-23.918 88.521-7.569 14.614-18.937 29.796-36.064 33.147-15.87 2.124-32.833-2.857-44.455-14.046-14.24-13.313-20.477-32.668-24.232-51.276-5.983-33.401-4.128-67.64-0.374-101.176 2.513-20.672 6.103-41.194 10.575-61.522 1.466-0.135 2.947-0.239 4.457-0.329-5.923 34.269-10.007 69.061-8.975 103.898 0.927 19.849 3.261 40.072 11.323 58.441 5.475 12.58 14.763 24.292 27.672 29.707 12.191 4.966 27.238 5.863 38.651-1.541 11.802-7.748 17.336-21.584 21.719-34.403 8.631-28.375 12.445-57.887 19.221-86.711 7.105-29.258 17.321-57.723 29.856-85.096 7.18-15.96 15.093-31.651 25.249-45.951 9.02-12.729 17.306-26.7 30.11-36.049 0.957 0.045 2.842 0.15 3.799 0.194 2.348 9.588-0.419 19.52-0.838 29.228-0.793 16.035-6.626 31.098-9.977 46.639-4.158 17.77-7.718 35.69-11.278 53.594-5.505 25.638-9.424 52.682-2.498 78.47 5.235 20.223 19.191 38.068 38.038 47.282 12.251 6.447 25.997 9.723 39.788 10.216 19.385 1.96 39.654-0.374 56.99-9.708 20.896-10.889 35.69-30.634 45.278-51.725 9.379-21.076 14.734-43.902 16.289-66.892 0.209-45.667-2.962-92.216-18.578-135.519-1.989-5.983-4.592-12.191-3.455-18.608 2.468-17.606 8.347-34.553 15.242-50.872 0.434-1.87 2.677-2.004 4.024-2.962 7.374 22.033 14.539 44.216 19.012 67.057 5.639 29.692 8.885 59.772 12.221 89.778 2.648 21.42 3.425 43.169 8.795 64.17 4.457 17.426 11.398 34.478 22.302 48.913 13.253 18.413 33.147 32.085 55.27 37.305 18.937 4.398 39.16-1.256 55.09-11.832 8.376-5.714 17.067-15.347 14.285-26.251-26.52-69.764-48.329-141.203-70.003-212.568-1.436-5.893-4.173-11.533-4.622-17.591 2.813-18.875 9.424-36.974 16.873-54.46z"/>
  <path d="m1177.639 97.786c19.715 13.477 35.884 32.923 43.423 55.778 3.74 11.996 5.116 24.785 3.665 37.29-1.077 9.109-2.528 18.563-7.629 26.401-0.718-2.393-0.239-4.846 0.209-7.225 3.395-18.084 0.508-37.47-8.87-53.385-7.733-13.268-19.176-24.396-32.638-31.741 0.255-9.064 1.137-18.084 1.84-27.118z"/>
  <path d="m145.987 122.661c3.71-6.552 7.808-13.298 14.24-17.501-10.261 22.138-22.198 44.126-26.012 68.552-1.197 7.988-1.242 17.142 3.874 23.858 4.787 6.028 13.492 6.133 20.268 4.024 7.584-3.036 11.114-11.174 14.659-17.95 1.586 0.045 1.915 1.915 2.677 3.036-3.994 15.691-7.853 32.713-19.685 44.605-10.994 11.622-32.683 5.639-38.083-8.795-3.919-10.381-2.618-21.869-0.314-32.459 5.655-23.842 16.365-46.145 28.376-67.37z"/>
  <path d="m1878.062 116.633c2.872-5.011 7.314-11.189 13.896-10.321 6.985 1.571 13.821 5.325 18.114 11.189 2.184 3.665 3.994 9.259 0.12 12.49-2.034 1.989-3.485 5.355-5.998 6.357-3.515-4.592-6.238-12.789-13.343-12.55-8.9 3.276-13.821 12.295-16.484 20.866-5.519 17.68-6.641 36.318-8.376 54.627-1.765 1.825-4.143 2.842-6.267 4.143 0-18.563-4.308-38.442-17.605-52.158-6.402-0.793-14.016-1.556-17.605-7.763-4.368-7.913-7.509-17.68-4.487-26.595 6.776-1.331 12.266 3.754 16.873 7.973 12.176 11.174 20.043 25.967 27.149 40.671 3.004-16.695 6.025-33.777 14.013-48.929z"/>
  <path d="m958.879 126.341c4.024-9.798 14.569-18.024 25.563-16.14 5.49 1.182 9.334 6.013 11.293 11.024 3.844 10.321 4.413 21.569 3.066 32.429 6.746 8.077 14.075 16.259 16.902 26.73 5.235 13.776 0.553 28.48-3.904 41.778-5.699 17.591-16.529 33.566-18.548 52.263-0.703 4.622 1.077 9.663 5.804 11.263 7.599-2.244 8.78-11.278 10.336-17.86 2.378-0.568 6.103-0.823 6.925 2.184 1.301 8.317-2.348 16.319-5.295 23.903-2.662 5.759-6.357 12.565-13.193 13.851-5.46 1.002-9.633-3.784-11.817-8.167-6.223-12.625-4.263-27.598 0.942-40.207 8.107-20.089 18.817-40.312 17.83-62.599 0.03-9.468-3.949-18.503-10.306-25.399-9.498 25.653-24.86 48.778-42.555 69.48-9.154 11.368-22.302 18.309-34.852 25.234-11.233 5.819-22.631 11.548-34.598 15.751 23.035-16.573 45.128-34.688 64.245-55.733 15.766-17.695 30.275-37.649 36.124-60.984l-0.389-1.316c-8.526-5.505-18.772-10.366-23.215-20.089-1.884-5.535-1.644-11.757-0.358-17.396m8.541 2.812c-2.199 1.421-0.688 4.143 1.107 5.071 5.37 3.126 10.889 6.028 16.469 8.78-0.135-5.624 0.883-12.61-4.039-16.618-4.263-3.561-10.097-0.479-13.537 2.767z"/>
  <path d="m815.028 141.747c3.171 0.853 5.46 3.44 8.077 5.28 15.856 13.058 29.063 30.036 35.361 49.765 5.893 17.86 5.534 37.47 0.284 55.434-0.718 3.111-2.692 5.624-4.428 8.227-0.135-0.329-0.404-1.002-0.553-1.331 3.829-16.603 3.261-34.478-3.425-50.274-7.225-17.306-20.762-31.636-37.096-40.656 0.419-8.824 1.107-17.649 1.78-26.445z"/>
  <path d="m576.658 158.605 1.182 1.182c-2.603 3.306-1.271 7.673-0.853 11.473 1.421 8.182 3.455 16.289 6.267 24.112 0.927 3.5 4.562 5.175 7.658 6.342 2.707 0.568 7.09 1.9 8.212-1.72-1.855-8.481-6.312-16.05-9.065-24.187 1.301-4.697 1.915-9.738 4.143-14.09 1.496 0.03 3.022 0.09 4.547 0.194 1.496 9.124 6.238 17.157 9.648 25.578-0.194 8.661-0.464 17.65-3.725 25.788-2.034 5.505-8.511 6.97-13.716 6.896-7.614-1.077-12.61-7.509-17.112-13.103-2.902 8.167-10.321 14.554-18.967 15.676-7.27 0.374-13.432-5.49-15.347-12.176-2.528-8.84-2.244-18.339-0.194-27.239 1.601-6.223 4.727-12.954 11.159-15.347-5.071 8.571-6.327 19.116-3.485 28.674 1.107 3.949 3.156 8.9 7.823 9.468 5.175 0.09 9.02-3.859 12.714-6.926 0.957-9.783-0.195-19.655 1.017-29.422 1.871-4.203 5.611-7.314 8.094-11.173z"/>
  <path d="m1871.076 218.826c28.764-12.445 57.528-25.01 86.951-35.78-0.898 6.686-3.321 14.315-9.828 17.501-41.777 17.83-83.72 35.361-124.615 55.165-8.122 4.487-16.469 9.094-22.796 16.005 4.517 4.981 11.278 6.851 17.381 9.094-0.075 4.831-0.06 9.663-0.06 14.509-8.646-2.094-17.306-5.25-24.008-11.278 0.389-6.866 0.269-13.776 1.212-20.597 0.972-6.193 7.299-9.109 11.876-12.475 20.27-12.624 42.213-22.242 63.887-32.144z"/>
  <path d="m1209.635 238.002c4.502-5.579 8.526-11.996 14.509-16.065-3.949 5.998-2.289 13.402-1.346 20.014 2.214 12.34 5.505 24.486 9.394 36.408 1.227 4.981 6.357 7.105 10.59 9.02 3.829 1.436 8.436 2.767 12.325 0.853 2.453-2.154 1.301-5.834 0.434-8.496-3.74-10.441-7.569-20.911-12.834-30.694 1.212-4.622 2.034-9.394 4.054-13.761 0.404-0.075 1.226-0.224 1.645-0.299-0.494-0.957-0.957-1.915-1.406-2.857 0.583-1.945 1.152-3.904 1.75-5.849 2.633 0.209 5.265 0.389 7.943 0.553 1.212 14.016 8.915 26.251 14.464 38.831-0.194 10.725-0.972 21.539-3.291 32.04-1.316 6.193-4.173 12.729-10.022 15.841-6.716 2.663-14.719 3.904-21.285 0.209-7.614-4.368-13.702-11.024-18.473-18.294-3.829 11.144-13.028 19.969-24.202 23.604-7.688 2.887-16.828-0.194-22.078-6.282-6.686-6.94-8.481-16.992-9.124-26.251-0.524-11.907 0.434-24.187 5.086-35.271 2.663-6.432 7.419-12.101 13.717-15.227-6.178 12.266-9.349 26.535-5.893 40.087 1.526 7.105 4.069 16.17 11.981 18.398 8.541 1.092 15.332-5.4 20.837-11.024 1.03-15.138 0.387-30.366 1.225-45.488z"/>
  <path d="m568.057 257.238c19.879 12.879 35.705 32.474 43.273 55.015 6.148 18.219 5.714 38.263 0.239 56.586-0.733 2.977-2.977 5.205-4.981 7.389 4.039-17.291 3.605-36.034-3.635-52.443-7.374-16.947-20.896-30.918-36.916-39.953 0.868-8.854 1.302-17.739 2.02-26.594z"/>
  <path d="m1888.039 361.525c4.173-5.101 8.242-10.291 12.819-15.033-4.353 10.171-1.032 21.225 1.032 31.531 2.348 9.438 4.607 18.967 8.167 28.031 4.443 5.819 12.236 8.78 19.415 8.556 3.336-0.015 4.921-3.919 3.769-6.716-3.515-11.368-8.077-22.407-13.268-33.102 1.002-7.853 3.919-15.407 5.968-23.065 2.483 0.224 5.011 0.434 7.554 0.688 1.66 13.926 8.945 26.266 14.659 38.771-0.239 10.067-0.942 20.193-2.887 30.095-1.466 6.896-4.024 14.883-10.994 17.994-5.938 2.304-12.894 3.59-18.892 0.808-8.81-3.904-15.063-11.592-20.478-19.281-3.425 10.874-12.131 19.49-22.811 23.305-8.78 4.039-19.46-0.194-25.025-7.584-6.387-8.721-7.509-19.954-7.614-30.439 0.359-10.067 1.152-20.433 5.489-29.677 2.812-6.208 7.165-12.31 13.851-14.629-8.915 14.734-9.902 33.626-3.321 49.451 1.9 4.487 5.804 8.825 11.009 8.975 7.913-0.404 14.061-6.103 19.296-11.503-0.12-12.849 0.449-25.668 0.464-38.517 0.377-2.9-0.506-6.386 1.798-8.659z"/>
  <path d="m2473.404 349.663c24.292 16.349 44.321 39.684 55.165 67.012 10.68 26.491 10.591 56.556 1.99 83.615-1.167 3.126-3.665 5.475-5.759 7.988 3.74-18.368 5.026-37.649-0.179-55.868-7.359-28.869-28.405-52.847-53.998-67.356 1.27-11.772 1.555-23.619 2.781-35.391z"/>
  <path d="m868.293 415.733c16.663-10.276 32.997-21.136 49.87-31.068-1.66 10.605-5.101 22.886-15.407 28.166-36.857 22.557-73.309 45.786-110.3 68.104 4.128-8.451 8.197-16.992 12.744-25.219 20.852-13.583 42.092-26.626 63.093-39.983z"/>
  <path d="m1578.02 450.674c5.041-2.917 12.43-2.707 15.84 2.618 4.697 7.09 5.953 16.364 3.411 24.501-4.802 16.14-15.407 29.856-26.969 41.793-14.06 13.731-30.888 26.386-50.782 29.482 3.336-4.128 8.212-6.417 12.505-9.379 12.325-8.302 24.187-17.456 34.538-28.151 5.43-6.282 11.308-13.073 12.281-21.674 0.374-7.21-6.163-13.372-12.834-14.569-9.723 1.72-15.781 10.126-22.931 16.035-1.705-5.22 2.857-8.885 5.549-12.714 8.57-10.411 17.201-21.584 29.392-27.942z"/>
  <path d="m1852.947 577.877c54.492-33.745 108.685-67.954 163.251-101.565-1.541 10.486-4.547 21.973-13.163 28.884-52.832 32.952-105.962 65.456-158.779 98.468 2.259-8.795 5.819-17.186 8.691-25.787z"/>
  <path d="m1123.118 498.196c7.943 6.626 12.774 16.155 18.144 24.845 13.746 24.187 25.459 49.466 36.797 74.85 24.875 54.492 41.239 112.664 50.244 171.822 2.543 18.339 5.146 36.782 4.622 55.359 1.511 36.871 5.893 74.566 21.285 108.505 2.962 6.746 7.06 12.909 10.889 19.191-0.18 0.853-0.524 2.543-0.703 3.396 0.793-0.688 1.6-1.376 2.393-2.064 10.007 13.477 21.136 26.161 33.087 37.948 3.037 3.261 9.184 6.058 12.176 1.032 0.568 0.105 1.72 0.329 2.289 0.449-0.389-0.359-1.167-1.062-1.556-1.421 2.498-7.599-0.075-15.721 2.318-23.319 3.41-12.475 11.219-23.095 19.52-32.773 9.289-10.171 19.804-19.505 32.219-25.653 24.86-12.61 50.633-23.334 76.66-33.267 19.595-7.27 39.519-13.717 59.892-18.398-87.444 0.613-174.889 1.331-262.333 2.333 4.368-21.24 8.81-42.466 13.313-63.676 9.274-12.176 20.941-22.183 32.459-32.13 50.139-41.374 108.026-71.993 166.647-99.411-6.866-10.755-16.409-20.777-17.92-33.985-3.545-18.548 4.158-36.886 13.851-52.323 5.744-8.765 11.114-18.339 19.954-24.367 8.87-6.148 20.866-6.537 30.574-2.184 6.193 2.812 12.52 5.34 18.488 8.661 0.12 0.658 0.344 1.989 0.464 2.648 0.329-0.389 0.972-1.182 1.301-1.571 25.892 14.464 49.092 33.281 70.572 53.624 2.483 2.513 5.669 4.682 7.225 7.958-5.834 18.892-11.996 37.709-17.65 56.676-25.847 5.774-51.829 11.293-77.019 19.595 2.558 15.96 7.12 33.371 0.269 48.838-2.393-0.329-5.639-0.748-6.043-3.68-0.972-13.417-7.434-25.623-14.075-37.051-32.145 12.655-64.215 25.743-94.519 42.391-24.427 13.567-49.197 28.285-67.296 49.99 134.442 0.045 268.9 0.045 403.357 0-8.616 18.937-17.83 37.619-26.61 56.481-88.028 21.45-175.891 44.38-261.286 74.865-35.839 13.133-71.649 27.583-103.434 49.002-3.291 2.513-5.191 7.15-2.797 10.919 4.936 7.584 13.941 10.71 21.495 15.033 16.424 9.094 34.628 14.045 52.517 19.356 12.819 3.784 25.638 7.554 38.442 11.383-1.062 22.691-1.241 45.442-2.618 68.104-10.486 0-21.181-1.855-31.726-2.782-20.657-2.453-41.628-4.099-61.552-10.441-27.134-8.586-51.575-24.89-70.721-45.861-21.016-22.616-36.213-50.064-47.103-78.828-14.868-39.863-22.347-82.209-25.219-124.555-1.316-0.179-2.603-0.329-3.874-0.464-3.724 18.668-7.943 37.335-14.18 55.345-1.182 4.278-4.323 7.539-7.09 10.859-20.014 23.245-41.359 45.338-63.676 66.354-22.841 21.285-46.654 41.658-72.382 59.398-27.059 18.563-56.332 35.256-88.701 42.271-17.396 3.605-37.171 4.293-52.413-6.237-17.022-11.637-25.324-31.86-29.811-51.246-15.511 11.772-31.143 23.379-47.118 34.523-14.419 9.678-28.779 19.909-45.293 25.743-41.284 15.332-84.243 25.384-126.978 35.75-30.649 6.941-61.313 13.896-92.171 19.834 28.585-16.229 57.618-31.726 86.083-48.18 77.228-44.186 153.304-90.615 225.925-142.071 9.902-47.432 25.892-95.148 56.87-133.216 0.389-0.105 1.182-0.329 1.571-0.434-2.468 5.25-3.65 11.009-6.193 16.229-18.668 32.698-31.935 68.837-36.632 106.276 33.057-24.038 65.322-49.242 95.686-76.645 18.757-16.813 36.378-34.882 52.473-54.267 4.427-5.49 10.441-10.201 12.116-17.411 2.333-8.197-1.167-16.349-4.861-23.514 0.374-0.942 0.748-1.87 1.137-2.782-1.571-0.434-2.588-1.361-3.066-2.767-19.49-50.184-39.205-100.293-58.665-150.492 6.058-23.05 11.667-46.22 17.785-69.255 8.152 5.37 13.462 13.806 19.266 21.435 11.847 17.396 22.99 35.286 32.997 53.819 5.594 10.186 6.656 22.018 8.706 33.267-8.032-7.225-13.627-17.022-22.542-23.2 0.389 1.645 0.927 3.246 1.63 4.816 14.105 27.837 23.753 57.828 30.006 88.372 3.859 18.144 5.534 36.752 4.458 55.3-0.808 20.104-3.545 40.701-12.774 58.845-8.197 16.11-19.221 30.544-30.739 44.395-39.04 45.816-84.797 85.305-131.271 123.329 0.06 2.214 2.573 2.812 4.069 4.024 16.633 10.381 37.44 9.334 56.018 6.103 14.001-3.246 28.42-5.714 41.239-12.565 33.641-17.606 62.973-42.152 91.288-67.161 37.126-33.79 72.098-69.914 105.454-107.398-11.144-39.549-22.721-78.963-34.508-118.318-6.402-20.552-12.355-41.284-20.014-61.403-12.699-26.535-24.905-53.385-35.974-80.623 4.47-20.808 10.094-41.39 14.866-62.152m338.364 107.024c-4.069 1.615-7.479 6.103-5.774 10.605 0.628 3.41 4.353 4.592 6.312 7.12 8.152 9.468 15.87 19.326 22.961 29.632 17.695-6.432 35.66-12.011 53.52-17.92-13.297-12.699-28.061-24.785-45.801-30.529-10.097-3.425-21.391-3.006-31.218 1.092z"/>
  <path d="m217.113 509.639c12.176-2.633 23.26 4.981 31.92 12.625 11.592 11.323 21.255 24.815 27.373 39.878 1.855 4.547 2.677 9.513 1.989 14.405-0.883 6.492-1.391 13.612-5.52 19.012-4.846 4.472-12.49 3.5-17.635 0.06-5.116-3.38-10.456-6.417-16.02-8.99-8.347 22.093-25.399 39.564-43.991 53.505-14.599 11.039-30.514 20.313-46.968 28.286-11.787 4.472-23.843 8.317-36.079 11.368-4.876 1.331-9.947 1.197-14.943 1.062 2.932-0.688 6.058-0.912 8.735-2.423 26.775-15.122 52.891-31.531 77.228-50.349 16.439-13.238 32.758-27.253 44.425-45.038-5.669-1.286-11.368-2.498-17.157-3.051-4.562-13.298-4.697-29.482 4.921-40.641-4.637-4.054-5.31-10.725-6.148-16.439-0.881-5.537 1.946-12.103 7.87-13.27m22.736 33.102c2.154 9.917 2.363 20.104 2.767 30.2 8.107 0.912 16.274 4.757 24.441 2.752 3.784-2.124 1.122-6.985-0.853-9.468-7.463-9.169-16.917-16.484-26.355-23.484m-19.909 4.263c-2.663 3.949-5.759 8.496-5.34 13.477 4.712 5.923 12.669 8.391 19.864 9.693 0.703-2.842 1.541-5.624 2.094-8.481 1.974-5.804-2.513-11.009-6.103-15.048-2.677-3.246-8.197-3.351-10.515 0.359z"/>
  <path d="m1287.222 540.916c4.173-6.043 8.885-11.832 14.165-16.977-3.889 8.825-1.571 18.458 0.239 27.478 2.049 9.872 4.816 19.565 7.913 29.168 2.169 7.24 10.471 9.783 17.112 11.204 3.979 1.271 8.855-1.69 7.314-6.238-3.665-11.727-8.347-23.11-13.702-34.149 1.9-7.404 4.054-14.734 5.878-22.153 2.513 0 5.056 0.03 7.614 0.06 2.199 13.716 8.735 26.161 14.749 38.487 0.015 13.328-0.778 27.224-5.505 39.863-3.156 8.96-13.716 11.742-22.242 11.024-11.323-2.184-18.832-11.951-25.474-20.537-3.306 11.263-12.654 19.999-23.723 23.529-9.364 3.44-20.163-1.556-25.189-9.812-5.505-9.154-6.552-20.208-6.297-30.679 0.494-14.973 3.396-32.429 16.828-41.419 0.942 0 2.827 0.015 3.77 0.015-0.598 0.269-1.825 0.793-2.423 1.062-8.167 14.943-8.676 33.715-1.421 49.107 2.109 4.861 7.449 8.362 12.849 7.225 6.731-1.63 12.056-6.417 16.648-11.353 0.164-14.974 0.104-29.962 0.897-44.905z"/>
  <path d="m151.731 720.83c54.238-34.059 108.7-67.804 163.042-101.684-1.556 11.832-5.609 25.518-17.007 31.442-50.304 31.187-100.727 62.195-150.956 93.487-1.301 0.688-2.663 1.256-4.084 1.69 3.202-8.241 5.64-16.782 9.005-24.935z"/>
  <path d="m1660.333 653.25c4.532-5.864 12.206-8.721 19.445-8.945 5.026-0.045 7.464 5.355 8.616 9.468 2.184 9.708 2.573 20.268-2.154 29.318 2.453 1.78 4.921 3.59 7.434 5.355-0.658 6.208-1.122 12.46-1.242 18.712-4.996-2.677-8.84-6.94-13.118-10.53-13.313 22.961-32.773 42.87-57.02 54.118-12.819 6.462-27.493 9.289-41.763 7.509 27.029-9.663 53.28-23.604 72.89-44.994 6.746-7.329 12.55-15.437 17.456-24.112-3.799-4.054-8.347-7.524-11.308-12.266-2.362-7.583-4.097-16.647 0.764-23.633m7.419 7.479c1.96 5.549 5.714 10.127 9.618 14.434 1.645-4.802 3.799-10.022 1.391-14.958-3.694-0.717-7.404-0.313-11.009 0.524z"/>
  <path d="m2166.556 667.101c9.125-3.141 18.728 0.987 26.191 6.252 12.46 9.214 22.183 21.734 29.692 35.181 4.009 7.793 8.586 16.334 6.97 25.399-0.957 6.103-1.436 12.654-5.086 17.86-4.039 4.996-11.622 4.487-16.708 1.511-5.804-3.291-11.338-7.045-17.411-9.827-8.212 22.317-25.518 39.893-44.276 53.834-12.699 9.723-26.625 17.71-40.73 25.174-8.706 4.697-18.339 7.21-27.672 10.261-9.319 2.648-18.802 6.133-28.645 5.161 6.208-0.359 11.114-4.383 16.349-7.255 27.283-15.87 54.013-32.938 78.29-53.176 12.894-11.159 26.072-22.781 34.762-37.649-5.609-1.212-11.234-2.259-16.903-3.022-4.562-13.268-4.607-29.497 5.235-40.476-4.906-3.769-5.475-10.605-6.297-16.289-0.701-4.951 0.959-11.233 6.239-12.939m24.472 32.863c1.855 9.827 2.408 19.849 2.558 29.841 7.688 1.107 15.332 4.158 23.17 3.276 3.994-0.583 3.844-5.834 1.63-8.332-7.285-10.036-17.396-17.59-27.358-24.785m-26.042 16.035c3.934 7.285 12.849 9.139 20.134 11.473 1.496-4.697 3.425-9.618 2.692-14.599-2.633-5.146-6.208-11.877-12.819-11.847-5.714 2.932-7.973 9.334-10.007 14.973z"/>
  <path d="m912.36 713.052c3.051-5.804 9.035-12.684 16.379-9.783 8.825 2.663 19.326 9.663 17.92 20.163-2.363 3.575-5.4 6.641-8.077 9.977-2.857-5.415-6.058-12.34-12.759-13.492-8.72 2.857-13.941 11.607-16.693 19.939-5.789 18.204-7.075 37.425-8.691 56.347-2.109 1.122-4.218 2.229-6.372 3.246 0.06-17.411-3.725-35.899-15.407-49.391-2.648-4.473-8.526-2.229-12.505-4.383-7.419-2.662-10.112-10.755-11.907-17.68-0.897-4.682-2.498-10.306 0.628-14.479 6.567-1.885 11.712 3.874 16.394 7.509 12.056 11.458 20.388 26.206 27.209 41.224 2.871-16.768 5.908-33.969 13.881-49.197z"/>
  <path d="m150.146 807.736c4.951-8.825 9.603-18.443 18.264-24.277-10.515 21.225-21.45 42.735-26.042 66.174-1.526 8.96-2.289 19.311 3.5 27.014 4.502 4.831 11.727 5.714 17.89 4.218 9.349-2.064 13.702-11.847 17.561-19.61 2.962 5.789-0.105 12.041-1.466 17.815-3.874 12.221-8.496 25.458-19.191 33.401-8.212 6.282-19.984 3.769-27.882-1.765-10.411-8.137-10.65-22.901-8.825-34.852 4.113-24.186 14.748-46.638 26.191-68.118z"/>
  <path d="m1700.929 955.297c0.524-0.538 1.212-0.748 2.064-0.613-3.111 3.56-4.817 8.047-7.21 12.086-6.806 12.864-14.674 26.521-12.864 41.658 0.194 7.105 4.188 16.289 12.49 16.229 4.054-2.019 5.101-7.195 7.135-10.919-0.254 11.084-1.885 24.546-12.295 30.888-8.646-1.391-15.137-9.064-15.481-17.725-1.765-26.192 9.199-52.024 26.161-71.604z"/>
  <path d="m1177.011 959.171c8.003-3.919 19.042-3.351 25.354 3.47 5.28 6.252 5.849 14.853 5.46 22.676-4.233 5.639-9.109 10.83-12.655 16.977-7.419 1.376-15.212 0.165-22.467 2.348-3.65 2.124-8.421 3.41-10.172 7.688-2.289 5.52-1.226 11.652-0.254 17.366 3.769 19.954 10.74 39.564 10.381 60.116-0.404 7.21-0.882 14.689-4.293 21.21-0.793-11.428-4.816-22.228-7.733-33.222-5.505-20.029-9.872-40.581-10.516-61.402-0.718-8.018 3.889-14.913 8.541-20.956 6.866-9.603 19.176-12.415 30.11-14.494-2.842-2.618-6.058-5.639-10.261-5.056-5.879 0.853-9.857 5.774-13.088 10.306-0.583-10.005 2.155-21.822 11.593-27.027z"/>
  <path d="m1538.291 976.776c8.047-6.806 19.221-7.464 29.288-7.449 10.112 0.703 20.807 1.152 29.722 6.552 4.218 4.906 0.209 10.71-4.113 13.791-17.531 12.654-36.842 23.634-51.067 40.252-3.859 4.293-1.855 10.979 3.022 13.492 7.374 3.695 15.915 3.874 24.022 3.665 19.251-1.047 37.739-8.331 53.849-18.712 4.487-2.857 8.511-6.417 13.148-9.065-9.932 12.041-21.091 23.095-33.401 32.698-10.381 7.793-22.078 14.554-35.062 16.588-10.216 0.868-21.21 0.374-30.036-5.4-9.828-5.819-14.434-18.847-10.8-29.602 2.199-6.043 6.267-11.159 10.545-15.87 11.039-11.697 24.531-20.642 37.993-29.273-9.124-0.434-18.368-0.927-27.433 0.179-5.923 0.598-9.902 5.041-14.105 8.646-1.271-7.014-1.301-15.331 4.428-20.492z"/>
  <path d="m2033.625 989.491c12.52 8.481 23.559 19.266 31.816 31.98 0.703 0.03 2.079 0.09 2.782 0.135-0.419 0.314-1.256 0.957-1.675 1.286 15.257 23.499 19.191 53.968 9.723 80.399-0.823 2.169-2.558 3.784-4.039 5.52 2.932-14.629 3.799-30.125-0.793-44.5-6.297-20.881-21.928-38.263-40.955-48.524l1.376-0.15c0.314-8.75 1.256-17.441 1.765-26.146z"/>
  <path d="m2220.584 1090.532c60.041-29.063 119.873-58.546 179.929-87.549-3.171 10.725-7.329 22.99-17.994 28.405-55.36 26.7-110.614 53.624-165.959 80.309-3.65 1.84-7.27 3.844-11.249 4.817 3.65-7.344 7.09-14.778 10.605-22.168 0.749-2.064 2.858-2.887 4.668-3.814z"/>
 </g>
</svg>
