<?xml version="1.0" encoding="UTF-8" standalone="no"?>
<svg
   xmlns:dc="http://purl.org/dc/elements/1.1/"
   xmlns:cc="http://creativecommons.org/ns#"
   xmlns:rdf="http://www.w3.org/1999/02/22-rdf-syntax-ns#"
   xmlns:svg="http://www.w3.org/2000/svg"
   xmlns="http://www.w3.org/2000/svg"
   xmlns:sodipodi="http://sodipodi.sourceforge.net/DTD/sodipodi-0.dtd"
   xmlns:inkscape="http://www.inkscape.org/namespaces/inkscape"
   height="600"
   width="1200"
   version="1.1"
   id="svg1208"
   sodipodi:docname="Flag_of_Zimbabwe_Rhodesia.svg"
   inkscape:version="1.0.1 (3bc2e813f5, 2020-09-07)">
  <metadata
     id="metadata1214">
    <rdf:RDF>
      <cc:Work
         rdf:about="">
        <dc:format>image/svg+xml</dc:format>
        <dc:type
           rdf:resource="http://purl.org/dc/dcmitype/StillImage" />
      </cc:Work>
    </rdf:RDF>
  </metadata>
  <defs
     id="defs1212" />
  <sodipodi:namedview
     pagecolor="#ffffff"
     bordercolor="#666666"
     borderopacity="1"
     objecttolerance="10"
     gridtolerance="10"
     guidetolerance="10"
     inkscape:pageopacity="0"
     inkscape:pageshadow="2"
     inkscape:window-width="1920"
     inkscape:window-height="1018"
     id="namedview1210"
     showgrid="false"
     inkscape:zoom="1"
     inkscape:cx="620.61414"
     inkscape:cy="300"
     inkscape:window-x="-8"
     inkscape:window-y="-8"
     inkscape:window-maximized="1"
     inkscape:current-layer="svg1208" />
  <path
     d="M0 0h1200v600H0z"
     fill="#fff"
     id="path1190"
     style="stroke-width:0;stroke-miterlimit:4;stroke-dasharray:none" />
  <path
     d="M0 0h300v600H0z"
     id="path1192"
     style="stroke-width:0;stroke-miterlimit:4;stroke-dasharray:none" />
  <path
     d="M330 400h870v200H330z"
     fill="#0f4b32"
     id="path1194"
     style="stroke-width:0;stroke-miterlimit:4;stroke-dasharray:none" />
  <path
     d="M330 0h870v200H330z"
     fill="#cd1428"
     id="path1196"
     style="stroke-width:0;stroke-miterlimit:4;stroke-dasharray:none" />
  <path
     d="m 132.79433,183.78777 c -5.13394,0 -8.79932,3.89409 -8.79932,9.38213 0,8.55055 9.34702,12.6904 15.00258,6.64563 5.65556,-6.04476 1.79658,-16.02877 -6.20326,-16.02877 z m -0.0321,2.20184 c 3.79378,-0.15047 7.04688,2.88194 7.04688,7.2796 0,5.14898 -5.79398,8.73713 -10.26186,6.34469 -4.77784,-2.55894 -4.42273,-10.78749 0.55171,-12.99033 a 7.3147115,7.3147115 0 0 1 2.66327,-0.63597 z m 34.78199,-1.13453 c -5.13293,0 -8.79931,3.8951 -8.79931,9.38414 0,8.54954 9.34702,12.68939 15.00258,6.64463 5.65555,-6.04477 1.79658,-16.02877 -6.20227,-16.02877 z m -0.0321,2.20284 c 3.79379,-0.15046 7.04688,2.88195 7.04688,7.2796 0,5.14899 -5.79398,8.73714 -10.26186,6.3447 -4.77783,-2.56295 -4.42273,-10.78749 0.55172,-12.99033 a 7.3127052,7.3127052 0 0 1 2.66326,-0.63698 z"
     id="path1206"
     style="stroke-width:2;stroke-miterlimit:4;stroke-dasharray:none;stroke-linejoin:round" />
  <path
     d="m 98.902481,154.87687 c -1.824224,1.83527 -3.674429,3.64488 -5.550313,5.42782 -5.464859,5.34498 -8.712071,12.55513 -9.093474,20.18954 -0.355384,0.75601 -0.887596,1.41456 -1.551648,1.92007 -0.810587,0.6173 -1.362872,1.51135 -1.552621,2.51134 -0.294043,1.55652 -0.166658,3.16339 0.370029,4.65363 0.33818,0.94022 1.200136,1.59224 2.197523,1.66049 4.747199,14.35365 8.410904,29.04422 10.95701,43.94661 28.760613,-6.91253 58.777543,-6.66758 87.421203,0.71281 -1.02599,-27.06895 6.50547,-53.77208 21.52384,-76.31639 l 11.88746,3.33008 c 1.27258,0.35639 2.61889,-0.24294 3.20563,-1.42854 0.58581,-1.18419 0.24598,-2.61822 -0.8096,-3.41386 L 134.28649,95.034674 c -1.73231,-1.304721 -3.93337,-1.822258 -6.06623,-1.425577 l -4.48955,-30.092965 c -0.81413,-5.459331 -4.73906,-9.9424 -10.04376,-11.471287 -4.11368,-1.186143 -8.45314,-1.36551 -12.65162,-0.522091 -1.750783,0.351892 -3.36675,1.192653 -4.659795,2.424949 -0.871386,0.830669 -2.044478,1.267043 -3.24624,1.209856 -1.487297,-0.07192 -2.977554,-0.06359 -4.463869,0.02578 -2.118257,0.12549 -4.081523,1.154957 -5.389183,2.826486 -1.307641,1.672182 -1.834607,3.824525 -1.44606,5.911244 6.061681,-1.749813 12.542132,-1.336239 18.333147,1.168609 0.26515,0.115247 0.396,0.416543 0.29923,0.689691 -0.0967,0.272576 -0.38855,0.422974 -0.66769,0.3447 -3.20199,-0.904448 -6.542432,-1.220278 -9.857555,-0.932104 -0.758937,2.495759 0.568224,5.148757 3.020458,6.037636 1.622769,0.588378 3.255648,1.149429 4.897596,1.682565 1.575693,0.512059 2.617281,2.009409 2.550021,3.66534 -0.58929,14.355272 -0.658548,28.727484 -0.20736,43.088284 -4.861551,9.56588 -5.040878,20.83865 -0.485032,30.55364 0.734892,1.56853 0.411642,3.42948 -0.810607,4.65817 z"
     style="fill:#ffcc00;fill-opacity:1;fill-rule:evenodd;stroke:#000000;stroke-width:2;stroke-linecap:round;stroke-linejoin:round;stroke-miterlimit:4;stroke-dasharray:none;stroke-opacity:1"
     id="path14" />
  <path
     d="m 122.28204,120.29954 c -3.2433,1.90544 -5.0347,5.56332 -4.55128,9.29395 0.4844,3.73095 3.14976,6.81116 6.77187,7.82612"
     style="fill:none;stroke:#000000;stroke-width:2;stroke-linecap:round;stroke-linejoin:round;stroke-miterlimit:4;stroke-dasharray:none;stroke-opacity:1"
     id="path676" />
  <path
     d="m 186.44225,197.50641 c -28.8766,-3.50939 -58.09594,-3.0841 -86.8572,1.26447"
     style="fill:none;stroke:#000000;stroke-width:2;stroke-linecap:butt;stroke-linejoin:round;stroke-miterlimit:4;stroke-dasharray:none;stroke-opacity:1"
     id="path678" />
  <path
     d="m 182.57613,218.92465 c -25.90748,-4.39271 -52.34551,-4.67017 -78.33973,-0.82063"
     style="fill:none;stroke:#000000;stroke-width:2;stroke-linecap:butt;stroke-linejoin:round;stroke-miterlimit:4;stroke-dasharray:none;stroke-opacity:1"
     id="path680" />
  <path
     d="m 106.92093,232.68803 c -1.94411,-12.13439 -4.58444,-24.14598 -7.907996,-35.97724"
     style="fill:none;stroke:#000000;stroke-width:2;stroke-linecap:round;stroke-linejoin:round;stroke-miterlimit:4;stroke-dasharray:none;stroke-opacity:1"
     id="path682" />
  <path
     d="m 104.74224,57.809874 c -1.11173,0.816145 -1.56007,2.262816 -1.1033,3.563976 0.4568,1.301471 1.7102,2.150417 3.08769,2.092578 1.37784,-0.05798 2.55553,-1.009424 2.90188,-2.344671 0.34533,-1.334633 -0.22296,-2.739104 -1.39897,-3.458076"
     style="fill:none;stroke:#000000;stroke-width:2;stroke-linecap:round;stroke-linejoin:round;stroke-miterlimit:4;stroke-dasharray:none;stroke-opacity:1"
     id="path684" />
  <path
     d="m 102.19387,116.23754 c -0.7303,1.10297 -1.39604,2.24786 -1.99576,3.4275"
     style="fill:none;stroke:#000000;stroke-width:2;stroke-linecap:round;stroke-linejoin:round;stroke-miterlimit:4;stroke-dasharray:none;stroke-opacity:1"
     id="path686" />
  <path
     d="m 128.22026,93.609097 c -10.57039,5.037652 -19.5687,12.859853 -26.02639,22.628443"
     style="fill:none;stroke:#000000;stroke-width:2;stroke-linecap:round;stroke-linejoin:round;stroke-miterlimit:4;stroke-dasharray:none;stroke-opacity:1"
     id="path688" />
  <path
     d="m 140.96965,183.05821 c 0,-4.38007 -3.55128,-7.93104 -7.93106,-7.93104 -4.38008,0 -7.93104,3.55097 -7.93104,7.93104 0,4.38073 3.55096,7.93104 7.93104,7.93104 4.37978,0 7.93106,-3.55031 7.93106,-7.93104 z"
     style="fill:none;stroke:#000000;stroke-width:2;stroke-linecap:round;stroke-linejoin:round;stroke-miterlimit:4;stroke-dasharray:none;stroke-opacity:1"
     id="path690" />
  <path
     d="m 175.30266,184.19172 c 0,-4.38073 -3.55002,-7.93103 -7.93106,-7.93103 -4.37973,0 -7.93105,3.5503 -7.93105,7.93103 0,4.38008 3.55132,7.93108 7.93105,7.93108 4.38104,0 7.93106,-3.551 7.93106,-7.93108 z"
     style="fill:none;stroke:#000000;stroke-width:2;stroke-linecap:round;stroke-linejoin:round;stroke-miterlimit:4;stroke-dasharray:none;stroke-opacity:1"
     id="path692" />
  <path
     d="m 194.25084,176.20089 c -20.55896,-4.75466 -41.5698,-7.28453 -62.66999,-7.548"
     style="fill:none;stroke:#000000;stroke-width:2;stroke-linecap:round;stroke-linejoin:round;stroke-miterlimit:4;stroke-dasharray:none;stroke-opacity:1"
     id="path694" />
  <path
     d="m 104.2364,218.10402 8.48466,-8.10421"
     style="fill:none;stroke:#000000;stroke-width:2;stroke-linecap:butt;stroke-linejoin:round;stroke-miterlimit:4;stroke-dasharray:none;stroke-opacity:1"
     id="path696" />
  <path
     d="m 112.72106,209.99981 6.87484,6.31411"
     style="fill:none;stroke:#000000;stroke-width:2;stroke-linecap:butt;stroke-linejoin:round;stroke-miterlimit:4;stroke-dasharray:none;stroke-opacity:1"
     id="path698" />
  <path
     d="m 119.5959,216.31392 7.25139,-7.94308"
     style="fill:none;stroke:#000000;stroke-width:2;stroke-linecap:butt;stroke-linejoin:round;stroke-miterlimit:4;stroke-dasharray:none;stroke-opacity:1"
     id="path700" />
  <path
     d="m 126.84729,208.37084 7.49635,7.12339"
     style="fill:none;stroke:#000000;stroke-width:2;stroke-linecap:butt;stroke-linejoin:round;stroke-miterlimit:4;stroke-dasharray:none;stroke-opacity:1"
     id="path702" />
  <path
     d="m 134.34364,215.49423 7.71631,-7.77445"
     style="fill:none;stroke:#000000;stroke-width:2;stroke-linecap:butt;stroke-linejoin:round;stroke-miterlimit:4;stroke-dasharray:none;stroke-opacity:1"
     id="path704" />
  <path
     d="m 142.05995,207.71978 7.4853,7.84267"
     style="fill:none;stroke:#000000;stroke-width:2;stroke-linecap:butt;stroke-linejoin:round;stroke-miterlimit:4;stroke-dasharray:none;stroke-opacity:1"
     id="path706" />
  <path
     d="m 149.54525,215.56245 7.293,-6.75692"
     style="fill:none;stroke:#000000;stroke-width:2;stroke-linecap:butt;stroke-linejoin:round;stroke-miterlimit:4;stroke-dasharray:none;stroke-opacity:1"
     id="path708" />
  <path
     d="m 156.83825,208.80553 7.59478,7.7228"
     style="fill:none;stroke:#000000;stroke-width:2;stroke-linecap:butt;stroke-linejoin:round;stroke-miterlimit:4;stroke-dasharray:none;stroke-opacity:1"
     id="path710" />
  <path
     d="m 164.43303,216.52833 6.63999,-6.20235"
     style="fill:none;stroke:#000000;stroke-width:2;stroke-linecap:butt;stroke-linejoin:round;stroke-miterlimit:4;stroke-dasharray:none;stroke-opacity:1"
     id="path712" />
  <path
     d="m 171.07302,210.32598 5.68677,7.68219"
     style="fill:none;stroke:#000000;stroke-width:2;stroke-linecap:butt;stroke-linejoin:round;stroke-miterlimit:4;stroke-dasharray:none;stroke-opacity:1"
     id="path714" />
  <path
     d="m 176.75979,218.00817 6.67829,-6.13249"
     style="fill:none;stroke:#000000;stroke-width:2;stroke-linecap:butt;stroke-linejoin:round;stroke-miterlimit:4;stroke-dasharray:none;stroke-opacity:1"
     id="path716" />
  <path
     d="m 101.53271,206.24154 9.92099,-9.0389"
     style="fill:none;stroke:#000000;stroke-width:2;stroke-linecap:butt;stroke-linejoin:round;stroke-miterlimit:4;stroke-dasharray:none;stroke-opacity:1"
     id="path718" />
  <path
     d="m 111.4537,197.20264 7.58957,6.55162"
     style="fill:none;stroke:#000000;stroke-width:2;stroke-linecap:butt;stroke-linejoin:round;stroke-miterlimit:4;stroke-dasharray:none;stroke-opacity:1"
     id="path720" />
  <path
     d="m 119.04327,203.75426 7.32676,-7.89142"
     style="fill:none;stroke:#000000;stroke-width:2;stroke-linecap:butt;stroke-linejoin:round;stroke-miterlimit:4;stroke-dasharray:none;stroke-opacity:1"
     id="path722" />
  <path
     d="m 126.37003,195.86284 7.792,7.21339"
     style="fill:none;stroke:#000000;stroke-width:2;stroke-linecap:butt;stroke-linejoin:round;stroke-miterlimit:4;stroke-dasharray:none;stroke-opacity:1"
     id="path724" />
  <path
     d="m 134.16203,203.07623 8.80402,-7.88395"
     style="fill:none;stroke:#000000;stroke-width:2;stroke-linecap:butt;stroke-linejoin:round;stroke-miterlimit:4;stroke-dasharray:none;stroke-opacity:1"
     id="path726" />
  <path
     d="m 142.96605,195.19228 6.77999,7.64937"
     style="fill:none;stroke:#000000;stroke-width:2;stroke-linecap:butt;stroke-linejoin:round;stroke-miterlimit:4;stroke-dasharray:none;stroke-opacity:1"
     id="path728" />
  <path
     d="m 149.74604,202.84165 7.58374,-7.53795"
     style="fill:none;stroke:#000000;stroke-width:2;stroke-linecap:butt;stroke-linejoin:round;stroke-miterlimit:4;stroke-dasharray:none;stroke-opacity:1"
     id="path730" />
  <path
     d="m 171.99568,196.08085 6.87093,8.09411"
     style="fill:none;stroke:#000000;stroke-width:2;stroke-linecap:butt;stroke-linejoin:round;stroke-miterlimit:4;stroke-dasharray:none;stroke-opacity:1"
     id="path732" />
  <path
     d="m 178.86661,204.17496 7.21924,-5.31636"
     style="fill:none;stroke:#000000;stroke-width:2;stroke-linecap:butt;stroke-linejoin:round;stroke-miterlimit:4;stroke-dasharray:none;stroke-opacity:1"
     id="path734" />
  <path
     d="m 163.83069,203.25229 8.16499,-7.17144"
     style="fill:none;stroke:#000000;stroke-width:2;stroke-linecap:butt;stroke-linejoin:round;stroke-miterlimit:4;stroke-dasharray:none;stroke-opacity:1"
     id="path736" />
  <path
     d="m 157.32978,195.3037 6.50091,7.94859"
     style="fill:none;stroke:#000000;stroke-width:2;stroke-linecap:butt;stroke-linejoin:round;stroke-miterlimit:4;stroke-dasharray:none;stroke-opacity:1"
     id="path738" />
  <path
     d="m 185.51567,205.12721 c -27.91786,-3.39342 -56.1645,-3.01882 -83.98296,1.11433"
     style="fill:none;stroke:#000000;stroke-width:2;stroke-linecap:butt;stroke-linejoin:round;stroke-miterlimit:4;stroke-dasharray:none;stroke-opacity:1"
     id="path740" />
  <path
     d="m 183.81686,211.61058 c -26.84802,-4.55226 -54.24932,-4.81185 -81.1792,-0.76898"
     style="fill:none;stroke:#000000;stroke-width:2;stroke-linecap:butt;stroke-linejoin:round;stroke-miterlimit:4;stroke-dasharray:none;stroke-opacity:1"
     id="path742" />
  <path
     d="m 95.031812,195.02366 c 0.698158,1.50031 2.418439,2.22869 3.981122,1.68713"
     style="fill:none;stroke:#000000;stroke-width:2;stroke-linecap:round;stroke-linejoin:round;stroke-miterlimit:4;stroke-dasharray:none;stroke-opacity:1"
     id="path744" />
  <path
     d="m 88.686522,192.43953 c 1.073092,2.43143 3.880076,3.57438 6.34529,2.58413"
     style="fill:none;stroke:#000000;stroke-width:2;stroke-linecap:round;stroke-linejoin:round;stroke-miterlimit:4;stroke-dasharray:none;stroke-opacity:1"
     id="path746" />
  <path
     d="m 88.602701,187.74919 c -0.603013,1.51137 -0.573721,3.20141 0.08386,4.69034"
     style="fill:none;stroke:#000000;stroke-width:2;stroke-linecap:round;stroke-linejoin:round;stroke-miterlimit:4;stroke-dasharray:none;stroke-opacity:1"
     id="path748" />
  <path
     d="m 91.453232,183.3113 c -1.224813,1.28394 -2.191986,2.79042 -2.850531,4.43789"
     style="fill:none;stroke:#000000;stroke-width:2;stroke-linecap:round;stroke-linejoin:round;stroke-miterlimit:4;stroke-dasharray:none;stroke-opacity:1"
     id="path750" />
  <path
     d="m 93.905455,184.83468 c -1.609807,3.24525 -2.123443,6.92357 -1.466212,10.4856"
     style="fill:none;stroke:#000000;stroke-width:2;stroke-linecap:round;stroke-linejoin:round;stroke-miterlimit:4;stroke-dasharray:none;stroke-opacity:1"
     id="path752" />
  <path
     d="m 85.090386,189.53768 c 0.02197,0.8899 0.433766,1.72416 1.126377,2.28295 0.69236,0.55911 1.594862,0.78557 2.469759,0.61887"
     style="fill:none;stroke:#000000;stroke-width:2;stroke-linecap:round;stroke-linejoin:round;stroke-miterlimit:4;stroke-dasharray:none;stroke-opacity:1"
     id="path754" />
  <path
     d="m 86.680694,181.52216 c -1.115975,2.52142 -1.65851,5.25921 -1.590308,8.01552"
     style="fill:none;stroke:#000000;stroke-width:2;stroke-linecap:round;stroke-linejoin:round;stroke-miterlimit:4;stroke-dasharray:none;stroke-opacity:1"
     id="path756" />
  <path
     d="m 99.012934,196.71079 c 1.967186,-2.58673 3.009706,-5.75855 2.961646,-9.00741"
     style="fill:none;stroke:#000000;stroke-width:2;stroke-linecap:round;stroke-linejoin:round;stroke-miterlimit:4;stroke-dasharray:none;stroke-opacity:1"
     id="path758" />
  <path
     d="m 95.031812,195.02366 c 1.813191,-2.58316 2.42492,-5.82191 1.679004,-8.8888"
     style="fill:none;stroke:#000000;stroke-width:2;stroke-linecap:round;stroke-linejoin:round;stroke-miterlimit:4;stroke-dasharray:none;stroke-opacity:1"
     id="path760" />
  <path
     d="m 105.26987,183.02605 c 9.45247,-3.22348 18.19183,-8.24522 25.73625,-14.78836"
     style="fill:none;stroke:#000000;stroke-width:2;stroke-linecap:round;stroke-linejoin:round;stroke-miterlimit:4;stroke-dasharray:none;stroke-opacity:1"
     id="path762" />
  <path
     d="m 140.94202,163.51422 c -3.67927,0.6426 -7.11426,2.27548 -9.9359,4.72347"
     style="fill:none;stroke:#000000;stroke-width:2;stroke-linecap:round;stroke-linejoin:round;stroke-miterlimit:4;stroke-dasharray:none;stroke-opacity:1"
     id="path764" />
  <path
     d="m 140.94202,163.51422 c 4.34304,-0.75894 8.33265,-2.87879 11.39011,-6.05518"
     style="fill:none;stroke:#000000;stroke-width:2;stroke-linecap:round;stroke-linejoin:round;stroke-miterlimit:4;stroke-dasharray:none;stroke-opacity:1"
     id="path766" />
  <path
     d="m 152.33213,157.45904 c 3.17345,-3.29495 3.46714,-8.41349 0.6907,-12.05023"
     style="fill:none;stroke:#000000;stroke-width:2;stroke-linecap:round;stroke-linejoin:round;stroke-miterlimit:4;stroke-dasharray:none;stroke-opacity:1"
     id="path768" />
  <path
     d="m 105.26987,183.02605 c -1.99577,0.68031 -3.32551,2.56917 -3.29529,4.67733"
     style="fill:none;stroke:#000000;stroke-width:2;stroke-linecap:round;stroke-linejoin:round;stroke-miterlimit:4;stroke-dasharray:none;stroke-opacity:1"
     id="path770" />
  <path
     d="m 94.897306,173.5661 c 9.209464,-7.65198 17.540134,-16.30426 24.840264,-25.79508"
     style="fill:none;stroke:#000000;stroke-width:2;stroke-linecap:round;stroke-linejoin:round;stroke-miterlimit:4;stroke-dasharray:none;stroke-opacity:1"
     id="path772" />
  <path
     d="m 94.897306,173.5661 c -2.851163,2.36874 -4.173429,6.11039 -3.444074,9.7452"
     style="fill:none;stroke:#000000;stroke-width:2;stroke-linecap:round;stroke-linejoin:round;stroke-miterlimit:4;stroke-dasharray:none;stroke-opacity:1"
     id="path774" />
  <path
     d="m 119.73757,139.17301 c -1.93015,2.5409 -1.93015,6.0571 0,8.59801"
     style="fill:none;stroke:#000000;stroke-width:2;stroke-linecap:round;stroke-linejoin:round;stroke-miterlimit:4;stroke-dasharray:none;stroke-opacity:1"
     id="path776" />
  <path
     d="m 152.15049,157.64618 c 5.37652,2.07926 11.30823,2.22771 16.78221,0.41875"
     style="fill:none;stroke:#000000;stroke-width:2;stroke-linecap:round;stroke-linejoin:round;stroke-miterlimit:4;stroke-dasharray:none;stroke-opacity:1"
     id="path778" />
  <path
     d="m 168.9327,158.06495 c 2.94048,-0.97238 4.90473,-3.74623 4.84398,-6.84236"
     style="fill:none;stroke:#000000;stroke-width:2;stroke-linecap:round;stroke-linejoin:round;stroke-miterlimit:4;stroke-dasharray:none;stroke-opacity:1"
     id="path780" />
  <path
     d="m 153.02283,145.40881 14.0044,13.20227"
     style="fill:none;stroke:#000000;stroke-width:2;stroke-linecap:round;stroke-linejoin:round;stroke-miterlimit:4;stroke-dasharray:none;stroke-opacity:1"
     id="path782" />
  <path
     d="m 160.10106,147.39156 10.47908,9.87873"
     style="fill:none;stroke:#000000;stroke-width:2;stroke-linecap:round;stroke-linejoin:round;stroke-miterlimit:4;stroke-dasharray:none;stroke-opacity:1"
     id="path784" />
  <path
     d="m 154.88765,151.85611 7.86281,7.41254"
     style="fill:none;stroke:#000000;stroke-width:2;stroke-linecap:round;stroke-linejoin:round;stroke-miterlimit:4;stroke-dasharray:none;stroke-opacity:1"
     id="path786" />
  <path
     d="m 167.17832,149.37334 5.72247,5.39567"
     style="fill:none;stroke:#000000;stroke-width:2;stroke-linecap:round;stroke-linejoin:round;stroke-miterlimit:4;stroke-dasharray:none;stroke-opacity:1"
     id="path788" />
  <path
     d="m 165.77483,148.98025 -1.72485,10.16883"
     style="fill:none;stroke:#000000;stroke-width:2;stroke-linecap:round;stroke-linejoin:round;stroke-miterlimit:4;stroke-dasharray:none;stroke-opacity:1"
     id="path790" />
  <path
     d="m 162.36092,148.02411 -1.9155,11.28773"
     style="fill:none;stroke:#000000;stroke-width:2;stroke-linecap:round;stroke-linejoin:round;stroke-miterlimit:4;stroke-dasharray:none;stroke-opacity:1"
     id="path792" />
  <path
     d="m 169.18868,149.93704 -1.43955,8.48626"
     style="fill:none;stroke:#000000;stroke-width:2;stroke-linecap:round;stroke-linejoin:round;stroke-miterlimit:4;stroke-dasharray:none;stroke-opacity:1"
     id="path794" />
  <path
     d="m 158.94609,147.06732 -2.01787,11.89754"
     style="fill:none;stroke:#000000;stroke-width:2;stroke-linecap:round;stroke-linejoin:round;stroke-miterlimit:4;stroke-dasharray:none;stroke-opacity:1"
     id="path796" />
  <path
     d="m 83.721977,191.23976 c 0.591978,0.0414 1.179663,-0.12792 1.659513,-0.47889"
     style="fill:none;stroke:#000000;stroke-width:2;stroke-linecap:round;stroke-linejoin:round;stroke-miterlimit:4;stroke-dasharray:none;stroke-opacity:1"
     id="path798" />
  <path
     d="m 203.62403,159.58279 -79.1214,-22.16318"
     style="fill:none;stroke:#000000;stroke-width:2;stroke-linecap:round;stroke-linejoin:round;stroke-miterlimit:4;stroke-dasharray:none;stroke-opacity:1"
     id="path800" />
</svg>
