<?xml version="1.0" encoding="UTF-8" standalone="no"?>
<!-- Created with Inkscape (http://www.inkscape.org/) -->
<svg
   xmlns:dc="http://purl.org/dc/elements/1.1/"
   xmlns:cc="http://web.resource.org/cc/"
   xmlns:rdf="http://www.w3.org/1999/02/22-rdf-syntax-ns#"
   xmlns:svg="http://www.w3.org/2000/svg"
   xmlns="http://www.w3.org/2000/svg"
   xmlns:sodipodi="http://sodipodi.sourceforge.net/DTD/sodipodi-0.dtd"
   xmlns:inkscape="http://www.inkscape.org/namespaces/inkscape"
   version="1.0"
   width="900"
   height="600"
   id="svg2385"
   sodipodi:version="0.32"
   inkscape:version="0.45.1"
   sodipodi:docname="Flag_of_FRETILIN_(East_Timor).svg"
   inkscape:output_extension="org.inkscape.output.svg.inkscape"
   sodipodi:docbase="D:\">
  <metadata
     id="metadata11">
    <rdf:RDF>
      <cc:Work
         rdf:about="">
        <dc:format>image/svg+xml</dc:format>
        <dc:type
           rdf:resource="http://purl.org/dc/dcmitype/StillImage" />
      </cc:Work>
    </rdf:RDF>
  </metadata>
  <sodipodi:namedview
     inkscape:window-height="968"
     inkscape:window-width="1280"
     inkscape:pageshadow="2"
     inkscape:pageopacity="0.0"
     guidetolerance="10.0"
     gridtolerance="10.0"
     objecttolerance="10.0"
     borderopacity="1.0"
     bordercolor="#666666"
     pagecolor="#ffffff"
     id="base"
     inkscape:zoom="1.2566667"
     inkscape:cx="450"
     inkscape:cy="305.00637"
     inkscape:window-x="-4"
     inkscape:window-y="-4"
     inkscape:current-layer="svg2385" />
  <defs
     id="defs2387" />
  <g
     id="g3765">
    <rect
       width="900"
       height="600"
       x="0"
       y="7.6293945e-006"
       style="fill:#ff0000;fill-opacity:1;fill-rule:nonzero;stroke:none;stroke-width:9;stroke-miterlimit:4;stroke-dasharray:none;stroke-opacity:1"
       id="rect2458" />
    <rect
       width="300"
       height="600"
       x="0"
       y="4.0154945e-014"
       style="fill:#000000;fill-opacity:1;fill-rule:nonzero;stroke:none;stroke-width:9;stroke-miterlimit:4;stroke-dasharray:none;stroke-opacity:1"
       id="rect3744" />
    <path
       d="M 227.90555,218.92027 L 194.59177,286.11758 L 250.40929,336.27068 L 173.79257,327.86251 L 140.20412,394.938 L 126.16621,322.54446 L 49.59,313.847 L 117.53081,277.51333 L 103.79248,205.06205 L 159.82009,255.0001 L 227.90555,218.92027 z "
       style="fill:#ffffff;fill-opacity:1;fill-rule:evenodd"
       id="path3746" />
    <rect
       width="600"
       height="178"
       x="300"
       y="211"
       style="fill:#ffff00;fill-opacity:1;fill-rule:nonzero;stroke:none;stroke-width:9;stroke-miterlimit:4;stroke-dasharray:none;stroke-opacity:1"
       id="rect3748" />
  </g>
  <path
     d="M 349.99998,328.45499 L 349.99998,271.54505 L 389.01396,271.54505 L 389.01396,281.17238 L 361.49067,281.17238 L 361.49067,294.64287 L 385.24843,294.64287 L 385.24843,304.2702 L 361.49067,304.2702 L 361.49067,328.45499 L 349.99998,328.45499 z M 420.61334,328.45499 L 420.61334,271.54505 L 444.79812,271.54505 C 450.87987,271.54511 455.29886,272.05623 458.05511,273.07843 C 460.81128,274.10075 463.01754,275.91881 464.6739,278.53263 C 466.33016,281.14655 467.15832,284.13567 467.15837,287.50002 C 467.15832,291.77024 465.90314,295.29638 463.39284,298.07843 C 460.88245,300.86055 457.12986,302.61392 452.13508,303.33853 C 454.61951,304.78783 456.67049,306.37944 458.28803,308.11337 C 459.90548,309.84734 462.08586,312.92705 464.82918,317.3525 L 471.77794,328.45499 L 458.0357,328.45499 L 449.72825,316.07145 C 446.7779,311.646 444.75927,308.85744 443.67235,307.70576 C 442.58536,306.55413 441.43371,305.76479 440.21738,305.33775 C 439.001,304.91076 437.07295,304.69725 434.43322,304.69722 L 432.10402,304.69722 L 432.10402,328.45499 L 420.61334,328.45499 z M 432.10402,295.61337 L 440.60558,295.61337 C 446.11797,295.6134 449.55999,295.38049 450.93166,294.91461 C 452.30326,294.44881 453.37728,293.64653 454.15371,292.50778 C 454.93007,291.3691 455.31827,289.94571 455.31831,288.2376 C 455.31827,286.32252 454.80714,284.7762 453.78492,283.59862 C 452.76263,282.42113 451.31983,281.67708 449.45651,281.36648 C 448.5248,281.23713 445.72977,281.17243 441.07142,281.17238 L 432.10402,281.17238 L 432.10402,295.61337 z M 500.07762,328.45499 L 500.07762,271.54505 L 542.27482,271.54505 L 542.27482,281.17238 L 511.5683,281.17238 L 511.5683,293.78884 L 540.13973,293.78884 L 540.13973,303.37735 L 511.5683,303.37735 L 511.5683,318.86648 L 543.36178,318.86648 L 543.36178,328.45499 L 500.07762,328.45499 z M 588.04347,328.45499 L 588.04347,281.17238 L 571.15682,281.17238 L 571.15682,271.54505 L 616.38198,271.54505 L 616.38198,281.17238 L 599.53415,281.17238 L 599.53415,328.45499 L 588.04347,328.45499 z M 645.5357,328.45499 L 645.5357,271.54505 L 657.02639,271.54505 L 657.02639,328.45499 L 645.5357,328.45499 z M 690.29504,328.45499 L 690.29504,272.01089 L 701.78572,272.01089 L 701.78572,318.86648 L 730.35715,318.86648 L 730.35715,328.45499 L 690.29504,328.45499 z M 760.28726,328.45499 L 760.28726,271.54505 L 771.77794,271.54505 L 771.77794,328.45499 L 760.28726,328.45499 z M 804.85246,328.45499 L 804.85246,271.54505 L 816.03259,271.54505 L 839.32451,309.54971 L 839.32451,271.54505 L 849.99998,271.54505 L 849.99998,328.45499 L 838.47048,328.45499 L 815.52793,291.34319 L 815.52793,328.45499 L 804.85246,328.45499 z "
     style="font-size:79.50310516px;font-style:normal;font-variant:normal;font-weight:bold;font-stretch:normal;text-align:start;line-height:125%;writing-mode:lr-tb;text-anchor:start;fill:#000000;fill-opacity:1;stroke:none;stroke-width:1px;stroke-linecap:butt;stroke-linejoin:miter;stroke-opacity:1;font-family:Arial"
     id="text3760" />
</svg>
